<svg xmlns="http://www.w3.org/2000/svg" viewBox="0 0 1364 960" xmlns:v="https://vecta.io/nano"><g fill="#d9e3ff"><use href="#B"/><use href="#B" x="30.863"/><use href="#B" x="61.726"/><use href="#B" x="92.588"/><use href="#B" x="123.451"/><use href="#B" x="154.314"/><use href="#B" x="185.177"/><use href="#B" y="33.084"/><use href="#B" x="30.863" y="33.084"/><circle cx="494.094" cy="341.389" r="7.716"/><use href="#B" x="92.588" y="33.084"/><circle cx="555.819" cy="341.389" r="7.716"/><use href="#B" x="154.314" y="33.084"/><circle cx="617.544" cy="341.389" r="7.716"/><use href="#B" y="-65.82"/><use href="#B" x="30.863" y="-65.82"/><circle cx="494.094" cy="242.485" r="7.716"/><use href="#B" x="92.588" y="-65.82"/><circle cx="555.819" cy="242.485" r="7.716"/><use href="#B" x="154.314" y="-65.82"/><circle cx="617.544" cy="242.485" r="7.716"/><use href="#B" y="-32.735"/><use href="#B" x="30.863" y="-32.735"/><use href="#B" x="61.726" y="-32.735"/><use href="#B" x="92.588" y="-32.735"/><use href="#B" x="123.451" y="-32.735"/><use href="#B" x="154.314" y="-32.735"/><use href="#B" x="185.177" y="-32.735"/><use href="#B" x="413.598" y="353.232"/><circle cx="876.828" cy="661.537" r="7.716"/><circle cx="907.691" cy="661.537" r="7.716"/><use href="#B" x="506.186" y="353.232"/><use href="#B" x="537.049" y="353.232"/><use href="#B" x="567.911" y="353.232"/><circle cx="1031.142" cy="661.537" r="7.716"/><use href="#C"/><use href="#B" x="444.46" y="386.316"/><use href="#B" x="475.323" y="386.316"/><use href="#C" x="92.588"/><use href="#C" x="123.451"/><use href="#B" x="567.911" y="386.316"/><path d="M1023.426 694.621a7.72 7.72 0 0 1 7.716-7.716c4.262 0 7.716 3.454 7.716 7.716a7.72 7.72 0 0 1-7.716 7.716c-4.262 0-7.716-3.454-7.716-7.716z"/><use href="#B" x="413.598" y="287.412"/><circle cx="876.828" cy="595.717" r="7.716"/><circle cx="907.691" cy="595.717" r="7.716"/><use href="#B" x="506.186" y="287.412"/><use href="#B" x="537.049" y="287.412"/><use href="#B" x="567.911" y="287.412"/><circle cx="1031.142" cy="595.717" r="7.716"/><use href="#B" x="413.598" y="320.497"/><circle cx="876.828" cy="628.802" r="7.716"/><circle cx="907.691" cy="628.802" r="7.716"/><use href="#B" x="506.186" y="320.497"/><use href="#B" x="537.049" y="320.497"/><use href="#B" x="567.911" y="320.497"/><circle cx="1031.142" cy="628.802" r="7.716"/></g><path d="M190.079 392.487a37.29 37.29 0 0 1-5.197-5.471c1.928-1.024 3.169-3.883 1.554-6.986-.728-1.398-2.572-3.724-3.636-4.87-3.056-3.29-4.307-8.205-3.272-12.851-1.192 3.037-2.392 6.097-2.992 9.259s-1.637 7.371-.419 10.196c1.176 2.729 3.821 6.378 7.64 5.637a37.92 37.92 0 0 0 3.702 4.219c-4.264-1.359-8.604-2.522-13.005-3.479-.027-.056-.065-.111-.124-.159-2.16-1.777-4.101-3.787-5.799-5.988 1.933-1.019 3.181-3.883 1.564-6.99-.727-1.398-2.572-3.723-3.636-4.87-3.056-3.29-4.307-8.205-3.272-12.851-1.192 3.037-2.392 6.097-2.992 9.259s-1.637 7.371-.419 10.196c1.177 2.729 3.821 6.379 7.64 5.637a37.78 37.78 0 0 0 4.877 5.319 145.42 145.42 0 0 0-12.783-1.995c-2.158-1.775-4.096-3.783-5.793-5.982 1.933-1.019 3.181-3.883 1.564-6.99-.728-1.398-2.572-3.724-3.637-4.87-3.056-3.29-4.307-8.205-3.272-12.851-1.192 3.037-2.392 6.097-2.992 9.259s-1.637 7.371-.419 10.196c1.177 2.73 3.821 6.379 7.641 5.637a37.77 37.77 0 0 0 4.975 5.406c-2.063-.2-4.133-.368-6.211-.481-1.739-.094-3.485-.123-5.23-.156-2.336-1.052-4.541-2.33-6.59-3.808 1.634-1.472 2.11-4.496-.296-6.998-1.084-1.128-3.514-2.837-4.865-3.639-3.878-2.301-6.401-6.608-6.596-11.264-.381 3.178-.764 6.38-.528 9.521s.315 7.383 2.258 9.729c1.876 2.265 5.442 5.013 9.017 3.311 1.555 1.152 3.199 2.189 4.926 3.098-5.364-.008-10.75.289-16.131.847a38.06 38.06 0 0 1-7.479-2.929c1.44-1.665 1.507-4.694-1.249-6.817-1.241-.955-3.909-2.297-5.372-2.896-4.2-1.721-7.317-5.594-8.149-10.127.052 3.165-.729 6.803-.064 9.846s2.16 6.737 4.427 8.768c2.188 1.961 6.134 4.161 9.484 2.009a39.08 39.08 0 0 0 5.645 2.458c-4.771.579-9.53 1.38-14.263 2.397-.042-.022-.081-.049-.136-.06-2.787-.586-5.467-1.47-8.004-2.623 1.366-1.727 1.285-4.747-1.586-6.723-1.291-.889-4.033-2.091-5.531-2.615-4.298-1.504-7.615-5.201-8.673-9.668.209 3.145-.335 6.848.482 9.842s2.44 6.548 4.814 8.455c2.292 1.841 6.358 3.835 9.61 1.528 2.098.978 4.294 1.774 6.565 2.376a161.79 161.79 0 0 0-14.658 4.12c-.14.047-2.188.645-5.452 1.175-.052-1.97-1.79-3.959-5.127-3.935-1.628.011-4.706.577-6.315.99-4.616 1.186-9.575.099-12.968-2.844 1.916 2.368 3.847 4.752 6.217 6.665s5.384 4.662 8.527 4.857c3.033.188 7.712-.483 9.31-4.097 2.042-.329 4.074-.801 6.078-1.42.021-.005.038 0 .06-.008.098-.033.196-.062.294-.094l.144-.046c2.889-.953 5.798-1.817 8.722-2.602-1.686 1.458-3.267 3.029-4.734 4.696-.023-.007-.046-.018-.069-.025-3.937-1.113-7.203 2.715-8.767 5.554s-1.897 6.903-1.67 10.086 1.942 6.439 2.78 9.498c-.487-4.678 1.36-9.62 4.831-12.921 1.209-1.15 3.345-3.485 4.244-4.889 1.87-2.919 1.191-5.629-.396-6.813 1.879-2.116 3.948-4.069 6.189-5.821 4.812-1.212 9.663-2.187 14.532-2.938a49.13 49.13 0 0 0-5.942 5.673c-3.721-.661-6.898 3.056-8.47 5.818-1.627 2.857-2.059 6.899-1.912 10.053s1.771 6.342 2.528 9.357c-.368-4.631 1.593-9.582 5.128-12.946 1.232-1.172 3.414-3.543 4.344-4.959 2.068-3.15 1.229-5.991-.561-6.967 1.993-2.22 4.196-4.258 6.59-6.067.097-.074.154-.162.194-.254l4.068-.521c3.637-.416 7.273-.659 10.906-.815-1.973 1.629-3.814 3.407-5.502 5.313-3.718-.655-6.892 3.059-8.463 5.819-1.627 2.858-2.059 6.899-1.912 10.053s1.771 6.342 2.528 9.357c-.368-4.631 1.593-9.582 5.127-12.946 1.232-1.172 3.414-3.543 4.344-4.96 2.065-3.146 1.231-5.984-.554-6.964a47 47 0 0 1 6.18-5.746c4.787-.151 9.556-.074 14.295.227-2.2 1.759-4.24 3.702-6.099 5.799-3.722-.662-6.898 3.056-8.471 5.818-1.627 2.857-2.059 6.899-1.912 10.053s1.771 6.342 2.528 9.357c-.368-4.631 1.593-9.582 5.127-12.946 1.232-1.172 3.414-3.543 4.344-4.959 2.068-3.15 1.229-5.991-.562-6.967 1.993-2.22 4.197-4.258 6.591-6.067 4.303.316 8.568.843 12.795 1.534-2.241 1.774-4.315 3.741-6.199 5.868-3.667-.646-6.798 3.018-8.348 5.74-1.605 2.819-2.031 6.806-1.886 9.917s1.747 6.256 2.493 9.23c-.363-4.568 1.572-9.453 5.059-12.771 1.215-1.156 3.367-3.495 4.285-4.893 2.038-3.104 1.215-5.903-.547-6.87a46.04 46.04 0 0 1 6.499-5.982c.011-.008.015-.018.024-.026 4.149.72 8.246 1.643 12.292 2.725a49.17 49.17 0 0 0-5.979 5.703c-3.722-.662-6.898 3.056-8.471 5.818-1.627 2.857-2.059 6.899-1.912 10.053s1.771 6.342 2.528 9.357c-.368-4.631 1.593-9.582 5.128-12.945 1.232-1.172 3.414-3.543 4.344-4.96 2.065-3.146 1.231-5.984-.555-6.964 1.875-2.085 3.937-4.009 6.166-5.735.461.128.931.23 1.39.363 19.651 5.674 37.738 15.579 52.781 28.907.669.593 1.724-.489 1.054-1.083-8.496-7.527-17.945-13.988-28.108-19.211-6.057-3.114-12.358-5.769-18.84-7.974zm963.319 29.21c1.159-2.313 4.451-2.847 6.749-1.671s3.735 3.559 4.702 5.962c1.564 3.887 2.159 7.756 2.602 11.827a171.6 171.6 0 0 1 4.008-10.934c.961-2.376 1.977-4.733 3.042-7.069-5.183-2.641-9.555-6.86-12.361-11.957-1.063-1.932-1.904-4.315-.912-6.284 1.16-2.301 4.453-2.835 6.75-1.668s3.731 3.537 4.696 5.926c1.62 4.011 2.196 8.005 2.642 12.223 3.365-7.159 7.236-14.085 11.68-20.622a29.49 29.49 0 0 1-10.105-13.611c-.744-2.076-1.197-4.562.096-6.349 1.51-2.087 4.846-2.093 6.928-.576s3.124 4.084 3.698 6.596c.93 4.07.902 7.97.694 12.044 4.792-6.818 10.387-13.45 17.37-18.043.145-.096.295-.185.441-.279-4.137-4.059-7.037-9.37-8.193-15.051-.44-2.161-.533-4.687 1.001-6.27 1.793-1.85 5.095-1.38 6.94.419s2.508 4.488 2.718 7.056c.369 4.525-.354 8.689-1.243 13.073 8.211-5.086 17.394-8.679 25.417-14.038-4.251-4.085-7.233-9.478-8.409-15.257-.44-2.161-.533-4.687 1.001-6.27 1.793-1.85 5.095-1.379 6.94.419s2.509 4.488 2.718 7.056c.379 4.646-.393 8.912-1.316 13.427 1.981-1.375 3.885-2.867 5.676-4.531 3.626-3.37 6.495-7.485 8.634-11.995a29.46 29.46 0 0 1-12.414-12.77c-.981-1.975-1.722-4.391-.647-6.317 1.255-2.25 4.568-2.645 6.813-1.383s3.58 3.691 4.443 6.118c1.584 4.452 1.925 8.829 2.198 13.499 3.299-7.35 4.692-15.675 4.249-23.535-4.477-3.148-8.058-7.567-10.178-12.615-.854-2.034-1.439-4.492-.244-6.345 1.396-2.166 4.727-2.349 6.888-.946s3.338 3.911 4.045 6.389c1.129 3.952 1.322 7.789 1.337 11.799a1.03 1.03 0 0 1 .145.461c.527 6.682-.327 13.443-2.296 19.841-.434 1.411-.922 2.813-1.462 4.196 3.666-3.861 8.394-6.712 13.533-8.113 2.128-.58 4.642-.838 6.323.589 1.964 1.668 1.71 4.994.036 6.952s-4.314 2.796-6.863 3.174c-4.754.703-9.184.159-13.908-.493-1.26 2.85-2.785 5.58-4.676 8.052-2.863 3.744-6.326 6.782-10.103 9.421 5.15-1.907 10.842-2.345 16.217-1.212 2.158.455 4.513 1.373 5.357 3.41.986 2.38-.758 5.224-3.142 6.202s-5.115.519-7.555-.309c-4.675-1.587-8.446-4.189-12.471-7.011-6.357 4.171-13.467 7.371-20.081 10.954-2.082 1.128-4.116 2.306-6.077 3.588 5.481-2.351 11.688-2.982 17.525-1.759 2.158.452 4.514 1.367 5.361 3.403.989 2.379-.751 5.225-3.133 6.206s-5.114.526-7.555-.299c-4.784-1.616-8.623-4.296-12.756-7.187-2.075 1.389-4.059 2.908-5.911 4.635-3.387 3.159-6.411 6.698-9.194 10.395a117.71 117.71 0 0 0-2.171 2.986c4.745-2.595 10.216-3.859 15.619-3.572 2.202.117 4.67.661 5.818 2.544 1.341 2.2.056 5.279-2.149 6.612s-4.974 1.301-7.513.858c-4.69-.817-8.694-2.696-12.929-4.774-4.34 6.388-8.086 13.196-11.36 20.19 4.135-3.842 9.395-6.466 14.958-7.425 2.173-.374 4.701-.391 6.237 1.191 1.795 1.848 1.225 5.135-.629 6.924s-4.562 2.371-7.135 2.503c-4.883.25-9.309-.754-14.04-1.877l-1.259 2.799c-2.254 5.137-4.283 10.397-6.014 15.75 4.084-3.68 9.216-6.193 14.636-7.126 2.174-.374 4.701-.391 6.238 1.191 1.795 1.848 1.225 5.135-.629 6.924s-4.562 2.371-7.135 2.503c-4.749.243-9.065-.699-13.65-1.784-1.9 6.127-3.4 12.374-4.38 18.705-.204 1.319-2.235.911-2.032-.405.99-6.393 2.518-12.699 4.44-18.884-5.205-2.659-9.596-6.913-12.414-12.055-1.064-1.945-1.906-4.342-.915-6.321z" fill="#fcbdff"/><path fill="#fdccff" d="M1229.175 561.564c-5.533.675-14.142.948-28.164-3.309-8.597-2.642-20.53-6.233-33.182-15.889-.546-.417-1.514-1.145-2.717-2.173-.063-.045-.134-.098-.188-.151-.117-.08-.233-.177-.358-.266-.413-.337-.844-.709-1.327-1.065-8.984-7.729-26.7-25.388-25.684-46.11.039-1.194.895-16.254 8.516-18.404 9.558-2.592 22.908 16.683 26.639 14.237 1.882-1.249-.928-6.338-2.081-13.187-2.735-15.37 3.243-35.788 16.318-39.598 6.17-1.864 14.175-.008 19.514 5.031 8.765 8.095 3.882 24.352 5.286 24.653 2.047.35 1.973-32.945 19.216-40.294 6.064-2.55 14.771-2.111 18.792 2.233 5.883 6.378-.941 18.571 2.635 20.663 3.791 2.217 10.703-11.635 27.342-16.224 4.23-1.134 14.163-3.854 21.631 1.65 6.516 4.707 9.407 13.914 7.365 21.184-1.924 6.701-7.556 10.036-9.132 10.902-10.125 5.801-18.035-.48-36.992 3.081-6.617 1.219-13.716 3.489-13.595 5.782.202 1.687 4.325 1.835 9.168 5.702.107.071.268.178.457.364 1.463 1.197 6.651 5.489 7.39 11.641.068.255.725 6.942-3.374 9.727-2.088 1.476-4.605 1.263-5.704 1.21-10.961-.703-24.643 1.741-24.746 3.522-.176 2.036 17.503 3.004 19.292 9.674 1.479 5.544-8.817 11.879-10.149 12.693-11.129 6.732-24.073 5.434-23.995 6.418.1.835 10.398-.724 19.568 5.066 4.285 2.669 10.606 8.313 9.659 13.133-1.093 5.944-12.568 7.476-17.4 8.104z"/><path fill="#fff" d="M1227.12 523.047c-.672-2.353-3.268-3.244-5.448-3.443-2.748-.252-5.491.218-8.098.957-5.484 1.555-10.643 4.472-16.469 4.779-2.944.155-5.945-.383-8.5-2.008 6.163-6.421 11.536-13.607 16.763-20.804l5.896-8.089c8.433-3.161 17.582 1.874 26.251.17 2.306-.454 4.447-1.406 6.186-2.964.293-.262-.159-.704-.451-.443-3.333 2.985-8.054 3.399-12.423 3.074-4.325-.322-8.588-1.426-12.928-1.496-2.043-.033-4.067.202-5.995.801 5.381-7.24 11.039-14.283 17.771-20.306 8.155-7.292 17.953-13.191 28.969-15.105 1.382-.234 2.774-.408 4.167-.511.394-.041.378-.656-.017-.633-10.824.853-20.739 5.627-29.125 12.11-1.43 1.103-2.801 2.268-4.144 3.461.017-.067.02-.141-.024-.22-2.712-4.888.038-10.192 2.698-14.227 1.454-2.206 3.017-4.366 4.085-6.804.888-2.025 1.553-4.343.783-6.564-.132-.381-.729-.229-.597.153.9 2.596-.274 5.372-1.466 7.6-1.297 2.426-2.978 4.608-4.404 6.954-2.344 3.854-4.069 8.796-1.631 13.191.078.142.208.16.326.13-7.544 6.755-13.82 14.808-19.798 22.972l-9.972 13.576c-5.033-4.719-8.176-11.522-8.643-18.283-.255-3.693.472-7.133 1.723-10.544 1.358-3.703 3.087-7.328 3.543-11.316.45-3.937-.536-8.305-3.824-10.951-.313-.252-.745.181-.428.436 3.312 2.665 4.147 7.084 3.561 11.006-.602 4.022-2.418 7.664-3.74 11.45-1.143 3.277-1.716 6.623-1.44 10.141.257 3.269 1.127 6.497 2.48 9.518 1.513 3.378 3.666 6.499 6.392 9.039-4.144 5.436-8.49 10.7-13.398 15.475-3.401 3.312-7.102 6.381-11.074 9.025.629-9.999-7.781-17.75-10.781-26.814-.878-2.652-1.285-5.429-.852-8.163.062-.389-.542-.556-.605-.162-1.592 10.049 6.797 18.155 10.2 27.007 1.029 2.675 1.622 5.475 1.413 8.308-.006.085.028.142.069.19-3.028 1.97-6.208 3.697-9.557 5.056.125.089.242.186.358.266.054.053.126.106.188.151 5.709-2.351 10.997-5.715 15.787-9.653 2.564-2.112 4.973-4.381 7.277-6.752 4.275 2.802 9.579 2.541 14.195 1.266 5.358-1.482 10.344-4.25 15.971-4.806 2.595-.256 7.259-.279 8.181 2.952.113.387.709.234.599-.153z"/><path fill="#fdccff" d="M174.932 382.169c6.85 2.26 17.672 4.787 36.287 2.92 11.419-1.185 27.254-2.733 45.272-11.815.778-.393 2.153-1.073 3.89-2.077a2.11 2.11 0 0 0 .27-.144c.164-.073.332-.167.508-.248.592-.324 1.216-.689 1.901-1.019 12.977-7.559 39.078-25.543 42.148-52.167.202-1.529 2.285-20.908-6.893-25.574-11.535-5.718-32.456 15.427-36.657 11.371-2.116-2.066 2.506-7.83 5.402-16.252 6.686-18.864 3.424-46.357-12.299-54.516-7.406-3.934-17.912-3.599-25.718 1.461-12.778 8.081-10.024 30.002-11.862 30.03-2.66-.073 4.431-42.417-15.815-56.135-7.127-4.78-18.222-6.426-24.217-1.917-8.775 6.626-2.714 23.868-7.672 25.624-5.256 1.861-11.08-17.514-31.143-27.566-5.107-2.513-17.088-8.489-27.682-3.377-9.224 4.339-14.812 15.322-13.759 25.09 1.023 9.014 7.439 14.683 9.249 16.183 11.577 9.944 22.892 3.955 46.101 13.286 8.106 3.227 16.6 7.912 15.965 10.799-.61 2.096-5.851 1.24-12.784 4.934-.151.063-.376.158-.654.347-2.1 1.153-9.558 5.3-11.785 12.941-.14.307-2.375 8.649 2.22 13.231 2.328 2.407 5.554 2.773 6.955 2.983 14 1.88 30.776 8.455 30.531 10.747-.205 2.635-22.75-.61-26.413 7.424-3.034 6.679 8.646 17.347 10.158 18.719 12.649 11.384 29.279 13.009 28.974 14.242-.302 1.036-12.988-3.554-25.793 1.492-5.976 2.31-15.15 7.892-14.967 14.265.129 7.842 14.308 12.696 20.282 14.718z"/><path fill="#fff" d="M185.625 333.681c1.343-2.824 4.812-3.3 7.608-3.001 3.525.375 6.893 1.668 10.033 3.268 6.604 3.367 12.51 8.385 19.808 10.25 3.688.942 7.593 1.017 11.163-.404-6.438-9.731-11.718-20.234-16.812-30.715l-5.75-11.784c-9.993-6.158-22.613-2.067-33.21-6.43-2.819-1.161-5.324-2.915-7.195-5.338-.315-.408.348-.855.663-.449 3.585 4.641 9.464 6.364 15.053 7.057 5.533.685 11.152.36 16.652 1.37 2.589.475 5.097 1.287 7.407 2.537-5.278-10.574-10.948-20.969-18.19-30.337-8.773-11.343-19.915-21.33-33.435-26.553a58.19 58.19 0 0 0-5.159-1.705c-.489-.152-.34-.93.154-.801 13.499 3.825 25.026 12.411 34.261 22.783 1.576 1.765 3.063 3.594 4.509 5.453-.007-.09.005-.185.077-.274 4.454-5.533 2.094-12.978-.419-18.785-1.374-3.175-2.895-6.319-3.732-9.692-.696-2.801-1.049-5.919.39-8.551.247-.451.97-.107.723.346-1.683 3.075-.782 6.904.255 10.042 1.13 3.416 2.794 6.618 4.104 9.962 2.152 5.498 3.294 12.222-.711 17.196-.129.161-.296.151-.439.083 8.114 10.505 14.353 22.34 20.191 34.242l9.749 19.799c7.352-4.73 12.754-12.591 14.765-21.075 1.099-4.635.903-9.196.038-13.852-.938-5.055-2.361-10.106-2.099-15.296.258-5.123 2.423-10.431 7.134-12.965.449-.241.903.418.449.663-4.746 2.552-6.73 7.963-6.813 13.103-.085 5.27 1.445 10.363 2.319 15.516.756 4.459.777 8.861-.312 13.267-1.012 4.095-2.789 7.981-5.135 11.483-2.622 3.916-5.999 7.341-9.977 9.882 4.094 7.965 8.48 15.765 13.68 23.082 3.601 5.075 7.633 9.917 12.098 14.287 1.307-12.881 13.563-20.614 19.259-31.388 1.668-3.152 2.765-6.582 2.793-10.171.003-.511.802-.57.799-.053-.1 13.189-12.405 21.378-18.567 31.781-1.862 3.143-3.201 6.555-3.531 10.214-.01.109-.066.174-.127.225 3.412 3.273 7.068 6.275 11.014 8.852-.177.081-.344.175-.508.248a1.99 1.99 0 0 1-.27.144c-6.721-4.437-12.696-10.056-17.922-16.28-2.797-3.336-5.364-6.833-7.777-10.434-5.991 2.482-12.64.808-18.205-1.984-6.46-3.242-12.178-8.027-19.172-10.158-3.225-.982-9.114-2.193-10.959 1.685-.222.466-.943.12-.722-.345z"/><g fill="#5e6feb"><path d="M240.159 800.824c0-9.957 2.672-17.751 8.019-23.385s12.249-8.449 20.704-8.449c5.538 0 10.53 1.324 14.977 3.969s7.835 6.336 10.167 11.068 3.499 10.1 3.499 16.101c0 6.083-1.228 11.525-3.683 16.326s-5.933 8.436-10.433 10.905-9.357 3.703-14.567 3.703c-5.646 0-10.693-1.364-15.139-4.092a26.31 26.31 0 0 1-10.106-11.171c-2.292-4.718-3.438-9.71-3.438-14.975zm8.183.123c0 7.229 1.944 12.923 5.831 17.083s8.763 6.24 14.628 6.24c5.974 0 10.89-2.101 14.752-6.302s5.789-10.161 5.789-17.881c0-4.883-.825-9.145-2.476-12.787s-4.065-6.465-7.242-8.47-6.745-3.008-10.701-3.008c-5.62 0-10.454 1.931-14.505 5.79s-6.076 10.307-6.076 19.335zm55.731 7.365c0-8.046 2.236-14.007 6.711-17.881 3.736-3.218 8.292-4.829 13.666-4.829 5.974 0 10.856 1.958 14.648 5.872s5.688 9.323 5.688 16.224c0 5.592-.839 9.991-2.517 13.196s-4.119 5.695-7.325 7.467-6.704 2.66-10.495 2.66c-6.083 0-11.001-1.95-14.751-5.852s-5.625-9.519-5.625-16.857zm7.569 0c0 5.565 1.214 9.732 3.642 12.5s5.483 4.153 9.166 4.153c3.654 0 6.696-1.391 9.124-4.174s3.642-7.024 3.642-12.725c0-5.374-1.221-9.445-3.662-12.214s-5.476-4.153-9.103-4.153c-3.683 0-6.738 1.378-9.166 4.132s-3.643 6.917-3.643 12.481zm41.777 38.381v-60.108h6.71v5.647c1.582-2.21 3.369-3.867 5.36-4.972s4.406-1.657 7.243-1.657c3.709 0 6.983.955 9.82 2.865s4.979 4.603 6.424 8.081 2.169 7.291 2.169 11.437c0 4.447-.798 8.449-2.394 12.009s-3.915 6.288-6.956 8.183-6.239 2.844-9.595 2.844c-2.455 0-4.658-.518-6.609-1.555s-3.553-2.346-4.808-3.928v21.154h-7.364zm6.669-38.135c0 5.592 1.132 9.725 3.396 12.398s5.006 4.01 8.225 4.01c3.274 0 6.077-1.384 8.408-4.153s3.499-7.058 3.499-12.869c0-5.537-1.139-9.683-3.417-12.439s-4.999-4.132-8.162-4.132c-3.137 0-5.913 1.466-8.327 4.398s-3.622 7.195-3.622 12.787zm36.99 8.51l7.284-1.146c.408 2.919 1.547 5.156 3.416 6.711s4.481 2.332 7.836 2.332c3.382 0 5.892-.689 7.529-2.066s2.454-2.993 2.454-4.849c0-1.663-.723-2.973-2.168-3.928-1.01-.655-3.519-1.487-7.529-2.496-5.401-1.364-9.146-2.543-11.233-3.54s-3.669-2.373-4.746-4.132-1.616-3.703-1.616-5.831c0-1.936.443-3.73 1.33-5.38s2.093-3.021 3.621-4.112c1.146-.845 2.706-1.561 4.684-2.148s4.099-.88 6.363-.88c3.41 0 6.404.491 8.982 1.473s4.48 2.312 5.707 3.99 2.073 3.922 2.537 6.731l-7.201.982c-.327-2.236-1.276-3.982-2.844-5.237s-3.785-1.882-6.649-1.882c-3.383 0-5.797.559-7.243 1.678s-2.169 2.428-2.169 3.928c0 .955.3 1.815.9 2.578.6.792 1.541 1.446 2.823 1.964.737.273 2.905.9 6.506 1.882 5.21 1.391 8.844 2.53 10.904 3.416s3.676 2.176 4.849 3.867 1.76 3.792 1.76 6.301c0 2.455-.716 4.767-2.148 6.936s-3.499 3.846-6.198 5.033-5.756 1.78-9.166 1.78c-5.647 0-9.95-1.172-12.909-3.519s-4.847-5.825-5.666-10.436zm46.769 12.971v-8.388h8.387v8.388c0 3.082-.546 5.571-1.637 7.467s-2.823 3.362-5.196 4.399l-2.046-3.151c1.555-.682 2.701-1.684 3.436-3.008s1.146-3.226 1.228-5.708h-4.172zm45.583 0v-59.985h22.628c3.982 0 7.023.191 9.124.573 2.946.491 5.415 1.425 7.407 2.803s3.593 3.308 4.808 5.789 1.82 5.211 1.82 8.183c0 5.101-1.623 9.418-4.868 12.951s-9.111 5.299-17.594 5.299h-15.386v24.387h-7.939zm7.937-31.465h15.509c5.128 0 8.769-.954 10.924-2.864s3.233-4.596 3.233-8.061c0-2.509-.634-4.657-1.903-6.444s-2.939-2.967-5.013-3.54c-1.337-.354-3.806-.532-7.405-.532h-15.345v21.441zm75.37 26.105c-2.728 2.319-5.354 3.956-7.876 4.91s-5.231 1.432-8.123 1.432c-4.774 0-8.443-1.166-11.006-3.499s-3.846-5.312-3.846-8.94c0-2.128.484-4.071 1.453-5.83s2.236-3.171 3.806-4.235 3.334-1.868 5.298-2.414c1.446-.381 3.628-.75 6.547-1.105 5.947-.709 10.324-1.554 13.134-2.536l.041-1.923c0-3-.696-5.115-2.087-6.342-1.881-1.664-4.679-2.496-8.387-2.496-3.465 0-6.022.607-7.672 1.821s-2.871 3.362-3.662 6.444l-7.201-.982c.655-3.082 1.732-5.571 3.233-7.467s3.668-3.355 6.505-4.378 6.124-1.535 9.862-1.535c3.709 0 6.723.437 9.042 1.309s4.024 1.971 5.115 3.294 1.855 2.994 2.292 5.012c.245 1.255.368 3.519.368 6.793v9.82c0 6.847.157 11.177.471 12.991s.934 3.553 1.862 5.217h-7.693c-.767-1.528-1.258-3.315-1.476-5.361zm-.614-16.449c-2.673 1.091-6.684 2.019-12.029 2.783-3.028.436-5.169.928-6.424 1.473s-2.223 1.344-2.905 2.393a6.29 6.29 0 0 0-1.023 3.499c0 1.964.743 3.601 2.23 4.91s3.662 1.964 6.527 1.964c2.837 0 5.36-.62 7.57-1.861s3.832-2.939 4.868-5.095c.791-1.663 1.187-4.119 1.187-7.365v-2.701zm17.514 25.41l7.16 1.064c.3 2.209 1.132 3.819 2.496 4.828 1.828 1.364 4.324 2.046 7.488 2.046 3.41 0 6.041-.682 7.898-2.046s3.109-3.274 3.763-5.728c.382-1.501.559-4.651.532-9.452-3.219 3.792-7.228 5.687-12.029 5.687-5.974 0-10.598-2.155-13.871-6.465s-4.91-9.479-4.91-15.508c0-4.146.75-7.972 2.251-11.477s3.675-6.212 6.526-8.122 6.199-2.865 10.046-2.865c5.128 0 9.356 2.074 12.684 6.22v-5.238h6.793v37.563c0 6.765-.689 11.559-2.066 14.382s-3.56 5.054-6.547 6.69-6.663 2.455-11.027 2.455c-5.183 0-9.371-1.166-12.561-3.498s-4.735-5.845-4.626-10.536zm6.096-26.105c0 5.701 1.132 9.861 3.396 12.48s5.101 3.928 8.511 3.928c3.382 0 6.22-1.303 8.51-3.908s3.437-6.69 3.437-12.255c0-5.319-1.18-9.329-3.54-12.03s-5.202-4.051-8.531-4.051c-3.274 0-6.056 1.33-8.348 3.989s-3.435 6.609-3.435 11.847zm71.605 8.51l7.611.941c-1.2 4.447-3.424 7.898-6.67 10.352s-7.393 3.683-12.438 3.683c-6.356 0-11.396-1.957-15.119-5.872s-5.586-9.404-5.586-16.469c0-7.31 1.882-12.984 5.647-17.021s8.647-6.056 14.648-6.056c5.811 0 10.556 1.978 14.239 5.933s5.524 9.52 5.524 16.694a74.11 74.11 0 0 1-.041 1.964h-32.407c.273 4.774 1.623 8.429 4.051 10.966s5.456 3.806 9.084 3.806c2.701 0 5.005-.709 6.914-2.128s3.425-3.683 4.543-6.793zm-24.182-11.906h24.264c-.327-3.656-1.255-6.397-2.783-8.225-2.346-2.836-5.388-4.255-9.124-4.255-3.383 0-6.227 1.132-8.532 3.396s-3.58 5.292-3.825 9.084zm65.183 25.9v-59.985h8.142l31.507 47.096v-47.096h7.61v59.985h-8.142l-31.507-47.137v47.137h-7.61zm56.916-21.727c0-8.046 2.236-14.007 6.711-17.881 3.736-3.218 8.292-4.829 13.666-4.829 5.974 0 10.856 1.958 14.648 5.872s5.688 9.323 5.688 16.224c0 5.592-.839 9.991-2.517 13.196s-4.119 5.695-7.325 7.467-6.704 2.66-10.495 2.66c-6.083 0-11.001-1.95-14.75-5.852s-5.626-9.519-5.626-16.857zm7.569 0c0 5.565 1.214 9.732 3.642 12.5s5.483 4.153 9.166 4.153c3.654 0 6.696-1.391 9.124-4.174s3.642-7.024 3.642-12.725c0-5.374-1.221-9.445-3.662-12.214s-5.476-4.153-9.103-4.153c-3.683 0-6.738 1.378-9.166 4.132s-3.643 6.917-3.643 12.481zm57.858 15.14l1.064 6.506c-2.073.436-3.928.655-5.565.655-2.673 0-4.747-.423-6.22-1.268s-2.51-1.957-3.109-3.335-.9-4.276-.9-8.695v-25h-5.401v-5.729h5.401v-10.761l7.323-4.419v15.18h7.407v5.729h-7.407v25.409c0 2.101.13 3.451.389 4.051s.682 1.078 1.268 1.432 1.425.532 2.517.532c.819-.001 1.897-.096 3.233-.287zm31.834 6.587v-59.985h40.468v7.079h-32.53v18.576h28.152v7.079h-28.152v27.251h-7.938zm47.096-21.727c0-8.046 2.236-14.007 6.711-17.881 3.736-3.218 8.292-4.829 13.666-4.829 5.974 0 10.856 1.958 14.648 5.872s5.688 9.323 5.688 16.224c0 5.592-.839 9.991-2.517 13.196s-4.119 5.695-7.325 7.467-6.704 2.66-10.495 2.66c-6.083 0-11.001-1.95-14.75-5.852s-5.626-9.519-5.626-16.857zm7.569 0c0 5.565 1.214 9.732 3.642 12.5s5.483 4.153 9.166 4.153c3.654 0 6.696-1.391 9.124-4.174s3.642-7.024 3.642-12.725c0-5.374-1.221-9.445-3.662-12.214s-5.476-4.153-9.104-4.153c-3.683 0-6.738 1.378-9.166 4.132s-3.642 6.917-3.642 12.481zm70.255 21.727v-6.383c-3.383 4.91-7.978 7.365-13.789 7.365-2.564 0-4.958-.491-7.181-1.473s-3.874-2.216-4.95-3.703-1.836-3.307-2.271-5.462c-.301-1.446-.45-3.737-.45-6.874v-26.924h7.364v24.101c0 3.846.15 6.438.45 7.774.464 1.937 1.446 3.458 2.946 4.563s3.355 1.657 5.565 1.657 4.282-.566 6.22-1.698 3.307-2.673 4.111-4.624 1.207-4.78 1.207-8.49v-23.282h7.366v43.455h-6.588zm18.128 0v-43.455h6.628v6.179c3.192-4.773 7.802-7.161 13.831-7.161 2.619 0 5.025.471 7.221 1.412s3.84 2.176 4.931 3.703 1.855 3.342 2.292 5.442c.273 1.365.409 3.751.409 7.161v26.719h-7.365v-26.433c0-3.001-.287-5.244-.859-6.731s-1.589-2.673-3.047-3.559-3.171-1.33-5.135-1.33c-3.137 0-5.845.996-8.123 2.987s-3.417 5.77-3.417 11.334v23.732h-7.366zm74.797 0v-5.483c-2.755 4.31-6.806 6.465-12.152 6.465a17.04 17.04 0 0 1-9.555-2.864c-2.904-1.909-5.155-4.576-6.751-7.999s-2.394-7.358-2.394-11.805c0-4.337.722-8.271 2.169-11.805s3.614-6.24 6.505-8.122 6.124-2.824 9.698-2.824c2.619 0 4.951.552 6.997 1.657s3.709 2.544 4.991 4.317v-21.523h7.325v59.985h-6.833zm-23.282-21.686c0 5.565 1.173 9.725 3.519 12.48s5.115 4.133 8.307 4.133c3.218 0 5.954-1.316 8.203-3.949s3.376-6.649 3.376-12.05c0-5.946-1.146-10.311-3.437-13.094s-5.114-4.173-8.469-4.173c-3.274 0-6.008 1.337-8.204 4.01s-3.295 6.888-3.295 12.643zm43.782 21.686v-8.388h8.388v8.388h-8.388z"/><use href="#D"/><use href="#D" x="23.282"/></g><path fill="#b6b0ff" d="M585.855 457.134l.102-1.705c-.294.508-.345 1.137-.102 1.705zm212.458 1.157c-4.927-46.044-13.13-94.391-46.893-127.894-3.282-3.431-6.706-6.673-10.49-9.658-19.342 25.237-46.308 41.95-74.103 56.683 24.189 25.504 22.686 83.656 23.365 127.316 4.758-3.247 8.025-7.944 9.222-12.936 32.156-11.262 65.612-20.033 99.812-20.92-.234-4.221-.538-8.421-.913-12.591zm-108.284 22.28l.152 10.044c1.491-.974 2.841-2.09 4.028-3.318l-4.18-6.726z"/><path fill="#5784ff" d="M799.865 493.74c-2.526 129.58-28.739 206.729-162.439 208.198-60.137-.173-100.517-15.902-131.579-62.812-44.991-74.348-40.301-249.057 10.418-302.418 43.085-52.445 167.874-62.387 224.664-15.969-19.342 25.237-46.308 41.95-74.103 56.683-20.751-21.613-58.656-14.893-69.74 15.198-7.721 18.38-9.785 42.089-11.13 62.81-2.097 40.468-2.658 112.263 12.347 143.488 15.878 38.779 65.47 35.01 79.541-1.118 11.953-28.048 11.528-59.668 12.347-93.063 4.758-3.247 8.025-7.944 9.222-12.936 32.156-11.262 65.612-20.033 99.812-20.92.427 7.549.64 15.168.64 22.859z"/><path fill="#808fff" d="M799.226 470.882a365.59 365.59 0 0 0-.913-12.591c-4.927-46.044-13.13-94.391-46.893-127.894-3.282-3.431-6.706-6.673-10.49-9.658-56.791-46.418-181.579-36.475-224.664 15.969-50.719 53.361-55.41 228.07-10.418 302.418 31.062 46.911 71.442 62.639 131.579 62.812 133.699-1.469 159.913-78.618 162.439-208.198a406.52 406.52 0 0 0-.64-22.858zM677.845 597.8c-14.071 36.127-63.663 39.896-79.541 1.118-15.004-31.225-14.443-103.02-12.346-143.488 1.345-20.721 3.409-44.431 11.13-62.81 11.083-30.091 48.989-36.811 69.74-15.198 24.189 25.504 22.686 83.656 23.365 127.316-.82 33.395-.395 65.015-12.348 93.062z"/><path d="M597.087 392.62c4.713-12.797 14.283-21.349 25.316-25.311-20.862-9.23-47.73-.239-56.767 24.296-7.721 18.38-9.785 42.089-11.13 62.81-2.097 40.468-2.658 112.263 12.347 143.488 10.116 24.706 33.917 32.138 53.497 24.938-9.181-4.193-17.191-12.065-22.046-23.923-15.004-31.225-14.443-103.02-12.346-143.488 1.344-20.721 3.408-44.431 11.129-62.81zm202.139 78.262a365.59 365.59 0 0 0-.913-12.591c-4.927-46.044-13.13-94.391-46.893-127.894-3.282-3.431-6.706-6.673-10.49-9.658-26.559-21.708-67.989-31.087-108.98-29.559 29.864 3.103 57.801 12.42 77.529 28.545 3.784 2.986 7.208 6.227 10.49 9.658 33.763 33.503 41.966 81.85 46.893 127.894a365.59 365.59 0 0 1 .913 12.591 405.58 405.58 0 0 1 .639 22.858c-2.486 127.538-27.92 204.284-156.198 208.072 8.004.744 16.389 1.115 25.21 1.141 133.699-1.469 159.913-78.618 162.439-208.198a405.59 405.59 0 0 0-.639-22.859z" fill="#6373eb"/><path fill="#fdbfff" d="M873.177 483.594l-2.943-1.136-1.298-.487-2.313-.832-3.074-1.055-.984-.325-2.506-.791-2.049-.629-4.109-1.167-2.577-.67-5.144-1.228-2.577-.558-.233-.051-4.677-.893c-.01 0-.02 0-.031-.01l-1.674-.294c-.01-.01-.03-.01-.05-.01l-9.557-1.359-3.653-.385-3.013-.264-2.334-.172-1.846-.122a204.06 204.06 0 0 0-11.941-.345l-2.76.02-2.607.051-3.358.112-2.435.111a209.62 209.62 0 0 0-5.611.355 239.32 239.32 0 0 0-8.867.832l-2.374.284-2.445.315-.822.102-4.839.7-.538.081-5.438.903-2.82.507c-4.708.872-9.425 1.867-14.143 2.962l-2.831.67c-3.774.913-7.548 1.887-11.333 2.922l-2.841.791a453.15 453.15 0 0 0-14.204 4.271c-.172.051-.335.101-.507.162-.7.213-1.39.447-2.09.67l-2.09.69a2.07 2.07 0 0 1-.233.071 2.45 2.45 0 0 0-.223.071l-.467.152c-.223.081-.446.152-.67.223-.315.112-.639.213-.964.325l-1.482.517c-.649.203-1.298.426-1.948.649-.081.02-.162.051-.243.081-.701.233-1.4.487-2.09.73l-1.492.507c-.071.03-.142.051-.203.071l-.214.061-1.877.67-3.328-5.154-4.18-6.726v-.01l-.629-1.035c-.041-.051-.071-.111-.102-.162-14.427-23.994-26.267-49.926-35.357-77.958-1.603-4.921-3.125-9.892-4.535-14.934l3.551-1.816c.436-.233.882-.457 1.319-.68l2.638-1.359 3.886-2.019 6.026-3.176 4.16-2.212 6.949-3.835c23.913-13.412 46.193-28.742 62.994-50.636l1.359-1.796c1.654-2.232 3.257-4.545 4.789-6.899 1.42-2.181 2.79-4.383 4.078-6.696l.01-.01v-.03c6.574-11.546 11.799-24.704 15.279-39.933v-.01c.244-.994.457-2.009.67-3.023l.791-3.967 9.811 20.981 21.641 46.304v.01l6.402 13.686 27.038 57.85 3.713 7.944v.01l6.96 14.894c.01.01.01.01.01.02l19.48 41.668 10.219 21.853z"/><path fill="#d8daeb" d="M863.197 462.26l-95.294-203.882-1.46 6.982 96.754 196.9z"/><path fill="#e89deb" d="M873.177 483.594c-11.136-4.426-22.727-7.735-34.516-9.831-.558-.112-1.116-.203-1.674-.294-47.162-8.037-95.025 3.258-139.45 18.982-2.581-3.918-5.074-7.867-7.508-11.88v-.01c-.254-.396-.497-.802-.74-1.197l2.922 4.322c56.314-22.371 116.25-36.169 174.026-14.914l6.94 14.822z"/><ellipse cx="845.348" cy="358.143" fill="#fa63ff" rx="84.462" ry="133.148" transform="rotate(335.57 845.256 358.118)"/><g fill="#fff"><path d="M561.445 445.984l.041 1.481-.03-.68v-.183l-.011-.618z"/><path d="M561.486 447.466l.071 1.126a1.68 1.68 0 0 1-.02-.223l-.051-.903z"/><use href="#E"/></g><path fill="#fdbfff" d="M627.046 514.102c-2.415.923-5.479 2.323-8.918 3.947l-15.025 7.051c-4.495 2.029-8.989 3.906-13.078 5.245a52.47 52.47 0 0 1-4.068 1.197l-.152.03-.223-4.505-.162-3.632-.456-18.374-.061-9.699.02-5.61c.071-11.789.385-22.665.933-32.618-.244-.568-.193-1.197.102-1.705l.456-7.071v-.01l.335-4.241c.416-4.971.903-9.669 1.461-14.082l.142-1.106.396.862 5.184 11.424 1.41 3.105 2.425 5.326 4.362 9.608.548 1.217.02.02 20.534 45.229.741 1.633.274.588 1.076 2.364 1.724 3.807z"/><path fill="#e89deb" d="M627.046 514.102c-12.839 5.153-27.482 13.897-41.242 17.47l-.386-8.137c13.011-2.222 26.933-10.576 38.827-15.502l2.801 6.169z"/><path fill="#fdbfff" d="M910.979 328.325c25.961 57.155 19.174 116.124-15.17 131.724-12.618 5.732-27.206 4.806-41.87-1.493-10.593-4.525-21.214-11.844-31.215-21.469-3.539-3.41-6.984-7.1-10.329-11.057l-.57-.694c-9.579-11.466-18.229-25.156-25.21-40.524-5.52-12.153-9.568-24.396-12.16-36.281-.421-1.901-.801-3.786-1.141-5.656-.018-.077-.028-.174-.046-.251-2.391-13.166-2.994-25.801-1.872-37.297 2.393-24.761 12.772-44.221 30.409-52.232 34.346-15.598 83.219 18.089 109.174 75.23z"/><path fill="#fa63ff" d="M689.076 540.338c-.954 15.411-2.506 27.849-4.677 37.336-.609 2.678-1.278 5.235-1.998 7.69-1.329 4.535-2.851 8.685-4.556 12.438l-54.421-72.672-5.296-7.081-3.896-5.205-.193-.254-1.512-2.019 10.349-4.698.355-.162 29.016-13.179c4.099 1.938 7.67 4.332 10.836 7.061 3.896 3.368 7.183 7.244 10.074 11.404 6.372 9.162 10.856 19.723 15.919 29.341z"/><path fill="#e549eb" d="M682.4 585.364c-1.329 4.535-2.851 8.685-4.556 12.438l-54.421-72.672-5.296-7.081-3.896-5.205-.193-.254-1.512-2.019 10.349-4.698 1.095 1.471 2.06 2.739 8.776 11.728 47.594 63.553z"/><path fill="#e89deb" d="M881.068 448.088c-10.593-4.525-21.214-11.845-31.215-21.469-3.539-3.41-6.984-7.1-10.329-11.057l-.57-.693c-9.579-11.466-18.229-25.156-25.21-40.524-5.52-12.153-9.568-24.396-12.16-36.281-.421-1.901-.801-3.786-1.141-5.656-.018-.077-.028-.174-.046-.251-2.391-13.166-2.994-25.801-1.872-37.297 1.881-19.466 8.719-35.627 20.119-45.554-5.867.151-11.527 1.378-16.838 3.79-17.637 8.011-28.016 27.471-30.409 52.232-1.122 11.496-.519 24.131 1.872 37.297.018.077.028.174.046.251.339 1.87.72 3.755 1.141 5.656 2.592 11.884 6.64 24.128 12.16 36.281 6.98 15.368 15.631 29.058 25.21 40.524l.57.694c3.345 3.957 6.79 7.647 10.329 11.057 10.001 9.624 20.622 16.943 31.215 21.469 14.664 6.299 29.252 7.224 41.87 1.493 3.777-1.716 7.2-3.984 10.303-6.688-8.078.207-16.547-1.624-25.045-5.274z"/><path fill="#fa63ff" d="M699.414 491.781c-1.197 5.012-4.464 9.709-9.222 12.956-2.039 1.4-4.352 2.526-6.899 3.287l-10.136 2.973-38.35 10.815-11.383 3.317-3.916 1.167c-5.397 1.613-11.129 1.076-16.405-1.197-2.577-1.096-5.052-2.618-7.325-4.515-3.845-3.175-7.122-7.396-9.405-12.408l-1.41-3.115-.061-9.699.02-5.61c.071-11.789.385-22.665.933-32.618-.244-.568-.193-1.197.102-1.705l.456-7.071v-.01l.335-4.241c.416-4.971.903-9.669 1.461-14.082l.142-1.106c.842-6.463 1.836-12.327 2.983-17.592l44.123-28.255c6.473-3.916 14.193-3.206 18.82.903 1.633 1.451 2.892 3.328 3.561 5.57 7.923 26.399 18.363 51.62 31.684 75.706 2.557 4.616 5.215 9.192 7.985 13.727a15.76 15.76 0 0 1 1.045 2.009c.03.071.061.132.081.203h.01c.051.122.101.254.152.385l.092.233c.193.538.365 1.075.507 1.613.071.274.132.548.193.822 0 .01 0 .02.01.031.101.527.183 1.055.233 1.593.02.203.041.406.051.619.01.142.02.294.02.446.061 1.623-.101 3.246-.487 4.849z"/><path fill="#fff" d="M870.496 377.361l-58.67 47.976c-9.579-11.466-18.229-25.156-25.21-40.524-5.52-12.153-9.568-24.396-12.16-36.281-.421-1.901-.801-3.786-1.141-5.656-.018-.077-.028-.174-.046-.251l77.468-7.789 19.759 42.525z"/><path fill="#e6ebff" d="M827.327 401.675c-7.681 6.281-19.159 4.637-24.64-3.634-5.231-7.896-10.022-16.514-14.21-25.735-4.574-10.069-8.121-20.197-10.682-30.135l-4.526.455c.018.077.028.174.046.251.339 1.87.72 3.755 1.141 5.656 2.592 11.884 6.64 24.128 12.16 36.281 6.98 15.367 15.631 29.058 25.21 40.524l58.67-47.976-3.699-7.961-39.47 32.274z"/><ellipse cx="862.694" cy="356.072" fill="#fa63ff" rx="16.172" ry="24.476" transform="rotate(335.57 862.617 356.05)"/><ellipse cx="863.742" cy="355.596" fill="#e549eb" rx="12.953" ry="21.345" transform="rotate(335.57 863.659 355.574)"/><path fill="#fff" d="M861.07 357.767c-1.499-3.301-1.357-6.593.318-7.354s4.248 1.298 5.747 4.599 1.357 6.593-.318 7.354-4.248-1.298-5.747-4.599z"/><g fill="#e549eb"><use href="#E"/><path d="M699.414 491.781c-1.197 5.012-4.464 9.709-9.222 12.956-2.039 1.4-4.352 2.526-6.899 3.287l-10.136 2.973-38.35 10.815-11.383 3.317-3.916 1.167c-5.397 1.613-11.129 1.076-16.405-1.197-2.577-1.096-5.052-2.618-7.325-4.515-3.845-3.175-7.122-7.396-9.405-12.408l-1.41-3.115-.061-9.699.02-5.61 1.836 4.048c5.316 11.688 16.06 19.053 26.713 19.053h.01l.75-.01c1.908-.061 3.795-.365 5.661-.923l5.428-1.623.71-.213 37.051-10.491 20.595-5.945c2.384-.72 4.566-1.745 6.503-3.034 1.491-.974 2.841-2.09 4.028-3.318a21.74 21.74 0 0 0 4.2-6.026c.051-.091.102-.193.142-.284.03.071.061.132.081.203.06.132.111.254.162.385l.092.233c.193.538.365 1.075.507 1.613.071.274.132.548.193.822 0 .01 0 .02.01.031.101.527.183 1.055.233 1.593.02.203.041.406.051.619.01.142.02.294.02.446.064 1.624-.098 3.247-.484 4.85z"/></g><path fill="#fff" d="M621.801 432.288l-1.065.477-.294.142-25.1 11.404-8.735 3.967c-.021.01-.031.01-.051.02l-.142.061v-.01l.335-4.241c.416-4.971.903-9.669 1.461-14.082l.538-.243 26.459-12.023a2.84 2.84 0 0 1 3.764 1.41l4.251 9.344a2.86 2.86 0 0 1-1.421 3.774z"/><path fill="#cfd2eb" d="M620.736 432.765l-34.322 15.583.335-4.241c5.527-1.63 30.391-13.591 36.128-16.132.436 1.868-.416 3.846-2.141 4.79z"/><path fill="#fff" d="M602.697 460.483h0l-.335.152-9.649 4.383-.334.153a2.61 2.61 0 0 1-3.461-1.3l-.151-.334-2.466-5.418-.426-.933c-.01-.02-.01-.03-.02-.051-.244-.568-.193-1.197.102-1.705.193-.365.497-.659.893-.832l10.917-4.961.608-.274a1.96 1.96 0 0 1 2.588.964l3.039 6.703a2.61 2.61 0 0 1-1.305 3.453z"/><path fill="#cfd2eb" d="M602.975 458.862c-9.612 3.529-12.374 9.843-16.323-3.77-1.921 1.946 1.555 6.524 2.115 8.449a2.98 2.98 0 0 0 3.945 1.48c1.794-1.395 11.903-3.795 11.394-7.08a2.94 2.94 0 0 1-1.131.921z"/><path fill="#fff" d="M613.557 449.009a7.07 7.07 0 0 1 12.873-5.847 7.07 7.07 0 0 1-12.873 5.847z"/><path fill="#cfd2eb" d="M623.29 451.333c-5.108 2.522-11.232-2.523-9.798-7.972-3.952 9.189 11.299 14.027 13.375 4.26-.664 1.586-1.888 2.944-3.577 3.712z"/><path fill="#e89deb" d="M590.167 530.446l-4.21 1.096-.152.03-.223-4.505 4.444 3.277c.05.041.091.071.141.102z"/><path d="M899.652 161.3l-19.604 48.064c-2.957 7.251 8.815 10.406 11.74 3.237l19.604-48.064c2.957-7.251-8.816-10.407-11.74-3.237zm145.059-47.201c-2.075-2.12-6.601-2.597-8.609 0L935.754 243.862c-2.026 2.62-2.506 6.048 0 8.609 2.075 2.121 6.601 2.597 8.609 0l100.349-129.763c2.024-2.62 2.505-6.048-.001-8.609zm26.703 103.401c-35.808 20.194-70.214 42.769-102.994 67.578-6.169 4.669-.109 15.246 6.145 10.512 32.78-24.809 67.186-47.384 102.994-67.578 6.824-3.848.694-14.369-6.145-10.512zm-55.785 109.538c-9.544 2.703-19.245 4.829-29.083 6.134-3.285.436-6.05 2.486-6.087 6.087-.031 2.955 2.828 6.52 6.087 6.087 10.939-1.452 21.698-3.56 32.319-6.569 7.527-2.131 4.328-13.882-3.236-11.739z" fill="#fa63ff"/><path fill="#808fff" d="M267.245 636.188H67.086V545.82l200.158-237.924h95.763v243.049h49.635v85.243h-49.635v73.913h-95.763v-73.913zm0-85.243V426.492L161.484 550.945h105.761z"/><path d="M392.044 550.945h20.598v85.243h-20.598zM342.41 307.896h20.598v243.049H342.41zM161.484 550.945l105.761-121.524v-24.239L140.886 550.945zm180.926 85.243h20.598v73.913H342.41z" fill="#6373eb"/><path fill="#808fff" d="M1078.3 636.188H878.142V545.82L1078.3 307.896h95.763v243.049h49.635v85.243h-49.635v73.913H1078.3v-73.913zm0-85.243V426.492L972.539 550.945H1078.3z"/><path d="M1203.1 550.945h20.598v85.243H1203.1zm-49.635-243.049h20.598v243.049h-20.598zM972.539 550.945L1078.3 429.421v-24.239L951.941 550.945zm180.926 85.243h20.598v73.913h-20.598z" fill="#6373eb"/><path d="M377.799 256.638c.783 1.263 1.032 2.787.666 4.287a5.58 5.58 0 0 1-3.897 4.074l-18.889 5.509a5.58 5.58 0 0 1-5.477-1.339c-1.47-1.409-2.062-3.433-1.578-5.412l4.673-19.112a5.58 5.58 0 0 1 3.898-4.073c1.957-.57 4.004-.07 5.476 1.34l14.215 13.603c.357.341.662.719.913 1.123zm-24.72 9.076a1.28 1.28 0 0 0 .197.244c.149.143.562.457 1.159.283l18.888-5.509c.597-.174.776-.661.825-.862s.116-.713-.334-1.144l-14.215-13.603c-.449-.43-.96-.342-1.158-.283s-.677.258-.825.861l-4.673 19.112c-.097.391.008.695.136.901zM145.657 723.25a5.57 5.57 0 0 1-3.674-2.307c-1.178-1.663-1.373-3.762-.523-5.614l8.219-17.877a5.58 5.58 0 0 1 4.601-3.259c2.028-.187 3.945.693 5.122 2.355l11.372 16.056a5.58 5.58 0 0 1 .522 5.614c-.851 1.852-2.571 3.07-4.601 3.258l-19.59 1.821a5.77 5.77 0 0 1-1.448-.047zm9.347-24.619a1.24 1.24 0 0 0-.313-.011 1.17 1.17 0 0 0-.973.69l-8.219 17.876c-.259.565-.009 1.019.111 1.188a1.17 1.17 0 0 0 1.083.498l19.591-1.821c.62-.057.887-.501.973-.689a1.17 1.17 0 0 0-.11-1.188l-11.372-16.055a1.14 1.14 0 0 0-.771-.488zm253.401-229.744c.999-1.1 2.395-1.76 3.937-1.821a5.58 5.58 0 0 1 4.99 2.624l10.501 16.639a5.58 5.58 0 0 1-4.545 8.642l-19.66.775c-2.037.081-3.902-.901-4.99-2.625a5.58 5.58 0 0 1-.221-5.633l9.158-17.413a5.79 5.79 0 0 1 .83-1.188zm15.537 21.262c.088-.097.146-.192.18-.256a1.17 1.17 0 0 0-.047-1.192l-10.501-16.639c-.332-.525-.849-.563-1.056-.555a1.17 1.17 0 0 0-1.008.636l-9.159 17.414c-.29.55-.064 1.017.047 1.191s.434.58 1.055.556l19.66-.776c.404-.016.667-.201.829-.379zm825.31 181.982c1.156.934 1.894 2.291 2.044 3.827a5.58 5.58 0 0 1-2.334 5.132l-16.011 11.436a5.58 5.58 0 0 1-5.612.544c-1.853-.845-3.08-2.56-3.276-4.587l-1.898-19.583c-.197-2.029.676-3.948 2.335-5.132a5.58 5.58 0 0 1 5.611-.543l17.909 8.148c.449.203.862.458 1.232.758zm-20.338 16.727c.102.082.2.135.266.165.188.086.682.246 1.187-.115l16.011-11.435c.505-.362.514-.88.494-1.086a1.17 1.17 0 0 0-.693-.97l-17.909-8.148a1.17 1.17 0 0 0-1.187.115c-.169.12-.554.467-.495 1.085l1.898 19.583a1.15 1.15 0 0 0 .428.806zm-93.628-445.536c1.482.114 2.859.813 3.853 1.994a5.58 5.58 0 0 1 .987 5.551l-6.706 18.498a5.58 5.58 0 0 1-4.314 3.63c-2.006.355-3.989-.363-5.3-1.921l-12.667-15.055c-1.313-1.56-1.681-3.635-.986-5.551s2.307-3.272 4.314-3.628l19.371-3.442c.489-.089.974-.112 1.448-.076zm-7.27 25.311a1.25 1.25 0 0 0 .313-.015c.204-.036.701-.184.913-.768l6.706-18.497c.211-.585-.076-1.016-.209-1.175a1.17 1.17 0 0 0-1.12-.406l-19.372 3.442a1.17 1.17 0 0 0-.913.768 1.17 1.17 0 0 0 .208 1.174l12.667 15.055c.259.309.567.403.807.422z" fill="#fdccff"/><g fill="#d9e3ff"><circle cx="436.969" cy="431.402" r="10.653"/><circle cx="228.634" cy="661.044" r="10.653"/><circle cx="43.973" cy="695.372" r="10.653" transform="rotate(337.5 43.969 695.34)"/><circle cx="78.301" cy="321.316" transform="rotate(337.5 78.297 321.303)" r="10.653"/><circle cx="463.011" cy="684.719" transform="rotate(277.019 463.021 684.725)" r="10.654"/><circle cx="299.658" cy="208.862" r="10.653" transform="rotate(337.5 299.643 208.854)"/><circle cx="722.247" cy="234.904" transform="rotate(314.999 722.247 234.914)" r="10.653"/><circle cx="1202.838" cy="230.169" transform="rotate(274.732 1202.849 230.153)" r="10.654"/><path d="M770.779 693.005c0-5.884 4.77-10.653 10.653-10.653s10.654 4.77 10.654 10.653-4.77 10.654-10.654 10.654a10.66 10.66 0 0 1-10.653-10.654z"/><circle cx="1272.678" cy="585.286" r="10.654" transform="rotate(283.286 1272.788 585.292)"/><circle cx="1320.026" cy="702.475" transform="rotate(279.219 1320.04 702.453)" r="10.654"/></g><defs ><path id="B" d="M424.652 308.305a7.72 7.72 0 0 1 7.716-7.716 7.72 7.72 0 0 1 7.716 7.716 7.72 7.72 0 0 1-7.716 7.716 7.72 7.72 0 0 1-7.716-7.716z"/><path id="C" d="M838.25 694.621a7.72 7.72 0 0 1 7.716-7.716 7.72 7.72 0 0 1 7.716 7.716 7.72 7.72 0 0 1-7.716 7.716c-4.262 0-7.716-3.454-7.716-7.716z"/><path id="D" d="M1124.143 830.039v-8.388h8.387v8.388h-8.387z"/><path id="E" d="M561.587 448.876l.061.67-.092-.954.031.284z"/></defs></svg>