<svg xmlns="http://www.w3.org/2000/svg" enable-background="new 0 0 1364 960" viewBox="0 0 1364 960"><path fill="#D9E3FF" d="M424.652,308.305c0-4.261,3.454-7.716,7.716-7.716c4.261,0,7.716,3.454,7.716,7.716  c0,4.261-3.454,7.716-7.716,7.716C428.107,316.02,424.652,312.566,424.652,308.305z"/><path fill="#D9E3FF" d="M455.515,308.305c0-4.261,3.454-7.716,7.716-7.716c4.261,0,7.716,3.454,7.716,7.716  c0,4.261-3.454,7.716-7.716,7.716C458.969,316.02,455.515,312.566,455.515,308.305z"/><path fill="#D9E3FF" d="M486.378,308.305c0-4.261,3.454-7.716,7.716-7.716c4.261,0,7.716,3.454,7.716,7.716  c0,4.261-3.455,7.716-7.716,7.716C489.832,316.02,486.378,312.566,486.378,308.305z"/><path fill="#D9E3FF" d="M517.24,308.305c0-4.261,3.454-7.716,7.716-7.716c4.261,0,7.716,3.454,7.716,7.716  c0,4.261-3.454,7.716-7.716,7.716C520.695,316.02,517.24,312.566,517.24,308.305z"/><path fill="#D9E3FF" d="M548.103,308.305c0-4.261,3.455-7.716,7.716-7.716c4.261,0,7.716,3.454,7.716,7.716  c0,4.261-3.455,7.716-7.716,7.716C551.558,316.02,548.103,312.566,548.103,308.305z"/><path fill="#D9E3FF" d="M578.966,308.305c0-4.261,3.455-7.716,7.716-7.716s7.716,3.454,7.716,7.716c0,4.261-3.454,7.716-7.716,7.716  S578.966,312.566,578.966,308.305z"/><path fill="#D9E3FF" d="M609.829,308.305c0-4.261,3.454-7.716,7.716-7.716c4.261,0,7.716,3.454,7.716,7.716  c0,4.261-3.454,7.716-7.716,7.716C613.283,316.02,609.829,312.566,609.829,308.305z"/><path fill="#D9E3FF" d="M424.652,341.389c0-4.261,3.454-7.716,7.716-7.716c4.261,0,7.716,3.454,7.716,7.716  c0,4.261-3.454,7.716-7.716,7.716C428.107,349.105,424.652,345.65,424.652,341.389z"/><path fill="#D9E3FF" d="M455.515,341.389c0-4.261,3.454-7.716,7.716-7.716c4.261,0,7.716,3.454,7.716,7.716  c0,4.261-3.454,7.716-7.716,7.716C458.969,349.105,455.515,345.65,455.515,341.389z"/><circle cx="494.094" cy="341.389" r="7.716" fill="#D9E3FF"/><path fill="#D9E3FF" d="M517.24,341.389c0-4.261,3.454-7.716,7.716-7.716c4.261,0,7.716,3.454,7.716,7.716  c0,4.261-3.454,7.716-7.716,7.716C520.695,349.105,517.24,345.65,517.24,341.389z"/><circle cx="555.819" cy="341.389" r="7.716" fill="#D9E3FF"/><path fill="#D9E3FF" d="M578.966,341.389c0-4.261,3.455-7.716,7.716-7.716s7.716,3.454,7.716,7.716c0,4.261-3.454,7.716-7.716,7.716  S578.966,345.65,578.966,341.389z"/><circle cx="617.544" cy="341.389" r="7.716" fill="#D9E3FF"/><path fill="#D9E3FF" d="M424.652,242.485c0-4.261,3.454-7.716,7.716-7.716c4.261,0,7.716,3.454,7.716,7.716  c0,4.261-3.454,7.716-7.716,7.716C428.107,250.201,424.652,246.746,424.652,242.485z"/><path fill="#D9E3FF" d="M455.515,242.485c0-4.261,3.454-7.716,7.716-7.716c4.261,0,7.716,3.454,7.716,7.716  c0,4.261-3.454,7.716-7.716,7.716C458.969,250.201,455.515,246.746,455.515,242.485z"/><circle cx="494.094" cy="242.485" r="7.716" fill="#D9E3FF"/><path fill="#D9E3FF" d="M517.24,242.485c0-4.261,3.454-7.716,7.716-7.716c4.261,0,7.716,3.454,7.716,7.716  c0,4.261-3.454,7.716-7.716,7.716C520.695,250.201,517.24,246.746,517.24,242.485z"/><circle cx="555.819" cy="242.485" r="7.716" fill="#D9E3FF"/><path fill="#D9E3FF" d="M578.966,242.485c0-4.261,3.455-7.716,7.716-7.716s7.716,3.454,7.716,7.716c0,4.261-3.454,7.716-7.716,7.716  S578.966,246.746,578.966,242.485z"/><circle cx="617.544" cy="242.485" r="7.716" fill="#D9E3FF"/><path fill="#D9E3FF" d="M424.652,275.57c0-4.261,3.454-7.716,7.716-7.716c4.261,0,7.716,3.454,7.716,7.716  c0,4.261-3.454,7.716-7.716,7.716C428.107,283.285,424.652,279.831,424.652,275.57z"/><path fill="#D9E3FF" d="M455.515,275.57c0-4.261,3.454-7.716,7.716-7.716c4.261,0,7.716,3.454,7.716,7.716  c0,4.261-3.454,7.716-7.716,7.716C458.969,283.285,455.515,279.831,455.515,275.57z"/><path fill="#D9E3FF" d="M486.378,275.57c0-4.261,3.454-7.716,7.716-7.716c4.261,0,7.716,3.454,7.716,7.716  c0,4.261-3.455,7.716-7.716,7.716C489.832,283.285,486.378,279.831,486.378,275.57z"/><path fill="#D9E3FF" d="M517.24,275.57c0-4.261,3.454-7.716,7.716-7.716c4.261,0,7.716,3.454,7.716,7.716  c0,4.261-3.454,7.716-7.716,7.716C520.695,283.285,517.24,279.831,517.24,275.57z"/><path fill="#D9E3FF" d="M548.103,275.57c0-4.261,3.455-7.716,7.716-7.716c4.261,0,7.716,3.454,7.716,7.716  c0,4.261-3.455,7.716-7.716,7.716C551.558,283.285,548.103,279.831,548.103,275.57z"/><path fill="#D9E3FF" d="M578.966,275.57c0-4.261,3.455-7.716,7.716-7.716s7.716,3.454,7.716,7.716c0,4.261-3.454,7.716-7.716,7.716  S578.966,279.831,578.966,275.57z"/><path fill="#D9E3FF" d="M609.829,275.57c0-4.261,3.454-7.716,7.716-7.716c4.261,0,7.716,3.454,7.716,7.716  c0,4.261-3.454,7.716-7.716,7.716C613.283,283.285,609.829,279.831,609.829,275.57z"/><path fill="#D9E3FF" d="M838.25,661.537c0-4.261,3.454-7.716,7.716-7.716c4.261,0,7.716,3.454,7.716,7.716  c0,4.261-3.454,7.716-7.716,7.716C841.704,669.252,838.25,665.798,838.25,661.537z"/><circle cx="876.828" cy="661.537" r="7.716" fill="#D9E3FF"/><circle cx="907.691" cy="661.537" r="7.716" fill="#D9E3FF"/><path fill="#D9E3FF" d="M930.838,661.537c0-4.261,3.455-7.716,7.716-7.716s7.716,3.454,7.716,7.716c0,4.261-3.454,7.716-7.716,7.716  S930.838,665.798,930.838,661.537z"/><path fill="#D9E3FF" d="M961.701,661.537c0-4.261,3.454-7.716,7.716-7.716c4.261,0,7.716,3.454,7.716,7.716  c0,4.261-3.454,7.716-7.716,7.716C965.155,669.252,961.701,665.798,961.701,661.537z"/><path fill="#D9E3FF" d="M992.563,661.537c0-4.261,3.455-7.716,7.716-7.716c4.261,0,7.716,3.454,7.716,7.716  c0,4.261-3.454,7.716-7.716,7.716C996.018,669.252,992.563,665.798,992.563,661.537z"/><circle cx="1031.142" cy="661.537" r="7.716" fill="#D9E3FF"/><path fill="#D9E3FF" d="M838.25,694.621c0-4.261,3.454-7.716,7.716-7.716c4.261,0,7.716,3.454,7.716,7.716  c0,4.261-3.454,7.716-7.716,7.716C841.704,702.337,838.25,698.883,838.25,694.621z"/><path fill="#D9E3FF" d="M869.112,694.621c0-4.261,3.454-7.716,7.716-7.716c4.261,0,7.716,3.454,7.716,7.716  c0,4.261-3.454,7.716-7.716,7.716C872.567,702.337,869.112,698.883,869.112,694.621z"/><path fill="#D9E3FF" d="M899.975,694.621c0-4.261,3.454-7.716,7.716-7.716c4.261,0,7.716,3.454,7.716,7.716  c0,4.261-3.455,7.716-7.716,7.716C903.43,702.337,899.975,698.883,899.975,694.621z"/><path fill="#D9E3FF" d="M930.838,694.621c0-4.261,3.455-7.716,7.716-7.716s7.716,3.454,7.716,7.716c0,4.261-3.454,7.716-7.716,7.716  S930.838,698.883,930.838,694.621z"/><path fill="#D9E3FF" d="M961.701,694.621c0-4.261,3.454-7.716,7.716-7.716c4.261,0,7.716,3.454,7.716,7.716  c0,4.261-3.454,7.716-7.716,7.716C965.155,702.337,961.701,698.883,961.701,694.621z"/><path fill="#D9E3FF" d="M992.563,694.621c0-4.261,3.455-7.716,7.716-7.716c4.261,0,7.716,3.454,7.716,7.716  c0,4.261-3.454,7.716-7.716,7.716C996.018,702.337,992.563,698.883,992.563,694.621z"/><path fill="#D9E3FF" d="M1023.426,694.621c0-4.261,3.454-7.716,7.716-7.716s7.716,3.454,7.716,7.716  c0,4.261-3.454,7.716-7.716,7.716S1023.426,698.883,1023.426,694.621z"/><path fill="#D9E3FF" d="M838.25,595.717c0-4.261,3.454-7.716,7.716-7.716c4.261,0,7.716,3.454,7.716,7.716  c0,4.261-3.454,7.716-7.716,7.716C841.704,603.433,838.25,599.978,838.25,595.717z"/><circle cx="876.828" cy="595.717" r="7.716" fill="#D9E3FF"/><circle cx="907.691" cy="595.717" r="7.716" fill="#D9E3FF"/><path fill="#D9E3FF" d="M930.838,595.717c0-4.261,3.455-7.716,7.716-7.716s7.716,3.454,7.716,7.716c0,4.261-3.454,7.716-7.716,7.716  S930.838,599.978,930.838,595.717z"/><path fill="#D9E3FF" d="M961.701,595.717c0-4.261,3.454-7.716,7.716-7.716c4.261,0,7.716,3.454,7.716,7.716  c0,4.261-3.454,7.716-7.716,7.716C965.155,603.433,961.701,599.978,961.701,595.717z"/><path fill="#D9E3FF" d="M992.563,595.717c0-4.261,3.455-7.716,7.716-7.716c4.261,0,7.716,3.454,7.716,7.716  c0,4.261-3.454,7.716-7.716,7.716C996.018,603.433,992.563,599.978,992.563,595.717z"/><circle cx="1031.142" cy="595.717" r="7.716" fill="#D9E3FF"/><path fill="#D9E3FF" d="M838.25,628.802c0-4.261,3.454-7.716,7.716-7.716c4.261,0,7.716,3.455,7.716,7.716s-3.454,7.716-7.716,7.716  C841.704,636.518,838.25,633.063,838.25,628.802z"/><circle cx="876.828" cy="628.802" r="7.716" fill="#D9E3FF"/><circle cx="907.691" cy="628.802" r="7.716" fill="#D9E3FF"/><path fill="#D9E3FF" d="M930.838,628.802c0-4.261,3.455-7.716,7.716-7.716s7.716,3.455,7.716,7.716s-3.454,7.716-7.716,7.716  S930.838,633.063,930.838,628.802z"/><path fill="#D9E3FF" d="M961.701,628.802c0-4.261,3.454-7.716,7.716-7.716c4.261,0,7.716,3.455,7.716,7.716  s-3.454,7.716-7.716,7.716C965.155,636.518,961.701,633.063,961.701,628.802z"/><path fill="#D9E3FF" d="M992.563,628.802c0-4.261,3.455-7.716,7.716-7.716c4.261,0,7.716,3.455,7.716,7.716  s-3.454,7.716-7.716,7.716C996.018,636.518,992.563,633.063,992.563,628.802z"/><circle cx="1031.142" cy="628.802" r="7.716" fill="#D9E3FF"/><path fill="#FCBDFF" d="M190.079,392.487c-1.918-1.647-3.657-3.481-5.197-5.471c1.928-1.024,3.169-3.883,1.554-6.986  c-0.728-1.398-2.572-3.724-3.636-4.87c-3.056-3.29-4.307-8.205-3.272-12.851c-1.192,3.037-2.392,6.097-2.992,9.259  c-0.601,3.162-1.637,7.371-0.419,10.196c1.176,2.729,3.821,6.378,7.64,5.637c1.128,1.494,2.363,2.905,3.702,4.219  c-4.264-1.359-8.604-2.522-13.005-3.479c-0.027-0.056-0.065-0.111-0.124-0.159c-2.16-1.777-4.101-3.787-5.799-5.988  c1.933-1.019,3.181-3.883,1.564-6.99c-0.727-1.398-2.572-3.723-3.636-4.87c-3.056-3.29-4.307-8.205-3.272-12.851  c-1.192,3.037-2.392,6.097-2.992,9.259c-0.601,3.162-1.637,7.371-0.419,10.196c1.177,2.729,3.821,6.379,7.64,5.637  c1.45,1.921,3.08,3.701,4.877,5.319c-4.213-0.85-8.477-1.519-12.783-1.995c-2.158-1.775-4.096-3.783-5.793-5.982  c1.933-1.019,3.181-3.883,1.564-6.99c-0.728-1.398-2.572-3.724-3.637-4.87c-3.056-3.29-4.307-8.205-3.272-12.851  c-1.192,3.037-2.392,6.097-2.992,9.259c-0.601,3.162-1.637,7.371-0.419,10.196c1.177,2.73,3.821,6.379,7.641,5.637  c1.477,1.955,3.139,3.766,4.975,5.406c-2.063-0.2-4.133-0.368-6.211-0.481c-1.739-0.094-3.485-0.123-5.23-0.156  c-2.336-1.052-4.541-2.33-6.59-3.808c1.634-1.472,2.11-4.496-0.296-6.998c-1.084-1.128-3.514-2.837-4.865-3.639  c-3.878-2.301-6.401-6.608-6.596-11.264c-0.381,3.178-0.764,6.38-0.528,9.521c0.235,3.141,0.315,7.383,2.258,9.729  c1.876,2.265,5.442,5.013,9.017,3.311c1.555,1.152,3.199,2.189,4.926,3.098c-5.364-0.008-10.75,0.289-16.131,0.847  c-2.615-0.717-5.118-1.703-7.479-2.929c1.44-1.665,1.507-4.694-1.249-6.817c-1.241-0.955-3.909-2.297-5.372-2.896  c-4.2-1.721-7.317-5.594-8.149-10.127c0.052,3.165-0.729,6.803-0.064,9.846c0.665,3.043,2.16,6.737,4.427,8.768  c2.188,1.961,6.134,4.161,9.484,2.009c1.804,0.96,3.689,1.785,5.645,2.458c-4.771,0.579-9.53,1.38-14.263,2.397  c-0.042-0.022-0.081-0.049-0.136-0.06c-2.787-0.586-5.467-1.47-8.004-2.623c1.366-1.727,1.285-4.747-1.586-6.723  c-1.291-0.889-4.033-2.091-5.531-2.615c-4.298-1.504-7.615-5.201-8.673-9.668c0.209,3.145-0.335,6.848,0.482,9.842  c0.818,2.994,2.44,6.548,4.814,8.455c2.292,1.841,6.358,3.835,9.61,1.528c2.098,0.978,4.294,1.774,6.565,2.376  c-4.929,1.14-9.823,2.51-14.658,4.12c-0.14,0.047-2.188,0.645-5.452,1.175c-0.052-1.97-1.79-3.959-5.127-3.935  c-1.628,0.011-4.706,0.577-6.315,0.99c-4.616,1.186-9.575,0.099-12.968-2.844c1.916,2.368,3.847,4.752,6.217,6.665  c2.369,1.912,5.384,4.662,8.527,4.857c3.033,0.188,7.712-0.483,9.31-4.097c2.042-0.329,4.074-0.801,6.078-1.42  c0.021-0.005,0.038,0,0.06-0.008c0.098-0.033,0.196-0.062,0.294-0.094c0.048-0.015,0.096-0.03,0.144-0.046  c2.889-0.953,5.798-1.817,8.722-2.602c-1.686,1.458-3.267,3.029-4.734,4.696c-0.023-0.007-0.046-0.018-0.069-0.025  c-3.937-1.113-7.203,2.715-8.767,5.554c-1.564,2.839-1.897,6.903-1.67,10.086c0.227,3.183,1.942,6.439,2.78,9.498  c-0.487-4.678,1.36-9.62,4.831-12.921c1.209-1.15,3.345-3.485,4.244-4.889c1.87-2.919,1.191-5.629-0.396-6.813  c1.879-2.116,3.948-4.069,6.189-5.821c4.812-1.212,9.663-2.187,14.532-2.938c-2.141,1.726-4.128,3.625-5.942,5.673  c-3.721-0.661-6.898,3.056-8.47,5.818c-1.627,2.857-2.059,6.899-1.912,10.053c0.146,3.154,1.771,6.342,2.528,9.357  c-0.368-4.631,1.593-9.582,5.128-12.946c1.232-1.172,3.414-3.543,4.344-4.959c2.068-3.15,1.229-5.991-0.561-6.967  c1.993-2.22,4.196-4.258,6.59-6.067c0.097-0.074,0.154-0.162,0.194-0.254c1.355-0.192,2.711-0.366,4.068-0.521  c3.637-0.416,7.273-0.659,10.906-0.815c-1.973,1.629-3.814,3.407-5.502,5.313c-3.718-0.655-6.892,3.059-8.463,5.819  c-1.627,2.858-2.059,6.899-1.912,10.053c0.146,3.153,1.771,6.342,2.528,9.357c-0.368-4.631,1.593-9.582,5.127-12.946  c1.232-1.172,3.414-3.543,4.344-4.96c2.065-3.146,1.231-5.984-0.554-6.964c1.879-2.089,3.945-4.017,6.18-5.746  c4.787-0.151,9.556-0.074,14.295,0.227c-2.2,1.759-4.24,3.702-6.099,5.799c-3.722-0.662-6.898,3.056-8.471,5.818  c-1.627,2.857-2.059,6.899-1.912,10.053c0.146,3.154,1.771,6.342,2.528,9.357c-0.368-4.631,1.593-9.582,5.127-12.946  c1.232-1.172,3.414-3.543,4.344-4.959c2.068-3.15,1.229-5.991-0.562-6.967c1.993-2.22,4.197-4.258,6.591-6.067  c0.001-0.001,0.001-0.002,0.002-0.002c4.301,0.318,8.566,0.845,12.793,1.536c-2.241,1.774-4.315,3.741-6.199,5.868  c-3.667-0.646-6.798,3.018-8.348,5.74c-1.605,2.819-2.031,6.806-1.886,9.917c0.144,3.111,1.747,6.256,2.493,9.23  c-0.363-4.568,1.572-9.453,5.059-12.771c1.215-1.156,3.367-3.495,4.285-4.893c2.038-3.104,1.215-5.903-0.547-6.87  c1.965-2.189,4.138-4.198,6.499-5.982c0.011-0.008,0.015-0.018,0.024-0.026c4.149,0.72,8.246,1.643,12.292,2.725  c-2.155,1.734-4.155,3.644-5.979,5.703c-3.722-0.662-6.898,3.056-8.471,5.818c-1.627,2.857-2.059,6.899-1.912,10.053  c0.146,3.154,1.771,6.342,2.528,9.357c-0.368-4.631,1.593-9.582,5.128-12.945c1.232-1.172,3.414-3.543,4.344-4.96  c2.065-3.146,1.231-5.984-0.555-6.964c1.875-2.085,3.937-4.009,6.166-5.735c0.461,0.128,0.931,0.23,1.39,0.363  c19.651,5.674,37.738,15.579,52.781,28.907c0.669,0.593,1.724-0.489,1.054-1.083c-8.496-7.527-17.945-13.988-28.108-19.211  C202.862,397.347,196.561,394.692,190.079,392.487z"/><path fill="#FCBDFF" d="M1153.398,421.697c1.159-2.313,4.451-2.847,6.749-1.671c2.298,1.175,3.735,3.559,4.702,5.962  c1.564,3.887,2.159,7.756,2.602,11.827c1.21-3.693,2.554-7.341,4.008-10.934c0.961-2.376,1.977-4.733,3.042-7.069  c-5.183-2.641-9.555-6.86-12.361-11.957c-1.063-1.932-1.904-4.315-0.912-6.284c1.16-2.301,4.453-2.835,6.75-1.668  c2.297,1.168,3.731,3.537,4.696,5.926c1.62,4.011,2.196,8.005,2.642,12.223c3.365-7.159,7.236-14.085,11.68-20.622  c-4.6-3.421-8.171-8.214-10.105-13.611c-0.744-2.076-1.197-4.562,0.096-6.349c1.51-2.087,4.846-2.093,6.928-0.576  c2.083,1.516,3.124,4.084,3.698,6.596c0.93,4.07,0.902,7.97,0.694,12.044c4.792-6.818,10.387-13.45,17.37-18.043  c0.145-0.096,0.295-0.185,0.441-0.279c-4.137-4.059-7.037-9.37-8.193-15.051c-0.44-2.161-0.533-4.687,1.001-6.27  c1.793-1.85,5.095-1.38,6.94,0.419c1.845,1.799,2.508,4.488,2.718,7.056c0.369,4.525-0.354,8.689-1.243,13.073  c8.211-5.086,17.394-8.679,25.417-14.038c-4.251-4.085-7.233-9.478-8.409-15.257c-0.44-2.161-0.533-4.687,1.001-6.27  c1.793-1.85,5.095-1.379,6.94,0.419s2.509,4.488,2.718,7.056c0.379,4.646-0.393,8.912-1.316,13.427  c1.981-1.375,3.885-2.867,5.676-4.531c3.626-3.37,6.495-7.485,8.634-11.995c-5.321-2.842-9.729-7.367-12.414-12.77  c-0.981-1.975-1.722-4.391-0.647-6.317c1.255-2.25,4.568-2.645,6.813-1.383c2.246,1.263,3.58,3.691,4.443,6.118  c1.584,4.452,1.925,8.829,2.198,13.499c3.299-7.35,4.692-15.675,4.249-23.535c-4.477-3.148-8.058-7.567-10.178-12.615  c-0.854-2.034-1.439-4.492-0.244-6.345c1.396-2.166,4.727-2.349,6.888-0.946c2.161,1.403,3.338,3.911,4.045,6.389  c1.129,3.952,1.322,7.789,1.337,11.799c0.077,0.127,0.131,0.279,0.145,0.461c0.527,6.682-0.327,13.443-2.296,19.841  c-0.434,1.411-0.922,2.813-1.462,4.196c3.666-3.861,8.394-6.712,13.533-8.113c2.128-0.58,4.642-0.838,6.323,0.589  c1.964,1.668,1.71,4.994,0.036,6.952c-1.674,1.959-4.314,2.796-6.863,3.174c-4.754,0.703-9.184,0.159-13.908-0.493  c-1.26,2.85-2.785,5.58-4.676,8.052c-2.863,3.744-6.326,6.782-10.103,9.421c5.15-1.907,10.842-2.345,16.217-1.212  c2.158,0.455,4.513,1.373,5.357,3.41c0.986,2.38-0.758,5.224-3.142,6.202c-2.383,0.978-5.115,0.519-7.555-0.309  c-4.675-1.587-8.446-4.189-12.471-7.011c-6.357,4.171-13.467,7.371-20.081,10.954c-2.082,1.128-4.116,2.306-6.077,3.588  c5.481-2.351,11.688-2.982,17.525-1.759c2.158,0.452,4.514,1.367,5.361,3.403c0.989,2.379-0.751,5.225-3.133,6.206  c-2.382,0.982-5.114,0.526-7.555-0.299c-4.784-1.616-8.623-4.296-12.756-7.187c-2.075,1.389-4.059,2.908-5.911,4.635  c-3.387,3.159-6.411,6.698-9.194,10.395c-0.74,0.983-1.462,1.98-2.171,2.986c4.745-2.595,10.216-3.859,15.619-3.572  c2.202,0.117,4.67,0.661,5.818,2.544c1.341,2.2,0.056,5.279-2.149,6.612c-2.204,1.334-4.974,1.301-7.513,0.858  c-4.69-0.817-8.694-2.696-12.929-4.774c-4.34,6.388-8.086,13.196-11.36,20.19c4.135-3.842,9.395-6.466,14.958-7.425  c2.173-0.374,4.701-0.391,6.237,1.191c1.795,1.848,1.225,5.135-0.629,6.924c-1.854,1.79-4.562,2.371-7.135,2.503  c-4.883,0.25-9.309-0.754-14.04-1.877c-0.427,0.931-0.848,1.864-1.259,2.799c-2.254,5.137-4.283,10.397-6.014,15.75  c4.084-3.68,9.216-6.193,14.636-7.126c2.174-0.374,4.701-0.391,6.238,1.191c1.795,1.848,1.225,5.135-0.629,6.924  c-1.854,1.789-4.562,2.371-7.135,2.503c-4.749,0.243-9.065-0.699-13.65-1.784c-1.9,6.127-3.4,12.374-4.38,18.705  c-0.204,1.319-2.235,0.911-2.032-0.405c0.99-6.393,2.518-12.699,4.44-18.884c-5.205-2.659-9.596-6.913-12.414-12.055  C1153.249,426.073,1152.407,423.676,1153.398,421.697z"/><path fill="#FDCCFF" d="M1229.175,561.564c-5.533,0.675-14.142,0.948-28.164-3.309c-8.597-2.642-20.53-6.233-33.182-15.889  c-0.546-0.417-1.514-1.145-2.717-2.173c-0.063-0.045-0.134-0.098-0.188-0.151c-0.117-0.08-0.233-0.177-0.358-0.266  c-0.413-0.337-0.844-0.709-1.327-1.065c-8.984-7.729-26.7-25.388-25.684-46.11c0.039-1.194,0.895-16.254,8.516-18.404  c9.558-2.592,22.908,16.683,26.639,14.237c1.882-1.249-0.928-6.338-2.081-13.187c-2.735-15.37,3.243-35.788,16.318-39.598  c6.17-1.864,14.175-0.008,19.514,5.031c8.765,8.095,3.882,24.352,5.286,24.653c2.047,0.35,1.973-32.945,19.216-40.294  c6.064-2.55,14.771-2.111,18.792,2.233c5.883,6.378-0.941,18.571,2.635,20.663c3.791,2.217,10.703-11.635,27.342-16.224  c4.23-1.134,14.163-3.854,21.631,1.65c6.516,4.707,9.407,13.914,7.365,21.184c-1.924,6.701-7.556,10.036-9.132,10.902  c-10.125,5.801-18.035-0.48-36.992,3.081c-6.617,1.219-13.716,3.489-13.595,5.782c0.202,1.687,4.325,1.835,9.168,5.702  c0.107,0.071,0.268,0.178,0.457,0.364c1.463,1.197,6.651,5.489,7.39,11.641c0.068,0.255,0.725,6.942-3.374,9.727  c-2.088,1.476-4.605,1.263-5.704,1.21c-10.961-0.703-24.643,1.741-24.746,3.522c-0.176,2.036,17.503,3.004,19.292,9.674  c1.479,5.544-8.817,11.879-10.149,12.693c-11.129,6.732-24.073,5.434-23.995,6.418c0.1,0.835,10.398-0.724,19.568,5.066  c4.285,2.669,10.606,8.313,9.659,13.133C1245.482,559.404,1234.007,560.936,1229.175,561.564z"/><path fill="#FFF" d="M1227.12,523.047c-0.672-2.353-3.268-3.244-5.448-3.443c-2.748-0.252-5.491,0.218-8.098,0.957  c-5.484,1.555-10.643,4.472-16.469,4.779c-2.944,0.155-5.945-0.383-8.5-2.008c6.163-6.421,11.536-13.607,16.763-20.804  c1.957-2.693,3.91-5.402,5.896-8.089c8.433-3.161,17.582,1.874,26.251,0.17c2.306-0.454,4.447-1.406,6.186-2.964  c0.293-0.262-0.159-0.704-0.451-0.443c-3.333,2.985-8.054,3.399-12.423,3.074c-4.325-0.322-8.588-1.426-12.928-1.496  c-2.043-0.033-4.067,0.202-5.995,0.801c5.381-7.24,11.039-14.283,17.771-20.306c8.155-7.292,17.953-13.191,28.969-15.105  c1.382-0.234,2.774-0.408,4.167-0.511c0.394-0.041,0.378-0.656-0.017-0.633c-10.824,0.853-20.739,5.627-29.125,12.11  c-1.43,1.103-2.801,2.268-4.144,3.461c0.017-0.067,0.02-0.141-0.024-0.22c-2.712-4.888,0.038-10.192,2.698-14.227  c1.454-2.206,3.017-4.366,4.085-6.804c0.888-2.025,1.553-4.343,0.783-6.564c-0.132-0.381-0.729-0.229-0.597,0.153  c0.9,2.596-0.274,5.372-1.466,7.6c-1.297,2.426-2.978,4.608-4.404,6.954c-2.344,3.854-4.069,8.796-1.631,13.191  c0.078,0.142,0.208,0.16,0.326,0.13c-7.544,6.755-13.82,14.808-19.798,22.972c-3.314,4.525-6.58,9.104-9.972,13.576  c-5.033-4.719-8.176-11.522-8.643-18.283c-0.255-3.693,0.472-7.133,1.723-10.544c1.358-3.703,3.087-7.328,3.543-11.316  c0.45-3.937-0.536-8.305-3.824-10.951c-0.313-0.252-0.745,0.181-0.428,0.436c3.312,2.665,4.147,7.084,3.561,11.006  c-0.602,4.022-2.418,7.664-3.74,11.45c-1.143,3.277-1.716,6.623-1.44,10.141c0.257,3.269,1.127,6.497,2.48,9.518  c1.513,3.378,3.666,6.499,6.392,9.039c-4.144,5.436-8.49,10.7-13.398,15.475c-3.401,3.312-7.102,6.381-11.074,9.025  c0.629-9.999-7.781-17.75-10.781-26.814c-0.878-2.652-1.285-5.429-0.852-8.163c0.062-0.389-0.542-0.556-0.605-0.162  c-1.592,10.049,6.797,18.155,10.2,27.007c1.029,2.675,1.622,5.475,1.413,8.308c-0.006,0.085,0.028,0.142,0.069,0.19  c-3.028,1.97-6.208,3.697-9.557,5.056c0.125,0.089,0.242,0.186,0.358,0.266c0.054,0.053,0.126,0.106,0.188,0.151  c5.709-2.351,10.997-5.715,15.787-9.653c2.564-2.112,4.973-4.381,7.277-6.752c4.275,2.802,9.579,2.541,14.195,1.266  c5.358-1.482,10.344-4.25,15.971-4.806c2.595-0.256,7.259-0.279,8.181,2.952C1226.634,523.587,1227.23,523.434,1227.12,523.047z"/><path fill="#FDCCFF" d="M174.932,382.169c6.85,2.26,17.672,4.787,36.287,2.92c11.419-1.185,27.254-2.733,45.272-11.815  c0.778-0.393,2.153-1.073,3.89-2.077c0.089-0.041,0.19-0.091,0.27-0.144c0.164-0.073,0.332-0.167,0.508-0.248  c0.592-0.324,1.216-0.689,1.901-1.019c12.977-7.559,39.078-25.543,42.148-52.167c0.202-1.529,2.285-20.908-6.893-25.574  c-11.535-5.718-32.456,15.427-36.657,11.371c-2.116-2.066,2.506-7.83,5.402-16.252c6.686-18.864,3.424-46.357-12.299-54.516  c-7.406-3.934-17.912-3.599-25.718,1.461c-12.778,8.081-10.024,30.002-11.862,30.03c-2.66-0.073,4.431-42.417-15.815-56.135  c-7.127-4.78-18.222-6.426-24.217-1.917c-8.775,6.626-2.714,23.868-7.672,25.624c-5.256,1.861-11.08-17.514-31.143-27.566  c-5.107-2.513-17.088-8.489-27.682-3.377c-9.224,4.339-14.812,15.322-13.759,25.09c1.023,9.014,7.439,14.683,9.249,16.183  c11.577,9.944,22.892,3.955,46.101,13.286c8.106,3.227,16.6,7.912,15.965,10.799c-0.61,2.096-5.851,1.24-12.784,4.934  c-0.151,0.063-0.376,0.158-0.654,0.347c-2.1,1.153-9.558,5.3-11.785,12.941c-0.14,0.307-2.375,8.649,2.22,13.231  c2.328,2.407,5.554,2.773,6.955,2.983c14,1.88,30.776,8.455,30.531,10.747c-0.205,2.635-22.75-0.61-26.413,7.424  c-3.034,6.679,8.646,17.347,10.158,18.719c12.649,11.384,29.279,13.009,28.974,14.242c-0.302,1.036-12.988-3.554-25.793,1.492  c-5.976,2.31-15.15,7.892-14.967,14.265C154.779,375.293,168.958,380.147,174.932,382.169z"/><path fill="#FFF" d="M185.625,333.681c1.343-2.824,4.812-3.3,7.608-3.001c3.525,0.375,6.893,1.668,10.033,3.268  c6.604,3.367,12.51,8.385,19.808,10.25c3.688,0.942,7.593,1.017,11.163-0.404c-6.438-9.731-11.718-20.234-16.812-30.715  c-1.907-3.921-3.805-7.863-5.75-11.784c-9.993-6.158-22.613-2.067-33.21-6.43c-2.819-1.161-5.324-2.915-7.195-5.338  c-0.315-0.408,0.348-0.855,0.663-0.449c3.585,4.641,9.464,6.364,15.053,7.057c5.533,0.685,11.152,0.36,16.652,1.37  c2.589,0.475,5.097,1.287,7.407,2.537c-5.278-10.574-10.948-20.969-18.19-30.337c-8.773-11.343-19.915-21.33-33.435-26.553  c-1.697-0.648-3.419-1.221-5.159-1.705c-0.489-0.152-0.34-0.93,0.154-0.801c13.499,3.825,25.026,12.411,34.261,22.783  c1.576,1.765,3.063,3.594,4.509,5.453c-0.007-0.09,0.005-0.185,0.077-0.274c4.454-5.533,2.094-12.978-0.419-18.785  c-1.374-3.175-2.895-6.319-3.732-9.692c-0.696-2.801-1.049-5.919,0.39-8.551c0.247-0.451,0.97-0.107,0.723,0.346  c-1.683,3.075-0.782,6.904,0.255,10.042c1.13,3.416,2.794,6.618,4.104,9.962c2.152,5.498,3.294,12.222-0.711,17.196  c-0.129,0.161-0.296,0.151-0.439,0.083c8.114,10.505,14.353,22.34,20.191,34.242c3.237,6.597,6.402,13.25,9.749,19.799  c7.352-4.73,12.754-12.591,14.765-21.075c1.099-4.635,0.903-9.196,0.038-13.852c-0.938-5.055-2.361-10.106-2.099-15.296  c0.258-5.123,2.423-10.431,7.134-12.965c0.449-0.241,0.903,0.418,0.449,0.663c-4.746,2.552-6.73,7.963-6.813,13.103  c-0.085,5.27,1.445,10.363,2.319,15.516c0.756,4.459,0.777,8.861-0.312,13.267c-1.012,4.095-2.789,7.981-5.135,11.483  c-2.622,3.916-5.999,7.341-9.977,9.882c4.094,7.965,8.48,15.765,13.68,23.082c3.601,5.075,7.633,9.917,12.098,14.287  c1.307-12.881,13.563-20.614,19.259-31.388c1.668-3.152,2.765-6.582,2.793-10.171c0.003-0.511,0.802-0.57,0.799-0.053  c-0.1,13.189-12.405,21.378-18.567,31.781c-1.862,3.143-3.201,6.555-3.531,10.214c-0.01,0.109-0.066,0.174-0.127,0.225  c3.412,3.273,7.068,6.275,11.014,8.852c-0.177,0.081-0.344,0.175-0.508,0.248c-0.08,0.054-0.181,0.103-0.27,0.144  c-6.721-4.437-12.696-10.056-17.922-16.28c-2.797-3.336-5.364-6.833-7.777-10.434c-5.991,2.482-12.64,0.808-18.205-1.984  c-6.46-3.242-12.178-8.027-19.172-10.158c-3.225-0.982-9.114-2.193-10.959,1.685C186.125,334.492,185.404,334.146,185.625,333.681z"/><path fill="#5E6FEB" d="M240.159,800.824c0-9.957,2.672-17.751,8.019-23.385c5.347-5.632,12.249-8.449,20.704-8.449  c5.538,0,10.53,1.324,14.977,3.969c4.445,2.646,7.835,6.336,10.167,11.068c2.332,4.732,3.499,10.1,3.499,16.101  c0,6.083-1.228,11.525-3.683,16.326c-2.455,4.802-5.933,8.436-10.433,10.905c-4.501,2.469-9.357,3.703-14.567,3.703  c-5.646,0-10.693-1.364-15.139-4.092c-4.447-2.727-7.815-6.451-10.106-11.171C241.305,811.081,240.159,806.089,240.159,800.824z   M248.342,800.947c0,7.229,1.944,12.923,5.831,17.083c3.887,4.16,8.763,6.24,14.628,6.24c5.974,0,10.89-2.101,14.752-6.302  c3.859-4.201,5.789-10.161,5.789-17.881c0-4.883-0.825-9.145-2.476-12.787c-1.65-3.641-4.065-6.465-7.242-8.47  c-3.178-2.005-6.745-3.008-10.701-3.008c-5.62,0-10.454,1.931-14.505,5.79C250.368,785.474,248.342,791.919,248.342,800.947z"/><path fill="#5E6FEB" d="M304.073,808.312c0-8.046,2.236-14.007,6.711-17.881c3.736-3.218,8.292-4.829,13.666-4.829  c5.974,0,10.856,1.958,14.648,5.872c3.792,3.915,5.688,9.323,5.688,16.224c0,5.592-0.839,9.991-2.517,13.196  c-1.678,3.205-4.119,5.695-7.325,7.467c-3.205,1.773-6.704,2.66-10.495,2.66c-6.083,0-11.001-1.95-14.751-5.852  C305.948,821.27,304.073,815.65,304.073,808.312z M311.642,808.312c0,5.565,1.214,9.732,3.642,12.5  c2.428,2.769,5.483,4.153,9.166,4.153c3.654,0,6.696-1.391,9.124-4.174c2.428-2.782,3.642-7.024,3.642-12.725  c0-5.374-1.221-9.445-3.662-12.214c-2.442-2.768-5.476-4.153-9.103-4.153c-3.683,0-6.738,1.378-9.166,4.132  C312.856,798.588,311.642,802.748,311.642,808.312z"/><path fill="#5E6FEB" d="M353.419,846.693v-60.108h6.71v5.647c1.582-2.21,3.369-3.867,5.36-4.972  c1.991-1.105,4.406-1.657,7.243-1.657c3.709,0,6.983,0.955,9.82,2.865c2.837,1.909,4.979,4.603,6.424,8.081  c1.446,3.478,2.169,7.291,2.169,11.437c0,4.447-0.798,8.449-2.394,12.009s-3.915,6.288-6.956,8.183  c-3.042,1.896-6.239,2.844-9.595,2.844c-2.455,0-4.658-0.518-6.609-1.555c-1.951-1.036-3.553-2.346-4.808-3.928v21.154H353.419z   M360.088,808.558c0,5.592,1.132,9.725,3.396,12.398c2.264,2.673,5.006,4.01,8.225,4.01c3.274,0,6.077-1.384,8.408-4.153  c2.332-2.768,3.499-7.058,3.499-12.869c0-5.537-1.139-9.683-3.417-12.439c-2.278-2.755-4.999-4.132-8.162-4.132  c-3.137,0-5.913,1.466-8.327,4.398C361.295,798.703,360.088,802.966,360.088,808.558z"/><path fill="#5E6FEB" d="M397.078,817.068l7.284-1.146c0.408,2.919,1.547,5.156,3.416,6.711c1.869,1.555,4.481,2.332,7.836,2.332  c3.382,0,5.892-0.689,7.529-2.066c1.637-1.377,2.454-2.993,2.454-4.849c0-1.663-0.723-2.973-2.168-3.928  c-1.01-0.655-3.519-1.487-7.529-2.496c-5.401-1.364-9.146-2.543-11.233-3.54c-2.086-0.995-3.669-2.373-4.746-4.132  c-1.079-1.76-1.616-3.703-1.616-5.831c0-1.936,0.443-3.73,1.33-5.38c0.885-1.65,2.093-3.021,3.621-4.112  c1.146-0.845,2.706-1.561,4.684-2.148c1.978-0.586,4.099-0.88,6.363-0.88c3.41,0,6.404,0.491,8.982,1.473  c2.577,0.982,4.48,2.312,5.707,3.99c1.228,1.678,2.073,3.922,2.537,6.731l-7.201,0.982c-0.327-2.236-1.276-3.982-2.844-5.237  c-1.57-1.255-3.785-1.882-6.649-1.882c-3.383,0-5.797,0.559-7.243,1.678c-1.446,1.118-2.169,2.428-2.169,3.928  c0,0.955,0.3,1.815,0.9,2.578c0.6,0.792,1.541,1.446,2.823,1.964c0.737,0.273,2.905,0.9,6.506,1.882  c5.21,1.391,8.844,2.53,10.904,3.416c2.06,0.887,3.676,2.176,4.849,3.867c1.173,1.691,1.76,3.792,1.76,6.301  c0,2.455-0.716,4.767-2.148,6.936c-1.432,2.168-3.499,3.846-6.198,5.033c-2.701,1.187-5.756,1.78-9.166,1.78  c-5.647,0-9.95-1.172-12.909-3.519C399.785,825.157,397.897,821.679,397.078,817.068z"/><path fill="#5E6FEB" d="M443.847,830.039v-8.388h8.387v8.388c0,3.082-0.546,5.571-1.637,7.467c-1.091,1.896-2.823,3.362-5.196,4.399  l-2.046-3.151c1.555-0.682,2.701-1.684,3.436-3.008c0.737-1.323,1.146-3.226,1.228-5.708H443.847z"/><path fill="#5E6FEB" d="M489.43,830.039v-59.985h22.628c3.982,0,7.023,0.191,9.124,0.573c2.946,0.491,5.415,1.425,7.407,2.803  c1.99,1.378,3.593,3.308,4.808,5.789c1.213,2.482,1.82,5.211,1.82,8.183c0,5.101-1.623,9.418-4.868,12.951  c-3.247,3.533-9.111,5.299-17.594,5.299h-15.386v24.387H489.43z M497.367,798.574h15.509c5.128,0,8.769-0.954,10.924-2.864  c2.155-1.909,3.233-4.596,3.233-8.061c0-2.509-0.634-4.657-1.903-6.444c-1.268-1.786-2.939-2.967-5.013-3.54  c-1.337-0.354-3.806-0.532-7.405-0.532h-15.345V798.574z"/><path fill="#5E6FEB" d="M572.737,824.679c-2.728,2.319-5.354,3.956-7.876,4.91c-2.523,0.955-5.231,1.432-8.123,1.432  c-4.774,0-8.443-1.166-11.006-3.499c-2.564-2.332-3.846-5.312-3.846-8.94c0-2.128,0.484-4.071,1.453-5.83  c0.967-1.76,2.236-3.171,3.806-4.235c1.568-1.064,3.334-1.868,5.298-2.414c1.446-0.381,3.628-0.75,6.547-1.105  c5.947-0.709,10.324-1.554,13.134-2.536c0.027-1.009,0.041-1.65,0.041-1.923c0-3-0.696-5.115-2.087-6.342  c-1.881-1.664-4.679-2.496-8.387-2.496c-3.465,0-6.022,0.607-7.672,1.821s-2.871,3.362-3.662,6.444l-7.201-0.982  c0.655-3.082,1.732-5.571,3.233-7.467c1.499-1.896,3.668-3.355,6.505-4.378c2.837-1.023,6.124-1.535,9.862-1.535  c3.709,0,6.723,0.437,9.042,1.309c2.319,0.874,4.024,1.971,5.115,3.294c1.091,1.324,1.855,2.994,2.292,5.012  c0.245,1.255,0.368,3.519,0.368,6.793v9.82c0,6.847,0.157,11.177,0.471,12.991c0.314,1.814,0.934,3.553,1.862,5.217h-7.693  C573.446,828.512,572.955,826.725,572.737,824.679z M572.123,808.23c-2.673,1.091-6.684,2.019-12.029,2.783  c-3.028,0.436-5.169,0.928-6.424,1.473c-1.255,0.546-2.223,1.344-2.905,2.393c-0.682,1.051-1.023,2.217-1.023,3.499  c0,1.964,0.743,3.601,2.23,4.91c1.487,1.309,3.662,1.964,6.527,1.964c2.837,0,5.36-0.62,7.57-1.861  c2.21-1.241,3.832-2.939,4.868-5.095c0.791-1.663,1.187-4.119,1.187-7.365V808.23z"/><path fill="#5E6FEB" d="M589.637,833.64l7.16,1.064c0.3,2.209,1.132,3.819,2.496,4.828c1.828,1.364,4.324,2.046,7.488,2.046  c3.41,0,6.041-0.682,7.898-2.046c1.854-1.365,3.109-3.274,3.763-5.728c0.382-1.501,0.559-4.651,0.532-9.452  c-3.219,3.792-7.228,5.687-12.029,5.687c-5.974,0-10.598-2.155-13.871-6.465c-3.274-4.31-4.91-9.479-4.91-15.508  c0-4.146,0.75-7.972,2.251-11.477c1.499-3.505,3.675-6.212,6.526-8.122c2.851-1.909,6.199-2.865,10.046-2.865  c5.128,0,9.356,2.074,12.684,6.22v-5.238h6.793v37.563c0,6.765-0.689,11.559-2.066,14.382c-1.378,2.823-3.56,5.054-6.547,6.69  c-2.986,1.637-6.663,2.455-11.027,2.455c-5.183,0-9.371-1.166-12.561-3.498C591.069,841.844,589.528,838.331,589.637,833.64z   M595.733,807.535c0,5.701,1.132,9.861,3.396,12.48c2.264,2.619,5.101,3.928,8.511,3.928c3.382,0,6.22-1.303,8.51-3.908  c2.291-2.605,3.437-6.69,3.437-12.255c0-5.319-1.18-9.329-3.54-12.03c-2.36-2.7-5.202-4.051-8.531-4.051  c-3.274,0-6.056,1.33-8.348,3.989C596.879,798.349,595.733,802.297,595.733,807.535z"/><path fill="#5E6FEB" d="M667.338,816.045l7.611,0.941c-1.2,4.447-3.424,7.898-6.67,10.352c-3.246,2.455-7.393,3.683-12.438,3.683  c-6.356,0-11.396-1.957-15.119-5.872c-3.724-3.914-5.586-9.404-5.586-16.469c0-7.31,1.882-12.984,5.647-17.021  c3.763-4.037,8.647-6.056,14.648-6.056c5.811,0,10.556,1.978,14.239,5.933c3.683,3.956,5.524,9.52,5.524,16.694  c0,0.436-0.015,1.091-0.041,1.964h-32.407c0.273,4.774,1.623,8.429,4.051,10.966c2.428,2.537,5.456,3.806,9.084,3.806  c2.701,0,5.005-0.709,6.914-2.128C664.706,821.42,666.22,819.155,667.338,816.045z M643.156,804.139h24.264  c-0.327-3.656-1.255-6.397-2.783-8.225c-2.346-2.836-5.388-4.255-9.124-4.255c-3.383,0-6.227,1.132-8.532,3.396  C644.677,797.319,643.401,800.347,643.156,804.139z"/><path fill="#5E6FEB" d="M708.339,830.039v-59.985h8.142l31.507,47.096v-47.096h7.61v59.985h-8.142l-31.507-47.137v47.137H708.339z"/><path fill="#5E6FEB" d="M765.255,808.312c0-8.046,2.236-14.007,6.711-17.881c3.736-3.218,8.292-4.829,13.666-4.829  c5.974,0,10.856,1.958,14.648,5.872c3.792,3.915,5.688,9.323,5.688,16.224c0,5.592-0.839,9.991-2.517,13.196  c-1.678,3.205-4.119,5.695-7.325,7.467c-3.205,1.773-6.704,2.66-10.495,2.66c-6.083,0-11.001-1.95-14.75-5.852  C767.13,821.27,765.255,815.65,765.255,808.312z M772.824,808.312c0,5.565,1.214,9.732,3.642,12.5  c2.428,2.769,5.483,4.153,9.166,4.153c3.654,0,6.696-1.391,9.124-4.174c2.428-2.782,3.642-7.024,3.642-12.725  c0-5.374-1.221-9.445-3.662-12.214c-2.442-2.768-5.476-4.153-9.103-4.153c-3.683,0-6.738,1.378-9.166,4.132  C774.038,798.588,772.824,802.748,772.824,808.312z"/><path fill="#5E6FEB" d="M830.682,823.452l1.064,6.506c-2.073,0.436-3.928,0.655-5.565,0.655c-2.673,0-4.747-0.423-6.22-1.268  c-1.472-0.845-2.51-1.957-3.109-3.335c-0.601-1.377-0.9-4.276-0.9-8.695v-25h-5.401v-5.729h5.401v-10.761l7.323-4.419v15.18h7.407  v5.729h-7.407v25.409c0,2.101,0.13,3.451,0.389,4.051c0.259,0.6,0.682,1.078,1.268,1.432c0.586,0.355,1.425,0.532,2.517,0.532  C828.268,823.738,829.346,823.643,830.682,823.452z"/><path fill="#5E6FEB" d="M862.516,830.039v-59.985h40.468v7.079h-32.53v18.576h28.152v7.079h-28.152v27.251H862.516z"/><path fill="#5E6FEB" d="M909.612,808.312c0-8.046,2.236-14.007,6.711-17.881c3.736-3.218,8.292-4.829,13.666-4.829  c5.974,0,10.856,1.958,14.648,5.872c3.792,3.915,5.688,9.323,5.688,16.224c0,5.592-0.839,9.991-2.517,13.196  c-1.678,3.205-4.119,5.695-7.325,7.467c-3.205,1.773-6.704,2.66-10.495,2.66c-6.083,0-11.001-1.95-14.75-5.852  C911.488,821.27,909.612,815.65,909.612,808.312z M917.181,808.312c0,5.565,1.214,9.732,3.642,12.5  c2.428,2.769,5.483,4.153,9.166,4.153c3.654,0,6.696-1.391,9.124-4.174c2.428-2.782,3.642-7.024,3.642-12.725  c0-5.374-1.221-9.445-3.662-12.214c-2.442-2.768-5.476-4.153-9.104-4.153c-3.683,0-6.738,1.378-9.166,4.132  C918.395,798.588,917.181,802.748,917.181,808.312z"/><path fill="#5E6FEB" d="M987.436,830.039v-6.383c-3.383,4.91-7.978,7.365-13.789,7.365c-2.564,0-4.958-0.491-7.181-1.473  c-2.223-0.982-3.874-2.216-4.95-3.703c-1.079-1.486-1.836-3.307-2.271-5.462c-0.301-1.446-0.45-3.737-0.45-6.874v-26.924h7.364  v24.101c0,3.846,0.15,6.438,0.45,7.774c0.464,1.937,1.446,3.458,2.946,4.563c1.5,1.105,3.355,1.657,5.565,1.657  s4.282-0.566,6.22-1.698c1.936-1.132,3.307-2.673,4.111-4.624c0.805-1.95,1.207-4.78,1.207-8.49v-23.282h7.366v43.455H987.436z"/><path fill="#5E6FEB" d="M1005.564,830.039v-43.455h6.628v6.179c3.192-4.773,7.802-7.161,13.831-7.161  c2.619,0,5.025,0.471,7.221,1.412c2.196,0.941,3.84,2.176,4.931,3.703c1.091,1.528,1.855,3.342,2.292,5.442  c0.273,1.365,0.409,3.751,0.409,7.161v26.719h-7.365v-26.433c0-3.001-0.287-5.244-0.859-6.731c-0.573-1.486-1.589-2.673-3.047-3.559  c-1.461-0.887-3.171-1.33-5.135-1.33c-3.137,0-5.845,0.996-8.123,2.987c-2.278,1.992-3.417,5.77-3.417,11.334v23.732H1005.564z"/><path fill="#5E6FEB" d="M1080.361,830.039v-5.483c-2.755,4.31-6.806,6.465-12.152,6.465c-3.465,0-6.65-0.955-9.555-2.864  c-2.904-1.909-5.155-4.576-6.751-7.999c-1.596-3.423-2.394-7.358-2.394-11.805c0-4.337,0.722-8.271,2.169-11.805  c1.445-3.532,3.614-6.24,6.505-8.122c2.892-1.882,6.124-2.824,9.698-2.824c2.619,0,4.951,0.552,6.997,1.657  c2.046,1.105,3.709,2.544,4.991,4.317v-21.523h7.325v59.985H1080.361z M1057.079,808.353c0,5.565,1.173,9.725,3.519,12.48  c2.346,2.755,5.115,4.133,8.307,4.133c3.218,0,5.954-1.316,8.203-3.949c2.251-2.632,3.376-6.649,3.376-12.05  c0-5.946-1.146-10.311-3.437-13.094c-2.29-2.782-5.114-4.173-8.469-4.173c-3.274,0-6.008,1.337-8.204,4.01  C1058.177,798.383,1057.079,802.598,1057.079,808.353z"/><path fill="#5E6FEB" d="M1100.861,830.039v-8.388h8.388v8.388H1100.861z"/><path fill="#5E6FEB" d="M1124.143,830.039v-8.388h8.387v8.388H1124.143z"/><path fill="#5E6FEB" d="M1147.425,830.039v-8.388h8.387v8.388H1147.425z"/><path fill="#B6B0FF" d="M585.855,457.134c0.03-0.568,0.061-1.136,0.102-1.705C585.663,455.937,585.612,456.566,585.855,457.134z   M798.313,458.291c-4.927-46.044-13.13-94.391-46.893-127.894c-3.282-3.431-6.706-6.673-10.49-9.658  c-19.342,25.237-46.308,41.95-74.103,56.683c24.189,25.504,22.686,83.656,23.365,127.316c4.758-3.247,8.025-7.944,9.222-12.936  c32.156-11.262,65.612-20.033,99.812-20.92C798.992,466.661,798.688,462.461,798.313,458.291z M690.029,480.571  c0.071,3.267,0.122,6.615,0.152,10.044c1.491-0.974,2.841-2.09,4.028-3.318C692.789,485.075,691.399,482.833,690.029,480.571z"/><path fill="#5784FF" d="M799.865,493.74c-2.526,129.58-28.739,206.729-162.439,208.198c-60.137-0.173-100.517-15.902-131.579-62.812  c-44.991-74.348-40.301-249.057,10.418-302.418c43.085-52.445,167.874-62.387,224.664-15.969  c-19.342,25.237-46.308,41.95-74.103,56.683c-20.751-21.613-58.656-14.893-69.74,15.198c-7.721,18.38-9.785,42.089-11.13,62.81  c-2.097,40.468-2.658,112.263,12.347,143.488c15.878,38.779,65.47,35.01,79.541-1.118c11.953-28.048,11.528-59.668,12.347-93.063  c4.758-3.247,8.025-7.944,9.222-12.936c32.156-11.262,65.612-20.033,99.812-20.92C799.652,478.43,799.865,486.049,799.865,493.74z"/><path fill="#808FFF" d="M799.226,470.882c-0.233-4.221-0.538-8.421-0.913-12.591c-4.927-46.044-13.13-94.391-46.893-127.894  c-3.282-3.431-6.706-6.673-10.49-9.658c-56.791-46.418-181.579-36.475-224.664,15.969c-50.719,53.361-55.41,228.07-10.418,302.418  c31.062,46.911,71.442,62.639,131.579,62.812c133.699-1.469,159.913-78.618,162.439-208.198  C799.865,486.049,799.652,478.43,799.226,470.882z M677.845,597.8c-14.071,36.127-63.663,39.896-79.541,1.118  c-15.004-31.225-14.443-103.02-12.346-143.488c1.345-20.721,3.409-44.431,11.13-62.81c11.083-30.091,48.989-36.811,69.74-15.198  c24.189,25.504,22.686,83.656,23.365,127.316C689.373,538.133,689.798,569.753,677.845,597.8z"/><path fill="#6373EB" d="M597.087,392.62c4.713-12.797,14.283-21.349,25.316-25.311c-20.862-9.23-47.73-0.239-56.767,24.296  c-7.721,18.38-9.785,42.089-11.13,62.81c-2.097,40.468-2.658,112.263,12.347,143.488c10.116,24.706,33.917,32.138,53.497,24.938  c-9.181-4.193-17.191-12.065-22.046-23.923c-15.004-31.225-14.443-103.02-12.346-143.488  C587.302,434.709,589.366,410.999,597.087,392.62z"/><path fill="#6373EB" d="M799.226,470.882c-0.233-4.221-0.538-8.421-0.913-12.591c-4.927-46.044-13.13-94.391-46.893-127.894  c-3.282-3.431-6.706-6.673-10.49-9.658c-26.559-21.708-67.989-31.087-108.98-29.559c29.864,3.103,57.801,12.42,77.529,28.545  c3.784,2.986,7.208,6.227,10.49,9.658c33.763,33.503,41.966,81.85,46.893,127.894c0.375,4.17,0.68,8.37,0.913,12.591  c0.426,7.548,0.639,15.167,0.639,22.858c-2.486,127.538-27.92,204.284-156.198,208.072c8.004,0.744,16.389,1.115,25.21,1.141  c133.699-1.469,159.913-78.618,162.439-208.198C799.865,486.049,799.652,478.43,799.226,470.882z"/><path fill="#FDBFFF" d="M873.177,483.594c-0.984-0.386-1.958-0.771-2.943-1.136c-0.436-0.162-0.862-0.325-1.298-0.487  c-0.771-0.284-1.542-0.558-2.313-0.832c-1.025-0.365-2.05-0.72-3.074-1.055c-0.324-0.112-0.659-0.223-0.984-0.325  c-0.832-0.274-1.664-0.538-2.506-0.791c-0.68-0.213-1.37-0.426-2.049-0.629c-1.37-0.406-2.739-0.791-4.109-1.167  c-0.853-0.233-1.715-0.457-2.577-0.67c-1.715-0.436-3.43-0.842-5.144-1.228c-0.862-0.193-1.714-0.375-2.577-0.558  c-0.081-0.02-0.162-0.041-0.233-0.051c-1.563-0.314-3.115-0.619-4.677-0.893c-0.01,0-0.02,0-0.031-0.01  c-0.558-0.112-1.116-0.203-1.674-0.294c-0.01-0.01-0.03-0.01-0.05-0.01c-3.175-0.538-6.361-0.994-9.557-1.359  c-1.218-0.142-2.435-0.274-3.653-0.385c-1.005-0.101-2.009-0.183-3.013-0.264c-0.771-0.071-1.553-0.122-2.334-0.172  c-0.619-0.051-1.227-0.081-1.846-0.122c-3.977-0.233-7.955-0.345-11.941-0.345c-0.923,0-1.836,0.01-2.76,0.02  c-0.872,0.01-1.735,0.03-2.607,0.051c-1.126,0.02-2.242,0.061-3.358,0.112c-0.812,0.03-1.623,0.071-2.435,0.111  c-1.867,0.091-3.734,0.213-5.611,0.355c-2.952,0.223-5.904,0.497-8.867,0.832c-0.792,0.091-1.583,0.183-2.374,0.284  c-0.812,0.101-1.623,0.203-2.445,0.315c-0.274,0.03-0.548,0.071-0.822,0.102c-1.614,0.213-3.227,0.446-4.839,0.7  c-0.183,0.031-0.355,0.051-0.538,0.081c-1.816,0.284-3.622,0.589-5.438,0.903c-0.944,0.162-1.887,0.335-2.82,0.507  c-4.708,0.872-9.425,1.867-14.143,2.962c-0.944,0.213-1.887,0.436-2.831,0.67c-3.774,0.913-7.548,1.887-11.333,2.922  c-0.943,0.264-1.897,0.527-2.841,0.791c-4.728,1.339-9.466,2.76-14.204,4.271c-0.172,0.051-0.335,0.101-0.507,0.162  c-0.7,0.213-1.39,0.447-2.09,0.67c-0.7,0.233-1.39,0.456-2.09,0.69c-0.081,0.03-0.152,0.051-0.233,0.071  c-0.071,0.02-0.142,0.04-0.223,0.071c-0.162,0.051-0.315,0.102-0.467,0.152c-0.223,0.081-0.446,0.152-0.67,0.223  c-0.315,0.112-0.639,0.213-0.964,0.325c-0.497,0.173-0.984,0.345-1.482,0.517c-0.649,0.203-1.298,0.426-1.948,0.649  c-0.081,0.02-0.162,0.051-0.243,0.081c-0.701,0.233-1.4,0.487-2.09,0.73c-0.497,0.173-0.994,0.335-1.492,0.507  c-0.071,0.03-0.142,0.051-0.203,0.071c-0.071,0.02-0.142,0.041-0.214,0.061c-0.619,0.223-1.247,0.446-1.877,0.67  c-1.126-1.704-2.242-3.429-3.328-5.154c-1.42-2.222-2.81-4.464-4.18-6.726v-0.01c-0.213-0.345-0.426-0.69-0.629-1.035  c-0.041-0.051-0.071-0.111-0.102-0.162c-14.427-23.994-26.267-49.926-35.357-77.958c-1.603-4.921-3.125-9.892-4.535-14.934  c1.187-0.609,2.364-1.207,3.551-1.816c0.436-0.233,0.882-0.457,1.319-0.68c0.883-0.456,1.765-0.913,2.638-1.359  c1.298-0.67,2.587-1.339,3.886-2.019c2.019-1.045,4.027-2.1,6.026-3.176c1.39-0.73,2.78-1.471,4.16-2.212  c2.333-1.268,4.647-2.536,6.949-3.835c23.913-13.412,46.193-28.742,62.994-50.636c0.456-0.588,0.913-1.187,1.359-1.796  c1.654-2.232,3.257-4.545,4.789-6.899c1.42-2.181,2.79-4.383,4.078-6.696l0.01-0.01c-0.01-0.01-0.01-0.01,0-0.02v-0.01  c6.574-11.546,11.799-24.704,15.279-39.933v-0.01c0.244-0.994,0.457-2.009,0.67-3.023c0.273-1.309,0.538-2.628,0.791-3.967  l9.811,20.981l21.641,46.304v0.01l6.402,13.686l27.038,57.85l3.713,7.944v0.01l6.96,14.894c0.01,0.01,0.01,0.01,0.01,0.02  l19.48,41.668L873.177,483.594z"/><path fill="#D8DAEB" d="M863.197,462.26l-95.294-203.882c-0.444,2.379-0.937,4.698-1.46,6.982L863.197,462.26z"/><path fill="#E89DEB" d="M873.177,483.594c-11.136-4.426-22.727-7.735-34.516-9.831c-0.558-0.112-1.116-0.203-1.674-0.294  c-47.162-8.037-95.025,3.258-139.45,18.982c-2.581-3.918-5.074-7.867-7.508-11.88v-0.01c-0.254-0.396-0.497-0.802-0.74-1.197  c0.967,1.45,1.934,2.898,2.922,4.322c56.314-22.371,116.25-36.169,174.026-14.914L873.177,483.594z"/><ellipse cx="845.348" cy="358.143" fill="#FA63FF" rx="84.462" ry="133.148" transform="rotate(-24.43 845.256 358.118)"/><path fill="#FFF" d="M561.445,445.984c0,0.487,0.01,0.984,0.041,1.481c-0.01-0.223-0.02-0.456-0.03-0.68v-0.183  C561.445,446.4,561.445,446.187,561.445,445.984z"/><path fill="#FFF" d="M561.486,447.466c0.01,0.375,0.041,0.751,0.071,1.126c-0.01-0.071-0.02-0.152-0.02-0.223  C561.516,448.064,561.496,447.77,561.486,447.466z"/><path fill="#FFF" d="M561.587,448.876c0.02,0.223,0.041,0.446,0.061,0.67c-0.041-0.315-0.071-0.639-0.092-0.954  C561.567,448.683,561.577,448.775,561.587,448.876z"/><path fill="#FDBFFF" d="M627.046,514.102c-2.415,0.923-5.479,2.323-8.918,3.947c-4.565,2.151-9.79,4.697-15.025,7.051  c-4.495,2.029-8.989,3.906-13.078,5.245c-1.41,0.477-2.77,0.872-4.068,1.197c-0.051,0.01-0.102,0.02-0.152,0.03  c-0.081-1.481-0.153-2.983-0.223-4.505c-0.061-1.197-0.111-2.404-0.162-3.632c-0.223-5.844-0.385-11.972-0.456-18.374  c-0.041-3.165-0.061-6.402-0.061-9.699c0-1.897,0.01-3.764,0.02-5.61c0.071-11.789,0.385-22.665,0.933-32.618  c-0.244-0.568-0.193-1.197,0.102-1.705c0,0,0,0,0-0.01c0.132-2.415,0.284-4.758,0.456-7.061v-0.01  c0.112-1.441,0.223-2.851,0.335-4.241c0.416-4.971,0.903-9.669,1.461-14.082c0.051-0.375,0.092-0.74,0.142-1.106l0.396,0.862  l5.184,11.424l1.41,3.105l2.425,5.326l4.362,9.608l0.548,1.217l0.02,0.02l20.534,45.229l0.741,1.633l0.274,0.588l1.076,2.364  L627.046,514.102z"/><path fill="#E89DEB" d="M627.046,514.102c-12.839,5.153-27.482,13.897-41.242,17.47c-0.143-2.688-0.273-5.412-0.386-8.137  c13.011-2.222,26.933-10.576,38.827-15.502C624.892,509.35,626.39,512.653,627.046,514.102z"/><path fill="#FDBFFF" d="M910.979,328.325c25.961,57.155,19.174,116.124-15.17,131.724c-12.618,5.732-27.206,4.806-41.87-1.493  c-10.593-4.525-21.214-11.844-31.215-21.469c-3.539-3.41-6.984-7.1-10.329-11.057c-0.186-0.222-0.378-0.458-0.57-0.694  c-9.579-11.466-18.229-25.156-25.21-40.524c-5.52-12.153-9.568-24.396-12.16-36.281c-0.421-1.901-0.801-3.786-1.141-5.656  c-0.018-0.077-0.028-0.174-0.046-0.251c-2.391-13.166-2.994-25.801-1.872-37.297c2.393-24.761,12.772-44.221,30.409-52.232  C836.151,237.497,885.024,271.184,910.979,328.325z"/><path fill="#FA63FF" d="M689.076,540.338c-0.954,15.411-2.506,27.849-4.677,37.336c-0.609,2.678-1.278,5.235-1.998,7.69  c-1.329,4.535-2.851,8.685-4.556,12.438l-54.421-72.672l-5.296-7.081l-3.896-5.205l-0.193-0.254l-1.512-2.019l10.349-4.698  l0.355-0.162l29.016-13.179c4.099,1.938,7.67,4.332,10.836,7.061c3.896,3.368,7.183,7.244,10.074,11.404  C679.529,520.159,684.013,530.72,689.076,540.338z"/><path fill="#E549EB" d="M682.4,585.364c-1.329,4.535-2.851,8.685-4.556,12.438l-54.421-72.672l-5.296-7.081l-3.896-5.205  l-0.193-0.254l-1.512-2.019l10.349-4.698l1.095,1.471l2.06,2.739l8.776,11.728L682.4,585.364z"/><path fill="#E89DEB" d="M881.068,448.088c-10.593-4.525-21.214-11.845-31.215-21.469c-3.539-3.41-6.984-7.1-10.329-11.057  c-0.186-0.222-0.378-0.458-0.57-0.693c-9.579-11.466-18.229-25.156-25.21-40.524c-5.52-12.153-9.568-24.396-12.16-36.281  c-0.421-1.901-0.801-3.786-1.141-5.656c-0.018-0.077-0.028-0.174-0.046-0.251c-2.391-13.166-2.994-25.801-1.872-37.297  c1.881-19.466,8.719-35.627,20.119-45.554c-5.867,0.151-11.527,1.378-16.838,3.79c-17.637,8.011-28.016,27.471-30.409,52.232  c-1.122,11.496-0.519,24.131,1.872,37.297c0.018,0.077,0.028,0.174,0.046,0.251c0.339,1.87,0.72,3.755,1.141,5.656  c2.592,11.884,6.64,24.128,12.16,36.281c6.98,15.368,15.631,29.058,25.21,40.524c0.192,0.236,0.385,0.472,0.57,0.694  c3.345,3.957,6.79,7.647,10.329,11.057c10.001,9.624,20.622,16.943,31.215,21.469c14.664,6.299,29.252,7.224,41.87,1.493  c3.777-1.716,7.2-3.984,10.303-6.688C898.035,453.569,889.566,451.738,881.068,448.088z"/><path fill="#FA63FF" d="M699.414,491.781c0,0.01,0,0.01,0,0.02c-1.197,4.992-4.464,9.689-9.222,12.936  c-2.039,1.4-4.352,2.526-6.899,3.287c-3.257,0.984-6.656,1.968-10.136,2.973c-12.266,3.541-25.658,7.193-38.35,10.815  c-3.876,1.116-7.69,2.222-11.383,3.317c-1.319,0.386-2.628,0.781-3.916,1.167c-5.397,1.613-11.129,1.076-16.405-1.197  c-2.577-1.096-5.052-2.618-7.325-4.515c-3.845-3.175-7.122-7.396-9.405-12.408l-1.41-3.115c-0.041-3.165-0.061-6.402-0.061-9.699  c0-1.897,0.01-3.764,0.02-5.61c0.071-11.789,0.385-22.665,0.933-32.618c-0.244-0.568-0.193-1.197,0.102-1.705c0,0,0,0,0-0.01  c0.132-2.415,0.284-4.758,0.456-7.061v-0.01c0.112-1.441,0.223-2.851,0.335-4.241c0.416-4.971,0.903-9.669,1.461-14.082  c0.051-0.375,0.092-0.74,0.142-1.106c0.842-6.463,1.836-12.327,2.983-17.592c14.478-9.486,28.874-19.002,44.123-28.255  c6.473-3.916,14.193-3.206,18.82,0.903c1.633,1.451,2.892,3.328,3.561,5.57c7.923,26.399,18.363,51.62,31.684,75.706  c2.557,4.616,5.215,9.192,7.985,13.727c0.406,0.66,0.751,1.329,1.045,2.009c0.03,0.071,0.061,0.132,0.081,0.203h0.01  c0.051,0.122,0.101,0.254,0.152,0.385c0.031,0.081,0.061,0.152,0.092,0.233c0.193,0.538,0.365,1.075,0.507,1.613  c0.071,0.274,0.132,0.548,0.193,0.822c0,0.01,0,0.02,0.01,0.031c0.101,0.527,0.183,1.055,0.233,1.593  c0.02,0.203,0.041,0.406,0.051,0.619c0.01,0.142,0.02,0.294,0.02,0.446C699.962,488.555,699.8,490.178,699.414,491.781z"/><path fill="#FFF" d="M870.496,377.361l-58.67,47.976c-9.579-11.466-18.229-25.156-25.21-40.524  c-5.52-12.153-9.568-24.396-12.16-36.281c-0.421-1.901-0.801-3.786-1.141-5.656c-0.018-0.077-0.028-0.174-0.046-0.251l77.468-7.789  L870.496,377.361z"/><path fill="#E6EBFF" d="M827.327,401.675c-7.681,6.281-19.159,4.637-24.64-3.634c-5.231-7.896-10.022-16.514-14.21-25.735  c-4.574-10.069-8.121-20.197-10.682-30.135l-4.526,0.455c0.018,0.077,0.028,0.174,0.046,0.251c0.339,1.87,0.72,3.755,1.141,5.656  c2.592,11.884,6.64,24.128,12.16,36.281c6.98,15.367,15.631,29.058,25.21,40.524l58.67-47.976l-3.699-7.961L827.327,401.675z"/><ellipse cx="862.694" cy="356.072" fill="#FA63FF" rx="16.172" ry="24.476" transform="rotate(-24.43 862.617 356.05)"/><ellipse cx="863.742" cy="355.596" fill="#E549EB" rx="12.953" ry="21.345" transform="rotate(-24.43 863.659 355.574)"/><path fill="#FFF" d="M861.07,357.767c-1.499-3.301-1.357-6.593,0.318-7.354c1.675-0.761,4.248,1.298,5.747,4.599  c1.499,3.301,1.357,6.593-0.318,7.354C865.142,363.127,862.569,361.068,861.07,357.767z"/><path fill="#E549EB" d="M561.587,448.876c0.02,0.223,0.041,0.446,0.061,0.67c-0.041-0.315-0.071-0.639-0.092-0.954  C561.567,448.683,561.577,448.775,561.587,448.876z"/><path fill="#E549EB" d="M699.414,491.781c0,0.01,0,0.01,0,0.02c-1.197,4.992-4.464,9.689-9.222,12.936  c-2.039,1.4-4.352,2.526-6.899,3.287c-3.257,0.984-6.656,1.968-10.136,2.973c-12.266,3.541-25.658,7.193-38.35,10.815  c-3.876,1.116-7.69,2.222-11.383,3.317c-1.319,0.386-2.628,0.781-3.916,1.167c-5.397,1.613-11.129,1.076-16.405-1.197  c-2.577-1.096-5.052-2.618-7.325-4.515c-3.845-3.175-7.122-7.396-9.405-12.408l-1.41-3.115c-0.041-3.165-0.061-6.402-0.061-9.699  c0-1.897,0.01-3.764,0.02-5.61l1.836,4.048c5.316,11.688,16.06,19.053,26.713,19.053h0.01c0.254,0,0.497,0,0.75-0.01  c1.908-0.061,3.795-0.365,5.661-0.923c1.775-0.538,3.592-1.075,5.428-1.623c0.233-0.071,0.477-0.142,0.71-0.213  c11.82-3.47,24.724-7.011,37.051-10.491c7.162-2.009,14.143-4.007,20.595-5.945c2.384-0.72,4.566-1.745,6.503-3.034  c1.491-0.974,2.841-2.09,4.028-3.318c1.775-1.806,3.186-3.855,4.2-6.026c0.051-0.091,0.102-0.193,0.142-0.284  c0.03,0.071,0.061,0.132,0.081,0.203c0.06,0.132,0.111,0.254,0.162,0.385c0.031,0.081,0.061,0.152,0.092,0.233  c0.193,0.538,0.365,1.075,0.507,1.613c0.071,0.274,0.132,0.548,0.193,0.822c0,0.01,0,0.02,0.01,0.031  c0.101,0.527,0.183,1.055,0.233,1.593c0.02,0.203,0.041,0.406,0.051,0.619c0.01,0.142,0.02,0.294,0.02,0.446  C699.962,488.555,699.8,490.178,699.414,491.781z"/><path fill="#FFF" d="M621.801,432.288l-1.065,0.477c-0.101,0.051-0.193,0.102-0.294,0.142l-25.1,11.404l-8.735,3.967  c-0.021,0.01-0.031,0.01-0.051,0.02l-0.142,0.061v-0.01c0.112-1.441,0.223-2.851,0.335-4.241c0.416-4.971,0.903-9.669,1.461-14.082  l0.538-0.243l26.459-12.023c1.431-0.649,3.115-0.02,3.764,1.41l4.251,9.344C623.87,429.944,623.231,431.639,621.801,432.288z"/><path fill="#CFD2EB" d="M620.736,432.765c-6.647,3.028-28.024,12.764-34.322,15.583c0.112-1.441,0.223-2.851,0.335-4.241  c5.527-1.63,30.391-13.591,36.128-16.132C623.313,429.843,622.461,431.821,620.736,432.765z"/><path fill="#FFF" d="M602.697,460.483L602.697,460.483l-0.335,0.152l-9.649,4.383l-0.334,0.153c-1.315,0.6-2.867,0.018-3.461-1.3  l-0.151-0.334l-2.466-5.418l-0.426-0.933c-0.01-0.02-0.01-0.03-0.02-0.051c-0.244-0.568-0.193-1.197,0.102-1.705c0,0,0,0,0-0.01  c0.193-0.355,0.497-0.649,0.893-0.822l10.917-4.961l0.608-0.274c0.984-0.446,2.141-0.01,2.588,0.964l3.039,6.703  C604.597,458.343,604.012,459.891,602.697,460.483z"/><path fill="#CFD2EB" d="M602.975,458.862c-9.612,3.529-12.374,9.843-16.323-3.77c-1.921,1.946,1.555,6.524,2.115,8.449  c0.68,1.498,2.447,2.161,3.945,1.48c1.794-1.395,11.903-3.795,11.394-7.08C603.817,458.324,603.443,458.649,602.975,458.862z"/><path fill="#FFF" d="M613.557,449.009c-1.615-3.555-0.042-7.745,3.513-9.36c3.555-1.615,7.745-0.042,9.36,3.513  c1.615,3.555,0.042,7.745-3.513,9.36C619.362,454.136,615.171,452.563,613.557,449.009z"/><path fill="#CFD2EB" d="M623.29,451.333c-5.108,2.522-11.232-2.523-9.798-7.972c-3.952,9.189,11.299,14.027,13.375,4.26  C626.203,449.207,624.979,450.565,623.29,451.333z"/><path fill="#E89DEB" d="M590.167,530.446c-1.4,0.426-2.8,0.792-4.21,1.096c-0.051,0.01-0.102,0.02-0.152,0.03  c-0.081-1.481-0.153-2.983-0.223-4.505c1.451,1.146,2.932,2.242,4.444,3.277C590.076,530.385,590.117,530.415,590.167,530.446z"/><path fill="#FA63FF" d="M899.652,161.3c-6.535,16.021-13.069,32.043-19.604,48.064c-2.957,7.251,8.815,10.406,11.74,3.237  c6.535-16.021,13.069-32.043,19.604-48.064C914.349,157.286,902.576,154.13,899.652,161.3z"/><path fill="#FA63FF" d="M1044.711,114.099c-2.075-2.12-6.601-2.597-8.609,0c-33.449,43.254-66.899,86.509-100.348,129.763  c-2.026,2.62-2.506,6.048,0,8.609c2.075,2.121,6.601,2.597,8.609,0c33.449-43.254,66.899-86.509,100.349-129.763  C1046.736,120.088,1047.217,116.66,1044.711,114.099z"/><path fill="#FA63FF" d="M1071.414,217.5c-35.808,20.194-70.214,42.769-102.994,67.578c-6.169,4.669-0.109,15.246,6.145,10.512  c32.78-24.809,67.186-47.384,102.994-67.578C1084.383,224.164,1078.253,213.643,1071.414,217.5z"/><path fill="#FA63FF" d="M1015.629,327.038c-9.544,2.703-19.245,4.829-29.083,6.134c-3.285,0.436-6.05,2.486-6.087,6.087  c-0.031,2.955,2.828,6.52,6.087,6.087c10.939-1.452,21.698-3.56,32.319-6.569C1026.392,336.646,1023.193,324.895,1015.629,327.038z"/><path fill="#808FFF" d="M267.245,636.188H67.086V545.82l200.158-237.924h95.763v243.049h49.635v85.243h-49.635v73.913h-95.763  V636.188z M267.245,550.945V426.492L161.484,550.945H267.245z"/><rect width="20.598" height="85.243" x="392.044" y="550.945" fill="#6373EB"/><rect width="20.598" height="243.049" x="342.41" y="307.896" fill="#6373EB"/><polygon fill="#6373EB" points="161.484 550.945 267.245 429.421 267.245 405.182 140.886 550.945"/><rect width="20.598" height="73.913" x="342.41" y="636.188" fill="#6373EB"/><path fill="#808FFF" d="M1078.3,636.188H878.142V545.82L1078.3,307.896h95.763v243.049h49.635v85.243h-49.635v73.913H1078.3V636.188  z M1078.3,550.945V426.492L972.539,550.945H1078.3z"/><rect width="20.598" height="85.243" x="1203.1" y="550.945" fill="#6373EB"/><rect width="20.598" height="243.049" x="1153.465" y="307.896" fill="#6373EB"/><polygon fill="#6373EB" points="972.539 550.945 1078.3 429.421 1078.3 405.182 951.941 550.945"/><rect width="20.598" height="73.913" x="1153.465" y="636.188" fill="#6373EB"/><path fill="#FDCCFF" d="M377.799,256.638c0.783,1.263,1.032,2.787,0.666,4.287c-0.484,1.98-1.941,3.503-3.897,4.074l-18.889,5.509  c-1.957,0.571-4.004,0.07-5.477-1.339c-1.47-1.409-2.062-3.433-1.578-5.412l4.673-19.112c0.484-1.98,1.942-3.503,3.898-4.073  c1.957-0.57,4.004-0.07,5.476,1.34l14.215,13.603C377.243,255.856,377.548,256.234,377.799,256.638z M353.079,265.714  c0.069,0.111,0.144,0.193,0.197,0.244c0.149,0.143,0.562,0.457,1.159,0.283l18.888-5.509c0.597-0.174,0.776-0.661,0.825-0.862  c0.05-0.2,0.116-0.713-0.334-1.144l-14.215-13.603c-0.449-0.43-0.96-0.342-1.158-0.283c-0.199,0.058-0.677,0.258-0.825,0.861  l-4.673,19.112C352.846,265.204,352.951,265.508,353.079,265.714z"/><path fill="#FDCCFF" d="M145.657,723.25c-1.467-0.237-2.782-1.047-3.674-2.307c-1.178-1.663-1.373-3.762-0.523-5.614l8.219-17.877  c0.852-1.852,2.572-3.07,4.601-3.259c2.028-0.187,3.945,0.693,5.122,2.355l11.372,16.056c1.179,1.664,1.373,3.762,0.522,5.614  s-2.571,3.07-4.601,3.258l-19.59,1.821C146.612,723.342,146.127,723.326,145.657,723.25z M155.004,698.631  c-0.129-0.021-0.241-0.018-0.313-0.011c-0.206,0.019-0.714,0.125-0.973,0.69l-8.219,17.876c-0.259,0.565-0.009,1.019,0.111,1.188  c0.119,0.169,0.463,0.555,1.083,0.498l19.591-1.821c0.62-0.057,0.887-0.501,0.973-0.689c0.087-0.188,0.249-0.68-0.11-1.188  l-11.372-16.055C155.542,698.789,155.243,698.669,155.004,698.631z"/><path fill="#FDCCFF" d="M408.405,468.887c0.999-1.1,2.395-1.76,3.937-1.821c2.036-0.08,3.902,0.901,4.99,2.624l10.501,16.639  c1.088,1.724,1.171,3.83,0.222,5.634c-0.949,1.802-2.732,2.928-4.767,3.008l-19.66,0.775c-2.037,0.081-3.902-0.901-4.99-2.625  c-1.087-1.723-1.17-3.829-0.221-5.633l9.158-17.413C407.807,469.637,408.085,469.239,408.405,468.887z M423.942,490.149  c0.088-0.097,0.146-0.192,0.18-0.256c0.097-0.183,0.285-0.667-0.047-1.192l-10.501-16.639c-0.332-0.525-0.849-0.563-1.056-0.555  c-0.206,0.007-0.717,0.085-1.008,0.636l-9.159,17.414c-0.29,0.55-0.064,1.017,0.047,1.191c0.111,0.175,0.434,0.58,1.055,0.556  l19.66-0.776C423.517,490.512,423.78,490.327,423.942,490.149z"/><path fill="#FDCCFF" d="M1249.252,672.131c1.156,0.934,1.894,2.291,2.044,3.827c0.197,2.028-0.676,3.947-2.334,5.132l-16.011,11.436  c-1.659,1.185-3.757,1.388-5.612,0.544c-1.853-0.845-3.08-2.56-3.276-4.587l-1.898-19.583c-0.197-2.029,0.676-3.948,2.335-5.132  c1.658-1.184,3.756-1.387,5.611-0.543l17.909,8.148C1248.469,671.576,1248.882,671.831,1249.252,672.131z M1228.914,688.858  c0.102,0.082,0.2,0.135,0.266,0.165c0.188,0.086,0.682,0.246,1.187-0.115l16.011-11.435c0.505-0.362,0.514-0.88,0.494-1.086  c-0.019-0.205-0.126-0.711-0.693-0.97l-17.909-8.148c-0.566-0.258-1.019-0.005-1.187,0.115c-0.169,0.12-0.554,0.467-0.495,1.085  l1.898,19.583C1228.526,688.454,1228.726,688.706,1228.914,688.858z"/><path fill="#FDCCFF" d="M1135.286,243.322c1.482,0.114,2.859,0.813,3.853,1.994c1.312,1.559,1.681,3.634,0.987,5.551l-6.706,18.498  c-0.695,1.916-2.308,3.273-4.314,3.63c-2.006,0.355-3.989-0.363-5.3-1.921l-12.667-15.055c-1.313-1.56-1.681-3.635-0.986-5.551  c0.695-1.916,2.307-3.272,4.314-3.628l19.371-3.442C1134.327,243.309,1134.812,243.286,1135.286,243.322z M1128.016,268.633  c0.131,0.01,0.241-0.002,0.313-0.015c0.204-0.036,0.701-0.184,0.913-0.768l6.706-18.497c0.211-0.585-0.076-1.016-0.209-1.175  c-0.132-0.158-0.507-0.514-1.12-0.406l-19.372,3.442c-0.613,0.109-0.843,0.573-0.913,0.768c-0.071,0.195-0.192,0.699,0.208,1.174  l12.667,15.055C1127.468,268.52,1127.776,268.614,1128.016,268.633z"/><circle cx="436.969" cy="431.402" r="10.653" fill="#D9E3FF"/><circle cx="228.634" cy="661.044" r="10.653" fill="#D9E3FF"/><circle cx="43.973" cy="695.372" r="10.653" fill="#D9E3FF" transform="rotate(-22.5 43.969 695.34)"/><ellipse cx="78.301" cy="321.316" fill="#D9E3FF" rx="10.653" ry="10.654" transform="rotate(-22.5 78.297 321.303)"/><ellipse cx="463.011" cy="684.719" fill="#D9E3FF" rx="10.654" ry="10.653" transform="rotate(-82.981 463.021 684.725)"/><circle cx="299.658" cy="208.862" r="10.653" fill="#D9E3FF" transform="rotate(-22.5 299.643 208.854)"/><ellipse cx="722.247" cy="234.904" fill="#D9E3FF" rx="10.653" ry="10.654" transform="rotate(-45.001 722.247 234.914)"/><ellipse cx="1202.838" cy="230.169" fill="#D9E3FF" rx="10.654" ry="10.653" transform="rotate(-85.268 1202.849 230.153)"/><path fill="#D9E3FF" d="M770.779,693.005c0-5.884,4.77-10.653,10.653-10.653c5.884,0,10.654,4.77,10.654,10.653  s-4.77,10.654-10.654,10.654C775.549,703.658,770.779,698.888,770.779,693.005z"/><circle cx="1272.678" cy="585.286" r="10.654" fill="#D9E3FF" transform="rotate(-76.714 1272.788 585.292)"/><ellipse cx="1320.026" cy="702.475" fill="#D9E3FF" rx="10.654" ry="10.653" transform="rotate(-80.781 1320.04 702.453)"/></svg>