<svg xmlns="http://www.w3.org/2000/svg" viewBox="0 0 600 500" xmlns:v="https://vecta.io/nano"><style><![CDATA[.B{fill:#fff}.C{fill:#060405}.D{fill:#6193f6}.E{fill:#d2e4ff}.F{fill:#c6e2fa}]]></style><path d="M526.1 440H84.9c-27.9 0-47.5-28.9-37.6-55.9.1-.2.1-.4.2-.5 5.8-15.6 17.5-29.1 18.9-45.8C67.5 323.9-38.2 56.1 346.2 59.5c23.7.2 219.1-4.4 209.2 87.1-9 82.5-96.8 196.4-87.6 207.5 5.7 6.9 15.5 8.3 24.3 7.7s17.6-2.8 26.2-1.1c19.3 3.8 33.5 25.3 37.4 45.4 0 .1 0 .2.1.3 3.4 17.4-12.6 33.6-29.7 33.6z" opacity=".3" class="E"/><g class="F"><path d="M174 175h-31.6c-.2 0-.4-.2-.4-.4s.2-.4.4-.4H174c.2 0 .4.2.4.4s-.2.4-.4.4zm0 15.7h-31.6c-.2 0-.4-.2-.4-.4s.2-.4.4-.4H174c.2 0 .4.2.4.4s-.2.4-.4.4zm-5.7-7.8h-44.7c-.2 0-.4-.2-.4-.4s.2-.4.4-.4h44.7c.2 0 .4.2.4.4s-.2.4-.4.4z"/><path d="M148.9 175c-.2 0-.4-.2-.4-.4V168c0-.2.2-.4.4-.4s.4.2.4.4v6.7c0 .2-.2.3-.4.3zm11.1 7.9c-.2 0-.4-.2-.4-.4v-7.8c0-.2.2-.4.4-.4s.4.2.4.4v7.8c0 .2-.2.4-.4.4zm-8.5 7.5c-.2 0-.4-.2-.4-.4v-7.6c0-.2.2-.4.4-.4s.4.2.4.4v7.6c0 .3-.1.4-.4.4z"/></g><path d="M453.7 110.5v192.4c0 6.4-5.2 11.6-11.6 11.6H178.9c-6.4 0-11.6-5.2-11.6-11.6V110.5c0-6.4 5.2-11.6 11.6-11.6h263.2c6.4 0 11.6 5.2 11.6 11.6z" class="E"/><path d="M183 304.7c-3.3 0-5.9-2.6-5.9-5.9V114.6c0-3.3 2.7-5.9 5.9-5.9h255c3.3 0 5.9 2.6 5.9 5.9v184.2c0 3.3-2.6 5.9-5.9 5.9H183z" class="B"/><path d="M425.2 291H320.6c-2.9 0-5.3-2.4-5.3-5.3V224c0-2.9 2.4-5.3 5.3-5.3h104.5c2.9 0 5.3 2.4 5.3 5.3v61.8c0 2.9-2.3 5.2-5.2 5.2z" class="E"/><path fill="#ff7545" d="M360.2 257.3l13.7 1.3c-.9 5.6-3.8 10.5-7.9 14l-8.2-11.1c1.1-1.2 2-2.6 2.4-4.2z"/><path fill="#f2cb2a" d="m343.6 248.3-11.7-7.2c3.9-5.4 10.2-9.1 17.2-9.6v13.7c-2.2.5-4.1 1.5-5.5 3.1z"/><path d="M374.1 255.2l-13.7-1.3c-.4-4.4-3.7-7.9-8-8.6v-13.7c13 .9 22.4 12.3 21.7 23.6z" class="B"/><path d="m355.1 263.5 8.2 11.1c-15.4 9.7-35.8-1.2-35.8-19.7 0-3.9 1-7.6 2.7-10.8l11.7 7.1c-.5 1.1-.7 2.4-.7 3.7-.1 7.2 7.6 11.8 13.9 8.6z" class="C"/><path d="M384.8 233H422v11h-37.2zm-.5 17.1h37.8v2.3h-37.8zm0 6.1h37.8v2.3h-37.8zm0 6h37.8v2.3h-37.8zm0 6H404v2.3h-19.7zm24.7 0h4v2.3h-4z" class="B"/><path d="M322.9 205.4H192.6c-1.5 0-2.7-1.2-2.7-2.7v-79.2c0-1.5 1.2-2.7 2.7-2.7h130.3c1.5 0 2.7 1.2 2.7 2.7v79.2c0 1.5-1.2 2.7-2.7 2.7z" class="D"/><path d="M207.3 191.7h100.9v3.4H207.3z" class="C"/><path d="M213.8 165.3h14.1v26.4h-14.1z" class="B"/><path d="M213.8 165.3h14.1v6.9h-14.1z"/><path d="M232.2 158.5h14.1v33.2h-14.1z" class="B"/><path d="M232.2 158.5h14.1v8.6h-14.1z"/><path d="M250.7 149.8h14.1v41.8h-14.1z" class="B"/><path d="M250.7 149.8h14.1v10.1h-14.1z"/><path d="M269.1 165.3h14.1v26.4h-14.1z" class="B"/><path d="M269.1 165.3h14.1v7.8h-14.1z"/><path d="M287.6 154.5h14.1v37.1h-14.1z" class="B"/><path d="M287.6 154.5h14.1v15.2h-14.1z"/><path d="M219 158.8c-.3 0-.5-.1-.7-.3-.4-.4-.4-1 0-1.4l13.2-13.2c.4-.4 1-.4 1.4 0l6.4 5.7 17.8-17.2c.4-.4 1-.4 1.4 0l17.7 16.5 17.8-18.3c.4-.4 1-.4 1.4 0s.4 1 0 1.4l-18.5 19c-.4.4-1 .4-1.4 0l-17.8-16.5-17.7 17.1c-.4.4-1 .4-1.4 0l-6.3-5.7-12.5 12.6c-.3.2-.5.3-.8.3zm296.8 32.9s2.8-7.5 3.2-13.9c0 0-5.5 1.8-7.8-2.8-2-4 8.5-40.2 15.8-40.1 7.2.1 12.7 24.6 12.7 24.6l-6.4 19.7s-.5 8.8 3.7 13.1-11.6 3.9-11.6 3.9l-9.6-4.5z" class="B"/><g class="C"><path d="M526.7 196.7h-1.4l-10.1-4.7.2-.4c0-.1 2.6-7 3.1-13.1-1.6.3-5.7.7-7.6-3.2-1.7-3.5 4.6-26.4 10.7-36.1 2-3.2 3.8-4.8 5.5-4.8 7.5.1 13 23.9 13.2 24.9v.1l-6.4 19.8c0 .8-.3 8.8 3.6 12.7.8.8 1 1.6.7 2.3-1 2.3-8.3 2.5-11.5 2.5zm-1.1-1c4.5.1 11-.4 11.7-1.9.2-.4-.2-.8-.5-1.2-4.3-4.4-3.9-13.1-3.8-13.5v-.1l6.3-19.6c-1.5-6.8-6.7-24-12.2-24-1.3 0-2.9 1.5-4.7 4.3-6.1 9.7-12.1 32.3-10.6 35.1 2.1 4.1 6.9 2.6 7.2 2.5l.7-.2v.7c-.4 5.5-2.5 11.9-3.1 13.6l9 4.3z"/><path d="M518.9 151.9c.6 0 1.4-.8 1.9-1.9.4-1 .3-1.9-.3-1.9s-1.4.8-1.9 1.9c-.4 1-.3 1.9.3 1.9zm-4.2 13.6c-1 0-2.1-.6-2.5-1.6l.9-.4c.3.6 1.1 1.1 1.8 1l.1 1h-.3zm-32.5 257.4c-.4-11.1.6-143.7.6-143.7l32.4 8.8-14.8 134.9h-18.2z"/><path d="m535.1 423.6-18.2-.6c-6.9-19.1-29.1-142.6-29.1-142.6s49.1-4.6 49.8 1.1c.8 6.6-4.7 48.1-4.8 84.2-.2 31.4 2.4 51.4 2.3 57.9z"/></g><path fill="#efc102" d="M501.9 196.5c4.9-4.7 32.7-10.4 48.6 1.8 14.8 11.4-8.6 87.1-8.6 87.1-.1 6.2-62.6 4.9-62.5-1.3 0 0 6.2-71.9 22.5-87.6z"/><path d="M428.8 230.8s33.4 29.8 43.7 28.7c12.9-1.3 29.4-24.7 30-24.8l-19.2-15.5-15 17.1-34-16.1s-.8-9.6-2.6-8.7-2.9 5.2-2.9 5.2-13.2-16.1-15.3-12.1c-2.1 4.1 7.7 12.7 7.7 12.7s-6 8.9-1.1 12.3c4.8 3.3 8.7 1.2 8.7 1.2z" class="B"/><path d="M472 260.1c-10.6 0-40-25.8-43.2-28.7-1.1.4-4.6 1.5-9-1.5-4.7-3.2-.4-10.8.8-12.6-1.9-1.7-9.6-9-7.5-13 .3-.5.7-.9 1.3-.9 3.5-.4 11.7 9.2 14.2 12.2.4-1.4 1.4-3.9 2.9-4.6.3-.2.7-.1 1 0 1.5.9 2.1 6.6 2.3 8.8l33.4 15.8 14.7-16.8c.2-.2.5-.2.7-.1l19.2 15.6c.1.1.2.3.2.5 0 .1-.1.3-.2.3-.2.2-.7.9-1.4 1.7-4.4 5.5-17.9 22.1-28.8 23.2-.2.1-.4.1-.6.1zm-43.2-29.8c.1 0 .2 0 .3.1.3.3 33.3 29.6 43.3 28.6 10.5-1.1 23.8-17.5 28.1-22.8.6-.7.9-1.2 1.2-1.5l-18.4-14.9-14.7 16.7c-.1.2-.4.2-.6.1l-34-16.1c-.2-.1-.3-.2-.3-.4-.3-4.3-1.2-8.1-1.9-8.3-1.3.6-2.3 3.7-2.6 4.8 0 .2-.2.3-.4.4-.2 0-.4 0-.5-.2-4.2-5.2-11.4-12.8-13.9-12.5-.3 0-.4.1-.6.4-1.6 3.1 4.9 9.7 7.6 12.1.2.2.2.4.1.7-.1.1-5.7 8.5-1.3 11.6 4.6 3.1 8.1 1.4 8.3 1.3.1-.1.2-.1.3-.1z" class="C"/><path fill="#efc102" d="M503 195.8c-6.4 3.3-18 13.5-28.6 28.4-1.5 2.6 22.9 18 25 16.6l20.2-15.7"/><path d="M537.4 180.6s-12-4.2-10.3-13.8c1.8-9.6 6.8-14.1 5.1-16.5-1.8-2.3-4.2-.9-5.2 1.6-1 2.6-1.5 6.9-1.5 6.9h-3.3s1.1-12.4 4.1-13.7c0 0-11.5-12.2-3.2-18.3 5.8-4.3 8.4 1.2 8.4 1.2s6.7-10.3 13-5.5.5 16.8.5 16.8 7.8.2 9 7.4-13.3 14.9-14.1 20.8c-1.2 8.1-2.5 13.1-2.5 13.1z" class="C"/><path d="M516.9 426v-3H535l.8 17h-29.6c-.9-9.8 10.7-14 10.7-14z" class="D"/><path d="M506.7 435.7c-.4 1.3-.6 2.7-.4 4.2h29.6c-.1 0-.2-1.8-.3-4.2h-28.9z" class="C"/><path d="M482.2 426v-3h18.2l.8 17h-29.6c-1-9.8 10.6-14 10.6-14z" class="D"/><path d="M472 435.7c-.4 1.3-.6 2.7-.4 4.2h29.6c-.1 0-.2-1.8-.3-4.2H472zm26.5-194c-.3 0-.5-.1-.7-.2-8.3-4.6-17-9.4-23.9-16.3l.7-.7c6.8 6.8 15.4 11.5 23.6 16.1 0 0 .1.1.2.1l.2-.2c4.1-5.5 8.1-11.2 11.7-17.1l.8.5c-3.7 5.9-7.6 11.6-11.8 17.1-.1.2-.4.5-.9.6.2.1.2.1.1.1z" class="C"/><path d="M143.9 425.3V422H124l-.9 18.6h32.4c1.1-10.7-11.6-15.3-11.6-15.3z" class="D"/><path d="M155 435.9c.4 1.4.6 2.9.4 4.6H123c.1 0 .2-1.9.3-4.6H155z" class="C"/><path d="M71.9 425.3V422H52l-.9 18.6h32.4c1-10.7-11.6-15.3-11.6-15.3z" class="D"/><path d="M83 435.9c.4 1.4.6 2.9.4 4.6H51c.1 0 .2-1.9.3-4.6H83zM51 425.4c0 1.6 23.3 1.6 23.3 0l28.9-95.2 19.5 94c0 1.6 23.3 1.6 23.3 0l-9.5-138H71.9L51 425.4z" class="C"/><path d="M132 229l-5.9 35.6 14.8 40s.1 17.3 9.8 16.4c8.8-.8 3.4-13.2 3.4-13.2s2.2 3.4 3.4.5-7.1-6.7-7.1-6.7l-4.8-45.4-.6-18.2-13-9z" class="B"/><path d="M150 321.6c-7.1 0-9.5-9.8-9.6-16.9l-14.8-40 6.1-36.5 13.8 9.6.6 18.5 4.8 45c1.6.8 8.4 4.2 7.1 7.2-.4.9-.9 1.4-1.6 1.5-.4 0-.7-.1-1.1-.3 1.8 5.7 1.3 11.3-4.6 11.8-.2.1-.5.1-.7.1zm-23.4-57l14.8 39.9v.1c.1 6.9 2.3 16.5 9.2 15.9 6-.5 5.2-7.3 3-12.5l.9-.5c.3.5 1.2 1.5 1.8 1.4.3 0 .6-.5.7-.9.7-1.8-3.8-4.7-6.9-6.1l-.3-.1-4.8-45.6-.6-18-12.1-8.4-5.7 34.8z" class="C"/><g fill="#b580d8"><path d="M123 195s15.4 4.7 20.1 19.2c1.3 4 5.9 27.4 5.9 27.4l-29.3 1.5L123 195z"/><path d="M69.2 197.3c4.4-7.4 53.8-8.7 62.3 3 8.7 12.1 6.9 92.4 6.9 92.4.6 8.2-71.6 8.5-72.2.4 0-.1-1.5-88.2 3-95.8z"/></g><path d="M96.3 294.7h17.2c.5 0 .9-.3 1.1-.7l12.7-26c.4-.8-.2-1.8-1.1-1.8H109c-.5 0-.9.3-1.1.7l-12.7 26c-.5.8.1 1.8 1.1 1.8z" class="B"/><path d="M113.5 295.2H96.3c-1.3 0-2.2-1.4-1.6-2.5l12.7-26c.3-.6.9-1 1.6-1h17.2c.6 0 1.2.3 1.5.8.3.5.4 1.2.1 1.7l-12.7 26c-.3.6-.9 1-1.6 1zm-4.6-28.5c-.3 0-.6.2-.7.4l-12.7 26c-.2.5.1 1.1.7 1.1h17.2c.3 0 .6-.2.7-.4l12.7-26c.1-.2.1-.5 0-.7-.1-.2-.4-.4-.6-.4h-17.3z" class="C"/><path d="M44.3 249.5c.6 9.8 47 31.5 47 31.5s10.7 15.6 19.5 8c8.9-7.6-8.1-11.7-8.1-11.7l2.3-4.7c-.1-2.8-7.1 1-7.1 1l-29.5-26.1 6.9-11.9-23.1-10.5s-8.3 18.3-7.9 24.4z" class="B"/><path d="M104.3 291.5c-6.7-.9-12.6-9-13.4-10.1-3.2-1.5-46.6-22.1-47.2-31.9-.4-6.1 7.6-23.9 8-24.6l.3-.3h.4l23.1 10.5.3.3c.1.1 0 .3 0 .4L69 247.4 98 273c1.3-.7 5.3-2.6 6.8-1.7.6.4.8 1.2.7 1.5l-2 4.2c8.2 2.3 14.2 6.9 7.7 12.4-1.8 1.5-4.3 2.5-6.9 2.1zm-59.5-42c.6 9.5 46.7 30.9 46.9 31.3.1.1 6.2 8.9 12.8 9.8 2.2.3 4.2-.3 6-1.9 1.9-1.6 2.7-3.1 2.3-4.5-1-4-10.1-6.3-10.2-6.3-.3-.1-.5-.4-.3-.7l2.3-4.6c-.2-1.4-5.1.8-6.4 1.5-.2.1-.4.1-.6-.1L68 247.9c-.2-.2-.2-.4-.1-.6l6.6-11.4-22.1-10.1c-1.2 2.8-8 18.3-7.6 23.7z" class="C"/><path fill="#b580d8" d="M72.1 195.2c-.6.4-6.7 2.8-11.7 10.3-3.6 5.4-10.8 20.7-10.8 20.7-2.1 2.6 20.6 19.9 23.2 16.5 0 0 10.3-15.9 10.7-24.5.5-10.9-11.4-23-11.4-23z"/><path d="M71.7 243.6h-.2c-4.7-.3-18.8-10.2-21.9-15.3-.1-.2-.1-.5.2-.7.2-.1.5-.1.7.2 2.9 4.8 16.7 14.5 21.1 14.8.4 0 .6 0 .8-.2.1-.1 10.2-15.9 10.6-24.2a.47.47 0 1 1 1 0c-.4 8.6-10.3 24.1-10.7 24.7-.5.5-1 .7-1.6.7z" class="C"/><path d="M108.7 183.9l4.8 8.3c1.9 3-1.7 8.6-5 10.3-5.3 2.8-15.8-9.8-15.8-9.8l-.4-27.8 16.4 19z" class="B"/><path d="M107 203.4c-5.9 0-14.6-10.9-15-11.4l-.1-.1v-28.3l17.3 20.1s2.3 4.4 4.8 8.3c2.1 3.3-1.7 9.2-5.2 11-.6.3-1.2.4-1.8.4zm-14.1-11.9c3 3.8 11.4 12.7 15.5 10.6 3-1.6 6.5-6.9 4.8-9.6-2.4-3.7-4.5-7.8-4.8-8.3L93 166.3v25.2z" class="C"/><path d="M93 161.3c.3.4 2.8 26.2 18.4 24.5 15.6-1.8 11.5-33.9 4.6-41-7-7.1-21.1-.7-21.1-.7l-4.7 11.2 2.8 6z" class="B"/><g class="C"><path d="M109.9 186.4c-8.5 0-14.6-8.5-17.2-24.1-.1-.4-.1-.6-.1-.8l-3-6.3 4.8-11.6.2-.1c.6-.3 14.6-6.5 21.7.8 5.2 5.3 8.5 22.8 4.7 33.3-1.8 5.1-5.1 8.1-9.6 8.5-.5.2-1 .3-1.5.3zM93.5 161c.1.1.1.3.2 1 2.7 16.2 8.8 24.2 17.6 23.2 4.1-.5 7-3.1 8.7-7.9 3.6-10.1.4-27.3-4.5-32.3-6.2-6.4-18.8-1.4-20.4-.7l-4.5 10.8 2.9 5.9z"/><ellipse cx="106" cy="161.5" rx="1.1" ry="1.5" transform="matrix(.9993 -.038459 .038459 .9993 -6.132806 4.195135)"/><ellipse cx="116.3" cy="161.4" rx="1.1" ry="1.5" transform="matrix(.9993 -.038459 .038459 .9993 -6.121885 4.590876)"/><path d="M111.2 171.3l-.6-.8c.4-.3.9-.4 1.5-.4.3 0 .5-.2.6-.3 0-.2-.2-.4-.4-.6-1.6-1.7-2.3-4.1-1.8-6.4l1 .2c-.4 1.9.1 4 1.5 5.4.3.4.8.9.7 1.6-.1.6-.6 1-1.4 1.1-.7 0-.9.1-1.1.2zm-1.8 8c-.5 0-1-.1-1.4-.3-.9-.4-1.5-1.1-1.9-1.9l.9-.4c.2.6.7 1.1 1.4 1.4a2.12 2.12 0 0 0 1.9 0l.4.9c-.4.2-.8.3-1.3.3zm15.5-30.3c-.6.4-1.3.7-2.1 1-6.1 2-22.7-1.8-23.2.6-.5 2.3-1.5 16.2-2.6 14.5-2-3.2-2.8-8.6-2.9.7.1 3.4-1 8.7-1 8.7-8.9-.2-17.4-21.1-8.7-22.5 0 0-2.6-4.1-1-7.8s13.4-24.2 35.8-8.4c.4-.6 4.4-5.3 6.1-1.9 1.6 3 4.2 12.3-.4 15.1zm13.3 93.9a.47.47 0 0 1-.5-.5v-9.2a.47.47 0 1 1 1 0v9.2a.47.47 0 0 1-.5.5z"/></g><circle cx="204.9" cy="235.1" r="15.9" class="E"/><use href="#B" class="B"/><g class="E"><path d="M250.8 229.1h-21c-.8 0-1.5-.7-1.5-1.5v-5.1c0-.8.7-1.5 1.5-1.5h21c.8 0 1.5.7 1.5 1.5v5.1c0 .8-.6 1.5-1.5 1.5zM228.4 233.8h72.7v3.3h-72.7zM228.4 241.3h31.1v3.3h-31.1zM267.9 241.3h10.5v3.3h-10.5z"/><circle cx="204.9" cy="273.9" r="15.9"/></g><use href="#B" y="38.8" class="B"/><path d="M250.8 267.9h-21c-.8 0-1.5-.7-1.5-1.5v-5.1c0-.8.7-1.5 1.5-1.5h21c.8 0 1.5.7 1.5 1.5v5.1c0 .9-.6 1.5-1.5 1.5zM228.4 272.6h72.7v3.3h-72.7zM228.4 280.1h31.1v3.3h-31.1zM267.9 280.1h10.5v3.3h-10.5z" class="E"/><path d="M453.7 135.3v63.6H342.1c-2.5 0-4.4-1.9-4.4-4.4v-54.9c0-2.5 1.9-4.4 4.4-4.4h111.6z" opacity=".05" class="C"/><path fill="#ff7545" d="M488 134v54.9c0 2.5-2 4.4-4.4 4.4h-138c-2.4 0-4.4-1.9-4.4-4.4V134c0-2.4 1.9-4.4 4.4-4.4h138c2.4 0 4.4 1.9 4.4 4.4z"/><g class="B"><path d="M359.5 154.7h2v29h-2zm17.2-1h2v29.9h-2zm17.1 11.4h2v18.6h-2zm17.1-6.8h2v25.4h-2zm17.1-15h2v40.3h-2zm17.2 17.2h2v23.2h-2zm17.1-20.5h2v43.7h-2z"/><path d="M472.1 182.8l-120.5.8s5.8-21.5 21.5-23.6 12.7 14.3 27.2 12.7c16-1.7 14.7-22.2 24.2-24.4 7.4-1.8 13.9 17.8 20.2 18s8-7.9 11.7-16.8c5.1-12.3 15.7-12.3 15.7-12.3v45.6z" opacity=".6"/></g><g class="D"><path d="M365.2 412.4c-.2-2.8.5-5.7 1.8-8.1.5-1 1.5-2.8 2.6-3.3 1-.5 3.4 1.3 4.4 1.7 0-1.9 0-3.6.5-5.4 2.7-1.6 4.8-3.4 6.6-6a41.81 41.81 0 0 1 4.1 10.3c.5 1.9.8 3.9.4 5.7s-1.5 3.3-2.8 4.6-2.9 2.2-4.4 3.2c-2.7 1.7-6.7-.4-9.6-1.9-1.4-.7-2.2-.8-3.6-.8zm47.4-71.3c2 7.3-1.3 16.6-6.6 22.8-10.5 12.4-27.9 16.6-37.1 30.5-4.4 6.6-7 14.5-7.2 22.6-.6-8.1 1.6-16.4 5.9-23.3 11-18.1 35.7-20.4 43.4-40.7 1.5-3.8 2.3-7.8 1.6-11.9z"/><path d="M412.6 341.1s7.9 16.8-1.7 29.4l-3-.9v3s-5.8 3.2-14.4 1.7v-1l4-2.6 3.7-2.5 4.5-5.3 3.3-4.5 2.3-3.6 1.8-7.9-.5-5.8zm6.7 58.9s-4.4 3-11.9 1.8c-7.5-1.3-22.8-17-35.1-12.4l4.5-4.4s18.1-10 30.6-5.8c12.4 4.1 11.9 20.8 11.9 20.8z"/></g><path d="M419.3 400s-4.4 3-11.9 1.8c-7.5-1.3-22.8-17-35.1-12.4.5-.3 8.7-5.6 12.9-5.5 7.1.2 11.2 3.7 19.4 10.6 8.2 6.8 14.7 5.5 14.7 5.5z" opacity=".1"/><g class="D"><path d="M367.5 374.8s24.7 1.1 31.3-20.9l-8.8-2 9.3-5.3s.8-14.9 4.6-19.9c0 .1-52.3 6.3-36.4 48.1zM358.1 411c.4-4.1.3-8.2-.3-12.2-2-13.3-8.8-23.1-21.6-26.8l3 .8c.5.1 1 .3 1.5.5l1.4.6c1 .4 1.8.9 2.7 1.5.1.1 6.1 3.1 10.2 11.5 1.8 3.7 2.9 7.8 3.4 11.9.4 4 .4 8.1-.3 12.2z"/><path d="M349.8 379.8c-22.5 6-23-16.4-23-16.4 4.8 4.6 12.2 2.6 18.1 6 5.8 3.3 4.9 10.4 4.9 10.4zm9.8 30.8l-.7-10.9c-1-11.2-2.6-21.3-6.5-31.9 4.4 9.9 6.4 21.1 7 31.8.1 1.8.2 3.6.2 5.5v5.5z"/><path d="M353.5 371.1c-3.3-7.8-23.8-17.6-28.7-22.7s-3.5-13.3-3.5-13.3c4.6 4.5 15.3 5 27.8 13.3 12.3 8.4 4.4 22.7 4.4 22.7zm1.6 34.4s.5-17.7-9.2-20c-9.7-2.2-13.9 0-13.9 0l.4 2.8-3.5-2.6s-7.2 2-10 1.5c0 0 1.6 5.2 10.2 7.2s20.2 2.5 26 11.1z"/><path d="M354.5 403.4c.6 1.3.9 2.8 1.1 4.3.1 1.5 0 3-.4 4.4l-.1-2.2-.1-2.2-.2-2.2c-.2-.6-.3-1.3-.3-2.1z"/></g><path d="M353.5 371.1c-3.3-7.8-23.8-17.6-28.7-22.7s-3.5-13.3-3.5-13.3-.2 8.6 7 10.6 23 11.6 25.2 25.4z" opacity=".1"/><path d="M362.4 410.6c-.5-7.3.1-14.6 1.3-21.8 1.8-10.7 5.3-21.6 10.9-30.9 5.7-9.8 12.9-17.5 22.5-23.6-2.9 2.2-5.8 4.4-8.4 6.9-.7.6-1.3 1.2-1.9 1.9-.2.2-6.1 5.8-11.4 15.2-4.5 7.7-8.5 18.1-10.9 30.6-.7 3.6-1.2 7.2-1.5 10.8-.4 3.6-.6 7.2-.6 10.9z" class="D"/><path d="M374.4 439.9h-20.3c-1.2 0-2.2-.8-2.4-2l-5.3-24h35.7l-5.3 24c-.2 1.2-1.2 2-2.4 2z" class="B"/><path d="m377.2 436.5-.3 1.5c-.3 1.1-1.3 2-2.4 2h-20.3c-1.2 0-2.2-.8-2.4-2l-5.3-24h3.4l1.3 6c2.1 9.6 10.6 16.5 20.5 16.5h5.5z" class="F"/><path d="M374.4 440.4h-20.3c-1.4 0-2.6-1-2.9-2.3l-5.4-24.6h36.9l-5.4 24.6c-.3 1.4-1.5 2.3-2.9 2.3zm-27.3-25.9 5.1 23.4c.2.9 1 1.6 1.9 1.6h20.3c.9 0 1.7-.7 1.9-1.6l5.1-23.4h-34.3z" class="C"/><path d="M384.6 415.3h-40.7c-.5 0-1-.4-1.1-.9l-1.2-6c-.1-.7.4-1.4 1.1-1.4h43.1c.7 0 1.3.7 1.1 1.4l-1.2 6c-.1.5-.5.9-1.1.9z" class="B"/><path d="M384.6 415.8h-40.7c-.8 0-1.5-.6-1.6-1.3l-1.2-6c-.2-1 .6-2 1.6-2h43.1c1 0 1.8 1 1.6 2l-1.2 6c-.1.7-.8 1.3-1.6 1.3zm-41.9-8.3c-.4 0-.7.4-.6.8l1.2 6c.1.3.3.5.6.5h40.7c.3 0 .6-.2.6-.5l1.2-6c.1-.4-.2-.8-.6-.8h-43.1z" class="C"/><g class="F"><path d="M270.1 364.2h-31.6c-.2 0-.4-.2-.4-.4s.2-.4.4-.4h31.6c.2 0 .4.2.4.4s-.2.4-.4.4zm0 15.7h-31.6c-.2 0-.4-.2-.4-.4s.2-.4.4-.4h31.6c.2 0 .4.2.4.4s-.2.4-.4.4zm-5.8-7.9h-44.7c-.2 0-.4-.2-.4-.4s.2-.4.4-.4h44.7c.2 0 .4.2.4.4s-.2.4-.4.4z"/><path d="M245 364.2c-.2 0-.4-.2-.4-.4v-6.7c0-.2.2-.4.4-.4s.4.2.4.4v6.7c-.1.2-.2.4-.4.4zm11.1 7.8c-.2 0-.4-.2-.4-.4v-7.8c0-.2.2-.4.4-.4s.4.2.4.4v7.8c0 .2-.2.4-.4.4zm-8.5 7.6c-.2 0-.4-.2-.4-.4v-7.6c0-.2.2-.4.4-.4s.4.2.4.4v7.6c0 .2-.2.4-.4.4zm55.7-302.1h-31.6c-.2 0-.4-.2-.4-.4s.2-.4.4-.4h31.6c.2 0 .4.2.4.4s-.2.4-.4.4zm0 15.7h-31.6c-.2 0-.4-.2-.4-.4s.2-.4.4-.4h31.6c.2 0 .4.2.4.4s-.2.4-.4.4zm-5.7-7.8h-44.7c-.2 0-.4-.2-.4-.4s.2-.4.4-.4h44.7c.2 0 .4.2.4.4s-.2.4-.4.4z"/><path d="M278.2 77.5c-.2 0-.4-.2-.4-.4v-6.7c0-.2.2-.4.4-.4s.4.2.4.4v6.7c0 .2-.2.4-.4.4zm11.1 7.9c-.2 0-.4-.2-.4-.4v-7.8c0-.2.2-.4.4-.4s.4.2.4.4V85c0 .2-.2.4-.4.4zm-8.4 7.5c-.2 0-.4-.2-.4-.4V85c0-.2.2-.4.4-.4s.4.2.4.4v7.6c0 .2-.2.3-.4.3zm240.4 9.1h-31.6c-.2 0-.4-.2-.4-.4s.2-.4.4-.4h31.6c.2 0 .4.2.4.4s-.2.4-.4.4zm0 15.7h-31.6c-.2 0-.4-.2-.4-.4s.2-.4.4-.4h31.6c.2 0 .4.2.4.4s-.2.4-.4.4zm-5.7-7.8h-44.7c-.2 0-.4-.2-.4-.4s.2-.4.4-.4h44.7c.2 0 .4.2.4.4s-.2.4-.4.4z"/><path d="M496.2 102c-.2 0-.4-.2-.4-.4V95c0-.2.2-.4.4-.4s.4.2.4.4v6.7c0 .2-.2.3-.4.3zm11.1 7.9c-.2 0-.4-.2-.4-.4v-7.8c0-.2.2-.4.4-.4s.4.2.4.4v7.8c0 .2-.2.4-.4.4zm-8.4 7.5c-.2 0-.4-.2-.4-.4v-7.6c0-.2.2-.4.4-.4s.4.2.4.4v7.6c-.1.3-.2.4-.4.4z"/></g><defs ><path id="B" d="M201.1 241.7l-3-3.1c-.6-.6-.6-1.5 0-2.1s1.5-.6 2.1 0l1.9 2 9.4-9.4c.6-.6 1.5-.6 2.1 0s.6 1.5 0 2.1l-10.5 10.5c-.5.6-1.4.6-2 0z"/></defs></svg>