<svg xmlns="http://www.w3.org/2000/svg" enable-background="new 0 0 300 300" viewBox="0 0 300 300"><path fill="#71c687" d="M275.966 213.594a9.875 9.875 0 0 1-3.36 3.891c-1.975 1.336-4.484 1.978-5.992 3.866a4.54 4.54 0 0 0-.844 1.645h-1.594a22.134 22.134 0 0 1 3.142-8.26c.744-1.163 1.604-2.267 2.673-3.143 1.07-.875 2.359-1.515 3.734-1.668.818-.092 1.744.036 2.282.67.681.807.417 2.044-.041 2.999z"/><path fill="#71c687" d="M275.895 205.422c-2.912 3.4-7.616 4.928-10.26 8.583-1.856 2.57-2.379 5.783-2.602 8.99h-2.459a38.244 38.244 0 0 1-.82-10.84c.271-3.94 1.2-7.934 3.452-11.177 2.139-3.073 5.62-5.373 9.34-5.487 1.283-.038 2.645.157 3.678.916.905.667 1.475 1.73 1.68 2.838.412 2.2-.552 4.476-2.009 6.177z"/><path fill="#d1dcf8" d="M268.596 228.791a5.737 5.737 0 0 1-2.77 4.894.854.854 0 0 1-.44.117h-5.047a.857.857 0 0 1-.446-.12 5.732 5.732 0 0 1-2.697-5.778l.309-1.518.584-3.358h9.638l.763 4.665c.07.37.106.737.106 1.098z"/><path fill="#bbcaea" d="M268.596 228.791a5.737 5.737 0 0 1-2.77 4.894.854.854 0 0 1-.44.117h-5.047a.857.857 0 0 1-.446-.12 5.68 5.68 0 0 1-1.422-1.222 10.779 10.779 0 0 0 3.196-1.034c3.181-1.624 5.463-4.87 5.96-8.398h.1l.763 4.665c.07.37.106.737.106 1.098z"/><path fill="#61ba76" d="M264.412 221.804a20.87 20.87 0 0 0-.24 1.224h1.595a4.44 4.44 0 0 1 .54-1.224h-1.895zM260.328 221.804c.076.41.159.817.248 1.224h2.456c.028-.408.062-.817.103-1.224h-2.807z"/><path fill="#61ba76" d="M273.022 199.683c-.306.19-.755.494-1.332.932-1.145.878-2.82 2.309-4.603 4.625-1.5 1.972-2.679 4.171-3.604 6.462a37.001 37.001 0 0 0-1.984 7.124 43.44 43.44 0 0 0-.522 4.19h.318c.15-1.38.311-2.622.593-4.12a36.608 36.608 0 0 1 1.962-7.048c.914-2.261 2.076-4.428 3.552-6.37a27.71 27.71 0 0 1 4.435-4.68c1.102-.919 1.694-1.327 1.664-1.37-.012-.019-.171.066-.479.255z"/><path fill="#61ba76" d="M273.349 203.984c.017.097-.703.239-2.08.726a14.129 14.129 0 0 0-3.322 1.622c-1.23.784-1.785 1.265-1.852 1.19-.05-.051.409-.65 1.634-1.52a14.524 14.524 0 0 1 3.415-1.666c1.44-.432 2.195-.425 2.205-.352zM269.41 199.12c.074.073-.34.47-.865 1.444a5.996 5.996 0 0 0-.768 2.676c-.073 1.103.067 1.659-.036 1.682-.061.023-.36-.514-.359-1.7a6.39 6.39 0 0 1 .819-2.852c.629-1.007 1.168-1.304 1.209-1.25zM264.129 205.048c.088.053-.234.575-.576 1.722a7.423 7.423 0 0 0-.315 3.001c.096 1.192.303 1.77.204 1.804-.06.028-.42-.512-.597-1.765a7.819 7.819 0 0 1 .331-3.16c.434-1.19.898-1.643.953-1.602zM267.435 208.603c.047.07-.192.324-.742.74l-1.449.984c-.589.357-.913.486-.962.414-.048-.071.192-.324.74-.741l1.449-.984c.59-.356.914-.487.964-.413zM265.266 223.015c.148-.575.416-1.588 1.01-2.988a15.147 15.147 0 0 1 3.58-5.162c1.81-1.718 2.964-2.257 2.899-2.363-.02-.037-.312.08-.871.379-.546.318-1.356.832-2.299 1.697a15.542 15.542 0 0 0-3.673 5.296 13.05 13.05 0 0 0-.784 2.745c-.02.152-.035.282-.047.396h.185z"/><path fill="#61ba76" d="M272.361 214.579c.049.056-.147.358-.753.695a4.761 4.761 0 0 1-1.68.454c-.694.014-1.015-.148-1-.224.013-.094.34-.088.967-.17a4.368 4.368 0 0 0 1.542-.416c.583-.245.864-.415.924-.34z"/><path fill="#2e363a" d="M275.895 205.422c-2.912 3.4-7.616 4.928-10.26 8.583-1.856 2.57-2.379 5.783-2.602 8.99h-2.459a39.623 39.623 0 0 1-.464-2.481c.74-3.14 2.22-6.104 4.315-8.557 1.504-1.762 3.299-3.254 4.92-4.908 1.622-1.656 3.105-3.54 3.778-5.754.584-1.915.467-4.127-.576-5.804 1.282-.038 2.644.157 3.677.916.905.667 1.475 1.73 1.68 2.838.412 2.2-.552 4.476-2.009 6.177z" opacity=".11"/><path fill="#2e363a" d="M275.966 213.594a9.875 9.875 0 0 1-3.36 3.891c-1.975 1.336-4.484 1.978-5.992 3.866a4.54 4.54 0 0 0-.844 1.645h-.572a12.882 12.882 0 0 1 3.157-5.68c1.202-1.255 2.647-2.254 3.869-3.49 1.072-1.084 1.991-2.43 2.22-3.919.603.041 1.181.238 1.563.688.681.807.417 2.044-.041 2.999z" opacity=".11"/><path fill="#e4ecf9" d="M252.967 158.384H105.488a7.964 7.964 0 0 1-7.964-7.965V62.066a7.964 7.964 0 0 1 7.964-7.964h147.48a7.964 7.964 0 0 1 7.963 7.964v88.353a7.964 7.964 0 0 1-7.964 7.965z"/><path fill="#f3f6fd" d="M141.135 95.133H89.759a4.075 4.075 0 0 1-4.074-4.075V64.183a4.075 4.075 0 0 1 4.074-4.075h51.376a4.075 4.075 0 0 1 4.075 4.075v26.875a4.075 4.075 0 0 1-4.075 4.075z"/><path fill="#2a2e33" d="M96.961 85.506h4.161v.412h-4.161z"/><path fill="#ffc536" d="M104.336 79.916c-1.345 1.117-2.148 2.756-2.148 4.505 0 .3-.12.57-.317.767a1.079 1.079 0 0 1-.767.318H96.98a1.085 1.085 0 0 1-1.084-1.085 5.817 5.817 0 0 0-.544-2.467 5.641 5.641 0 0 0-1.546-1.991 8.291 8.291 0 0 1 5.355-14.716 8.212 8.212 0 0 1 2.783.526c3.095 1.166 5.327 4.139 5.387 7.616a8.273 8.273 0 0 1-2.995 6.527z"/><path fill="#2a2e33" d="M97.057 87.667a2.034 2.034 0 0 0 3.849 0h-3.849z"/><path fill="#ffb612" d="M104.336 79.916c-1.345 1.117-2.148 2.756-2.148 4.505 0 .3-.12.57-.317.767a1.079 1.079 0 0 1-.767.318H96.98a1.085 1.085 0 0 1-1.084-1.085c0-.149-.006-.298-.018-.445 1.102.342 2.256.519 3.254.008.808-.412 1.344-1.199 1.846-1.954 1.111-1.677 2.225-3.356 3.186-5.122.884-1.626 1.655-3.416 1.509-5.261-.128-1.6-.947-3.083-2.018-4.279a14.179 14.179 0 0 0-1.711-1.595c3.095 1.166 5.327 4.139 5.387 7.616a8.273 8.273 0 0 1-2.995 6.527z"/><path fill="#fff" d="M98.032 82.028c.013.59.027 2.239.18 3.478h.22c-.154-1.246-.168-2.894-.18-3.483a12.89 12.89 0 0 0-.078-1.328 9.311 9.311 0 0 1-.052-.626c-.033-.701-.116-1.598-.404-2.47a3.08 3.08 0 0 0 1.383-.823 1.647 1.647 0 0 0 .758.411c-.056.431-.07.866-.085 1.29l-.205 7.029h.219l.205-7.02c.014-.415.028-.84.08-1.256.21.029.43.026.649-.011.48-.083.955-.32 1.41-.703.167-.14.403-.359.54-.647.138-.294.145-.62.016-.87-.167-.325-.568-.519-.975-.472-.413.047-.741.305-.944.512-.394.405-.67.955-.822 1.636-.022.098-.04.196-.056.295a1.492 1.492 0 0 1-.643-.357c.322-.385.548-.846.652-1.341.112-.527.04-.971-.207-1.284a.903.903 0 0 0-.595-.342.734.734 0 0 0-.572.167c-.194.164-.32.433-.335.72-.018.323.08.625.198.958.148.412.304.808.563 1.123-.087.092-.18.177-.278.256-.3.24-.655.417-1.03.52a4.801 4.801 0 0 0-.738-1.332c-.348-.436-.697-.606-1.068-.52a.83.83 0 0 0-.53.403c-.3.532-.019 1.139.4 1.44.29.21.684.325 1.137.332a3.07 3.07 0 0 0 .66-.062c.284.853.366 1.738.399 2.428.009.202.026.412.053.64.059.513.067.882.075 1.309zm2.129-5.306c.142-.64.4-1.155.765-1.53.177-.182.462-.408.812-.448.313-.036.632.113.756.355.097.19.09.443-.02.677-.118.249-.332.446-.482.573-.426.358-.866.578-1.307.654a1.878 1.878 0 0 1-.58.01c.016-.097.034-.194.056-.29zm-1.566-1.305c-.11-.31-.201-.59-.186-.871a.812.812 0 0 1 .258-.565.504.504 0 0 1 .405-.118c.17.02.334.115.449.26.26.33.233.782.165 1.104-.093.442-.3.867-.587 1.22-.225-.285-.368-.65-.504-1.03zm-1.747 2.077c-.407-.006-.758-.106-1.013-.29-.34-.246-.574-.734-.336-1.155a.611.611 0 0 1 .522-.314c.236 0 .466.15.714.46.305.38.53.806.695 1.246a2.792 2.792 0 0 1-.582.053z"/><path fill="#393e46" d="M101.605 86.3a.463.463 0 0 1-.464.462h-4.443a.462.462 0 0 1 0-.925h4.443c.255 0 .464.206.464.464zM101.605 87.53a.463.463 0 0 1-.464.462h-4.443a.462.462 0 0 1 0-.925h4.443c.255 0 .464.206.464.464z"/><path fill="#2a2e33" d="M96.849 86.762h4.09v.304h-4.09z"/><path fill="#d1dcf8" d="M139.072 68.67H113.34a1.215 1.215 0 1 1 0-2.43h25.732a1.215 1.215 0 0 1 0 2.43zM139.072 74.856H113.34a1.215 1.215 0 0 1 0-2.43h25.732a1.215 1.215 0 0 1 0 2.43zM124.442 78.61H113.34a1.215 1.215 0 1 0 0 2.43h11.102a1.215 1.215 0 0 0 0-2.43z"/><path fill="#fe4c40" d="M137.681 91.849h-5.887a2.988 2.988 0 0 1-2.988-2.988v-5.887a2.988 2.988 0 0 1 2.988-2.988h5.887a2.988 2.988 0 0 1 2.989 2.988v5.887a2.988 2.988 0 0 1-2.989 2.988z"/><path fill="#fff" d="M134.455 87.496a.399.399 0 0 1-.14-.305c0-.332.06-.624.178-.876a2.34 2.34 0 0 1 .416-.626 6.92 6.92 0 0 1 .637-.571c.282-.222.489-.414.621-.577s.2-.347.2-.554c0-.806-.529-1.209-1.585-1.209a3.09 3.09 0 0 0-.76.094 2.364 2.364 0 0 0-.66.272.492.492 0 0 1-.278.089.427.427 0 0 1-.31-.133.43.43 0 0 1-.133-.31c0-.17.093-.311.277-.422.303-.192.61-.33.921-.41.31-.082.654-.122 1.03-.122.756 0 1.359.188 1.814.565s.682.887.682 1.53c0 .289-.052.542-.156.76a2.022 2.022 0 0 1-.376.554 6.142 6.142 0 0 1-.588.516 4.322 4.322 0 0 0-.715.682c-.16.203-.238.453-.238.748 0 .119-.048.22-.145.305a.5.5 0 0 1-.344.128.493.493 0 0 1-.348-.128zm-.134 2.04a.641.641 0 0 1-.194-.47.63.63 0 0 1 .194-.46.631.631 0 0 1 .46-.195.64.64 0 0 1 .471.194c.13.13.195.283.195.46a.639.639 0 0 1-.195.471.64.64 0 0 1-.47.195.631.631 0 0 1-.461-.195z"/><path fill="#bbcaea" d="M110.737 113.975c-.287 0-.547-.537-.666-1.622v-2.758c.12-1.084.379-1.62.673-1.62s.546.536.672 1.62v2.758c-.126 1.085-.378 1.622-.68 1.622zM110.737 125.975c-.287 0-.547-.537-.666-1.622v-2.758c.12-1.084.379-1.62.673-1.62s.546.536.672 1.62v2.758c-.126 1.085-.378 1.622-.68 1.622zM110.737 137.975c-.287 0-.547-.537-.666-1.622v-2.758c.12-1.084.379-1.62.673-1.62s.546.536.672 1.62v2.758c-.126 1.085-.378 1.622-.68 1.622zM110.737 144.276c-.287 0-.547-.027-.666-.081v-.139c.12-.054.379-.081.673-.081s.546.027.672.081v.139c-.126.054-.378.08-.68.08z"/><circle cx="110.744" cy="125.619" r="5.815" fill="#d1dcf8"/><circle cx="110.744" cy="125.619" r="5.815" fill="#d1dcf8"/><circle cx="110.744" cy="107.469" r="5.815" fill="#d1dcf8"/><circle cx="110.744" cy="143.77" r="5.815" fill="#d1dcf8"/><path fill="#64d3ff" d="m179.415 69.935-1.65 1.48a7.77 7.77 0 0 1 1.758 4.932c0 4.312-3.508 7.82-7.82 7.82-4.308 0-7.815-3.508-7.815-7.82 0-1.2.273-2.336.757-3.352l-1.842-1.259a9.903 9.903 0 0 0-1.13 4.611c0 5.534 4.5 10.035 10.03 10.035 5.534 0 10.035-4.5 10.035-10.035a9.998 9.998 0 0 0-2.323-6.412z"/><path fill="#d1dcf8" d="M171.703 68.528c2.046 0 3.906.787 5.302 2.082l1.657-1.484a10.016 10.016 0 0 0-15.295 1.65l1.828 1.252a7.806 7.806 0 0 1 6.508-3.5z" opacity=".3"/><path fill="#fe4c40" d="m213.68 69.78-1.54 1.61a7.775 7.775 0 0 1 1.78 4.957 7.753 7.753 0 0 1-1.071 3.94l1.816 1.28a9.983 9.983 0 0 0 1.47-5.22 9.996 9.996 0 0 0-2.456-6.567z"/><path fill="#d1dcf8" d="M206.1 68.528c2.03 0 3.884.776 5.276 2.057l1.528-1.603a9.987 9.987 0 0 0-6.804-2.669 10 10 0 0 0-7.933 3.902l1.868 1.208a7.796 7.796 0 0 1 6.065-2.895z" opacity=".3"/><path fill="#fe4c40" d="M206.1 84.167c-4.312 0-7.819-3.508-7.819-7.82 0-1.469.41-2.846 1.115-4.02l-1.86-1.2a9.982 9.982 0 0 0-1.47 5.22c0 5.534 4.5 10.035 10.034 10.035 3.227 0 6.103-1.532 7.934-3.906l-1.81-1.278a7.788 7.788 0 0 1-6.124 2.969z"/><path fill="#ffcf3d" d="M240.83 66.322v2.224c4.155.177 7.483 3.603 7.483 7.801 0 4.312-3.508 7.82-7.819 7.82-4.176 0-7.587-3.294-7.798-7.418h-2.225c.211 5.347 4.625 9.632 10.023 9.632 5.533 0 10.034-4.5 10.034-10.034 0-5.42-4.32-9.847-9.699-10.025z"/><path fill="#d1dcf8" d="M181.714 89.927a.702.702 0 0 1-.702.703h-18.613a.702.702 0 1 1 0-1.405h18.613c.388 0 .702.314.702.702zM170.831 93.274a.702.702 0 0 1-.702.702h-7.73a.702.702 0 1 1 0-1.405h7.73c.388 0 .702.314.702.703zM216.11 89.927a.702.702 0 0 1-.703.703h-18.613a.702.702 0 1 1 0-1.405h18.613c.388 0 .702.314.702.702zM207.608 93.274a.702.702 0 0 1-.703.702h-10.11a.702.702 0 1 1 0-1.405h10.11c.389 0 .703.314.703.703zM242.257 89.927a.702.702 0 0 1-.702.703h-10.278a.702.702 0 1 1 0-1.405h10.278c.388 0 .702.314.702.702zM250.425 93.274a.702.702 0 0 1-.703.702h-18.445a.702.702 0 1 1 0-1.405h18.445c.389 0 .703.314.703.703z"/><path fill="#bbcaea" d="M122.961 103.138h.315v29.47h-.315zM122.961 132.902h2.27v.459h-2.27zM122.961 102.215h5.287v.459h-5.287zM122.961 101.418h3.327v.459h-3.327zM147.386 103.138h.315v29.47h-.315zM147.386 132.902h2.27v.459h-2.27zM147.386 102.215h5.287v.459h-5.287zM147.386 101.418h3.327v.459h-3.327zM171.811 103.138h.315v29.47h-.315zM171.811 132.902h2.27v.459h-2.27zM171.811 102.215h5.287v.459h-5.287zM171.811 101.418h3.327v.459h-3.327zM196.236 103.138h.315v29.47h-.315zM196.236 132.902h2.27v.459h-2.27zM196.236 102.215h5.287v.459h-5.287zM196.236 101.418h3.327v.459h-3.327zM220.662 103.138h.315v29.47h-.315zM220.662 132.902h2.27v.459h-2.27zM220.662 102.215h5.287v.459h-5.287zM220.662 101.418h3.327v.459h-3.327zM246.937 103.138h.315v29.47h-.315zM246.937 132.902h2.27v.459h-2.27zM246.937 102.215h5.287v.459h-5.287zM246.937 101.418h3.327v.459h-3.327z"/><path fill="#fe4c40" d="M252.65 107.566c-1.453 7.096-7.716 12.962-14.894 13.946-7.45 1.022-14.583-2.665-21.475-6.232l-.353-.183c-6.865-3.551-14.845-7.163-22.684-5.03-4.723 1.285-8.56 4.493-12.27 7.596-.834.697-1.667 1.393-2.507 2.066-5.852 4.686-11.113 6.524-15.626 5.465-3.383-.794-6.035-3.056-8.843-5.452-1.263-1.077-2.569-2.191-3.938-3.149-7.747-5.415-18.555-5.867-26.784-1.268v1.145c7.96-4.716 18.62-4.377 26.218.934 1.33.93 2.617 2.028 3.863 3.09 2.773 2.367 5.64 4.814 9.258 5.662.934.22 1.887.33 2.859.33 4.122 0 8.606-1.977 13.61-5.985.846-.677 1.684-1.378 2.524-2.08 3.63-3.034 7.381-6.172 11.896-7.4 7.494-2.04 15.27 1.488 21.97 4.954l.352.182c7.028 3.638 14.294 7.4 22.065 6.334 7.579-1.04 14.193-7.233 15.728-14.727l-.97-.198z"/><path fill="#64d3ff" d="M241.41 109.347c-3.114 8.614-11.712 15.493-21.902 17.524-8.701 1.734-18.646.276-28.756-4.22-1.454-.646-2.93-1.359-4.357-2.048-5.13-2.475-10.433-5.036-16.195-5.301-5.675-.261-11.2 1.749-16.329 3.959-.761.328-1.521.663-2.283.998-4.27 1.878-8.685 3.82-13.309 4.585-6.05 1-11.714-.413-15.17-3.778v1.336c3.71 3.13 9.353 4.405 15.331 3.417 4.747-.784 9.22-2.752 13.546-4.656.76-.333 1.518-.667 2.277-.994 5.02-2.164 10.416-4.136 15.892-3.88 5.558.257 10.77 2.772 15.81 5.205 1.435.692 2.917 1.408 4.386 2.06 7.472 3.324 14.866 5.016 21.764 5.016 2.607 0 5.143-.242 7.585-.73 10.523-2.097 19.41-9.224 22.639-18.157l-.93-.336z"/><path fill="#fff" d="M122.567 139.354h97.08v1.857h-97.08zM122.567 144.315h97.08v1.857h-97.08z"/><path fill="#64d3ff" d="M122.567 139.354h58.94v1.857h-58.94z"/><path fill="#fe4c40" d="M122.567 144.315h30.305v1.857h-30.305z"/><path fill="#fec9ac" d="M41.338 232.231h6.135v9.991h-6.135z"/><path fill="#ffab90" d="M47.474 233.652v3.533a23.901 23.901 0 0 1-6.136-.429v-3.104h6.136z"/><path fill="#2e363a" d="M49.83 245.898H30.35a1.65 1.65 0 0 1-1.198-.518 1.814 1.814 0 0 1-.5-1.254c0-.74.44-1.401 1.101-1.666 2.05-.804 5.636-1.698 6.393-2.491 1.015-1.058 2.788-2.83 4.055-2.74 1.268.09 2.025 2.211 3.97 3.449 1.378.878 2.867-1.29 3.61-2.623.252-.45.883-.455 1.12 0 1.576 2.977.93 7.843.93 7.843z"/><path fill="#fec9ac" d="M63.827 232.231h6.135v9.991h-6.135z"/><path fill="#ffab90" d="M63.827 231.59v5.595c2.05.122 4.116-.021 6.136-.429v-5.166h-6.136z"/><path fill="#2e363a" d="M61.47 245.898h19.482a1.65 1.65 0 0 0 1.196-.518c.308-.323.5-.767.5-1.254 0-.74-.44-1.401-1.1-1.666-2.05-.804-5.636-1.698-6.393-2.491-1.015-1.058-2.788-2.83-4.055-2.74-1.268.09-2.025 2.211-3.97 3.449-1.378.878-2.867-1.29-3.61-2.623-.252-.45-.883-.455-1.12 0-1.576 2.977-.93 7.843-.93 7.843z"/><path fill="#3a4146" d="M37.18 234.226s4.867.386 8.984.203a34.424 34.424 0 0 0 1.667-.111c1.503-.15 2.764-.401 3.44-.827 2.625-1.638 2.417-55.798 2.417-55.798s6.34 55.716 7.403 56.277c.386.203 1.923.12 3.808-.14 3.31-.464 7.697-1.494 8.8-2.508 1.164-1.073-.238-38.05-1.277-62.066-.32-7.499-.596-13.438-.918-20.223l-2.247.092-33.357 1.391c-.304.904-.459 4.214-.502 9.037-.203 21.846 1.783 74.673 1.783 74.673z"/><path fill="#2e363a" d="M35.398 159.553a168.977 168.977 0 0 1 23.233 4.112c4.146 1.039 8.297 2.252 11.984 4.412.619.362 1.223.754 1.807 1.179-.381-8.916-.72-16.048-.855-18.89a31.47 31.47 0 0 0-1.179-.657 61.676 61.676 0 0 0-1.13-.584L35.9 150.516c-.304.904-.459 4.214-.502 9.037zM47.831 234.318c1.503-.15 2.764-.401 3.44-.827 2.625-1.638 2.417-55.798 2.417-55.798s6.34 55.716 7.403 56.277c.386.203 1.923.12 3.808-.14-2.934-19.29-10.36-63.255-12.4-63.303l-4.668 63.79z"/><path fill="#ea241f" d="M70.266 125.627c.091.262.171.524.252.792a2.402 2.402 0 0 1-.252-.792z"/><path fill="#fec9ac" d="M109.529 118.682s.144 2.374-1.626 3.819c-1.77 1.444-3.565 1.274-3.565 1.274s-15.435 19.096-23.564 18.49a22.273 22.273 0 0 1-6.883-1.66c-4.723-1.975-7.94-5.26-7.67-7.73.387-3.552 1.152-6.269 1.152-6.269l12.197-3.09c.165-.003 2.477 4.058 3.006 4.809.201.292.453.566.766.767 1.128.728 15.116-5.388 17.556-7.992 2.444-2.609.333-1.462 2.61-3.34 2.277-1.877 3.6-4.52 4.21-4.048.61.465-.95 2.883-.95 2.883s7.36-.8 6.848.234c-.519 1.036-4.087 1.853-4.087 1.853z"/><path fill="#ffab90" d="M75.852 134.605a22.694 22.694 0 0 0-1.96 6c-4.724-1.975-7.94-5.26-7.672-7.73.388-3.552 1.153-6.269 1.153-6.269l12.197-3.09c.165-.003 2.477 4.058 3.006 4.809-1.253.31-2.43.954-3.41 1.79-1.426 1.212-2.483 2.81-3.314 4.49z" opacity=".5"/><path fill="#fe4c40" d="M80.205 124.75c-.722.262-6.467 6.007-10.195 6.451 0 0 2.423 19.658 1.22 19.321-1.21-.342-16.78 8.463-38.702-.342l4.519-20.866s-8.857-.092-11.863-5.912c0 0 1.84-13.827 14.004-18.465 12.17-4.638 27.414-2.268 34.513 5.75 7.098 8.013 7.232 13.801 6.504 14.063z"/><path fill="#fec9ac" d="M46.857 103.106c.602 1.784 2.838 3.01 4.532 3.475 1.607.441 3.309.478 4.92.053 3.632-.96 3.722-3.208 3.722-3.208-.613-.199-.912-1.763-1.052-3.447-.177-2.122-.108-4.431-.108-4.431h-9.644s-.283 2.93-.59 5.187c-.063.455-.221.89-.47 1.269-.219.34-.507.64-.856.864-.261.169-.454.238-.454.238z"/><path fill="#ffab90" d="M48.167 102.004c3.296 1.192 7.186.803 9.977-1.311.293-.222.57-.46.835-.714-.177-2.122-.108-4.431-.108-4.431h-9.644s-.283 2.93-.59 5.187c-.063.455-.221.89-.47 1.269z" opacity=".5"/><path fill="#fec9ac" d="M61.698 92.29c-.26 1.847-.635 3.795-1.896 5.168-1.12 1.218-2.804 1.798-4.458 1.876-.897.043-1.806-.049-2.655-.346-1.72-.6-3.05-1.968-4.244-3.339a32.06 32.06 0 0 1-1.293-1.557c-.426-.553-.959-1.008-1.53-1.41l-.008-.005c-.456-.32-.828-.747-1.18-1.174-.283-.34-.569-.701-.64-1.132-.067-.39.054-.796.28-1.116.138-.19.305-.355.495-.494a10.534 10.534 0 0 1 .638-5.981 10.505 10.505 0 0 1 5.633-5.564l9.34-1.466c.04 1.397.638 2.704 1.062 4.032 1.287 4.005 1.039 8.339.456 12.508z"/><path fill="#4f2d2a" d="M51.351 86.908c-.037-.022-.043-.105.016-.242.06-.135.19-.327.436-.504a1.894 1.894 0 0 1 1.483-.233c.289.093.47.236.57.345.097.113.117.194.087.228-.067.079-.291-.077-.76-.163a1.468 1.468 0 0 0-1.155.182c-.421.226-.587.443-.677.387zM57.906 85.894c-.057-.055.07-.339.577-.609.44-.191.927-.267 1.404-.22.565.103.772.334.734.406-.042.093-.294.028-.775.016a2.407 2.407 0 0 0-1.195.187c-.454.159-.675.297-.745.22zM55.931 93.106c.036-.033.156.063.379.218.11.075.256.162.426.198.161.035.392.005.511-.127.215-.195.06-.78.007-1.235-.075-.476-.175-.95-.298-1.416-.26-1.109-.425-1.658-.33-1.695.077-.032.396.464.74 1.587a15.05 15.05 0 0 1 .406 2.2c.012.13.019.27-.007.422a.803.803 0 0 1-.22.437c-.314.273-.666.243-.907.164a1.222 1.222 0 0 1-.496-.346c-.2-.234-.243-.378-.21-.407zM56.605 95.848c.01.04-.078.116-.287.182-.208.064-.54.13-.983.08-.744-.112-1.455-.45-1.98-1.018-.293-.352-.392-.717-.38-.95.012-.237.094-.334.134-.325.105.012.02.443.562.993.437.475 1.075.786 1.726.882.772.141 1.184.047 1.208.156z"/><ellipse cx="59.403" cy="88.567" fill="#4f2d2a" rx=".486" ry=".872"/><ellipse cx="53.212" cy="89.043" fill="#4f2d2a" rx=".486" ry=".872"/><path fill="#fec9ac" d="m43.76 90.145.72 1.383a9.273 9.273 0 0 0 3.464 2.213c.253.089.537.168.776.042.34-.177.369-.649.345-1.036-.042-.888-.089-1.784-.35-2.634-.262-.85-.766-1.658-1.532-2.102-.77-.448-1.826-.453-2.493.131-.566.49-.762 1.275-.93 2.003z"/><path fill="#ffab90" d="M47.086 91.987a.425.425 0 0 1-.357.448.573.573 0 0 1-.297-.05c-.332-.13-.586-.405-.805-.688-.4-.512-.753-1.106-.767-1.756-.003-.205.032-.423.17-.575.194-.216.537-.23.82-.152a1.737 1.737 0 0 1 1.197 1.187l.039 1.586z" opacity=".5"/><path fill="#2e363a" d="M65.81 80.29c-.395.917-.89 1.813-1.625 2.491-.735.679-1.738 1.115-2.73.988-.824-.108-1.547-.581-2.312-.917-.507-.227-1.193-.157-1.809.041-.67.224-1.376.336-2.08.272l-.62-.052c.094-.447.728-.466 1.082-.757-2.498-.265-5.083 1.294-6.015 3.628-.34.858-1.383 3.93-1.383 3.93s-1.033-.7-1.485-.876c-.6-.23-1.282-.398-1.92-.238-.5.123-.962.481-1.104.977-.238-1.003-.741-1.814-1.17-2.685-.646-1.307-.866-2.793-.732-4.244.053-.578.153-1.148.28-1.715.19-.854.444-1.697.697-2.536.388-1.271.787-2.562 1.518-3.673 1.022-1.551 2.64-2.651 4.393-3.274 1.749-.623 3.632-.798 5.49-.78 1.192.015 2.393.109 3.534.463 1.138.354 2.212.992 2.939 1.94.227.298.417.622.596.954.265.496.504 1.014.798 1.495a6.988 6.988 0 0 0 3.077 2.707c.224.101.462.194.623.384.335.396.167 1-.041 1.477z"/><path fill="#3a4146" d="M60.556 78.59c-.742.462-1.704.302-2.55.082-1.32-.343-2.66-.802-4.013-.63a4.483 4.483 0 0 0-3.266 2.151c-.168.291-.306.6-.508.87-.492.652-1.323.972-2.136 1.032-.817.06-1.626-.112-2.424-.283-.783-.164-1.563-.332-2.342-.5-.377-.082-.746-.16-1.13-.179.19-.854.444-1.697.697-2.536.388-1.271.787-2.562 1.518-3.673 1.022-1.551 2.64-2.651 4.393-3.274 1.749-.623 3.632-.798 5.49-.78 1.192.015 2.393.109 3.534.463 1.138.354 2.212.992 2.939 1.94.227.298.417.622.596.954.068.552.18 1.107.22 1.663.079 1.01-.156 2.166-1.018 2.7z"/><path fill="#fe4c40" d="M71.23 150.522c-1.21-.342-16.78 8.463-38.702-.342l.401-1.856 2.59-11.955c3.156.09 14.074.554 17.224.69 3.08.123 5.905.24 7.793.32l.011-.01c.551-.888 1.14-1.77 1.91-2.471.775-.707 1.958-1.889 2.797-1.268.455.331-.15 1.107-.545 1.508-.39.396-.888.68-1.305 1.06-.08.074-.16.16-.172.272-.026.284.396.353.68.305 2.204-.358 4.413-.722 6.617-1.086.165 1.53.353 3.3.518 5.077.471 4.948.792 9.928.182 9.756z"/><path fill="#fec9ac" d="M73.364 137.123c-.262 1.455-1.156 2.706-2.317 3.643-2.137 1.728-4.978 2.15-7.702 2.508-3.311 1.241-8.789 2.926-14.748 4.05-4.627.877-9.548 1.417-13.961 1.15a34.256 34.256 0 0 1-1.707-.15c-1.93-.22-3.728-.615-5.338-1.236-3.365-1.289-4.91-3.947-5.403-7.06-.802-5.013 1.129-11.202 2.595-14.748.23-.551.444-1.038.642-1.45 3.209 5.397 11.623 5.483 11.623 5.483l-.834 3.857c-.268.481-.503.93-.696 1.332-.518 1.107-.679 1.856-.096 1.867h.096c3.157.09 14.075.554 17.225.69 3.08.123 5.905.24 7.793.32l.011-.01c.551-.888 1.14-1.77 1.91-2.471.775-.707 1.958-1.889 2.797-1.268.455.331-.15 1.107-.545 1.508-.39.396-.888.68-1.305 1.06-.08.074-.16.16-.172.272-.026.284.396.353.68.305 2.608-.424 7.194-1.18 7.205-1.182.813-.134 1.872-.145 2.204.61.123.283.102.615.043.92z"/><path fill="#ffab90" d="m37.048 129.313-.834 3.857c-.268.481-.503.93-.696 1.332-.256-.305-.625-.557-.968-.781-.599-.385-1.214-.781-1.92-.899-1.295-.22-2.536.535-3.605 1.305a49.524 49.524 0 0 0-6.837 5.9c-.802-5.012 1.129-11.2 2.595-14.747.23-.551.444-1.038.642-1.45 3.209 5.397 11.623 5.483 11.623 5.483z" opacity=".5"/><path fill="#bbcaea" d="M132.933 165.19c-.287 0-.547-.536-.666-1.621v-2.758c.12-1.084.379-1.62.673-1.62s.546.536.672 1.62v2.758c-.126 1.085-.378 1.621-.68 1.621zM132.933 177.19c-.287 0-.547-.536-.666-1.621v-2.758c.12-1.084.379-1.62.673-1.62s.546.536.672 1.62v2.758c-.126 1.085-.378 1.621-.68 1.621zM132.933 189.19c-.287 0-.547-.536-.666-1.621v-2.758c.12-1.084.379-1.62.673-1.62s.546.536.672 1.62v2.758c-.126 1.085-.378 1.621-.68 1.621zM132.57 200.814c0-.137.123-.268.37-.38l-.387.387c-.123-.268-.224-.685-.286-1.252v-2.758c.12-1.084.379-1.62.673-1.62s.546.536.672 1.62v2.758c-.066.567-.166.984-.29 1.252l-.213.46-.17-.078c-.246-.113-.368-.245-.368-.389zM120.57 200.814c0-.287.537-.546 1.622-.666h2.758c1.084.12 1.62.379 1.62.673s-.536.546-1.62.673h-2.758c-1.085-.127-1.621-.379-1.621-.68zM108.57 200.814c0-.287.537-.546 1.622-.666h2.758c1.084.12 1.62.379 1.62.673s-.536.546-1.62.673h-2.758c-1.085-.127-1.621-.379-1.621-.68zM106.247 191.152c.287 0 .546.537.665 1.622v2.758c-.119 1.084-.378 1.62-.672 1.62-.295 0-.547-.536-.673-1.62v-2.758c.126-1.085.378-1.622.68-1.622zM111.01 183.93c0 .287-.536.547-1.622.666h-2.476c-.006-.016-.023-.033-.053-.053-.033-.018-.073-.011-.117.019-.044-.01-.094.205-.147.284-.106.205-.227.306-.355.306-.129 0-.249-.101-.354-.306-.053-.125-.102-.167-.146-.483a13.898 13.898 0 0 1-.118-1.058l.727-.055h3.04c1.085.127 1.621.379 1.621.68zM123.01 183.93c0 .287-.536.547-1.622.666h-2.757c-1.084-.12-1.62-.379-1.62-.673s.536-.546 1.62-.673h2.757c1.086.127 1.622.379 1.622.68z"/><path fill="#bbcaea" d="M135.01 183.93c0 .287-.536.547-1.622.666h-2.757c-1.084-.12-1.62-.379-1.62-.673s.536-.546 1.62-.673h2.757c1.086.127 1.622.379 1.622.68zM147.01 183.93c0 .287-.536.547-1.622.666h-2.757c-1.084-.12-1.62-.379-1.62-.673s.536-.546 1.62-.673h2.757c1.086.127 1.622.379 1.622.68zM159.01 183.93c0 .287-.536.547-1.622.666h-2.757c-1.084-.12-1.62-.379-1.62-.673s.536-.546 1.62-.673h2.757c1.086.127 1.622.379 1.622.68zM171.01 183.93c0 .287-.536.547-1.622.666h-2.757c-1.084-.12-1.62-.379-1.62-.673s.536-.546 1.62-.673h2.757c1.086.127 1.622.379 1.622.68zM181.499 185.427c-.138 0-.27-.124-.383-.374a3.065 3.065 0 0 1-.153-.46c-.045-.036-.084-.038-.116-.011l-.013.014h-2.203c-1.084-.12-1.62-.379-1.62-.673s.536-.546 1.62-.673h3.312l.221.015c-.033.53-.072.967-.118 1.307-.046.21-.098.35-.155.48-.113.25-.247.375-.392.375zM181.499 197.427c-.287 0-.546-.537-.665-1.622v-2.757c.119-1.084.378-1.621.672-1.621s.547.537.673 1.62v2.758c-.126 1.085-.379 1.622-.68 1.622zM191.82 199.12c0 .288-.537.547-1.622.666h-2.758c-1.084-.119-1.62-.378-1.62-.672s.536-.547 1.62-.673h2.758c1.085.126 1.622.378 1.622.68zM203.82 199.12c0 .288-.537.547-1.622.666h-2.758c-1.084-.119-1.62-.378-1.62-.672s.536-.547 1.62-.673h2.758c1.085.126 1.622.378 1.622.68zM213.913 197.2c.144 0 .28.134.396.404.058.135.11.304.156.506l.062.33.052.762v.584h-3.139c-1.084-.119-1.62-.378-1.62-.672s.536-.547 1.62-.673h1.793c.016.009.034.01.053 0l.064-.33a2.94 2.94 0 0 1 .157-.507c.117-.27.255-.404.406-.404zM219.665 190.966c0 .287-.537.546-1.622.666h-2.757c-.666-.074-1.126-.2-1.38-.354l.319-.319c-.097.161-.206.24-.32.24s-.22-.079-.316-.24l-.055-.093.372-.224c.254-.153.714-.278 1.38-.356h2.757c1.085.127 1.622.379 1.622.68zM231.665 190.966c0 .287-.537.546-1.622.666h-2.757c-1.084-.12-1.62-.379-1.62-.673s.536-.546 1.62-.673h2.757c1.085.127 1.622.379 1.622.68zM241.327 190.966c0 .287-.328.546-.99.666h-1.683c-.661-.12-.989-.379-.989-.673s.328-.546.99-.673h1.682c.662.127.99.379.99.68z"/><circle cx="239.974" cy="190.959" r="2.432" fill="#d1dcf8"/></svg>