<svg xmlns="http://www.w3.org/2000/svg" viewBox="0 0 1500 1080" xmlns:v="https://vecta.io/nano"><style><![CDATA[.B{stroke-linejoin:round}.C{stroke-width:2}.D{fill:none}.E{stroke-linecap:round}.F{fill:#fff}.G{stroke:#153b69}.H{stroke:#fff}.I{fill:#d1e5fd}.J{fill:#183d69}.K{fill:#fe835b}.L{stroke:#2084fb}.M{fill:#13b85b}.N{stroke-width:6}.O{fill:#2084fb}]]></style><path d="M1443.339 988.212h-62.213m-242.077 0H56.661m1324.465 0V821.899h-242.077v166.313" stroke="#183d69" class="B C D E"/><path d="M315.985 928.709l-4.681 38.929-36.096-.246 4.558-38.93 36.219.247z" class="B C F G"/><g class="J"><use href="#B"/><path d="M304.035 704.988s21.559 55.191 25.378 109.643c2.833 39.792 5.297 132.188 5.297 132.188h-73.054s8.131-143.768-40.285-212.264c-36.466-51.865 82.664-29.567 82.664-29.567z"/></g><path d="M212.502 928.709l-5.913 38.929-36.466-.246 5.79-38.93 36.589.247z" class="B C F G"/><g class="J"><use href="#B" x="-104.716"/><path d="M245.888 719.771s6.037 62.829 2.464 92.889c-3.573 30.306-18.233 132.557-18.233 132.557l-77.12-1.232s19.588-87.099 23.161-235.425c.246-15.399 43.241-22.914 69.728 11.211z"/></g><path d="M248.721 760.548c.862 18.233 1.232 38.56-.37 52.111" class="B C D E H"/><g class="J"><path d="M274.715 509.108s-8.008 102.375-66.895 95.229 37.574-97.077 37.574-97.077z"/><path d="M209.052 609.019s-67.88-3.942-36.712-59.133 36.835-75.518 38.929-83.403 37.082-5.913 33.632 28.581.246 121.963-35.85 113.955z"/></g><path d="M301.695 573.292l2.341 131.695c-49.401 28.458-127.999 3.573-127.999 3.573l2.71-135.391a30.81 30.81 0 0 1 30.799-30.799l14.167-.123h42.133l5.544.246a30.867 30.867 0 0 1 30.306 30.799z" class="K"/><path d="M279.643 479.049s14.414-11.211-.739-28.828c-17.124-19.834-59.257-11.457-66.402 12.196-7.638 24.885 3.573 49.894 11.95 52.111z" class="J"/><g class="B C G"><path d="M277.302 465.62l-53.22 2.464.123 22.298c-2.217-1.725-5.297-3.08-8.5-1.725-6.037 2.464-6.653 20.573 8.624 16.385l-.739 37.328s-8.377 7.269-.123 16.385 44.35 9.856 38.437-16.754l-1.725-15.399c10.595-2.094 16.508-11.334 17.617-18.11 2.834-16.508-.493-42.872-.493-42.872z" class="F"/><path d="M277.302 465.62s3.326 26.24.616 42.748a22.42 22.42 0 0 1-11.827 16.385s-11.703 5.174-23.161.37" class="D E"/></g><path d="M267.324 468.823s-5.667 17.494-42.256 15.646l-3.819-19.834 49.155-3.573 12.443 1.478-3.08 16.385c-.123.123-10.348-2.341-12.443-10.102z" class="J"/><path d="M405.548 507.507c-5.174 2.217-12.319 5.544-12.319 5.544s10.595-7.022 15.276-10.718c3.449-2.71 1.355-7.638-3.696-4.558l-14.537 9.116 16.385-14.044c4.435-3.573 2.341-10.595-3.942-5.667l-15.153 11.703s10.102-12.196 12.689-16.015c3.326-4.928.862-10.718-5.174-4.065-4.435 4.928-14.907 15.153-20.204 20.327-.123-1.478-1.232-14.783-5.544-14.907-2.833-.123-2.833 3.203-2.833 3.203l-.123 23.161c0 .616.123 1.232.123 1.848l-19.588 70.221-20.697-13.798-21.313 35.357s8.131 6.529 27.226 19.588c21.682 14.907 39.422-2.587 43.488-29.444 1.232-8.5 11.211-61.228 12.319-69.482 5.051-2.833 18.11-11.211 20.573-12.689 3.326-2.218 1.478-6.529-2.957-4.681z" class="B C F G"/><path d="M282.353 544.711s32.154 12.566 52.974 24.393c8.008 4.558 2.094 16.878-2.464 28.704-4.435 11.457-12.566 24.516-20.204 20.45-11.088-5.913-61.351-35.85-61.351-35.85z" class="K"/><path d="M301.695 627.252v-30.306" class="B C D E H"/><path d="M334.095 582.409h-71.822l-12.32 85.374h71.823l12.319-85.374z" class="I"/><path d="M284.817 626.389l-17.986 5.297s13.551-7.638 17.247-10.225c4.805-3.326 4.558-9.486-3.326-5.544-5.913 2.957-19.095 8.624-25.624 11.457.37-1.355 4.065-13.921.123-15.646-2.587-1.109-3.696 1.971-3.696 1.971l-8.377 21.436-60.365 11.457 12.812-24.393-39.545-12.566-18.11 42.256c-9.856 23.9 18.726 35.48 48.046 24.885 7.884-2.833 79.83-23.284 79.83-23.284l15.399-2.464c4.065-.739 3.819-5.421-.862-5.174l-13.305.739s12.196-2.71 17.74-4.435c4.065-1.232 3.942-6.529-1.848-5.421l-16.508 3.203s13.675-5.051 19.958-7.022c5.421-1.724 5.79-8.747-1.602-6.529z" class="B C F G"/><path d="M222.234 575.264s-11.457 32.523-22.668 53.713c-4.312 8.131-16.754 2.587-28.828-1.602-11.58-3.942-25.008-11.827-21.066-19.588 5.667-11.334 26.98-49.771 26.98-49.771z" class="K"/><path d="M208.806 609.142c-2.957 6.776-6.16 13.798-9.363 19.711-1.848 3.449-5.051 4.435-9.116 4.189" class="B C D E H"/><path d="M175.667 566.517l.986-8.5s8.5-15.276 31.538-15.646l.616 21.559z" class="K"/><path d="M1143.73 774.962H518.641a12.356 12.356 0 0 1-12.319-12.319V102.319A12.356 12.356 0 0 1 518.641 90h625.089a12.356 12.356 0 0 1 12.319 12.319v660.323a12.277 12.277 0 0 1-12.319 12.319z" class="F"/><path d="M539.953 774.962H518.64a12.356 12.356 0 0 1-12.319-12.319v-163.11m649.728 148.449v14.66a12.356 12.356 0 0 1-12.319 12.319H857.795M506.321 356.84V102.32A12.356 12.356 0 0 1 518.641 90h625.089a12.356 12.356 0 0 1 12.319 12.319v458.407" class="B C D E L"/><circle cx="860.752" cy="163.917" r="33.509" class="M"/><path d="M849.418 162.808l8.993 8.993 13.552-15.892" class="B D E H N"/><g class="I"><use href="#C"/><use href="#D"/></g><circle cx="860.752" cy="267.4" r="33.509" class="M"/><path d="M849.418 266.291l8.993 8.994 13.552-15.892" class="B D E H N"/><g class="I"><use href="#C" y="103.483"/><use href="#D" y="103.483"/></g><path d="M590.463 246.827h-23.161a4.942 4.942 0 0 1-4.928-4.928v-28.828a4.942 4.942 0 0 1 4.928-4.928h23.161a4.942 4.942 0 0 1 4.928 4.928v28.828a4.942 4.942 0 0 1-4.928 4.928zm56.177 0h-23.161a4.942 4.942 0 0 1-4.928-4.928v-64.061a4.942 4.942 0 0 1 4.928-4.928h23.161a4.942 4.942 0 0 1 4.928 4.928v64.061a4.942 4.942 0 0 1-4.928 4.928zm56.3 0h-23.161a4.942 4.942 0 0 1-4.928-4.928V135.828a4.942 4.942 0 0 1 4.928-4.928h23.161a4.942 4.942 0 0 1 4.928 4.928v106.071a4.942 4.942 0 0 1-4.928 4.928zm56.176 0h-23.161a4.942 4.942 0 0 1-4.928-4.928v-46.691a4.942 4.942 0 0 1 4.928-4.928h23.161a4.942 4.942 0 0 1 4.928 4.928v46.691a4.942 4.942 0 0 1-4.928 4.928z" class="K"/><path d="M561.389 278.857h89.439m-89.439 19.219l200.314 1.355" stroke="#fe835b" stroke-width="4" class="B D E"/><path d="M625.327 731.228h-65.663v-80.077h49.525l16.138 16.139v63.938z" class="J"/><path d="M625.327 731.228h-65.663v-80.077h49.525v16.139h16.138v63.938z" class="K"/><g class="F"><path d="M612.638 704.372l-12.689-22.052a.601.601 0 0 0-1.109 0l-9.486 16.508-5.667-9.732a.601.601 0 0 0-1.109 0l-8.747 15.153a.673.673 0 0 0 .616.986h37.821c.37.123.739-.493.37-.862z"/><circle cx="587.26" cy="680.595" r="2.71"/></g><path d="M938.611 731.351h-65.54v-79.953h49.525l16.015 16.015v63.938z" class="J"/><path d="M938.611 731.351h-65.54v-79.953h49.525v16.015h16.015v63.938z" class="K"/><g class="F"><path d="M926.045 704.495l-12.689-22.052a.601.601 0 0 0-1.109 0l-9.486 16.508-5.544-9.609a.601.601 0 0 0-1.109 0l-8.747 15.153a.673.673 0 0 0 .616.986h37.821a.828.828 0 0 0 .246-.986z"/><circle cx="900.544" cy="680.718" r="2.71"/></g><g class="I"><path d="M743.594 682.32H675.96a8.255 8.255 0 0 1-8.254-8.254h0a8.255 8.255 0 0 1 8.254-8.254h67.634a8.255 8.255 0 0 1 8.254 8.254h0a8.255 8.255 0 0 1-8.254 8.254zm47.183 34.125H675.96a8.255 8.255 0 0 1-8.254-8.254h0a8.255 8.255 0 0 1 8.254-8.254h114.817a8.255 8.255 0 0 1 8.254 8.254h0a8.417 8.417 0 0 1-8.254 8.254zm303.059-16.632H980.251a8.255 8.255 0 0 1-8.254-8.254h0a8.255 8.255 0 0 1 8.254-8.254h113.585a8.255 8.255 0 0 1 8.254 8.254h0a8.254 8.254 0 0 1-8.254 8.254z"/><path d="M1022.014 667.906h-41.763a8.255 8.255 0 0 1-8.254-8.254h0a8.255 8.255 0 0 1 8.254-8.254h41.763a8.255 8.255 0 0 1 8.254 8.254h0a8.335 8.335 0 0 1-8.254 8.254zm47.922 63.692H980.25a8.255 8.255 0 0 1-8.254-8.254h0a8.255 8.255 0 0 1 8.254-8.254h89.686a8.255 8.255 0 0 1 8.254 8.254h0a8.334 8.334 0 0 1-8.254 8.254z"/></g><path d="M1092.358 542.617l-22.298-13.798c-3.696-2.587-1.478-7.022 3.08-4.805 5.544 2.587 13.059 6.529 13.059 6.529s-11.211-8.008-16.015-12.073c-3.573-2.957-1.109-8.254 4.189-4.805l15.276 10.225-17.001-15.646c-4.681-4.065-2.094-11.457 4.435-5.913l15.769 13.059s-10.348-13.428-13.059-17.617c-3.449-5.421-.616-11.58 5.667-4.189 4.681 5.544 15.522 16.878 20.943 22.545.123-1.602 1.848-15.892 6.529-15.769 3.08 0 2.957 3.573 2.957 3.573l-.739 24.885 43.611 66.525 49.032 1.109-14.783 41.763s-36.342 1.355-52.604-13.675c-11.334-10.472-48.046-81.924-48.046-81.924z" class="B C F G"/><path d="M1259.902 588.076s-25.009-4.189-73.424 2.71c-6.283.862-14.291 54.945 2.71 56.177 28.212 2.094 60.489-5.79 60.489-5.79z" class="O"/><path d="M1268.896 934.745l10.841 33.509 36.096-.246-11.088-38.93-35.849 5.667z" class="B C F G"/><use href="#E" class="J"/><path d="M1172.188 934.745l.985 33.509 36.097-.246-1.232-38.93-35.85 5.667z" class="B C F G"/><g class="J"><path d="M1281.708 737.88l-48.169 8.87s-46.691 9.116-67.264 41.147a18.024 18.024 0 0 0-1.109 1.602 48.082 48.082 0 0 0-5.913 13.428l-.37 1.232h0a41.688 41.688 0 0 0-.986 4.189c-10.472 48.169 8.993 139.333 8.993 139.333l51.249.739-.862-125.658 64.061-54.575z"/><use href="#E" x="-106.563"/><path d="M1356.364 781.245l-3.573-46.814s-95.106-4.681-127.876 50.51c-21.066 29.69 38.56 162.74 38.56 162.74l52.481-6.653-30.799-118.267h32.523a38.543 38.543 0 0 0 38.683-41.517z"/></g><path d="M1211.61 656.942l-2.833 63.568 36.465-1.848-.493-51.988-33.139-9.732z" class="B C F G"/><path d="M1222.328 620.846l11.211 125.905c84.142 19.095 119.252-12.319 119.252-12.319l-7.761-119.992a30.743 30.743 0 0 0-32.277-29.197l-14.167.616-42.132 2.094-5.544.493a30.99 30.99 0 0 0-28.581 32.4z" class="O"/><path d="M1224.915 606.801a31.71 31.71 0 0 0-2.587 14.044l2.834 56.793" class="B C D E H"/><path d="M1240.191 529.435s-14.907-10.472-.493-28.828c16.138-20.574 58.641-14.044 66.895 9.24 8.747 24.516-1.355 50.017-9.609 52.481z" class="J"/><g class="B C G"><path d="M1242.039 516.007h53.22l.862 22.298c2.218-1.848 5.174-3.326 8.377-2.094 6.037 2.217 7.515 20.204-7.884 16.754l1.971 32.893s7.392 7.884-6.037 21.066c-10.348 10.225-47.184 3.819-31.661-19.711l.739-11.211c-10.718-1.602-17.001-10.595-18.479-17.247-3.326-16.262-1.109-42.748-1.109-42.748z" class="F"/><path d="M1242.039 516.007s-2.218 26.364 1.232 42.749a21.711 21.711 0 0 0 12.566 15.769s11.95 4.681 23.037-.616" class="D E"/></g><path d="M1141.266 618.998l93.012-4.682 21.559 109.767-93.012 4.681-21.559-109.766z" class="I"/><path d="M1214.69 665.196l18.479 4.558s-14.167-7.022-18.11-9.486c-5.051-3.203-5.174-9.363 3.08-5.79 6.16 2.71 19.834 7.884 26.733 10.348-.493-1.355-4.805-14.044-.986-15.892 2.587-1.232 3.942 1.848 3.942 1.848l9.732 21.436 62.706 13.798-3.573-24.639 41.024-4.065s2.464 10.225 6.037 33.016c4.189 25.994-8.747 36.466-45.212 26.61-8.254-2.217-83.156-24.885-83.156-24.885l-15.769-1.725c-4.189-.616-4.189-5.297.616-5.297l13.551.123s-12.566-2.094-18.233-3.573c-4.189-1.109-4.312-6.529 1.478-5.667l16.878 2.464-20.573-6.16c-5.544-1.725-6.406-8.87 1.355-7.022z" class="B C F G"/><path d="M1302.528 617.396a232.48 232.48 0 0 0 5.667 42.256c2.094 8.993 15.522 6.899 28.212 5.913 12.196-.862 27.103-4.928 25.501-13.428-2.464-12.443-11.95-45.582-11.95-45.582z" class="O"/><path d="M1304.869 642.281c.739 5.297 1.848 11.211 3.203 17.37.862 3.819 3.696 5.544 7.638 6.406" class="B C D E H"/><path d="M1349.835 606.678s-5.79-22.791-37.082-21.313l32.277 29.197z" class="O"/><g class="B C"><path d="M1225.038 784.941c-5.051 7.145-5.544 20.327-3.08 36.342" class="D E H"/><g class="L"><path d="M1093.22 611.113H647.625a12.356 12.356 0 0 1-12.319-12.319V359.796a12.356 12.356 0 0 1 12.319-12.319h445.595a12.356 12.356 0 0 1 12.319 12.319v238.998a12.356 12.356 0 0 1-12.32 12.319z" class="F"/><path d="M899.805 395.523h73.054m-73.054 32.03h160.645m-160.645 32.031h129.231m-129.231 32.03h160.645m-160.645 32.031h96.215m-96.215 32.031h160.645" class="D E"/></g></g><path d="M849.788 479.418a85.867 85.867 0 1 1-85.867-85.867 85.858 85.858 0 0 1 85.867 85.867z" class="I"/><path d="M849.788 479.418h-85.867v-85.867a85.937 85.937 0 0 1 85.867 85.867z" class="O"/><g class="B C L"><path d="M569.52 634.89h202.162l61.474 61.474v283.101a8.78 8.78 0 0 1-8.747 8.747H569.52a8.78 8.78 0 0 1-8.747-8.747V643.637a8.625 8.625 0 0 1 8.747-8.747z" class="I"/><path d="M569.52 634.89h202.162v61.474h61.474v283.101a8.78 8.78 0 0 1-8.747 8.747H569.52a8.78 8.78 0 0 1-8.747-8.747V643.637a8.625 8.625 0 0 1 8.747-8.747z" class="F"/></g><circle cx="621.631" cy="762.396" r="23.9" class="M"/><use href="#F" class="B D E H N"/><g class="I"><use href="#G"/><use href="#H"/></g><circle cx="621.631" cy="835.697" r="23.9" class="M"/><use href="#F" y="73.301" class="B D E H N"/><g class="I"><path d="M743.963 828.921h-68.989a5.915 5.915 0 0 1-5.913-5.913h0a5.915 5.915 0 0 1 5.913-5.913h68.989a5.915 5.915 0 0 1 5.913 5.913h0a5.996 5.996 0 0 1-5.913 5.913z"/><use href="#H" y="73.178"/></g><circle cx="621.631" cy="908.875" r="23.9" class="M"/><path d="M613.624 908.135l6.406 6.407 9.732-11.334" class="B D E H N"/><g class="I"><use href="#G" y="146.479"/><path d="M789.176 926.491H674.851a5.915 5.915 0 0 1-5.913-5.913h0a5.915 5.915 0 0 1 5.913-5.913h114.325a5.915 5.915 0 0 1 5.913 5.913h0a5.996 5.996 0 0 1-5.913 5.913zM581.593 387.269H389.286a12.356 12.356 0 0 0-12.319 12.319V555.06a12.356 12.356 0 0 0 12.319 12.319h192.307a12.356 12.356 0 0 0 12.319-12.319V399.588a12.277 12.277 0 0 0-12.32-12.319z"/></g><g class="B C L"><g class="F"><path d="M542.91 518.471H428.462a3.443 3.443 0 0 1-3.449-3.449v-76.504a3.443 3.443 0 0 1 3.449-3.449H542.91a3.443 3.443 0 0 1 3.449 3.449v76.504a3.524 3.524 0 0 1-3.449 3.449z"/><path d="M485.624 470.179l-60.612 45.089a3.443 3.443 0 0 0 3.449 3.449H542.91a3.443 3.443 0 0 0 3.449-3.449z"/></g><path d="M485.624 483.607l-60.612-45.089a3.443 3.443 0 0 1 3.449-3.449H542.91a3.443 3.443 0 0 1 3.449 3.449z" class="I"/></g><defs ><path id="B" d="M274.346 961.602l38.437.123s31.168 15.522 35.357 23.161c3.326 6.16-49.647 4.681-70.96 3.819a6.311 6.311 0 0 1-6.037-7.515z"/><path id="C" d="M1032.116 154.431h-96.831a8.255 8.255 0 0 1-8.254-8.254h0a8.255 8.255 0 0 1 8.254-8.254h96.831a8.255 8.255 0 0 1 8.254 8.254h0a8.255 8.255 0 0 1-8.254 8.254z"/><path id="D" d="M1095.561 188.556H935.408a8.255 8.255 0 0 1-8.254-8.254h0a8.255 8.255 0 0 1 8.254-8.254h160.153a8.255 8.255 0 0 1 8.254 8.254h0a8.255 8.255 0 0 1-8.254 8.254z"/><path id="E" d="M1316.818 965.421l-39.299-3.203s-37.082 15.522-41.27 23.161c-3.326 6.16 56.3 4.681 77.613 3.819a6.311 6.311 0 0 0 6.037-7.515z"/><path id="F" d="M613.624 761.657l6.406 6.406 9.732-11.334"/><path id="G" d="M743.963 755.62h-68.989a5.915 5.915 0 0 1-5.913-5.913h0a5.915 5.915 0 0 1 5.913-5.913h68.989a5.915 5.915 0 0 1 5.913 5.913h0a5.915 5.915 0 0 1-5.913 5.913z"/><path id="H" d="M789.176 780.013H674.851a5.915 5.915 0 0 1-5.913-5.913h0a5.915 5.915 0 0 1 5.913-5.913h114.325a5.915 5.915 0 0 1 5.913 5.913h0a5.915 5.915 0 0 1-5.913 5.913z"/></defs></svg>