<svg xmlns="http://www.w3.org/2000/svg" data-name="Layer 1" viewBox="0 0 1500 1080"><line x1="1443.339" x2="1381.126" y1="988.212" y2="988.212" fill="none" stroke="#183d69" stroke-linecap="round" stroke-linejoin="round" stroke-width="2"/><line x1="1139.049" x2="56.661" y1="988.212" y2="988.212" fill="none" stroke="#183d69" stroke-linecap="round" stroke-linejoin="round" stroke-width="2"/><polyline fill="none" stroke="#183d69" stroke-linecap="round" stroke-linejoin="round" stroke-width="2" points="1381.126 988.212 1381.126 821.899 1139.049 821.899 1139.049 988.212"/><polygon fill="#fff" stroke="#153b69" stroke-linecap="round" stroke-linejoin="round" stroke-width="2" points="315.985 928.709 311.304 967.638 275.208 967.392 279.766 928.462 315.985 928.709"/><path fill="#183d69" d="M274.34559,961.60186l38.43673.12317s31.16822,15.52249,35.35687,23.16057c3.32627,6.15973-49.64741,4.68138-70.9601,3.819a6.311,6.311,0,0,1-6.03653-7.51484Z"/><path fill="#183d69" d="M304.03549,704.98751s21.55906,55.19117,25.3781,109.6432c2.83346,39.79184,5.29735,132.1878,5.29735,132.1878H261.65656s8.13085-143.76812-40.28465-212.26429C184.9063,682.68924,304.03549,704.98751,304.03549,704.98751Z"/><polygon fill="#fff" stroke="#153b69" stroke-linecap="round" stroke-linejoin="round" stroke-width="2" points="212.502 928.709 206.589 967.638 170.123 967.392 175.913 928.462 212.502 928.709"/><path fill="#183d69" d="M169.63017,961.60186l38.43673.12317s31.16822,15.52249,35.35687,23.16057c3.32627,6.15973-49.64741,4.68138-70.9601,3.819a6.311,6.311,0,0,1-6.03653-7.51484Z"/><path fill="#183d69" d="M245.88763,719.77086s6.03652,62.82925,2.46389,92.88877C244.77888,842.96547,230.11873,945.217,230.11873,945.217l-77.11983-1.23194s19.58793-87.0986,23.16057-235.42486C176.40587,693.16078,219.40078,685.64594,245.88763,719.77086Z"/><path fill="none" stroke="#fff" stroke-linecap="round" stroke-linejoin="round" stroke-width="2" d="M248.72112,760.54825c.86238,18.23279,1.23195,38.5599-.36956,52.1113"/><path fill="#183d69" d="M274.71519,509.10809s-8.00765,102.37468-66.89465,95.22941,37.57435-97.07733,37.57435-97.07733Z"/><path fill="#183d69" d="M209.05245,609.01888s-67.88024-3.94224-36.712-59.13341,36.83518-75.51828,38.9295-83.40276,37.08159-5.91333,33.63211,28.58116S245.14849,617.02653,209.05245,609.01888Z"/><path fill="#fe835b" d="M301.6948,573.29245l2.34069,131.69506c-49.401,28.45793-127.99918,3.57268-127.99918,3.57268l2.71029-135.39091a30.8099,30.8099,0,0,1,30.79865-30.79865l14.16738-.12316h42.13254l5.54375.2464A30.86746,30.86746,0,0,1,301.6948,573.29245Z"/><path fill="#183d69" d="M279.643,479.04857s14.41378-11.21071-.73918-28.82753c-17.124-19.83434-59.25661-11.45708-66.40188,12.19626-7.63808,24.88533,3.57263,49.89382,11.94989,52.1113Z"/><path fill="#fff" stroke="#153b69" stroke-linecap="round" stroke-linejoin="round" stroke-width="2" d="M277.30225,465.62037l-53.22009,2.46389.12321,22.29823c-2.21749-1.72472-5.29736-3.07986-8.50042-1.72472-6.03653,2.4639-6.6525,20.57348,8.62362,16.38487l-.73918,37.328s-8.37721,7.26851-.1232,16.38487,44.35006,9.85557,38.43673-16.75444l-1.72471-15.39932c10.59474-2.09433,16.50807-11.33392,17.61681-18.10963C280.62852,491.984,277.30225,465.62037,277.30225,465.62037Z"/><path fill="none" stroke="#153b69" stroke-linecap="round" stroke-linejoin="round" stroke-width="2" d="M277.30225,465.62037s3.32627,26.24043.616,42.7485a22.41968,22.41968,0,0,1-11.82669,16.38487s-11.70348,5.17419-23.16057.36957"/><path fill="#183d69" d="M267.32352,468.82343s-5.667,17.49365-42.25574,15.64574l-3.819-19.83434,49.15464-3.57264,12.44267,1.47835-3.07987,16.38487C279.643,479.04857,269.4178,476.58468,267.32352,468.82343Z"/><path fill="#fff" stroke="#153b69" stroke-linecap="round" stroke-linejoin="round" stroke-width="2" d="M405.54788,507.5065c-5.17419,2.21748-12.31946,5.54375-12.31946,5.54375s10.59471-7.0221,15.27616-10.71794c3.44944-2.7103,1.35511-7.63808-3.69584-4.55822-7.0221,4.435-14.53695,9.11643-14.53695,9.11643s11.21068-9.85557,16.38487-14.04417c4.435-3.57264,2.34073-10.59475-3.94224-5.667s-15.15292,11.70348-15.15292,11.70348,10.102-12.19625,12.689-16.01529c3.32627-4.92779.86238-10.71795-5.17419-4.06541-4.435,4.92778-14.90656,15.15292-20.20391,20.32711-.1232-1.47835-1.23194-14.78335-5.54376-14.90656-2.83346-.1232-2.83346,3.20307-2.83346,3.20307l-.1232,23.16057c0,.616.1232,1.23195.1232,1.84792l-19.58793,70.22093L326.2106,568.8574,304.898,604.21426s8.13085,6.5293,27.226,19.588c21.68226,14.90651,39.42228-2.58706,43.48768-29.44355,1.23195-8.50045,11.21072-61.22773,12.31946-69.48178,5.051-2.83347,18.10959-11.21068,20.57348-12.689C411.83078,509.97039,409.98286,505.65858,405.54788,507.5065Z"/><path fill="#fe835b" d="M282.35324,544.71128s32.1538,12.56587,52.97368,24.39252c8.00765,4.55822,2.09432,16.87768-2.46389,28.70433-4.435,11.45708-12.56587,24.51576-20.20391,20.45027-11.08752-5.91332-61.3509-35.8496-61.3509-35.8496Z"/><line x1="301.695" x2="301.695" y1="627.252" y2="596.946" fill="none" stroke="#fff" stroke-linecap="round" stroke-linejoin="round" stroke-width="2"/><polygon fill="#d1e5fd" points="334.095 582.409 262.273 582.409 249.953 667.783 321.776 667.783 334.095 582.409"/><path fill="#fff" stroke="#153b69" stroke-linecap="round" stroke-linejoin="round" stroke-width="2" d="M284.81713,626.38929c-7.51488,2.21749-17.98642,5.29736-17.98642,5.29736s13.55141-7.63809,17.24724-10.22514c4.80459-3.32627,4.55822-9.486-3.32627-5.54376-5.91332,2.9567-19.09516,8.62362-25.62446,11.45708.36957-1.35511,4.06541-13.921.1232-15.64573-2.58709-1.10878-3.69584,1.97109-3.69584,1.97109s-8.37721,21.31265-8.37721,21.43589L182.812,646.59316l12.81223-24.39251-39.54548-12.56587s-8.00764,18.10962-18.10962,42.25574c-9.85557,23.89978,18.7256,35.48,48.0459,24.88532,7.88445-2.83346,79.83013-23.28381,79.83013-23.28381,5.667-.86238,12.56586-1.84792,15.39932-2.46389,4.06541-.73914,3.819-5.42059-.86237-5.17419-5.54376.2464-13.305.73914-13.305.73914s12.19626-2.7103,17.74-4.435c4.06541-1.23194,3.94224-6.5293-1.84792-5.42059-8.00765,1.47835-16.50807,3.203-16.50807,3.203s13.67461-5.051,19.95754-7.02211C291.83924,631.19391,292.20881,624.1718,284.81713,626.38929Z"/><path fill="#fe835b" d="M222.23428,575.26353s-11.45708,32.52341-22.6678,53.71282c-4.31181,8.13081-16.75447,2.58706-28.82753-1.60152-11.58028-3.94224-25.00849-11.82665-21.06628-19.588,5.667-11.33392,26.97961-49.77065,26.97961-49.77065Z"/><path fill="none" stroke="#fff" stroke-linecap="round" stroke-linejoin="round" stroke-width="2" d="M208.80608,609.14205c-2.95666,6.7757-6.15973,13.79781-9.3628,19.71113-1.84792,3.44944-5.051,4.435-9.11639,4.18865"/><path fill="#fe835b" d="M175.6667,566.51674l.98554-8.50045s8.50042-15.27617,31.53783-15.64573l.616,21.55905Z"/><path fill="#fff" d="M1143.72991,774.962H518.64052a12.35568,12.35568,0,0,1-12.31947-12.31946V102.31948A12.35568,12.35568,0,0,1,518.64052,90h625.08939a12.35568,12.35568,0,0,1,12.31946,12.31946V762.64257A12.2768,12.2768,0,0,1,1143.72991,774.962Z"/><path fill="none" stroke="#2084fb" stroke-linecap="round" stroke-linejoin="round" stroke-width="2" d="M539.95317,774.962H518.64052a12.35568,12.35568,0,0,1-12.31947-12.31946V599.53288"/><path fill="none" stroke="#2084fb" stroke-linecap="round" stroke-linejoin="round" stroke-width="2" d="M1156.04937,747.98238v14.66019a12.35568,12.35568,0,0,1-12.31946,12.31946H857.79525"/><path fill="none" stroke="#2084fb" stroke-linecap="round" stroke-linejoin="round" stroke-width="2" d="M506.32105,356.83951V102.31946A12.35568,12.35568,0,0,1,518.64052,90h625.08939a12.35568,12.35568,0,0,1,12.31946,12.31946V560.72658"/><circle cx="860.752" cy="163.917" r="33.509" fill="#13b85b"/><polyline fill="none" stroke="#fff" stroke-linecap="round" stroke-linejoin="round" stroke-width="6" points="849.418 162.808 858.411 171.801 871.963 155.909"/><path fill="#d1e5fd" d="M1032.11562,154.43078H935.28469a8.25453,8.25453,0,0,1-8.25405-8.254h0a8.25453,8.25453,0,0,1,8.25405-8.254h96.83093a8.25451,8.25451,0,0,1,8.254,8.254h0A8.25451,8.25451,0,0,1,1032.11562,154.43078Z"/><path fill="#d1e5fd" d="M1095.56084,188.55569h-160.153a8.25453,8.25453,0,0,1-8.25406-8.254h0a8.25452,8.25452,0,0,1,8.25406-8.254h160.153a8.25451,8.25451,0,0,1,8.254,8.254h0A8.25451,8.25451,0,0,1,1095.56084,188.55569Z"/><circle cx="860.752" cy="267.4" r="33.509" fill="#13b85b"/><polyline fill="none" stroke="#fff" stroke-linecap="round" stroke-linejoin="round" stroke-width="6" points="849.418 266.291 858.411 275.285 871.963 259.393"/><path fill="#d1e5fd" d="M1032.11562,257.91425H935.28469a8.25453,8.25453,0,0,1-8.25405-8.254h0a8.25452,8.25452,0,0,1,8.25405-8.25405h96.83093a8.25451,8.25451,0,0,1,8.254,8.25405h0A8.25452,8.25452,0,0,1,1032.11562,257.91425Z"/><path fill="#d1e5fd" d="M1095.56084,292.03917h-160.153a8.25453,8.25453,0,0,1-8.25406-8.25405h0a8.25453,8.25453,0,0,1,8.25406-8.25405h160.153a8.25451,8.25451,0,0,1,8.254,8.25405h0A8.25451,8.25451,0,0,1,1095.56084,292.03917Z"/><path fill="#fe835b" d="M590.463,246.82674H567.30238a4.94226,4.94226,0,0,1-4.92778-4.92779V213.07142a4.94225,4.94225,0,0,1,4.92778-4.92778H590.463a4.94225,4.94225,0,0,1,4.92778,4.92778V241.899A4.94226,4.94226,0,0,1,590.463,246.82674Z"/><path fill="#fe835b" d="M646.63967,246.82674H623.4791a4.94226,4.94226,0,0,1-4.92779-4.92779V177.83776A4.94227,4.94227,0,0,1,623.4791,172.91h23.16057a4.94227,4.94227,0,0,1,4.92778,4.92779V241.899A4.94226,4.94226,0,0,1,646.63967,246.82674Z"/><path fill="#fe835b" d="M702.93962,246.82674H679.77905a4.94226,4.94226,0,0,1-4.92779-4.92779V135.82839a4.94226,4.94226,0,0,1,4.92779-4.92778h23.16057a4.94226,4.94226,0,0,1,4.92778,4.92778V241.899A4.94226,4.94226,0,0,1,702.93962,246.82674Z"/><path fill="#fe835b" d="M759.1164,246.82674H735.95583a4.94226,4.94226,0,0,1-4.92778-4.92779V195.20821a4.94226,4.94226,0,0,1,4.92778-4.92779H759.1164a4.94226,4.94226,0,0,1,4.92779,4.92779V241.899A4.94231,4.94231,0,0,1,759.1164,246.82674Z"/><line x1="561.389" x2="650.828" y1="278.857" y2="278.857" fill="none" stroke="#fe835b" stroke-linecap="round" stroke-linejoin="round" stroke-width="4"/><line x1="561.389" x2="761.703" y1="298.076" y2="299.431" fill="none" stroke="#fe835b" stroke-linecap="round" stroke-linejoin="round" stroke-width="4"/><polygon fill="#183d69" points="625.327 731.228 559.664 731.228 559.664 651.151 609.189 651.151 625.327 667.29 625.327 731.228"/><polygon fill="#fe835b" points="625.327 731.228 559.664 731.228 559.664 651.151 609.189 651.151 609.189 667.29 625.327 667.29 625.327 731.228"/><path fill="#fff" d="M612.638,704.37154l-12.689-22.05187a.60059.60059,0,0,0-1.10879,0l-9.486,16.50811-5.66692-9.7324a.60058.60058,0,0,0-1.10878,0l-8.74679,15.15292a.67344.67344,0,0,0,.616.98554h37.82076C612.638,705.35708,613.00755,704.74111,612.638,704.37154Z"/><circle cx="587.26" cy="680.595" r="2.71" fill="#fff"/><polygon fill="#183d69" points="938.611 731.351 873.071 731.351 873.071 651.398 922.596 651.398 938.611 667.413 938.611 731.351"/><polygon fill="#fe835b" points="938.611 731.351 873.071 731.351 873.071 651.398 922.596 651.398 922.596 667.413 938.611 667.413 938.611 731.351"/><path fill="#fff" d="M926.0451,704.4947l-12.689-22.05186a.60059.60059,0,0,0-1.10879,0l-9.486,16.50811-5.54375-9.60917a.60058.60058,0,0,0-1.10878,0L887.362,704.4947a.67343.67343,0,0,0,.616.98554h37.82076A.82762.82762,0,0,0,926.0451,704.4947Z"/><circle cx="900.544" cy="680.718" r="2.71" fill="#fff"/><path fill="#d1e5fd" d="M743.59384,682.31967H675.96a8.25453,8.25453,0,0,1-8.25406-8.25405h0a8.25453,8.25453,0,0,1,8.25406-8.25405h67.63387a8.25452,8.25452,0,0,1,8.25405,8.25405h0A8.25452,8.25452,0,0,1,743.59384,682.31967Z"/><path fill="#d1e5fd" d="M790.77736,716.44459H675.96a8.25453,8.25453,0,0,1-8.25406-8.254h0a8.25453,8.25453,0,0,1,8.25406-8.25405H790.77736a8.25453,8.25453,0,0,1,8.25405,8.25405h0A8.41687,8.41687,0,0,1,790.77736,716.44459Z"/><path fill="#d1e5fd" d="M1093.83609,699.81332H980.25065a8.25453,8.25453,0,0,1-8.25406-8.25405h0a8.25453,8.25453,0,0,1,8.25406-8.25405h113.58544a8.25451,8.25451,0,0,1,8.254,8.25405h0A8.25432,8.25432,0,0,1,1093.83609,699.81332Z"/><path fill="#d1e5fd" d="M1022.01365,667.90589h-41.763a8.25453,8.25453,0,0,1-8.25406-8.25405h0a8.25454,8.25454,0,0,1,8.25406-8.25406h41.763a8.25453,8.25453,0,0,1,8.25405,8.25406h0A8.33453,8.33453,0,0,1,1022.01365,667.90589Z"/><path fill="#d1e5fd" d="M1069.93631,731.59752H980.25065a8.25454,8.25454,0,0,1-8.25406-8.25406h0a8.25453,8.25453,0,0,1,8.25406-8.25405h89.68566a8.25451,8.25451,0,0,1,8.254,8.25405h0A8.33432,8.33432,0,0,1,1069.93631,731.59752Z"/><path fill="#fff" stroke="#153b69" stroke-linecap="round" stroke-linejoin="round" stroke-width="2" d="M1092.35781,542.617s-17.61688-10.71795-22.29819-13.79781c-3.69584-2.58706-1.47827-7.02211,3.07987-4.80462,5.54375,2.58706,13.05859,6.5293,13.05859,6.5293s-11.21068-8.00765-16.01529-12.07306c-3.57268-2.9567-1.10879-8.25405,4.18864-4.80462,7.39168,4.92779,15.27616,10.22514,15.27616,10.22514s-11.70348-10.96435-17.00091-15.64573c-4.68146-4.06541-2.09425-11.45708,4.435-5.91333,6.65254,5.54376,15.769,13.0586,15.769,13.0586s-10.34837-13.4282-13.0586-17.61681c-3.4495-5.42056-.616-11.58029,5.66693-4.18861,4.68145,5.54376,15.52249,16.87764,20.94308,22.54463.12316-1.60151,1.84792-15.89209,6.52937-15.76889,3.07987,0,2.9567,3.57264,2.9567,3.57264l-.73913,24.88528,43.61092,66.52509,49.03151,1.10878-14.78335,41.763s-36.34241,1.35511-52.604-13.67457C1129.06972,614.06983,1092.35781,542.617,1092.35781,542.617Z"/><path fill="#2084fb" d="M1259.90248,588.0758s-25.00857-4.18865-73.424,2.7103c-6.28289.86237-14.29054,54.94476,2.71023,56.17671,28.21159,2.09432,60.48852-5.79017,60.48852-5.79017Z"/><polygon fill="#fff" stroke="#153b69" stroke-linecap="round" stroke-linejoin="round" stroke-width="2" points="1268.896 934.745 1279.737 968.254 1315.833 968.008 1304.745 929.078 1268.896 934.745"/><path fill="#183d69" d="M1316.81833,965.42087l-39.29911-3.203s-37.08155,15.52249-41.2702,23.16057c-3.32619,6.15973,56.29988,4.68138,77.61261,3.819a6.31107,6.31107,0,0,0,6.03656-7.51484Z"/><polygon fill="#fff" stroke="#153b69" stroke-linecap="round" stroke-linejoin="round" stroke-width="2" points="1172.188 934.745 1173.173 968.254 1209.27 968.008 1208.038 929.078 1172.188 934.745"/><path fill="#183d69" d="M1281.70786,737.88041l-48.16906,8.87s-46.69078,9.11643-67.26422,41.147a18.02416,18.02416,0,0,0-1.10878,1.60151,48.08239,48.08239,0,0,0-5.9134,13.42824c-.12317.36957-.24633.86238-.36965,1.23195h0a41.68826,41.68826,0,0,0-.98562,4.18865c-10.47154,48.16906,8.99327,139.33307,8.99327,139.33307l51.24893.73913-.8623-125.65849,64.06119-54.5752Z"/><path fill="#183d69" d="M1210.255,965.42087l-39.29911-3.203s-37.08154,15.52249-41.27019,23.16057c-3.32619,6.15973,56.29988,4.68138,77.6126,3.819a6.31108,6.31108,0,0,0,6.03657-7.51484Z"/><path fill="#183d69" d="M1356.36377,781.24493l-3.57268-46.81395s-95.10617-4.68138-127.87606,50.50979c-21.06625,29.68987,38.56,162.74012,38.56,162.74012l52.48088-6.65254-30.79866-118.26682h32.52341A38.54256,38.54256,0,0,0,1356.36377,781.24493Z"/><polygon fill="#fff" stroke="#153b69" stroke-linecap="round" stroke-linejoin="round" stroke-width="2" points="1211.61 656.942 1208.777 720.51 1245.242 718.662 1244.749 666.674 1211.61 656.942"/><path fill="#2084fb" d="M1222.32812,620.84553l11.21068,125.90491c84.142,19.09516,119.25244-12.31946,119.25244-12.31946l-7.76132-119.99158a30.7426,30.7426,0,0,0-32.27692-29.19714l-14.16738.616-42.1325,2.09432-5.54376.49281A30.98984,30.98984,0,0,0,1222.32812,620.84553Z"/><path fill="none" stroke="#fff" stroke-linecap="round" stroke-linejoin="round" stroke-width="2" d="M1224.91518,606.80139a31.70984,31.70984,0,0,0-2.58706,14.04422l2.83354,56.79268"/><path fill="#183d69" d="M1240.19134,529.4352s-14.90651-10.47155-.49281-28.82753c16.13847-20.57352,58.64061-14.04418,66.89474,9.23955,8.74678,24.51576-1.35511,50.017-9.60924,52.48088Z"/><path fill="#fff" stroke="#153b69" stroke-linecap="round" stroke-linejoin="round" stroke-width="2" d="M1242.03926,516.007h53.22l.8623,22.2982c2.21757-1.84792,5.17412-3.32627,8.3773-2.09433,6.03656,2.21749,7.51484,20.20395-7.88449,16.75444l1.97109,32.893s7.39167,7.88448-6.03657,21.06624c-10.34838,10.22514-47.18359,3.819-31.66095-19.71113l.73913-11.21068c-10.71787-1.60152-17.00091-10.59471-18.47919-17.24725C1239.8217,542.49379,1242.03926,516.007,1242.03926,516.007Z"/><path fill="none" stroke="#153b69" stroke-linecap="round" stroke-linejoin="round" stroke-width="2" d="M1242.03926,516.007s-2.21756,26.36368,1.232,42.74855a21.71059,21.71059,0,0,0,12.56579,15.76889s11.94981,4.68138,23.03733-.616"/><polygon fill="#d1e5fd" points="1141.266 618.998 1234.278 614.316 1255.837 724.083 1162.825 728.764 1141.266 618.998"/><path fill="#fff" stroke="#153b69" stroke-linecap="round" stroke-linejoin="round" stroke-width="2" d="M1214.69,665.19559c7.76132,1.97109,18.47919,4.55822,18.47919,4.55822s-14.16738-7.02211-18.10955-9.486c-5.051-3.203-5.17411-9.36276,3.07987-5.79016,6.15973,2.71029,19.8343,7.88448,26.73317,10.34837-.49281-1.35511-4.80462-14.04421-.98562-15.89213,2.58706-1.23195,3.94217,1.84792,3.94217,1.84792s9.60924,21.31265,9.7324,21.43589l62.70609,13.79781-3.57268-24.63892,41.02387-4.06541s2.46389,10.22514,6.03656,33.01614c4.18865,25.994-8.74678,36.46558-45.21236,26.61-8.254-2.21749-83.15636-24.88533-83.15636-24.88533-5.79008-.616-12.81227-1.23194-15.769-1.72475-4.18864-.616-4.18864-5.29736.616-5.29736,5.66692,0,13.5514.12317,13.5514.12317s-12.56579-2.09432-18.23286-3.57267c-4.18865-1.10879-4.31181-6.5293,1.47828-5.66693,8.254,1.10879,16.8776,2.4639,16.8776,2.4639s-14.16738-4.435-20.57344-6.15973C1207.7911,670.493,1206.9288,663.34767,1214.69,665.19559Z"/><path fill="#2084fb" d="M1302.52778,617.3961a232.4804,232.4804,0,0,0,5.66693,42.25574c2.09424,8.99319,15.52249,6.89886,28.21159,5.91332,12.1963-.86238,27.10281-4.92778,25.50122-13.42824-2.46389-12.44263-11.94981-45.582-11.94981-45.582Z"/><path fill="none" stroke="#fff" stroke-linecap="round" stroke-linejoin="round" stroke-width="2" d="M1304.86851,642.28143c.73914,5.29735,1.84792,11.21068,3.203,17.37041.8623,3.819,3.69584,5.54375,7.638,6.40613"/><path fill="#2084fb" d="M1349.83454,606.67815s-5.79008-22.791-37.08154-21.31265l32.27692,29.19714Z"/><path fill="none" stroke="#fff" stroke-linecap="round" stroke-linejoin="round" stroke-width="2" d="M1225.03835,784.94077c-5.051,7.14527-5.54376,20.32711-3.07987,36.34241"/><path fill="#fff" stroke="#2084fb" stroke-linecap="round" stroke-linejoin="round" stroke-width="2" d="M1093.22012,611.11321H647.62528a12.35568,12.35568,0,0,1-12.31946-12.31946V359.79621a12.35568,12.35568,0,0,1,12.31946-12.31946h445.595a12.35568,12.35568,0,0,1,12.31946,12.31946V598.79375A12.35591,12.35591,0,0,1,1093.22012,611.11321Z"/><line x1="899.805" x2="972.859" y1="395.523" y2="395.523" fill="none" stroke="#2084fb" stroke-linecap="round" stroke-linejoin="round" stroke-width="2"/><line x1="899.805" x2="1060.45" y1="427.553" y2="427.553" fill="none" stroke="#2084fb" stroke-linecap="round" stroke-linejoin="round" stroke-width="2"/><line x1="899.805" x2="1029.036" y1="459.584" y2="459.584" fill="none" stroke="#2084fb" stroke-linecap="round" stroke-linejoin="round" stroke-width="2"/><line x1="899.805" x2="1060.45" y1="491.614" y2="491.614" fill="none" stroke="#2084fb" stroke-linecap="round" stroke-linejoin="round" stroke-width="2"/><line x1="899.805" x2="996.02" y1="523.645" y2="523.645" fill="none" stroke="#2084fb" stroke-linecap="round" stroke-linejoin="round" stroke-width="2"/><line x1="899.805" x2="1060.45" y1="555.676" y2="555.676" fill="none" stroke="#2084fb" stroke-linecap="round" stroke-linejoin="round" stroke-width="2"/><path fill="#d1e5fd" d="M849.7876,479.41814a85.86666,85.86666,0,1,1-85.86665-85.86665A85.8576,85.8576,0,0,1,849.7876,479.41814Z"/><path fill="#2084fb" d="M849.7876,479.41814H763.92095V393.55149A85.93656,85.93656,0,0,1,849.7876,479.41814Z"/><path fill="#d1e5fd" stroke="#2084fb" stroke-linecap="round" stroke-linejoin="round" stroke-width="2" d="M569.51987,634.88975H771.68219l61.47414,61.47414V979.46508a8.78047,8.78047,0,0,1-8.74679,8.74679H569.51987a8.78047,8.78047,0,0,1-8.74678-8.74679V643.63654A8.62489,8.62489,0,0,1,569.51987,634.88975Z"/><path fill="#fff" stroke="#2084fb" stroke-linecap="round" stroke-linejoin="round" stroke-width="2" d="M569.51987,634.88975H771.68219v61.47414h61.47414V979.46508a8.78047,8.78047,0,0,1-8.74679,8.74679H569.51987a8.78047,8.78047,0,0,1-8.74678-8.74679V643.63654A8.62489,8.62489,0,0,1,569.51987,634.88975Z"/><circle cx="621.631" cy="762.396" r="23.9" fill="#13b85b"/><polyline fill="none" stroke="#fff" stroke-linecap="round" stroke-linejoin="round" stroke-width="6" points="613.624 761.657 620.03 768.063 629.762 756.729"/><path fill="#d1e5fd" d="M743.96341,755.62046h-68.989a5.91463,5.91463,0,0,1-5.91333-5.91332h0a5.91464,5.91464,0,0,1,5.91333-5.91333h68.989a5.91463,5.91463,0,0,1,5.91332,5.91333h0A5.91453,5.91453,0,0,1,743.96341,755.62046Z"/><path fill="#d1e5fd" d="M789.17584,780.013H674.85126a5.91462,5.91462,0,0,1-5.91332-5.91332h0a5.91463,5.91463,0,0,1,5.91332-5.91333H789.17584a5.91464,5.91464,0,0,1,5.91333,5.91333h0A5.91458,5.91458,0,0,1,789.17584,780.013Z"/><circle cx="621.631" cy="835.697" r="23.9" fill="#13b85b"/><polyline fill="none" stroke="#fff" stroke-linecap="round" stroke-linejoin="round" stroke-width="6" points="613.624 834.958 620.03 841.364 629.762 830.03"/><path fill="#d1e5fd" d="M743.96341,828.92126h-68.989a5.91464,5.91464,0,0,1-5.91333-5.91333h0a5.91464,5.91464,0,0,1,5.91333-5.91333h68.989a5.91463,5.91463,0,0,1,5.91332,5.91333h0A5.99554,5.99554,0,0,1,743.96341,828.92126Z"/><path fill="#d1e5fd" d="M789.17584,853.19061H674.85126a5.91463,5.91463,0,0,1-5.91332-5.91333h0a5.91462,5.91462,0,0,1,5.91332-5.91332H789.17584a5.91463,5.91463,0,0,1,5.91333,5.91332h0A5.91463,5.91463,0,0,1,789.17584,853.19061Z"/><circle cx="621.631" cy="908.875" r="23.9" fill="#13b85b"/><polyline fill="none" stroke="#fff" stroke-linecap="round" stroke-linejoin="round" stroke-width="6" points="613.624 908.135 620.03 914.542 629.762 903.208"/><path fill="#d1e5fd" d="M743.96341,902.09888h-68.989a5.91463,5.91463,0,0,1-5.91333-5.91332h0a5.91464,5.91464,0,0,1,5.91333-5.91333h68.989a5.91463,5.91463,0,0,1,5.91332,5.91333h0A5.91458,5.91458,0,0,1,743.96341,902.09888Z"/><path fill="#d1e5fd" d="M789.17584,926.4914H674.85126a5.91463,5.91463,0,0,1-5.91332-5.91333h0a5.91462,5.91462,0,0,1,5.91332-5.91332H789.17584a5.91463,5.91463,0,0,1,5.91333,5.91332h0A5.9956,5.9956,0,0,1,789.17584,926.4914Z"/><path fill="#d1e5fd" d="M581.59293,387.26859H389.28618a12.35568,12.35568,0,0,0-12.31946,12.31946V555.05966a12.35568,12.35568,0,0,0,12.31946,12.31946H581.593a12.35568,12.35568,0,0,0,12.31947-12.31946V399.58805A12.2769,12.2769,0,0,0,581.59293,387.26859Z"/><path fill="#fff" stroke="#2084fb" stroke-linecap="round" stroke-linejoin="round" stroke-width="2" d="M542.90987,518.47085H428.46205a3.44341,3.44341,0,0,1-3.44944-3.44944V438.51755a3.44341,3.44341,0,0,1,3.44944-3.44943H542.90987a3.4434,3.4434,0,0,1,3.44943,3.44943v76.50386A3.52381,3.52381,0,0,1,542.90987,518.47085Z"/><path fill="#fff" stroke="#2084fb" stroke-linecap="round" stroke-linejoin="round" stroke-width="2" d="M485.62438,470.17855l-60.61177,45.08919a3.44341,3.44341,0,0,0,3.44944,3.44944H542.90987a3.4434,3.4434,0,0,0,3.44943-3.44944Z"/><path fill="#d1e5fd" stroke="#2084fb" stroke-linecap="round" stroke-linejoin="round" stroke-width="2" d="M485.62438,483.60679l-60.61177-45.08924a3.44341,3.44341,0,0,1,3.44944-3.44943H542.90987a3.4434,3.4434,0,0,1,3.44943,3.44943Z"/></svg>