<svg xmlns="http://www.w3.org/2000/svg" viewBox="0 0 800 800" width="800" height="800" preserveAspectRatio="xMidYMid meet" style="width: 100%; height: 100%; transform: translate3d(0px, 0px, 0px); content-visibility: visible;"><defs><clipPath id="__lottie_element_55424"><rect width="800" height="800" x="0" y="0"></rect></clipPath></defs><g clip-path="url(#__lottie_element_55424)"><g transform="matrix(1,0,0,1,400,400)" opacity="1" style="display: block;"><g opacity="1" transform="matrix(1,0,0,1,0,0)"><path fill="rgb(235,238,247)" fill-opacity="1" d=" M-162.00999450683594,268.49200439453125 C-162.00999450683594,256.447998046875 -89.73300170898438,246.68499755859375 -0.5740000009536743,246.68499755859375 C88.58499908447266,246.68499755859375 160.86300659179688,256.447998046875 160.86300659179688,268.49200439453125 C160.86300659179688,280.5360107421875 88.58499908447266,290.29901123046875 -0.5740000009536743,290.29901123046875 C-89.73300170898438,290.29901123046875 -162.00999450683594,280.5360107421875 -162.00999450683594,268.49200439453125z"></path></g></g><g transform="matrix(1,0,0,1,400,400)" opacity="1" style="display: block;"><g opacity="1" transform="matrix(1,0,0,1,0,0)"><g opacity="1" transform="matrix(1,0,0,1,0,0)"><path stroke-linecap="round" stroke-linejoin="round" fill-opacity="0" stroke="rgb(127,127,244)" stroke-opacity="1" stroke-width="2" d=" M-106.81800079345703,87.08499908447266 C-85.13200378417969,101.47799682617188 -74.86199951171875,91.37200164794922 -73.697998046875,83.40599822998047 C-63.6879997253418,83.09100341796875 -54.76300048828125,71.2249984741211 -61.652000427246094,54.167999267578125"></path></g><g opacity="1" transform="matrix(1,0,0,1,0,0)"><path stroke-linecap="round" stroke-linejoin="round" fill-opacity="0" stroke="rgb(127,127,244)" stroke-opacity="1" stroke-width="2" d=" M-107.1510009765625,76.59600067138672 C-96.00199890136719,91.14399719238281 -80.52300262451172,91.5739974975586 -74.4000015258789,82.5510025024414 C-67.01699829101562,79.99700164794922 -59.17399978637695,66.93199920654297 -69.71199798583984,49.51900100708008"></path></g><g opacity="1" transform="matrix(1,0,0,1,0,0)"><path stroke-linecap="round" stroke-linejoin="round" fill-opacity="0" stroke="rgb(127,127,244)" stroke-opacity="1" stroke-width="2" d=" M-103.34100341796875,62.805999755859375 C-102.38700103759766,68.54000091552734 -87.55999755859375,91.23999786376953 -75.46399688720703,81.31400299072266 C-68.0790023803711,79.0790023803711 -67.23500061035156,59.63800048828125 -77.4469985961914,46.59199905395508"></path></g><g opacity="1" transform="matrix(1,0,0,1,0,0)"><path stroke-linecap="round" stroke-linejoin="round" fill-opacity="0" stroke="rgb(127,127,244)" stroke-opacity="1" stroke-width="2" d=" M-76.42900085449219,55.53200149536133 C-74.822998046875,59.053001403808594 -73.79199981689453,72.94400024414062 -75.46399688720703,81.31400299072266 C-82.75299835205078,78.98899841308594 -93.05799865722656,69.08000183105469 -94.95999908447266,64.71600341796875"></path></g><g opacity="1" transform="matrix(1,0,0,1,0,0)"><path stroke-linecap="round" stroke-linejoin="round" fill-opacity="0" stroke="rgb(127,127,244)" stroke-opacity="1" stroke-width="2" d=" M-75.46399688720703,81.31400299072266 C-76.31700134277344,73.11499786376953 -77.33499908447266,64.17400360107422 -83.7750015258789,52.47600173950195"></path></g><g opacity="1" transform="matrix(1,0,0,1,0,0)"><path stroke-linecap="round" stroke-linejoin="round" fill-opacity="0" stroke="rgb(127,127,244)" stroke-opacity="1" stroke-width="2" d=" M-91.76899719238281,51.03799819946289 C-91.23300170898438,57.707000732421875 -81.61199951171875,74.59300231933594 -75.6780014038086,79.3030014038086"></path></g><g opacity="1" transform="matrix(1,0,0,1,0,0)"><path stroke-linecap="round" stroke-linejoin="round" fill-opacity="0" stroke="rgb(127,127,244)" stroke-opacity="1" stroke-width="2" d=" M-73.697998046875,83.40599822998047 C-71.0469970703125,89.52400207519531 -46.395999908447266,122.81199645996094 -34.053001403808594,134.60400390625"></path></g></g><g opacity="1" transform="matrix(0.9999684691429138,0.007943026721477509,-0.007943026721477509,0.9999684691429138,1.7490425109863281,-0.3902130126953125)"><path fill="rgb(223,227,247)" fill-opacity="1" d=" M52.46699905395508,221.34100341796875 C54.358001708984375,227.56100463867188 111.43900299072266,249.60000610351562 116.36799621582031,238.95799255371094 C120.20600128173828,230.67100524902344 111.5009994506836,226.41400146484375 108.22100067138672,225.11599731445312 C103.0510025024414,223.0709991455078 90.2959976196289,218.9669952392578 92.41400146484375,215.3800048828125 C96.24700164794922,208.88900756835938 127.18199920654297,223.38999938964844 134.93499755859375,226.45700073242188 C142.68800354003906,229.5240020751953 158.58099365234375,233.3730010986328 166.06100463867188,227.9759979248047 C173.54100036621094,222.57899475097656 175.9550018310547,219.5290069580078 162.08900451660156,214.91400146484375 C148.22300720214844,210.2989959716797 119.7770004272461,204.61900329589844 128.98699951171875,199.20899963378906 C138.19700622558594,193.7989959716797 159.25,203.3470001220703 173.322998046875,204.38699340820312 C187.39599609375,205.427001953125 214.53900146484375,202.6300048828125 209.18299865722656,193.5030059814453 C204.3939971923828,185.34100341796875 162.82000732421875,188.218994140625 165.5,181.44500732421875 C167.6439971923828,176.0260009765625 179.18299865722656,179.5469970703125 197.7570037841797,179.23399353027344 C216.33099365234375,178.92100524902344 233.86000061035156,178.43699645996094 234.69000244140625,167.3820037841797 C235.3560028076172,158.50599670410156 223.50599670410156,161.21600341796875 213.48899841308594,161.25799560546875 C203.4720001220703,161.3000030517578 189.5189971923828,160.82899475097656 192.88499450683594,156.24200439453125 C196.2519989013672,151.65499877929688 245.25,156.1840057373047 249.5240020751953,142.08700561523438 C252.3509979248047,132.75999450683594 241.58999633789062,135.1179962158203 229.9320068359375,134.51100158691406 C218.2740020751953,133.9040069580078 214.22000122070312,132.82200622558594 215.11300659179688,130.56399536132812 C216.00599670410156,128.30599975585938 231.86599731445312,126.5719985961914 240.6009979248047,125.8489990234375 C249.33599853515625,125.1259994506836 261.61700439453125,121.1050033569336 261.2250061035156,112.94200134277344 C260.8330078125,104.77899932861328 246.95599365234375,107.38500213623047 242.05299377441406,109.53700256347656 C237.14999389648438,111.68900299072266 231.55999755859375,111.65299987792969 230.93299865722656,110.18599700927734 C230.30599975585938,108.71900177001953 245.98399353027344,100.47200012207031 240.46400451660156,93.06600189208984 C234.94500732421875,85.66000366210938 220.72900390625,95.00700378417969 217.3350067138672,103.58799743652344 C213.9409942626953,112.16899871826172 209.0570068359375,123.64299774169922 205.92599487304688,122.40399932861328 C202.7949981689453,121.16600036621094 206.7239990234375,111.2300033569336 209.8209991455078,103.4020004272461 C212.91799926757812,95.5739974975586 212.35899353027344,91.75599670410156 210.27200317382812,90.93000030517578 C203.31399536132812,88.1780014038086 193.4199981689453,96.04399871826172 191.15699768066406,101.76399993896484 C188.8939971923828,107.48400115966797 180.38499450683594,141.19900512695312 175.76300048828125,139.37100219726562 C171.14100646972656,137.54299926757812 175.66600036621094,125.23100280761719 178.16700744628906,118.90899658203125 C180.66799926757812,112.58699798583984 186.50399780273438,97.83399963378906 178.75100708007812,94.76699829101562 C170.9980010986328,91.69999694824219 158.96200561523438,109.91899871826172 154.94400024414062,122.25700378417969 C150.92599487304688,134.59500122070312 145.92799377441406,155.0760040283203 142.35000610351562,153.66000366210938 C138.77200317382812,152.2449951171875 140.01400756835938,135.1529998779297 143.05099487304688,127.47599792480469 C146.08799743652344,119.79900360107422 155.38299560546875,107.63400268554688 145.84100341796875,103.85900115966797 C136.2989959716797,100.08399963378906 129.7239990234375,111.03800201416016 123.76100158691406,126.11199951171875 C121.2699966430664,132.41000366210938 115.26100158691406,148.06399536132812 117.21099853515625,158.61300659179688 C119.43099975585938,170.625 118.56600189208984,176.9739990234375 115.7979965209961,177.6269989013672 C110.28299713134766,178.927001953125 109.74099731445312,168.093994140625 111.10800170898438,160.2779998779297 C112.4749984741211,152.46200561523438 118.18699645996094,128.43299865722656 105.78500366210938,128.40199279785156 C93.38200378417969,128.3699951171875 93.72100067138672,148.8730010986328 93.04000091552734,157.13400268554688 C92.35900115966797,165.39500427246094 92.49299621582031,194.6959991455078 86.08300018310547,194.77200317382812 C79.6729965209961,194.84800720214844 83.71900177001953,179.38699340820312 84.46199798583984,174.45799255371094 C85.20500183105469,169.5290069580078 83.48500061035156,158.83900451660156 79.20800018310547,160.71600341796875 C74.93099975585938,162.59300231933594 49.095001220703125,210.25 52.46699905395508,221.34100341796875z"></path></g><g opacity="1" transform="matrix(0.9976655840873718,-0.06828872114419937,0.06828872114419937,0.9976655840873718,-14.080892562866211,-1.91156005859375)"><g opacity="1" transform="matrix(1,0,0,1,0,0)"><path fill="rgb(85,85,198)" fill-opacity="1" d=" M-43.92499923706055,204.5500030517578 C-35.11899948120117,191.59800720214844 -36.78799819946289,165.56500244140625 -48.38600158691406,155.4409942626953 C-59.98400115966797,145.31700134277344 -72.197998046875,153.36000061035156 -76.95600128173828,146.13299560546875 C-81.71399688720703,138.906005859375 -77.9530029296875,120.83499908447266 -88.03099822998047,114.6989974975586 C-105.94000244140625,103.7959976196289 -118.38300323486328,136.03599548339844 -132.4010009765625,129.35499572753906 C-146.41900634765625,122.67400360107422 -138.3470001220703,105.1500015258789 -150.47000122070312,96.85199737548828 C-162.59300231933594,88.55400085449219 -171.3209991455078,115.76000213623047 -188.87100219726562,112.14399719238281 C-206.42100524902344,108.52799987792969 -245.06700134277344,107.64800262451172 -242.89999389648438,130.01600646972656 C-241.18699645996094,147.6959991455078 -221.5019989013672,136.77699279785156 -216.302001953125,142.41200256347656 C-210.37100219726562,148.83999633789062 -217.6230010986328,157.34100341796875 -209.53500366210938,162.9929962158203 C-198.10699462890625,170.97999572753906 -184.50900268554688,158.48199462890625 -176.21400451660156,166.58599853515625 C-167.91900634765625,174.69000244140625 -176.2220001220703,187.5570068359375 -161.24000549316406,190.6439971923828 C-142.69200134277344,194.46499633789062 -138.0919952392578,164.9219970703125 -118.697998046875,180.51800537109375 C-99.30400085449219,196.11399841308594 -127.78299713134766,210.86599731445312 -117.16799926757812,222.1820068359375 C-105.58200073242188,234.53399658203125 -85.65899658203125,211.34100341796875 -79.96499633789062,221.36900329589844 C-72.21700286865234,235.01300048828125 -57.58300018310547,224.64100646972656 -43.92499923706055,204.5500030517578z"></path></g><g opacity="1" transform="matrix(1,0,0,1,0,0)"><path stroke-linecap="round" stroke-linejoin="round" fill-opacity="0" stroke="rgb(106,106,226)" stroke-opacity="1" stroke-width="2" d=" M-41.87799835205078,200.9149932861328 C-44.974998474121094,198.08599853515625 -48.74100112915039,187.49400329589844 -56.44599914550781,185.90699768066406 C-64.1510009765625,184.31900024414062 -72.52400207519531,185.85000610351562 -80.36599731445312,182.16799926757812 C-97.86100006103516,173.95399475097656 -98.8479995727539,157.09100341796875 -109.19300079345703,151.61399841308594 C-116.8759994506836,147.54600524902344 -120.38500213623047,156.22300720214844 -131.22900390625,153.99000549316406 C-142.072998046875,151.7570037841797 -138.07200622558594,144.99400329589844 -151.2760009765625,142.2740020751953 C-162.97500610351562,139.86399841308594 -163.8280029296875,147.7209930419922 -176.0590057373047,145.7949981689453 C-194.427001953125,142.9029998779297 -198.4340057373047,129.3179931640625 -204.85000610351562,128.33599853515625 C-210.47300720214844,127.4749984741211 -212.85499572753906,131.20700073242188 -212.85499572753906,131.20700073242188"></path></g></g></g><g transform="matrix(1,0,0,1,399.9777526855469,400)" opacity="1" style="display: block;"><g opacity="1" transform="matrix(1,0,0,1,35,0)"><path fill="rgb(240,187,66)" fill-opacity="1" d=" M40.68199920654297,-256.0119934082031 C40.68299865722656,-252.98199462890625 39.534000396728516,-249.94200134277344 37.38999938964844,-247.79800415039062 C35.24700164794922,-245.656005859375 32.39699935913086,-244.4770050048828 29.365999221801758,-244.4759979248047 C29.365999221801758,-244.4759979248047 12.70300006866455,-244.47500610351562 12.70300006866455,-244.47500610351562 C9.67300033569336,-244.4770050048828 6.826000213623047,-245.656005859375 4.679999828338623,-247.7989959716797 C2.5380001068115234,-249.94200134277344 1.3580000400543213,-252.91700744628906 1.3580000400543213,-255.947998046875 C-0.625,-256.125 -3.0940001010894775,-256.343994140625 -4.692999839782715,-256.0409851074219 C-4.691999912261963,-251.38800048828125 -2.9100000858306885,-246.79100036621094 0.3799999952316284,-243.49899291992188 C3.6730000972747803,-240.20799255371094 8.048999786376953,-238.39599609375 12.704999923706055,-238.39599609375 C12.704999923706055,-238.39599609375 29.365999221801758,-238.39599609375 29.365999221801758,-238.39599609375 C34.02199935913086,-238.39700317382812 38.39699935913086,-240.20700073242188 41.6879997253418,-243.5 C44.98099899291992,-246.79200744628906 46.79399871826172,-251.2760009765625 46.79499816894531,-255.9290008544922 C45.5629997253418,-256.0450134277344 41.96900177001953,-256.06500244140625 40.68199920654297,-256.0119934082031z"></path></g><g opacity="1" transform="matrix(0.9707451462745667,-0.24011211097240448,0.24011211097240448,0.9707451462745667,59.62267303466797,1.7989501953125)"><path fill="rgb(127,127,242)" fill-opacity="1" d=" M29.43199920654297,-273.1960144042969 C29.43199920654297,-273.1960144042969 12.770000457763672,-273.1969909667969 12.770000457763672,-273.1969909667969 C8.114999771118164,-273.1960144042969 3.7360000610351562,-271.385009765625 0.4449999928474426,-268.0920104980469 C-2.8450000286102295,-264.802001953125 -4.6579999923706055,-260.42401123046875 -4.658999919891357,-255.77099609375 C-4.6570000648498535,-251.11500549316406 -2.8440001010894775,-246.73800659179688 0.44699999690055847,-243.44700622558594 C3.73799991607666,-240.15499877929688 8.11299991607666,-238.34300231933594 12.767999649047852,-238.34300231933594 C12.767999649047852,-238.34300231933594 29.430999755859375,-238.34300231933594 29.430999755859375,-238.34300231933594 C34.084999084472656,-238.34300231933594 38.4630012512207,-240.15699768066406 41.75299835205078,-243.44700622558594 C45.04499816894531,-246.73899841308594 46.858001708984375,-251.11599731445312 46.856998443603516,-255.77000427246094 C46.858001708984375,-265.3789978027344 39.03900146484375,-273.197998046875 29.43199920654297,-273.1960144042969z M40.77899932861328,-255.77099609375 C40.779998779296875,-252.73899841308594 39.59700012207031,-249.88900756835938 37.45399856567383,-247.7469940185547 C35.31100082397461,-245.60299682617188 32.4630012512207,-244.4239959716797 29.433000564575195,-244.42300415039062 C29.433000564575195,-244.42300415039062 12.770000457763672,-244.42300415039062 12.770000457763672,-244.42300415039062 C9.73900032043457,-244.42300415039062 6.888999938964844,-245.60299682617188 4.745999813079834,-247.7480010986328 C2.6029999256134033,-249.88999938964844 1.4210000038146973,-252.73899841308594 1.4220000505447388,-255.77000427246094 C1.4220000505447388,-258.8009948730469 2.6040000915527344,-261.64898681640625 4.745999813079834,-263.79400634765625 C6.888999938964844,-265.9360046386719 9.73799991607666,-267.1159973144531 12.769000053405762,-267.1159973144531 C12.769000053405762,-267.1159973144531 29.43000030517578,-267.1159973144531 29.43000030517578,-267.1159973144531 C35.6879997253418,-267.1180114746094 40.77899932861328,-262.0260009765625 40.77899932861328,-255.77099609375z"></path></g><g opacity="1" transform="matrix(1,0,0,1,35,0)"><path fill="rgb(240,187,66)" fill-opacity="1" d=" M1.3569999933242798,-255.94900512695312 C1.3559999465942383,-258.97900390625 2.5360000133514404,-261.8299865722656 4.679999828338623,-263.9729919433594 C6.822999954223633,-266.114990234375 9.67300033569336,-267.2950134277344 12.704000473022461,-267.2950134277344 C12.704000473022461,-267.2950134277344 29.367000579833984,-267.2959899902344 29.367000579833984,-267.2959899902344 C32.39699935913086,-267.29400634765625 35.24599838256836,-266.11700439453125 37.38999938964844,-263.97198486328125 C39.53200149536133,-261.8290100097656 40.71200180053711,-258.97900390625 40.71200180053711,-255.947998046875 C42.69499969482422,-255.77099609375 45.19599914550781,-255.64599609375 46.79499816894531,-255.94900512695312 C46.79399871826172,-260.60198974609375 44.981998443603516,-264.98199462890625 41.689998626708984,-268.2720031738281 C38.39699935913086,-271.56298828125 34.02199935913086,-273.375 29.365999221801758,-273.375 C29.365999221801758,-273.375 12.704000473022461,-273.375 12.704000473022461,-273.375 C8.04800033569336,-273.375 3.6740000247955322,-271.56298828125 0.38199999928474426,-268.27099609375 C-2.9110000133514404,-264.9779968261719 -4.7230000495910645,-260.60198974609375 -4.723999977111816,-255.94900512695312 C-3.492000102996826,-255.83299255371094 0.07000000029802322,-255.89599609375 1.3569999933242798,-255.94900512695312z"></path></g></g><g transform="matrix(1,0,0,1,400,400)" opacity="1" style="display: block;"><g opacity="1" transform="matrix(1,0,0,1,0,0)"><path stroke-linecap="round" stroke-linejoin="round" fill-opacity="0" stroke="rgb(208,212,246)" stroke-opacity="1" stroke-width="2" d=" M43.935001373291016,134.8719940185547 C43.935001373291016,134.8719940185547 106.0479965209961,134.8719940185547 106.0479965209961,134.8719940185547 C113.8270034790039,134.8719940185547 120.13400268554688,128.5659942626953 120.13400268554688,120.78700256347656 C120.13400268554688,120.78700256347656 120.13400268554688,61.558998107910156 120.13400268554688,61.558998107910156"></path></g><g opacity="1" transform="matrix(1,0,0,1,0,0)"><path stroke-linecap="round" stroke-linejoin="round" fill-opacity="0" stroke="rgb(208,212,246)" stroke-opacity="1" stroke-width="2" d=" M-133.18600463867188,-11.977999687194824 C-133.18600463867188,-11.977999687194824 -133.18600463867188,120.78700256347656 -133.18600463867188,120.78700256347656 C-133.18600463867188,128.5659942626953 -126.87899780273438,134.8719940185547 -119.0999984741211,134.8719940185547 C-119.0999984741211,134.8719940185547 -55.404998779296875,134.8719940185547 -55.404998779296875,134.8719940185547"></path></g><g opacity="1" transform="matrix(1,0,0,1,0,0)"><path stroke-linecap="round" stroke-linejoin="round" fill-opacity="0" stroke="rgb(208,212,246)" stroke-opacity="1" stroke-width="2" d=" M-205.2689971923828,42.992000579833984 C-205.2689971923828,42.992000579833984 -133.18600463867188,42.992000579833984 -133.18600463867188,42.992000579833984"></path></g><g opacity="1" transform="matrix(1,0,0,1,0,0)"><path stroke-linecap="round" stroke-linejoin="round" fill-opacity="0" stroke="rgb(208,212,246)" stroke-opacity="1" stroke-width="2" d=" M201.50900268554688,-69.46399688720703 C201.50900268554688,-69.46399688720703 37.266998291015625,-69.46399688720703 37.266998291015625,-69.46399688720703 C31.05299949645996,-69.46399688720703 26.016000747680664,-74.5009994506836 26.016000747680664,-80.71499633789062 C26.016000747680664,-80.71499633789062 26.016000747680664,-92.15499877929688 26.016000747680664,-92.15499877929688 C26.016000747680664,-92.15499877929688 -52.77799987792969,-92.15499877929688 -52.77799987792969,-92.15499877929688"></path></g><g opacity="1" transform="matrix(1,0,0,1,0,0)"><path stroke-linecap="round" stroke-linejoin="round" fill-opacity="0" stroke="rgb(208,212,246)" stroke-opacity="1" stroke-width="2" d=" M77.87200164794922,-153.66799926757812 C77.87200164794922,-153.66799926757812 37.266998291015625,-153.66799926757812 37.266998291015625,-153.66799926757812 C31.05299949645996,-153.66799926757812 26.016000747680664,-148.63099670410156 26.016000747680664,-142.41700744628906 C26.016000747680664,-142.41700744628906 26.016000747680664,-92.15499877929688 26.016000747680664,-92.15499877929688"></path></g><g opacity="1" transform="matrix(1,0,0,1,0,0)"><path stroke-linecap="round" stroke-linejoin="round" fill-opacity="0" stroke-dasharray=" 30 50" stroke-dashoffset="75.73280334472656" stroke="rgb(127,127,244)" stroke-opacity="0.4" stroke-width="2" d=" M43.935001373291016,134.8719940185547 C43.935001373291016,134.8719940185547 106.0479965209961,134.8719940185547 106.0479965209961,134.8719940185547 C113.8270034790039,134.8719940185547 120.13400268554688,128.5659942626953 120.13400268554688,120.78700256347656 C120.13400268554688,120.78700256347656 120.13400268554688,61.558998107910156 120.13400268554688,61.558998107910156 M-133.18600463867188,-11.977999687194824 C-133.18600463867188,-11.977999687194824 -133.18600463867188,120.78700256347656 -133.18600463867188,120.78700256347656 C-133.18600463867188,128.5659942626953 -126.87899780273438,134.8719940185547 -119.0999984741211,134.8719940185547 C-119.0999984741211,134.8719940185547 -55.404998779296875,134.8719940185547 -55.404998779296875,134.8719940185547 M-205.2689971923828,42.992000579833984 C-205.2689971923828,42.992000579833984 -133.18600463867188,42.992000579833984 -133.18600463867188,42.992000579833984 M201.50900268554688,-69.46399688720703 C201.50900268554688,-69.46399688720703 37.266998291015625,-69.46399688720703 37.266998291015625,-69.46399688720703 C31.05299949645996,-69.46399688720703 26.016000747680664,-74.5009994506836 26.016000747680664,-80.71499633789062 C26.016000747680664,-80.71499633789062 26.016000747680664,-92.15499877929688 26.016000747680664,-92.15499877929688 C26.016000747680664,-92.15499877929688 -52.77799987792969,-92.15499877929688 -52.77799987792969,-92.15499877929688 M77.87200164794922,-153.66799926757812 C77.87200164794922,-153.66799926757812 37.266998291015625,-153.66799926757812 37.266998291015625,-153.66799926757812 C31.05299949645996,-153.66799926757812 26.016000747680664,-148.63099670410156 26.016000747680664,-142.41700744628906 C26.016000747680664,-142.41700744628906 26.016000747680664,-92.15499877929688 26.016000747680664,-92.15499877929688"></path></g><g opacity="1" transform="matrix(1,0,0,1,0,0)"><path fill="rgb(208,212,246)" fill-opacity="1" d=" M-137.63499450683594,42.992000579833984 C-137.63499450683594,40.53499984741211 -135.64300537109375,38.542999267578125 -133.18600463867188,38.542999267578125 C-130.72900390625,38.542999267578125 -128.73599243164062,40.53499984741211 -128.73599243164062,42.992000579833984 C-128.73599243164062,45.44900131225586 -130.72900390625,47.441001892089844 -133.18600463867188,47.441001892089844 C-135.64300537109375,47.441001892089844 -137.63499450683594,45.44900131225586 -137.63499450683594,42.992000579833984z"></path></g><g opacity="1" transform="matrix(1,0,0,1,0,0)"><path fill="rgb(208,212,246)" fill-opacity="1" d=" M21.566999435424805,-92.15499877929688 C21.566999435424805,-94.61199951171875 23.55900001525879,-96.6050033569336 26.016000747680664,-96.6050033569336 C28.472999572753906,-96.6050033569336 30.46500015258789,-94.61199951171875 30.46500015258789,-92.15499877929688 C30.46500015258789,-89.697998046875 28.472999572753906,-87.70600128173828 26.016000747680664,-87.70600128173828 C23.55900001525879,-87.70600128173828 21.566999435424805,-89.697998046875 21.566999435424805,-92.15499877929688z"></path></g></g><g transform="matrix(1,0,0,1,400,400)" opacity="1" style="display: block;"></g><g transform="matrix(1,0,0,1,415.1483154296875,400)" opacity="1" style="display: block;"><g opacity="1" transform="matrix(1,0,0,1,0,0)"><path fill="rgb(127,127,244)" fill-opacity="1" d=" M-181.7429962158203,9.83899974822998 C-181.7429962158203,9.83899974822998 -264.3280029296875,9.83899974822998 -264.3280029296875,9.83899974822998 C-268.1809997558594,9.83899974822998 -271.30499267578125,12.963000297546387 -271.30499267578125,16.81599998474121 C-271.30499267578125,16.81599998474121 -271.30499267578125,69.16799926757812 -271.30499267578125,69.16799926757812 C-271.30499267578125,73.02100372314453 -268.1809997558594,76.1449966430664 -264.3280029296875,76.1449966430664 C-264.3280029296875,76.1449966430664 -181.7429962158203,76.1449966430664 -181.7429962158203,76.1449966430664 C-177.88999938964844,76.1449966430664 -174.76600646972656,73.02100372314453 -174.76600646972656,69.16799926757812 C-174.76600646972656,69.16799926757812 -174.76600646972656,16.81599998474121 -174.76600646972656,16.81599998474121 C-174.76600646972656,12.963000297546387 -177.88999938964844,9.83899974822998 -181.7429962158203,9.83899974822998z"></path></g><g opacity="1" transform="matrix(1,0,0,1,0,0)"><g opacity="1" transform="matrix(1,0,0,1,0,0)"><path stroke-linecap="round" stroke-linejoin="round" fill-opacity="0" stroke="rgb(52,49,143)" stroke-opacity="1" stroke-width="3" d=" M-238.71499633789062,62.52199935913086 C-238.71499633789062,62.52199935913086 -241.97000122070312,62.52199935913086 -241.97000122070312,62.52199935913086 C-244.66600036621094,62.520999908447266 -246.8520050048828,60.334999084472656 -246.8520050048828,57.638999938964844 C-246.8520050048828,57.638999938964844 -246.85299682617188,47.875 -246.85299682617188,47.875 C-246.85299682617188,45.17900085449219 -249.03900146484375,42.99399948120117 -251.73500061035156,42.99300003051758 C-249.03900146484375,42.99399948120117 -246.85299682617188,40.805999755859375 -246.85299682617188,38.11000061035156 C-246.85299682617188,38.11000061035156 -246.85299682617188,28.34600067138672 -246.85299682617188,28.34600067138672 C-246.85299682617188,25.649999618530273 -244.66700744628906,23.464000701904297 -241.9709930419922,23.46299934387207 C-241.9709930419922,23.46299934387207 -238.71600341796875,23.46299934387207 -238.71600341796875,23.46299934387207"></path></g><g opacity="1" transform="matrix(1,0,0,1,0,0)"><path stroke-linecap="round" stroke-linejoin="round" fill-opacity="0" stroke="rgb(52,49,143)" stroke-opacity="1" stroke-width="3" d=" M-207.3560028076172,62.52199935913086 C-207.3560028076172,62.52199935913086 -204.10000610351562,62.52199935913086 -204.10000610351562,62.52199935913086 C-201.40499877929688,62.520999908447266 -199.21800231933594,60.334999084472656 -199.218994140625,57.638999938964844 C-199.218994140625,57.638999938964844 -199.21800231933594,47.874000549316406 -199.21800231933594,47.874000549316406 C-199.218994140625,45.17900085449219 -197.03199768066406,42.99100112915039 -194.33599853515625,42.992000579833984 C-197.03199768066406,42.99100112915039 -199.218994140625,40.80500030517578 -199.218994140625,38.10900115966797 C-199.218994140625,38.10900115966797 -199.218994140625,28.344999313354492 -199.218994140625,28.344999313354492 C-199.21800231933594,25.649999618530273 -201.40499877929688,23.46299934387207 -204.1009979248047,23.46299934387207 C-204.1009979248047,23.46299934387207 -207.3560028076172,23.461999893188477 -207.3560028076172,23.461999893188477"></path></g><g opacity="1" transform="matrix(1,0,0,1,0,0)"><path fill="rgb(107,107,249)" fill-opacity="1" d=" M-217.5229949951172,42.992000579833984 C-217.5229949951172,41.79100036621094 -216.5489959716797,40.81700134277344 -215.34800720214844,40.81700134277344 C-214.14700317382812,40.81700134277344 -213.17300415039062,41.79100036621094 -213.17300415039062,42.992000579833984 C-213.17300415039062,44.19300079345703 -214.14700317382812,45.16699981689453 -215.34800720214844,45.16699981689453 C-216.5489959716797,45.16699981689453 -217.5229949951172,44.19300079345703 -217.5229949951172,42.992000579833984z M-225.21099853515625,42.992000579833984 C-225.21099853515625,41.79100036621094 -224.23699951171875,40.81700134277344 -223.03599548339844,40.81700134277344 C-221.8350067138672,40.81700134277344 -220.86000061035156,41.79100036621094 -220.86000061035156,42.992000579833984 C-220.86000061035156,44.19300079345703 -221.8350067138672,45.16699981689453 -223.03599548339844,45.16699981689453 C-224.23699951171875,45.16699981689453 -225.21099853515625,44.19300079345703 -225.21099853515625,42.992000579833984z M-232.8979949951172,42.992000579833984 C-232.8979949951172,41.79100036621094 -231.9239959716797,40.81700134277344 -230.72300720214844,40.81700134277344 C-229.52200317382812,40.81700134277344 -228.54800415039062,41.79100036621094 -228.54800415039062,42.992000579833984 C-228.54800415039062,44.19300079345703 -229.52200317382812,45.16699981689453 -230.72300720214844,45.16699981689453 C-231.9239959716797,45.16699981689453 -232.8979949951172,44.19300079345703 -232.8979949951172,42.992000579833984z"></path></g><g opacity="1" transform="matrix(1,0,0,1,0,0)"><path fill="rgb(52,49,143)" fill-opacity="0.0740817915806705" d=" M-217.5229949951172,42.992000579833984 C-217.5229949951172,41.79100036621094 -216.5489959716797,40.81700134277344 -215.34800720214844,40.81700134277344 C-214.14700317382812,40.81700134277344 -213.17300415039062,41.79100036621094 -213.17300415039062,42.992000579833984 C-213.17300415039062,44.19300079345703 -214.14700317382812,45.16699981689453 -215.34800720214844,45.16699981689453 C-216.5489959716797,45.16699981689453 -217.5229949951172,44.19300079345703 -217.5229949951172,42.992000579833984z"></path></g><g opacity="1" transform="matrix(1,0,0,1,0,0)"><path fill="rgb(52,49,143)" fill-opacity="0.9999999791261085" d=" M-225.21099853515625,42.992000579833984 C-225.21099853515625,41.79100036621094 -224.23699951171875,40.81700134277344 -223.03599548339844,40.81700134277344 C-221.8350067138672,40.81700134277344 -220.86000061035156,41.79100036621094 -220.86000061035156,42.992000579833984 C-220.86000061035156,44.19300079345703 -221.8350067138672,45.16699981689453 -223.03599548339844,45.16699981689453 C-224.23699951171875,45.16699981689453 -225.21099853515625,44.19300079345703 -225.21099853515625,42.992000579833984z"></path></g><g opacity="1" transform="matrix(1,0,0,1,0,0)"><path fill="rgb(52,49,143)" fill-opacity="0.9999999999999999" d=" M-232.8979949951172,42.992000579833984 C-232.8979949951172,41.79100036621094 -231.9239959716797,40.81700134277344 -230.72300720214844,40.81700134277344 C-229.52200317382812,40.81700134277344 -228.54800415039062,41.79100036621094 -228.54800415039062,42.992000579833984 C-228.54800415039062,44.19300079345703 -229.52200317382812,45.16699981689453 -230.72300720214844,45.16699981689453 C-231.9239959716797,45.16699981689453 -232.8979949951172,44.19300079345703 -232.8979949951172,42.992000579833984z"></path></g></g></g><g transform="matrix(1,0,0,1,400.2272644042969,400)" opacity="1" style="display: block;"><g opacity="1" transform="matrix(1,0,0,1,0,0)"><path fill="rgb(235,238,247)" fill-opacity="1" d=" M-37.13399887084961,-172.33299255371094 C-37.13399887084961,-172.33299255371094 -229.23699951171875,-172.33299255371094 -229.23699951171875,-172.33299255371094 C-233.08999633789062,-172.33299255371094 -236.21400451660156,-169.20899963378906 -236.21400451660156,-165.3560028076172 C-236.21400451660156,-165.3560028076172 -236.21400451660156,-18.954999923706055 -236.21400451660156,-18.954999923706055 C-236.21400451660156,-15.10200023651123 -233.08999633789062,-11.977999687194824 -229.23699951171875,-11.977999687194824 C-229.23699951171875,-11.977999687194824 -37.13399887084961,-11.977999687194824 -37.13399887084961,-11.977999687194824 C-33.28099822998047,-11.977999687194824 -30.156999588012695,-15.10200023651123 -30.156999588012695,-18.954999923706055 C-30.156999588012695,-18.954999923706055 -30.156999588012695,-165.3560028076172 -30.156999588012695,-165.3560028076172 C-30.156999588012695,-169.20899963378906 -33.28099822998047,-172.33299255371094 -37.13399887084961,-172.33299255371094z"></path></g><g opacity="1" transform="matrix(1,0,0,1,0,0)"><g opacity="1" transform="matrix(1,0,0,1,0,0)"><path stroke-linecap="round" stroke-linejoin="round" fill-opacity="0" stroke="rgb(189,193,228)" stroke-opacity="1" stroke-width="3" d=" M-44.909000396728516,-147.73300170898438 C-44.909000396728516,-147.73300170898438 -56.20000076293945,-159.0240020751953 -56.20000076293945,-159.0240020751953 M-56.20000076293945,-147.73300170898438 C-56.20000076293945,-147.73300170898438 -44.909000396728516,-159.0240020751953 -44.909000396728516,-159.0240020751953 M-68.88099670410156,-147.73300170898438 C-68.88099670410156,-147.73300170898438 -82.87200164794922,-147.73300170898438 -82.87200164794922,-147.73300170898438"></path></g><g opacity="1" transform="matrix(1,0,0,1,0,0)"><path stroke-linecap="round" stroke-linejoin="round" fill-opacity="0" stroke="rgb(208,212,246)" stroke-opacity="1" stroke-width="3" d=" M-212.53700256347656,-126.35399627685547 C-212.53700256347656,-126.35399627685547 -218.69000244140625,-126.35399627685547 -218.69000244140625,-126.35399627685547 M-89.20800018310547,-126.35399627685547 C-89.20800018310547,-126.35399627685547 -201.94900512695312,-126.35399627685547 -201.94900512695312,-126.35399627685547 M-192.07699584960938,-114.73799896240234 C-192.07699584960938,-114.73799896240234 -198.22900390625,-114.73799896240234 -198.22900390625,-114.73799896240234 M-124.38200378417969,-114.73799896240234 C-124.38200378417969,-114.73799896240234 -181.48800659179688,-114.73799896240234 -181.48800659179688,-114.73799896240234 M-68.74700164794922,-114.73799896240234 C-68.74700164794922,-114.73799896240234 -115.27300262451172,-114.73799896240234 -115.27300262451172,-114.73799896240234 M-192.07699584960938,-103.12100219726562 C-192.07699584960938,-103.12100219726562 -198.22900390625,-103.12100219726562 -198.22900390625,-103.12100219726562 M-68.74700164794922,-103.12100219726562 C-68.74700164794922,-103.12100219726562 -181.48800659179688,-103.12100219726562 -181.48800659179688,-103.12100219726562 M-192.07699584960938,-91.50499725341797 C-192.07699584960938,-91.50499725341797 -198.22900390625,-91.50499725341797 -198.22900390625,-91.50499725341797 M-68.74700164794922,-91.50499725341797 C-68.74700164794922,-91.50499725341797 -181.48800659179688,-91.50499725341797 -181.48800659179688,-91.50499725341797 M-164.7550048828125,-79.88800048828125 C-164.7550048828125,-79.88800048828125 -170.90699768066406,-79.88800048828125 -170.90699768066406,-79.88800048828125 M-84.51499938964844,-79.88800048828125 C-84.51499938964844,-79.88800048828125 -154.16600036621094,-79.88800048828125 -154.16600036621094,-79.88800048828125 M-46.73699951171875,-79.88800048828125 C-46.73699951171875,-79.88800048828125 -73.28900146484375,-79.88800048828125 -73.28900146484375,-79.88800048828125 M-164.7550048828125,-68.27200317382812 C-164.7550048828125,-68.27200317382812 -170.90699768066406,-68.27200317382812 -170.90699768066406,-68.27200317382812 M-46.73699951171875,-68.27200317382812 C-46.73699951171875,-68.27200317382812 -154.16600036621094,-68.27200317382812 -154.16600036621094,-68.27200317382812 M-164.7550048828125,-56.654998779296875 C-164.7550048828125,-56.654998779296875 -170.90699768066406,-56.654998779296875 -170.90699768066406,-56.654998779296875 M-46.73699951171875,-56.654998779296875 C-46.73699951171875,-56.654998779296875 -154.16600036621094,-56.654998779296875 -154.16600036621094,-56.654998779296875 M-212.53700256347656,-45.03799819946289 C-212.53700256347656,-45.03799819946289 -218.69000244140625,-45.03799819946289 -218.69000244140625,-45.03799819946289 M-102.6719970703125,-45.03799819946289 C-102.6719970703125,-45.03799819946289 -201.94900512695312,-45.03799819946289 -201.94900512695312,-45.03799819946289 M-212.53700256347656,-33.422000885009766 C-212.53700256347656,-33.422000885009766 -218.69000244140625,-33.422000885009766 -218.69000244140625,-33.422000885009766 M-175.32200622558594,-33.422000885009766 C-190.70700073242188,-33.422000885009766 -201.94900512695312,-33.422000885009766 -201.94900512695312,-33.422000885009766"></path></g></g><g opacity="1" transform="matrix(1,0,0,1,0,0)"><g opacity="1" transform="matrix(1,0,0,1,0,0)"><path fill="rgb(189,193,228)" fill-opacity="1" d=" M-218.69000244140625,-147.73300170898438 C-218.69000244140625,-149.4320068359375 -217.31199645996094,-150.8090057373047 -215.61300659179688,-150.8090057373047 C-213.91400146484375,-150.8090057373047 -212.53700256347656,-149.4320068359375 -212.53700256347656,-147.73300170898438 C-212.53700256347656,-146.03399658203125 -213.91400146484375,-144.65699768066406 -215.61300659179688,-144.65699768066406 C-217.31199645996094,-144.65699768066406 -218.69000244140625,-146.03399658203125 -218.69000244140625,-147.73300170898438z"></path></g><g opacity="1" transform="matrix(1,0,0,1,0,0)"><path fill="rgb(189,193,228)" fill-opacity="1" d=" M-208.1009979248047,-147.73300170898438 C-208.1009979248047,-149.4320068359375 -206.7239990234375,-150.8090057373047 -205.02499389648438,-150.8090057373047 C-203.3260040283203,-150.8090057373047 -201.94900512695312,-149.4320068359375 -201.94900512695312,-147.73300170898438 C-201.94900512695312,-146.03399658203125 -203.3260040283203,-144.65699768066406 -205.02499389648438,-144.65699768066406 C-206.7239990234375,-144.65699768066406 -208.1009979248047,-146.03399658203125 -208.1009979248047,-147.73300170898438z"></path></g><g opacity="1" transform="matrix(1,0,0,1,0,0)"><path fill="rgb(189,193,228)" fill-opacity="1" d=" M-197.51300048828125,-147.73300170898438 C-197.51300048828125,-149.4320068359375 -196.13600158691406,-150.8090057373047 -194.43699645996094,-150.8090057373047 C-192.73800659179688,-150.8090057373047 -191.36099243164062,-149.4320068359375 -191.36099243164062,-147.73300170898438 C-191.36099243164062,-146.03399658203125 -192.73800659179688,-144.65699768066406 -194.43699645996094,-144.65699768066406 C-196.13600158691406,-144.65699768066406 -197.51300048828125,-146.03399658203125 -197.51300048828125,-147.73300170898438z"></path></g><g opacity="1" transform="matrix(1,0,0,1,0,0)"><path fill="rgb(189,193,228)" fill-opacity="1" d=" M-186.9239959716797,-147.73300170898438 C-186.9239959716797,-149.4320068359375 -185.5469970703125,-150.8090057373047 -183.84800720214844,-150.8090057373047 C-182.1490020751953,-150.8090057373047 -180.77200317382812,-149.4320068359375 -180.77200317382812,-147.73300170898438 C-180.77200317382812,-146.03399658203125 -182.1490020751953,-144.65699768066406 -183.84800720214844,-144.65699768066406 C-185.5469970703125,-144.65699768066406 -186.9239959716797,-146.03399658203125 -186.9239959716797,-147.73300170898438z"></path></g><g opacity="1" transform="matrix(1,0,0,1,0,0)"><path fill="rgb(189,193,228)" fill-opacity="1" d=" M-176.33599853515625,-147.73300170898438 C-176.33599853515625,-149.4320068359375 -174.95899963378906,-150.8090057373047 -173.25999450683594,-150.8090057373047 C-171.56100463867188,-150.8090057373047 -170.1840057373047,-149.4320068359375 -170.1840057373047,-147.73300170898438 C-170.1840057373047,-146.03399658203125 -171.56100463867188,-144.65699768066406 -173.25999450683594,-144.65699768066406 C-174.95899963378906,-144.65699768066406 -176.33599853515625,-146.03399658203125 -176.33599853515625,-147.73300170898438z"></path></g><g opacity="1" transform="matrix(1,0,0,1,0,0)"><path fill="rgb(189,193,228)" fill-opacity="1" d=" M-165.7480010986328,-147.73300170898438 C-165.7480010986328,-149.4320068359375 -164.3699951171875,-150.8090057373047 -162.67100524902344,-150.8090057373047 C-160.9720001220703,-150.8090057373047 -159.59500122070312,-149.4320068359375 -159.59500122070312,-147.73300170898438 C-159.59500122070312,-146.03399658203125 -160.9720001220703,-144.65699768066406 -162.67100524902344,-144.65699768066406 C-164.3699951171875,-144.65699768066406 -165.7480010986328,-146.03399658203125 -165.7480010986328,-147.73300170898438z"></path></g><g opacity="1" transform="matrix(1,0,0,1,0,0)"><path fill="rgb(189,193,228)" fill-opacity="1" d=" M-155.15899658203125,-147.73300170898438 C-155.15899658203125,-149.4320068359375 -153.78199768066406,-150.8090057373047 -152.08299255371094,-150.8090057373047 C-150.38400268554688,-150.8090057373047 -149.0070037841797,-149.4320068359375 -149.0070037841797,-147.73300170898438 C-149.0070037841797,-146.03399658203125 -150.38400268554688,-144.65699768066406 -152.08299255371094,-144.65699768066406 C-153.78199768066406,-144.65699768066406 -155.15899658203125,-146.03399658203125 -155.15899658203125,-147.73300170898438z"></path></g><g opacity="1" transform="matrix(1,0,0,1,0,0)"><path fill="rgb(189,193,228)" fill-opacity="1" d=" M-144.5709991455078,-147.73300170898438 C-144.5709991455078,-149.4320068359375 -143.19400024414062,-150.8090057373047 -141.4949951171875,-150.8090057373047 C-139.79600524902344,-150.8090057373047 -138.41799926757812,-149.4320068359375 -138.41799926757812,-147.73300170898438 C-138.41799926757812,-146.03399658203125 -139.79600524902344,-144.65699768066406 -141.4949951171875,-144.65699768066406 C-143.19400024414062,-144.65699768066406 -144.5709991455078,-146.03399658203125 -144.5709991455078,-147.73300170898438z"></path></g><g opacity="1" transform="matrix(1,0,0,1,0,0)"><path fill="rgb(189,193,228)" fill-opacity="1" d=" M-133.98199462890625,-147.73300170898438 C-133.98199462890625,-149.4320068359375 -132.60499572753906,-150.8090057373047 -130.906005859375,-150.8090057373047 C-129.20700073242188,-150.8090057373047 -127.83000183105469,-149.4320068359375 -127.83000183105469,-147.73300170898438 C-127.83000183105469,-146.03399658203125 -129.20700073242188,-144.65699768066406 -130.906005859375,-144.65699768066406 C-132.60499572753906,-144.65699768066406 -133.98199462890625,-146.03399658203125 -133.98199462890625,-147.73300170898438z"></path></g></g></g><g transform="matrix(1,0,0,1,401.4432067871094,400)" opacity="1" style="display: block;"><g opacity="1" transform="matrix(1,0,0,1,0,0)"><path fill="rgb(240,187,66)" fill-opacity="1" d=" M-177.2209930419922,-196.08099365234375 C-177.2209930419922,-196.08099365234375 -177.2209930419922,-229.572998046875 -177.2209930419922,-229.572998046875 C-177.2209930419922,-229.572998046875 17.69099998474121,-229.572998046875 17.69099998474121,-229.572998046875 C17.69099998474121,-229.572998046875 17.69099998474121,-196.08099365234375 17.69099998474121,-196.08099365234375 C17.69099998474121,-196.08099365234375 -177.2209930419922,-196.08099365234375 -177.2209930419922,-196.08099365234375z"></path></g><g opacity="1" transform="matrix(1,0,0,1,0,0)"><path fill="rgb(224,161,56)" fill-opacity="1" d=" M-166.2969970703125,-208.36900329589844 C-169.29299926757812,-208.36900329589844 -171.72300720214844,-210.7949981689453 -171.72300720214844,-213.7899932861328 C-171.72300720214844,-216.78500366210938 -169.29299926757812,-219.21400451660156 -166.2969970703125,-219.21400451660156 C-163.30299377441406,-219.21299743652344 -160.87399291992188,-216.7830047607422 -160.87399291992188,-213.7899932861328 C-160.87399291992188,-210.7949981689453 -163.30299377441406,-208.3679962158203 -166.2969970703125,-208.36900329589844z"></path></g><g opacity="1" transform="matrix(1,0,0,1,0,0)"><path fill="rgb(255,255,255)" fill-opacity="1" d=" M-166.2969970703125,-210.9980010986328 C-167.84100341796875,-210.9980010986328 -169.0919952392578,-212.2480010986328 -169.09100341796875,-213.79100036621094 C-169.09100341796875,-215.3350067138672 -167.84100341796875,-216.5850067138672 -166.2969970703125,-216.5850067138672 C-164.7550048828125,-216.5850067138672 -163.50399780273438,-215.3350067138672 -163.5050048828125,-213.79100036621094 C-163.50399780273438,-212.2480010986328 -164.7550048828125,-210.99899291992188 -166.2969970703125,-210.9980010986328z"></path></g><g opacity="1" transform="matrix(1,0,0,1,0,0)"><path fill="rgb(65,65,168)" fill-opacity="1" d=" M-34.5620002746582,-200.47799682617188 C-34.5620002746582,-200.47799682617188 -34.5620002746582,-196.08099365234375 -34.5620002746582,-196.08099365234375 C-34.5620002746582,-196.08099365234375 -32.04899978637695,-196.08099365234375 -32.04899978637695,-196.08099365234375 C-32.04899978637695,-196.08099365234375 -32.04899978637695,-200.4770050048828 -32.04899978637695,-200.4770050048828 C-32.04800033569336,-201.1739959716797 -32.61199951171875,-201.73399353027344 -33.30500030517578,-201.73500061035156 C-33.999000549316406,-201.73500061035156 -34.5620002746582,-201.17300415039062 -34.5620002746582,-200.47799682617188z M-43.66999816894531,-200.47799682617188 C-43.66999816894531,-200.47799682617188 -43.66899871826172,-196.08099365234375 -43.66899871826172,-196.08099365234375 C-43.66899871826172,-196.08099365234375 -41.15700149536133,-196.08099365234375 -41.15700149536133,-196.08099365234375 C-41.15700149536133,-196.08099365234375 -41.15700149536133,-200.4770050048828 -41.15700149536133,-200.4770050048828 C-41.15700149536133,-201.1719970703125 -41.71799850463867,-201.73500061035156 -42.41299819946289,-201.73599243164062 C-43.10599899291992,-201.73500061035156 -43.66999816894531,-201.17300415039062 -43.66999816894531,-200.47799682617188z M-169.9199981689453,-201.73500061035156 C-170.61300659179688,-201.73599243164062 -171.1750030517578,-201.1750030517578 -171.1750030517578,-200.47799682617188 C-171.1750030517578,-200.47799682617188 -171.1750030517578,-196.08099365234375 -171.1750030517578,-196.08099365234375 C-171.1750030517578,-196.08099365234375 -168.66299438476562,-196.08099365234375 -168.66299438476562,-196.08099365234375 C-168.66299438476562,-196.08099365234375 -168.66299438476562,-200.47799682617188 -168.66299438476562,-200.47799682617188 C-168.66200256347656,-201.17300415039062 -169.22500610351562,-201.73500061035156 -169.9199981689453,-201.73500061035156z M-52.777000427246094,-200.47799682617188 C-52.777000427246094,-200.47799682617188 -52.77799987792969,-196.08099365234375 -52.77799987792969,-196.08099365234375 C-52.77799987792969,-196.08099365234375 -50.263999938964844,-196.0800018310547 -50.263999938964844,-196.0800018310547 C-50.263999938964844,-196.0800018310547 -50.263999938964844,-200.47799682617188 -50.263999938964844,-200.47799682617188 C-50.263999938964844,-201.17300415039062 -50.82699966430664,-201.73399353027344 -51.52000045776367,-201.73500061035156 C-52.21500015258789,-201.73500061035156 -52.777000427246094,-201.17300415039062 -52.777000427246094,-200.47799682617188z M-80.0999984741211,-200.47799682617188 C-80.0999984741211,-200.47799682617188 -80.10099792480469,-196.08099365234375 -80.10099792480469,-196.08099365234375 C-80.10099792480469,-196.08099365234375 -77.58699798583984,-196.08099365234375 -77.58699798583984,-196.08099365234375 C-77.58699798583984,-196.08099365234375 -77.58699798583984,-200.47799682617188 -77.58699798583984,-200.47799682617188 C-77.58599853515625,-201.1750030517578 -78.1500015258789,-201.73500061035156 -78.84300231933594,-201.73500061035156 C-79.53700256347656,-201.73500061035156 -80.10099792480469,-201.17300415039062 -80.0999984741211,-200.47799682617188z M-143.8520050048828,-200.47799682617188 C-143.8520050048828,-200.47799682617188 -143.8520050048828,-196.08099365234375 -143.8520050048828,-196.08099365234375 C-143.8520050048828,-196.08099365234375 -141.33999633789062,-196.08099365234375 -141.33999633789062,-196.08099365234375 C-141.33999633789062,-196.08099365234375 -141.33999633789062,-200.47799682617188 -141.33999633789062,-200.47799682617188 C-141.33999633789062,-201.17300415039062 -141.9040069580078,-201.73399353027344 -142.5959930419922,-201.73500061035156 C-143.2899932861328,-201.73500061035156 -143.8520050048828,-201.17300415039062 -143.8520050048828,-200.47799682617188z M-125.63700103759766,-200.47799682617188 C-125.63700103759766,-200.47799682617188 -125.63700103759766,-196.08099365234375 -125.63700103759766,-196.08099365234375 C-125.63700103759766,-196.08099365234375 -123.1259994506836,-196.08099365234375 -123.1259994506836,-196.08099365234375 C-123.1259994506836,-196.08099365234375 -123.12699890136719,-200.47799682617188 -123.12699890136719,-200.47799682617188 C-123.12699890136719,-201.17300415039062 -123.68699645996094,-201.73500061035156 -124.38200378417969,-201.73500061035156 C-125.07499694824219,-201.73500061035156 -125.63800048828125,-201.17300415039062 -125.63700103759766,-200.47799682617188z M-61.8849983215332,-200.47799682617188 C-61.8849983215332,-200.47799682617188 -61.88399887084961,-196.08099365234375 -61.88399887084961,-196.08099365234375 C-61.88399887084961,-196.08099365234375 -59.37200164794922,-196.08099365234375 -59.37200164794922,-196.08099365234375 C-59.37200164794922,-196.08099365234375 -59.37200164794922,-200.4770050048828 -59.37200164794922,-200.4770050048828 C-59.37200164794922,-201.1719970703125 -59.935001373291016,-201.73500061035156 -60.62799835205078,-201.73500061035156 C-61.32400131225586,-201.73599243164062 -61.88399887084961,-201.17300415039062 -61.8849983215332,-200.47799682617188z M-152.9600067138672,-200.47799682617188 C-152.9600067138672,-200.47799682617188 -152.9600067138672,-196.08099365234375 -152.9600067138672,-196.08099365234375 C-152.9600067138672,-196.08099365234375 -150.447998046875,-196.08099365234375 -150.447998046875,-196.08099365234375 C-150.447998046875,-196.08099365234375 -150.447998046875,-200.47799682617188 -150.447998046875,-200.47799682617188 C-150.44700622558594,-201.17300415039062 -151.01100158691406,-201.73599243164062 -151.70399475097656,-201.73500061035156 C-152.3979949951172,-201.73399353027344 -152.9600067138672,-201.1750030517578 -152.9600067138672,-200.47799682617188z M-162.0679931640625,-200.47799682617188 C-162.0679931640625,-200.47799682617188 -162.0679931640625,-196.08099365234375 -162.0679931640625,-196.08099365234375 C-162.0679931640625,-196.08099365234375 -159.55599975585938,-196.08099365234375 -159.55599975585938,-196.08099365234375 C-159.55599975585938,-196.08099365234375 -159.55599975585938,-200.47799682617188 -159.55599975585938,-200.47799682617188 C-159.55499267578125,-201.17300415039062 -160.1179962158203,-201.73599243164062 -160.81199645996094,-201.73500061035156 C-161.50599670410156,-201.73500061035156 -162.06700134277344,-201.1750030517578 -162.0679931640625,-200.47799682617188z M-134.74400329589844,-200.47799682617188 C-134.74400329589844,-200.47799682617188 -134.74400329589844,-196.08099365234375 -134.74400329589844,-196.08099365234375 C-134.74400329589844,-196.08099365234375 -132.23199462890625,-196.08099365234375 -132.23199462890625,-196.08099365234375 C-132.23199462890625,-196.08099365234375 -132.23300170898438,-200.47799682617188 -132.23300170898438,-200.47799682617188 C-132.23300170898438,-201.17300415039062 -132.7949981689453,-201.73599243164062 -133.48899841308594,-201.73500061035156 C-134.18299865722656,-201.73399353027344 -134.74400329589844,-201.1750030517578 -134.74400329589844,-200.47799682617188z M-116.52899932861328,-200.4770050048828 C-116.52899932861328,-200.4770050048828 -116.52899932861328,-196.08099365234375 -116.52899932861328,-196.08099365234375 C-116.52899932861328,-196.08099365234375 -114.01699829101562,-196.08099365234375 -114.01699829101562,-196.08099365234375 C-114.01699829101562,-196.08099365234375 -114.01699829101562,-200.47799682617188 -114.01699829101562,-200.47799682617188 C-114.01699829101562,-201.17300415039062 -114.58000183105469,-201.73599243164062 -115.27400207519531,-201.73500061035156 C-115.96900177001953,-201.73500061035156 -116.52899932861328,-201.1719970703125 -116.52899932861328,-200.4770050048828z M-70.99199676513672,-200.47799682617188 C-70.99199676513672,-200.47799682617188 -70.99199676513672,-196.08099365234375 -70.99199676513672,-196.08099365234375 C-70.99199676513672,-196.08099365234375 -68.4800033569336,-196.08099365234375 -68.4800033569336,-196.08099365234375 C-68.4800033569336,-196.08099365234375 -68.47899627685547,-200.47799682617188 -68.47899627685547,-200.47799682617188 C-68.47899627685547,-201.17300415039062 -69.04299926757812,-201.73399353027344 -69.73600006103516,-201.73500061035156 C-70.43000030517578,-201.73399353027344 -70.99199676513672,-201.17300415039062 -70.99199676513672,-200.47799682617188z M-24.195999145507812,-201.73599243164062 C-24.891000747680664,-201.73500061035156 -25.452999114990234,-201.1719970703125 -25.452999114990234,-200.4770050048828 C-25.452999114990234,-200.4770050048828 -25.45199966430664,-196.08099365234375 -25.45199966430664,-196.08099365234375 C-25.45199966430664,-196.08099365234375 -22.940000534057617,-196.08099365234375 -22.940000534057617,-196.08099365234375 C-22.940000534057617,-196.08099365234375 -22.940000534057617,-200.47799682617188 -22.940000534057617,-200.47799682617188 C-22.940000534057617,-201.17300415039062 -23.503000259399414,-201.73500061035156 -24.195999145507812,-201.73599243164062z M-15.09000015258789,-201.73500061035156 C-15.782999992370605,-201.73399353027344 -16.344999313354492,-201.17300415039062 -16.344999313354492,-200.47799682617188 C-16.344999313354492,-200.47799682617188 -16.344999313354492,-196.0800018310547 -16.344999313354492,-196.0800018310547 C-16.344999313354492,-196.0800018310547 -13.831000328063965,-196.08099365234375 -13.831000328063965,-196.08099365234375 C-13.831000328063965,-196.08099365234375 -13.833000183105469,-200.47799682617188 -13.833000183105469,-200.47799682617188 C-13.833000183105469,-201.17300415039062 -14.395000457763672,-201.73500061035156 -15.09000015258789,-201.73500061035156z M-5.98199987411499,-201.73500061035156 C-6.675000190734863,-201.73500061035156 -7.23799991607666,-201.1719970703125 -7.23799991607666,-200.4770050048828 C-7.23799991607666,-200.4770050048828 -7.23799991607666,-196.08099365234375 -7.23799991607666,-196.08099365234375 C-7.23799991607666,-196.08099365234375 -4.72599983215332,-196.08099365234375 -4.72599983215332,-196.08099365234375 C-4.72599983215332,-196.08099365234375 -4.723999977111816,-200.47799682617188 -4.723999977111816,-200.47799682617188 C-4.724999904632568,-201.17300415039062 -5.285999774932861,-201.73599243164062 -5.98199987411499,-201.73500061035156z M3.125999927520752,-201.73500061035156 C2.433000087738037,-201.73399353027344 1.8700000047683716,-201.17300415039062 1.8700000047683716,-200.47799682617188 C1.8700000047683716,-200.47799682617188 1.871000051498413,-196.08099365234375 1.871000051498413,-196.08099365234375 C1.871000051498413,-196.08099365234375 4.381999969482422,-196.08099365234375 4.381999969482422,-196.08099365234375 C4.381999969482422,-196.08099365234375 4.381999969482422,-200.47799682617188 4.381999969482422,-200.47799682617188 C4.381999969482422,-201.17300415039062 3.819999933242798,-201.73399353027344 3.125999927520752,-201.73500061035156z M-89.20800018310547,-200.47799682617188 C-89.20800018310547,-200.47799682617188 -89.20800018310547,-196.08099365234375 -89.20800018310547,-196.08099365234375 C-89.20800018310547,-196.08099365234375 -86.69400024414062,-196.08099365234375 -86.69400024414062,-196.08099365234375 C-86.69400024414062,-196.08099365234375 -86.69499969482422,-200.47799682617188 -86.69499969482422,-200.47799682617188 C-86.69400024414062,-201.17300415039062 -87.25700378417969,-201.73500061035156 -87.95099639892578,-201.73500061035156 C-88.6449966430664,-201.73399353027344 -89.20700073242188,-201.17300415039062 -89.20800018310547,-200.47799682617188z M-98.31500244140625,-200.47799682617188 C-98.31500244140625,-200.47799682617188 -98.31500244140625,-196.08099365234375 -98.31500244140625,-196.08099365234375 C-98.31500244140625,-196.08099365234375 -95.802001953125,-196.08099365234375 -95.802001953125,-196.08099365234375 C-95.802001953125,-196.08099365234375 -95.802001953125,-200.47799682617188 -95.802001953125,-200.47799682617188 C-95.8030014038086,-201.1750030517578 -96.36499786376953,-201.73399353027344 -97.05799865722656,-201.73500061035156 C-97.75199890136719,-201.73500061035156 -98.31400299072266,-201.17300415039062 -98.31500244140625,-200.47799682617188z M-107.42400360107422,-200.47799682617188 C-107.42400360107422,-200.47799682617188 -107.4229965209961,-196.08099365234375 -107.4229965209961,-196.08099365234375 C-107.4229965209961,-196.08099365234375 -104.90799713134766,-196.08099365234375 -104.90799713134766,-196.08099365234375 C-104.90799713134766,-196.08099365234375 -104.90799713134766,-200.47799682617188 -104.90799713134766,-200.47799682617188 C-104.90799713134766,-201.17300415039062 -105.4729995727539,-201.73500061035156 -106.16600036621094,-201.73500061035156 C-106.85900115966797,-201.73500061035156 -107.4229965209961,-201.17300415039062 -107.42400360107422,-200.47799682617188z"></path></g></g><g transform="matrix(1,0,0,1,399.988525390625,400)" opacity="1" style="display: block;"><g opacity="1" transform="matrix(1,0,0,1,0,0)"><path fill="rgb(106,106,226)" fill-opacity="1" d=" M166.28500366210938,-189.3179931640625 C166.28500366210938,-189.3179931640625 77.47899627685547,-189.3179931640625 77.47899627685547,-189.3179931640625 C73.33599853515625,-189.3179931640625 69.97699737548828,-185.95899963378906 69.97699737548828,-181.8159942626953 C69.97699737548828,-181.8159942626953 69.97699737548828,-125.5199966430664 69.97699737548828,-125.5199966430664 C69.97699737548828,-121.37699890136719 73.33599853515625,-118.01799774169922 77.47899627685547,-118.01799774169922 C77.47899627685547,-118.01799774169922 166.28500366210938,-118.01799774169922 166.28500366210938,-118.01799774169922 C170.42799377441406,-118.01799774169922 173.78700256347656,-121.37699890136719 173.78700256347656,-125.5199966430664 C173.78700256347656,-125.5199966430664 173.78700256347656,-181.8159942626953 173.78700256347656,-181.8159942626953 C173.78700256347656,-185.95899963378906 170.42799377441406,-189.3179931640625 166.28500366210938,-189.3179931640625z"></path></g><g opacity="1" transform="matrix(1,0,0,1,0,0)"><g opacity="1" transform="matrix(1,0,0,1,0,0)"><path stroke-linecap="round" stroke-linejoin="round" fill-opacity="0" stroke="rgb(129,129,247)" stroke-opacity="1" stroke-width="3" d=" M138.40499877929688,-162.9739990234375 C138.40499877929688,-162.9739990234375 105.35900115966797,-162.9739990234375 105.35900115966797,-162.9739990234375 M112.57599639892578,-137.14599609375 C112.57599639892578,-137.14599609375 112.57599639892578,-170.19000244140625 112.57599639892578,-170.19000244140625 M105.35900115966797,-144.36199951171875 C105.35900115966797,-144.36199951171875 138.40499877929688,-144.36199951171875 138.40499877929688,-144.36199951171875 M131.18800354003906,-170.19000244140625 C131.18800354003906,-170.19000244140625 131.18800354003906,-137.14599609375 131.18800354003906,-137.14599609375"></path></g><g opacity="1" transform="matrix(1,0,0,1,0,0)"><path stroke-linecap="round" stroke-linejoin="round" fill-opacity="0" stroke="rgb(52,49,141)" stroke-opacity="1" stroke-width="3" d=" M131.18800354003906,-170.19000244140625 C131.18800354003906,-170.19000244140625 131.18800354003906,-160.02499389648438 131.18800354003906,-150.9709930419922"></path></g></g></g><g transform="matrix(1,0,0,1,400.5132751464844,400)" opacity="1" style="display: block;"><g opacity="1" transform="matrix(1,0,0,1,0,0)"><path fill="rgb(235,238,247)" fill-opacity="1" d=" M291.67999267578125,-129.81199645996094 C291.67999267578125,-129.81199645996094 116.90599822998047,-129.81199645996094 116.90599822998047,-129.81199645996094 C112.73300170898438,-129.81199645996094 109.3489990234375,-126.42900085449219 109.3489990234375,-122.25599670410156 C109.3489990234375,-122.25599670410156 109.3489990234375,-3.3469998836517334 109.3489990234375,-3.3469998836517334 C109.3489990234375,0.8259999752044678 112.73300170898438,4.209000110626221 116.90599822998047,4.209000110626221 C116.90599822998047,4.209000110626221 291.67999267578125,4.209000110626221 291.67999267578125,4.209000110626221 C295.8529968261719,4.209000110626221 299.23699951171875,0.8259999752044678 299.23699951171875,-3.3469998836517334 C299.23699951171875,-3.3469998836517334 299.23699951171875,-122.25599670410156 299.23699951171875,-122.25599670410156 C299.23699951171875,-126.42900085449219 295.8529968261719,-129.81199645996094 291.67999267578125,-129.81199645996094z"></path></g><g opacity="1" transform="matrix(1,0,0,1,0,0)"><path fill="rgb(219,219,219)" fill-opacity="1" d=" M120.1760025024414,-115.18699645996094 C120.1760025024414,-117.8489990234375 122.33499908447266,-120.00800323486328 124.99700164794922,-120.00800323486328 C127.65899658203125,-120.00800323486328 129.81700134277344,-117.8489990234375 129.81700134277344,-115.18699645996094 C129.81700134277344,-112.5250015258789 127.65899658203125,-110.36699676513672 124.99700164794922,-110.36699676513672 C122.33499908447266,-110.36699676513672 120.1760025024414,-112.5250015258789 120.1760025024414,-115.18699645996094z M134.62600708007812,-115.18699645996094 C134.62600708007812,-117.8489990234375 136.78500366210938,-120.00800323486328 139.44700622558594,-120.00800323486328 C142.10899353027344,-120.00800323486328 144.26699829101562,-117.8489990234375 144.26699829101562,-115.18699645996094 C144.26699829101562,-112.5250015258789 142.10899353027344,-110.36699676513672 139.44700622558594,-110.36699676513672 C136.78500366210938,-110.36699676513672 134.62600708007812,-112.5250015258789 134.62600708007812,-115.18699645996094z M149.0760040283203,-115.18699645996094 C149.0760040283203,-117.8489990234375 151.23399353027344,-120.00800323486328 153.89599609375,-120.00800323486328 C156.55799865722656,-120.00800323486328 158.7169952392578,-117.8489990234375 158.7169952392578,-115.18699645996094 C158.7169952392578,-112.5250015258789 156.55799865722656,-110.36699676513672 153.89599609375,-110.36699676513672 C151.23399353027344,-110.36699676513672 149.0760040283203,-112.5250015258789 149.0760040283203,-115.18699645996094z"></path></g><g opacity="1" transform="matrix(1,0,0,1,0,0)"><path fill="rgb(242,189,66)" fill-opacity="0" d=" M120.1760025024414,-115.18699645996094 C120.1760025024414,-117.8489990234375 122.33499908447266,-120.00800323486328 124.99700164794922,-120.00800323486328 C127.65899658203125,-120.00800323486328 129.81700134277344,-117.8489990234375 129.81700134277344,-115.18699645996094 C129.81700134277344,-112.5250015258789 127.65899658203125,-110.36699676513672 124.99700164794922,-110.36699676513672 C122.33499908447266,-110.36699676513672 120.1760025024414,-112.5250015258789 120.1760025024414,-115.18699645996094z"></path></g><g opacity="1" transform="matrix(1,0,0,1,0,0)"><path fill="rgb(85,85,198)" fill-opacity="0" d=" M134.62600708007812,-115.18699645996094 C134.62600708007812,-117.8489990234375 136.78500366210938,-120.00800323486328 139.44700622558594,-120.00800323486328 C142.10899353027344,-120.00800323486328 144.26699829101562,-117.8489990234375 144.26699829101562,-115.18699645996094 C144.26699829101562,-112.5250015258789 142.10899353027344,-110.36699676513672 139.44700622558594,-110.36699676513672 C136.78500366210938,-110.36699676513672 134.62600708007812,-112.5250015258789 134.62600708007812,-115.18699645996094z"></path></g><g opacity="1" transform="matrix(1,0,0,1,0,0)"><path fill="rgb(189,193,228)" fill-opacity="0.7407530822209563" d=" M149.0760040283203,-115.18699645996094 C149.0760040283203,-117.8489990234375 151.23399353027344,-120.00800323486328 153.89599609375,-120.00800323486328 C156.55799865722656,-120.00800323486328 158.7169952392578,-117.8489990234375 158.7169952392578,-115.18699645996094 C158.7169952392578,-112.5250015258789 156.55799865722656,-110.36699676513672 153.89599609375,-110.36699676513672 C151.23399353027344,-110.36699676513672 149.0760040283203,-112.5250015258789 149.0760040283203,-115.18699645996094z"></path></g><g opacity="1" transform="matrix(1,0,0,1,0,0)"><g opacity="1" transform="matrix(1,0,0,1,0,0)"><path fill="rgb(221,225,245)" fill-opacity="1" d=" M264.47100830078125,-67.0979995727539 C264.47100830078125,-67.0979995727539 164.5240020751953,-67.0979995727539 164.5240020751953,-67.0979995727539 C164.5240020751953,-67.0979995727539 164.5240020751953,-71.4000015258789 164.5240020751953,-71.4000015258789 C164.5240020751953,-71.4000015258789 264.47100830078125,-71.4000015258789 264.47100830078125,-71.4000015258789 C264.47100830078125,-71.4000015258789 264.47100830078125,-67.0979995727539 264.47100830078125,-67.0979995727539z"></path></g><g opacity="1" transform="matrix(1,0,0,1,0,0)"><path stroke-linecap="round" stroke-linejoin="round" fill-opacity="0" stroke="rgb(226,163,52)" stroke-opacity="1" stroke-width="3" d=" M181.73399353027344,-93.74099731445312 C181.73399353027344,-93.74099731445312 249.6540069580078,-93.74099731445312 249.6540069580078,-93.74099731445312"></path></g><g opacity="1" transform="matrix(1,0,0,1,0,0)"><path stroke-linecap="round" stroke-linejoin="round" fill-opacity="0" stroke="rgb(127,127,244)" stroke-opacity="1" stroke-width="3" d=" M146.656005859375,-102.62200164794922 C146.656005859375,-102.62200164794922 184.63299560546875,-102.62200164794922 214.31300354003906,-102.62200164794922 M181.73399353027344,-39.37699890136719 C181.73399353027344,-39.37699890136719 231.6230010986328,-39.37699890136719 231.6230010986328,-39.37699890136719 M181.73399353027344,-30.496999740600586 C181.73399353027344,-30.496999740600586 241.64599609375,-30.496999740600586 241.64599609375,-30.496999740600586"></path></g><g opacity="1" transform="matrix(1,0,0,1,0,0)"><path stroke-linecap="round" stroke-linejoin="round" fill-opacity="0" stroke="rgb(65,65,168)" stroke-opacity="1" stroke-width="3" d=" M164.5240020751953,-67.0979995727539 C164.5240020751953,-67.0979995727539 166.4080047607422,-67.0979995727539 169.56700134277344,-67.0979995727539 M242.8800048828125,-67.0979995727539 C242.8800048828125,-67.0979995727539 264.47100830078125,-67.0979995727539 264.47100830078125,-67.0979995727539 M150.23599243164062,-58.124000549316406 C150.23599243164062,-58.124000549316406 152.72999572753906,-58.124000549316406 152.72999572753906,-58.124000549316406 M164.5240020751953,-58.124000549316406 C164.5240020751953,-58.124000549316406 194.47500610351562,-58.124000549316406 194.47500610351562,-58.124000549316406 M150.23599243164062,-49.150001525878906 C150.23599243164062,-49.150001525878906 152.72999572753906,-49.150001525878906 152.72999572753906,-49.150001525878906"></path></g></g></g><g transform="matrix(1,0,0,1,400,400.9513244628906)" opacity="1" style="display: block;"><g opacity="1" transform="matrix(1,0,0,1,0,0)"><g opacity="1" transform="matrix(1,0,0,1,0,0)"><path fill="rgb(240,187,66)" fill-opacity="1" d=" M96.61000061035156,-22.926000595092773 C96.61000061035156,-22.926000595092773 82.46800231933594,-38.39400100708008 82.46800231933594,-38.39400100708008 C80.41500091552734,-40.638999938964844 77.51200103759766,-41.917999267578125 74.47000122070312,-41.917999267578125 C74.47000122070312,-41.917999267578125 51.67599868774414,-41.917999267578125 51.67599868774414,-41.917999267578125 C47.4010009765625,-41.917999267578125 43.935001373291016,-38.45199966430664 43.935001373291016,-34.176998138427734 C43.935001373291016,-34.176998138427734 43.935001373291016,66.33200073242188 43.935001373291016,66.33200073242188 C43.935001373291016,69.625 46.60499954223633,72.29499816894531 49.89799880981445,72.29499816894531 C49.89799880981445,72.29499816894531 190.36900329589844,72.29499816894531 190.36900329589844,72.29499816894531 C193.66200256347656,72.29499816894531 196.33299255371094,69.625 196.33299255371094,66.33200073242188 C196.33299255371094,66.33200073242188 196.33299255371094,-15.1850004196167 196.33299255371094,-15.1850004196167 C196.33299255371094,-19.459999084472656 192.86599731445312,-22.926000595092773 188.59100341796875,-22.926000595092773 C188.59100341796875,-22.926000595092773 96.61000061035156,-22.926000595092773 96.61000061035156,-22.926000595092773z"></path></g><g opacity="1" transform="matrix(1,0,0,1,0,0)"><path fill="rgb(247,210,92)" fill-opacity="1" d=" M155.13800048828125,45.36899948120117 C155.13800048828125,45.36899948120117 88.6259994506836,45.36899948120117 88.6259994506836,45.36899948120117 C88.6259994506836,45.36899948120117 88.6259994506836,4.258999824523926 88.6259994506836,4.258999824523926 C88.6259994506836,4.258999824523926 155.13800048828125,4.258999824523926 155.13800048828125,4.258999824523926 C155.13800048828125,4.258999824523926 155.13800048828125,45.36899948120117 155.13800048828125,45.36899948120117z"></path></g></g><g opacity="1" transform="matrix(1,0,0,1,0,0)"><g opacity="1" transform="matrix(1,0,0,1,0,0)"><path stroke-linecap="round" stroke-linejoin="round" fill-opacity="0" stroke="rgb(255,255,255)" stroke-opacity="1" stroke-width="3" d=" M113.85099792480469,36.94900131225586 C113.85099792480469,36.94900131225586 125.98600006103516,12.678999900817871 125.98600006103516,12.678999900817871"></path></g><g opacity="1" transform="matrix(1,0,0,1,-0.21456146240234375,0)"><path stroke-linecap="round" stroke-linejoin="round" fill-opacity="0" stroke="rgb(255,255,255)" stroke-opacity="1" stroke-width="3" d=" M108.56800079345703,32.69200134277344 C108.56800079345703,32.69200134277344 97.31099700927734,24.947999954223633 97.31099700927734,24.947999954223633 C97.31099700927734,24.947999954223633 108.56800079345703,17.20400047302246 108.56800079345703,17.20400047302246"></path></g><g opacity="1" transform="matrix(1,0,0,1,0.37548828125,0)"><path stroke-linecap="round" stroke-linejoin="round" fill-opacity="0" stroke="rgb(255,255,255)" stroke-opacity="1" stroke-width="3" d=" M131.697998046875,17.20400047302246 C131.697998046875,17.20400047302246 142.95599365234375,24.947999954223633 142.95599365234375,24.947999954223633 C142.95599365234375,24.947999954223633 131.697998046875,32.69200134277344 131.697998046875,32.69200134277344"></path></g></g></g><g transform="matrix(1,0,0,1,400,394.20782470703125)" opacity="1" style="display: block;"><g opacity="1" transform="matrix(1,0,0,1,0,0)"><g opacity="1" transform="matrix(1,0,0,1,0,0)"><path fill="rgb(242,189,66)" fill-opacity="1" d=" M48.819000244140625,118.8740005493164 C38.5629997253418,111.5479965209961 14.630999565124512,112.5250015258789 -0.5740000009536743,113.01300048828125 C-15.779000282287598,112.5250015258789 -39.709999084472656,111.5479965209961 -49.965999603271484,118.8740005493164 C-54.96900177001953,122.447998046875 -50.27199935913086,149.3300018310547 -45.082000732421875,151.71800231933594 C-43.652000427246094,174.1320037841797 -62.66400146484375,219.97000122070312 -62.66400146484375,219.97000122070312 C-62.66400146484375,219.97000122070312 -28.836000442504883,245.56300354003906 -0.5740000009536743,245.56300354003906 C27.687999725341797,245.56300354003906 61.516998291015625,219.97000122070312 61.516998291015625,219.97000122070312 C61.516998291015625,219.97000122070312 43.36899948120117,175.3070068359375 43.935001373291016,151.71800231933594 C50.07500076293945,148.89199829101562 53.744998931884766,122.39199829101562 48.819000244140625,118.8740005493164z"></path></g><g opacity="1" transform="matrix(0.9966747760772705,-0.08148219436407089,0.08148219436407089,0.9966747760772705,-9.819414138793945,-2.619140625)"><g opacity="1" transform="matrix(0.9443961977958679,-0.3288097679615021,0.3288097679615021,0.9443961977958679,-61.871585845947266,-12.873794555664062)"><path fill="rgb(235,206,195)" fill-opacity="1" d=" M-78.677001953125,171.37600708007812 C-79.43399810791016,174.54100036621094 -78.88300323486328,178.41700744628906 -77.52400207519531,182.58599853515625 C-72.1709976196289,199.00399780273438 -54.27799987792969,219.97000122070312 -54.27799987792969,219.97000122070312 C-54.27799987792969,219.97000122070312 -41.75,228.8280029296875 -39.375,219.18600463867188 C-39.375,219.18600463867188 -56.98699951171875,176.3820037841797 -56.98699951171875,176.3820037841797 C-56.98699951171875,176.3820037841797 -59.34199905395508,168.98199462890625 -64.87300109863281,166.75399780273438 C-69.73799896240234,164.79400634765625 -77.79399871826172,167.6840057373047 -78.677001953125,171.37600708007812z"></path></g><g opacity="1" transform="matrix(1,0,0,1,0,0)"><path fill="rgb(242,189,66)" fill-opacity="1" d=" M-30.628000259399414,115.83499908447266 C-37.5,111.9530029296875 -46.25,116.5790023803711 -49.965999603271484,118.8740005493164 C-55.196998596191406,122.1050033569336 -61.277000427246094,131.7689971923828 -66.61100006103516,141.7220001220703 C-68.71099853515625,145.64199829101562 -50.27199935913086,149.3300018310547 -45.082000732421875,151.71800231933594 C-37.5,140.3280029296875 -20.016000747680664,121.83000183105469 -30.628000259399414,115.83499908447266z"></path></g><g opacity="1" transform="matrix(1,0,0,1,0,0)"><path fill="rgb(235,206,195)" fill-opacity="1" d=" M-45.082000732421875,151.71800231933594 C-45.082000732421875,151.71800231933594 -60.33700180053711,144.71800231933594 -66.61100006103516,141.7220001220703 C-72.10600280761719,152.05499267578125 -76.79100036621094,163.48800659179688 -78.677001953125,171.37600708007812 C-82.41300201416016,187.00399780273438 -68,189.8280029296875 -64.52799987792969,187.22000122070312 C-61.00899887084961,184.5760040283203 -56.98699951171875,176.3820037841797 -56.98699951171875,176.3820037841797 C-56.98699951171875,176.3820037841797 -48.13399887084961,157.33399963378906 -45.082000732421875,151.71800231933594z"></path></g></g><g opacity="1" transform="matrix(0.9920570850372314,0.12578870356082916,-0.12578870356082916,0.9920570850372314,15.530206680297852,-3.9446640014648438)"><g opacity="1" transform="matrix(0.9200407862663269,0.39182260632514954,-0.39182260632514954,0.9200407862663269,74.5539321899414,-12.335220336914062)"><path fill="rgb(235,206,195)" fill-opacity="1" d=" M65.71399688720703,167.2220001220703 C70.53700256347656,166.10899353027344 76.53700256347656,168.0800018310547 78.4229965209961,175.96800231933594 C82.15899658203125,191.5959930419922 53.13100051879883,219.97000122070312 53.13100051879883,219.97000122070312 C53.13100051879883,219.97000122070312 39.25,226.8280029296875 35.97700119018555,217.18600463867188 C35.97700119018555,217.18600463867188 55.8390007019043,176.3820037841797 55.8390007019043,176.3820037841797 C55.8390007019043,176.3820037841797 59.768001556396484,168.593994140625 65.71399688720703,167.2220001220703z"></path></g><g opacity="1" transform="matrix(1,0,0,1,0,0)"><path fill="rgb(242,189,66)" fill-opacity="1" d=" M65.46399688720703,141.7220001220703 C60.191001892089844,131.95599365234375 53.619998931884766,122.39199829101562 48.694000244140625,118.8740005493164 C45.36899948120117,116.4990005493164 38.5,112.8280029296875 32.54499816894531,117.06700134277344 C24.033000946044922,123.125 35.75,135.3280029296875 43.935001373291016,151.71800231933594 C50.07500076293945,148.89199829101562 67.00900268554688,144.58299255371094 65.46399688720703,141.7220001220703z"></path></g><g opacity="1" transform="matrix(1,0,0,1,0,0)"><path fill="rgb(235,206,195)" fill-opacity="1" d=" M43.935001373291016,151.71800231933594 C43.935001373291016,151.71800231933594 59.189998626708984,144.71800231933594 65.46399688720703,141.7220001220703 C70.95999908447266,152.05499267578125 75.64399719238281,163.48800659179688 77.52999877929688,171.37600708007812 C81.26599884033203,187.00399780273438 72.25299835205078,189.38800048828125 65.88099670410156,187.97000122070312 C58.5,186.3280029296875 55.8390007019043,176.3820037841797 55.8390007019043,176.3820037841797 C55.8390007019043,176.3820037841797 46.98699951171875,157.33399963378906 43.935001373291016,151.71800231933594z"></path></g></g></g><g opacity="1" transform="matrix(0.9969637989997864,-0.07786615937948227,0.07786615937948227,0.9969637989997864,-9.075202941894531,0.25638580322265625)"><g opacity="1" transform="matrix(1,0,0,1,0,0)"><path fill="rgb(221,187,177)" fill-opacity="1" d=" M8.595999717712402,100.31500244140625 C7.125,96.48300170898438 2.996000051498413,95.31500244140625 -0.4490000009536743,95.31500244140625 C-3.9670000076293945,95.31500244140625 -7.875,96.60800170898438 -9.743000030517578,100.31500244140625 C-10.9399995803833,106.41999816894531 -13.63599967956543,112.5770034790039 -15.909000396728516,114.82099914550781 C-13.482999801635742,121.20899963378906 -6.249000072479248,121.80400085449219 -0.8659999966621399,122.03600311279297 C4.894000053405762,122.28500366210938 11.798999786376953,120.98999786376953 14.225000381469727,114.60199737548828 C11.951000213623047,112.35800170898438 9.793000221252441,106.41999816894531 8.595999717712402,100.31500244140625z"></path></g><g opacity="1" transform="matrix(0.9969382882118225,-0.07819238305091858,0.07819238305091858,0.9969382882118225,-7.744107246398926,1.0993576049804688)"><g opacity="1" transform="matrix(1,0,0,1,0,0)"><path fill="rgb(235,206,195)" fill-opacity="1" d=" M-23.363000869750977,77.88099670410156 C-23.363000869750977,67.83699798583984 -22.285999298095703,55.590999603271484 -15.906999588012695,50.3129997253418 C-12.489999771118164,47.486000061035156 -7,46.59199905395508 -0.5740000009536743,46.59199905395508 C5.933000087738037,46.59199905395508 11.609000205993652,47.67499923706055 15.107000350952148,50.89799880981445 C20.93600082397461,56.27000045776367 22.21500015258789,68.24099731445312 22.21500015258789,77.88099670410156 C22.21500015258789,93.30599975585938 12.01200008392334,105.80899810791016 -0.5740000009536743,105.80899810791016 C-13.15999984741211,105.80899810791016 -23.363000869750977,93.30599975585938 -23.363000869750977,77.88099670410156z"></path></g><g opacity="1" transform="matrix(1,0,0,1,0,0)"><path fill="rgb(235,206,195)" fill-opacity="1" d=" M18.785999298095703,72.552001953125 C18.56800079345703,69.79900360107422 19.844999313354492,67.4520034790039 21.636999130249023,67.31099700927734 C23.429000854492188,67.16899871826172 25.058000564575195,69.28600311279297 25.274999618530273,72.03900146484375 C25.493000030517578,74.79199981689453 24.216999053955078,77.13700103759766 22.424999237060547,77.27899932861328 C20.632999420166016,77.4209976196289 19.003999710083008,75.30500030517578 18.785999298095703,72.552001953125z"></path></g><g opacity="1" transform="matrix(1,0,0,1,0,0)"><path fill="rgb(235,206,195)" fill-opacity="1" d=" M-19.93400001525879,72.552001953125 C-19.716999053955078,69.79900360107422 -20.992000579833984,67.4520034790039 -22.784000396728516,67.31099700927734 C-24.576000213623047,67.16899871826172 -26.204999923706055,69.28600311279297 -26.422000885009766,72.03900146484375 C-26.639999389648438,74.79199981689453 -25.36400032043457,77.13700103759766 -23.57200050354004,77.27899932861328 C-21.780000686645508,77.4209976196289 -20.152000427246094,75.30500030517578 -19.93400001525879,72.552001953125z"></path></g><g opacity="1" transform="matrix(1,0,0,1,0,0)"><path fill="rgb(52,49,143)" fill-opacity="1" d=" M16.80500030517578,46.59299850463867 C16.80699920654297,46.59299850463867 16.809999465942383,46.59199905395508 16.812000274658203,46.59199905395508 C3.9830000400543213,34.2599983215332 4.489999771118164,40.3650016784668 6.468999862670898,42.13199996948242 C6.468999862670898,42.13199996948242 6.4679999351501465,42.132999420166016 6.4679999351501465,42.132999420166016 C-0.9480000138282776,39.733001708984375 -7.132999897003174,38.1150016784668 -8.305999755859375,38.534000396728516 C-8.897000312805176,38.744998931884766 -8.512999534606934,40.28200149536133 -7.9720001220703125,41.28799819946289 C-10.270000457763672,40.5620002746582 -12.866999626159668,39.58300018310547 -16.038000106811523,38.237998962402344 C-40.46799850463867,27.874000549316406 -39.861000061035156,50.92499923706055 -25.04199981689453,56.83700180053711 C-11.609000205993652,62.19599914550781 2.0190000534057617,62.89099884033203 19.97599983215332,59.44200134277344 C22.14299964904785,54.69499969482422 20.47800064086914,49.74300003051758 16.80500030517578,46.59299850463867z"></path></g></g></g><g opacity="1" transform="matrix(1,0,0,1,0,0)"><path fill="rgb(235,238,247)" fill-opacity="1" d=" M-59.64099884033203,178.572998046875 C-59.64099884033203,178.572998046875 -48.95500183105469,244.65499877929688 -48.95500183105469,244.65499877929688 C-48.95500183105469,244.65499877929688 47.80699920654297,244.65499877929688 47.80699920654297,244.65499877929688 C47.80699920654297,244.65499877929688 58.49399948120117,178.572998046875 58.49399948120117,178.572998046875 C58.93299865722656,175.85800170898438 56.83700180053711,173.39500427246094 54.08599853515625,173.39500427246094 C54.08599853515625,173.39500427246094 -55.233001708984375,173.39500427246094 -55.233001708984375,173.39500427246094 C-57.98400115966797,173.39500427246094 -60.08000183105469,175.85800170898438 -59.64099884033203,178.572998046875z"></path></g><g opacity="1" transform="matrix(1,0,0,1,0,0)"><g opacity="1" transform="matrix(0.9996926784515381,0.024789031594991684,-0.024789031594991684,0.9996926784515381,6.644950866699219,-1.0379638671875)"><g opacity="1" transform="matrix(1,0,0,1,0,0)"><path fill="rgb(52,49,143)" fill-opacity="1" d=" M93.84400177001953,272.0710144042969 C93.22899627685547,265.5639953613281 90.20600128173828,261.0039978027344 83.64800262451172,257.7250061035156 C84.52300262451172,257.7250061035156 85.23799896240234,257.7250061035156 85.697998046875,257.7250061035156 C88.97699737548828,257.7250061035156 96.55899810791016,263.6679992675781 96.55899810791016,272.2760009765625 C96.55899810791016,280.8840026855469 88.97699737548828,282.3179931640625 83.64800262451172,282.3179931640625 C88.36199951171875,281.8630065917969 94.3489990234375,277.4110107421875 93.84400177001953,272.0710144042969z"></path></g><g opacity="1" transform="matrix(1,0,0,1,0,0)"><path fill="rgb(106,106,226)" fill-opacity="1" d=" M48.5359992980957,275.1080017089844 C54.34299850463867,272.0849914550781 54.00600051879883,265.8760070800781 49.470001220703125,260.6679992675781 C51.69300079345703,259.4519958496094 54.41299819946289,257.7250061035156 59.46500015258789,257.7250061035156 C66.16000366210938,257.7250061035156 78.28700256347656,257.7250061035156 83.64800262451172,257.7250061035156 C90.20600128173828,261.0039978027344 93.22899627685547,265.5639953613281 93.84400177001953,272.0710144042969 C94.3489990234375,277.4110107421875 88.36199951171875,281.8630065917969 83.64800262451172,282.3179931640625 C78.31900024414062,282.3179931640625 60.82400131225586,279.85699462890625 55.57099914550781,278.42401123046875 C51.47700119018555,277.3080139160156 50.08700180053711,276.1809997558594 48.5359992980957,275.1080017089844z"></path></g><g opacity="1" transform="matrix(1,0,0,1,0,0)"><path stroke-linecap="round" stroke-linejoin="round" fill-opacity="0" stroke="rgb(255,255,255)" stroke-opacity="1" stroke-width="1" d=" M59.00400161743164,264.87701416015625 C60.5099983215332,267.02899169921875 60.9739990234375,271.01800537109375 58.900001525878906,272.7820129394531"></path></g><g opacity="1" transform="matrix(1,0,0,1,0,0)"><path stroke-linecap="round" stroke-linejoin="round" fill-opacity="0" stroke="rgb(255,255,255)" stroke-opacity="1" stroke-width="1" d=" M62.29899978637695,263.5660095214844 C63.80500030517578,265.7179870605469 64.68199920654297,271.48199462890625 61.683998107910156,274.1709899902344"></path></g><g opacity="1" transform="matrix(1,0,0,1,0,0)"><path stroke-linecap="round" stroke-linejoin="round" fill-opacity="0" stroke="rgb(255,255,255)" stroke-opacity="1" stroke-width="1" d=" M66.25399780273438,263.2330017089844 C68.21099853515625,265.83599853515625 69.16500091552734,272.0050048828125 66.16699981689453,274.6940002441406"></path></g><g opacity="1" transform="matrix(1,0,0,1,0,0)"><path fill="rgb(235,206,195)" fill-opacity="1" d=" M46.00699996948242,261.8370056152344 C47.207000732421875,261.8370056152344 48.266998291015625,261.32598876953125 49.470001220703125,260.6679992675781 C54.00600051879883,265.8760070800781 54.34299850463867,272.0849914550781 48.5359992980957,275.1080017089844 C47.525001525878906,274.4079895019531 46.44599914550781,273.73199462890625 44.50400161743164,273.09600830078125 C42.3120002746582,272.88800048828125 40.904998779296875,269.5329895019531 41.183998107910156,267.5690002441406 C41.90700149536133,262.4809875488281 46.00699996948242,261.8370056152344 46.00699996948242,261.8370056152344z"></path></g></g><g opacity="1" transform="matrix(1,0,0,1,0,0)"><path fill="rgb(52,49,143)" fill-opacity="1" d=" M46.00699996948242,261.8370056152344 C5.361000061035156,245.01800537109375 -25.36400032043457,225.77099609375 -51.518001556396484,216.2429962158203 C-78.56999969482422,206.38699340820312 -99.93699645996094,206.62899780273438 -102.74600219726562,216.94200134277344 C-108.48400115966797,238.01100158691406 -39.11199951171875,273.09600830078125 44.50400161743164,273.09600830078125 C44.50400161743164,268.5870056152344 46.00699996948242,261.8370056152344 46.00699996948242,261.8370056152344z"></path></g></g><g opacity="1" transform="matrix(1,0,0,1,0,0)"><g opacity="1" transform="matrix(0.9999978542327881,-0.0020832649897783995,0.0020832649897783995,0.9999978542327881,-0.5560722351074219,-0.09552001953125)"><g opacity="1" transform="matrix(1,0,0,1,0,0)"><path fill="rgb(52,49,143)" fill-opacity="1" d=" M-96.36399841308594,272.0710144042969 C-95.7490005493164,265.5639953613281 -92.72599792480469,261.0039978027344 -86.16799926757812,257.7250061035156 C-87.04299926757812,257.7250061035156 -87.75700378417969,257.7250061035156 -88.21700286865234,257.7250061035156 C-91.49600219726562,257.7250061035156 -99.0790023803711,263.6679992675781 -99.0790023803711,272.2760009765625 C-99.0790023803711,280.8840026855469 -91.49600219726562,282.3179931640625 -86.16799926757812,282.3179931640625 C-90.88200378417969,281.8630065917969 -96.86900329589844,277.4110107421875 -96.36399841308594,272.0710144042969z"></path></g><g opacity="1" transform="matrix(1,0,0,1,0,0)"><path fill="rgb(106,106,226)" fill-opacity="1" d=" M-51.055999755859375,275.1080017089844 C-56.862998962402344,272.0849914550781 -56.525001525878906,265.8760070800781 -51.98899841308594,260.6679992675781 C-54.21200180053711,259.4519958496094 -56.93199920654297,257.7250061035156 -61.98500061035156,257.7250061035156 C-68.68000030517578,257.7250061035156 -80.80699920654297,257.7250061035156 -86.16799926757812,257.7250061035156 C-92.72599792480469,261.0039978027344 -95.7490005493164,265.5639953613281 -96.36399841308594,272.0710144042969 C-96.86900329589844,277.4110107421875 -90.88200378417969,281.8630065917969 -86.16799926757812,282.3179931640625 C-80.83899688720703,282.3179931640625 -63.345001220703125,279.85699462890625 -58.090999603271484,278.42401123046875 C-53.99700164794922,277.3080139160156 -52.606998443603516,276.1809997558594 -51.055999755859375,275.1080017089844z"></path></g><g opacity="1" transform="matrix(1,0,0,1,0,0)"><path stroke-linecap="round" stroke-linejoin="round" fill-opacity="0" stroke="rgb(255,255,255)" stroke-opacity="1" stroke-width="1" d=" M-61.52399826049805,264.87701416015625 C-63.029998779296875,267.02899169921875 -63.49399948120117,271.01800537109375 -61.41999816894531,272.7820129394531"></path></g><g opacity="1" transform="matrix(1,0,0,1,0,0)"><path stroke-linecap="round" stroke-linejoin="round" fill-opacity="0" stroke="rgb(255,255,255)" stroke-opacity="1" stroke-width="1" d=" M-64.81800079345703,263.5660095214844 C-66.3239974975586,265.7179870605469 -67.20099639892578,271.48199462890625 -64.2030029296875,274.1709899902344"></path></g><g opacity="1" transform="matrix(1,0,0,1,0,0)"><path stroke-linecap="round" stroke-linejoin="round" fill-opacity="0" stroke="rgb(255,255,255)" stroke-opacity="1" stroke-width="1" d=" M-68.77300262451172,263.2330017089844 C-70.7300033569336,265.83599853515625 -71.68499755859375,272.0050048828125 -68.68699645996094,274.6940002441406"></path></g><g opacity="1" transform="matrix(1,0,0,1,0,0)"><path fill="rgb(235,206,195)" fill-opacity="1" d=" M-48.5260009765625,261.8370056152344 C-49.72600173950195,261.8370056152344 -50.7859992980957,261.32598876953125 -51.98899841308594,260.6679992675781 C-56.525001525878906,265.8760070800781 -56.862998962402344,272.0849914550781 -51.055999755859375,275.1080017089844 C-50.04499816894531,274.4079895019531 -48.965999603271484,273.73199462890625 -47.02399826049805,273.09600830078125 C-44.4370002746582,272.5769958496094 -43.0629997253418,269.70098876953125 -43.584999084472656,266.4989929199219 C-44.27299880981445,262.2760009765625 -48.5260009765625,261.8370056152344 -48.5260009765625,261.8370056152344z"></path></g></g><g opacity="1" transform="matrix(1,0,0,1,0,0)"><path fill="rgb(85,85,198)" fill-opacity="1" d=" M-48.5260009765625,261.8370056152344 C-7.880000114440918,245.01800537109375 22.8439998626709,225.77099609375 48.99800109863281,216.2429962158203 C76.05000305175781,206.38699340820312 97.41699981689453,206.62899780273438 100.22599792480469,216.94200134277344 C105.96399688720703,238.01100158691406 36.59199905395508,273.09600830078125 -47.02399826049805,273.09600830078125 C-47.02399826049805,270.9949951171875 -47.35100173950195,268.4070129394531 -47.69900131225586,266.2430114746094 C-48.097999572753906,263.7619934082031 -48.5260009765625,261.8370056152344 -48.5260009765625,261.8370056152344z"></path></g></g><g opacity="1" transform="matrix(1,0,0,1,0,0)"><path fill="rgb(208,212,246)" fill-opacity="1" d=" M2.882999897003174,205.20399475097656 C2.882999897003174,205.20399475097656 -4.0920000076293945,205.20399475097656 -4.0920000076293945,205.20399475097656 C-4.0920000076293945,205.20399475097656 -7.578999996185303,209.4080047607422 -7.578999996185303,209.4080047607422 C-7.578999996185303,209.4080047607422 -4.0920000076293945,213.61199951171875 -4.0920000076293945,213.61199951171875 C-4.0920000076293945,213.61199951171875 2.882999897003174,213.61199951171875 2.882999897003174,213.61199951171875 C2.882999897003174,213.61199951171875 6.369999885559082,209.4080047607422 6.369999885559082,209.4080047607422 C6.369999885559082,209.4080047607422 2.882999897003174,205.20399475097656 2.882999897003174,205.20399475097656z"></path></g></g><g transform="matrix(0.999996542930603,-0.0026389723643660545,0.0026389723643660545,0.999996542930603,400,400)" opacity="1" style="display: block;"><g opacity="1" transform="matrix(1,0,0,1,1.676300048828125,5.028900146484375)"><path fill="rgb(247,210,92)" fill-opacity="1" d=" M196.67100524902344,-293.8290100097656 C196.67100524902344,-293.8290100097656 185.45799255371094,-291.5530090332031 185.45799255371094,-291.5530090332031 C184.58099365234375,-291.375 183.86500549316406,-290.74200439453125 183.58099365234375,-289.8940124511719 C183.58099365234375,-289.8940124511719 179.94400024414062,-279.04400634765625 179.94400024414062,-279.04400634765625 C179.66000366210938,-278.19500732421875 179.8489990234375,-277.260009765625 180.44200134277344,-276.5889892578125 C180.44200134277344,-276.5889892578125 188.02200317382812,-268.0150146484375 188.02200317382812,-268.0150146484375 C188.61500549316406,-267.3450012207031 189.52000427246094,-267.0409851074219 190.39700317382812,-267.218994140625 C190.39700317382812,-267.218994140625 201.61000061035156,-269.4949951171875 201.61000061035156,-269.4949951171875 C202.48699951171875,-269.6730041503906 203.2030029296875,-270.3059997558594 203.48699951171875,-271.15399169921875 C203.48699951171875,-271.15399169921875 207.12399291992188,-282.0039978027344 207.12399291992188,-282.0039978027344 C207.4080047607422,-282.8529968261719 207.218994140625,-283.7879943847656 206.62600708007812,-284.4590148925781 C206.62600708007812,-284.4590148925781 199.04600524902344,-293.03399658203125 199.04600524902344,-293.03399658203125 C198.4530029296875,-293.7040100097656 197.54800415039062,-294.0069885253906 196.67100524902344,-293.8290100097656z"></path></g><g opacity="1" transform="matrix(1,0,0,1,-3.014312744140625,-1.5557708740234375)"><path fill="rgb(247,210,92)" fill-opacity="1" d=" M-225.10499572753906,184.58799743652344 C-225.10499572753906,184.58799743652344 -219.6719970703125,173.91200256347656 -219.6719970703125,173.91200256347656 C-219.04400634765625,172.6790008544922 -217.53599548339844,172.18800354003906 -216.30299377441406,172.8159942626953 C-216.30299377441406,172.8159942626953 -205.62899780273438,178.25 -205.62899780273438,178.25 C-204.39599609375,178.8769989013672 -203.906005859375,180.38499450683594 -204.5330047607422,181.6179962158203 C-204.5330047607422,181.6179962158203 -209.96499633789062,192.29299926757812 -209.96499633789062,192.29299926757812 C-210.5919952392578,193.5260009765625 -212.1009979248047,194.01699829101562 -213.33399963378906,193.38900756835938 C-213.33399963378906,193.38900756835938 -224.00900268554688,187.95599365234375 -224.00900268554688,187.95599365234375 C-225.24200439453125,187.3280029296875 -225.73300170898438,185.8209991455078 -225.10499572753906,184.58799743652344z"></path></g><g opacity="1" transform="matrix(1,0,0,1,4.21978759765625,-0.5754241943359375)"><path fill="rgb(106,106,226)" fill-opacity="1" d=" M-292.81298828125,-166.22500610351562 C-292.81298828125,-166.22500610351562 -290.2909851074219,-148.6020050048828 -290.2909851074219,-148.6020050048828 C-290.01800537109375,-146.6929931640625 -287.7799987792969,-145.79600524902344 -286.2640075683594,-146.98699951171875 C-286.2640075683594,-146.98699951171875 -272.26300048828125,-157.98300170898438 -272.26300048828125,-157.98300170898438 C-270.74700927734375,-159.1739959716797 -271.0889892578125,-161.5590057373047 -272.87799072265625,-162.27699279785156 C-272.87799072265625,-162.27699279785156 -289.4010009765625,-168.9040069580078 -289.4010009765625,-168.9040069580078 C-291.1910095214844,-169.6219940185547 -293.08599853515625,-168.13400268554688 -292.81298828125,-166.22500610351562z"></path></g><g opacity="1" transform="matrix(1,0,0,1,11.81231689453125,-50.57298278808594)"><path fill="rgb(106,106,226)" fill-opacity="1" d=" M255.3780059814453,214.7310028076172 C255.3780059814453,214.7310028076172 245.52999877929688,229.56199645996094 245.52999877929688,229.56199645996094 C244.46299743652344,231.16799926757812 245.53599548339844,233.32699584960938 247.4600067138672,233.447998046875 C247.4600067138672,233.447998046875 265.2279968261719,234.56100463867188 265.2279968261719,234.56100463867188 C267.1520080566406,234.6820068359375 268.4859924316406,232.6739959716797 267.62799072265625,230.94700622558594 C267.62799072265625,230.94700622558594 259.7080078125,215.0030059814453 259.7080078125,215.0030059814453 C258.8500061035156,213.2760009765625 256.44500732421875,213.125 255.3780059814453,214.7310028076172z"></path></g></g></g></svg>