<svg xmlns="http://www.w3.org/2000/svg" viewBox="0 0 24 24" id="CssAlt"><path d="M12 24a.507.507 0 0 1-.176-.032l-8-3a.498.498 0 0 1-.321-.418l-2-20A.5.5 0 0 1 2 0h20a.5.5 0 0 1 .497.55l-2 20a.5.5 0 0 1-.321.418l-8 3A.507.507 0 0 1 12 24zm-7.533-3.859L12 22.966l7.533-2.825L21.447 1H2.553l1.914 19.141z" fill="#5400ee" class="color000000 svgShape"></path><path d="M12 19a.491.491 0 0 1-.221-.052L7.646 16.91a.498.498 0 0 1-.275-.385l-.376-2.962A.5.5 0 0 1 7.491 13h2.488a.5.5 0 0 1 .491.409l.237 1.271 1.347.761 1.728-.781.354-2.66H7.242a.499.499 0 0 1-.493-.419l-.329-2a.499.499 0 0 1 .288-.537L10.14 7.5H6.165a.499.499 0 0 1-.483-.372l-.665-2.5A.498.498 0 0 1 5.5 4h13a.501.501 0 0 1 .491.598l-.498 2.5a.5.5 0 0 1-.284.358L14.79 9h2.656c.145 0 .282.062.377.172a.496.496 0 0 1 .118.397l-.975 6.987a.5.5 0 0 1-.29.387l-4.472 2.013A.496.496 0 0 1 12 19zm-3.671-2.868 3.681 1.815 4.005-1.803.857-6.144h-4.403a.502.502 0 0 1-.206-.956l5.299-2.394.329-1.65H6.15l.4 1.5h5.919a.501.501 0 0 1 .205.956L7.469 9.798 7.667 11h7.04a.5.5 0 0 1 .496.566l-.466 3.5a.504.504 0 0 1-.29.39l-2.212 1a.497.497 0 0 1-.452-.02l-1.771-1a.497.497 0 0 1-.245-.344L9.564 14H8.059l.27 2.132z" fill="#5400ee" class="color000000 svgShape"></path></svg>