<svg xmlns="http://www.w3.org/2000/svg" viewBox="0 0 64 64"><path fill="#ffc152" d="M61.501,26.39l-9.892-17.134c-1.998-3.46-5.721-5.61-9.717-5.61H22.108c-3.996,0-7.72,2.15-9.717,5.61L2.499,26.39c-1.998,3.461-1.998,7.76,0,11.221l9.892,17.134c1.998,3.46,5.721,5.61,9.717,5.61h19.784c3.996,0,7.72-2.15,9.717-5.61l9.892-17.134c1.998-3.461,1.998-7.76,0-11.221Z"/><path fill="#fff8dc" d="M59.817,36.638l-9.892,17.134c-1.652,2.861-4.73,4.638-8.033,4.638H22.108c-3.303,0-6.381-1.777-8.033-4.638L4.183,36.638c-1.651-2.86-1.651-6.415,0-9.275L14.075,10.229c1.652-2.861,4.73-4.638,8.033-4.638h19.784c3.303,0,6.381,1.777,8.033,4.638l9.892,17.134c1.651,2.86,1.651,6.415,0,9.275Z"/><path fill="#ffc152" d="M23.225 21.843c-5.6 0-10.157 4.556-10.157 10.157s4.556 10.157 10.157 10.157c2.868 0 5.616-1.222 7.541-3.352.36-.399.328-1.014-.07-1.374-.399-.36-1.014-.327-1.374.07-1.556 1.723-3.778 2.711-6.097 2.711-4.199 0-7.672-3.168-8.154-7.239h17.339c.537 0 .973-.436.973-.973 0-5.601-4.556-10.157-10.157-10.157zm-8.154 9.185c.482-4.071 3.955-7.239 8.154-7.239s7.673 3.168 8.155 7.239H15.071zM50.647 25.596c-.38-.379-.995-.379-1.376 0l-6.163 6.164-6.163-6.164c-.38-.379-.995-.379-1.376 0-.379.38-.379.996 0 1.376l6.163 6.164-6.163 6.164c-.379.38-.379.996 0 1.376.19.19.439.285.688.285s.498-.095.688-.285l6.163-6.164 6.163 6.164c.19.19.439.285.688.285s.498-.095.688-.285c.379-.38.379-.996 0-1.376l-6.163-6.164 6.163-6.164c.379-.38.379-.996 0-1.376z"/></svg>