<svg xmlns="http://www.w3.org/2000/svg" fill="none" viewBox="0 0 256 256"><defs><linearGradient id="a"><stop class="stop1" offset="0%" stop-color="#0059ff"/><stop class="stop2" offset="100%" stop-color="#00b7ff"/></linearGradient></defs><path stroke="url(#a)" stroke-linecap="round" stroke-linejoin="round" stroke-width="19" d="M112 181.333a21.333 21.333 0 1 0 0 42.667 21.333 21.333 0 0 0 0 -42.667Zm0 0V96m0 0a21.333 21.333 0 1 0 -17.899 -32.939M112 96a21.333 21.333 0 0 1 -17.899 -32.939m93.931 71.413L128 88.779M53.333 32l40.768 31.061M224.672 149.333a21.333 21.333 0 1 1 -42.667 0 21.333 21.333 0 0 1 42.667 0Z"/></svg>