<svg xmlns="http://www.w3.org/2000/svg" viewBox="0 0 3000 3000" width="100%" height="100%" preserveAspectRatio="xMidYMid meet" style="transform:translate3d(0px, 0px, 0px)" xmlns:v="https://vecta.io/nano"><style><![CDATA[.B{fill-opacity:0}.C{stroke-linejoin:round}.D{stroke-width:4.17}.E{stroke-linecap:round}.F{fill:#7da3fb}.G{fill:#ffaf18}.H{stroke:#2a1d19}.I{fill:#fff}.J{fill:#949899}.K{stroke:#fff}.L{stroke:#353640}.M{fill:#fccac3}.N{fill:#2a1d19}.O{fill:#353640}]]></style><defs><clipPath id="A"><path d="M0 0h3000v3000H0z"/></clipPath><path id="B" d="M717.04 908.55h97.64v12.14h-97.64v-12.14z"/><path id="C" d="M1040.8 1128.36h329.388v12.14H1040.8v-12.14z"/><path id="D" d="M1884.82 830.031h56.74v7.05h-56.74v-7.05z"/><path id="E" d="M1907.79 1432.01h338.118v12.46H1907.79v-12.46z"/><path id="F" d="M1907.79 1395.72h289.326v12.46H1907.79v-12.46z"/><path id="G" d="M1920.256 2252.419c0 51.91-42.081 93.991-93.991 93.991s-93.991-42.081-93.991-93.991 42.081-93.991 93.991-93.991 93.991 42.081 93.991 93.991z"/><path id="H" d="M576.105 1756.58H732.57v12.14H576.105v-12.14z"/></defs><g clip-path="url(#A)"><path d="M355 2350.42h2290" class="B C D E L"/><path d="M403.246 1147.36s6.02-30.36 33.37-24.69c27.36 5.67 31.699-29.361 59.72-29.361 28.029 0 34.7 18.021 54.38 18.021s25.69-49.71 64.06-49.71c38.36 0 32.36 38.36 54.04 38.36 21.69 0 18.69-16.68 38.7-16.68 20.02 0 41.25 64.06 72.07 64.06h-376.34z" class="F"/><path stroke="#7da3fb" d="M1654.366 1472.82s5.45-23.29 30.24-18.94 28.719-22.52 54.11-22.52c25.4 0 31.439 13.82 49.279 13.82s23.28-38.14 58.041-38.14c34.77 0 29.331 29.439 48.98 29.439s16.93-12.799 35.069-12.799 37.371 49.139 65.301 49.139h-341.02z" class="B C D"/><path fill="#e1ecf2" d="M716.5 796.31h679.981c30.646 0 55.489 26.527 55.489 59.25v429.51c0 32.723-24.843 59.25-55.489 59.25H716.5c-30.646 0-55.49-26.527-55.49-59.25V855.56c0-32.723 24.844-59.25 55.49-59.25z"/><g class="C D L B"><path d="M689.61 869.22h733.76" class="E"/><path d="M1264.331 831.72c5.235 0 9.479 4.245 9.479 9.481a9.48 9.48 0 0 1-9.479 9.479c-5.236 0-9.481-4.244-9.481-9.479s4.245-9.481 9.481-9.481zm47.399 0c5.235 0 9.48 4.245 9.48 9.481a9.48 9.48 0 1 1-18.96 0c0-5.236 4.244-9.481 9.48-9.481zm47.4 0c5.235 0 9.479 4.245 9.479 9.481a9.48 9.48 0 0 1-9.479 9.479 9.48 9.48 0 0 1-9.479-9.479c0-5.236 4.244-9.481 9.479-9.481z"/></g><path d="M717.04 960.31h277.51v277.51H717.04V960.31z" class="I"/><path fill="#6bd181" d="M978.3 1153.059v68.511h-245v-72.2c25.561 3.77 33.33 29.549 53.38 29.549 21.641 0 28.25-82.819 70.431-82.819s35.578 63.93 59.419 63.93 20.54-27.8 42.54-27.8c6.239 0 12.57 8.56 19.23 20.83z"/><g class="G"><path d="M805.18 1023.45c14.498 0 26.25 11.752 26.25 26.25s-11.752 26.25-26.25 26.25-26.25-11.753-26.25-26.25 11.753-26.25 26.25-26.25z"/><use href="#B"/><path d="M910.79 908.55h97.64v12.14h-97.64v-12.14zm193.75 0h97.64v12.14h-97.64v-12.14zm193.76 0h97.64v12.14h-97.64v-12.14z"/></g><g class="I"><path d="M1040.8 1199.08h164.694v12.14H1040.8v-12.14zm0-35.36h185.367v12.14H1040.8v-12.14z"/><use href="#C"/><path d="M1040.8 1093h281.856v12.14H1040.8V1093zm0-35.36h329.388v12.14H1040.8v-12.14zm0-35.36h281.856v12.14H1040.8v-12.14zm0-35.36h329.388v12.14H1040.8v-12.14z"/></g><path fill="#e1ecf2" d="M1884.5 764.81h395.16c17.806 0 32.24 42.05 32.24 93.92v680.78c0 51.871-14.434 93.92-32.24 93.92H1884.5c-17.806 0-32.24-42.049-32.24-93.92V858.73c0-51.87 14.434-93.92 32.24-93.92z"/><path d="M2017.97 787.901h128.22" class="B C D E L"/><g class="I"><use href="#D"/><path d="M1997.42 830.031h56.74v7.05h-56.74v-7.05zm112.59 0h56.74v7.05h-56.74v-7.05zm112.59 0h56.74v7.05h-56.74v-7.05zm-314.81 67.319h348.58v348.58h-348.58V897.35z"/></g><path fill="#cce7de" d="M2235.95 1139.46v86.05h-307.74v-90.69c32.1 4.739 41.87 37.12 67.059 37.12 27.181 0 35.471-104.03 88.451-104.03 52.99 0 44.7 80.29 74.639 80.29 29.95 0 25.801-34.91 53.441-34.91 7.83 0 15.79 10.76 24.149 26.17z"/><path fill="#e5e5d9" d="M2018.5 976.65c18.209 0 32.97 14.761 32.97 32.97s-14.761 32.97-32.97 32.97-32.97-14.761-32.97-32.97 14.761-32.97 32.97-32.97z"/><g class="I"><path d="M1907.79 1504.611h169.059v12.46H1907.79v-12.46zm0-36.301h190.28v12.46h-190.28v-12.46z"/><use href="#E"/><use href="#F"/><path d="M1907.79 1359.42h338.118v12.46H1907.79v-12.46zm0-36.3h289.326v12.46H1907.79v-12.46zm0-36.29h338.118v12.46H1907.79v-12.46z"/></g><path d="M1410.25 1545.38s-225.69 54.01-265.27 100.891c-39.591 46.869 15.619 314.569 65.619 702.069h562.51s90.621-655.21 67.711-701.04c-22.92-45.83-291.851-112.49-291.851-112.49l-138.719 10.57z" class="F"/><path d="M1518.94 1663.95l11.98 170.32-70.31-1.051" class="B C D E L"/><g class="I"><path d="M1489.25 1686.35c10.212 0 18.49 8.278 18.49 18.49s-8.278 18.49-18.49 18.49-18.49-8.278-18.49-18.49 8.278-18.49 18.49-18.49zm0 79.68c10.212 0 18.49 8.278 18.49 18.49s-8.278 18.49-18.49 18.49-18.49-8.279-18.49-18.49 8.278-18.49 18.49-18.49z"/></g><g class="C D E H B"><path d="M1180.12 2126.43l-32.65-231.23m685.02-35.91l-31.27 274.16"/></g><path d="M1414.95 1433.741h128.48l6.74 122.92c0 129.69-140.4 98.44-140.4 0l5.18-122.92z" class="M"/><path d="M1488.69 1642.58s-41.9-16.08-78.44-97.2l-49.12 6.34 19.79 159.11s58.84-14.07 107.811-56.25l89.059 51.05s33.39-78.49 21.64-157.479l-50.459-13.341s-5.551 81.23-60.281 107.77z" class="I"/><g class="C D E H B"><path d="M1367.96 1606.63l12.96 104.2s32.64-.91 92.78-44.34m126.39-50.82s-5.94 50.64-22.3 89.96m-164.05-152.72s19.02 38.34 33.44 54.17"/></g><g transform="matrix(.882948 .469472 -.469472 .882948 981.112854 -324.214874)"><g class="F"><path d="M1153.812 2234.656c0 45.936-37.239 83.175-83.175 83.175s-83.175-37.239-83.175-83.175 37.239-83.175 83.175-83.175 83.175 37.239 83.175 83.175z"/><path d="M994.296 2218.149l-.049 1.08v.04c-2.03 52.46 13.27 97.79 78.259 97.79 115.63 0 194.79 30.321 258.33 6.071 63.55-24.26 135.42-243.59-23.95-223.37l-114.059 16.669s-56.133 7.834-114.589 23.553c-17.274 4.645-33.754 11.962-48.571 21.983-39.975 27.038-34.946 49.617-35.371 56.184z"/><path d="M989.151 2251.419c15.164 37.35 32.025 65.641 83.355 65.641 115.63 0 194.79 30.32 258.33 6.07 47.53-18.15 99.701-145.4 56.321-199.95-21.57-12.28-52.981-21.32-92.981-9.04-80.97 24.85-33.6 151.18-33.6 151.18-19.45 46.721-129.169 12.499-189.589 16.669-59.7 4.12-81.477-29.761-81.836-30.57z"/></g><path d="M1075.897 2140.609s118.44-34.3 217.71-38.91c99.26-4.61 102.27 36.061 102.27 36.061" class="B C D E H"/></g><g transform="matrix(.882948 .469472 -.469472 .882948 981.112366 -324.21402)"><g class="M"><path d="M1247.614 2209.855s53.96-92.79 90.84-107c36.87-14.21 73.5 69.87 73.5 69.87s40.939-42.97 59.55-38.54c18.609 4.42 20.38 21.89 10.78 31-9.6 9.1-58.91 96.179-99.47 84.23 0 0-17.76 39.609-64.53 34.789s-77.94-64.639-70.67-74.349z"/><path d="M1316.764 2117.644l51.119 44.47c11.211 8.811 36.08 6.811 26.95-16.79-9.12-23.61-43.88-58.019-58.2-59.409s-33.899 19.269-19.869 31.729zm-74.701 113.5s44.95 49.701 62.22 35.331-17.02-47.68-36.01-68.491c-19-20.8-44.21 9.11-26.21 33.16z"/><path d="M1260.913 2157.924s-14.25 17.6 6.58 39.25c20.83 21.64 53.09 43.791 64.89 31.61s-1.359-34.08-29.619-59.43c-28.27-25.34-36.761-17.84-41.851-11.43zm19.61-39.669s12.09-17.04 32.46-1.83c20.38 15.199 63.5 60.751 45.17 77.31-18.34 16.561-68.429-36.82-77.639-49.65-9.221-12.82.009-25.83.009-25.83z"/></g><g class="C D E H B"><path d="M1384.903 2181.154s-22.941 32.86-2.09 68.25m-66.049-131.76l51.119 44.47c11.211 8.811 36.08 6.811 26.95-16.79-9.12-23.61-43.88-58.02-58.2-59.41m-94.569 145.23s44.95 49.7 62.22 35.33-17.02-47.679-36.01-68.49"/><path d="M1267.493 2197.174c20.83 21.64 53.089 43.791 64.889 31.61s-1.359-34.08-29.619-59.43m10.221-52.93c20.38 15.199 63.5 60.751 45.17 77.31-18.34 16.561-68.43-36.82-77.64-49.65"/></g></g><g transform="matrix(.927184 .374607 -.374607 .927184 722.089844 -322.412476)" class="F"><path d="M1140.581 1644.578s-35.141 41.66-66.391 151.82c-31.25 110.17-50 248.13-66.66 319.89-7.3 31.43-19.4 76.63-20.97 117.5 8.874 60.844 39.508 54.896 73.129 57.595 30.549 2.452 63.378 18.705 88.167-28.34 14.766-28.024 33.162-92.242 37.284-132.106 0 0 28.13-140.989 46.88-261.269 4.912-31.506 35.335-125.91 32.818-158.682-3.98-51.831-28.778-64.61-56.67-71.82-21.795-5.633-44.392-13.989-67.587 5.412z"/><path d="M1266.198 1696.826c0 40.872-33.134 74.006-74.006 74.006s-74.006-33.134-74.006-74.006 33.134-74.006 74.006-74.006 74.006 33.134 74.006 74.006zm-113.287 537.597c0 45.936-37.238 83.175-83.175 83.175s-83.175-37.239-83.175-83.175 37.238-83.175 83.175-83.175 83.175 37.238 83.175 83.175z"/></g><g transform="matrix(.965926 -.258819 .258819 .965926 -380.753174 517.590088)" class="F"><path d="M1743.585 1655.315s89.762-29.945 121.013 44.015c7.662 80.707 22.057 323.625 43.927 447.586 8.93 50.614 16.274 91.924 9.231 127.114-1.38 6.894-7.965 16.818-10.101 22.955-26.311 60.025-144.448 54.04-171.638-18.234-24.97-66.372-26.631-86.42-29.232-119.946 0 0-5.55-180.12-20.13-334.29-3.801-40.169-5.399-86.529-3.977-113.128 2.364-44.222 33.761-47.915 47.595-52.308 9.781-3.106-.314-15.341 13.312-3.764z"/><path d="M1864.867 1706.383c0 50.31-40.784 91.094-91.094 91.094s-91.094-40.784-91.094-91.094 40.784-91.094 91.094-91.094 91.094 40.784 91.094 91.094z"/><use href="#G"/></g><g transform="matrix(.93358 -.358368 .358368 .93358 -545.081055 774.340027)"><g class="F"><path d="M1921.448 2251.779c0 51.91-42.081 93.991-93.991 93.991s-93.991-42.081-93.991-93.991 42.081-93.991 93.991-93.991 93.991 42.081 93.991 93.991z"/><path d="M1913.656 2290.394c-13.619 39.41-43.241 62.711-95.06 62.711h-170.83c-46.36 0-79.17-77.601-60.42-160.941 18.75-83.33 125.34-39.669 125.34-39.669 2.042 2.319 97.102-3.946 104.308 5.293 12.805 16.418-59.351 56.427-52.018 99.756 11.46 67.71 117.68 81.241 152.071 17.701-.711 5-1.84 10.049-3.391 15.149z"/></g><path d="M1844.356 2163.195s-38.12-12.11-131.67-10.7" class="B C D E H"/><g class="M"><path d="M1708.419 2289.622s-26.21-104.09-57.72-127.94c-31.52-23.85-89.95 46.831-89.95 46.831s-27.481-52.6-46.59-53.5c-19.109-.89-25.63 15.41-18.92 26.82 6.71 11.399 30.029 108.719 72.32 108.439 0 0 6.12 42.971 52.4 51.271 46.28 8.29 92.761-40.58 88.46-51.92z"/><path d="M1667.449 2181.893l-61.419 28.601c-13.21 5.379-36.561-3.42-21.261-23.58 15.301-20.17 58.21-43.631 72.35-41.011 14.15 2.62 27.25 27.889 10.33 35.99zm40.421 129.719s-56.941 35.34-69.56 16.76c-12.631-18.58 29.529-41.119 53.539-55.869 24.011-14.74 39.971 20.969 16.021 39.109z"/><path d="M1709.99 2236.033s8.83 20.86-17.17 35.9c-26 15.05-63.12 27.42-71.1 12.449-7.971-14.97 10.719-32.379 44.89-48.92 34.18-16.55 40.26-6.988 43.38.571zm-7.881-43.54s-6.91-19.72-30.69-10.73c-23.79 8.979-77.821 40.84-64.77 61.82 13.04 20.979 75.93-16.48 88.33-26.26s7.13-24.83 7.13-24.83z"/></g><g class="C D E H B"><path d="M1584.409 2224.093s12.97 37.92-16.849 66.18m99.889-108.38l-61.42 28.601c-13.21 5.379-36.561-3.42-21.261-23.58 15.301-20.17 58.211-43.631 72.351-41.011m50.75 165.709s-56.94 35.34-69.559 16.76c-12.631-18.58 29.529-41.119 53.539-55.869"/><path d="M1692.819 2271.933c-26 15.05-63.12 27.42-71.1 12.45-7.971-14.97 10.719-32.38 44.89-48.92m4.81-53.7c-23.79 8.979-77.821 40.84-64.77 61.82 13.039 20.979 75.931-16.481 88.331-26.261"/></g></g><g class="N"><path d="M1414.95 1433.741h128.48l4.83 88.019c-45.74 14.03-105.189 5.54-136.04-23.22l2.729-64.799zm-73.69-27.781s-53.949-59.39-60.5-175.75c-6.56-116.37 124.551-127.68 189.92-134.34 65.37-6.67 109.941 49.74 115.651 84.08 5.71 34.33 42.519 176.939-21.67 207.309-64.191 30.38-223.401 18.701-223.401 18.701z"/></g><path d="M1550.281 1337.099s25.839-89.51 61.469-68.699c35.641 20.81 42.571 154.6-47.049 130.94l-14.421-62.24z" class="M"/><path d="M1610.311 1303.42s-11.042 11.32-9.441 50.28m13.62-17.44s-8.509-1.03-13.759 7.36" class="B C D E H"/><g class="M"><path d="M1385.08 1493.78c-46.27-43.12-62.96-123.1-77.561-278.58-17.359-95.641 231.791-123.17 246.041-44.66 40.959 150.7 48.89 235.44 21.879 289.75-29.31 58.94-144.089 76.61-190.359 33.49z"/><path d="M1358.62 1371.89s-62.56-73.47-93.83-40.51c-31.28 32.95 12.09 160.121 101.681 103.941l-7.851-63.431z"/></g><path d="M1278.21 1366.86s34.8 2.99 55.54 38.48m-45.13-6.78s20.62-6.31 39.08-2.22" class="B C D E H"/><g class="N"><path d="M1317.46 1226.139s28.23 153.06 12.3 155.37c-15.939 2.311-113.21-163.129-60.55-211.179 0 0-48.31-64.64 75.62-89.73 123.92-25.091 139.401-58.7 159.26-52.421 19.87 6.28 13.971 44.281 13.971 44.281s35.539-16.581 58.379-14.151c22.83 2.421 36.06 119.261-43.26 135.441 0 0-79.21 27.9-215.72 32.389z"/><path d="M1552.8 1167.24s23.091 142.83 29.22 145.88c6.141 3.05 9.24-21.04.35-92.65s-36.78-82.27-29.57-53.23z"/></g><path d="M1459.151 1310.33s31.449 49.34 30.84 63.48-26.741 4.32-26.741 4.32" class="B C D E H"/><path d="M1441.338 1399.47s28.905 8.569 53.024.392c24.12-8.168 26.127 35.041-9.824 42.792-35.952 7.76-69.096-49.328-43.2-43.184z" class="I"/><g class="N"><path d="M1403.352 1295.183c5.358-.972 10.478 2.576 11.449 7.923l2.011 11.079a9.84 9.84 0 0 1-7.925 11.439c-5.358.972-10.478-2.576-11.449-7.923l-2.01-11.079a9.84 9.84 0 0 1 7.924-11.439zm102.23-18.55c5.357-.973 10.478 2.575 11.448 7.923l2.011 11.079a9.84 9.84 0 0 1-7.924 11.438c-5.358.973-10.478-2.575-11.449-7.923l-2.011-11.078a9.84 9.84 0 0 1 7.925-11.439zm-137.032 6.127s45.51-5.13 56.27-10.21c10.75-5.08 4.84-17.069-10.79-13.92-15.62 3.15-65.41 21.08-45.48 24.13zm170.01-30.85s-44.41 11.19-56.27 10.21c-11.851-.98-10.53-14.28 5.21-16.82 15.73-2.54 68.64-3.25 51.06 6.61z"/></g><path fill="#f2889e" d="M483.45 1892.92H584.7v457.5H483.45v-457.5z"/><path d="M497.2 1916.67v410.01" class="B C D E K"/><path d="M584.7 1963.15h64.66v387.27H584.7v-387.27z" class="G"/><path d="M599.36 1984.29v345" class="B C D E K"/><path fill="#5630ad" d="M649.36 1935.65h90v414.78h-90v-414.78z"/><g class="C D E B"><path d="M669.76 1958.29v369.5" class="K"/><g class="H"><path d="M584.7 1911.9v438.53H483.45m217.16 0h-51.25v-387.28"/></g></g><g class="O"><path d="M2024.29 1692.35h24.581l-90.443 473.75h-24.581l90.443-473.75zm511.76 0h-487.165l-90.443 473.75h487.165l90.443-473.75z"/></g><path d="M1958.43 2166.1l81.1-424.81" class="B C D E K"/><path d="M2425.769 2315.5H2070.37c-9.601 0-17.46 7.86-17.46 17.46v17.46h390.32v-17.46c0-9.6-7.86-17.46-17.46-17.46z" class="O"/><path d="M2205.57 1977.35h85v338.15h-85v-338.15z" class="J"/><path d="M2224.48 1977.349v312.502" class="B C D E L"/><path d="M1128.64 2316.16h254.37 254.37c23.69 0 40.75-19.511 43.08-43.091l29.65-300.179c2.32-23.58-19.39-43.08-43.09-43.08h-284.01H1099c-23.7 0-45.41 19.5-43.09 43.08l29.651 300.179c2.319 23.58 19.39 43.091 43.079 43.091z" class="I"/><path d="M1663.33 2350.43h-560.64c-9.43 0-17.13-7.71-17.13-17.14v-17.13h594.9v17.13c0 9.43-7.7 17.14-17.13 17.14z" class="O"/><path fill="#eff3f7" d="M1383.01 2083.11c24.858 0 45.01 17.849 45.01 39.869s-20.152 39.871-45.01 39.871-45.01-17.852-45.01-39.871 20.153-39.869 45.01-39.869z"/><path d="M417.339 1817.64h589.8c26.7 0 48.551-21.85 48.551-48.56v-314.65H368.78v314.65c0 26.71 21.849 48.56 48.559 48.56z" class="O"/><path d="M400.58 1378.2h623.309c17.49 0 31.801 14.31 31.801 31.8v31.8H368.78V1410c0-17.49 14.31-31.8 31.8-31.8z" class="F"/><path d="M873.397 1756.58H986.33v12.14H873.397v-12.14z" class="J"/><path d="M755.41 1756.58h94.348v12.14H755.41v-12.14z" class="F"/><use href="#H" class="G"/><path d="M418.44 1756.58h131.241v12.14H418.44v-12.14z" class="J"/><path d="M922.61 1720.4h66.18v12.14h-66.18v-12.14z" class="G"/><path d="M715.186 1720.4h186.948v12.14H715.186v-12.14z" class="F"/><path d="M590.91 1720.4h105.098v12.14H590.91v-12.14z" class="J"/><path d="M815.913 1684.23H923.51v12.14H815.913v-12.14z" class="F"/><path d="M590.91 1684.23h194.962v12.14H590.91v-12.14z" class="G"/><path d="M871.29 1648.05h101.479v12.14H871.29v-12.14z" class="J"/><path d="M759.385 1648.05h81.595v12.14h-81.595v-12.14z" class="G"/><path d="M590.91 1648.05h147.966v12.14H590.91v-12.14z" class="F"/><path d="M802.089 1611.87h203.941v12.14H802.089v-12.14z" class="G"/><path d="M687.66 1611.87h92.691v12.14H687.66v-12.14z" class="J"/><path d="M595.982 1611.87h65.758v12.14h-65.758v-12.14z" class="G"/><g class="J"><path d="M418.44 1611.87h149.337v12.14H418.44v-12.14zm431.643-36.17H972.17v12.14H850.083v-12.14z"/></g><path d="M751.806 1575.7h81.688v12.14h-81.688v-12.14z" class="F"/><path d="M590.91 1575.7h140.289v12.14H590.91v-12.14z" class="G"/><path d="M873.61 1539.52h118.611v12.14H873.61v-12.14z" class="F"/><path d="M666.943 1539.52H840.97v12.14H666.943v-12.14z" class="G"/><path d="M590.91 1539.52h54.395v12.14H590.91v-12.14z" class="F"/><path d="M862.351 1503.35H998.03v12.14H862.351v-12.14z" class="G"/><path d="M755.41 1503.35h78.117v12.14H755.41v-12.14z" class="J"/><path d="M576.105 1503.35H732.57v12.14H576.105v-12.14z" class="F"/><path d="M418.44 1503.35h130.967v12.14H418.44v-12.14z" class="J"/><path fill="#f72e70" d="M897.53 1785.879c53.659 0 97.16 43.501 97.16 97.16s-43.501 97.16-97.16 97.16-97.16-43.5-97.16-97.16 43.5-97.16 97.16-97.16z"/><path d="M852.349 1905.359l-17.949-19.54 17.949-19.54h19.011l-18.04 19.54 18.04 19.54h-19.011zm64.901-72.59l-23.7 100.53h-14.581l23.691-100.53h14.59zm6.45 33.51h19.01l17.95 19.54-17.95 19.54H923.7l18.04-19.54-18.04-19.54z" class="I"/><path d="M897.53 1794.709c48.79 0 88.33 39.54 88.33 88.329 0 17.7-5.21 34.201-14.181 48.021m-45.019 35.39c-9.12 3.181-18.92 4.91-29.13 4.91m-37.05-8.12c-30.28-14.01-51.28-44.66-51.28-80.2 0-33.731 18.91-63.05 46.7-77.93" class="B C D E K"/><g transform="matrix(.999966 -.008215 .008215 .999966 2384.534668 2133.033936)" class="B C D K"><path d="M81.606 71.449S66.505-65.281-23.074-72.571c-89.591-7.29-64.07 43.231-5.211 66.67 58.851 23.43 72.391 91.14 109.891 77.35z"/></g><g transform="matrix(.999985 -.005476 .005476 .999985 2469.505615 2112.325684)" class="B C D"><path stroke="#276169" d="M-3.854 105.796s-71.881-205.21 5.209-211.46c77.08-6.25-5.209 211.46-5.209 211.46z"/></g><g transform="matrix(.999966 -.008215 .008215 .999966 2412.382324 2086.066162)"><path fill="#59bd9f" d="M39.056 121.526S-61.173-6.125-40.063-85.574c21.1-79.46 101.609-34.32 79.119 207.1z"/></g><g transform="matrix(.999966 .008215 -.008215 .999966 2550.331787 2130.247803)"><path fill="#59bd9f" d="M-81.241 113.392s-8.21-131.109 39.18-187.359C5.338-130.217 61.07-116.148 77.73-93.757 94.4-71.358 57.94-54.177.129-45.318c-57.81 8.851-81.37 158.71-81.37 158.71z"/></g><g transform="matrix(.999966 .008215 -.008215 .999966 2515.967041 2171.569824)"><path fill="#67cfb0" d="M-36.673 27.449s5.691-51.66 44.5-62.08c38.801-10.41 36.451 16.399 4.941 27.349-31.51 10.939-41.92 44.27-41.92 44.27l-7.521-9.539z"/></g><g transform="matrix(.999966 .008215 -.008215 .999966 2544.22876 2153.456299)" class="B C D"><path stroke="#276169" d="M-69.244 50.124s35.41-39.061 85.41-30.211c50 8.86 72.4-41.67 32.82-63.539-39.59-21.871-105.21 11.979-118.23 93.75z"/></g><g fill="#f2889e"><path d="M2382.61 2174.9h168.26c5.601 0 10.14 5.57 10.14 12.44v32.931c0 6.87-4.539 12.439-10.14 12.439h-168.26c-5.6 0-10.14-5.569-10.14-12.439v-32.931c0-6.87 4.54-12.44 10.14-12.44z"/><path d="M2392.78 2232.72l16.67 117.71h43.75 27.08 43.75l16.67-117.71h-147.92z"/></g><path d="M2540.7 2232.72l-145.011 20.53-2.909-20.53h147.92z" class="N"/><g class="C D E H B"><path d="M2407.36 2223.86h136.46m-147.12 36.53l8.26 58.38"/></g><path d="M2243.024 1570.39s3.29-14.069 18.25-11.439c14.97 2.63 17.34-13.6 32.67-13.6s18.98 8.35 29.75 8.35 14.06-23.021 35.04-23.021c20.99 0 17.71 17.761 29.57 17.761s10.22-7.721 21.17-7.721 22.569 29.67 39.42 29.67h-205.87z" class="F"/><path stroke-dasharray=" 8.33 12.5" stroke="#949899" d="M511.05 1335.843v18.317" class="B C D E"/></g></svg>