<svg xmlns="http://www.w3.org/2000/svg" viewBox="0 0 3000 3000" width="100%" height="100%" preserveAspectRatio="xMidYMid meet" style="transform:translate3d(0px, 0px, 0px)" xmlns:v="https://vecta.io/nano"><style><![CDATA[.B{fill-opacity:0}.C{stroke-width:4.17}.D{stroke-linejoin:round}.E{stroke-linecap:round}.F{stroke:#2a1d19}.G{fill:#2a1d19}.H{fill:#f72e70}.I{fill:#fff}.J{fill:#fccac3}.K{fill:#7da3fb}.L{fill:#ffaf18}.M{fill:#f93}.N{stroke:#353640}.O{fill:#d0d3d4}.P{stroke:#fff}.Q{stroke:#7da3fb}.R{fill:#5630ad}.S{fill:#353640}]]></style><defs><clipPath id="A"><path d="M0 0h3000v3000H0z"/></clipPath><path id="B" d="M440.67 1750.81a9.08 9.08 0 0 1-18.16 0 9.09 9.09 0 0 1 9.08-9.08 9.09 9.09 0 0 1 9.08 9.08z"/><path id="C" d="M386.78 1750.81a9.08 9.08 0 0 1-9.08 9.08c-5.02 0-9.08-4.06-9.08-9.08a9.08 9.08 0 0 1 9.08-9.08 9.09 9.09 0 0 1 9.08 9.08z"/><path id="D" d="M332.88 1750.81c0 5.02-4.06 9.08-9.08 9.08a9.08 9.08 0 0 1-9.08-9.08 9.09 9.09 0 0 1 9.08-9.08 9.08 9.08 0 0 1 9.08 9.08z"/><path id="E" d="M440.67 1695.21a9.09 9.09 0 0 1-9.08 9.08 9.09 9.09 0 0 1-9.08-9.08 9.08 9.08 0 0 1 18.16 0z"/><path id="F" d="M386.78 1695.21a9.09 9.09 0 0 1-9.08 9.08 9.08 9.08 0 0 1-9.08-9.08c0-5.02 4.06-9.08 9.08-9.08a9.08 9.08 0 0 1 9.08 9.08z"/><path id="G" d="M332.88 1695.21a9.08 9.08 0 0 1-9.08 9.08 9.09 9.09 0 0 1-9.08-9.08 9.08 9.08 0 0 1 9.08-9.08c5.02 0 9.08 4.06 9.08 9.08z"/><path id="H" d="M440.67 1639.599a9.09 9.09 0 0 1-9.08 9.081 9.09 9.09 0 0 1-9.08-9.081 9.08 9.08 0 0 1 18.16 0z"/><path id="I" d="M386.78 1639.599a9.09 9.09 0 0 1-9.08 9.081 9.08 9.08 0 0 1-9.08-9.081c0-5.02 4.06-9.079 9.08-9.079a9.08 9.08 0 0 1 9.08 9.079z"/><path id="J" d="M332.88 1639.599a9.08 9.08 0 0 1-9.08 9.081 9.09 9.09 0 0 1-9.08-9.081 9.08 9.08 0 0 1 9.08-9.079c5.02 0 9.08 4.059 9.08 9.079z"/><path id="K" d="M440.67 1528.39a9.08 9.08 0 0 1-18.16 0 9.08 9.08 0 0 1 18.16 0z"/><path id="L" d="M386.78 1528.39a9.08 9.08 0 0 1-9.08 9.07c-5.02 0-9.08-4.06-9.08-9.07 0-5.02 4.06-9.08 9.08-9.08a9.08 9.08 0 0 1 9.08 9.08z"/><path id="M" d="M332.88 1528.39c0 5.011-4.06 9.07-9.08 9.07a9.08 9.08 0 0 1-9.08-9.07 9.08 9.08 0 0 1 9.08-9.08c5.02 0 9.08 4.06 9.08 9.08z"/><path id="N" d="M2057.89 918.78a12.13 12.13 0 1 1 0 24.26 12.13 12.13 0 1 1 0-24.26z"/><path id="O" d="M1121.44 1030.73h144.05v31.93h-144.05v-31.93z"/><path id="P" d="M1530.53 1297.88h534.697v8H1530.53v-8z"/><path id="Q" d="M1571.7 1544.04c15.25 0 27.61 12.36 27.61 27.62 0 15.25-12.36 27.61-27.61 27.61s-27.62-12.36-27.62-27.61c0-15.26 12.37-27.62 27.62-27.62z"/><path id="R" d="M2002.231 2105.243c0 41.786-33.875 75.661-75.661 75.661s-75.661-33.875-75.661-75.661 33.875-75.661 75.661-75.661 75.661 33.875 75.661 75.661z"/><path id="S" d="M233.79 2309.56h2532.42v26.03H233.79v-26.03z"/></defs><g clip-path="url(#A)"><g class="O"><use href="#B"/><use href="#C"/><use href="#D"/><path d="M278.99 1750.81a9.08 9.08 0 0 1-18.16 0 9.09 9.09 0 0 1 9.08-9.08 9.09 9.09 0 0 1 9.08 9.08z"/><use href="#E"/><use href="#F"/><use href="#G"/><path d="M278.99 1695.21a9.09 9.09 0 0 1-9.08 9.08 9.09 9.09 0 0 1-9.08-9.08 9.08 9.08 0 0 1 18.16 0z"/><use href="#H"/><use href="#I"/><use href="#J"/><path d="M278.99 1639.599a9.09 9.09 0 0 1-9.08 9.081 9.09 9.09 0 0 1-9.08-9.081 9.08 9.08 0 0 1 18.16 0zm161.68-55.609a9.08 9.08 0 0 1-18.16 0 9.09 9.09 0 0 1 9.08-9.08 9.09 9.09 0 0 1 9.08 9.08zm-53.89 0a9.08 9.08 0 0 1-9.08 9.08c-5.02 0-9.08-4.06-9.08-9.08a9.08 9.08 0 0 1 9.08-9.08 9.09 9.09 0 0 1 9.08 9.08zm-53.9 0c0 5.02-4.06 9.08-9.08 9.08a9.08 9.08 0 0 1-9.08-9.08 9.09 9.09 0 0 1 9.08-9.08 9.08 9.08 0 0 1 9.08 9.08zm-53.89 0a9.08 9.08 0 0 1-18.16 0 9.09 9.09 0 0 1 9.08-9.08 9.09 9.09 0 0 1 9.08 9.08z"/><use href="#K"/><use href="#L"/><use href="#M"/><path d="M278.99 1528.39a9.08 9.08 0 0 1-18.16 0 9.08 9.08 0 0 1 18.16 0zm161.68-55.61a9.09 9.09 0 0 1-9.08 9.08 9.09 9.09 0 0 1-9.08-9.08 9.08 9.08 0 0 1 18.16 0zm-53.89 0a9.09 9.09 0 0 1-9.08 9.08 9.08 9.08 0 0 1-9.08-9.08c0-5.02 4.06-9.08 9.08-9.08a9.08 9.08 0 0 1 9.08 9.08zm-53.9 0a9.08 9.08 0 0 1-9.08 9.08 9.09 9.09 0 0 1-9.08-9.08 9.08 9.08 0 0 1 9.08-9.08c5.02 0 9.08 4.06 9.08 9.08zm-53.89 0a9.09 9.09 0 0 1-9.08 9.08 9.09 9.09 0 0 1-9.08-9.08 9.08 9.08 0 0 1 18.16 0zm2399.68 578.03a9.08 9.08 0 0 1-18.16 0 9.09 9.09 0 0 1 9.08-9.08 9.09 9.09 0 0 1 9.08 9.08zm-53.89 0a9.08 9.08 0 0 1-9.08 9.08c-5.02 0-9.08-4.06-9.08-9.08a9.08 9.08 0 0 1 9.08-9.08 9.09 9.09 0 0 1 9.08 9.08zm-53.9 0c0 5.02-4.06 9.08-9.08 9.08a9.08 9.08 0 0 1-9.08-9.08 9.09 9.09 0 0 1 9.08-9.08 9.08 9.08 0 0 1 9.08 9.08zm-53.89 0a9.08 9.08 0 0 1-18.16 0 9.09 9.09 0 0 1 9.08-9.08 9.09 9.09 0 0 1 9.08 9.08z"/><path d="M2678.67 1995.21a9.09 9.09 0 0 1-9.08 9.08 9.09 9.09 0 0 1-9.08-9.08 9.08 9.08 0 0 1 18.16 0zm-53.89 0a9.09 9.09 0 0 1-9.08 9.08 9.08 9.08 0 0 1-9.08-9.08c0-5.02 4.06-9.08 9.08-9.08a9.08 9.08 0 0 1 9.08 9.08zm-53.9 0a9.08 9.08 0 0 1-9.08 9.08 9.09 9.09 0 0 1-9.08-9.08 9.08 9.08 0 0 1 9.08-9.08c5.02 0 9.08 4.06 9.08 9.08zm-53.89 0a9.09 9.09 0 0 1-9.08 9.08 9.09 9.09 0 0 1-9.08-9.08 9.08 9.08 0 0 1 18.16 0zm161.68-55.611a9.09 9.09 0 0 1-9.08 9.081 9.09 9.09 0 0 1-9.08-9.081 9.08 9.08 0 0 1 18.16 0zm-53.89 0a9.09 9.09 0 0 1-9.08 9.081 9.08 9.08 0 0 1-9.08-9.081c0-5.02 4.06-9.079 9.08-9.079a9.08 9.08 0 0 1 9.08 9.079zm-53.9 0a9.08 9.08 0 0 1-9.08 9.081 9.09 9.09 0 0 1-9.08-9.081 9.08 9.08 0 0 1 9.08-9.079c5.02 0 9.08 4.059 9.08 9.079z"/><path d="M2516.99 1939.599a9.09 9.09 0 0 1-9.08 9.081 9.09 9.09 0 0 1-9.08-9.081 9.08 9.08 0 0 1 18.16 0zm161.68-55.609a9.08 9.08 0 0 1-18.16 0 9.09 9.09 0 0 1 9.08-9.08 9.09 9.09 0 0 1 9.08 9.08zm-53.89 0a9.08 9.08 0 0 1-9.08 9.08c-5.02 0-9.08-4.06-9.08-9.08a9.08 9.08 0 0 1 9.08-9.08 9.09 9.09 0 0 1 9.08 9.08zm-53.9 0c0 5.02-4.06 9.08-9.08 9.08a9.08 9.08 0 0 1-9.08-9.08 9.09 9.09 0 0 1 9.08-9.08 9.08 9.08 0 0 1 9.08 9.08z"/><path d="M2516.99 1883.99a9.08 9.08 0 0 1-18.16 0 9.09 9.09 0 0 1 9.08-9.08 9.09 9.09 0 0 1 9.08 9.08zm161.68-55.6a9.08 9.08 0 0 1-18.16 0 9.08 9.08 0 0 1 18.16 0zm-53.89 0a9.08 9.08 0 0 1-9.08 9.07c-5.02 0-9.08-4.06-9.08-9.07 0-5.02 4.06-9.08 9.08-9.08a9.08 9.08 0 0 1 9.08 9.08zm-53.9 0c0 5.011-4.06 9.07-9.08 9.07a9.08 9.08 0 0 1-9.08-9.07 9.08 9.08 0 0 1 9.08-9.08c5.02 0 9.08 4.06 9.08 9.08z"/><path d="M2516.99 1828.39a9.08 9.08 0 0 1-18.16 0 9.08 9.08 0 0 1 18.16 0zm161.68-55.61a9.09 9.09 0 0 1-9.08 9.08 9.09 9.09 0 0 1-9.08-9.08 9.08 9.08 0 0 1 18.16 0zm-53.89 0a9.09 9.09 0 0 1-9.08 9.08 9.08 9.08 0 0 1-9.08-9.08c0-5.02 4.06-9.08 9.08-9.08a9.08 9.08 0 0 1 9.08 9.08zm-53.9 0a9.08 9.08 0 0 1-9.08 9.08 9.09 9.09 0 0 1-9.08-9.08 9.08 9.08 0 0 1 9.08-9.08c5.02 0 9.08 4.06 9.08 9.08zm-53.89 0a9.09 9.09 0 0 1-9.08 9.08 9.09 9.09 0 0 1-9.08-9.08 9.08 9.08 0 0 1 18.16 0z"/></g><g transform="matrix(-.725532 -.688188 .688188 -.725532 3085.751221 1749.027466)" class="B C D Q"><path d="M877.78-322.2c11.37 3.07 22.13 7.58 32.1 13.32l24.1-24.11 49.84 49.84-24.099 24.11a134.36 134.36 0 0 1 13.309 32.09h34.071v70.49H973.04c-3.069 11.37-7.58 22.139-13.319 32.109l24.099 24.091-49.84 49.84-24.11-24.11c-9.97 5.75-20.73 10.26-32.09 13.32v34.069H807.3V-61.21c-11.37-3.06-22.139-7.571-32.11-13.311L751.1-50.42l-49.85-49.841 24.109-24.099a134.64 134.64 0 0 1-13.319-32.1h-34.07v-70.49h34.07c3.06-11.36 7.57-22.13 13.31-32.1l-24.1-24.1 49.84-49.84 24.1 24.11c9.971-5.74 20.74-10.259 32.11-13.32v-34.071h70.48v34.071zm-35.24 54.77c41.82 0 75.73 33.9 75.73 75.73 0 41.82-33.91 75.73-75.73 75.73-41.83 0-75.73-33.91-75.73-75.73 0-41.83 33.9-75.73 75.73-75.73z"/></g><g transform="matrix(-.725532 .688188 -.688188 -.725532 2865.317627 143.915222)" class="B C D Q"><path d="M965.89-453.19c4.12 1.12 8.03 2.749 11.66 4.84l8.75-8.76 18.11 18.11-8.76 8.76c2.08 3.62 3.72 7.53 4.84 11.66h12.37v25.601h-12.37c-1.11 4.13-2.75 8.039-4.84 11.659l8.76 8.76-18.11 18.1-8.76-8.76a48.57 48.57 0 0 1-11.65 4.84V-346h-25.611v-12.38c-4.129-1.11-8.039-2.75-11.659-4.83l-8.761 8.75-18.099-18.1 8.75-8.76c-2.08-3.62-3.72-7.529-4.83-11.659H893.3v-25.601h12.38c1.11-4.13 2.75-8.05 4.83-11.67l-8.75-8.75 18.099-18.11 8.761 8.76a48.85 48.85 0 0 1 11.659-4.84v-12.37h25.611v12.37zm-12.81 19.9c15.199 0 27.51 12.311 27.51 27.51 0 15.191-12.311 27.51-27.51 27.51-15.19 0-27.51-12.319-27.51-27.51 0-15.199 12.32-27.51 27.51-27.51z"/></g><g transform="matrix(-.725532 .688188 -.688188 -.725532 2323.387207 1127.501587)"><path fill="#eff3f7" d="M1008.66 777.7c23.16 6.25 45.09 15.439 65.4 27.13l49.1-49.11 101.54 101.54-49.1 49.12-113.54 47.02c-28.02-38.83-73.649-64.12-125.2-64.12-85.199 0-154.28 69.069-154.28 154.279a155.43 155.43 0 0 0 1.99 24.771l-113.56 47.03H601.6v-143.6H671c6.24-23.149 15.42-45.091 27.111-65.4l-49.091-49.1 101.54-101.54 49.1 49.11c20.32-11.691 42.26-20.89 65.41-27.13v-69.41h143.59v69.41zm194.06 194.06h69.4v143.6h-69.38c-6.25 23.149-15.44 45.09-27.129 65.41l49.089 49.09-101.549 101.54-49.111-49.11c-20.3 11.689-42.231 20.88-65.38 27.12v69.41H865.07v-69.41c-23.15-6.24-45.089-15.42-65.4-27.11l-49.1 49.1-101.54-101.54 49.1-49.1 113.54-47.031c28.01 38.841 73.651 64.111 125.19 64.111 85.211 0 154.28-69.081 154.28-154.281 0-8.43-.68-16.698-1.98-24.759l113.56-47.04z"/><path stroke="#949899" d="M1012.19 748.13c24.301 6.55 47.311 16.191 68.621 28.46l51.509-51.52 106.54 106.54-51.52 51.52c12.26 21.311 21.91 44.32 28.45 68.61h72.82v150.66h-72.8a287.52 287.52 0 0 1-28.46 68.621l51.5 51.509-106.54 106.54-51.52-51.54c-21.311 12.279-44.31 21.92-68.6 28.47v72.82H861.53V1306a287.07 287.07 0 0 1-68.62-28.46l-51.51 51.53-106.541-106.54 51.531-51.52c-12.28-21.31-21.92-44.32-28.47-68.61H585.1V951.74h72.81c6.54-24.3 16.18-47.321 28.46-68.63l-51.52-51.5 106.54-106.54 51.52 51.52c21.309-12.269 44.33-21.92 68.62-28.46v-72.82h150.66v72.82zm-75.33 117.06c89.39 0 161.871 72.471 161.871 161.87s-72.481 161.88-161.871 161.88c-89.4 0-161.879-72.48-161.879-161.88S847.46 865.19 936.86 865.19z" class="B C D"/></g><path d="M2004.32 652.781h396.67c27.27 0 49.59 22.31 49.59 49.59v191.37c0 27.27-22.32 49.59-49.59 49.59h-396.67c-27.27 0-49.58-22.32-49.58-49.59v-191.37c0-27.28 22.31-49.59 49.58-49.59z" class="O"/><path d="M2294.833 880.691h111.597v8.7h-111.597v-8.7z" class="K"/><g class="I"><path d="M2129.37 880.691h151.89v8.7h-151.89v-8.7zm187.765-34.79h62.754v8.7h-62.754v-8.7z"/></g><path d="M2252.46 845.901h53.447v8.7h-53.447v-8.7z" class="L"/><g class="I"><path d="M2106.604 845.901h131.066v8.7h-131.066v-8.7zm-118.154 0h106.71v8.7h-106.71v-8.7zm347.522-34.801h80.898v8.7h-80.898v-8.7z"/></g><path d="M2235.675 811.1h85.76v8.7h-85.76v-8.7z" class="L"/><path d="M2129.37 811.1h89.764v8.7h-89.764v-8.7z" class="I"/><g class="K"><path d="M2285.729 776.311h124.181v8.69h-124.181v-8.69zm-78.443 0h67.288v8.69h-67.288v-8.69z"/></g><path d="M2129.37 776.311h64.68v8.69h-64.68v-8.69z" class="L"/><path d="M2278.781 741.511h92.419v8.7h-92.419v-8.7z" class="I"/><path d="M2191.57 741.511h77.262v8.7h-77.262v-8.7z" class="L"/><path d="M2088.926 741.511h86.114v8.7h-86.114v-8.7z" class="K"/><path d="M1988.45 741.511h89.552v8.7h-89.552v-8.7z" class="I"/><path d="M2276.847 706.711h133.063v8.7h-133.063v-8.7z" class="K"/><g class="I"><path d="M2183.74 706.711h79.688v8.7h-79.688v-8.7zm-74.197 0h59.407v8.7h-59.407v-8.7zm-121.093 0h109.569v8.7H1988.45v-8.7z"/></g><path d="M481.74 1212.91c31.3 0 56.66 25.37 56.66 56.66s-25.36 56.66-56.66 56.66c-31.29 0-56.65-25.37-56.65-56.66s25.36-56.66 56.65-56.66z" class="L"/><g class="C D E N B"><path d="M481.74 1326.23c-31.29 0-56.65-25.37-56.65-56.66m26.69-15.919l29.96 29.969 58.95-58.94"/></g><path fill="#e1ecf2" d="M1029.23 982.33h1228.14v706.39H1029.23V982.33z"/><path d="M1029.23 982.33h1228.14V879.48H1029.23v102.85z" class="R"/><g class="C D B"><g class="P"><use href="#N"/><path d="M2121.78 918.78a12.13 12.13 0 1 1 0 24.26 12.13 12.13 0 1 1 0-24.26zm63.88 0c6.699 0 12.13 5.43 12.13 12.13s-5.431 12.13-12.13 12.13a12.13 12.13 0 1 1 0-24.26z"/></g><g class="E N"><path d="M1029.23 1047.55l1.56 641.17h551.03m675.55-706.39v706.39h-413.05"/></g></g><g class="I"><path d="M1151.65 1153.88h332.77v332.77h-332.77v-332.77z"/><use href="#O"/><path d="M1346.35 1030.73h144.06v31.93h-144.06v-31.93zm224.92 0h144.05v31.93h-144.05v-31.93zm224.92 0h144.05v31.93h-144.05v-31.93zm224.92 0h144.05v31.93h-144.05v-31.93zm-869.46 596.9h983.3v-96.91h-983.3v96.91z"/></g><g stroke-miterlimit="10" class="C N B"><path d="M1215.138 1486.65h-63.488v-29.676m291.778-303.094h40.992v171.976"/></g><g class="I"><path d="M1530.53 1444.96h317.826v7.99H1530.53v-7.99zm0-36.77h481.688v7.99H1530.53v-7.99zm0-36.77h534.697v7.99H1530.53v-7.99zm0-36.77h553.259v7.99H1530.53v-7.99z"/><use href="#P"/><path d="M1530.53 1261.11h553.259v8H1530.53v-8zm0-36.77h534.697v8H1530.53v-8zm0-36.76h383.022v7.99H1530.53v-7.99z"/></g><path d="M1281.77 1358.38h-27.9-6.139c-18.721 0-34.031-15.309-34.031-34.03s15.31-34.029 34.031-34.029c2.63 0 5.189.3 7.649.87 5.76-23.9 27.38-41.791 52.981-41.791 18.96 0 35.729 9.81 45.499 24.61 6.781-4.05 14.701-6.38 23.121-6.38 24.959 0 45.379 20.42 45.379 45.37 0 24.96-20.42 45.38-45.379 45.38h-14.131-31.239-49.841z" class="K"/><g opacity=".792" class="B C D E N"><g opacity="1"><path d="M1291.66 1300.541l26.37-26.37v100.04m26.38-73.67l-26.38-26.37"/></g></g><path d="M2479.874 1539.69h180.362v151.27h-180.362v-151.27z" class="S"/><g class="K"><path d="M2516.6 1612.75c4.93-.92 7.39-3.46 7.39-7.62 0-1.83-.241-4.97-.72-9.42-.49-4.74-.73-8.17-.73-10.3 0-3.48.98-6.14 2.94-7.98 1.96-1.83 4.58-2.75 7.87-2.75h4.2v5.73h-2.97c-1.89 0-3.29.42-4.21 1.27-.92.84-1.37 2.231-1.37 4.17 0 1.4.091 3.129.29 5.18l.36 4.17c.48 4.64.72 8.02.72 10.151 0 2.56-.64 4.699-1.92 6.42s-3.25 2.859-5.91 3.439v.151c2.66.58 4.631 1.74 5.91 3.479s1.92 3.891 1.92 6.45c0 2.13-.24 5.51-.72 10.151-.05.73-.17 2.119-.36 4.17-.199 2.059-.29 3.79-.29 5.189 0 1.931.45 3.32 1.37 4.17.92.84 2.32 1.27 4.21 1.27h2.97v5.72h-4.2c-3.29 0-5.91-.91-7.87-2.75s-2.94-4.5-2.94-7.979c0-2.12.24-5.56.73-10.29.479-4.45.72-7.59.72-9.431 0-4.16-2.46-6.7-7.39-7.609v-5.151zm108.699 5.151c-4.931.909-7.4 3.449-7.4 7.609 0 1.84.24 4.981.73 9.431.48 4.73.72 8.17.72 10.29 0 3.479-.981 6.139-2.93 7.979-1.96 1.84-4.58 2.75-7.87 2.75h-4.21v-5.72h2.979c1.88 0 3.281-.43 4.201-1.27.92-.85 1.38-2.239 1.38-4.17 0-1.399-.101-3.13-.29-5.189l-.361-4.17c-.489-4.641-.729-8.021-.729-10.151 0-2.56.64-4.71 1.92-6.45s3.25-2.899 5.91-3.479v-.151c-2.66-.58-4.631-1.719-5.91-3.439s-1.92-3.86-1.92-6.42c0-2.131.24-5.511.729-10.151a229.25 229.25 0 0 1 .361-4.17c.189-2.051.29-3.78.29-5.18 0-1.939-.46-3.329-1.38-4.17-.92-.85-2.321-1.27-4.201-1.27h-2.979v-5.73h4.21c3.29 0 5.909.92 7.87 2.75 1.949 1.84 2.93 4.5 2.93 7.98 0 2.13-.24 5.56-.72 10.3-.49 4.45-.73 7.59-.73 9.42 0 4.16 2.469 6.7 7.4 7.62v5.151z"/></g><path d="M1759.478 829.16h63.682v8.7h-63.682v-8.7z" class="L"/><path d="M1661.359 829.16h86.058v8.7h-86.058v-8.7z" class="O"/><path d="M1621.107 829.16h21.563v8.7h-21.563v-8.7z" class="L"/><path d="M1533.24 829.16h75.54v8.7h-75.54v-8.7z" class="K"/><path d="M1738.97 807.65h90.215v8.7h-90.215v-8.7z" class="O"/><path d="M1657.696 807.65h69.865v8.7h-69.865v-8.7z" class="L"/><path d="M1533.24 807.65h109.569v8.7H1533.24v-8.7z" class="K"/><path d="M1006.42 1928.29h214.69v109.21h-214.69v-109.21z" class="R"/><g class="C D E B"><g class="P"><path d="M1124.88 1941.43l-22.22 82.93M1084.3 2002l-34.45-19.11 34.45-19.1m58.931 38.21l34.458-19.11-34.458-19.1"/></g><path d="M1006.42 2037.5h214.69" class="N"/></g><g class="H"><path d="M1522.891 1625.44l-42.711 64.22 6.75 27.61 52.01-55.541-16.049-36.289zm97.619 0l42.7 64.22-6.75 27.61-52.01-55.541 16.06-36.289z"/></g><path d="M1571.7 1465.85s-91.2 57.8-42.389 211.93l19.269 24.08h6.1 34.04 6.1l19.26-24.08c48.811-154.13-42.38-211.929-42.38-211.929z" class="K"/><use href="#Q" class="I"/><use href="#Q" class="B C D N"/><path d="M1566.89 1635.01h9.61v82.26h-9.61v-82.26z" class="H"/><path d="M1518.3 1632.35s4.79 26.63 10.71 44.46" class="B C D E F"/><g transform="matrix(.920357 0 0 1 125.199585 -.000122)"><path fill="#f63" d="M1553.041 1723.7s-13.001 32.84 18.979 68.72c31.971-35.88 18.971-68.72 18.971-68.72h-37.95z"/><path d="M1583.981 1723.7s7.069 24.4-6.101 49.45" class="B C D E P"/></g><g transform="matrix(.983161 .182741 -.182741 .983161 385.321014 -191.143997)"><path d="M1251.789 1619.739l14.695-10.445s14.88-17.881 35.04-23.901 54.08-14.989 60.63-6.429c6.54 8.561-21.45 24.73-21.45 24.73s41.95-2.959 50.21-4.77c4.98-3.05 37.87-45.79 48.471-43.08 10.609 2.71 8.42 11.549 8.42 11.549 8.35-9.81 21.73-7.899 23.129 7.521 0 0 4.48 3.87 3.25 12.69-1.219 8.81-23.35 51.66-50.61 61.6-27.27 9.95-114.49 18.21-123.06 20.05-8.569 1.851-25.597 16.348-25.597 16.348s-65.974-6.808-37.54-55.619l14.412-10.244z" class="J"/><g class="C D E F B"><path d="M1307.905 1646.375c23.26-26.8 66.699-22.151 99.74-25.781 0 0 35.411-45.059 45.31-41.41s8.069 11.981 3.13 21.351c-4.949 9.38-29.17 44.009-42.19 51.559m-79.431-37.5c1.82 0 51.04-5.2 62.761-4.94l51.099-42.7m22.61 7.961s-8.6-6.411-17.98 4.27"/></g><path d="M1056.839 1715.525l177.09-112.5s1.04-14.32 13.28-18.49c12.24-4.16 15.63 18.49 15.63 18.49s17.71 97.399 14.58 102.09c-3.12 4.68-15.62 4.16-15.62 4.16s-71.87 57.819-146.87 124.489l-7.729 6.71c-34.22 28.53-98.121 42.771-99.141-24.689-.416-27.54-18.876-24.324-9.442-40.281 14.117-23.877 58.222-59.979 58.222-59.979z" class="H"/><g class="C D E F B"><path d="M1240.82 1615.324s10.711 68.639 20.98 93.95m-231.801 33.45s13.81-18.92 26.84-27.199l110.34-70.101"/></g><path d="M1106.416 1806.018c0 32.151-26.063 58.215-58.215 58.215s-58.215-26.064-58.215-58.215 26.064-58.215 58.215-58.215 58.215 26.064 58.215 58.215z" class="H"/></g><g transform="matrix(.990262 -.139214 .139214 .990262 -203.583374 132.11499)"><path d="M901.224 1469.553c21.87 14.59 140.62 226.3 140.62 226.3 26.42 42.64 86.391 93.12 52.401 123.2-37.769 32.544-36.692 48.516-59.254 44.598-19.708-3.422-63.763-23.158-85.056-45.398-46.881-48.96-64.591-58.33-135.421-161.46-15.113-22.002-42.457-73.165-49.603-91.259-14.101-35.705 15.264-42.318 25.287-60.226 25.614-45.765 80.427-59.207 111.026-35.755z" class="H"/><path d="M814.515 1656.793s54.819 90.061 135.42 161.46" class="B C D E F"/><path d="M876.771 1739.912c-18.13-20.75-29.627-35.599-62.257-83.119l-4.689-7 64.169-36.957s-1.497 75.789 2.777 127.076z" class="G"/><g class="H"><path d="M923.513 1525.788c0 46.544-37.731 84.275-84.275 84.275s-84.275-37.731-84.275-84.275 37.731-84.275 84.275-84.275 84.275 37.731 84.275 84.275zm182.711 281.111c0 32.151-26.064 58.215-58.215 58.215s-58.215-26.064-58.215-58.215 26.064-58.215 58.215-58.215 58.215 26.063 58.215 58.215z"/></g></g><path fill="#3e2578" d="M779.884 1979.04l56.37 335.859h-215.37l-55.56-160.08c-58.34-164.59 108.35-351.769 214.56-175.779z"/><path d="M664.695 2314.899l-61.07-185.55" class="B C D E F"/><path d="M438.224 1932.629s-47.39 55.52-59.89 145.1l-34 237.17h212.81l92.03-367.38s-91.67-159.37-210.95-14.89z" class="R"/><g class="C D E F B"><path d="M387.594 2314.899l44.08-270.069 109.89-81.771m.53 21.87s-36.229 69.76-113.689 79.931m183.569 31.159l-54.83 218.88"/></g><path d="M886.599 1456.89s-24.719-21.349-88.259-42.189c-63.54-20.83-184.63-22.651-238.8 2.349 0 0-39.59 21.87-65.63 81.25-26.04 59.37-56.731 438.991-56.731 438.991s313.421 46.769 329.571 34.79c16.14-11.979 1.039-29.691 7.81-55.73s69.879-206.08 91.75-274.83c21.879-68.75 47.1-149.811 20.289-184.631z" class="H"/><g class="C D E F B"><path d="M873.78 1617.831l-46.29 139.76m-148.04-345.19s11.46 65.11 64.06 60.94m43.12-62.09l4.28 27.2"/></g><path d="M447.7 1717.471c-17.761 106.28-9.363 220.977-9.363 220.977s41.573 3.845 115.523 15.115l158.22-47.503-182.58-71.78 38.22-138.7-120.02 21.89z" class="G"/><path d="M719.87 1313.01l-31.26 85.821s11.47 62.62 55.22 61.059 34.15-50.79 34.15-50.79l13.24-85.149s-32.29-39.061-71.35-10.941z" class="J"/><path d="M777.98 1411.1l13.24-85.149s-30.15-36.46-67.42-13.551c-1.31 25.131.289 92.57 54.18 98.7z" class="G"/><g transform="matrix(.995437 -.095417 .095417 .995437 -139.010742 61.836548)"><path d="M714.183 1822.459l40.357 1.002s12.78-11.261 26.64-14.29c0 0 27.06-22.09 36.8-21.44 9.75.65 12.13 9.75 9.96 15.16-2.16 5.41-23.38 24.25-23.38 24.25s41.88 9.16 58.48 6.68c0 0 17.3-27.11 25.93-27.06 12.47.059 3.07 22.33 3.07 22.33 11.181 5.38 11.56 18.35 4.33 32.26 5.561 5 5.311 18.27-4.33 25.76 6.85 22.99-26.67 27.55-42.22 28.37l-73.62-7.36c-14.72-2.17-26.199-12.99-26.199-12.99l-40.721-2.122s-44.136-33.406-3.292-70.753l8.195.203z" class="J"/><g class="C D E F B"><path d="M810.93 1854.562s38.99 8.84 55.66 3.11 25.45-28.58 25.45-28.58m-87.17 62.949s42.981 7.81 57.301 6.77 29.869-11.7 29.869-11.7m-87.55-13.43s42.57 8.73 61.58 6.9c19.011-1.819 30.3-19.23 30.3-19.23"/></g><path d="M426.259 1930.192c13.91 5.689 31.17 8.459 52.449 7.209 106.25-6.25 221.881-26.56 232.301-21.35 10.41 5.2 14.58-6.25 14.58-6.25v-101.57s1.56-6.25-13.02-2.079l-198.96 2.87s-56.14.14-92.565 22.153c-5.063 3.06-14.008 8.187-15.636 14.567-11.279 44.25 5.13 75.43 20.851 84.45z" class="H"/><g class="C D E F B"><path d="M711.618 1812.721s-15.97 57.071-2.77 102.76"/><path d="M444.449 1822.347s33.755-12.563 69.16-13.325l198.96-2.87s7.9-4.43 12.719.291l.301 103.359s-2.86 13.641-16.74 5.68c0 0-31.26 1.41-51.811 3.83"/></g><path d="M498.187 1879.562c0 29.68-24.059 53.739-53.739 53.739s-53.739-24.059-53.739-53.739 24.059-53.739 53.739-53.739 53.739 24.06 53.739 53.739z" class="H"/><path d="M554.19 1420.539s-76.08 33.81-105.239 106.73c-29.17 72.921-64.59 200-77.09 259.37-10.41 49.46-7.801 122.771 54.779 142.261 43.984 2.834 52.638-5.167 71.773-49.612 7.277-16.903 1.544-47.527 8.347-74.149 0 0 68.231-143.76 105.21-206.26 6.934-11.719 33.809-64.502 38.315-80.503 10.165-36.101-21.569-40.502-39.083-59.348-16.124-17.35-15.845-51.182-57.012-38.489z" class="H"/><path d="M584.161 1649.4s-55.36 104.38-77.4 155.739c0 0-5.288 59.92-8.348 74.149" class="B C D E F"/><g class="H"><path d="M654.949 1492.076c0 42.059-34.095 76.154-76.154 76.154s-76.154-34.095-76.154-76.154 34.095-76.154 76.154-76.154 76.154 34.095 76.154 76.154zm-156.537 387.212c0 29.68-24.059 53.739-53.739 53.739s-53.739-24.059-53.739-53.739 24.059-53.739 53.739-53.739 53.739 24.059 53.739 53.739z"/></g></g><path d="M723.139 1307.192c-55.34 17.14-79.609-41.33-61.909-71.521-19.591-18.55-14.721-68.07 22.109-57.309 12.33-83.33 77.141-88.841 77.821-53.041 45.87-42.68 139.03-43.89 114.849-5.61 113.601-34.811 123.84 126.59-32.519 85.59 0 0 44.41 70.47-120.351 101.89z" class="G"/><path d="M891.201 1221.492c2.31 72.56-18.98 193.099-99.75 182.79-35.22-4.5-71.8-43.84-85.59-115.441-23.141-120.16 180.4-188.379 185.34-67.349z" class="J"/><path d="M671.5 1235.43s53.88 60.512 76.59 46.951c22.72-13.56 22.08-58.19 22.08-58.19 22.63 14.609 50.071 14.689 62.18-2.09 0 0 30.19 36.68 61.48 20.079 31.28-16.59 34.89-119.139-69.04-108.599-103.93 10.55-153.29 101.849-153.29 101.849z" class="G"/><path d="M846.28 1283.191s7.55 30.99 2.6 40.11c-4.95 9.11-16.4-2.09-16.4-2.09" class="B C D E F"/><path d="M745.57 1283.1s-39.051-56.01-62.28-25.96c-23.22 30.051-2.62 89.34 60.3 56.46l1.98-30.5z" class="J"/><path d="M692.24 1268.771s28.83 13.39 35.79 27.23c0 0-14.12-4.271-32.36.99" class="B C D E F"/><g transform="matrix(.898794 .438371 -.438371 .898794 806.594971 1337.521973)" class="B C D E F"><path d="M-18.555-9.801c4.52 17.48 23.19 25.78 37.11 14.33"/></g><g class="G"><path d="M809.5 1266.721c3.48 0 6.32 2.84 6.32 6.32v10.1c0 3.48-2.84 6.32-6.32 6.32-3.47 0-6.31-2.84-6.31-6.32v-10.1c0-3.48 2.84-6.32 6.31-6.32zm57.29 0c3.479 0 6.32 2.84 6.32 6.32v10.1c0 3.48-2.841 6.32-6.32 6.32-3.47 0-6.31-2.84-6.31-6.32v-10.1c0-3.48 2.84-6.32 6.31-6.32z"/></g><g transform="matrix(.995915 .090298 -.090298 .995915 63.640274 -447.035858)"><path d="M1822.263 1806.477l-8.714-42.038s-25.979-1.599-33.729-42.849-11.281-62.901 9.679-59.02c0 0 3.42-15.731 21.88-9.341 0 0 4.791-24.62 35.32-10.029l-3.87-15.73s-46.95-55.611-33.27-69.281c13.671-13.67 50.13 39.66 61.53 54.471 11.391 14.81 16.63 25.29 21.19 51.729s14.348 114.634 14.348 114.634-23.702 55.243-84.364 27.454z" class="J"/><g class="C D E F B"><path d="M1810.469 1727.52s-14.81-21.65-20.97-64.95m47.401 57.66s-17.92-23.73-24.92-69.07m34.718-7.96l5.241 23.92-10.03-4.1"/><path d="M1851.029 1681.48c6.381 18.69 8.431 41.94-14.129 38.75 0 0-4.781 18.45-26.43 7.29 0 0-20.23 15.92-30.17-3.55"/></g><path d="M1875.87 1678.97s-35.321-27.11-47.181-24.15c-11.85 2.96-3.639 25.289 7.981 32.81 11.62 7.53 24.16 18.69 24.16 18.69s-11.62 12.54-13.45 29.86c-1.819 17.32 63.58-17.78 28.49-57.21z" class="J"/><path d="M1875.87 1678.97s-35.32-27.11-47.18-24.15c-11.85 2.96-5.85 18.921 6.16 30.21 9.54 9.601 23.77 22.2 23.77 22.2s-9.41 11.63-11.24 28.95" class="B C D E F"/></g><g transform="matrix(.999942 .010768 -.010768 .999942 -86.768921 -306.490845)"><path d="M1970.84 1962.733s-16.671-66.66-18.23-119.791c-1.56-53.119-26.04-65.099-26.04-65.099l-5.21-23.96s-81.77 17.7-116.149 44.79l.52 20.31s-17.71 27.6-12.5 58.331 42.709 187.509 55.209 239.589c3.41 14.199 11.23 28.12 22.31 39.39 30.57 28.2 108.471 6.312 131.481-44.118 6.204-61.299-31.391-149.442-31.391-149.442z" class="M"/><g class="C D E F B"><path d="M1988.881 2013.653c-7.99-28.891-18.041-50.921-18.041-50.921s-16.671-66.659-18.23-119.79c-1.56-53.119-26.04-65.099-26.04-65.099l-5.21-23.96s-81.77 17.7-116.149 44.79l.519 20.31s-17.71 27.599-12.5 58.329 42.71 187.511 55.21 239.591"/><path d="M1824.55 1814.293s53.52-20.82 102.02-36.45"/></g><use href="#R" class="M"/></g><g transform="matrix(.529919 .848048 -.848048 .529919 2578.495117 -928.438232)"><g class="M"><path d="M2211.729 1867.77c0 45.637-36.996 82.633-82.633 82.633s-82.633-36.996-82.633-82.633 36.996-82.633 82.633-82.633 82.633 36.996 82.633 82.633zm-210.694 238.722c0 41.786-33.875 75.661-75.661 75.661s-75.661-33.875-75.661-75.661 33.875-75.661 75.661-75.661 75.661 33.875 75.661 75.661z"/><path d="M2116.361 1788.21s-50.8-1.061-91.421 58.31l-62.5 93.75c-79.5 103.56-132.789 137.41-105.51 187.53 28.19 34.37 62.791 47.741 122.946 31.168 75.141-73.431 180.994-207.239 180.994-207.239s64.071-149.479-44.509-163.519z"/></g><path d="M2041.598 2087.782c3.559-2.961-35.35 44.061-31.77 40.561 75.14-73.431 184.579-209.95 184.579-209.95s21.925-29.729 14.644-56.428c-29.406-117.693-46.927-16.959-46.927-16.959s-42.226 80.451-46.915 98.681c-4.681 18.22-73.521 143.954-73.611 144.095z" class="G"/></g><path d="M2116.361 1788.21s-50.521 39.061-51.571 124.47c-1.04 85.42 41.67 396.88 41.67 396.88h393.75V2003.3c0-88.54-66.67-195.31-66.67-195.31-123.37-15.37-193.339-19.78-317.179-19.78z" class="M"/><g class="C D E B"><path d="M2065.49 1897.9s-1.54 48.14 6.279 122.35l28.16 240.28" class="F"/><path d="M2216.69 1896.49s42.18 19.79 76.04-6.25" class="P"/><g class="F"><path d="M2336.04 1797.13s-1.13 37.9-16.75 62.9m-123.979-71.02s-16.131 40.811-3.631 69.46"/></g></g><path d="M2409.55 2309.56h90.66V2003.3c0-42.359-15.26-88.88-31.18-125.9-20.89 67.09-10 130.64-10 130.64s7.4 56.68 8.44 94.18c.591 21.301-30.73 123.231-57.92 207.34z" class="G"/><path d="M2300.22 1683.271l22.4 109.369s3.64 94.27-71.36 94.27-45.83-86.46-45.83-86.46l22.389-112.24s34.611-19.549 72.401-4.939z" class="J"/><path d="M2210.05 1777.3l17.771-89.09s34.609-19.549 72.399-4.939c-16.61 72.14-63.29 89.899-90.17 94.029z" class="G"/><g transform="matrix(.992546 -.121869 .121869 .992546 -156.880219 272.490143)"><path d="M2578.867 2342.325l-4.281.209h-247.92c-64.59 0-67.71-62.899-61.46-107.739s72.39-65.081 109.89-50.311c0 0 29.431 8.481 47.14 9.841 17.7 1.369 58.33.819 58.33.819s74.263-1.384 112.451 11.006c21.16 6.865 9.607 14.11 19.64 37.314 26.87 62.16-3.38 95.941-33.79 98.861z" class="M"/><path d="M2478.746 2342.534h-152.08c-64.591 0-67.71-62.899-61.46-107.739s72.39-65.081 109.89-50.311c0 0 29.43 8.481 47.14 9.841 17.7 1.369 81.759-1.051 81.759-1.051m-178.34 5.051s56.771 45.939 23.441 117.029" class="B C D E F"/><path d="M2639.341 2272.244c0 38.819-31.469 70.289-70.289 70.289s-70.289-31.47-70.289-70.289 31.469-70.289 70.289-70.289 70.289 31.469 70.289 70.289z" class="M"/><path d="M2331.265 2208.752c-13.43-18.03-60.15-32.82-76.56-32.82s-82.68 26.439-90.879 36.979c-8.211 7.69 2.34 17.97 16.659 17.71-25.809 7.58-15.27 40.43 5.21 31.771-16.59 5.939-6.41 32.6 10.41 25-6.65 24.76 14.35 24.6 29.43 22.659l41.4-5.109c25.63 14.8 64.14 15.479 80.08-3.201 18.93-22.18 9.56-59.02-15.75-92.99z" class="J"/><g class="C D E F B"><path d="M2264.855 2204.582l-84.37 26.04m5.21 31.77l89.06-26.56m-78.65 51.56l90.63-20.05m-19.8 37.599s13.29-4.01 36.46 4.58"/></g></g><g transform="matrix(.961262 -.275637 .275637 .961262 -425.23584 739.456421)"><path d="M2376.651 1837.947s72.533-57.333 110.033 21.827c37.5 79.17 98.088 219.903 127.258 288.653 12.758 30.078 24.954 95.452 25.701 130.901.36 17.091-18.716 17.853-24.881 26.881-10.274 15.047-14.511 32.208-51.861 33.308h-9.429c-18.262-14.056-23.348-22.773-51.021-45.401-10.96-41.34-33.57-102.719-33.57-102.719s-41.19-102.67-88.06-197.98c-46.88-95.319-48.18-157.3-4.17-155.47z" class="M"/><path d="M2405.102 2044.377l52.6 119.82c4.221 10.18 13.57 34.57 13.57 34.57" class="B C D E F"/><g class="M"><path d="M2486.684 1877.391c0 39.229-31.802 71.031-71.031 71.031s-71.031-31.802-71.031-71.031 31.802-71.031 71.031-71.031 71.031 31.802 71.031 71.031zm152.959 395.126c0 38.82-31.469 70.289-70.289 70.289s-70.289-31.469-70.289-70.289 31.469-70.289 70.289-70.289 70.289 31.469 70.289 70.289z"/></g></g><g transform="matrix(.995467 -.095107 .095107 .995467 -152.114746 226.667603)"><path d="M2160.031 1601.52s-68.41-81.61-40.79-123.95c27.609-42.33 86.859 6.189 139.019-.17 52.17-6.351 102.15 14.31 92.95 69.34 62.95 7.14 23.15 105.319-13.08 134.87 0 0-87.32-5.771-178.1-80.09z" class="G"/><path d="M2147.54 1567.77s-8.049 76.149-4.86 128.459 56.86 72.891 98.69 56.381c41.84-16.511 97.55-54.7 111.26-99.221s-.72-121.25-86.34-137.779c-85.63-16.53-116.89 21.17-118.75 52.16z" class="J"/><path d="M2139.79 1533.93c-17.2-3.77-33.72-3.721-38.74 8.09-11.68 27.449 38.84 74.4 113.93 56.1 75.1-18.3 74.051 4.95 75.36 41.01 1.311 36.05 47.79 42.48 47.79 42.48 110.77-126.08-115.06-265.72-198.34-147.68z" class="G"/><path d="M2272.88 1649.38s26.97-41.27 48.62-29.19c21.66 12.069 23.1 66.52-30.769 54.82 0 0-26.451-4.04-17.851-25.63z" class="J"/><g class="C D E F B"><path d="M2314.55 1638.29s-16.1 8.16-21.8 22.83c0 0 11.15-5.25 18.03-5.96m-117.07-14.06s-15.719 38.24-14.57 45.07c1.16 6.83 19.06-2.57 19.06-2.57"/></g></g><g transform="matrix(.995467 -.095107 .095107 .995467 2201.689941 1710.903442)" class="I"><path d="M-17.324-3.652s25.831-12.12 33.65-11.71 10.11 16.421-6.951 27.491c-17.06 11.08-42.429-9.261-26.699-15.781z"/></g><g transform="matrix(.995467 -.095107 .015118 .158241 -21.103025 1597.944336)" class="G"><path d="M2223.77 1630.16c3.699.43 6.381 3.8 5.95 7.49l-.95 8.3a6.79 6.79 0 0 1-7.49 5.95c-3.7-.431-6.37-3.801-5.95-7.49l.95-8.3c.43-3.7 3.801-6.37 7.49-5.95zm-61.79-6.3c3.439.39 5.921 3.519 5.53 6.949l-.89 7.71c-.39 3.431-3.52 5.911-6.95 5.521a6.3 6.3 0 0 1-5.53-6.96l.879-7.7c.4-3.43 3.53-5.92 6.961-5.52z"/></g><g transform="matrix(.995467 -.095107 .095107 .995467 -152.476105 220.67775)" class="G"><path d="M2149.679 1613.06s20.03 6.631 29.33 4.16c9.301-2.48 1.321-10.739-14.019-10.519-15.351.23-19.18 4.5-15.311 6.359zm94.46 11.24s-21.579 1.771-30.259-2.949 1.27-11.041 16.53-7.101c15.25 3.931 18.04 9.12 13.729 10.05z"/></g><use href="#S" class="I"/><use href="#S" class="B C D N"/><path d="M1336.25 2202.96h497.83c16.8 0 29.63-13.74 28.54-30.53l-18.261-279.451c-1.09-16.789-15.73-30.529-32.52-30.529H1314c-16.79 0-29.631 13.74-28.531 30.529l18.25 279.451c1.101 16.79 15.741 30.53 32.531 30.53z" class="S"/><path fill="#949899" d="M1526.1 2292.35h70.83v-292.71h-70.83v292.71z"/><g class="S"><path d="M1447.97 2284.021h227.09v27.08h-227.09v-27.08zm301.55 25.539h288.54v-25.54h-288.54v25.54z"/></g><path d="M444.563 982.6h-16.13-3.55c-10.819 0-19.67-8.85-19.67-19.68 0-10.82 8.851-19.67 19.67-19.67a19.51 19.51 0 0 1 4.42.5c3.341-13.81 15.829-24.16 30.63-24.16 10.97 0 20.661 5.67 26.31 14.231a26.02 26.02 0 0 1 13.37-3.691c14.43 0 26.24 11.8 26.24 26.231s-11.81 26.239-26.24 26.239h-8.17-18.07-28.81z" class="B C D Q"/><path d="M1371.867 749.15h-21.12-4.65c-14.16 0-25.76-11.591-25.76-25.761s11.6-25.759 25.76-25.759c1.99 0 3.931.23 5.79.66 4.36-18.09 20.73-31.63 40.099-31.63 14.351 0 27.051 7.429 34.441 18.62 5.14-3.061 11.13-4.83 17.511-4.83 18.89 0 34.349 15.46 34.349 34.35s-15.459 34.349-34.349 34.349h-10.702-23.649-37.72z" class="H"/><path d="M2611.944 1415.14h14.449 3.18c9.7 0 17.64-7.94 17.64-17.64s-7.94-17.63-17.64-17.63a17.29 17.29 0 0 0-3.96.451c-2.98-12.38-14.18-21.651-27.45-21.651-9.82 0-18.51 5.08-23.58 12.75-3.51-2.1-7.61-3.309-11.979-3.309-12.931 0-23.511 10.578-23.511 23.509 0 12.939 10.58 23.52 23.511 23.52h7.33 16.179 25.831z" class="K"/><path stroke="#ffaf18" d="M2548.858 1616h45.285" stroke-width="3.378" class="B"/></g></svg>