<svg xmlns="http://www.w3.org/2000/svg" viewBox="0 0 800 800" width="100%" height="100%" preserveAspectRatio="xMidYMid meet" style="transform:translate3d(0px, 0px, 0px)" xmlns:v="https://vecta.io/nano"><style><![CDATA[.B{fill-opacity:0}.C{stroke-linecap:round}.D{stroke-linejoin:round}.E{fill:#ebcec3}.F{stroke-width:3}.G{fill:#34318f}.H{fill:#ebeef7}.I{fill:#f0bb42}.J{fill:#6a6ae2}.K{fill:#f2bd42}.L{stroke:#7f7ff4}.M{stroke-width:2}.N{fill:#5555c6}]]></style><defs><clipPath id="A"><path d="M0 0h800v800H0z"/></clipPath><path id="B" d="M197.625 442.992c0-1.201.974-2.175 2.175-2.175s2.175.974 2.175 2.175-.974 2.175-2.175 2.175-2.175-.974-2.175-2.175z"/><path id="C" d="M181.537 252.267c0-1.699 1.378-3.076 3.077-3.076s3.076 1.377 3.076 3.076-1.377 3.076-3.076 3.076-3.077-1.377-3.077-3.076z"/><path id="D" d="M192.126 252.267c0-1.699 1.377-3.076 3.076-3.076s3.076 1.377 3.076 3.076-1.377 3.076-3.076 3.076-3.076-1.377-3.076-3.076z"/><path id="E" d="M520.689 284.813c0-2.662 2.159-4.821 4.821-4.821a4.82 4.82 0 1 1 0 9.641 4.82 4.82 0 0 1-4.821-4.82z"/></defs><g clip-path="url(#A)"><path d="M237.99 668.492c0-12.044 72.277-21.807 161.436-21.807s161.437 9.763 161.437 21.807-72.278 21.807-161.437 21.807-161.436-9.763-161.436-21.807z" class="H"/><g class="C D L M B"><path d="M293.182 487.085c21.686 14.393 31.956 4.287 33.12-3.679 10.01-.315 18.935-12.181 12.046-29.238m-45.499 22.428c11.149 14.548 26.628 14.978 32.751 5.955 7.383-2.554 15.226-15.619 4.688-33.032"/><path d="M296.659 462.806c.954 5.734 15.781 28.434 27.877 18.508 7.385-2.235 8.229-21.676-1.983-34.722"/><path d="M323.571 455.532c1.606 3.521 2.637 17.412.965 25.782-7.289-2.325-17.594-12.234-19.496-16.598"/><path d="M324.536 481.314c-.853-8.199-1.871-17.14-8.311-28.838"/><path d="M308.231 451.038c.536 6.669 10.157 23.555 16.091 28.265m1.98 4.103c2.651 6.118 27.302 39.406 39.645 51.198"/></g><g transform="matrix(.999968 .007943 -.007943 .999968 401.749043 399.609787)"><path fill="#dfe3f7" d="M52.467 221.341c1.891 6.22 58.972 28.259 63.901 17.617 3.838-8.287-4.867-12.544-8.147-13.842-5.17-2.045-17.925-6.149-15.807-9.736 3.833-6.491 34.768 8.01 42.521 11.077s23.646 6.916 31.126 1.519 9.894-8.447-3.972-13.062-42.312-10.295-33.102-15.705 30.263 4.138 44.336 5.178 41.216-1.757 35.86-10.884c-4.789-8.162-46.363-5.284-43.683-12.058 2.144-5.419 13.683-1.898 32.257-2.211s36.103-.797 36.933-11.852c.666-8.876-11.184-6.166-21.201-6.124s-23.97-.429-20.604-5.016 52.365-.058 56.639-14.155c2.827-9.327-7.934-6.969-19.592-7.576s-15.712-1.689-14.819-3.947 16.753-3.992 25.488-4.715 21.016-4.744 20.624-12.907-14.269-5.557-19.172-3.405-10.493 2.116-11.12.649 15.051-9.714 9.531-17.12-19.735 1.941-23.129 10.522-8.278 20.055-11.409 18.816.798-11.174 3.895-19.002 2.538-11.646.451-12.472c-6.958-2.752-16.852 5.114-19.115 10.834s-10.772 39.435-15.394 37.607-.097-14.14 2.404-20.462 8.337-21.075.584-24.142-19.789 15.152-23.807 27.49-9.016 32.819-12.594 31.403-2.336-18.507.701-26.184 12.332-19.842 2.79-23.617-16.117 7.179-22.08 22.253c-2.491 6.298-8.5 21.952-6.55 32.501 2.22 12.012 1.355 18.361-1.413 19.014-5.515 1.3-6.057-9.533-4.69-17.349s7.079-31.845-5.323-31.876-12.064 20.471-12.745 28.732-.547 37.562-6.957 37.638-2.364-15.385-1.621-20.314-.977-15.619-5.254-13.742-30.113 49.534-26.741 60.625z"/></g><g transform="matrix(.997666 -.068289 .068289 .997666 385.919107 398.08844)"><path d="M-43.925 204.55c8.806-12.952 7.137-38.985-4.461-49.109s-23.812-2.081-28.57-9.308-.997-25.298-11.075-31.434c-17.909-10.903-30.352 21.337-44.37 14.656s-5.946-24.205-18.069-32.503-20.851 18.908-38.401 15.292-56.196-4.496-54.029 17.872c1.713 17.68 21.398 6.761 26.598 12.396 5.931 6.428-1.321 14.929 6.767 20.581 11.428 7.987 25.026-4.511 33.321 3.593s-.008 20.971 14.974 24.058c18.548 3.821 23.148-25.722 42.542-10.126s-9.085 30.348 1.53 41.664c11.586 12.352 31.509-10.841 37.203-.813 7.748 13.644 22.382 3.272 36.04-16.819z" class="N"/><path stroke="#6a6ae2" d="M-41.878 200.915c-3.097-2.829-6.863-13.421-14.568-15.008s-16.078-.057-23.92-3.739c-17.495-8.214-18.482-25.077-28.827-30.554-7.683-4.068-11.192 4.609-22.036 2.376s-6.843-8.996-20.047-11.716c-11.699-2.41-12.552 5.447-24.783 3.521-18.368-2.892-22.375-16.477-28.791-17.459-5.623-.861-8.005 2.871-8.005 2.871" class="B C D M"/></g><path d="M475.66 143.988c.001 3.03-1.148 6.07-3.292 8.214a11.28 11.28 0 0 1-8.024 3.322l-16.663.001c-3.03-.002-5.877-1.181-8.023-3.324s-3.322-5.118-3.322-8.149c-1.983-.177-4.452-.396-6.051-.093.001 4.653 1.783 9.25 5.073 12.542a17.32 17.32 0 0 0 12.325 5.103h16.661c4.656-.001 9.031-1.811 12.322-5.104s5.106-7.776 5.107-12.429c-1.232-.116-4.826-.136-6.113-.083z" class="I"/><g transform="matrix(.970745 -.240112 .240112 .970745 459.600673 401.79895)"><path fill="#7f7ff2" d="M29.432-273.196l-16.662-.001c-4.655.001-9.034 1.812-12.325 5.105a17.32 17.32 0 0 0-5.104 12.321c.002 4.656 1.815 9.033 5.106 12.324s7.666 5.104 12.321 5.104h16.663c4.654 0 9.032-1.814 12.322-5.104a17.31 17.31 0 0 0 5.104-12.323c.001-9.609-7.818-17.428-17.425-17.426zm11.347 17.425c.001 3.032-1.182 5.882-3.325 8.024a11.27 11.27 0 0 1-8.021 3.324H12.77c-3.031 0-5.881-1.18-8.024-3.325s-3.325-4.991-3.324-8.022a11.28 11.28 0 0 1 3.324-8.024c2.143-2.142 4.992-3.322 8.023-3.322H29.43c6.258-.002 11.349 5.09 11.349 11.345z"/></g><path d="M436.335 144.051c-.001-3.03 1.179-5.881 3.323-8.024s4.993-3.322 8.024-3.322l16.663-.001c3.03.002 5.879 1.179 8.023 3.324s3.322 4.993 3.322 8.024c1.983.177 4.484.302 6.083-.001-.001-4.653-1.813-9.033-5.105-12.323s-7.668-5.103-12.324-5.103h-16.662c-4.656 0-9.03 1.812-12.322 5.104s-5.105 7.669-5.106 12.322c1.232.116 4.794.053 6.081 0z" class="I"/><g class="C D M B"><g stroke="#d0d4f6"><path d="M443.935 534.872h62.113a14.09 14.09 0 0 0 14.086-14.085v-59.228m-253.32-73.537v132.765a14.09 14.09 0 0 0 14.086 14.085h63.695m-149.864-91.88h72.083m334.695-112.456H437.267c-6.214 0-11.251-5.037-11.251-11.251v-11.44h-78.794m130.65-61.513h-40.605c-6.214 0-11.251 5.037-11.251 11.251v50.262"/></g><path stroke-dasharray=" 30 50" stroke-dashoffset="75.73280334472656" stroke-opacity=".4" d="M443.935 534.872h62.113a14.09 14.09 0 0 0 14.086-14.085v-59.228m-253.32-73.537v132.765a14.09 14.09 0 0 0 14.086 14.085h63.695m-149.864-91.88h72.083m334.695-112.456H437.267c-6.214 0-11.251-5.037-11.251-11.251v-11.44h-78.794m130.65-61.513h-40.605c-6.214 0-11.251 5.037-11.251 11.251v50.262" class="L"/></g><g fill="#d0d4f6"><path d="M262.365 442.992a4.45 4.45 0 0 1 4.449-4.449 4.45 4.45 0 0 1 4.45 4.449 4.45 4.45 0 0 1-4.45 4.449 4.45 4.45 0 0 1-4.449-4.449zm159.202-135.147a4.45 4.45 0 0 1 4.449-4.45 4.45 4.45 0 0 1 4.449 4.45 4.45 4.45 0 0 1-4.449 4.449 4.45 4.45 0 0 1-4.449-4.449z"/></g><path fill="#7f7ff4" d="M233.405 409.839H150.82a6.98 6.98 0 0 0-6.977 6.977v52.352a6.98 6.98 0 0 0 6.977 6.977h82.585a6.98 6.98 0 0 0 6.977-6.977v-52.352a6.98 6.98 0 0 0-6.977-6.977z"/><g stroke="#34318f" class="C D F B"><path d="M176.433 462.522h-3.255c-2.696-.001-4.882-2.187-4.882-4.883l-.001-9.764c0-2.696-2.186-4.881-4.882-4.882 2.696.001 4.882-2.187 4.882-4.883v-9.764c0-2.696 2.186-4.882 4.882-4.883h3.255m31.36 39.059h3.256c2.695-.001 4.882-2.187 4.881-4.883l.001-9.765c-.001-2.695 2.186-4.883 4.882-4.882-2.696-.001-4.883-2.187-4.883-4.883v-9.764c.001-2.695-2.186-4.882-4.882-4.882l-3.255-.001"/></g><path fill="#6b6bf9" d="M197.625 442.992c0-1.201.974-2.175 2.175-2.175s2.175.974 2.175 2.175-.974 2.175-2.175 2.175-2.175-.974-2.175-2.175zm-7.688 0c0-1.201.974-2.175 2.175-2.175s2.176.974 2.176 2.175-.975 2.175-2.176 2.175-2.175-.974-2.175-2.175zm-7.687 0c0-1.201.974-2.175 2.175-2.175s2.175.974 2.175 2.175-.974 2.175-2.175 2.175-2.175-.974-2.175-2.175z"/><g class="G"><use href="#B" fill-opacity=".074"/><path fill-opacity="1" d="M189.937 442.992c0-1.201.974-2.175 2.175-2.175s2.176.974 2.176 2.175-.975 2.175-2.176 2.175-2.175-.974-2.175-2.175zm-7.687 0c0-1.201.974-2.175 2.175-2.175s2.175.974 2.175 2.175-.974 2.175-2.175 2.175-2.175-.974-2.175-2.175z"/></g><path d="M363.093 227.667H170.99a6.98 6.98 0 0 0-6.977 6.977v146.401a6.98 6.98 0 0 0 6.977 6.977h192.103a6.98 6.98 0 0 0 6.977-6.977V234.644a6.98 6.98 0 0 0-6.977-6.977z" class="H"/><g class="C D F B"><path stroke="#bdc1e4" d="M355.318 252.267l-11.291-11.291m0 11.291l11.291-11.291m-23.972 11.291h-13.991"/><path stroke="#d0d4f6" d="M187.69 273.646h-6.153m129.482 0H198.278m9.872 11.616h-6.152m73.847 0h-57.106m112.741 0h-46.526m-76.804 11.617h-6.152m129.482 0H218.739m-10.589 11.616h-6.152m129.482 0H218.739m16.733 11.617h-6.152m86.392 0h-69.651m107.429 0h-26.552m-91.466 11.616h-6.152m124.17 0H246.061m-10.589 11.617h-6.152m124.17 0H246.061m-58.371 11.617h-6.153m116.018 0h-99.277m-10.588 11.616h-6.153m43.368 0h-26.627"/></g><g fill="#bdc1e4"><use href="#C"/><use href="#D"/><path d="M202.714 252.267c0-1.699 1.377-3.076 3.076-3.076s3.076 1.377 3.076 3.076-1.377 3.076-3.076 3.076-3.076-1.377-3.076-3.076zm10.589 0c0-1.699 1.377-3.076 3.076-3.076s3.076 1.377 3.076 3.076-1.377 3.076-3.076 3.076-3.076-1.377-3.076-3.076zm10.588 0c0-1.699 1.377-3.076 3.076-3.076s3.076 1.377 3.076 3.076-1.377 3.076-3.076 3.076-3.076-1.377-3.076-3.076zm10.588 0c0-1.699 1.378-3.076 3.077-3.076s3.076 1.377 3.076 3.076-1.377 3.076-3.076 3.076-3.077-1.377-3.077-3.076zm10.589 0c0-1.699 1.377-3.076 3.076-3.076s3.076 1.377 3.076 3.076-1.377 3.076-3.076 3.076-3.076-1.377-3.076-3.076zm10.588 0c0-1.699 1.377-3.076 3.076-3.076s3.077 1.377 3.077 3.076-1.378 3.076-3.077 3.076-3.076-1.377-3.076-3.076zm10.589 0c0-1.699 1.377-3.076 3.076-3.076s3.076 1.377 3.076 3.076-1.377 3.076-3.076 3.076-3.076-1.377-3.076-3.076z"/></g><path d="M224.222 203.919v-33.492h194.912v33.492H224.222z" class="I"/><path fill="#e0a138" d="M235.146 191.631c-2.996 0-5.426-2.426-5.426-5.421s2.43-5.424 5.426-5.424a5.43 5.43 0 0 1 5.423 5.424c0 2.995-2.429 5.422-5.423 5.421z"/><path fill="#fff" d="M235.146 189.002c-1.544 0-2.795-1.25-2.794-2.793s1.25-2.794 2.794-2.794a2.79 2.79 0 0 1 2.792 2.794c.001 1.543-1.25 2.792-2.792 2.793z"/><path fill="#4141a8" d="M366.881 199.522v4.397h2.513v-4.396c.001-.697-.563-1.257-1.256-1.258s-1.257.562-1.257 1.257zm-9.108 0l.001 4.397h2.512v-4.396a1.26 1.26 0 0 0-1.256-1.259 1.26 1.26 0 0 0-1.257 1.258zm-126.25-1.257c-.693-.001-1.255.56-1.255 1.257v4.397h2.512v-4.397c.001-.695-.562-1.257-1.257-1.257zm117.143 1.257l-.001 4.397 2.514.001v-4.398c0-.695-.563-1.256-1.256-1.257s-1.257.562-1.257 1.257zm-27.323 0l-.001 4.397h2.514v-4.397c.001-.697-.563-1.257-1.256-1.257s-1.258.562-1.257 1.257zm-63.752 0v4.397h2.512v-4.397a1.26 1.26 0 0 0-1.256-1.257c-.694 0-1.256.562-1.256 1.257zm18.215 0v4.397h2.511l-.001-4.397c0-.695-.56-1.257-1.255-1.257s-1.256.562-1.255 1.257zm63.752 0l.001 4.397h2.512v-4.396c0-.695-.563-1.258-1.256-1.258s-1.256.562-1.257 1.257zm-91.075 0v4.397h2.512v-4.397c.001-.695-.563-1.258-1.256-1.257s-1.256.56-1.256 1.257zm-9.108 0v4.397h2.512v-4.397c.001-.695-.562-1.258-1.256-1.257s-1.255.56-1.256 1.257zm27.324 0v4.397h2.512l-.001-4.397c0-.695-.562-1.258-1.256-1.257s-1.255.56-1.255 1.257zm18.215.001v4.396h2.512v-4.397c0-.695-.563-1.258-1.257-1.257s-1.255.563-1.255 1.258zm45.537-.001v4.397h2.512l.001-4.397a1.26 1.26 0 0 0-1.257-1.257c-.694.001-1.256.562-1.256 1.257zm46.796-1.258a1.26 1.26 0 0 0-1.257 1.259l.001 4.396h2.512v-4.397a1.26 1.26 0 0 0-1.256-1.258zm9.106.001c-.693.001-1.255.562-1.255 1.257v4.398l2.514-.001-.002-4.397c0-.695-.562-1.257-1.257-1.257zm9.108 0c-.693 0-1.256.563-1.256 1.258v4.396h2.512l.002-4.397c-.001-.695-.562-1.258-1.258-1.257zm9.108 0c-.693.001-1.256.562-1.256 1.257l.001 4.397h2.511v-4.397c0-.695-.562-1.256-1.256-1.257zm-92.334 1.257v4.397h2.514l-.001-4.397c.001-.695-.562-1.257-1.256-1.257a1.26 1.26 0 0 0-1.257 1.257zm-9.107 0v4.397h2.513v-4.397c-.001-.697-.563-1.256-1.256-1.257s-1.256.562-1.257 1.257zm-9.109 0l.001 4.397h2.515v-4.397a1.26 1.26 0 0 0-1.258-1.257 1.26 1.26 0 0 0-1.258 1.257z"/><path d="M566.274 210.682h-88.806c-4.143 0-7.502 3.359-7.502 7.502v56.296c0 4.143 3.359 7.502 7.502 7.502h88.806c4.143 0 7.502-3.359 7.502-7.502v-56.296c0-4.143-3.359-7.502-7.502-7.502z" class="J"/><g class="C D F B"><path stroke="#8181f7" d="M538.394 237.026h-33.046m7.217 25.828V229.81m-7.217 25.828h33.046m-7.217-25.828v33.044"/><path stroke="#34318d" d="M531.177 229.81v19.219"/></g><path d="M692.193 270.188H517.419a7.56 7.56 0 0 0-7.557 7.556v118.909a7.56 7.56 0 0 0 7.557 7.556h174.774a7.56 7.56 0 0 0 7.557-7.556V277.744a7.56 7.56 0 0 0-7.557-7.556z" class="H"/><path fill="#dbdbdb" d="M520.689 284.813c0-2.662 2.159-4.821 4.821-4.821a4.82 4.82 0 1 1 0 9.641 4.82 4.82 0 0 1-4.821-4.82zm14.45 0c0-2.662 2.159-4.821 4.821-4.821a4.82 4.82 0 1 1 0 9.641 4.82 4.82 0 0 1-4.821-4.82zm14.45 0a4.82 4.82 0 0 1 4.82-4.821c2.662 0 4.821 2.159 4.821 4.821a4.82 4.82 0 1 1-9.641 0z"/><use href="#E" class="B K"/><path d="M535.139 284.813c0-2.662 2.159-4.821 4.821-4.821a4.82 4.82 0 1 1 0 9.641 4.82 4.82 0 0 1-4.821-4.82z" class="B N"/><path fill="#bdc1e4" fill-opacity=".741" d="M549.589 284.813a4.82 4.82 0 0 1 4.82-4.821c2.662 0 4.821 2.159 4.821 4.821a4.82 4.82 0 1 1-9.641 0z"/><path fill="#dde1f5" d="M664.984 332.902h-99.947V328.6h99.947v4.302z"/><g class="C D F B"><path stroke="#e2a334" d="M582.247 306.259h67.92"/><path d="M547.169 297.378h67.657m-32.579 63.245h49.889m-49.889 8.88h59.912" class="L"/><path stroke="#4141a8" d="M565.037 332.902h5.043m73.313 0h21.591m-114.235 8.974h2.494m11.794 0h29.951m-44.239 8.974h2.494"/></g><path d="M496.61 378.025l-14.142-15.468a10.84 10.84 0 0 0-7.998-3.524h-22.794c-4.275 0-7.741 3.466-7.741 7.741v100.509c0 3.293 2.67 5.963 5.963 5.963h140.471c3.293 0 5.964-2.67 5.964-5.963v-81.517c0-4.275-3.467-7.741-7.742-7.741H496.61z" class="I"/><path fill="#f7d25c" d="M555.138 446.32h-66.512v-41.11h66.512v41.11z"/><g stroke="#fff" class="C D F B"><path d="M513.851 437.9l12.135-24.27m-17.633 20.013l-11.257-7.744 11.257-7.744m23.72 0l11.258 7.744-11.258 7.744"/></g><path d="M448.819 513.082c-10.256-7.326-34.188-6.349-49.393-5.861-15.205-.488-39.136-1.465-49.392 5.861-5.003 3.574-.306 30.456 4.884 32.844 1.43 22.414-17.582 68.252-17.582 68.252s33.828 25.593 62.09 25.593 62.091-25.593 62.091-25.593-18.148-44.663-17.582-68.252c6.14-2.826 9.81-29.326 4.884-32.844z" class="K"/><g transform="matrix(.996675 -.081482 .081482 .996675 390.180586 391.588859)"><g transform="matrix(.944396 -.32881 .32881 .944396 -61.871586 -12.873795)" class="E"><path d="M-78.677 171.376c-.757 3.165-.206 7.041 1.153 11.21 5.353 16.418 23.246 37.384 23.246 37.384s12.528 8.858 14.903-.784l-17.612-42.804s-2.355-7.4-7.886-9.628c-4.865-1.96-12.921.93-13.804 4.622z"/></g><path d="M-30.628 115.835c-6.872-3.882-15.622.744-19.338 3.039-5.231 3.231-11.311 12.895-16.645 22.848-2.1 3.92 16.339 7.608 21.529 9.996 7.582-11.39 25.066-29.888 14.454-35.883z" class="K"/><path d="M-45.082 151.718l-21.529-9.996c-5.495 10.333-10.18 21.766-12.066 29.654-3.736 15.628 10.677 18.452 14.149 15.844 3.519-2.644 7.541-10.838 7.541-10.838l11.905-24.664z" class="E"/></g><g transform="matrix(.992057 .125789 -.125789 .992057 415.530207 390.263336)"><g transform="matrix(.920041 .391823 -.391823 .920041 74.553932 -12.33522)" class="E"><path d="M65.714 167.222c4.823-1.113 10.823.858 12.709 8.746 3.736 15.628-25.292 44.002-25.292 44.002s-13.881 6.858-17.154-2.784l19.862-40.804s3.929-7.788 9.875-9.16z"/></g><path d="M65.464 141.722c-5.273-9.766-11.844-19.33-16.77-22.848-3.325-2.375-10.194-6.046-16.149-1.807-8.512 6.058 3.205 18.261 11.39 34.651 6.14-2.826 23.074-7.135 21.529-9.996z" class="K"/><path d="M43.935 151.718l21.529-9.996c5.496 10.333 10.18 21.766 12.066 29.654 3.736 15.628-5.277 18.012-11.649 16.594-7.381-1.642-10.042-11.588-10.042-11.588l-11.904-24.664z" class="E"/></g><g transform="matrix(.996964 -.077866 .077866 .996964 390.924797 394.464386)"><path fill="#ddbbb1" d="M8.596 100.315c-1.471-3.832-5.6-5-9.045-5-3.518 0-7.426 1.293-9.294 5-1.197 6.105-3.893 12.262-6.166 14.506 2.426 6.388 9.66 6.983 15.043 7.215 5.76.249 12.665-1.046 15.091-7.434-2.274-2.244-4.432-8.182-5.629-14.287z"/><g transform="matrix(.996938 -.078192 .078192 .996938 -7.744107 1.099358)"><g class="E"><path d="M-23.363 77.881c0-10.044 1.077-22.29 7.456-27.568C-12.49 47.486-7 46.592-.574 46.592c6.507 0 12.183 1.083 15.681 4.306 5.829 5.372 7.108 17.343 7.108 26.983 0 15.425-10.203 27.928-22.789 27.928s-22.789-12.503-22.789-27.928z"/><path d="M18.786 72.552c-.218-2.753 1.059-5.1 2.851-5.241s3.421 1.975 3.638 4.728-1.058 5.098-2.85 5.24-3.421-1.974-3.639-4.727zm-38.72 0c.217-2.753-1.058-5.1-2.85-5.241s-3.421 1.975-3.638 4.728 1.058 5.098 2.85 5.24 3.42-1.974 3.638-4.727z"/></g><path d="M16.805 46.593C3.983 34.26 4.49 40.365 6.469 42.132-.948 39.733-7.133 38.115-8.306 38.534c-.591.211-.207 1.748.334 2.754-2.298-.726-4.895-1.705-8.066-3.05-24.43-10.364-23.823 12.687-9.004 18.599 13.433 5.359 27.061 6.054 45.018 2.605 2.167-4.747.502-9.699-3.171-12.849z" class="G"/></g></g><path d="M340.359 572.781l10.686 66.082h96.762l10.687-66.082c.439-2.715-1.657-5.178-4.408-5.178H344.767c-2.751 0-4.847 2.463-4.408 5.178z" class="H"/><g transform="matrix(.999693 .024789 -.024789 .999693 406.644951 393.170036)"><path d="M93.844 272.071c-.615-6.507-3.638-11.067-10.196-14.346h2.05c3.279 0 10.861 5.943 10.861 14.551s-7.582 10.042-12.911 10.042c4.714-.455 10.701-4.907 10.196-10.247z" class="G"/><path d="M48.536 275.108c5.807-3.023 5.47-9.232.934-14.44 2.223-1.216 4.943-2.943 9.995-2.943h24.183c6.558 3.279 9.581 7.839 10.196 14.346.505 5.34-5.482 9.792-10.196 10.247-5.329 0-22.824-2.461-28.077-3.894-4.094-1.116-5.484-2.243-7.035-3.316z" class="J"/><g stroke="#fff" class="C D B"><path d="M59.004 264.877c1.506 2.152 1.97 6.141-.104 7.905m3.399-9.216c1.506 2.152 2.383 7.916-.615 10.605m4.57-10.938c1.957 2.603 2.911 8.772-.087 11.461"/></g><path d="M46.007 261.837c1.2 0 2.26-.511 3.463-1.169 4.536 5.208 4.873 11.417-.934 14.44-1.011-.7-2.09-1.376-4.032-2.012-2.192-.208-3.599-3.563-3.32-5.527.723-5.088 4.823-5.732 4.823-5.732z" class="E"/></g><path d="M446.007 656.045c-40.646-16.819-71.371-36.066-97.525-45.594-27.052-9.856-48.419-9.614-51.228.699-5.738 21.069 63.634 56.154 147.25 56.154 0-4.509 1.503-11.259 1.503-11.259z" class="G"/><g transform="matrix(.999998 -.002083 .002083 .999998 399.443928 394.11248)"><path d="M-96.364 272.071c.615-6.507 3.638-11.067 10.196-14.346h-2.049c-3.279 0-10.862 5.943-10.862 14.551s7.583 10.042 12.911 10.042c-4.714-.455-10.701-4.907-10.196-10.247z" class="G"/><path d="M-51.056 275.108c-5.807-3.023-5.469-9.232-.933-14.44-2.223-1.216-4.943-2.943-9.996-2.943h-24.183c-6.558 3.279-9.581 7.839-10.196 14.346-.505 5.34 5.482 9.792 10.196 10.247 5.329 0 22.823-2.461 28.077-3.894 4.094-1.116 5.484-2.243 7.035-3.316z" class="J"/><g stroke="#fff" class="C D B"><path d="M-61.524 264.877c-1.506 2.152-1.97 6.141.104 7.905m-3.398-9.216c-1.506 2.152-2.383 7.916.615 10.605m-4.57-10.938c-1.957 2.603-2.912 8.772.086 11.461"/></g><path d="M-48.526 261.837c-1.2 0-2.26-.511-3.463-1.169-4.536 5.208-4.874 11.417.933 14.44 1.011-.7 2.09-1.376 4.032-2.012 2.587-.519 3.961-3.395 3.439-6.597-.688-4.223-4.941-4.662-4.941-4.662z" class="E"/></g><path d="M351.474 656.045c40.646-16.819 71.37-36.066 97.524-45.594 27.052-9.856 48.419-9.614 51.228.699 5.738 21.069-63.634 56.154-147.25 56.154 0-2.101-.327-4.689-.675-6.853-.399-2.481-.827-4.406-.827-4.406z" class="N"/><path fill="#d0d4f6" d="M402.883 599.412h-6.975l-3.487 4.204 3.487 4.204h6.975l3.487-4.204-3.487-4.204z"/><g transform="matrix(.999997 -.002639 .002639 .999997 400 400)"><g fill="#f7d25c"><path d="M198.347-288.8l-11.213 2.276c-.877.178-1.593.811-1.877 1.659l-3.637 10.85c-.284.849-.095 1.784.498 2.455l7.58 8.574c.593.67 1.498.974 2.375.796l11.213-2.276c.877-.178 1.593-.811 1.877-1.659l3.637-10.85c.284-.849.095-1.784-.498-2.455l-7.58-8.575c-.593-.67-1.498-.973-2.375-.795zm-426.466 471.832l5.433-10.676c.628-1.233 2.136-1.724 3.369-1.096l10.674 5.434c1.233.627 1.723 2.135 1.096 3.368l-5.432 10.675c-.627 1.233-2.136 1.724-3.369 1.096l-10.675-5.433c-1.233-.628-1.724-2.135-1.096-3.368z"/></g><g class="J"><path d="M-288.593-166.8l2.522 17.623a2.51 2.51 0 0 0 4.027 1.615l14.001-10.996c1.516-1.191 1.174-3.576-.615-4.294l-16.523-6.627c-1.79-.718-3.685.77-3.412 2.679zM267.19 164.158l-9.848 14.831a2.51 2.51 0 0 0 1.93 3.886l17.768 1.113c1.924.121 3.258-1.887 2.4-3.614l-7.92-15.944c-.858-1.727-3.263-1.878-4.33-.272z"/></g></g></g></svg>