<svg xmlns="http://www.w3.org/2000/svg" viewBox="0 0 3000 3000" width="100%" height="100%" preserveAspectRatio="xMidYMid meet" style="transform:translate3d(0px, 0px, 0px)" xmlns:v="https://vecta.io/nano"><style><![CDATA[.B{fill-opacity:0}.C{stroke-linejoin:round}.D{stroke-width:4.17}.E{stroke:#2a1d19}.F{stroke-linecap:round}.G{fill:#fd3e42}.H{fill:#fccac3}.I{fill:#7da3fb}.J{fill:#353640}.K{fill:#eff3f7}.L{fill:#2a1d19}.M{fill:#d0d3d4}.N{stroke:#949899}.O{stroke:#fd3e42}.P{stroke:#fbcc7c}.Q{fill:#fbcc7c}.R{stroke-width:2.36}]]></style><defs><clipPath id="A"><path d="M0 0h3000v3000H0z"/></clipPath><path id="B" d="M310.041 1587.378h168.168v12.03H310.041v-12.03z"/><path id="C" d="M296.845 1538.969h194.561v12.03H296.845v-12.03z"/><path id="D" d="M1100.713 2088.098c0 45.997-37.289 83.286-83.286 83.286s-83.286-37.289-83.286-83.286 37.289-83.286 83.286-83.286 83.286 37.289 83.286 83.286z"/><path id="E" d="M2045.485 1799.035c0 49.653-40.252 89.905-89.905 89.905s-89.905-40.252-89.905-89.905 40.252-89.905 89.905-89.905 89.905 40.252 89.905 89.905z"/></defs><g clip-path="url(#A)"><path stroke="#353640" d="M256.57 2502.101h2486.86" class="B C D F"/><g transform="matrix(-.852558 .522632 -.522632 -.852558 1785.236694 1193.232666)" class="I"><path d="M106.52-17.38c0 29.4-11.93 56.04-31.2 75.32C56.039 77.21 29.41 89.14 0 89.14c-29.4 0-56.04-11.93-75.32-31.2-19.27-19.28-31.2-45.92-31.2-75.32 0-27.64 10.539-52.83 27.81-71.76l25.39 23.15c-11.699 12.819-18.84 29.88-18.84 48.61 0 19.931 8.079 37.97 21.14 51.03C-37.97 46.7-19.93 54.78 0 54.78s37.969-8.08 51.03-21.13C64.08 20.59 72.16 2.551 72.16-17.38h34.36z"/></g><g transform="matrix(-.852558 .522632 -.522632 -.852558 1776.748169 1281.292725)"><path fill="#ff845e" d="M-53.26-53.26c29.41 0 56.04 11.929 75.32 31.199 19.271 19.28 31.2 45.911 31.2 75.321H18.9c0-19.93-8.079-37.97-21.13-51.02-13.06-13.061-31.1-21.14-51.03-21.14v-34.36z"/></g><g transform="matrix(.999859 -.016784 .016784 .999859 -31.149902 41.608765)"><path d="M2343.58 1774.6c17.24-8.069 38.01-7.87 55.74 2.37 21.189 12.23 32.14 35.391 29.85 58.25l136.49 78.801c13.55-7.07 30.3-7.27 44.52.93 13.591 7.85 21.69 21.57 22.94 36.099l-30.97-17.87-13.2 7.62-13.21 7.63v15.25 15.25l30.96 17.87c-13.21 6.19-29.129 6.031-42.729-1.809-14.211-8.21-22.411-22.82-23.061-38.09l-136.5-78.801c-18.65 13.41-44.179 15.511-65.37 3.271-17.73-10.24-28.29-28.12-29.92-47.09l40.39 23.319 17.23-9.939 17.23-9.951v-19.9-19.89l-40.39-23.319z" class="I"/><path d="M2327.519 1758.2c18.371-8.601 40.49-8.39 59.381 2.52 22.569 13.03 34.239 37.699 31.8 62.05l145.389 83.94c14.43-7.53 32.28-7.75 47.42 1 14.48 8.35 23.1 22.96 24.43 38.45l-32.979-19.04-14.071 8.12-14.07 8.12.011 16.239v16.25l32.979 19.04c-14.08 6.59-31.04 6.421-45.52-1.929-15.14-8.75-23.879-24.311-24.57-40.571l-145.389-83.939c-19.871 14.29-47.071 16.51-69.641 3.48-18.89-10.899-30.14-29.961-31.87-50.161l43.02 24.841 18.36-10.591 18.35-10.599v-21.191-21.189l-43.03-24.84z" class="B C D E"/></g><path d="M1981.34 2004.079h505.83c14.37 0 26.13 11.76 26.13 26.13v26.13h-558.09v-26.13c0-14.37 11.76-26.13 26.13-26.13z" class="M"/><path d="M2000.21 2406.189h468.09c24.75 0 45-20.239 45-45v-304.85h-558.09v304.85c0 24.761 20.25 45 45 45z" class="J"/><g class="C F B"><path d="M2358.39 2056.339h-403.18v304.85" class="D E"/><path d="M2006.85 2406.189h381.53" class="N R"/><g class="O"><path d="M1999.41 2344.279h204.191" stroke-width="4.326"/><path d="M2133.873 2294.929h108.697" stroke-width="3.881"/></g><path d="M1999.41 2294.929h97.753" stroke-width="4.824" class="P"/><path d="M2250.839 2245.57h63.222" stroke-width="4.389" class="O"/><path d="M2103.565 2245.57h115.055" stroke-width="3.968" class="P"/><g class="O"><path d="M1999.41 2245.57h72.964" stroke-width="4.772"/><path d="M2182.618 2196.209h238.502" stroke-width="3.987"/></g><g class="P"><path d="M1999.41 2196.209h139.185" stroke-width="4.728"/><path d="M1999.41 2146.859h324.836" stroke-width="3.844"/></g><path stroke="#a5c250" d="M1999.41 2097.499h220.783" stroke-width="4.538"/></g><path d="M460.79 1992.28h391.75c24.09 0 43.79 19.71 43.79 43.8v247.94c0 24.09-19.7 43.8-43.79 43.8H460.79c-24.09 0-43.79-19.71-43.79-43.8v-247.94c0-24.09 19.7-43.8 43.79-43.8z" class="I"/><path d="M417 2036.08v247.94s2.53 43.8 43.79 43.8h391.75" class="B C D E F"/><g fill="#fff"><path d="M604.848 2269.15H761.22v17.35H604.848v-17.35zm-144.048 0h123.405v17.35H460.8v-17.35zm0-47.11h240.338v17.35H460.8v-17.35zm218.777-47.11H817.83v17.35H679.577v-17.35zm-218.777 0h201.465v17.35H460.8v-17.35zm277.69-47.11h101.581v17.35H738.49v-17.35zm-108.838 0h88.178v17.35h-88.178v-17.35zm-168.852 0h146.888v17.35H460.8v-17.35zm0-47.11h159.786v17.35H460.8v-17.35zm0-47.11h196.312v17.35H460.8v-17.35z"/></g><path d="M316.9 1780.98h176.57c7.83 0 14.24 6.4 14.24 14.24v102.531c0 7.829-6.41 14.229-14.24 14.229H316.9c-7.83 0-14.24-6.4-14.24-14.229V1795.22c0-7.84 6.41-14.24 14.24-14.24z" class="Q"/><g fill="#ff845e"><path d="M302.66 1897.74l82.16-61.44 20.37 10.18-102.53 51.26z"/><path d="M507.71 1897.74l-82.16-61.44-20.36 10.18 102.52 51.26z"/></g><g class="C D F B"><g class="E"><path d="M302.66 1795.22l102.529 51.26 102.521-51.26m-205.05 102.52l82.16-61.44m122.89 61.44l-82.16-61.44"/></g><g stroke="#353640" stroke-dasharray=" 8.33 12.5"><path d="M895.189 1361.6v637.01s-20.205 188.078 151.315 197.948M1794.31 1373.5v439.17m755.317-1057.29h18.403c40.05 0 84.87 23.36 84.87 78.19v196.913M806.184 627.62H529.589S389.41 629.53 389.41 754.45v258.43"/></g></g><g transform="matrix(-.837665 -.546185 .546185 -.837665 1197.292725 3425.805664)"><path d="M1132.79 1448.04a95.73 95.73 0 0 1 22.8 9.46l17.11-17.12 35.4 35.4-17.11 17.12-39.589 16.4c-9.77-13.54-25.681-22.36-43.651-22.36-29.7 0-53.78 24.08-53.78 53.79 0 2.939.24 5.819.69 8.63l-39.59 16.4h-24.2v-50.06h24.2c2.17-8.08 5.37-15.72 9.45-22.811l-17.119-17.109 35.399-35.4 17.12 17.12a95.47 95.47 0 0 1 22.811-9.46v-24.2h50.059v24.2zm67.651 67.66h24.199v50.06h-24.19c-2.181 8.07-5.39 15.72-9.46 22.8l17.11 17.121-35.4 35.399-17.12-17.13a95.66 95.66 0 0 1-22.79 9.46v24.2h-50.059v-24.2a95.61 95.61 0 0 1-22.801-9.45l-17.12 17.12-35.4-35.399 17.12-17.121 39.58-16.4c9.77 13.54 25.68 22.35 43.64 22.35 29.71 0 53.79-24.08 53.79-53.78 0-2.941-.24-5.82-.69-8.64l39.59-16.39z" class="K"/><path d="M1134.02 1437.729a99.95 99.95 0 0 1 23.92 9.921l17.96-17.96 37.14 37.14-17.96 17.97c4.27 7.42 7.64 15.45 9.92 23.91h25.38v52.53H1205c-2.28 8.47-5.64 16.5-9.92 23.92l17.96 17.96-37.15 37.14-17.96-17.96c-7.43 4.28-15.449 7.641-23.91 9.92v25.39h-52.53v-25.39c-8.471-2.279-16.49-5.64-23.92-9.92l-17.96 17.96-37.14-37.14 17.96-17.96c-4.279-7.43-7.64-15.45-9.92-23.92h-25.39v-52.53h25.38a100.77 100.77 0 0 1 9.92-23.92l-17.96-17.96 37.15-37.14 17.96 17.96c7.43-4.28 15.449-7.641 23.92-9.921v-25.389h52.53v25.389zm-26.27 40.811c31.17 0 56.439 25.27 56.439 56.43 0 31.17-25.269 56.44-56.439 56.44-31.16 0-56.43-25.27-56.43-56.44 0-31.16 25.27-56.43 56.43-56.43z" class="B C D N"/></g><g transform="matrix(-.837665 .546185 -.546185 -.837665 2139.819092 2307.839844)"><path d="M743.78 1413.451c5.43 1.47 10.58 3.62 15.34 6.359l11.51-11.51 23.81 23.8-11.51 11.52-26.63 11.031c-6.569-9.11-17.26-15.04-29.35-15.04-19.98 0-36.17 16.199-36.17 36.179 0 1.97.16 3.91.46 5.8l-26.62 11.03h-16.28v-33.669h16.27c1.47-5.43 3.621-10.571 6.36-15.331l-11.51-11.519 23.809-23.801 11.511 11.51c4.76-2.739 9.91-4.899 15.34-6.359v-16.271h33.66v16.271zm45.5 45.5h16.28v33.669h-16.27a64.49 64.49 0 0 1-6.36 15.331l11.51 11.509-23.81 23.811-11.52-11.511a64.5 64.5 0 0 1-15.33 6.36v16.27h-33.66v-16.27c-5.43-1.47-10.58-3.62-15.34-6.36l-11.511 11.511-23.809-23.811 11.52-11.509 26.619-11.021c6.561 9.101 17.271 15.03 29.351 15.03 19.98 0 36.17-16.2 36.17-36.17 0-1.98-.16-3.919-.46-5.81l26.62-11.029z" class="M"/><path d="M744.611 1406.52c5.7 1.529 11.089 3.789 16.089 6.67l12.08-12.08 24.98 24.98-12.08 12.08c2.87 5 5.131 10.39 6.67 16.08h17.07v35.33h-17.07c-1.529 5.7-3.789 11.09-6.67 16.09l12.07 12.08-24.97 24.98-12.08-12.09a67.45 67.45 0 0 1-16.089 6.68v17.07H709.29v-17.07a67.46 67.46 0 0 1-16.09-6.68l-12.08 12.09-24.98-24.98 12.08-12.08c-2.88-5-5.14-10.39-6.67-16.09h-17.08v-35.33h17.08c1.53-5.69 3.79-11.09 6.67-16.09l-12.08-12.07 24.98-24.98 12.08 12.08c5-2.881 10.39-5.141 16.09-6.67v-17.08h35.321v17.08zm-17.661 27.44c20.96 0 37.951 17 37.951 37.96s-16.991 37.95-37.951 37.95-37.96-16.99-37.96-37.95 17-37.96 37.96-37.96z" class="B C D N"/></g><path d="M289.65 1085.998h43.211v8.07c0 5.311 4.339 9.66 9.649 9.66h103.23c5.31 0 9.661-4.349 9.661-9.66v-8.07H498.6c18.2 0 33.08 14.889 33.08 33.08v492.65c0 18.2-14.88 33.09-33.08 33.09H289.65c-18.19 0-33.08-14.89-33.08-33.09v-492.65c0-18.191 14.89-33.08 33.08-33.08z" class="K"/><path fill="#fff" d="M287.44 1479.718h213.37v-139.69H287.44v139.69z"/><g class="C F B"><path stroke="#d0d3d4" d="M287.44 1340.028v139.69h213.37" class="R"/><path d="M256.57 1119.078v492.66s-.91 33.08 33.08 33.08H498.6" class="D E"/></g><g class="G"><use href="#B"/><use href="#C"/></g><g class="J"><path d="M310.041 1287.079h168.168v12.03H310.041v-12.03zm-13.187-48.941h194.551v12.03H296.854v-12.03zm13.196-48.95h168.16v12.03H310.05v-12.03zm-13.205-48.95h194.561v12.03H296.845v-12.03z"/></g><path d="M652.02 740.967h570.26c18.88 0 34.33 15.45 34.33 34.33v34.33H617.69v-34.33c0-18.88 15.45-34.33 34.33-34.33z" class="Q"/><path d="M676.811 1269.267h520.67c32.519 0 59.129-26.6 59.129-59.12v-400.52H617.69v400.52c0 32.52 26.601 59.12 59.121 59.12z" class="K"/><g class="C D E F B"><path d="M1079.26 809.627H617.69v400.52m59.12 59.12h436.78"/></g><g class="J"><path d="M880.57 1123.677l-149.83-65.101v-36.059l149.83-64.85v42.42l-104.52 39.98 104.52 41.5v42.11zm13.73 28.68l54.32-225.81h31.43l-54.62 225.81H894.3zm99.43-28.38v-42.109l104.51-41.241-104.51-40.839v-41.811l149.83 64.9v35.8l-149.83 65.3z"/></g><path d="M1651.46 494.962h715.67c18.88 0 34.33 15.44 34.33 34.33v34.33h-784.33v-34.33c0-18.89 15.45-34.33 34.33-34.33z" class="Q"/><path d="M1676.25 1023.262h666.08c32.52 0 59.13-26.601 59.13-59.131V563.622h-784.33v400.509c0 32.53 26.6 59.131 59.12 59.131z" class="K"/><g class="C D E F B"><path d="M2078.7 563.622h-461.57v400.51m72.58 59.13h536.18"/></g><g class="J"><path d="M2033.13 902.542h137.139v17.35H2033.13v-17.35zm0-47.11h288.357v17.35H2033.13v-17.35zm181.179-47.11h126.311v17.35h-126.311v-17.35zm-181.179 0h166.055v17.35H2033.13v-17.35zm0-47.11h283.855v17.35H2033.13v-17.35zm0-47.11h262.472v17.35H2033.13v-17.35z"/></g><path d="M2033.13 666.992h206.512v17.35H2033.13v-17.35z" class="G"/><path fill="#fdeccf" d="M1692.21 644.442h298v298h-298v-298z"/><g class="I"><path d="M2467.889 1067.01l-.03.04c-3.949 3.94-10.34 3.94-14.279 0a10.09 10.09 0 0 1 0-14.269c19.939-19.941 46.079-29.92 72.219-29.92 26.13 0 52.271 9.979 72.21 29.92 3.939 3.939 3.939 10.33 0 14.269s-10.33 3.94-14.269 0c-16-15.99-36.971-23.99-57.941-23.99-20.96 0-41.91 7.98-57.91 23.95zm14.111 26.549c-3.94 3.94-10.33 3.94-14.28 0-3.94-3.939-3.94-10.328 0-14.269 16.04-16.04 37.06-24.061 58.08-24.061 21.01 0 42.031 8.021 58.071 24.061 3.939 3.939 3.939 10.33 0 14.269s-10.331 3.94-14.281 0c-12.09-12.09-27.939-18.139-43.79-18.139-15.86 0-31.71 6.049-43.8 18.139zm22.04 24.881c-3.95 3.939-10.341 3.939-14.28 0-3.939-3.95-3.939-10.34 0-14.28 9.95-9.95 22.99-14.931 36.04-14.931 13.04 0 26.08 4.981 36.03 14.931 3.939 3.939 3.939 10.33 0 14.28-3.941 3.939-10.33 3.939-14.28 0-6-6.011-13.88-9.02-21.75-9.02-7.88 0-15.76 3.009-21.76 9.02zm21.76 2.59c7.57 0 13.71 6.15 13.71 13.72 0 7.58-6.14 13.72-13.71 13.72a13.72 13.72 0 0 1-13.72-13.72c0-7.57 6.14-13.72 13.72-13.72z"/></g><g fill="#949899"><path d="M1474.689 2278.871c24.59 115.41 40.75 117.48 99.17 223.24h298.99l-121.149-233.75c-70.77-145.561-302.8-132.69-277.011 10.51z"/><path d="M1229.561 2281.86s-4.871 93.96-4.321 220.25h288.84l1.561-109.63-19.011-117.53c-28.09-122.38-260.549-115.39-267.069 6.91z"/></g><path d="M1373.79 1490.99l-70.82 9.29-168.775 90.978c-20.87 45.52 13.395 154.782 43.635 331.722 0 0 42.921 324.23 44.831 423.41 0 0 366.179 26.7 541.65-66.75 0 0-62.2-305.399-47.92-501.99l-2.011-2.93c2.761-313.84-94.068-319.376-128.27-321.24-6.699.11-13.58.66-20.61 1.77-69.141 10.97-121.4 28.819-121.4 28.819l-70.31 6.921z" class="G"/><g class="C D F B"><g class="E"><path d="M1218.88 2283.101s-12.68-191.841-41.05-360.12m533.3-246.951s5.191 104.01 3.55 197.43 28.38 284.37 28.38 284.37m-437.73-640.45s75.809 78.2 118.25 50.07"/></g><path stroke="#fff" d="M1456.901 1480.02s4.819 34.501-4.721 55.96"/><g class="E"><path d="M1291.5 2089.08s135.41 119.2 220.28 139.7m-152.1-15.73s93.46 62.941 198.35 50.551m118.25-104.901s45.72-49.34 49.56-130.53"/></g></g><path d="M1280.08 1341.98s43.87 117.291 22.89 158.301c0 0 69.61 66.749 105.85 57.219 36.24-9.54 35.28-73.43 35.28-73.43s-16.44-5.72-20.73-20.74-17.64-90.11-17.64-90.11-18.6-76.29-125.65-31.24z" class="H"/><g transform="matrix(.998236 -.05937 .05937 .998236 -346.163696 5.682402)"><path d="M654.32 1767.016c2.39 3.34 9.639 69.979 74.489 69.5l41.134 22.829a65.06 65.06 0 0 0 35.962-58.188v-5.147l-30.355-39.104s-14.331-73.951-22.441-87.06-32.189-19.791-32.189-19.791-32.88-55.3-57.67-65.789c-24.801-10.5-108.71 12.39-117.301 19.55-8.579 7.149-4.289 21.93 19.07 18.59 23.37-3.34 76.771-9.061 76.771-9.061l33.609 49.351s-46.96-18.83-60.79-17.4-67.71 28.61-71.039 41.96c-3.341 13.351 9.529 23.839 22.88 15.259s48.64-27.649 48.64-27.649l45.07 28.38s-38.141-12.28-46.131-12.75c-7.989-.48-44.339 35.519-46.479 44.33-2.149 8.819 10.24 19.79 18.35 15.019 8.109-4.76 32.9-31.229 32.9-31.229l33.62 20.269-36.24 9.061c-2.62.24-24.32 37.67-24.8 49.109-.47 11.45 19.08 14.541 25.04.481s11.679-25.51 11.679-25.51l26.221-5.011z" class="H"/><path d="M723.71 1778.467s-28.13-26.701-3.82-67.221l-6.19-21.109s-36.6 7.04-43.28 3.46c-6.67-3.57-24.641-30.11 50.5-43.54" class="B C D E F"/></g><g transform="matrix(.953327 -.30194 .30194 .953327 -755.762756 279.183197)"><path d="M977.806 1905.123l-.251.51-171.65-154.49s-41.96 36.24-67.71 114.44c0 0 193.554 260.932 229.794 289.542 36.23 28.61 106.826-11.091 124.946-33.022 20.819-36.64-6.75-83.82-6.75-83.82-40.311-75-106-129.52-106-129.52l-2.379-3.64z" class="G"/><path d="M805.905 1751.143l209.32 189.31" class="B C D E F"/><use href="#D" class="G"/></g><g transform="matrix(.899006 .437937 -.437937 .899006 846.783813 -360.007568)"><path d="M1148.729 1592.449c-76.39 30.09-127.49 246.72-174.729 325.93-14.647 36.33-26.663 108.763-36.471 148.155-22.489 90.324 104.319 96.187 149.221 65.186 18.12-21.931 98.219-196.45 98.219-196.45l33.62-120.601c8.765-30.54 40.988-111.294 41.072-134.422.403-111.256-110.932-87.798-110.932-87.798z" class="G"/><path d="M1218.589 1814.669s-26.61 137.38-96.27 252.26" class="B C D E F"/><g class="G"><path d="M1262.299 1660.018c0 43.333-35.129 78.462-78.462 78.462s-78.462-35.129-78.462-78.462 35.129-78.462 78.462-78.462 78.462 35.129 78.462 78.462zm-160.738 427.003c0 45.997-37.289 83.286-83.286 83.286s-83.286-37.289-83.286-83.286 37.289-83.286 83.286-83.286 83.286 37.289 83.286 83.286z"/></g></g><g transform="matrix(.942536 -.334105 .334105 .942536 -376.852051 615.304565)"><path d="M2188.93 1335.5c-.92 3.99 17.87 69.061-42.25 93.381l-21.011 70.967c-31.007 6.676-62.37-9.695-74.619-38.952l-8.473-20.238 30.513-67.517s-15.049-74.52-12.56-89.74c2.48-15.21 22.19-30.571 22.19-30.571s9.271-63.669 28.191-82.839c18.909-19.16 105.199-30.04 115.869-26.71 10.66 3.33 12.34 18.63-10.53 24.46-22.87 5.84-74.41 20.94-74.41 20.94l-12.219 58.45s36.21-35.341 49.54-39.301c13.33-3.949 73.499.591 81.679 11.661 8.189 11.07.29 25.669-15.32 22.839-15.62-2.83-55.51-6.99-55.51-6.99l-30.83 43.441s30.571-25.911 37.77-29.401c7.211-3.489 54.541 15.901 59.9 23.231 5.35 7.34-1.92 22.209-11.24 20.889-9.31-1.31-42.33-16.299-42.33-16.299l-23.33 31.559 36.95-5.449c2.52-.78 36.87 25.529 41.67 35.92 4.81 10.4-12.08 20.72-22.95 10-10.88-10.72-20.54-19.11-20.54-19.11l-26.15 5.379z" class="H"/><path d="M2129.171 1372.571s15.81-35.42-22.14-63.59l-2.33-21.87s36.509-7.469 41.319-13.319c4.801-5.86 11.281-37.24-63.299-20.961" class="B C D E F"/></g><g transform="matrix(.981983 -.188969 .188969 .981983 -243.78334 255.054108)"><path d="M2019.907 1859.562c8.57-12.99 11.643-8.705 19.393-27.695 38.15-93.45 105.317-370.045 105.317-370.045l-102.04-71.52-122.059 261.28s-38.843 66.489-50.25 119.016c-2.889 13.304 11.437-6.411 10.489 9.314-4.68 77.81 76.74 151.81 139.15 79.65z" class="G"/><path d="M2042.578 1390.301l-148.29 314.7" class="B C D E F"/><use href="#E" class="G"/></g><g transform="matrix(.942762 -.333465 .333465 .942762 -427.140015 608.148315)" class="G"><path d="M1711.181 1784.097l203.13 96.33c30.4 12.92 68.66 5.24 102.25-45.69 7.755-26.471 36.874-33.415 17.827-76.7-14.405-32.735-66.84-100.724-117.217-131.28l-232.67-129.68s-44.8-34.75-104.16-33.71c138.866 160.365-152.153 79.55-65.989 155.961 47.567 42.183 131.14 120.161 196.829 164.769"/><path d="M1666.745 1553.681c0 49.892-40.445 90.337-90.337 90.337s-90.337-40.445-90.337-90.337 40.445-90.337 90.337-90.337 90.337 40.445 90.337 90.337zm377.713 245.729c0 49.653-40.252 89.905-89.905 89.905s-89.905-40.252-89.905-89.905 40.252-89.905 89.905-89.905 89.905 40.252 89.905 89.905z"/></g><path fill="#ed6056" d="M1280.08 1338.218s5.15 13.761 11.08 33.521l3.42 11.809c9.26 26.4 40.29 86.691 127.41 70.531-5.23-22.569-16.26-84.621-16.26-84.621s-18.6-76.29-125.65-31.239z"/><g transform="matrix(.99801 -.063064 .063064 .99801 -81.700195 74.182007)"><path d="M1229.24 1256.48s33.38 164.02 116.34 178.32c82.97 14.311 205.029-13.339 109.67-312.779 0 0-226.96-66.74-226.01 134.459z" class="H"/><path d="M1238.78 1327.059s-46.731-30.51-83.92-123.97 20.98-92.5 20.98-92.5-45.781-97.269 120.15-116.339 208.85-35.281 200.26 21.929c0 0 42.919 12.401 39.099 64.851-3.81 52.45-172.359 86.37-282.29 83.2 0 0 30.54 149.489-14.279 162.829z" class="L"/><path d="M1268.33 1261.75s-32.9-31.95-65.79-9.54c-32.9 22.41-13.83 125.871 72.47 83.44l-6.68-73.9z" class="H"/><path d="M1231.401 1158.29l21.66 5.939s26.009 136.141 49.859 165.221c23.84 29.09 186.96-35.781 186.96-35.781s13.781 79.66 5.681 106.84c-8.11 27.181-122.071 83.921-189.771 20.981-67.71-62.94-74.389-263.2-74.389-263.2z" class="L"/><path d="M1400.89 1220.26s19.54 49.12 31.94 61.511c0 0-11.44 18.119-37.19 13.349" class="B C D E F"/><path fill="#fff" d="M1371.88 1351.7l89.54-21.089c4.36 25.93-46.13 65.339-89.54 21.089z"/><path d="M1251.08 1317.96s-20.589-47.61-39.429-47.37c-18.83.24 12.159 52.931 39.429 47.37z" class="L"/><g class="C D F B"><path d="M1134.43 1120.39s22.881-21.689 47.2-7.619" class="E"/><path stroke="#fff" d="M1513.24 1087.73s-33.37 38.14-121.58 47.68"/></g></g><g transform="matrix(.99801 -.063064 .063064 .99801 -82.204704 66.197929)" class="C D E F B"><path d="M1350.571 1234.35s10.538 8.97 5.549 17.61m81.25-32.39s9.06 3.371 4.771 15.7"/></g><g transform="matrix(.99801 -.063064 .063064 .99801 -82.456902 62.206871)" class="L"><path d="M1309.34 1216.93l62.939-14.069c14.541-2.62.24-12.871-15.26-13.351s-54.118 22.41-47.679 27.421zm162.13-28.97l-55.61 6.83c-12.68 2.18-3.78-12.12 8.82-17.53 12.6-5.42 50.69 3.889 46.79 10.7z"/></g><g class="M"><path d="M1940.08 1717.767l565.64-102.24-.72 28.45-565.63 102.24.71-28.45z"/><path d="M2235.83 1281.137l507.6-91.75-127.79 434.59-507.61 91.75 127.8-434.59z"/></g><path fill="#fff" d="M2379.9 1430.287l110.64-20-18.99 64.55-110.63 20 18.98-64.55z"/><path d="M1940.08 1717.767l176.74-31.949 119.01-404.681 353.42-63.88m-299.18 465.57l325.57-58.85 74.72-254.11" class="B C D E F"/></g></svg>