<svg xmlns="http://www.w3.org/2000/svg" viewBox="0 0 64 64"><g class="color000000 svgShape" data-name="Layer 22"><path fill="#e855de" d="M29.04 32 17.39 59.2l33.44-34.29H39.27L52.06 3.59H32l-17.74 27.8 14.78.61z" class="color78b9eb svgShape"/><path fill="#f000e0" d="M16.55 61.5a1.51 1.51 0 0 1-1.36-2.13l12.13-26H14A1.51 1.51 0 0 1 12.7 31L30.53 3.19a1.52 1.52 0 0 1 1.27-.69H52a1.5 1.5 0 0 1 1.27 2.29L41.58 23.66h9.81a1.51 1.51 0 0 1 1.06 2.56L17.61 61.06a1.51 1.51 0 0 1-1.06.44Zm.16-31.16h13A1.5 1.5 0 0 1 31 32.47l-9.5 20.46 26.27-26.27h-8.89a1.51 1.51 0 0 1-1.27-2.29L49.31 5.5H32.62Z" class="color006df0 svgShape"/></g></svg>