<svg xmlns="http://www.w3.org/2000/svg" enable-background="new 0 0 2000 2000" viewBox="-68.1 -57.842 2136.2 2115.71"><path fill="#dfe6ff" fill-rule="evenodd" d="M1000.2,1961.7c493.5,0,896.3-25.8,896.3-57c0-31.1-402.7-57-896.3-57c-493.9,0-896.6,25.8-896.6,57    C103.5,1935.9,506.3,1961.7,1000.2,1961.7L1000.2,1961.7z" clip-rule="evenodd"/><polygon fill="#0643a3" fill-rule="evenodd" points="179.9 396.8 179.9 420.5 241.6 423 249.9 411.3 589.7 481.3 999.3 565.9 1408.8 481.3 1750.1 411.1 1758.4 423 1820.1 420.2 1820.1 396.8 1816.9 396.6 1408.8 312.3 999.3 228 589.7 312.3" clip-rule="evenodd"/><polygon fill="#2c7efe" fill-rule="evenodd" points="999.3 251.4 1408.8 335.9 1818.6 420.5 1408.8 505 999.3 589.3 589.7 505 179.9 420.5 589.7 335.9" clip-rule="evenodd"/><path fill="#0643a3" fill-rule="evenodd" d="M1009.7,343.8v0.4c139,3,273.8,23.2,424.5,84.7l38.1,363.6h-5.1c-160.5-52.8-306.1-70.7-456-73.7v-0.2     c-4,0-7.9,0-11.9,0c-4,0-7.9,0-11.9,0v0.2c-149.9,3-295.5,20.9-456,73.7h-5.1L564.3,429c150.7-61.5,285.5-81.7,424.5-84.7v-0.4     c3.4,0.2,7,0.2,10.4,0.2C1002.7,344,1006.1,344,1009.7,343.8L1009.7,343.8z" clip-rule="evenodd"/><path fill="#ea718b" fill-rule="evenodd" d="M1548.9,340l-190.7-38.1c62.8,4.9,125.4,9.6,188.2,14.3c23.2,1.9,24.7,13.6,24.7,25.1l1.5,294.6h-19.2     L1548.9,340z" clip-rule="evenodd"/><path fill="#ea718b" fill-rule="evenodd" d="M1562.3,718.5c-17.5-17.7-29-47.5-29-81.3c0-34.1,11.7-64.1,29.6-81.7c17.5,17.7,29,47.5,29,81.1     C1591.9,670.8,1580.2,700.8,1562.3,718.5L1562.3,718.5z" clip-rule="evenodd"/><path fill="#be96f8" fill-rule="evenodd" d="M1555.3,545h14.7c6.4,0,11.7,5.3,11.7,11.7l0,0c0,6.6-5.3,11.7-11.7,11.7h-14.7c-6.4,0-11.7-5.1-11.7-11.7     l0,0C1543.6,550.3,1548.9,545,1555.3,545L1555.3,545z" clip-rule="evenodd"/><path fill="#feb542" fill-rule="evenodd" d="M423.3,1681.5h1035.4c22.9,0,41.9,17.7,41.9,39.1v158.2c0,21.4-19,39.1-41.9,39.1H423.3      c-19.2,0-35.5-12.1-40.4-28.5c2.2,0.4,4.4,0.7,6.6,0.7h1044c19,0,34.6-14.3,34.6-32v-116.7c0-17.4-15.7-32-34.6-32h-1044      c-2.2,0-4.4,0.2-6.6,0.7C387.7,1693.7,404.1,1681.5,423.3,1681.5L423.3,1681.5z" clip-rule="evenodd"/><path fill="#fff" fill-rule="evenodd" d="M397.4,1709.3h1036.1c19,0,34.6,14.6,34.6,32V1858c0,17.7-15.7,32-34.6,32H397.4V1709.3z" clip-rule="evenodd"/><path fill="#dfe6ff" fill-rule="evenodd" d="M397.4,1845.7H1436c3.8,0,6.8,1.8,6.8,4l0,0c0,2-3.1,4-6.8,4H397.4V1845.7z" clip-rule="evenodd"/><path fill="#dfe6ff" fill-rule="evenodd" d="M397.4,1865.5H1436c3.8,0,6.8,1.8,6.8,4l0,0c0,2.2-3.1,4-6.8,4H397.4V1865.5z" clip-rule="evenodd"/><path fill="#dfe6ff" fill-rule="evenodd" d="M397.4,1784.6H1436c3.8,0,6.8,1.8,6.8,4l0,0c0,2.2-3.1,4-6.8,4H397.4V1784.6z" clip-rule="evenodd"/><path fill="#dfe6ff" fill-rule="evenodd" d="M397.4,1804.4H1436c3.8,0,6.8,1.8,6.8,4l0,0c0,2.2-3.1,4-6.8,4H397.4V1804.4z" clip-rule="evenodd"/><path fill="#dfe6ff" fill-rule="evenodd" d="M397.4,1825.2H1436c3.8,0,6.8,1.8,6.8,4l0,0c0,2.2-3.1,4-6.8,4H397.4V1825.2z" clip-rule="evenodd"/><path fill="#dfe6ff" fill-rule="evenodd" d="M397.4,1725.9H1436c3.8,0,6.8,1.8,6.8,4l0,0c0,2.2-3.1,4-6.8,4H397.4V1725.9z" clip-rule="evenodd"/><path fill="#dfe6ff" fill-rule="evenodd" d="M397.4,1745.7H1436c3.8,0,6.8,1.8,6.8,4l0,0c0,2.2-3.1,4-6.8,4H397.4V1745.7z" clip-rule="evenodd"/><path fill="#dfe6ff" fill-rule="evenodd" d="M397.4,1766.7H1436c3.8,0,6.8,1.8,6.8,4l0,0c0,2.2-3.1,4-6.8,4H397.4V1766.7z" clip-rule="evenodd"/><polygon fill="#6799fe" fill-rule="evenodd" points="626.5 1705.4 698 1705.4 698 1813 685.8 1806.2 662.2 1793.4 638.8 1806.2 626.5 1813" clip-rule="evenodd"/><path fill="#ea718b" fill-rule="evenodd" d="M1576.1,1448.3H525.6c-23.4,0-42.6,17.4-42.6,38.8v158.4c0,21.4,19.2,38.8,42.6,38.8h1050.4      c19.4,0,36-12.1,41-28.5c-2.2,0.4-4.4,0.7-6.8,0.7H551c-19.2,0-35.1-14.3-35.1-32v-116.5c0-17.7,15.9-32,35.1-32h1059.3      c2.4,0,4.6,0.2,6.8,0.4C1612,1460.2,1595.5,1448.3,1576.1,1448.3L1576.1,1448.3z" clip-rule="evenodd"/><path fill="#fff" fill-rule="evenodd" d="M1602.3,1476.1H551c-19.2,0-35.1,14.3-35.1,32v116.5c0,17.7,15.9,32,35.1,32h1051.3V1476.1z" clip-rule="evenodd"/><path fill="#dfe6ff" fill-rule="evenodd" d="M1602.3,1612.3H548.6c-3.8,0-6.8,1.8-6.8,4l0,0c0,2.2,3.1,4,6.8,4h1053.7V1612.3z" clip-rule="evenodd"/><path fill="#dfe6ff" fill-rule="evenodd" d="M1602.3,1632.1H548.6c-3.8,0-6.8,1.8-6.8,4l0,0c0,2.2,3.1,4,6.8,4h1053.7V1632.1z" clip-rule="evenodd"/><path fill="#dfe6ff" fill-rule="evenodd" d="M1602.3,1551.1H548.6c-3.8,0-6.8,1.8-6.8,4l0,0c0,2.2,3.1,4,6.8,4h1053.7V1551.1z" clip-rule="evenodd"/><path fill="#dfe6ff" fill-rule="evenodd" d="M1602.3,1571H548.6c-3.8,0-6.8,1.8-6.8,4l0,0c0,2.2,3.1,4,6.8,4h1053.7V1571z" clip-rule="evenodd"/><path fill="#dfe6ff" fill-rule="evenodd" d="M1602.3,1592H548.6c-3.8,0-6.8,1.8-6.8,4l0,0c0,2.2,3.1,4,6.8,4h1053.7V1592z" clip-rule="evenodd"/><path fill="#dfe6ff" fill-rule="evenodd" d="M1602.3,1492.7H548.6c-3.8,0-6.8,1.8-6.8,4l0,0c0,2,3.1,4,6.8,4h1053.7V1492.7z" clip-rule="evenodd"/><path fill="#dfe6ff" fill-rule="evenodd" d="M1602.3,1512.5H548.6c-3.8,0-6.8,1.8-6.8,4l0,0c0,2.2,3.1,4,6.8,4h1053.7V1512.5z" clip-rule="evenodd"/><path fill="#dfe6ff" fill-rule="evenodd" d="M1602.3,1533.3H548.6c-3.8,0-6.8,1.8-6.8,4l0,0c0,2.2,3.1,4,6.8,4h1053.7V1533.3z" clip-rule="evenodd"/><polygon fill="#2c7efe" fill-rule="evenodd" points="1370 1472.1 1297.4 1472.1 1297.4 1579.8 1309.8 1573 1333.6 1560 1357.4 1573 1370 1579.8" clip-rule="evenodd"/><g><path fill="#0ebaa0" fill-rule="evenodd" d="M1508.1,1212.8H457.6c-23.4,0-42.6,17.4-42.6,38.8v158.4c0,21.4,19.2,38.8,42.6,38.8h1050.4      c19.4,0,36-12.1,41-28.5c-2.2,0.4-4.4,0.7-6.8,0.7H483c-19.2,0-35.1-14.3-35.1-32v-116.5c0-17.7,15.9-32,35.1-32h1059.3      c2.4,0,4.6,0.2,6.8,0.4C1544,1224.7,1527.5,1212.8,1508.1,1212.8L1508.1,1212.8z" clip-rule="evenodd"/><path fill="#fff" fill-rule="evenodd" d="M1534.3,1240.6H483c-19.2,0-35.1,14.3-35.1,32v116.5c0,17.7,15.9,32,35.1,32h1051.3V1240.6z" clip-rule="evenodd"/><path fill="#dfe6ff" fill-rule="evenodd" d="M1534.3,1376.7H480.6c-3.8,0-6.8,1.8-6.8,4l0,0c0,2.2,3.1,4,6.8,4h1053.7V1376.7z" clip-rule="evenodd"/><path fill="#dfe6ff" fill-rule="evenodd" d="M1534.3,1396.6H480.6c-3.8,0-6.8,1.8-6.8,4l0,0c0,2.2,3.1,4,6.8,4h1053.7V1396.6z" clip-rule="evenodd"/><path fill="#dfe6ff" fill-rule="evenodd" d="M1534.3,1315.6H480.6c-3.8,0-6.8,1.8-6.8,4l0,0c0,2.2,3.1,4,6.8,4h1053.7V1315.6z" clip-rule="evenodd"/><path fill="#dfe6ff" fill-rule="evenodd" d="M1534.3,1335.5H480.6c-3.8,0-6.8,1.8-6.8,4l0,0c0,2.2,3.1,4,6.8,4h1053.7V1335.5z" clip-rule="evenodd"/><path fill="#dfe6ff" fill-rule="evenodd" d="M1534.3,1356.4H480.6c-3.8,0-6.8,1.8-6.8,4l0,0c0,2.2,3.1,4,6.8,4h1053.7V1356.4z" clip-rule="evenodd"/><path fill="#dfe6ff" fill-rule="evenodd" d="M1534.3,1257.2H480.6c-3.8,0-6.8,1.8-6.8,4l0,0c0,2,3.1,4,6.8,4h1053.7V1257.2z" clip-rule="evenodd"/><path fill="#dfe6ff" fill-rule="evenodd" d="M1534.3,1277H480.6c-3.8,0-6.8,1.8-6.8,4l0,0c0,2.2,3.1,4,6.8,4h1053.7V1277z" clip-rule="evenodd"/><path fill="#dfe6ff" fill-rule="evenodd" d="M1534.3,1297.8H480.6c-3.8,0-6.8,1.8-6.8,4l0,0c0,2.2,3.1,4,6.8,4h1053.7V1297.8z" clip-rule="evenodd"/><polygon fill="#ffb044" fill-rule="evenodd" points="1302 1236.6 1229.4 1236.6 1229.4 1344.3 1241.8 1337.5 1265.6 1324.5 1289.4 1337.5 1302 1344.3" clip-rule="evenodd"/></g><g><path fill="#0ebaa0" fill-rule="evenodd" d="M1652.2,1696.4c20.6-10,51-46.8,56.4-81.2c1.7-10.5,7.4-46.9-13.8-49.7       c-10.9,6.8-14.1,35.2-32.6,20.2c-6.8-9.9,26.2-14.8,26.4-26.5c-1.9-15.8-20-39.9-38.3-39.1c-6.5,4.7-8,50.2-18.5,49.6       c-9.7-3,6.2-28.1,9.3-42.1c1.6-14.5-21.3-21-34.8-26.4c6,17.6,7.5,33.1,1,34.1c-15.8,0.5,4.6-25.7-1-34.1       c-19.6-7.8-21.6-17.7-33.4-14.8c-9.5,11.3-13.6,16.7-15.8,30.6c-4,30.2,43.1,39.7,36.9,48c-8.3,4.3-30.1-23.8-35.4-21.6       c-11.5,2.8-15.8,26.9-8.5,34.3c10.8,11,51.1,17.4,49.7,25.6c-1.7,10.5-44.9-17.1-59-5.5c-10.6,10.7-9.4,32.4-6.1,46.7       c0.6,20.2,66.4-8.7,69.3-2c-2.9,18.9-72.7,10.3-59.8,37.8c8.2,14.1,23.5,19.9,38.9,24.6       C1606.5,1712.2,1637.7,1704,1652.2,1696.4L1652.2,1696.4z M1570.1,1610.1c2.2-1.2,5.1-0.2,6.5,2.3c1.3,2.5,0.6,5.5-1.6,6.7       c-2.2,1.2-5.2,0.2-6.5-2.3S1567.9,1611.3,1570.1,1610.1L1570.1,1610.1z M1629.5,1598.7c-1.8,7.5,8.2,2.2,10-1.6       c3.2-4.2,6.6-11.1,3.4-16.1C1636.2,1580.7,1632.1,1589.3,1629.5,1598.7L1629.5,1598.7z M1647.8,1625.6       c-5.3-10,14.7-21.8,20.2-18.8C1671.9,1611,1653.3,1631.6,1647.8,1625.6L1647.8,1625.6z M1608.5,1662.8c-3.8,1.9,2,4.2,4.3,3.6       c2.9-0.2,7.1-1.2,7.9-4.3C1618.4,1659.2,1613.3,1660.6,1608.5,1662.8L1608.5,1662.8z M1583.5,1569c4.6-1.2,10,2.6,13,5.9       c-1,3.4-6,1.6-9.2,0.7C1583.7,1574.8,1580.7,1570.9,1583.5,1569L1583.5,1569z" clip-rule="evenodd"/><path fill="#16888c" d="M1664.4,1768.9c-0.3-0.3-0.5-0.7-0.6-1.1c-13.1-91-40.4-173.7-83.6-253         c-0.5-0.9-0.2-2.1,0.8-2.6c0.9-0.5,2.1-0.2,2.6,0.8c22.7,41.7,41.5,85.6,55.7,130.4c12.6,39.7,22.1,81.3,28.3,123.9         c0.2,1-0.6,2-1.6,2.2C1665.4,1769.6,1664.8,1769.3,1664.4,1768.9z"/><path fill="#16888c" d="M1610.1,1575.5c-0.7-0.7-0.8-1.8-0.1-2.6c11.8-13.7,15.6-29.6,11.3-47.4         c-0.2-1,0.4-2.1,1.4-2.3c1-0.2,2.1,0.4,2.3,1.4c2.2,9.1,2.4,17.9,0.6,26.1c-1.9,8.9-6.2,17.2-12.7,24.7         C1612.2,1576.2,1611,1576.3,1610.1,1575.5C1610.1,1575.6,1610.1,1575.5,1610.1,1575.5z"/><path fill="#16888c" d="M1639.7,1656.3c-0.2-0.2-0.4-0.4-0.5-0.7c-0.4-1,0.2-2.1,1.2-2.4         c30.1-10.6,48.6-33.8,53.7-67.1c0.2-1,1.1-1.8,2.2-1.6c1,0.2,1.8,1.1,1.6,2.2c-5.3,34.8-24.7,59.1-56.2,70.2         C1640.9,1657,1640.2,1656.8,1639.7,1656.3z"/><path fill="#16888c" d="M1551.2,1623.9c-0.6-0.5-0.7-1.4-0.4-2.1c0.4-1,1.6-1.4,2.5-1         c24.6,10.9,46.2,9.6,74.6-4.7c0.9-0.5,2.1-0.1,2.6,0.9c0.5,0.9,0.1,2.1-0.9,2.6c-14.2,7.1-26.2,11-37.8,12         c-13.2,1.2-26.3-1.2-40-7.3C1551.6,1624.2,1551.4,1624.1,1551.2,1623.9z"/><path fill="#16888c" d="M1561.7,1679.7c-0.5-0.5-0.7-1.4-0.4-2.1c0.4-1,1.6-1.4,2.5-1         c42.3,18.4,66.3,9.2,82.5-0.9c0.9-0.6,2.1-0.3,2.6,0.6c0.6,0.9,0.3,2.1-0.6,2.6c-17,10.6-42.1,20.3-86.1,1.2         C1562.1,1680,1561.9,1679.8,1561.7,1679.7z"/><path fill="#24d1b3" fill-rule="evenodd" d="M1703.2,1706.3c22,6.2,69.2-1.1,96-23.4c8.2-6.7,36.7-30.2,22.7-46.3       c-12.6-2.2-33.9,17-37.9-6.5c1.5-11.9,29.4,6.3,37.3-2.4c9-13.1,11.5-43.1-2.8-54.7c-8-0.8-39.3,32.2-46.8,24.8       c-5.2-8.7,23.3-16.9,34.9-25.3c10.8-9.7-2-29.8-8.5-42.8c-7.2,17.2-16.4,29.8-21.9,26.2c-12.2-10.1,20.5-16.2,21.9-26.2       c-9.5-18.9-4.4-27.5-15.2-33.2c-14.6,2.1-21.3,3.5-32.1,12.4c-23,20,5.9,58.3-4.2,60.4c-9-2.3-6.8-37.9-12.2-39.6       c-10.5-5.5-29.6,9.6-29.1,20.1c0.8,15.4,26.7,46.8,20.1,52.1c-8.2,6.7-22.3-42.6-40.5-43.2c-15,0.9-28.5,18-35.5,30.8       c-12.9,15.5,55.4,37.5,53.2,44.5c-14.7,12.2-61.2-40.5-69.8-11.4c-3.2,16,4.4,30.5,12.8,44.2       C1658.5,1687.8,1687.4,1702.3,1703.2,1706.3L1703.2,1706.3z M1699,1587.3c2.5,0.6,4,3.3,3.4,6c-0.7,2.8-3.2,4.5-5.7,3.9       c-2.5-0.6-4-3.3-3.4-6C1694,1588.5,1696.5,1586.7,1699,1587.3L1699,1587.3z M1751.1,1618.1c-6.4,4.4,4.7,7.1,8.6,5.4       c5.2-1.1,12.4-3.9,13.2-9.8C1768,1609.1,1759.2,1612.7,1751.1,1618.1L1751.1,1618.1z M1746.8,1650.3c2.7-11,25.5-6.5,27.6-0.7       C1774.7,1655.4,1747.1,1658.5,1746.8,1650.3L1746.8,1650.3z M1692.8,1652.2c-4.1-1.1-1.3,4.5,0.8,5.5c2.3,1.8,6.1,3.7,8.8,2       C1702.6,1656,1697.9,1653.7,1692.8,1652.2L1692.8,1652.2z M1736.3,1565.3c4.3,2.2,5.7,8.5,5.8,13c-3,1.9-5.5-2.8-7.3-5.6       C1732.6,1569.9,1733,1565,1736.3,1565.3L1736.3,1565.3z" clip-rule="evenodd"/><g><path fill="#16888c" d="M1664.9,1769.9c-0.6-0.6-0.8-1.6-0.3-2.4c50.5-76.8,85-156.9,105.2-244.8         c0.2-1,1.3-1.7,2.3-1.4c1,0.2,1.7,1.3,1.4,2.3c-10.7,46.3-25.7,91.6-44.8,134.5c-16.9,38.1-37.4,75.6-61,111.5         c-0.6,0.9-1.8,1.1-2.7,0.5C1665,1770.1,1664.9,1770,1664.9,1769.9z"/><path fill="#16888c" d="M1752.4,1589.1c-0.3-0.3-0.5-0.7-0.6-1.1c-0.1-1,0.6-2,1.6-2.2         c17.9-2.4,31.3-11.9,40-28c0.5-0.9,1.7-1.3,2.6-0.8c0.9,0.5,1.3,1.7,0.8,2.6c-9.2,17.3-23.6,27.4-42.8,30         C1753.4,1589.7,1752.8,1589.5,1752.4,1589.1z"/><path fill="#16888c" d="M1721,1669.1c-0.5-0.5-0.7-1.3-0.4-2.1c0.4-1,1.5-1.5,2.5-1.1         c29.5,12,58.8,7,84.7-14.6c0.8-0.7,2-0.6,2.7,0.2c0.7,0.8,0.6,2-0.2,2.7c-27,22.5-57.7,27.8-88.6,15.2         C1721.4,1669.5,1721.2,1669.3,1721,1669.1z"/><path fill="#16888c" d="M1693.1,1611c-6.9-6.8-12.6-15.2-17.2-25.2c-0.4-1,0-2.1,0.9-2.5c1-0.4,2.1,0,2.5,0.9         c11.1,24.5,28.2,37.8,58.9,45.9c1,0.3,1.6,1.3,1.4,2.3c-0.3,1-1.3,1.6-2.3,1.4c-15.4-4.1-26.9-9.2-36.3-16.1         C1698.2,1615.7,1695.6,1613.4,1693.1,1611z"/><path fill="#16888c" d="M1670.7,1670.1c-8.3-8.2-16.4-19.6-23.9-35.6c-0.4-1,0-2.1,0.9-2.5         c1-0.4,2.1,0,2.5,0.9c19.4,41.9,43.5,50.8,62.4,54c1,0.2,1.7,1.2,1.6,2.2c-0.2,1-1.2,1.7-2.2,1.6         C1699.5,1688.5,1684.9,1684,1670.7,1670.1z"/></g><polygon fill="#dead73" points="1774.4 1747.9 1736.4 1911.2 1624.5 1911.2 1586.6 1747.9"/><path fill="#8b5e3c" d="M1766.9,1774.9H1594c-10.1,0-18.3-8.2-18.3-18.3l0,0c0-10.1,8.2-18.3,18.3-18.3h172.9     c10.1,0,18.3,8.2,18.3,18.3l0,0C1785.2,1766.7,1777,1774.9,1766.9,1774.9z"/><path fill="#dead73" d="M1766.9,1772H1594c-10.1,0-18.3-8.2-18.3-18.3l0,0c0-10.1,8.2-18.3,18.3-18.3h172.9     c10.1,0,18.3,8.2,18.3,18.3l0,0C1785.2,1763.8,1777,1772,1766.9,1772z"/></g><g><path fill="#84b2fe" d="M1302,1081.9c-1.7,0-3-1.3-3-3V851.1c0-1.7,1.3-3,3-3s3,1.3,3,3v227.8       C1305,1080.6,1303.7,1081.9,1302,1081.9z"/><path fill="#84b2fe" d="M570,1081.9c-1.7,0-3-1.3-3-3V851.1c0-1.7,1.3-3,3-3c1.7,0,3,1.3,3,3v227.8       C573,1080.6,571.7,1081.9,570,1081.9z"/><path fill="#84b2fe" d="M799,1175.8c-1.7,0-3-1.3-3-3V945c0-1.7,1.3-3,3-3c1.7,0,3,1.3,3,3v227.8       C802,1174.4,800.7,1175.8,799,1175.8z"/><path fill="#84b2fe" d="M920.1,1081.9c-1.7,0-3-1.7-3-3.8V793.3c0-2.1,1.3-3.8,3-3.8c1.7,0,3,1.7,3,3.8v284.8       C923.1,1080.2,921.8,1081.9,920.1,1081.9z"/><path fill="#84b2fe" d="M1188,1081.9c-1.7,0-3-0.8-3-1.8V943.8c0-1,1.3-1.8,3-1.8s3,0.8,3,1.8v136.3       C1191,1081.1,1189.7,1081.9,1188,1081.9z"/><path fill="#84b2fe" d="M1390,1151.9c-1.7,0-3-0.8-3-1.8v-136.3c0-1,1.3-1.8,3-1.8s3,0.8,3,1.8v136.3       C1393,1151.1,1391.7,1151.9,1390,1151.9z"/><path fill="#84b2fe" d="M662.2,1151.9c-1.7,0-3-0.8-3-1.8v-136.3c0-1,1.3-1.8,3-1.8c1.7,0,3,0.8,3,1.8v136.3       C665.2,1151.1,663.9,1151.9,662.2,1151.9z"/><path fill="#84b2fe" d="M1059.1,1151.9c-1.7,0-3-0.8-3-1.8v-136.3c0-1,1.3-1.8,3-1.8c1.7,0,3,0.8,3,1.8v136.3       C1062.1,1151.1,1060.8,1151.9,1059.1,1151.9z"/></g><g><path fill="#153663" fill-rule="evenodd" d="M195,1878.1l-24.9-30.2c-33-16.1-64.7-73.8-93.3-34.8c22,38.7,59.3,73.3,89.7,100.1     C185.5,1904.3,190.9,1893.5,195,1878.1L195,1878.1z" clip-rule="evenodd"/><path fill="#ffaa81" fill-rule="evenodd" d="M194,1827.8l24.9,31.1l-23.8,19.2c-12-0.5-24.6-14.1-24.9-30.2L194,1827.8z" clip-rule="evenodd"/><path fill="#153663" fill-rule="evenodd" d="M629.3,1710.2l-82.3,30.9c-27.7-21.4-55.3-42.6-83.2-63.8c-33.5-28.8-73.1-25.9-106.5-4.1l-177.3,159.2     l35.8,39.5L399,1769.4l59.4,55.7c-37.1-0.9-75.2-5.7-111.2-2.4c-45.2,1-53.4,96.3,0,97.4c99.3-1.2,266.5,3.8,283.9-3.2     c55.4-22.5,71.4-125.8,62.9-161.2L629.3,1710.2z" clip-rule="evenodd"/><polygon fill="#ff9866" fill-rule="evenodd" points="546.2 1576.3 506.5 1569.3 497.9 1617 444.5 1745.7 467.6 1754.1 533.3 1623.9" clip-rule="evenodd"/><path fill="#2c7efe" fill-rule="evenodd" d="M546.9,1741.1c45,33,98.2,9.9,147.2,14.7l19.4-178.2c0.5,14.6,1.1,29.3,1.7,43.7c16.1,10.2,32.1,7.5,42,3.1     l2.1-112.7c-0.4-8.3-4.3-23.8-17-29.7l-97.4-47.9l-98.3,32.5c-10.9,4.8-22.1,16.7-25.3,29.2c-7.2,32.8-13.7,62.3-20.9,95.3     c11,7.4,27.1,11.4,44.5,5.8l5.2-29.8L546.9,1741.1z" clip-rule="evenodd"/><path fill="#ff9866" fill-rule="evenodd" d="M610.8,1421.5l43.3-10.9l8.5,37.5c-15.2,21.2-32.6,25.6-45.5,18.6L610.8,1421.5z" clip-rule="evenodd"/><path fill="#ffaa81" fill-rule="evenodd" d="M635.8,1317.6c-29.1,10.3-58.1,20.7-87.3,31c-1.2,20.7,32.2,90,55,100.1c28.4,12.7,56-17.6,55.8-42.2     C660.3,1383.6,649.3,1332,635.8,1317.6L635.8,1317.6z" clip-rule="evenodd"/><path fill="#060352" fill-rule="evenodd" d="M617.3,1348.3c-27.8-13.1-41.1,25.6-57.9,28.8c-15.6-2.6-43.2-21.4-41.5-55.6     c-0.4-19.8,28.9-10.2,42.1-17.4c9.5-7.4,9-22.8,28.6-22l25.6,6.5c5.7-9,25.7,4.3,30.8,11.4c19.1,18.7,10.2,53.1,12.4,81.6     C645.6,1386.2,622.4,1348.7,617.3,1348.3L617.3,1348.3z" clip-rule="evenodd"/><path fill="#ffaa81" fill-rule="evenodd" d="M643.9,1376.3c-17.9,3.6-20.8-3.4-16.7-18.4c0.2-6.5,4.4-13.7,11.7-10.1     C644.8,1352.1,644.8,1368.4,643.9,1376.3L643.9,1376.3z" clip-rule="evenodd"/><path fill="#ff9866" fill-rule="evenodd" d="M466.5,1759.4c-2.2,10.1,17.1,27.8,9.7,31.1c-7.3,2.9-13.9-14.6-16.7-13.4c-11.9,1.9-10.6,35.6-20.6,36     c-24.6,1.3-25.8-40.2,6.5-68.3l18.5,3.9C466,1749.4,468.5,1747.7,466.5,1759.4L466.5,1759.4z" clip-rule="evenodd"/><path fill="#ff9866" fill-rule="evenodd" d="M754.5,1625.4l-0.3,37c-0.4,10-5.6,16.2-18.9,15L593,1657.4l2.2-23.6l121.5,4.3l0.2-15.7     C731,1630.6,745,1628.9,754.5,1625.4L754.5,1625.4z" clip-rule="evenodd"/><path fill="#ff9866" fill-rule="evenodd" d="M592.5,1632.1c-9.8-3.5-14.4-29.4-21-25c-6.5,4.9,4.8,19.8,2.3,21.5c-8.1,8.9-35.9-10.1-41.5-2     c-14.3,20.2,20.2,43.3,61.3,31l6.8-17.7C600.6,1637.9,603.4,1636.6,592.5,1632.1L592.5,1632.1z" clip-rule="evenodd"/><path fill="#62cbec" fill-rule="evenodd" d="M366.6,1685.5c30.8,1.4,61.6,2.7,92.3,4.1c30.8,1.4,61.3,2.7,91.9,3.9c2,0.1,4.4,2,4.6,4.2     c4.5,22.2,8.8,44.3,13,66.1c4.3,21.6,8.5,43.2,12.7,64.5c0.5,2.2-0.9,3.8-3.1,3.8c-29.7-1.1-59.6-2.3-89.5-3.4     c-29.9-1.1-59.8-2.3-89.9-3.4c-2.2-0.1-4.4-1.8-4.8-4.1c-4.9-21.5-9.8-43.1-14.9-65.1c-5.1-22-10.1-44.2-15.4-66.6     C363,1687.2,364.3,1685.4,366.6,1685.5L366.6,1685.5z" clip-rule="evenodd"/></g><g><path fill="#84b2fe" d="M287.9,965c105.1,0,190.4,62.4,190.4,138.8c0,39.3-22.5,74.7-58.4,100l42.1,91L335.7,1238      c-15.2,3.1-31.2,4.5-47.8,4.5c-105.1,0-190.2-62.1-190.2-138.8C97.8,1027.4,182.9,965,287.9,965L287.9,965z"/><path fill="#fff" d="M302.5,965c105.1,0,190.4,62.4,190.4,138.8c0,39.3-22.5,74.7-58.4,100l42.1,91L350.2,1238      c-15.2,3.1-31.2,4.5-47.8,4.5c-105.1,0-190.2-62.1-190.2-138.8C112.3,1027.4,197.4,965,302.5,965L302.5,965z"/><path fill="#fefe1e" fill-rule="evenodd" d="M295.6,1005.9c55.1-3.8,103,37.9,107,93c3.8,55.3-37.9,103.2-93,107c-55.3,4-103.2-37.7-107-93      C198.6,1057.8,240.3,1009.9,295.6,1005.9L295.6,1005.9z" clip-rule="evenodd"/><path fill="#fe9f0e" fill-rule="evenodd" d="M296,1012.7c51.5-3.6,96.2,35.3,99.8,86.8c3.6,51.3-35.3,96-86.8,99.6c-51.5,3.6-96-35.1-99.6-86.6      C205.8,1061,244.5,1016.4,296,1012.7L296,1012.7z" clip-rule="evenodd"/><path fill="#fecb14" fill-rule="evenodd" d="M296.4,1019c49.7-3.4,93,34.1,96.4,83.8c3.6,49.9-34.1,93-83.8,96.4c-49.7,3.6-92.8-34.1-96.4-83.8      C209.2,1065.6,246.7,1022.6,296.4,1019L296.4,1019z" clip-rule="evenodd"/><path fill="#fe7509" fill-rule="evenodd" d="M344.5,1133.8c0.2,4.8-0.4,9.2-2,13c-1.6,3.8-4,7.2-7.2,10c-3.2,2.6-7,5-11.6,6.6c-1.8,0.6-3.4,1-5.2,1.4      l0.4,6.2c0.4,3.6-2.4,6.8-6,7l0,0c-3.8,0.2-6.8-2.6-7.2-6.2l-0.4-5.2c-2.4,0-4.8,0-7-0.2c-3.2-0.4-6-0.8-8.6-1.4      c-2.6-0.6-4.6-1.2-6.4-2c-1.8-0.8-3.2-1.4-4-2c-0.8-0.6-1.6-1.6-2-2.8c-0.4-1.2-0.8-2.8-0.8-5c-0.2-1.4-0.2-2.4,0-3.4      c0-0.8,0.2-1.6,0.2-2.2c0.2-0.6,0.6-1,1-1.2c0.4-0.2,0.8-0.4,1.2-0.4c0.8-0.2,2,0.2,3.6,1c1.6,1,3.6,1.8,6,2.8      c2.4,0.8,5.2,1.6,8.2,2.4c2.4,0.6,5,0.8,7.8,0.8l-2.4-32.9l-1-0.4c-3.2-1-6.2-2-9.2-3.4c-3-1.2-5.8-2.8-8.2-4.8      c-2.4-2-4.6-4.4-6.2-7.4c-1.6-2.8-2.4-6.2-2.8-10.4c-0.2-3.6,0.2-7.2,1.4-10.6c1.4-3.4,3.4-6.6,6.2-9.2c2.8-2.8,6.4-5,10.6-7      c1.8-0.6,3.4-1.2,5.4-1.8l-0.4-6c-0.2-3.6,2.4-6.8,6.2-7l0,0c3.6-0.4,6.8,2.4,7,6l0.4,5.4c1.6,0,3.2,0,4.8,0.2      c2.6,0.2,4.8,0.6,7,1.2c2.2,0.4,4,1,5.6,1.6c1.4,0.8,2.6,1.2,3.4,1.8c0.8,0.6,1.4,1,1.6,1.4c0.4,0.4,0.6,0.8,0.8,1.4      c0,0.4,0.2,1,0.4,1.8c0.2,0.8,0.2,1.6,0.4,2.8c0,1.2,0,2.2,0,3c0,0.8-0.2,1.6-0.4,2.2c-0.2,0.6-0.4,1-0.8,1.2      c-0.4,0.2-0.8,0.4-1.2,0.4c-0.6,0-1.6-0.2-3-1c-1.2-0.6-2.8-1.2-4.8-2c-2.2-0.8-4.4-1.4-7.2-2c-1.6-0.4-3.6-0.6-5.8-0.6      l2.2,30.7c1.2,0.4,2.2,0.8,3.2,1c3.2,1,6.4,2.2,9.4,3.4c3.2,1.2,6,2.8,8.4,4.6c2.4,2,4.4,4.2,6,7      C343.1,1126.4,344.1,1129.8,344.5,1133.8L344.5,1133.8z M317.4,1150.6c1.8-0.6,3.2-1.4,4.4-2.4c1.8-1.4,3-3,3.8-5      c1-2,1.2-4.2,1-6.8c-0.2-2.6-1-4.8-2.6-6.4c-1.4-1.6-3.4-3.2-5.8-4.4c-0.8-0.4-1.6-0.8-2.6-1.2L317.4,1150.6z M299.2,1079.3      c-1.4,0.6-2.8,1.4-3.8,2.4c-1.4,1.2-2.4,2.8-3,4.4c-0.6,1.8-0.8,3.6-0.8,5.4c0.2,2.8,1.2,5,2.6,6.6c1.6,1.8,3.6,3.2,6,4.4      c0.2,0.2,0.4,0.2,0.6,0.4L299.2,1079.3z" clip-rule="evenodd"/><polygon fill="#fff" fill-rule="evenodd" points="286.8 1051.6 285.6 1070.5 304 1075.1 285.2 1073.9 280.6 1092.3 281.8 1073.5 263.3 1068.8 282.2 1070.1" clip-rule="evenodd"/></g></svg>