<svg xmlns="http://www.w3.org/2000/svg" viewBox="-68.1 -57.842 2136.2 2115.71" xmlns:v="https://vecta.io/nano"><g fill-rule="evenodd"><path fill="#dfe6ff" d="M1000.2 1961.7c493.5 0 896.3-25.8 896.3-57 0-31.1-402.7-57-896.3-57-493.9 0-896.6 25.8-896.6 57-.1 31.2 402.7 57 896.6 57h0z"/><path fill="#0643a3" d="M179.9 396.8v23.7l61.7 2.5 8.3-11.7 339.8 70 409.6 84.6 409.5-84.6 341.3-70.2 8.3 11.9 61.7-2.8v-23.4l-3.2-.2-408.1-84.3L999.3 228l-409.6 84.3z"/><path fill="#2c7efe" d="M999.3 251.4l409.5 84.5 409.8 84.6-409.8 84.5-409.5 84.3L589.7 505l-409.8-84.5 409.8-84.6z"/><path fill="#0643a3" d="M1009.7 343.8v.4c139 3 273.8 23.2 424.5 84.7l38.1 363.6h-5.1c-160.5-52.8-306.1-70.7-456-73.7v-.2h-11.9-11.9v.2c-149.9 3-295.5 20.9-456 73.7h-5.1l38-363.5c150.7-61.5 285.5-81.7 424.5-84.7v-.4c3.4.2 7 .2 10.4.2 3.5-.1 6.9-.1 10.5-.3h0z"/><g fill="#ea718b"><path d="M1548.9 340l-190.7-38.1 188.2 14.3c23.2 1.9 24.7 13.6 24.7 25.1l1.5 294.6h-19.2l-4.5-295.9z"/><path d="M1562.3 718.5c-17.5-17.7-29-47.5-29-81.3 0-34.1 11.7-64.1 29.6-81.7 17.5 17.7 29 47.5 29 81.1 0 34.2-11.7 64.2-29.6 81.9h0z"/></g><path fill="#be96f8" d="M1555.3 545h14.7c6.4 0 11.7 5.3 11.7 11.7h0c0 6.6-5.3 11.7-11.7 11.7h-14.7c-6.4 0-11.7-5.1-11.7-11.7h0c0-6.4 5.3-11.7 11.7-11.7h0z"/><path fill="#feb542" d="M423.3 1681.5h1035.4c22.9 0 41.9 17.7 41.9 39.1v158.2c0 21.4-19 39.1-41.9 39.1H423.3c-19.2 0-35.5-12.1-40.4-28.5 2.2.4 4.4.7 6.6.7h1044c19 0 34.6-14.3 34.6-32v-116.7c0-17.4-15.7-32-34.6-32h-1044c-2.2 0-4.4.2-6.6.7 4.8-16.4 21.2-28.6 40.4-28.6h0z"/><path fill="#fff" d="M397.4,1709.3h1036.1c19,0,34.6,14.6,34.6,32V1858c0,17.7-15.7,32-34.6,32H397.4V1709.3z"/><g fill="#dfe6ff"><path d="M397.4 1845.7H1436c3.8 0 6.8 1.8 6.8 4h0c0 2-3.1 4-6.8 4H397.4v-8z"/><use href="#B"/><use href="#B" y="-80.9"/><use href="#B" y="-61.1"/><use href="#B" y="-40.3"/><use href="#B" y="-139.6"/><use href="#B" y="-119.8"/><use href="#B" y="-98.8"/></g><path fill="#6799fe" d="M626.5 1705.4H698V1813l-12.2-6.8-23.6-12.8-23.4 12.8-12.3 6.8z"/><path fill="#ea718b" d="M1576.1 1448.3H525.6c-23.4 0-42.6 17.4-42.6 38.8v158.4c0 21.4 19.2 38.8 42.6 38.8H1576c19.4 0 36-12.1 41-28.5-2.2.4-4.4.7-6.8.7H551c-19.2 0-35.1-14.3-35.1-32V1508c0-17.7 15.9-32 35.1-32h1059.3c2.4 0 4.6.2 6.8.4-5.1-16.2-21.6-28.1-41-28.1h0z"/><path fill="#fff" d="M1602.3,1476.1H551c-19.2,0-35.1,14.3-35.1,32v116.5c0,17.7,15.9,32,35.1,32h1051.3V1476.1z"/><g fill="#dfe6ff"><use href="#C"/><use href="#C" y="19.8"/><use href="#C" y="-61.2"/><use href="#C" y="-41.3"/><use href="#C" y="-20.3"/><path d="M1602.3 1492.7H548.6c-3.8 0-6.8 1.8-6.8 4h0c0 2 3.1 4 6.8 4h1053.7v-8z"/><use href="#C" y="-99.8"/><use href="#C" y="-79"/></g><use href="#D" fill="#2c7efe"/><path fill="#0ebaa0" d="M1508.1 1212.8H457.6c-23.4 0-42.6 17.4-42.6 38.8V1410c0 21.4 19.2 38.8 42.6 38.8H1508c19.4 0 36-12.1 41-28.5-2.2.4-4.4.7-6.8.7H483c-19.2 0-35.1-14.3-35.1-32v-116.5c0-17.7 15.9-32 35.1-32h1059.3c2.4 0 4.6.2 6.8.4-5.1-16.2-21.6-28.1-41-28.1h0z"/><path fill="#fff" d="M1534.3,1240.6H483c-19.2,0-35.1,14.3-35.1,32v116.5c0,17.7,15.9,32,35.1,32h1051.3V1240.6z"/><g fill="#dfe6ff"><use href="#E"/><use href="#E" y="19.9"/><use href="#E" y="-61.1"/><use href="#E" y="-41.2"/><use href="#E" y="-20.3"/><path d="M1534.3 1257.2H480.6c-3.8 0-6.8 1.8-6.8 4h0c0 2 3.1 4 6.8 4h1053.7v-8z"/><use href="#E" y="-99.7"/><use href="#E" y="-78.9"/></g><use href="#D" x="-68" y="-235.5" fill="#ffb044"/><path fill="#0ebaa0" d="M1652.2 1696.4c20.6-10 51-46.8 56.4-81.2 1.7-10.5 7.4-46.9-13.8-49.7-10.9 6.8-14.1 35.2-32.6 20.2-6.8-9.9 26.2-14.8 26.4-26.5-1.9-15.8-20-39.9-38.3-39.1-6.5 4.7-8 50.2-18.5 49.6-9.7-3 6.2-28.1 9.3-42.1 1.6-14.5-21.3-21-34.8-26.4 6 17.6 7.5 33.1 1 34.1-15.8.5 4.6-25.7-1-34.1-19.6-7.8-21.6-17.7-33.4-14.8-9.5 11.3-13.6 16.7-15.8 30.6-4 30.2 43.1 39.7 36.9 48-8.3 4.3-30.1-23.8-35.4-21.6-11.5 2.8-15.8 26.9-8.5 34.3 10.8 11 51.1 17.4 49.7 25.6-1.7 10.5-44.9-17.1-59-5.5-10.6 10.7-9.4 32.4-6.1 46.7.6 20.2 66.4-8.7 69.3-2-2.9 18.9-72.7 10.3-59.8 37.8 8.2 14.1 23.5 19.9 38.9 24.6 23.4 7.3 54.6-.9 69.1-8.5h0zm-82.1-86.3c2.2-1.2 5.1-.2 6.5 2.3 1.3 2.5.6 5.5-1.6 6.7s-5.2.2-6.5-2.3-.6-5.5 1.6-6.7h0zm59.4-11.4c-1.8 7.5 8.2 2.2 10-1.6 3.2-4.2 6.6-11.1 3.4-16.1-6.7-.3-10.8 8.3-13.4 17.7h0zm18.3 26.9c-5.3-10 14.7-21.8 20.2-18.8 3.9 4.2-14.7 24.8-20.2 18.8h0zm-39.3 37.2c-3.8 1.9 2 4.2 4.3 3.6 2.9-.2 7.1-1.2 7.9-4.3-2.3-2.9-7.4-1.5-12.2.7h0zm-25-93.8c4.6-1.2 10 2.6 13 5.9-1 3.4-6 1.6-9.2.7-3.6-.8-6.6-4.7-3.8-6.6h0z"/></g><g fill="#16888c"><path d="M1664.4 1768.9c-.3-.3-.5-.7-.6-1.1-13.1-91-40.4-173.7-83.6-253-.5-.9-.2-2.1.8-2.6.9-.5 2.1-.2 2.6.8 22.7 41.7 41.5 85.6 55.7 130.4 12.6 39.7 22.1 81.3 28.3 123.9.2 1-.6 2-1.6 2.2-.6.1-1.2-.2-1.6-.6z"/><path d="M1610.1 1575.5c-.7-.7-.8-1.8-.1-2.6 11.8-13.7 15.6-29.6 11.3-47.4-.2-1 .4-2.1 1.4-2.3s2.1.4 2.3 1.4c2.2 9.1 2.4 17.9.6 26.1-1.9 8.9-6.2 17.2-12.7 24.7-.7.8-1.9.9-2.8.1 0 .1 0 0 0 0zm29.6 80.8c-.2-.2-.4-.4-.5-.7-.4-1 .2-2.1 1.2-2.4 30.1-10.6 48.6-33.8 53.7-67.1.2-1 1.1-1.8 2.2-1.6 1 .2 1.8 1.1 1.6 2.2-5.3 34.8-24.7 59.1-56.2 70.2-.8.1-1.5-.1-2-.6zm-88.5-32.4c-.6-.5-.7-1.4-.4-2.1.4-1 1.6-1.4 2.5-1 24.6 10.9 46.2 9.6 74.6-4.7.9-.5 2.1-.1 2.6.9.5.9.1 2.1-.9 2.6-14.2 7.1-26.2 11-37.8 12-13.2 1.2-26.3-1.2-40-7.3-.2-.1-.4-.2-.6-.4zm10.5 55.8c-.5-.5-.7-1.4-.4-2.1.4-1 1.6-1.4 2.5-1 42.3 18.4 66.3 9.2 82.5-.9.9-.6 2.1-.3 2.6.6.6.9.3 2.1-.6 2.6-17 10.6-42.1 20.3-86.1 1.2-.1-.1-.3-.3-.5-.4z"/></g><path fill="#24d1b3" fill-rule="evenodd" d="M1703.2 1706.3c22 6.2 69.2-1.1 96-23.4 8.2-6.7 36.7-30.2 22.7-46.3-12.6-2.2-33.9 17-37.9-6.5 1.5-11.9 29.4 6.3 37.3-2.4 9-13.1 11.5-43.1-2.8-54.7-8-.8-39.3 32.2-46.8 24.8-5.2-8.7 23.3-16.9 34.9-25.3 10.8-9.7-2-29.8-8.5-42.8-7.2 17.2-16.4 29.8-21.9 26.2-12.2-10.1 20.5-16.2 21.9-26.2-9.5-18.9-4.4-27.5-15.2-33.2-14.6 2.1-21.3 3.5-32.1 12.4-23 20 5.9 58.3-4.2 60.4-9-2.3-6.8-37.9-12.2-39.6-10.5-5.5-29.6 9.6-29.1 20.1.8 15.4 26.7 46.8 20.1 52.1-8.2 6.7-22.3-42.6-40.5-43.2-15 .9-28.5 18-35.5 30.8-12.9 15.5 55.4 37.5 53.2 44.5-14.7 12.2-61.2-40.5-69.8-11.4-3.2 16 4.4 30.5 12.8 44.2 12.9 21 41.8 35.5 57.6 39.5h0zm-4.2-119c2.5.6 4 3.3 3.4 6-.7 2.8-3.2 4.5-5.7 3.9s-4-3.3-3.4-6c.7-2.7 3.2-4.5 5.7-3.9h0zm52.1 30.8c-6.4 4.4 4.7 7.1 8.6 5.4 5.2-1.1 12.4-3.9 13.2-9.8-4.9-4.6-13.7-1-21.8 4.4h0zm-4.3 32.2c2.7-11 25.5-6.5 27.6-.7.3 5.8-27.3 8.9-27.6.7h0zm-54 1.9c-4.1-1.1-1.3 4.5.8 5.5 2.3 1.8 6.1 3.7 8.8 2 .2-3.7-4.5-6-9.6-7.5h0zm43.5-86.9c4.3 2.2 5.7 8.5 5.8 13-3 1.9-5.5-2.8-7.3-5.6-2.2-2.8-1.8-7.7 1.5-7.4h0z"/><g fill="#16888c"><path d="M1664.9 1769.9c-.6-.6-.8-1.6-.3-2.4 50.5-76.8 85-156.9 105.2-244.8.2-1 1.3-1.7 2.3-1.4 1 .2 1.7 1.3 1.4 2.3-10.7 46.3-25.7 91.6-44.8 134.5-16.9 38.1-37.4 75.6-61 111.5-.6.9-1.8 1.1-2.7.5 0 0-.1-.1-.1-.2z"/><path d="M1752.4 1589.1c-.3-.3-.5-.7-.6-1.1-.1-1 .6-2 1.6-2.2 17.9-2.4 31.3-11.9 40-28 .5-.9 1.7-1.3 2.6-.8s1.3 1.7.8 2.6c-9.2 17.3-23.6 27.4-42.8 30-.6.1-1.2-.1-1.6-.5zm-31.4 80c-.5-.5-.7-1.3-.4-2.1.4-1 1.5-1.5 2.5-1.1 29.5 12 58.8 7 84.7-14.6.8-.7 2-.6 2.7.2s.6 2-.2 2.7c-27 22.5-57.7 27.8-88.6 15.2-.3.1-.5-.1-.7-.3zm-27.9-58.1c-6.9-6.8-12.6-15.2-17.2-25.2-.4-1 0-2.1.9-2.5 1-.4 2.1 0 2.5.9 11.1 24.5 28.2 37.8 58.9 45.9a2 2 0 0 1 1.4 2.3 2 2 0 0 1-2.3 1.4c-15.4-4.1-26.9-9.2-36.3-16.1-2.8-2-5.4-4.3-7.9-6.7zm-22.4 59.1c-8.3-8.2-16.4-19.6-23.9-35.6-.4-1 0-2.1.9-2.5 1-.4 2.1 0 2.5.9 19.4 41.9 43.5 50.8 62.4 54 1 .2 1.7 1.2 1.6 2.2-.2 1-1.2 1.7-2.2 1.6-12.5-2.2-27.1-6.7-41.3-20.6z"/></g><path fill="#dead73" d="M1774.4 1747.9l-38 163.3h-111.9l-37.9-163.3z"/><use href="#F" fill="#8b5e3c"/><use href="#F" y="-2.9" fill="#dead73"/><g fill="#84b2fe"><use href="#G"/><use href="#G" x="-732"/><path d="M799 1175.8c-1.7 0-3-1.3-3-3V945c0-1.7 1.3-3 3-3s3 1.3 3 3v227.8a3.01 3.01 0 0 1-3 3zm121.1-93.9c-1.7 0-3-1.7-3-3.8V793.3c0-2.1 1.3-3.8 3-3.8s3 1.7 3 3.8v284.8c0 2.1-1.3 3.8-3 3.8zm267.9 0c-1.7 0-3-.8-3-1.8V943.8c0-1 1.3-1.8 3-1.8s3 .8 3 1.8v136.3c0 1-1.3 1.8-3 1.8z"/><use href="#H"/><use href="#H" x="-727.8"/><use href="#H" x="-330.9"/></g><g fill-rule="evenodd"><path fill="#153663" d="M195 1878.1l-24.9-30.2c-33-16.1-64.7-73.8-93.3-34.8 22 38.7 59.3 73.3 89.7 100.1 19-8.9 24.4-19.7 28.5-35.1h0z"/><path fill="#ffaa81" d="M194 1827.8l24.9 31.1-23.8 19.2c-12-.5-24.6-14.1-24.9-30.2l23.8-20.1z"/><path fill="#153663" d="M629.3 1710.2l-82.3 30.9-83.2-63.8c-33.5-28.8-73.1-25.9-106.5-4.1L180 1832.4l35.8 39.5L399 1769.4l59.4 55.7c-37.1-.9-75.2-5.7-111.2-2.4-45.2 1-53.4 96.3 0 97.4 99.3-1.2 266.5 3.8 283.9-3.2 55.4-22.5 71.4-125.8 62.9-161.2l-64.7-45.5z"/><path fill="#ff9866" d="M546.2 1576.3l-39.7-7-8.6 47.7-53.4 128.7 23.1 8.4 65.7-130.2z"/><path fill="#2c7efe" d="M546.9 1741.1c45 33 98.2 9.9 147.2 14.7l19.4-178.2 1.7 43.7c16.1 10.2 32.1 7.5 42 3.1l2.1-112.7c-.4-8.3-4.3-23.8-17-29.7l-97.4-47.9-98.3 32.5c-10.9 4.8-22.1 16.7-25.3 29.2l-20.9 95.3c11 7.4 27.1 11.4 44.5 5.8l5.2-29.8-3.2 174z"/><path fill="#ff9866" d="M610.8 1421.5l43.3-10.9 8.5 37.5c-15.2 21.2-32.6 25.6-45.5 18.6l-6.3-45.2z"/><path fill="#ffaa81" d="M635.8 1317.6l-87.3 31c-1.2 20.7 32.2 90 55 100.1 28.4 12.7 56-17.6 55.8-42.2 1-22.9-10-74.5-23.5-88.9h0z"/><path fill="#060352" d="M617.3 1348.3c-27.8-13.1-41.1 25.6-57.9 28.8-15.6-2.6-43.2-21.4-41.5-55.6-.4-19.8 28.9-10.2 42.1-17.4 9.5-7.4 9-22.8 28.6-22l25.6 6.5c5.7-9 25.7 4.3 30.8 11.4 19.1 18.7 10.2 53.1 12.4 81.6-11.8 4.6-35-32.9-40.1-33.3h0z"/><path fill="#ffaa81" d="M643.9 1376.3c-17.9 3.6-20.8-3.4-16.7-18.4.2-6.5 4.4-13.7 11.7-10.1 5.9 4.3 5.9 20.6 5 28.5h0z"/><g fill="#ff9866"><path d="M466.5 1759.4c-2.2 10.1 17.1 27.8 9.7 31.1-7.3 2.9-13.9-14.6-16.7-13.4-11.9 1.9-10.6 35.6-20.6 36-24.6 1.3-25.8-40.2 6.5-68.3l18.5 3.9c2.1.7 4.6-1 2.6 10.7h0zm288-134l-.3 37c-.4 10-5.6 16.2-18.9 15l-142.3-20 2.2-23.6 121.5 4.3.2-15.7c14.1 8.2 28.1 6.5 37.6 3h0z"/><path d="M592.5 1632.1c-9.8-3.5-14.4-29.4-21-25-6.5 4.9 4.8 19.8 2.3 21.5-8.1 8.9-35.9-10.1-41.5-2-14.3 20.2 20.2 43.3 61.3 31l6.8-17.7c.2-2 3-3.3-7.9-7.8h0z"/></g><path fill="#62cbec" d="M366.6 1685.5l92.3 4.1 91.9 3.9c2 .1 4.4 2 4.6 4.2l13 66.1 12.7 64.5c.5 2.2-.9 3.8-3.1 3.8l-89.5-3.4-89.9-3.4c-2.2-.1-4.4-1.8-4.8-4.1l-14.9-65.1-15.4-66.6c-.5-2.3.8-4.1 3.1-4h0z"/></g><path fill="#84b2fe" d="M287.9 965c105.1 0 190.4 62.4 190.4 138.8 0 39.3-22.5 74.7-58.4 100l42.1 91-126.3-56.8c-15.2 3.1-31.2 4.5-47.8 4.5-105.1 0-190.2-62.1-190.2-138.8.1-76.3 85.2-138.7 190.2-138.7h0z"/><path fill="#fff" d="M302.5 965c105.1 0 190.4 62.4 190.4 138.8 0 39.3-22.5 74.7-58.4 100l42.1 91-126.4-56.8c-15.2 3.1-31.2 4.5-47.8 4.5-105.1 0-190.2-62.1-190.2-138.8.1-76.3 85.2-138.7 190.3-138.7h0z"/><g fill-rule="evenodd"><path fill="#fefe1e" d="M295.6 1005.9c55.1-3.8 103 37.9 107 93 3.8 55.3-37.9 103.2-93 107-55.3 4-103.2-37.7-107-93-4-55.1 37.7-103 93-107h0z"/><path fill="#fe9f0e" d="M296 1012.7c51.5-3.6 96.2 35.3 99.8 86.8 3.6 51.3-35.3 96-86.8 99.6s-96-35.1-99.6-86.6 35.1-96.1 86.6-99.8h0z"/><path fill="#fecb14" d="M296.4 1019c49.7-3.4 93 34.1 96.4 83.8 3.6 49.9-34.1 93-83.8 96.4-49.7 3.6-92.8-34.1-96.4-83.8-3.4-49.8 34.1-92.8 83.8-96.4h0z"/><path fill="#fe7509" d="M344.5 1133.8c.2 4.8-.4 9.2-2 13s-4 7.2-7.2 10c-3.2 2.6-7 5-11.6 6.6-1.8.6-3.4 1-5.2 1.4l.4 6.2c.4 3.6-2.4 6.8-6 7h0c-3.8.2-6.8-2.6-7.2-6.2l-.4-5.2c-2.4 0-4.8 0-7-.2-3.2-.4-6-.8-8.6-1.4s-4.6-1.2-6.4-2-3.2-1.4-4-2-1.6-1.6-2-2.8-.8-2.8-.8-5c-.2-1.4-.2-2.4 0-3.4 0-.8.2-1.6.2-2.2.2-.6.6-1 1-1.2s.8-.4 1.2-.4c.8-.2 2 .2 3.6 1 1.6 1 3.6 1.8 6 2.8 2.4.8 5.2 1.6 8.2 2.4 2.4.6 5 .8 7.8.8l-2.4-32.9-1-.4c-3.2-1-6.2-2-9.2-3.4-3-1.2-5.8-2.8-8.2-4.8s-4.6-4.4-6.2-7.4c-1.6-2.8-2.4-6.2-2.8-10.4-.2-3.6.2-7.2 1.4-10.6 1.4-3.4 3.4-6.6 6.2-9.2 2.8-2.8 6.4-5 10.6-7 1.8-.6 3.4-1.2 5.4-1.8l-.4-6c-.2-3.6 2.4-6.8 6.2-7h0c3.6-.4 6.8 2.4 7 6l.4 5.4c1.6 0 3.2 0 4.8.2 2.6.2 4.8.6 7 1.2 2.2.4 4 1 5.6 1.6 1.4.8 2.6 1.2 3.4 1.8s1.4 1 1.6 1.4c.4.4.6.8.8 1.4 0 .4.2 1 .4 1.8s.2 1.6.4 2.8v3c0 .8-.2 1.6-.4 2.2s-.4 1-.8 1.2-.8.4-1.2.4c-.6 0-1.6-.2-3-1-1.2-.6-2.8-1.2-4.8-2-2.2-.8-4.4-1.4-7.2-2-1.6-.4-3.6-.6-5.8-.6l2.2 30.7c1.2.4 2.2.8 3.2 1 3.2 1 6.4 2.2 9.4 3.4 3.2 1.2 6 2.8 8.4 4.6 2.4 2 4.4 4.2 6 7s2.6 6.2 3 10.2h0zm-27.1 16.8c1.8-.6 3.2-1.4 4.4-2.4 1.8-1.4 3-3 3.8-5 1-2 1.2-4.2 1-6.8s-1-4.8-2.6-6.4c-1.4-1.6-3.4-3.2-5.8-4.4-.8-.4-1.6-.8-2.6-1.2l1.8 26.2zm-18.2-71.3c-1.4.6-2.8 1.4-3.8 2.4-1.4 1.2-2.4 2.8-3 4.4-.6 1.8-.8 3.6-.8 5.4.2 2.8 1.2 5 2.6 6.6 1.6 1.8 3.6 3.2 6 4.4.2.2.4.2.6.4l-1.6-23.6z"/><path fill="#fff" d="M286.8 1051.6l-1.2 18.9 18.4 4.6-18.8-1.2-4.6 18.4 1.2-18.8-18.5-4.7 18.9 1.3z"/></g><defs ><path id="B" d="M397.4 1865.5H1436c3.8 0 6.8 1.8 6.8 4h0c0 2.2-3.1 4-6.8 4H397.4v-8z"/><path id="C" d="M1602.3 1612.3H548.6c-3.8 0-6.8 1.8-6.8 4h0c0 2.2 3.1 4 6.8 4h1053.7v-8z"/><path id="D" d="M1370 1472.1h-72.6v107.7l12.4-6.8 23.8-13 23.8 13 12.6 6.8z"/><path id="E" d="M1534.3 1376.7H480.6c-3.8 0-6.8 1.8-6.8 4h0c0 2.2 3.1 4 6.8 4h1053.7v-8z"/><path id="F" d="M1766.9 1774.9H1594c-10.1 0-18.3-8.2-18.3-18.3h0c0-10.1 8.2-18.3 18.3-18.3h172.9c10.1 0 18.3 8.2 18.3 18.3h0c0 10.1-8.2 18.3-18.3 18.3z"/><path id="G" d="M1302 1081.9c-1.7 0-3-1.3-3-3V851.1c0-1.7 1.3-3 3-3s3 1.3 3 3v227.8c0 1.7-1.3 3-3 3z"/><path id="H" d="M1390 1151.9c-1.7 0-3-.8-3-1.8v-136.3c0-1 1.3-1.8 3-1.8s3 .8 3 1.8v136.3c0 1-1.3 1.8-3 1.8z"/></defs></svg>