<svg xmlns="http://www.w3.org/2000/svg" enable-background="new 0 0 2800 2000" viewBox="-17.961 -30.99 2835.825 2062.018"><path fill="#d5f0ff" fill-rule="evenodd" d="M452.3,573.5c155.1-293,600.6-492.5,1117.6-471.1c633.5,26.3,1134.5,374.6,1118.7,778    c-7.5,196.7-137,370.3-341,493.2c-155.1,293.3-600.4,492.8-1117.3,471.1c-633.7-26.3-1134.7-374.6-1119-777.8    C119.1,870.3,248.4,696.6,452.3,573.5L452.3,573.5z" clip-rule="evenodd"/><path fill="#ffc328" fill-rule="evenodd" d="M2312.7,570.4c43.6,34.5,10.4,112.9-26.8,159.8s-94.3,68.4-149.6,62.5c-18.4-52.5-10.3-113,26.8-159.8      C2200.3,586.1,2269.2,535.8,2312.7,570.4L2312.7,570.4z" clip-rule="evenodd"/><path fill="#6686f9" fill-rule="evenodd" d="M2207.9,317.2c49.4,25.6,31.8,108.9,4.3,162c-27.4,53-79.2,85.2-134.7,90c-28.1-47.9-31.8-108.8-4.4-162      C2100.6,354.2,2158.5,291.7,2207.9,317.2L2207.9,317.2z" clip-rule="evenodd"/><path fill="#be96f8" fill-rule="evenodd" d="M1810.7,475.4c19.5-52.1,104.4-44.4,160.4-23.4c55.9,21,94,68.7,105.3,123.1      c-44.3,33.6-104.4,44.5-160.4,23.6C1860.1,577.7,1791.2,527.6,1810.7,475.4L1810.7,475.4z" clip-rule="evenodd"/><path fill="#f993bc" fill-rule="evenodd" d="M1675.8,217.1c27.3-53.6,117.4-35.2,175-6c57.6,29.3,92.8,85,98.4,144.9c-51.6,30.8-117.4,35.2-175,6      C1716.6,332.8,1648.6,270.7,1675.8,217.1L1675.8,217.1z" clip-rule="evenodd"/><path fill="#61ea75" fill-rule="evenodd" d="M1869,701.3c21-51.4,105.6-41.5,160.9-18.9c55.4,22.6,92.1,71.3,101.8,126.1c-45.3,32.4-105.6,41.5-161,19      C1915.5,804.9,1848,752.9,1869,701.3L1869,701.3z" clip-rule="evenodd"/><path fill="#fff" d="M2135.1,927.8c-0.1,0-0.3,0-0.4,0c-2.5-0.1-4.3-2.2-4.2-4.7c13.4-242.8-86.9-544-304.4-649.9        c-2.2-1.1-3.1-3.7-2.1-5.9c1.1-2.2,3.7-3.1,5.9-2.1c105.3,51.2,190.3,149.5,245.9,284.2c47.2,114.3,70.3,250.7,63.5,374.2        C2139.3,925.9,2137.4,927.7,2135.1,927.8z"/><path fill="#fff" d="M2080.3,582.6l-5.9-3.3c-6.3-3.5-12.5-7-18.7-10.5c-57.1-32.2-111.1-62.7-186.2-71.1        c-2.4-0.3-4.2-2.5-3.9-4.9c0.3-2.4,2.5-4.2,4.9-3.9c76.9,8.6,131.6,39.5,189.6,72.2c4.2,2.4,8.5,4.8,12.8,7.2        c8.3-69.6,26.7-121.1,62.6-176.2c1.3-2.1,4.1-2.6,6.2-1.3c2.1,1.3,2.6,4.1,1.3,6.2c-36.8,56.3-54.1,106.5-62,179L2080.3,582.6        z"/><path fill="#fff" d="M2136.4,812.8l-5.7-5.8c-38.4-38.9-85.1-81.4-153.6-93.2c-2.4-0.4-4-2.7-3.6-5.1c0.4-2.4,2.7-4,5.1-3.6        c67.7,11.8,114.5,51.9,152.8,90.1c14.3-55.2,48.6-113.4,92.9-157.3c1.7-1.7,4.6-1.7,6.3,0c1.7,1.7,1.7,4.6,0,6.3        c-45.2,44.8-79.7,104.9-92.4,160.8L2136.4,812.8z"/><path fill="#ffc328" fill-rule="evenodd" d="M2477.2,723.6c16,53.3-56.1,98.6-113.4,115.7c-57.3,17.2-116.5,2.2-158.4-34.3      c14.9-53.6,56.3-98.6,113.4-115.7C2376.1,672.1,2461.3,670.3,2477.2,723.6L2477.2,723.6z" clip-rule="evenodd"/><path fill="#6686f9" fill-rule="evenodd" d="M2536.1,456c25.9,49.2-36.2,107.6-89.1,135.3c-52.8,27.8-113.7,24.6-161.9-3.3      c4.3-55.4,36.2-107.5,89-135.4C2426.9,424.9,2510.2,406.8,2536.1,456L2536.1,456z" clip-rule="evenodd"/><path fill="#be96f8" fill-rule="evenodd" d="M2119.8,358.5c45.8-31.5,111,23.3,144.9,72.5c33.9,49.2,37.8,110.1,15.9,161.2      c-55.6,2.3-111.1-23.2-145-72.4C2101.8,470.6,2074,390.2,2119.8,358.5L2119.8,358.5z" clip-rule="evenodd"/><path fill="#f993bc" fill-rule="evenodd" d="M2156.9,69.5c53-28.4,116.5,38.3,147,95.2c30.5,57,27.5,122.8-2.2,175.2c-60-4.3-116.5-38.3-147-95.2      C2124.2,187.6,2104,97.9,2156.9,69.5L2156.9,69.5z" clip-rule="evenodd"/><path fill="#61ea75" fill-rule="evenodd" d="M2038.4,577.2c46.7-30.2,110.3,26.4,142.7,76.6c32.5,50.2,34.7,111.1,11.4,161.7      c-55.7,0.7-110.3-26.4-142.9-76.5C2017.2,688.7,1991.7,607.4,2038.4,577.2L2038.4,577.2z" clip-rule="evenodd"/><path fill="#fff" d="M2127.1,915.1c-0.1-0.1-0.2-0.2-0.3-0.2c-1.9-1.5-2.3-4.3-0.8-6.2c149.9-191.5,240-495.9,122.1-707.1        c-1.2-2.1-0.4-4.9,1.7-6.1c2.1-1.2,4.9-0.4,6.1,1.7c57,102.2,70.6,231.5,39.1,373.7c-26.7,120.7-85.7,245.9-162,343.3        C2131.6,916,2129,916.4,2127.1,915.1z"/><path fill="#fff" d="M2279.7,600.7l-2.9-6c-3.2-6.5-6.2-12.9-9.3-19.3c-28.4-59.1-55.3-115-112.1-164.8        c-1.8-1.6-2-4.4-0.4-6.3c1.6-1.8,4.4-2,6.3-0.4c58.1,51,85.4,107.7,114.2,167.7c2.1,4.4,4.2,8.8,6.4,13.2        c46.6-52.3,91.1-84,152.2-108.7c2.3-0.9,4.9,0.2,5.8,2.5c0.9,2.3-0.2,4.9-2.5,5.8c-62.4,25.2-105.3,56.4-153.2,111.3        L2279.7,600.7z"/><path fill="#fff" d="M2194,821.6l-1.4-8c-9.2-53.9-23.3-115.4-72.6-164.3c-1.7-1.7-1.8-4.5,0-6.3c1.7-1.7,4.5-1.8,6.3,0        c48.8,48.4,64.2,108,73.8,161.3c43.3-37,104.8-65.2,166.2-75.9c2.4-0.4,4.7,1.2,5.2,3.6c0.4,2.4-1.2,4.7-3.6,5.2        c-62.7,10.9-125.4,40.5-167.7,79L2194,821.6z"/><g><path fill="#38c551" fill-rule="evenodd" d="M616.1,115.2c141,32.4,278.1,139.7,360.5,299.1s90.6,333.2,35.6,467.1c-141-32.5-278.1-139.7-360.5-299.1       S561.1,248.9,616.1,115.2L616.1,115.2z" clip-rule="evenodd"/><path fill="#38c551" d="M1013.8,884.2l-2.1-0.5c-147.1-33.9-282.5-146.2-362.2-300.4c-79.8-154.3-93.1-329.6-35.7-469.2l0.8-2       l2.1,0.5c147,33.8,282.4,146.1,362.2,300.4c79.7,154.2,93.1,329.6,35.7,469.2L1013.8,884.2z M617.6,118.1       c-55.9,137.9-42.4,310.8,36.4,463c78.7,152.2,211.9,263.2,356.8,297.3c55.9-137.9,42.3-310.8-36.4-463       C895.7,263.2,762.4,152.2,617.6,118.1z"/><path fill="#fff" d="M1013.4,883.5c-1.2,0.6-2.7,0.2-3.4-1.1L613.9,116.3c-0.6-1.2-0.2-2.7,1.1-3.4c1.2-0.6,2.7-0.2,3.4,1.1        l396.2,766.2C1015.2,881.4,1014.7,882.9,1013.4,883.5z"/><path fill="#fff" d="M686.2,250.7c-0.4,0.2-0.9,0.3-1.3,0.3c-1.4-0.1-2.4-1.3-2.3-2.7l8.6-107.7c0.1-1.4,1.3-2.4,2.7-2.3        c1.4,0.1,2.4,1.3,2.3,2.7l-8.6,107.7C687.5,249.5,686.9,250.3,686.2,250.7z"/><path fill="#fff" d="M736.4,347.8c-0.6,0.3-1.4,0.4-2.1,0.1l-154-61.5c-1.3-0.5-1.9-2-1.4-3.3c0.5-1.3,2-1.9,3.3-1.4l154,61.5        c1.3,0.5,1.9,2,1.4,3.3C737.4,347.1,736.9,347.6,736.4,347.8z"/><path fill="#fff" d="M789.5,450.5c-0.6,0.3-1.2,0.4-1.9,0.2c-1.3-0.4-2.1-1.8-1.6-3.1l63.7-201.5c0.4-1.3,1.8-2,3.1-1.6        c1.3,0.4,2.1,1.8,1.6,3.1l-63.7,201.5C790.6,449.7,790.1,450.2,789.5,450.5z"/><path fill="#fff" d="M872,610.1c-0.6,0.3-1.4,0.4-2.1,0.1L614.3,500.1c-1.3-0.5-1.9-2-1.3-3.3c0.5-1.3,2-1.9,3.3-1.3        l255.6,110.1c1.3,0.5,1.9,2,1.3,3.3C872.9,609.4,872.5,609.8,872,610.1z"/><path fill="#fff" d="M930.8,723.7c-0.6,0.3-1.3,0.4-1.9,0.2c-1.3-0.4-2-1.8-1.6-3.1l76.7-241.1c0.4-1.3,1.8-2,3.1-1.6        c1.3,0.4,2,1.8,1.6,3.1L932,722.2C931.8,722.9,931.4,723.4,930.8,723.7z"/><path fill="#fff" d="M973.4,806.2c-0.6,0.3-1.2,0.4-1.8,0.2L772,748.6c-1.3-0.4-2.1-1.8-1.7-3.1c0.4-1.3,1.8-2.1,3.1-1.7        L973,801.6c1.3,0.4,2.1,1.8,1.7,3.1C974.5,805.4,974,805.9,973.4,806.2z"/><g><path fill="#61ea75" fill-rule="evenodd" d="M217.1,670.1c116.1-86.3,286.6-121.2,461.4-80.7C853.4,630,991,736.4,1057.4,865       c-116.2,86.3-286.6,121.2-461.4,80.7C421.1,905.1,283.4,798.7,217.1,670.1L217.1,670.1z" clip-rule="evenodd"/><path fill="#61ea75" d="M1060.6,865.7l-1.7,1.3c-121.2,90-294.4,120.3-463.5,81.1C426.2,908.9,284,805.4,214.9,671.2l-1-1.9       l1.7-1.3C336.7,578,510,547.7,679.1,587c169.1,39.2,311.3,142.7,380.4,276.9L1060.6,865.7z M220.3,670.8       c68.8,131.9,209.2,233.7,376.1,272.4c166.9,38.7,337.8,9.2,457.7-79C985.3,732.3,844.9,630.6,678,591.8       C511.1,553.1,340.2,582.7,220.3,670.8z"/><path fill="#fff" d="M1059.8,865.6c-0.3,1.3-1.7,2.2-3,1.9L216.6,672.5c-1.3-0.3-2.2-1.7-1.9-3c0.3-1.3,1.7-2.2,3-1.9        l840.2,194.9C1059.3,862.9,1060.1,864.2,1059.8,865.6z"/><path fill="#fff" d="M365.7,704.6c-0.1,0.4-0.3,0.9-0.7,1.2c-1,1-2.6,1-3.5,0L285,629.4c-1-1-1-2.6,0-3.5c1-1,2.6-1,3.5,0        l76.5,76.3C365.7,702.9,365.9,703.7,365.7,704.6z"/><path fill="#fff" d="M472.3,729.3c-0.2,0.7-0.6,1.3-1.3,1.6l-146.6,77.4c-1.2,0.6-2.7,0.2-3.4-1c-0.6-1.2-0.2-2.7,1-3.4        l146.6-77.4c1.2-0.6,2.7-0.2,3.4,1C472.4,728.1,472.4,728.7,472.3,729.3z"/><path fill="#fff" d="M584.9,755.4c-0.1,0.6-0.5,1.2-1.1,1.6c-1.2,0.7-2.7,0.4-3.5-0.8L468.2,577.1c-0.7-1.2-0.4-2.7,0.8-3.5        c1.2-0.7,2.7-0.4,3.5,0.8l112.1,179.1C585,754.1,585.1,754.8,584.9,755.4z"/><path fill="#fff" d="M759.9,796c-0.2,0.7-0.6,1.3-1.3,1.7L509.1,920.9c-1.2,0.6-2.7,0.1-3.4-1.1c-0.6-1.2-0.1-2.7,1.1-3.4        l249.5-123.3c1.2-0.6,2.7-0.1,3.4,1.1C760,794.8,760,795.4,759.9,796z"/><path fill="#fff" d="M884.5,824.9c-0.1,0.6-0.5,1.2-1.1,1.6c-1.2,0.7-2.7,0.4-3.5-0.8L746,611c-0.7-1.2-0.4-2.7,0.8-3.5        c1.2-0.7,2.7-0.4,3.5,0.8L884.2,823C884.5,823.6,884.6,824.3,884.5,824.9z"/><path fill="#fff" d="M975,845.9c-0.1,0.6-0.5,1.2-1.1,1.5L800.5,961.9c-1.2,0.8-2.7,0.4-3.5-0.7c-0.8-1.2-0.4-2.7,0.7-3.5        l173.4-114.5c1.2-0.8,2.7-0.4,3.5,0.7C975,844.5,975.1,845.2,975,845.9z"/></g></g><g><path fill="#38c551" fill-rule="evenodd" d="M1502.2,331.2c0,120.8-61.7,252.5-176.1,349.4c-114.3,96.9-254.3,136.1-373.6,116.4       c0.1-120.9,61.7-252.5,176.1-349.4C1243,350.7,1383,311.4,1502.2,331.2L1502.2,331.2z" clip-rule="evenodd"/><path fill="#38c551" d="M950.5,798.7l0-1.8c0.1-126.1,66.2-257.3,176.8-351c110.7-93.8,250.9-137.5,375.2-116.8l1.8,0.3l0,1.8       c0,126-66.1,257.2-176.8,351c-110.6,93.7-250.9,137.4-375.2,116.8L950.5,798.7z M1500.1,333       c-122.7-19.7-260.9,23.6-370.1,116.2c-109.1,92.5-174.6,221.7-175.3,346c122.7,19.7,261-23.7,370.1-116.2       C1434,586.5,1499.4,457.2,1500.1,333z"/><path fill="#fff" d="M951,798.3c-0.7-0.9-0.6-2.2,0.2-2.9l549.6-465.8c0.9-0.7,2.2-0.6,2.9,0.2c0.7,0.9,0.6,2.2-0.2,2.9        L953.9,798.6C953,799.3,951.7,799.2,951,798.3z"/><path fill="#fff" d="M1405,413.6c-0.2-0.3-0.4-0.6-0.5-1c-0.2-1.1,0.6-2.2,1.8-2.4l89.3-13.2c1.1-0.2,2.2,0.6,2.4,1.8        c0.2,1.1-0.6,2.2-1.8,2.4l-89.3,13.2C1406.1,414.4,1405.4,414.1,1405,413.6z"/><path fill="#fff" d="M1335.3,472.6c-0.4-0.4-0.6-1.1-0.5-1.7l21.3-136.8c0.2-1.1,1.2-1.9,2.4-1.7c1.1,0.2,1.9,1.2,1.7,2.4        l-21.3,136.8c-0.2,1.1-1.2,1.9-2.4,1.7C1336,473.3,1335.6,473,1335.3,472.6z"/><path fill="#fff" d="M1261.6,535.1c-0.3-0.4-0.5-0.9-0.5-1.5c0.1-1.2,1.1-2,2.3-1.9l175.9,14.2c1.2,0.1,2,1.1,1.9,2.3        c-0.1,1.2-1.1,2-2.3,1.9L1263,535.8C1262.5,535.8,1262,535.5,1261.6,535.1z"/><path fill="#fff" d="M1147.2,632.1c-0.4-0.5-0.6-1.1-0.5-1.7l41.8-228.6c0.2-1.1,1.3-1.9,2.4-1.7c1.1,0.2,1.9,1.3,1.7,2.4        l-41.8,228.6c-0.2,1.1-1.3,1.9-2.4,1.7C1147.9,632.7,1147.5,632.4,1147.2,632.1z"/><path fill="#fff" d="M1065.6,701.1c-0.3-0.4-0.5-0.9-0.5-1.5c0.1-1.2,1.1-2,2.3-1.9L1278,715c1.2,0.1,2,1.1,1.9,2.3        c-0.1,1.2-1.1,2-2.3,1.9l-210.6-17.3C1066.5,701.8,1066,701.6,1065.6,701.1z"/><path fill="#fff" d="M1006.5,751.3c-0.3-0.4-0.5-0.9-0.5-1.5l9.7-173.3c0.1-1.2,1.1-2,2.2-2c1.2,0.1,2,1.1,2,2.2l-9.7,173.3        c-0.1,1.2-1.1,2-2.2,2C1007.3,752,1006.8,751.7,1006.5,751.3z"/><g><path fill="#61ea75" fill-rule="evenodd" d="M975.8,110.2c92,78.3,152.3,210.7,152,360.5c-0.3,149.9-61.2,281.9-153.5,359.9       c-92-78.4-152.3-210.7-152-360.5C822.6,320.2,883.5,188.1,975.8,110.2L975.8,110.2z" clip-rule="evenodd"/><path fill="#61ea75" d="M974.3,833.3l-1.4-1.2C877,750.4,819.9,615,820.2,470.1c0.3-145,58-280.2,154.2-361.5l1.4-1.1l1.4,1.2       c95.9,81.7,153,217.1,152.7,362.1c-0.3,145-58,280.1-154.2,361.5L974.3,833.3z M975.8,112.9c-94.5,80.6-151.1,214-151.4,357.1       c-0.3,143.1,55.7,276.7,149.9,357.8c94.5-80.7,151.1-214.1,151.4-357.1C1126,327.6,1070,194,975.8,112.9z"/><path fill="#fff" d="M974.3,832.7c-1.2,0-2.1-0.9-2.1-2.1l1.5-720.4c0-1.2,0.9-2.1,2.1-2.1c1.2,0,2.1,0.9,2.1,2.1l-1.5,720.4        C976.4,831.8,975.4,832.7,974.3,832.7z"/><path fill="#fff" d="M975.5,237.6c-0.4,0-0.8-0.1-1.1-0.3c-1-0.6-1.3-1.9-0.7-2.9l47.8-76.6c0.6-1,1.9-1.3,2.9-0.7        c1,0.6,1.3,1.9,0.7,2.9l-47.8,76.6C976.9,237.2,976.2,237.6,975.5,237.6z"/><path fill="#fff" d="M975.4,328.9c-0.6,0-1.2-0.2-1.6-0.7l-90.4-104.9c-0.8-0.9-0.7-2.2,0.2-3c0.9-0.8,2.2-0.7,2.9,0.2        l90.4,104.9c0.8,0.9,0.7,2.2-0.2,3C976.3,328.8,975.8,328.9,975.4,328.9z"/><path fill="#fff" d="M975.2,425.5c-0.5,0-1.1-0.2-1.5-0.6c-0.8-0.8-0.8-2.1,0-3l124.8-124.8c0.8-0.8,2.1-0.8,3,0        c0.8,0.8,0.8,2.1,0,3L976.6,424.9C976.2,425.3,975.7,425.5,975.2,425.5z"/><path fill="#fff" d="M974.8,575.5c-0.6,0-1.2-0.3-1.6-0.8l-147-180c-0.7-0.9-0.6-2.2,0.3-2.9c0.9-0.7,2.2-0.6,2.9,0.3l147,180        c0.7,0.9,0.6,2.2-0.3,2.9C975.8,575.4,975.3,575.5,974.8,575.5z"/><path fill="#fff" d="M974.6,682.4c-0.5,0-1.1-0.2-1.5-0.6c-0.8-0.8-0.8-2.1,0-3l149.7-149.1c0.8-0.8,2.1-0.8,3,0        c0.8,0.8,0.8,2.1,0,3L976.1,681.8C975.7,682.2,975.1,682.4,974.6,682.4z"/><path fill="#fff" d="M974.4,760c-0.5,0-1-0.2-1.4-0.6L847.4,639.6c-0.8-0.8-0.9-2.1-0.1-3c0.8-0.8,2.1-0.9,3-0.1l125.6,119.7        c0.8,0.8,0.9,2.1,0.1,3C975.6,759.7,975,760,974.4,760z"/></g></g><g><path fill="#2c7efe" fill-rule="evenodd" d="M593.5,705.7h1651.2c32.2,0,58.4,26.2,58.4,58.4v960.8c0,32.2-26.2,58.4-58.4,58.4H593.5     c-32.2,0-58.4-26.2-58.4-58.4V764C535.1,731.9,561.3,705.7,593.5,705.7L593.5,705.7z" clip-rule="evenodd"/><path fill="#0643a3" fill-rule="evenodd" d="M474.8,1764.2h762c1.9,11.7,16,20.7,33,20.7h298.5c17,0,31.1-8.9,33-20.7h762c18.3,0,33.2,10.7,33.2,23.4     v90.5c0,12.8-14.9,23.4-33.2,23.4H474.8c-18.3,0-33.2-10.7-33.2-23.4v-90.5C441.6,1774.9,456.5,1764.2,474.8,1764.2L474.8,1764.2     z" clip-rule="evenodd"/><path fill="#62cbec" fill-rule="evenodd" d="M663.3,800.5h1511.5c27.7,0,50.5,22.6,50.5,50.5v834.2c0,27.9-22.8,50.5-50.5,50.5H663.3     c-27.9,0-50.5-22.6-50.5-50.5V851C612.9,823.1,635.4,800.5,663.3,800.5L663.3,800.5z" clip-rule="evenodd"/></g><g><path fill="#221814" d="M785.2,1315.5c8.9,0,16.1-6.6,16.1-14.5c0-7.9-7.2-14.4-16.1-14.4c-8.8,0-16,6.5-16,14.4      C769.2,1308.9,776.4,1315.5,785.2,1315.5L785.2,1315.5z"/><path fill="#221814" d="M785.2,1315.8c-9,0-16.4-6.7-16.4-14.9c0-8.1,7.3-14.8,16.4-14.8      c9.1,0,16.5,6.6,16.5,14.8C801.6,1309.2,794.3,1315.8,785.2,1315.8z M785.2,1286.9c-8.6,0-15.7,6.3-15.7,14.1      c0,7.8,7,14.2,15.7,14.2c8.7,0,15.8-6.4,15.8-14.2C800.9,1293.2,793.9,1286.9,785.2,1286.9z"/><path fill="#0643a3" d="M917.1,1528c-8.2-53.9-44.6-132.7,7.1-181.5l55.2,75.1      C958.7,1457.1,937.9,1492.5,917.1,1528L917.1,1528z"/><path fill="#0643a3" d="M916.9,1529l-0.1-1c-1.8-11.6-4.8-24.3-8.1-37.7c-11.9-49.5-25.4-105.6,15.3-144l0.3-0.3      l55.6,75.7l-0.1,0.2L916.9,1529z M924.2,1347.1c-40,38.1-26.6,93.9-14.8,143.1c3.2,13.1,6.1,25.5,7.9,36.8l61.7-105.3      L924.2,1347.1z"/><path fill="#84b2fe" d="M901.9,1453.8c-3.8-0.5-7.6-1-11.4-1.5c-34.1-36.9,3.8-74.7,5.6-112.1      c0,0,19.6,8.3,19.9,5.7c0.4-2.7,11.4,59.5,11.4,59.5L901.9,1453.8z"/><path fill="#84b2fe" d="M902.1,1454.2l-11.7-1.5l-0.1-0.1c-22.9-24.7-13.4-50.2-4.3-74.9      c4.5-12.3,9.2-25,9.8-37.4l0-0.5l0.5,0.2c6.7,2.8,17.8,7,19.4,6.1c0.1,0,0.1-0.1,0.1-0.1c0-0.4,0.3-0.4,0.4-0.4c0,0,0,0,0,0      c0.4,0,0.9,0.5,6.3,30.1c2.7,14.7,5.3,29.7,5.4,29.8l0,0.1l-0.1,0.1L902.1,1454.2z M890.7,1452l11,1.4l25.4-47.9      c-3.9-21.9-9.8-54.3-11-58.8c0,0,0,0,0,0c-2.3,1.3-16.4-4.5-19.5-5.9c-0.7,12.4-5.4,25-9.9,37.1      C877.6,1402.4,868.2,1427.6,890.7,1452z"/><path fill="#f4a484" d="M897.1,1342.2c-9-3.8-18.7-11.1-27.6-14.9c-10.6-13.6-18.5-33.4-68.2-35.4      c-20.8-10.9-36.8-27.7-64.5-33.4c-9.2-2.2-17.7,14.9-12,20.5l36.8,22.7c-51,9.2-107-10.6-158.9-25.5c-14.2,0-15.5,12.7-4.2,18.5      c68.6,28.3,129,78,205.7,85c35.4,9.3,56,18.5,73,26.3l36.2,12.1l5.7-65.3L897.1,1342.2z"/><path fill="#f4a484" d="M913.7,1418.6l-36.6-12.2c-19-8.8-38.9-17.3-72.9-26.3c-51.1-4.7-95.8-28.8-139-52      c-21.6-11.6-43.9-23.6-66.7-33.1c-5.6-2.8-8.7-7.7-7.6-12.2c1-4.3,5.5-6.9,11.9-6.9l0.1,0c6,1.7,12.3,3.6,18.3,5.4      c46.6,13.8,94.8,28.1,139.5,20.3l-36-22.2c-3.3-3.2-2.1-9.4,0.3-13.8c2.3-4.2,6.8-8.6,11.9-7.4c18.8,3.8,32.3,12.8,45.3,21.5      c6.1,4.1,12.5,8.3,19.2,11.8c44,1.9,55.4,17.8,64.7,30.6c1.2,1.7,2.4,3.4,3.6,4.9c4.4,1.9,9.1,4.7,13.6,7.3      c4.6,2.8,9.4,5.6,14,7.5l0,0l22.2,10.7l0,0.2L913.7,1418.6z M602.7,1276.6c-6,0-10.2,2.4-11.2,6.4c-1,4.1,1.9,8.7,7.2,11.4      c22.8,9.4,45.2,21.5,66.8,33.1c43.1,23.2,87.8,47.2,138.8,51.9c34.2,8.9,54,17.5,73.1,26.3l35.7,11.9l5.7-64.6l-21.8-10.5      c-4.6-1.9-9.4-4.8-14.1-7.6c-4.5-2.7-9.2-5.5-13.6-7.3l-0.1,0l-0.1-0.1c-1.3-1.6-2.5-3.3-3.7-5c-9.1-12.7-20.5-28.5-64.2-30.3      l-0.1,0c-6.8-3.5-13.1-7.8-19.3-11.9c-13-8.7-26.4-17.6-45.1-21.4c-4.7-1.1-9,3.1-11.1,7.1c-2.3,4.2-3.5,10-0.5,12.9l37.5,23.2      l-0.9,0.2c-45.1,8.1-93.7-6.3-140.7-20.2C614.9,1280.2,608.7,1278.3,602.7,1276.6z"/><path fill="#2c7efe" d="M1642.9,797.3l53.9,49.7c67.1,26.9,187.2,62.3,201.4,80.8c22.7,15.6,75.1,479.4,18.5,573      c-32.6,44-77.6,18-116.3,27l5.9,43.3h-542.4c0.6-25.3,1.2-50.6,1.8-75.9c-5.6,13.4-12.7,24.1-25.5,31.2      c-103.5-18.5-205.7-18.5-322,4.3c1-62.4,52.5-158.9,2.9-187.2c75.1,3.8,148.8,31.2,225.4,11.4c55.4-86.5,34.1-398.6,69.5-419.9      c25.5-25.5,160.2-45.3,222.6-107.8L1642.9,797.3z"/><path fill="#2c7efe" d="M1806.5,1571.3h-543.2l1.8-74.4c-6.4,14.6-13.9,23.5-25,29.6l-0.1,0.1l-0.1,0      c-107-19.1-209.3-17.7-321.9,4.3l-0.4,0.1l0-0.4c0.3-20.9,6.4-45.9,12.2-70.1c11.7-48.2,23.7-98-9.1-116.8l-1.3-0.7l1.5,0.1      c25.1,1.3,50.4,5.2,74.9,9c48.9,7.6,99.4,15.5,150.3,2.4c30.2-47.3,37.4-160.2,43.8-259.8c5.2-80.7,9.6-150.3,25.8-160      c10-10,36-18.9,69-30.2c51.5-17.6,115.5-39.5,153.6-77.6l0.1-0.1l0.1,0l204.5-29.8l0.1,0.1l53.8,49.7      c22.3,8.9,50.9,19,78.6,28.7c55.7,19.5,113.2,39.7,122.9,52.1c11.8,8.4,30.5,131,39.1,257.5c5.2,76.2,13.6,259.4-20.6,315.9      c-21.9,29.5-49.6,27.7-76.5,25.9c-13.3-0.9-27-1.8-39.8,1.2L1806.5,1571.3z M1264,1570.6h541.7l-5.9-43.2l0.3-0.1      c13-3,26.9-2.1,40.3-1.2c26.7,1.7,54.2,3.5,75.9-25.6c34.1-56.3,25.7-239.4,20.5-315.5c-4.2-61-10.9-124.5-18.6-174.3      c-7.5-48.8-14.9-79-20.3-82.7l-0.1-0.1c-9.4-12.2-66.9-32.4-122.6-51.9c-27.7-9.7-56.4-19.8-78.7-28.7l-0.1-0.1l-53.8-49.6      l-204,29.8c-38.2,38.1-102.3,60-153.8,77.6c-32.9,11.3-58.9,20.1-68.8,30.1c-15.9,9.6-20.4,79.1-25.5,159.5      c-6.4,99.8-13.6,212.9-43.9,260.3l-0.1,0.1l-0.1,0c-51.1,13.2-101.8,5.3-150.8-2.3c-24-3.7-48.8-7.6-73.4-9      c31.8,19.6,19.8,69,8.2,116.9c-5.8,24-11.8,48.8-12.2,69.5c112.4-21.9,214.6-23.3,321.6-4.2c11.3-6.3,18.8-15.5,25.3-30.9      l0.7-1.7L1264,1570.6z"/><path fill="#dfe6ff" d="M1449.9,804.3c59.1-9.4,118.2-18.8,177.3-28.3c73.7,44-127.7,377.3-170.2,571.6      C1417.3,1234.1,1380.4,960.4,1449.9,804.3L1449.9,804.3z"/><path fill="#dfe6ff" d="M1457.1,1348.9l-0.4-1.2c-22.1-63.1-39.6-163.5-44.5-255.8      c-4.5-82.9-1.6-200.1,37.5-287.7l0.1-0.2l0.2,0c56.4-9,117-18.6,177.3-28.3l0.1,0l0.1,0.1c20.5,12.2,21.6,46.4,3.6,107.7      c-16,54.3-44.9,122.6-75.4,194.9c-40,94.7-81.4,192.6-98.2,269.4L1457.1,1348.9z M1450.1,804.7      c-71.1,159.9-30.1,435.1,6.8,541.7c17-76.8,58.2-174.1,98-268.4c59.8-141.4,116.3-275,72.2-301.6      C1566.9,786.1,1506.5,795.7,1450.1,804.7z"/><path fill="#707f86" d="M1456.7,891.7l-7.2,63.2c18.8-18,34.9-36,63.4-40.9L1456.7,891.7z"/><path fill="#707f86" d="M1449.1,955.8l7.4-64.6l57.8,22.9l-1.2,0.2c-25.6,4.4-41.2,19.5-57.8,35.6      c-1.8,1.7-3.6,3.5-5.5,5.3L1449.1,955.8z M1457,892.2l-7,61.7c1.6-1.5,3.2-3.1,4.8-4.6c16.4-15.9,31.9-30.9,56.9-35.5      L1457,892.2z"/><path fill="#707f86" d="M1582.5,890.6l7.3,63.2c-18.8-18-34.9-36-63.4-40.9L1582.5,890.6z"/><path fill="#707f86" d="M1590.3,954.7l-0.7-0.7c-1.8-1.8-3.7-3.5-5.5-5.3c-16.6-16-32.2-31.2-57.8-35.6l-1.2-0.2      l57.7-22.9l0.1,0.5L1590.3,954.7z M1527.7,912.7c25.1,4.7,40.6,19.7,56.9,35.6c1.6,1.5,3.1,3.1,4.7,4.6l-7.2-61.7L1527.7,912.7z      "/><path fill="#ea718b" d="M1483.3,892.8c1.7,1.1,3.9,4.9,6.1,9.3l-0.9,2.8c-7.5,7.2-9.5,14.3-7.2,22.4l17.5,12.6      l-0.6,21c-59.6,107.2-68.2,219.8-71,317.2c-2.8,97.4,40.4,62.2,51.1,68.1c10.6,5.9,94.3-159.1,89.3-192.7      c-4.9-33.5-4.2-126-29.7-194v-20.3c6-3.9,12.1-7.9,18.1-11.9c2.9-6.8-3.9-12.3-5.9-18.5l3.1-3.3l7.3-19.9l-11.2-16l-68.2,1.5      l-26.9,23.2L1483.3,892.8z"/><path fill="#ea718b" d="M1455.9,1348.1c-5.1,0-10.4-1.2-15-5.2c-10.5-9-15.1-30.2-14.1-64.9      c1.3-45.9,4-100.1,14.2-155c11.2-60.7,29.8-113.8,56.8-162.3l0.6-20.7l-17.4-12.5l0-0.1c-2.4-8.3-0.1-15.5,7.2-22.6l0.8-2.6      c-2.5-5.1-4.4-8-5.8-9l-30,1.5l27.8-24l0.1,0l68.4-1.5l11.5,16.3l-0.1,0.2l-7.4,20l-2.9,3.1c0.6,1.9,1.8,3.8,2.9,5.7      c2.4,4,4.9,8.1,2.9,12.8l0,0.1l-0.1,0.1c-3,2-6.1,4-9.1,6c-2.9,1.9-5.9,3.9-8.8,5.8v20c18.9,50.5,23.5,115,26.5,157.7      c1,14.9,2,27.7,3.2,36.4c2.1,13.9-11,52.6-35.1,103.6c-21.2,44.8-43.5,83-51.8,88.9c-1.2,0.8-2.2,1.1-2.9,0.7      c-2.2-1.2-6.2-0.5-10.7,0.3C1463.8,1347.4,1459.9,1348.1,1455.9,1348.1z M1481.6,927.1l17.5,12.6l0,0.2l-0.7,21.2      c-60.1,108.1-68.2,220.3-71,317.1c-1,34.4,3.5,55.4,13.8,64.3c8,6.9,17.9,5.1,25.9,3.7c4.7-0.8,8.7-1.6,11.2-0.2      c0.6,0.3,1.5-0.2,2.2-0.6c8.3-5.7,30.4-43.8,51.6-88.6c24-50.8,37.1-89.3,35-103.1c-1.3-8.7-2.2-21.5-3.2-36.4      c-3-42.7-7.5-107.1-26.5-157.5l0-0.1v-20.5l0.2-0.1c3-1.9,6-3.9,9-5.9c3-2,6-4,9-5.9c1.8-4.4-0.5-8.1-2.9-12.1      c-1.2-1.9-2.4-4-3.1-6l-0.1-0.2l3.1-3.4l7.2-19.7l-11-15.7l-67.9,1.5l-26,22.5l28.2-1.4l0.1,0.1c1.5,1,3.5,4,6.2,9.4l0.1,0.1      l-0.9,3l-0.1,0.1C1481.6,912.1,1479.3,919,1481.6,927.1z"/><path fill="#2b9cd7" d="M1431.8,1193.9c-1.8,20.2-2.9,40.1-3.8,59.4l138.3-111.1c-1.3-13.6-2.3-32.1-4.2-53      L1431.8,1193.9z"/><path fill="#2b9cd7" d="M1427.6,1254.1l0-0.8c0.7-16.1,1.8-37.4,3.8-59.4l0-0.1l0.1-0.1l130.9-105.1l0.1,0.7      c0.9,10.2,1.6,19.9,2.2,28.6c0.7,9.4,1.3,17.5,1.9,24.5l0,0.2L1427.6,1254.1z M1432.2,1194.1c-2,21.6-3,42.5-3.7,58.4      l137.6-110.5c-0.7-6.9-1.3-15-1.9-24.3c-0.6-8.4-1.3-18-2.2-27.9L1432.2,1194.1z"/><path fill="#84b2fe" d="M1448.4,957.6c22.7-21.8,34.1-70.9,68.2-65.3c34,5.6,73.6,68.7,79.4,70.9      c5.7,2.3,75.1-120.5,75.1-120.5c-14.7-22.2-24.8-49.7-44-66.7l-179.4,28.3C1420.1,881,1432.9,927.8,1448.4,957.6L1448.4,957.6z"/><path fill="#84b2fe" d="M1596.3,963.6c-0.2,0-0.3,0-0.4-0.1c-1.7-0.6-5.6-5.6-11.6-13      c-15.1-18.8-43.1-53.8-67.7-57.8c-22.5-3.7-35.3,17.1-47.6,37.3c-6.2,10.1-12.7,20.6-20.3,27.9l-0.3,0.3l-0.2-0.4      c-9.7-18.7-15.1-38.1-16.6-59.2c-1.9-28.1,3.5-59.9,15.9-94.3l0.1-0.2l0.2,0l179.5-28.4l0.1,0.1c12.8,11.4,21.8,27.7,30.4,43.4      c4.3,7.9,8.8,16,13.6,23.4l0.1,0.2l-0.1,0.2c-0.2,0.3-17.6,31.1-35.4,61.1C1603.2,959.3,1597.8,963.6,1596.3,963.6z       M1511.4,891.5c1.7,0,3.5,0.1,5.3,0.4c24.9,4.1,53,39.2,68.2,58.1c5.5,6.8,9.8,12.2,11.3,12.8c1,0.4,6.8-4.5,39.3-59.2      c17.1-28.8,33.8-58.3,35.3-60.9c-4.9-7.4-9.3-15.4-13.6-23.3c-8.6-15.6-17.5-31.8-30.1-43.1l-179,28.3      c-21.7,60-21.5,109.8,0.4,152.3c7.4-7.2,13.7-17.5,19.8-27.4C1479.8,910.8,1491.7,891.5,1511.4,891.5z"/><g><path fill="#fff" d="M1566.4,1142.2L1428,1253.3c0.9-19.3,2-39.2,3.8-59.4l130.4-104.7      C1564,1110.1,1565,1128.7,1566.4,1142.2L1566.4,1142.2z"/><path fill="#fff" d="M1427.6,1254.1l0-0.8c0.7-16.1,1.8-37.4,3.8-59.4l0-0.1l0.1-0.1l130.9-105.1l0.1,0.7      c0.9,10.2,1.6,19.9,2.2,28.6c0.7,9.4,1.3,17.5,1.9,24.5l0,0.2L1427.6,1254.1z M1432.2,1194.1c-2,21.6-3,42.5-3.7,58.4      l137.6-110.5c-0.7-6.9-1.3-15-1.9-24.3c-0.6-8.4-1.3-18-2.2-27.9L1432.2,1194.1z"/></g><g><path fill="#fff" d="M1553.8,1020.3l-109.5,87.9c5.1-24.1,11.7-48.3,20.3-72.6l78-62.6      C1547.3,988.1,1551,1004.1,1553.8,1020.3L1553.8,1020.3z"/><path fill="#fff" d="M1443.7,1109l0.2-1c5.4-25.5,12.1-49.3,20.3-72.6l0-0.1l0.1-0.1l78.4-62.9l0.2,0.5      c4.5,14.2,8.3,30.1,11.3,47.3l0,0.2l-0.2,0.1L1443.7,1109z M1464.9,1035.7c-8.1,23-14.6,46.4-20,71.5l108.6-87.1      c-3-16.9-6.7-32.6-11-46.5L1464.9,1035.7z"/></g><g><path fill="#0643a3" d="M1703.9,849.8c4.8,14.9,8.3,29.8,9.8,45.3l-32.6,7.1c11.4,9.9,22.7,19.9,34.1,29.8      c-69.5,202.8-192.8,347.2-275.2,510.5c-56.8-164.5-97.9-330.4-100.7-514.8l39.7-24.1c-5.5-4.5-10.9-9-16.4-13.4      c0,0,53.4-44.1,74.3-60.7c-57.6,158.6-17.8,409.7,20,518.1c39-178.2,211.5-473,183.2-554.8l0,0L1703.9,849.8z"/><path fill="#0643a3" d="M1439.9,1443.5l-0.3-0.8c-67.2-194.5-98.2-353.3-100.7-514.9l0-0.2l0.2-0.1l39.3-23.8      c-1.6-1.3-3.2-2.6-4.7-3.9c-3.7-3-7.5-6.2-11.3-9.2l-0.3-0.3l0.3-0.3c0.5-0.4,53.6-44.3,74.3-60.7l1-0.8l-0.4,1.2      c-55.7,153.6-21.3,398.5,19.6,516.7c17-76.8,58.2-174.2,98.1-268.4c51.9-122.7,100.9-238.6,84.9-284.9l-0.4-1.3l64.9,57.9l0,0.1      c5.3,16.7,8.4,31.1,9.8,45.4l0,0.3l-0.3,0.1l-31.9,6.9c5.5,4.8,11,9.6,16.5,14.4c5.7,5,11.4,10,17,14.9l0.2,0.2l-0.1,0.2      c-43.9,128-109,232.5-172,333.6c-37.4,60-72.8,116.7-103.2,177L1439.9,1443.5z M1339.7,928c2.5,161.3,33.4,319.7,100.4,513.7      c30.3-60.1,65.5-116.5,102.8-176.3c62.9-101,128-205.4,171.9-333.2c-5.6-4.9-11.2-9.8-16.9-14.8c-5.7-5-11.4-10-17-14.9      l-0.5-0.5l33-7.2c-1.4-14.1-4.4-28.4-9.7-44.9l-62.7-56c14.9,47.4-33.8,162.4-85.3,284.2c-40,94.7-81.5,192.6-98.3,269.5      l-0.3,1.2l-0.4-1.2c-16.9-48.3-37.8-136.8-45.8-240.3c-6-77.4-6.5-188.2,25.4-276.9c-20.4,16.3-68.5,56-73,59.7      c3.7,2.9,7.4,6,10.9,8.9c1.7,1.4,3.4,2.8,5.1,4.2l0.4,0.3l-0.4,0.3L1339.7,928z"/></g><g><path fill="#f4a484" d="M1448.6,750.8c5.7,24.4,0,45.9,0,68.9c20.2,30.2,41.7,50.3,69,67.6      c34.5-17.2,107.7-56.1,110.6-107.8c-24.4-47.4-2.9-117.8-4.4-176.7C1565.4,652.2,1507,701.5,1448.6,750.8L1448.6,750.8z"/><path fill="#f4a484" d="M1517.6,887.7l-0.2-0.1c-28.6-18-49.9-38.9-69.1-67.7l-0.1-0.1v-0.1      c0-7.7,0.6-15.3,1.3-22.7c1.3-14.7,2.5-29.9-1.3-46.2l0-0.2l0.2-0.1c29.1-24.6,58.2-49.1,87.2-73.7c29.3-24.8,58.7-49.5,88-74.3      l0.6-0.5l0,0.7c0.5,19.7-1.6,40.9-3.6,61.5c-4.1,41.1-8.2,83.5,8,115l0,0.1l0,0.1c-3.1,54.2-84.1,94.8-110.8,108.1L1517.6,887.7      z M1448.9,819.6c19.1,28.6,40.3,49.4,68.7,67.3c26.7-13.4,107.1-53.7,110.2-107.3c-16.3-31.7-12.1-74.2-8-115.4      c2-20.3,4.1-41.3,3.7-60.7c-29.1,24.6-58.3,49.2-87.4,73.8c-29,24.5-58.1,49-87.1,73.5c3.8,16.3,2.5,31.5,1.2,46.2      C1449.6,804.5,1448.9,812,1448.9,819.6z"/></g><g><path fill="#dfe6ff" d="M897.3,1340.2l28.3,4.3c36.9,22.7,8.1,80.5,1.5,120.6c-12.1-0.7-25.5-4.3-35.4-12.8      C901.6,1438,932.8,1381.3,897.3,1340.2L897.3,1340.2z"/><path fill="#dfe6ff" d="M927.5,1465.4l-0.3,0c-14.4-0.9-27-5.5-35.6-12.9l-0.2-0.2l0.2-0.3      c6.6-9.4,15.7-27,19.8-45.8c5.7-26.2,1-48.3-14.1-65.8l-0.6-0.7l29.4,4.5c28.4,17.5,18,56.1,8.9,90.2      c-2.9,10.9-5.7,21.3-7.3,30.7L927.5,1465.4z M892.2,1452.2c8.4,7.2,20.7,11.6,34.7,12.5c1.6-9.4,4.3-19.7,7.2-30.5      c9.1-33.8,19.3-72.2-8.5-89.4l-27.3-4.1c14.7,17.6,19.3,39.7,13.7,65.7C907.8,1425.1,898.8,1442.7,892.2,1452.2z"/></g><g><path fill="#f4a484" d="M1503.3,1342.9l31.2,9.9l-21.3,102c-16.3-2.8-32.6-6.4-48.1-11.2      c-15.6,4.2-32,6.4-51.1,5.6c-20.8-3.7-43.5-10.3-64.8-16.5c-10.4-2.8-19.9-7.6-30.3-10.4c-7.1-5.7-6.4-12.8-6.4-17.1      c0.9-4.4,3.5-8.4,7.8-9.9c-9.4-5.1-20.8-10.8-21.3-21.3c-0.4-3.9,2.8-8.6,8.4-11.4c-5.4-4.3-18-7.9-18.5-17      c-0.6-5-1.3-10.6,4.3-14.2c-24.1-4.3-48.1-7.1-72.3-12.8c-4.9-3.5-5.6-17,4.3-19.8c37.6-2.8,73.8-2.8,110.6,2.8      c25.9,0.4,51.8,1,73.8-11.4c-8.6-11.9-17-23.6-25.5-35.4c-5.6-15.6-2.8-52.5,21.3-44c7.1,31.9,29.8,53.9,52.5,72.3      C1475,1303.1,1490.6,1321.5,1503.3,1342.9L1503.3,1342.9z"/><path fill="#f4a484" d="M1513.5,1455.2l-0.3-0.1c-18.6-3.2-34.3-6.9-48.1-11.2c-17,4.5-33.2,6.3-51.1,5.6      c-21.4-3.8-45.5-10.8-64.9-16.5c-5.2-1.4-10.3-3.3-15.2-5.2c-4.9-1.9-9.9-3.8-15.1-5.2l-0.1-0.1c-6.6-5.4-6.6-11.9-6.5-16.3      c0-0.4,0-0.8,0-1.1c0.9-4.7,3.6-8.4,7.3-10l-0.8-0.4c-9.2-5-19.5-10.6-20-20.8c-0.4-4.1,2.9-8.6,8.1-11.4      c-1.4-1-3.3-2.1-5.2-3.2c-5.9-3.3-12.6-7-12.9-13.7l0-0.1c-0.6-4.8-1.3-10.3,3.7-13.9c-7.8-1.4-15.7-2.6-23.3-3.8      c-15.8-2.5-32.1-5-48.2-8.9l-0.1-0.1c-2.8-2-4.2-6.9-3.4-11.5c0.8-4.5,3.6-7.8,7.8-8.9c42.3-3.2,77.5-2.3,110.7,2.8l1.4,0      c24.8,0.4,50.4,0.7,71.8-11.1c-4.2-5.8-8.4-11.6-12.5-17.4c-4.2-5.9-8.5-11.8-12.8-17.7l0-0.1c-3.9-10.9-3.9-32.6,5.2-41.7      c4.2-4.2,9.8-5.2,16.6-2.8l0.2,0.1l0,0.2c7,31.7,29.4,53.4,52.4,72.1l0.1,0.2c16.7,19.6,32.5,38.1,45.2,59.5l31.3,10l-0.1,0.3      L1513.5,1455.2z M1465.1,1443.2L1465.1,1443.2c13.8,4.4,29.4,8,47.9,11.2l21.1-101.4l-31-9.8l-0.1-0.1      c-12.7-21.3-28.5-39.9-45.2-59.5l-0.1-0.1c-23.1-18.7-45.4-40.5-52.6-72.3c-6.4-2.2-11.7-1.3-15.6,2.7c-8.8,8.9-8.9,30.1-5,40.9      c4.3,5.9,8.5,11.8,12.7,17.7c4.2,5.9,8.5,11.8,12.8,17.7l0.2,0.3l-0.3,0.2c-21.7,12.2-47.5,11.8-72.5,11.4l-1.4,0      c-33.2-5.1-68.3-6-110.6-2.8c-5.3,1.5-6.8,5.9-7.2,8.4c-0.8,4.3,0.6,8.9,3.1,10.7c16.1,3.8,32.3,6.4,48.1,8.8      c7.9,1.2,16.1,2.5,24.2,4l0.9,0.2l-0.8,0.5c-5.4,3.4-4.7,8.6-4.1,13.7l0,0.1c0.3,6.4,6.8,10,12.6,13.2c2.2,1.2,4.2,2.4,5.8,3.6      l0.4,0.3l-0.5,0.2c-5.3,2.6-8.6,7.1-8.2,11c0.5,9.8,10.6,15.3,19.6,20.2l2.1,1.2l-0.8,0.3c-3.8,1.3-6.7,4.9-7.6,9.6      c0,0.3,0,0.7,0,1c-0.1,4.2-0.1,10.5,6.2,15.7c5.2,1.4,10.2,3.3,15.1,5.2c4.9,1.9,9.9,3.8,15.1,5.2c19.4,5.7,43.4,12.7,64.7,16.5      C1431.8,1449.5,1448,1447.7,1465.1,1443.2L1465.1,1443.2z"/></g><g><path fill="#dfe6ff" d="M1524.4,1348.8l27,4.3l-2.8,130.5c-15.6-4.3-29.8-9.9-44-17      C1514.1,1428.5,1531.5,1390,1524.4,1348.8L1524.4,1348.8z"/><path fill="#dfe6ff" d="M1549,1484.1l-0.4-0.1c-15.1-4.1-29.1-9.5-44.1-17l-0.3-0.1l0.1-0.3      c2.2-9.1,5-18.4,7.7-27.4c8.6-29,17.5-59,12.1-90.2l-0.1-0.5l27.8,4.4l0,0.3L1549,1484.1z M1505.1,1466.5      c14.7,7.3,28.4,12.6,43.2,16.7l2.8-129.7l-26.2-4.2c5.2,31.3-3.6,61.1-12.2,90.1C1510,1448.2,1507.3,1457.4,1505.1,1466.5z"/></g><path fill="#ffbb9b" fill-rule="evenodd" d="M1666.3,477.7c-90.6-10.5-180.4-21.3-270.1-32.1c-29.6,52.4-33,277.3,13.2,333.6     c58.3,70.7,169.9,26.4,201.1-37.4C1643.1,682.5,1682.6,533.7,1666.3,477.7L1666.3,477.7z" clip-rule="evenodd"/><path fill="#060352" fill-rule="evenodd" d="M1577.3,534.4c-56.2-70.3-141.5,13.2-189.1,0.1c-37.9-27.8-217.8-146.8-182.3-233.8     c24.5-52.9,183.1-41.2,241.9-27.4c47.4,9.1,99.9,28.7,139.9,50c42.2,25.6,65.8,65.5,64.8,113.6c27-16.8,97.6,34.4,101.7,59.1     c25.2,73.3-83.5,99.9-115.6,177.8C1601.8,670.6,1590.6,542.5,1577.3,534.4L1577.3,534.4z" clip-rule="evenodd"/><path fill="#ffbb9b" fill-rule="evenodd" d="M1610.5,642.2c-51.8-13.8-50.3-36.2-20.2-69.8c9.1-16.6,29.9-30.6,44.6-10.9     C1644.1,579.7,1622.8,622.7,1610.5,642.2L1610.5,642.2z" clip-rule="evenodd"/></g><g><path fill="#feb542" fill-rule="evenodd" d="M1808.4,1469.4h685.3c15.2,0,27.7,11.7,27.7,25.8V1600c0,14.2-12.6,25.8-27.7,25.8h-685.3      c-12.7,0-23.5-8-26.7-18.8c1.5,0.3,2.9,0.4,4.4,0.4h691c12.6,0,22.9-9.5,22.9-21.2V1509c0-11.5-10.4-21.2-22.9-21.2h-691      c-1.5,0-2.9,0.1-4.4,0.4C1784.9,1477.4,1795.7,1469.4,1808.4,1469.4L1808.4,1469.4z" clip-rule="evenodd"/><path fill="#fff" fill-rule="evenodd" d="M1791.3,1487.8h685.8c12.6,0,22.9,9.6,22.9,21.2v77.3c0,11.7-10.4,21.2-22.9,21.2h-685.8V1487.8z" clip-rule="evenodd"/><path fill="#dfe6ff" fill-rule="evenodd" d="M1791.3,1578h687.4c2.5,0,4.5,1.2,4.5,2.6l0,0c0,1.3-2,2.6-4.5,2.6h-687.4V1578z" clip-rule="evenodd"/><path fill="#dfe6ff" fill-rule="evenodd" d="M1791.3,1591.2h687.4c2.5,0,4.5,1.2,4.5,2.6l0,0c0,1.5-2,2.6-4.5,2.6h-687.4V1591.2z" clip-rule="evenodd"/><path fill="#dfe6ff" fill-rule="evenodd" d="M1791.3,1537.6h687.4c2.5,0,4.5,1.2,4.5,2.6l0,0c0,1.5-2,2.6-4.5,2.6h-687.4V1537.6z" clip-rule="evenodd"/><path fill="#dfe6ff" fill-rule="evenodd" d="M1791.3,1550.7h687.4c2.5,0,4.5,1.2,4.5,2.6l0,0c0,1.5-2,2.6-4.5,2.6h-687.4V1550.7z" clip-rule="evenodd"/><path fill="#dfe6ff" fill-rule="evenodd" d="M1791.3,1564.5h687.4c2.5,0,4.5,1.2,4.5,2.6l0,0c0,1.5-2,2.6-4.5,2.6h-687.4V1564.5z" clip-rule="evenodd"/><path fill="#dfe6ff" fill-rule="evenodd" d="M1791.3,1498.8h687.4c2.5,0,4.5,1.2,4.5,2.6l0,0c0,1.5-2,2.6-4.5,2.6h-687.4V1498.8z" clip-rule="evenodd"/><path fill="#dfe6ff" fill-rule="evenodd" d="M1791.3,1511.9h687.4c2.5,0,4.5,1.2,4.5,2.6l0,0c0,1.5-2,2.6-4.5,2.6h-687.4V1511.9z" clip-rule="evenodd"/><path fill="#dfe6ff" fill-rule="evenodd" d="M1791.3,1525.8h687.4c2.5,0,4.5,1.2,4.5,2.6l0,0c0,1.5-2,2.6-4.5,2.6h-687.4V1525.8z" clip-rule="evenodd"/><polygon fill="#6799fe" fill-rule="evenodd" points="1942.9 1485.2 1990.2 1485.2 1990.2 1556.4 1982.2 1551.9 1966.5 1543.4 1951.1 1551.9 1942.9 1556.4" clip-rule="evenodd"/><path fill="#42c5a0" fill-rule="evenodd" d="M2507.3,1625.9H1677c-18.5,0-33.7,11.7-33.7,25.8v104.7c0,14.2,15.2,25.8,33.7,25.8h830.3      c15.3,0,28.3-8,32.4-18.8c-1.8,0.3-3.7,0.4-5.4,0.4h-837.2c-15.3,0-27.7-9.6-27.7-21.2v-77.3c0-11.7,12.4-21.2,27.7-21.2h837.2      c1.8,0,3.7,0.1,5.4,0.4C2535.6,1634,2522.6,1625.9,2507.3,1625.9L2507.3,1625.9z" clip-rule="evenodd"/><path fill="#fff" fill-rule="evenodd" d="M2527.9,1644.3h-830.8c-15.3,0-27.7,9.5-27.7,21.2v77.3c0,11.5,12.4,21.2,27.7,21.2h830.8V1644.3z" clip-rule="evenodd"/><path fill="#dfe6ff" fill-rule="evenodd" d="M2527.9,1734.4h-832.7c-3.1,0-5.5,1.2-5.5,2.6l0,0c0,1.5,2.5,2.6,5.5,2.6h832.7V1734.4z" clip-rule="evenodd"/><path fill="#dfe6ff" fill-rule="evenodd" d="M2527.9,1747.7h-832.7c-3.1,0-5.5,1.2-5.5,2.6l0,0c0,1.5,2.5,2.6,5.5,2.6h832.7V1747.7z" clip-rule="evenodd"/><path fill="#dfe6ff" fill-rule="evenodd" d="M2527.9,1694.1h-832.7c-3.1,0-5.5,1.2-5.5,2.6l0,0c0,1.5,2.5,2.6,5.5,2.6h832.7V1694.1z" clip-rule="evenodd"/><path fill="#dfe6ff" fill-rule="evenodd" d="M2527.9,1707.3h-832.7c-3.1,0-5.5,1.2-5.5,2.6l0,0c0,1.5,2.5,2.6,5.5,2.6h832.7V1707.3z" clip-rule="evenodd"/><path fill="#dfe6ff" fill-rule="evenodd" d="M2527.9,1721h-832.7c-3.1,0-5.5,1.2-5.5,2.6l0,0c0,1.5,2.5,2.6,5.5,2.6h832.7V1721z" clip-rule="evenodd"/><path fill="#dfe6ff" fill-rule="evenodd" d="M2527.9,1655.3h-832.7c-3.1,0-5.5,1.2-5.5,2.6l0,0c0,1.5,2.5,2.6,5.5,2.6h832.7V1655.3z" clip-rule="evenodd"/><path fill="#dfe6ff" fill-rule="evenodd" d="M2527.9,1668.4h-832.7c-3.1,0-5.5,1.2-5.5,2.6l0,0c0,1.5,2.5,2.6,5.5,2.6h832.7V1668.4z" clip-rule="evenodd"/><path fill="#dfe6ff" fill-rule="evenodd" d="M2527.9,1682.3h-832.7c-3.1,0-5.5,1.2-5.5,2.6l0,0c0,1.3,2.5,2.6,5.5,2.6h832.7V1682.3z" clip-rule="evenodd"/><polygon fill="#ea718b" fill-rule="evenodd" points="2418.5 1644.9 2370.6 1644.9 2370.6 1716.2 2378.8 1711.7 2394.6 1703.1 2410.3 1711.7 2418.5 1716.2" clip-rule="evenodd"/><g><path fill="#8183f1" fill-rule="evenodd" d="M1768.4,1781h839.4c18.7,0,34,11.5,34,25.7v104.9c0,14.2-15.3,25.7-34,25.7h-839.4      c-15.6,0-28.8-7.9-32.9-18.7c1.8,0.1,3.7,0.3,5.4,0.3h846.6c15.5,0,28-9.5,28-21.2v-77.1c0-11.7-12.6-21.2-28-21.2h-846.6      c-1.8,0-3.7,0.1-5.4,0.4C1739.6,1789.1,1752.7,1781,1768.4,1781L1768.4,1781z" clip-rule="evenodd"/><path fill="#fff" fill-rule="evenodd" d="M1747.3,1799.4h840.1c15.5,0,28,9.5,28,21.2v77.1c0,11.7-12.6,21.2-28,21.2h-840.1V1799.4z" clip-rule="evenodd"/><path fill="#dfe6ff" fill-rule="evenodd" d="M1747.3,1889.5h842c3.1,0,5.5,1.2,5.5,2.6l0,0c0,1.5-2.5,2.6-5.5,2.6h-842V1889.5z" clip-rule="evenodd"/><path fill="#dfe6ff" fill-rule="evenodd" d="M1747.3,1902.7h842c3.1,0,5.5,1.2,5.5,2.6l0,0c0,1.5-2.5,2.6-5.5,2.6h-842V1902.7z" clip-rule="evenodd"/><path fill="#dfe6ff" fill-rule="evenodd" d="M1747.3,1849.1h842c3.1,0,5.5,1.3,5.5,2.6l0,0c0,1.5-2.5,2.6-5.5,2.6h-842V1849.1z" clip-rule="evenodd"/><path fill="#dfe6ff" fill-rule="evenodd" d="M1747.3,1862.2h842c3.1,0,5.5,1.3,5.5,2.6l0,0c0,1.5-2.5,2.6-5.5,2.6h-842V1862.2z" clip-rule="evenodd"/><path fill="#dfe6ff" fill-rule="evenodd" d="M1747.3,1876.1h842c3.1,0,5.5,1.2,5.5,2.6l0,0c0,1.5-2.5,2.6-5.5,2.6h-842V1876.1z" clip-rule="evenodd"/><path fill="#dfe6ff" fill-rule="evenodd" d="M1747.3,1810.4h842c3.1,0,5.5,1.2,5.5,2.6l0,0c0,1.5-2.5,2.6-5.5,2.6h-842V1810.4z" clip-rule="evenodd"/><path fill="#dfe6ff" fill-rule="evenodd" d="M1747.3,1823.5h842c3.1,0,5.5,1.2,5.5,2.6l0,0c0,1.5-2.5,2.6-5.5,2.6h-842V1823.5z" clip-rule="evenodd"/><path fill="#dfe6ff" fill-rule="evenodd" d="M1747.3,1837.3h842c3.1,0,5.5,1.2,5.5,2.6l0,0c0,1.5-2.5,2.6-5.5,2.6h-842V1837.3z" clip-rule="evenodd"/><polygon fill="#feb542" fill-rule="evenodd" points="1856.9 1799.4 1898.8 1799.4 1898.8 1870.7 1891.6 1866.2 1877.8 1857.6 1864 1866.2 1856.9 1870.7" clip-rule="evenodd"/></g><g><path fill="#ea718b" fill-rule="evenodd" d="M2571.4,1315h-695.3c-15.5,0-28.2,11.5-28.2,25.7v104.9c0,14.2,12.7,25.7,28.2,25.7h695.3      c12.9,0,23.8-8,27.2-18.8c-1.5,0.3-2.9,0.4-4.5,0.4h-701.1c-12.7,0-23.2-9.5-23.2-21.2v-77.1c0-11.7,10.5-21.2,23.2-21.2H2594      c1.6,0,3.1,0.1,4.5,0.3C2595.2,1322.9,2584.3,1315,2571.4,1315L2571.4,1315z" clip-rule="evenodd"/><path fill="#fff" fill-rule="evenodd" d="M2588.8,1333.4h-695.8c-12.7,0-23.2,9.5-23.2,21.2v77.1c0,11.7,10.5,21.2,23.2,21.2h695.8V1333.4z" clip-rule="evenodd"/><path fill="#dfe6ff" fill-rule="evenodd" d="M2588.8,1423.5h-697.5c-2.5,0-4.5,1.2-4.5,2.6l0,0c0,1.5,2,2.6,4.5,2.6h697.5V1423.5z" clip-rule="evenodd"/><path fill="#dfe6ff" fill-rule="evenodd" d="M2588.8,1436.7h-697.5c-2.5,0-4.5,1.2-4.5,2.6l0,0c0,1.5,2,2.6,4.5,2.6h697.5V1436.7z" clip-rule="evenodd"/><path fill="#dfe6ff" fill-rule="evenodd" d="M2588.8,1383.1h-697.5c-2.5,0-4.5,1.2-4.5,2.6l0,0c0,1.5,2,2.6,4.5,2.6h697.5V1383.1z" clip-rule="evenodd"/><path fill="#dfe6ff" fill-rule="evenodd" d="M2588.8,1396.2h-697.5c-2.5,0-4.5,1.2-4.5,2.6l0,0c0,1.5,2,2.6,4.5,2.6h697.5V1396.2z" clip-rule="evenodd"/><path fill="#dfe6ff" fill-rule="evenodd" d="M2588.8,1410.1h-697.5c-2.5,0-4.5,1.2-4.5,2.6l0,0c0,1.5,2,2.6,4.5,2.6h697.5V1410.1z" clip-rule="evenodd"/><path fill="#dfe6ff" fill-rule="evenodd" d="M2588.8,1344.4h-697.5c-2.5,0-4.5,1.2-4.5,2.6l0,0c0,1.3,2,2.6,4.5,2.6h697.5V1344.4z" clip-rule="evenodd"/><path fill="#dfe6ff" fill-rule="evenodd" d="M2588.8,1357.5h-697.5c-2.5,0-4.5,1.2-4.5,2.6l0,0c0,1.5,2,2.6,4.5,2.6h697.5V1357.5z" clip-rule="evenodd"/><path fill="#dfe6ff" fill-rule="evenodd" d="M2588.8,1371.3h-697.5c-2.5,0-4.5,1.2-4.5,2.6l0,0c0,1.5,2,2.6,4.5,2.6h697.5V1371.3z" clip-rule="evenodd"/><polygon fill="#2c7efe" fill-rule="evenodd" points="2435 1330.8 2387 1330.8 2387 1402.1 2395.1 1397.6 2410.9 1388.9 2426.7 1397.6 2435 1402.1" clip-rule="evenodd"/></g></g><g><path fill="#6767fd" fill-rule="evenodd" d="M396.5,1798.3h90.4c15.3,0,28,12.7,28,28.4l0,0c0,15.3-12.7,28-28,28h-90.4c-15.7,0-28.4-12.7-28.4-28l0,0     C368.1,1811,380.8,1798.3,396.5,1798.3L396.5,1798.3z" clip-rule="evenodd"/><path fill="#ea718b" fill-rule="evenodd" d="M442.8,1583.9L442.8,1583.9h-1.1h-0.4h-0.7h-0.4c-12.3,0-25,0-37.7,1.1l0,0c-13.8,1.5-27.3,3.7-39.6,9     c-31.4,21.3-71.3,116.1-65.3,152.7c7.8,21.7,63.9,19.4,104.9,24.6v5.2h70.2v-4.1c41.5-6.7,104.6-2.6,112.8-25.8     c6.3-36.6-33.6-131.4-65-152.7C496.2,1584.3,468.6,1583.9,442.8,1583.9L442.8,1583.9z" clip-rule="evenodd"/><path fill="#2db58b" fill-rule="evenodd" d="M313.2,1928.6l-9.3-26.1c-3.7-3-14.2-4.9-19-5.2c-16.8,1.1-48.2,0.7-48.9,12.3     c-0.7,16.4,39.6,23.9,52.7,22.8L313.2,1928.6z" clip-rule="evenodd"/><path fill="#ff9866" fill-rule="evenodd" d="M336.7,1922.3l-9.7-28.4l-22.8,9.3c-3.4,10.5,1.5,19.8,9,25.4L336.7,1922.3z" clip-rule="evenodd"/><path fill="#2db58b" fill-rule="evenodd" d="M333.4,1927.9c-8.2-10.1-14.9-22-15.3-35.8c56.8-19.8,287.2-146.4,324.1-105.7     C687.8,1848.3,412.9,1900.2,333.4,1927.9L333.4,1927.9z" clip-rule="evenodd"/><path fill="#42c5a0" fill-rule="evenodd" d="M569.7,1928.6l9.3-26.1c3.7-3,14.6-4.9,19.4-5.2c16.8,1.1,47.8,0.7,48.5,12.3c1.1,16.4-39.6,23.9-52.3,22.8     L569.7,1928.6z" clip-rule="evenodd"/><path fill="#ff9866" fill-rule="evenodd" d="M546.2,1922.3l9.7-28.4l22.8,9.3c3.7,10.5-1.1,19.8-9,25.4L546.2,1922.3z" clip-rule="evenodd"/><path fill="#42c5a0" fill-rule="evenodd" d="M550,1927.9c7.8-10.1,14.6-22,14.9-35.8c-56.8-19.8-286.8-146.4-323.8-105.7     C195.6,1848.3,470.4,1900.2,550,1927.9L550,1927.9z" clip-rule="evenodd"/><path fill="#62cbec" fill-rule="evenodd" d="M349.4,1680.3h184.5c5.6,0,10.5,4.9,10.5,10.5v123.6c0,6-4.9,10.5-10.5,10.5H349.4c-6,0-10.5-4.5-10.5-10.5     v-123.6C339,1685.1,343.5,1680.3,349.4,1680.3L349.4,1680.3z" clip-rule="evenodd"/><path fill="#fff" fill-rule="evenodd" d="M441.7,1734.4c0,0,0.4,0,0.7,0c-0.4,1.1-0.4,2.2-0.4,3.4c0,8.2,6.3,14.6,14.6,14.6c1.1,0,1.9,0,3-0.4     c0,0.4,0,0.4,0,0.7c0,9.7-7.8,17.9-17.9,17.9c-10.1,0-18.3-8.2-18.3-17.9C423.4,1742.6,431.6,1734.4,441.7,1734.4L441.7,1734.4z" clip-rule="evenodd"/><path fill="#ff9866" fill-rule="evenodd" d="M418.9,1552.6c0.4,16.1,0.4,31.7,0.7,47.8c12.7,18.7,37.3,15.3,48.2,0l-1.9-50.8L418.9,1552.6z" clip-rule="evenodd"/><path fill="#ffaa81" fill-rule="evenodd" d="M442.4,1480.1l-51.9-0.7c8.6,52.3,0.4,104.6,51.2,108.7l0,0c0.4,0,0.4,0,0.7,0h0.4l0,0     c51.2-4.1,42.6-56.4,51.2-108.7L442.4,1480.1z" clip-rule="evenodd"/><path fill="#060352" fill-rule="evenodd" d="M489.5,1518.2c11.9-19.4,17.6-36.6,16.1-50c1.1-1.9,1.9-4.1,1.9-6.3c0-6-4.5-11.2-11.9-13.8     c-6.3-6-15.7-10.1-28.4-12.3c-4.1-4.9-11.9-8.2-20.9-8.2c-7.8,0-14.9,2.6-19,6.7c-8.2,0.4-14.9,1.1-20.9,3     c-1.9-0.4-3.4-0.4-5.2-0.4c-13.1,0-23.5,6.7-23.5,15.3c0,1.9,0.4,3.7,1.1,5.2c-1.5,3-2.2,6.3-3,9.7c0,0,1.5,6,2.2,7.1     c0.7,1.1,0.4,12.7,0.4,13.4c0.4,1.1-0.4,8.2,2.2,10.5c3.7,8.6,9,17.2,14.9,24.6c11.2-12.3,3-40,33.6-37.3c10.8,0,11.6-6,20.2-1.1     c7.8-11.2,12.3,4.5,29.5,0C487.6,1485,479.4,1501.8,489.5,1518.2L489.5,1518.2z" clip-rule="evenodd"/></g></svg>