<svg xmlns="http://www.w3.org/2000/svg" viewBox="-17.961 -30.99 2835.825 2062.018" xmlns:v="https://vecta.io/nano"><style><![CDATA[.B{fill:#fff}.C{fill-rule:evenodd}.D{fill:#dfe6ff}.E{fill:#61ea75}.F{fill:#ea718b}.G{fill:#2c7efe}.H{fill:#0643a3}.I{fill:#f4a484}.J{fill:#42c5a0}.K{fill:#ff9866}]]></style><g class="C"><path fill="#d5f0ff" d="M452.3 573.5c155.1-293 600.6-492.5 1117.6-471.1 633.5 26.3 1134.5 374.6 1118.7 778-7.5 196.7-137 370.3-341 493.2-155.1 293.3-600.4 492.8-1117.3 471.1-633.7-26.3-1134.7-374.6-1119-777.8 7.8-196.6 137.1-370.3 341-493.4h0z"/><path fill="#ffc328" d="M2312.7 570.4c43.6 34.5 10.4 112.9-26.8 159.8s-94.3 68.4-149.6 62.5c-18.4-52.5-10.3-113 26.8-159.8 37.2-46.8 106.1-97.1 149.6-62.5h0z"/><path fill="#6686f9" d="M2207.9 317.2c49.4 25.6 31.8 108.9 4.3 162-27.4 53-79.2 85.2-134.7 90-28.1-47.9-31.8-108.8-4.4-162 27.5-53 85.4-115.5 134.8-90h0z"/><path fill="#be96f8" d="M1810.7 475.4c19.5-52.1 104.4-44.4 160.4-23.4 55.9 21 94 68.7 105.3 123.1-44.3 33.6-104.4 44.5-160.4 23.6-55.9-21-124.8-71.1-105.3-123.3h0z"/><path fill="#f993bc" d="M1675.8 217.1c27.3-53.6 117.4-35.2 175-6 57.6 29.3 92.8 85 98.4 144.9-51.6 30.8-117.4 35.2-175 6s-125.6-91.3-98.4-144.9h0z"/><path d="M1869 701.3c21-51.4 105.6-41.5 160.9-18.9 55.4 22.6 92.1 71.3 101.8 126.1-45.3 32.4-105.6 41.5-161 19-55.2-22.6-122.7-74.6-101.7-126.2h0z" class="E"/></g><g class="B"><path d="M2135.1 927.8h-.4c-2.5-.1-4.3-2.2-4.2-4.7 13.4-242.8-86.9-544-304.4-649.9-2.2-1.1-3.1-3.7-2.1-5.9 1.1-2.2 3.7-3.1 5.9-2.1 105.3 51.2 190.3 149.5 245.9 284.2 47.2 114.3 70.3 250.7 63.5 374.2 0 2.3-1.9 4.1-4.2 4.2z"/><path d="M2080.3 582.6l-5.9-3.3-18.7-10.5c-57.1-32.2-111.1-62.7-186.2-71.1-2.4-.3-4.2-2.5-3.9-4.9s2.5-4.2 4.9-3.9c76.9 8.6 131.6 39.5 189.6 72.2l12.8 7.2c8.3-69.6 26.7-121.1 62.6-176.2 1.3-2.1 4.1-2.6 6.2-1.3s2.6 4.1 1.3 6.2c-36.8 56.3-54.1 106.5-62 179l-.7 6.6zm56.1 230.2l-5.7-5.8c-38.4-38.9-85.1-81.4-153.6-93.2-2.4-.4-4-2.7-3.6-5.1s2.7-4 5.1-3.6c67.7 11.8 114.5 51.9 152.8 90.1 14.3-55.2 48.6-113.4 92.9-157.3 1.7-1.7 4.6-1.7 6.3 0s1.7 4.6 0 6.3c-45.2 44.8-79.7 104.9-92.4 160.8l-1.8 7.8z"/></g><g class="C"><path fill="#ffc328" d="M2477.2 723.6c16 53.3-56.1 98.6-113.4 115.7-57.3 17.2-116.5 2.2-158.4-34.3 14.9-53.6 56.3-98.6 113.4-115.7 57.3-17.2 142.5-19 158.4 34.3h0z"/><path fill="#6686f9" d="M2536.1 456c25.9 49.2-36.2 107.6-89.1 135.3-52.8 27.8-113.7 24.6-161.9-3.3 4.3-55.4 36.2-107.5 89-135.4 52.8-27.7 136.1-45.8 162 3.4h0z"/><path fill="#be96f8" d="M2119.8 358.5c45.8-31.5 111 23.3 144.9 72.5s37.8 110.1 15.9 161.2c-55.6 2.3-111.1-23.2-145-72.4-33.8-49.2-61.6-129.6-15.8-161.3h0z"/><path fill="#f993bc" d="M2156.9 69.5c53-28.4 116.5 38.3 147 95.2 30.5 57 27.5 122.8-2.2 175.2-60-4.3-116.5-38.3-147-95.2-30.5-57.1-50.7-146.8 2.2-175.2h0z"/><path d="M2038.4 577.2c46.7-30.2 110.3 26.4 142.7 76.6 32.5 50.2 34.7 111.1 11.4 161.7-55.7.7-110.3-26.4-142.9-76.5-32.4-50.3-57.9-131.6-11.2-161.8h0z" class="E"/></g><g class="B"><path d="M2127.1 915.1c-.1-.1-.2-.2-.3-.2-1.9-1.5-2.3-4.3-.8-6.2 149.9-191.5 240-495.9 122.1-707.1-1.2-2.1-.4-4.9 1.7-6.1s4.9-.4 6.1 1.7c57 102.2 70.6 231.5 39.1 373.7-26.7 120.7-85.7 245.9-162 343.3-1.4 1.8-4 2.2-5.9.9z"/><path d="M2279.7 600.7l-2.9-6-9.3-19.3c-28.4-59.1-55.3-115-112.1-164.8-1.8-1.6-2-4.4-.4-6.3 1.6-1.8 4.4-2 6.3-.4 58.1 51 85.4 107.7 114.2 167.7l6.4 13.2c46.6-52.3 91.1-84 152.2-108.7 2.3-.9 4.9.2 5.8 2.5s-.2 4.9-2.5 5.8c-62.4 25.2-105.3 56.4-153.2 111.3l-4.5 5zM2194 821.6l-1.4-8c-9.2-53.9-23.3-115.4-72.6-164.3-1.7-1.7-1.8-4.5 0-6.3 1.7-1.7 4.5-1.8 6.3 0 48.8 48.4 64.2 108 73.8 161.3 43.3-37 104.8-65.2 166.2-75.9 2.4-.4 4.7 1.2 5.2 3.6.4 2.4-1.2 4.7-3.6 5.2-62.7 10.9-125.4 40.5-167.7 79l-6.2 5.4z"/></g><g fill="#38c551"><path d="M616.1 115.2c141 32.4 278.1 139.7 360.5 299.1s90.6 333.2 35.6 467.1c-141-32.5-278.1-139.7-360.5-299.1s-90.6-333.4-35.6-467.1h0z" class="C"/><path d="M1013.8 884.2l-2.1-.5c-147.1-33.9-282.5-146.2-362.2-300.4-79.8-154.3-93.1-329.6-35.7-469.2l.8-2 2.1.5c147 33.8 282.4 146.1 362.2 300.4 79.7 154.2 93.1 329.6 35.7 469.2l-.8 2zM617.6 118.1c-55.9 137.9-42.4 310.8 36.4 463 78.7 152.2 211.9 263.2 356.8 297.3 55.9-137.9 42.3-310.8-36.4-463s-212-263.2-356.8-297.3z"/></g><g class="B"><path d="M1013.4 883.5c-1.2.6-2.7.2-3.4-1.1L613.9 116.3c-.6-1.2-.2-2.7 1.1-3.4 1.2-.6 2.7-.2 3.4 1.1l396.2 766.2c.6 1.2.1 2.7-1.2 3.3z"/><path d="M686.2 250.7a3.08 3.08 0 0 1-1.3.3c-1.4-.1-2.4-1.3-2.3-2.7l8.6-107.7c.1-1.4 1.3-2.4 2.7-2.3s2.4 1.3 2.3 2.7l-8.6 107.7c-.1.8-.7 1.6-1.4 2zm50.2 97.1c-.6.3-1.4.4-2.1.1l-154-61.5c-1.3-.5-1.9-2-1.4-3.3s2-1.9 3.3-1.4l154 61.5c1.3.5 1.9 2 1.4 3.3-.2.6-.7 1.1-1.2 1.3zm53.1 102.7c-.6.3-1.2.4-1.9.2-1.3-.4-2.1-1.8-1.6-3.1l63.7-201.5c.4-1.3 1.8-2 3.1-1.6s2.1 1.8 1.6 3.1l-63.7 201.5c-.1.6-.6 1.1-1.2 1.4zM872 610.1c-.6.3-1.4.4-2.1.1L614.3 500.1c-1.3-.5-1.9-2-1.3-3.3.5-1.3 2-1.9 3.3-1.3l255.6 110.1c1.3.5 1.9 2 1.3 3.3-.3.5-.7.9-1.2 1.2zm58.8 113.6c-.6.3-1.3.4-1.9.2-1.3-.4-2-1.8-1.6-3.1l76.7-241.1c.4-1.3 1.8-2 3.1-1.6s2 1.8 1.6 3.1l-76.7 241c-.2.7-.6 1.2-1.2 1.5zm42.6 82.5c-.6.3-1.2.4-1.8.2L772 748.6c-1.3-.4-2.1-1.8-1.7-3.1s1.8-2.1 3.1-1.7L973 801.6c1.3.4 2.1 1.8 1.7 3.1-.2.7-.7 1.2-1.3 1.5z"/></g><g class="E"><path d="M217.1 670.1c116.1-86.3 286.6-121.2 461.4-80.7C853.4 630 991 736.4 1057.4 865 941.2 951.3 770.8 986.2 596 945.7c-174.9-40.6-312.6-147-378.9-275.6h0z" class="C"/><path d="M1060.6 865.7l-1.7 1.3c-121.2 90-294.4 120.3-463.5 81.1C426.2 908.9 284 805.4 214.9 671.2l-1-1.9 1.7-1.3c121.1-90 294.4-120.3 463.5-81 169.1 39.2 311.3 142.7 380.4 276.9l1.1 1.8zM220.3 670.8c68.8 131.9 209.2 233.7 376.1 272.4s337.8 9.2 457.7-79C985.3 732.3 844.9 630.6 678 591.8c-166.9-38.7-337.8-9.1-457.7 79z"/></g><g class="B"><path d="M1059.8 865.6c-.3 1.3-1.7 2.2-3 1.9l-840.2-195c-1.3-.3-2.2-1.7-1.9-3s1.7-2.2 3-1.9l840.2 194.9c1.4.4 2.2 1.7 1.9 3.1z"/><path d="M365.7 704.6c-.1.4-.3.9-.7 1.2-1 1-2.6 1-3.5 0L285 629.4c-1-1-1-2.6 0-3.5 1-1 2.6-1 3.5 0l76.5 76.3c.7.7.9 1.5.7 2.4zm106.6 24.7c-.2.7-.6 1.3-1.3 1.6l-146.6 77.4c-1.2.6-2.7.2-3.4-1-.6-1.2-.2-2.7 1-3.4l146.6-77.4c1.2-.6 2.7-.2 3.4 1 .4.6.4 1.2.3 1.8zm112.6 26.1c-.1.6-.5 1.2-1.1 1.6-1.2.7-2.7.4-3.5-.8L468.2 577.1c-.7-1.2-.4-2.7.8-3.5 1.2-.7 2.7-.4 3.5.8l112.1 179.1c.4.6.5 1.3.3 1.9zm175 40.6c-.2.7-.6 1.3-1.3 1.7L509.1 920.9c-1.2.6-2.7.1-3.4-1.1-.6-1.2-.1-2.7 1.1-3.4l249.5-123.3c1.2-.6 2.7-.1 3.4 1.1.3.6.3 1.2.2 1.8zm124.6 28.9c-.1.6-.5 1.2-1.1 1.6-1.2.7-2.7.4-3.5-.8L746 611c-.7-1.2-.4-2.7.8-3.5 1.2-.7 2.7-.4 3.5.8L884.2 823c.3.6.4 1.3.3 1.9zm90.5 21c-.1.6-.5 1.2-1.1 1.5L800.5 961.9c-1.2.8-2.7.4-3.5-.7-.8-1.2-.4-2.7.7-3.5l173.4-114.5c1.2-.8 2.7-.4 3.5.7.4.6.5 1.3.4 2z"/></g><g fill="#38c551"><path d="M1502.2 331.2c0 120.8-61.7 252.5-176.1 349.4-114.3 96.9-254.3 136.1-373.6 116.4.1-120.9 61.7-252.5 176.1-349.4s254.4-136.2 373.6-116.4h0z" class="C"/><path d="M950.5 798.7v-1.8c.1-126.1 66.2-257.3 176.8-351 110.7-93.8 250.9-137.5 375.2-116.8l1.8.3v1.8c0 126-66.1 257.2-176.8 351-110.6 93.7-250.9 137.4-375.2 116.8l-1.8-.3zM1500.1 333c-122.7-19.7-260.9 23.6-370.1 116.2-109.1 92.5-174.6 221.7-175.3 346 122.7 19.7 261-23.7 370.1-116.2 109.2-92.5 174.6-221.8 175.3-346z"/></g><g class="B"><path d="M951 798.3c-.7-.9-.6-2.2.2-2.9l549.6-465.8c.9-.7 2.2-.6 2.9.2.7.9.6 2.2-.2 2.9L953.9 798.6c-.9.7-2.2.6-2.9-.3z"/><path d="M1405 413.6c-.2-.3-.4-.6-.5-1-.2-1.1.6-2.2 1.8-2.4l89.3-13.2c1.1-.2 2.2.6 2.4 1.8.2 1.1-.6 2.2-1.8 2.4l-89.3 13.2c-.8 0-1.5-.3-1.9-.8zm-69.7 59c-.4-.4-.6-1.1-.5-1.7l21.3-136.8c.2-1.1 1.2-1.9 2.4-1.7 1.1.2 1.9 1.2 1.7 2.4l-21.3 136.8c-.2 1.1-1.2 1.9-2.4 1.7-.5 0-.9-.3-1.2-.7zm-73.7 62.5c-.3-.4-.5-.9-.5-1.5.1-1.2 1.1-2 2.3-1.9l175.9 14.2c1.2.1 2 1.1 1.9 2.3s-1.1 2-2.3 1.9L1263 535.8c-.5 0-1-.3-1.4-.7zm-114.4 97c-.4-.5-.6-1.1-.5-1.7l41.8-228.6c.2-1.1 1.3-1.9 2.4-1.7s1.9 1.3 1.7 2.4l-41.8 228.6c-.2 1.1-1.3 1.9-2.4 1.7-.5-.1-.9-.4-1.2-.7zm-81.6 69c-.3-.4-.5-.9-.5-1.5.1-1.2 1.1-2 2.3-1.9L1278 715c1.2.1 2 1.1 1.9 2.3s-1.1 2-2.3 1.9L1067 701.9c-.5-.1-1-.3-1.4-.8zm-59.1 50.2c-.3-.4-.5-.9-.5-1.5l9.7-173.3c.1-1.2 1.1-2 2.2-2 1.2.1 2 1.1 2 2.2l-9.7 173.3c-.1 1.2-1.1 2-2.2 2-.7 0-1.2-.3-1.5-.7z"/></g><g class="E"><path d="M975.8 110.2c92 78.3 152.3 210.7 152 360.5-.3 149.9-61.2 281.9-153.5 359.9-92-78.4-152.3-210.7-152-360.5.3-149.9 61.2-282 153.5-359.9h0z" class="C"/><path d="M974.3 833.3l-1.4-1.2c-95.9-81.7-153-217.1-152.7-362 .3-145 58-280.2 154.2-361.5l1.4-1.1 1.4 1.2c95.9 81.7 153 217.1 152.7 362.1s-58 280.1-154.2 361.5l-1.4 1zm1.5-720.4c-94.5 80.6-151.1 214-151.4 357.1s55.7 276.7 149.9 357.8c94.5-80.7 151.1-214.1 151.4-357.1.3-143.1-55.7-276.7-149.9-357.8z"/></g><g class="B"><path d="M974.3 832.7c-1.2 0-2.1-.9-2.1-2.1l1.5-720.4c0-1.2.9-2.1 2.1-2.1s2.1.9 2.1 2.1l-1.5 720.4c0 1.2-1 2.1-2.1 2.1z"/><path d="M975.5 237.6c-.4 0-.8-.1-1.1-.3-1-.6-1.3-1.9-.7-2.9l47.8-76.6c.6-1 1.9-1.3 2.9-.7s1.3 1.9.7 2.9l-47.8 76.6c-.4.6-1.1 1-1.8 1zm-.1 91.3c-.6 0-1.2-.2-1.6-.7l-90.4-104.9c-.8-.9-.7-2.2.2-3s2.2-.7 2.9.2l90.4 104.9c.8.9.7 2.2-.2 3-.4.4-.9.5-1.3.5zm-.2 96.6c-.5 0-1.1-.2-1.5-.6-.8-.8-.8-2.1 0-3l124.8-124.8c.8-.8 2.1-.8 3 0 .8.8.8 2.1 0 3L976.6 424.9c-.4.4-.9.6-1.4.6zm-.4 150c-.6 0-1.2-.3-1.6-.8l-147-180c-.7-.9-.6-2.2.3-2.9s2.2-.6 2.9.3l147 180c.7.9.6 2.2-.3 2.9-.3.4-.8.5-1.3.5zm-.2 106.9c-.5 0-1.1-.2-1.5-.6-.8-.8-.8-2.1 0-3l149.7-149.1c.8-.8 2.1-.8 3 0 .8.8.8 2.1 0 3L976.1 681.8c-.4.4-1 .6-1.5.6zm-.2 77.6c-.5 0-1-.2-1.4-.6L847.4 639.6c-.8-.8-.9-2.1-.1-3 .8-.8 2.1-.9 3-.1l125.6 119.7c.8.8.9 2.1.1 3-.4.5-1 .8-1.6.8z"/></g><g class="C"><path d="M593.5 705.7h1651.2c32.2 0 58.4 26.2 58.4 58.4v960.8c0 32.2-26.2 58.4-58.4 58.4H593.5c-32.2 0-58.4-26.2-58.4-58.4V764c0-32.1 26.2-58.3 58.4-58.3h0z" class="G"/><path d="M474.8 1764.2h762c1.9 11.7 16 20.7 33 20.7h298.5c17 0 31.1-8.9 33-20.7h762c18.3 0 33.2 10.7 33.2 23.4v90.5c0 12.8-14.9 23.4-33.2 23.4H474.8c-18.3 0-33.2-10.7-33.2-23.4v-90.5c0-12.7 14.9-23.4 33.2-23.4h0z" class="H"/><path fill="#62cbec" d="M663.3 800.5h1511.5c27.7 0 50.5 22.6 50.5 50.5v834.2c0 27.9-22.8 50.5-50.5 50.5H663.3c-27.9 0-50.5-22.6-50.5-50.5V851c.1-27.9 22.6-50.5 50.5-50.5h0z"/></g><g fill="#221814"><path d="M785.2 1315.5c8.9 0 16.1-6.6 16.1-14.5s-7.2-14.4-16.1-14.4c-8.8 0-16 6.5-16 14.4s7.2 14.5 16 14.5h0z"/><path d="M785.2 1315.8c-9 0-16.4-6.7-16.4-14.9 0-8.1 7.3-14.8 16.4-14.8s16.5 6.6 16.5 14.8c-.1 8.3-7.4 14.9-16.5 14.9zm0-28.9c-8.6 0-15.7 6.3-15.7 14.1s7 14.2 15.7 14.2 15.8-6.4 15.8-14.2c-.1-7.8-7.1-14.1-15.8-14.1z"/></g><g class="H"><path d="M917.1 1528c-8.2-53.9-44.6-132.7 7.1-181.5l55.2 75.1-62.3 106.4h0z"/><path d="M916.9 1529l-.1-1c-1.8-11.6-4.8-24.3-8.1-37.7-11.9-49.5-25.4-105.6 15.3-144l.3-.3 55.6 75.7-.1.2-62.9 107.1zm7.3-181.9c-40 38.1-26.6 93.9-14.8 143.1 3.2 13.1 6.1 25.5 7.9 36.8l61.7-105.3-54.8-74.6z"/></g><g fill="#84b2fe"><path d="M901.9 1453.8l-11.4-1.5c-34.1-36.9 3.8-74.7 5.6-112.1 0 0 19.6 8.3 19.9 5.7.4-2.7 11.4 59.5 11.4 59.5l-25.5 48.4z"/><path d="M902.1 1454.2l-11.7-1.5-.1-.1c-22.9-24.7-13.4-50.2-4.3-74.9 4.5-12.3 9.2-25 9.8-37.4v-.5l.5.2c6.7 2.8 17.8 7 19.4 6.1.1 0 .1-.1.1-.1 0-.4.3-.4.4-.4.4 0 .9.5 6.3 30.1l5.4 29.8v.1l-.1.1-25.7 48.5zm-11.4-2.2l11 1.4 25.4-47.9-11-58.8c-2.3 1.3-16.4-4.5-19.5-5.9-.7 12.4-5.4 25-9.9 37.1-9.1 24.5-18.5 49.7 4 74.1z"/></g><g class="I"><path d="M897.1 1342.2c-9-3.8-18.7-11.1-27.6-14.9-10.6-13.6-18.5-33.4-68.2-35.4-20.8-10.9-36.8-27.7-64.5-33.4-9.2-2.2-17.7 14.9-12 20.5l36.8 22.7c-51 9.2-107-10.6-158.9-25.5-14.2 0-15.5 12.7-4.2 18.5 68.6 28.3 129 78 205.7 85 35.4 9.3 56 18.5 73 26.3l36.2 12.1 5.7-65.3-22-10.6z"/><path d="M913.7 1418.6l-36.6-12.2c-19-8.8-38.9-17.3-72.9-26.3-51.1-4.7-95.8-28.8-139-52-21.6-11.6-43.9-23.6-66.7-33.1-5.6-2.8-8.7-7.7-7.6-12.2 1-4.3 5.5-6.9 11.9-6.9h.1l18.3 5.4c46.6 13.8 94.8 28.1 139.5 20.3l-36-22.2c-3.3-3.2-2.1-9.4.3-13.8 2.3-4.2 6.8-8.6 11.9-7.4 18.8 3.8 32.3 12.8 45.3 21.5 6.1 4.1 12.5 8.3 19.2 11.8 44 1.9 55.4 17.8 64.7 30.6 1.2 1.7 2.4 3.4 3.6 4.9 4.4 1.9 9.1 4.7 13.6 7.3 4.6 2.8 9.4 5.6 14 7.5h0l22.2 10.7v.2l-5.8 65.9zm-311-142c-6 0-10.2 2.4-11.2 6.4-1 4.1 1.9 8.7 7.2 11.4 22.8 9.4 45.2 21.5 66.8 33.1 43.1 23.2 87.8 47.2 138.8 51.9 34.2 8.9 54 17.5 73.1 26.3l35.7 11.9 5.7-64.6-21.8-10.5c-4.6-1.9-9.4-4.8-14.1-7.6-4.5-2.7-9.2-5.5-13.6-7.3h-.1l-.1-.1c-1.3-1.6-2.5-3.3-3.7-5-9.1-12.7-20.5-28.5-64.2-30.3h-.1c-6.8-3.5-13.1-7.8-19.3-11.9-13-8.7-26.4-17.6-45.1-21.4-4.7-1.1-9 3.1-11.1 7.1-2.3 4.2-3.5 10-.5 12.9l37.5 23.2-.9.2c-45.1 8.1-93.7-6.3-140.7-20.2l-18.3-5.5z"/></g><g class="G"><path d="M1642.9 797.3l53.9 49.7c67.1 26.9 187.2 62.3 201.4 80.8 22.7 15.6 75.1 479.4 18.5 573-32.6 44-77.6 18-116.3 27l5.9 43.3h-542.4l1.8-75.9c-5.6 13.4-12.7 24.1-25.5 31.2-103.5-18.5-205.7-18.5-322 4.3 1-62.4 52.5-158.9 2.9-187.2 75.1 3.8 148.8 31.2 225.4 11.4 55.4-86.5 34.1-398.6 69.5-419.9 25.5-25.5 160.2-45.3 222.6-107.8l204.3-29.9z"/><path d="M1806.5 1571.3h-543.2l1.8-74.4c-6.4 14.6-13.9 23.5-25 29.6l-.1.1h-.1c-107-19.1-209.3-17.7-321.9 4.3l-.4.1v-.4c.3-20.9 6.4-45.9 12.2-70.1 11.7-48.2 23.7-98-9.1-116.8l-1.3-.7 1.5.1c25.1 1.3 50.4 5.2 74.9 9 48.9 7.6 99.4 15.5 150.3 2.4 30.2-47.3 37.4-160.2 43.8-259.8 5.2-80.7 9.6-150.3 25.8-160 10-10 36-18.9 69-30.2 51.5-17.6 115.5-39.5 153.6-77.6l.1-.1h.1L1643 797l.1.1 53.8 49.7c22.3 8.9 50.9 19 78.6 28.7 55.7 19.5 113.2 39.7 122.9 52.1 11.8 8.4 30.5 131 39.1 257.5 5.2 76.2 13.6 259.4-20.6 315.9-21.9 29.5-49.6 27.7-76.5 25.9-13.3-.9-27-1.8-39.8 1.2l5.9 43.2zm-542.5-.7h541.7l-5.9-43.2.3-.1c13-3 26.9-2.1 40.3-1.2 26.7 1.7 54.2 3.5 75.9-25.6 34.1-56.3 25.7-239.4 20.5-315.5-4.2-61-10.9-124.5-18.6-174.3-7.5-48.8-14.9-79-20.3-82.7l-.1-.1c-9.4-12.2-66.9-32.4-122.6-51.9l-78.7-28.7-.1-.1-53.8-49.6-204 29.8c-38.2 38.1-102.3 60-153.8 77.6-32.9 11.3-58.9 20.1-68.8 30.1-15.9 9.6-20.4 79.1-25.5 159.5-6.4 99.8-13.6 212.9-43.9 260.3l-.1.1h-.1c-51.1 13.2-101.8 5.3-150.8-2.3-24-3.7-48.8-7.6-73.4-9 31.8 19.6 19.8 69 8.2 116.9-5.8 24-11.8 48.8-12.2 69.5 112.4-21.9 214.6-23.3 321.6-4.2 11.3-6.3 18.8-15.5 25.3-30.9l.7-1.7-1.8 77.3z"/></g><g class="D"><path d="M1449.9 804.3l177.3-28.3c73.7 44-127.7 377.3-170.2 571.6-39.7-113.5-76.6-387.2-7.1-543.3h0z"/><path d="M1457.1 1348.9l-.4-1.2c-22.1-63.1-39.6-163.5-44.5-255.8-4.5-82.9-1.6-200.1 37.5-287.7l.1-.2h.2l177.3-28.3h.1l.1.1c20.5 12.2 21.6 46.4 3.6 107.7-16 54.3-44.9 122.6-75.4 194.9-40 94.7-81.4 192.6-98.2 269.4l-.4 1.1zm-7-544.2c-71.1 159.9-30.1 435.1 6.8 541.7 17-76.8 58.2-174.1 98-268.4 59.8-141.4 116.3-275 72.2-301.6l-177 28.3z"/></g><g fill="#707f86"><path d="M1456.7 891.7l-7.2 63.2c18.8-18 34.9-36 63.4-40.9l-56.2-22.3z"/><path d="M1449.1 955.8l7.4-64.6 57.8 22.9-1.2.2c-25.6 4.4-41.2 19.5-57.8 35.6l-5.5 5.3-.7.6zm7.9-63.6l-7 61.7 4.8-4.6c16.4-15.9 31.9-30.9 56.9-35.5l-54.7-21.6zm125.5-1.6l7.3 63.2c-18.8-18-34.9-36-63.4-40.9l56.1-22.3z"/><path d="M1590.3 954.7l-.7-.7-5.5-5.3c-16.6-16-32.2-31.2-57.8-35.6l-1.2-.2 57.7-22.9.1.5 7.4 64.2zm-62.6-42c25.1 4.7 40.6 19.7 56.9 35.6 1.6 1.5 3.1 3.1 4.7 4.6l-7.2-61.7-54.4 21.5z"/></g><g class="F"><path d="M1483.3 892.8c1.7 1.1 3.9 4.9 6.1 9.3l-.9 2.8c-7.5 7.2-9.5 14.3-7.2 22.4l17.5 12.6-.6 21c-59.6 107.2-68.2 219.8-71 317.2s40.4 62.2 51.1 68.1c10.6 5.9 94.3-159.1 89.3-192.7-4.9-33.5-4.2-126-29.7-194v-20.3l18.1-11.9c2.9-6.8-3.9-12.3-5.9-18.5l3.1-3.3 7.3-19.9-11.2-16-68.2 1.5-26.9 23.2 29.1-1.5z"/><path d="M1455.9 1348.1c-5.1 0-10.4-1.2-15-5.2-10.5-9-15.1-30.2-14.1-64.9 1.3-45.9 4-100.1 14.2-155 11.2-60.7 29.8-113.8 56.8-162.3l.6-20.7-17.4-12.5v-.1c-2.4-8.3-.1-15.5 7.2-22.6l.8-2.6c-2.5-5.1-4.4-8-5.8-9l-30 1.5 27.8-24h.1l68.4-1.5 11.5 16.3-.1.2-7.4 20-2.9 3.1c.6 1.9 1.8 3.8 2.9 5.7 2.4 4 4.9 8.1 2.9 12.8v.1l-.1.1-9.1 6-8.8 5.8v20c18.9 50.5 23.5 115 26.5 157.7 1 14.9 2 27.7 3.2 36.4 2.1 13.9-11 52.6-35.1 103.6-21.2 44.8-43.5 83-51.8 88.9-1.2.8-2.2 1.1-2.9.7-2.2-1.2-6.2-.5-10.7.3-3.8.5-7.7 1.2-11.7 1.2zm25.7-421l17.5 12.6v.2l-.7 21.2c-60.1 108.1-68.2 220.3-71 317.1-1 34.4 3.5 55.4 13.8 64.3 8 6.9 17.9 5.1 25.9 3.7 4.7-.8 8.7-1.6 11.2-.2.6.3 1.5-.2 2.2-.6 8.3-5.7 30.4-43.8 51.6-88.6 24-50.8 37.1-89.3 35-103.1-1.3-8.7-2.2-21.5-3.2-36.4-3-42.7-7.5-107.1-26.5-157.5v-.1-20.5l.2-.1c3-1.9 6-3.9 9-5.9l9-5.9c1.8-4.4-.5-8.1-2.9-12.1-1.2-1.9-2.4-4-3.1-6l-.1-.2 3.1-3.4 7.2-19.7-11-15.7-67.9 1.5-26 22.5 28.2-1.4.1.1c1.5 1 3.5 4 6.2 9.4l.1.1-.9 3-.1.1c-6.9 6.6-9.2 13.5-6.9 21.6z"/></g><g fill="#2b9cd7"><path d="M1431.8 1193.9c-1.8 20.2-2.9 40.1-3.8 59.4l138.3-111.1c-1.3-13.6-2.3-32.1-4.2-53l-130.3 104.7z"/><use href="#B"/></g><g fill="#84b2fe"><path d="M1448.4 957.6c22.7-21.8 34.1-70.9 68.2-65.3 34 5.6 73.6 68.7 79.4 70.9 5.7 2.3 75.1-120.5 75.1-120.5-14.7-22.2-24.8-49.7-44-66.7l-179.4 28.3c-27.6 76.7-14.8 123.5.7 153.3h0z"/><path d="M1596.3 963.6c-.2 0-.3 0-.4-.1-1.7-.6-5.6-5.6-11.6-13-15.1-18.8-43.1-53.8-67.7-57.8-22.5-3.7-35.3 17.1-47.6 37.3-6.2 10.1-12.7 20.6-20.3 27.9l-.3.3-.2-.4c-9.7-18.7-15.1-38.1-16.6-59.2-1.9-28.1 3.5-59.9 15.9-94.3l.1-.2h.2l179.5-28.4.1.1c12.8 11.4 21.8 27.7 30.4 43.4 4.3 7.9 8.8 16 13.6 23.4l.1.2-.1.2c-.2.3-17.6 31.1-35.4 61.1-32.8 55.2-38.2 59.5-39.7 59.5zm-84.9-72.1c1.7 0 3.5.1 5.3.4 24.9 4.1 53 39.2 68.2 58.1 5.5 6.8 9.8 12.2 11.3 12.8 1 .4 6.8-4.5 39.3-59.2l35.3-60.9c-4.9-7.4-9.3-15.4-13.6-23.3-8.6-15.6-17.5-31.8-30.1-43.1l-179 28.3c-21.7 60-21.5 109.8.4 152.3 7.4-7.2 13.7-17.5 19.8-27.4 11.5-18.7 23.4-38 43.1-38z"/></g><g class="B"><path d="M1566.4 1142.2L1428 1253.3c.9-19.3 2-39.2 3.8-59.4l130.4-104.7 4.2 53h0z"/><use href="#B"/><path d="M1553.8 1020.3l-109.5 87.9c5.1-24.1 11.7-48.3 20.3-72.6l78-62.6c4.7 15.1 8.4 31.1 11.2 47.3h0z"/><path d="M1443.7 1109l.2-1c5.4-25.5 12.1-49.3 20.3-72.6v-.1l.1-.1 78.4-62.9.2.5c4.5 14.2 8.3 30.1 11.3 47.3v.2l-.2.1-110.3 88.6zm21.2-73.3c-8.1 23-14.6 46.4-20 71.5l108.6-87.1c-3-16.9-6.7-32.6-11-46.5l-77.6 62.1z"/></g><g class="H"><path d="M1703.9 849.8c4.8 14.9 8.3 29.8 9.8 45.3l-32.6 7.1 34.1 29.8c-69.5 202.8-192.8 347.2-275.2 510.5-56.8-164.5-97.9-330.4-100.7-514.8l39.7-24.1-16.4-13.4 74.3-60.7c-57.6 158.6-17.8 409.7 20 518.1 39-178.2 211.5-473 183.2-554.8h0l63.8 57z"/><path d="M1439.9 1443.5l-.3-.8c-67.2-194.5-98.2-353.3-100.7-514.9v-.2l.2-.1 39.3-23.8-4.7-3.9-11.3-9.2-.3-.3.3-.3 74.3-60.7 1-.8-.4 1.2c-55.7 153.6-21.3 398.5 19.6 516.7 17-76.8 58.2-174.2 98.1-268.4 51.9-122.7 100.9-238.6 84.9-284.9l-.4-1.3 64.9 57.9v.1c5.3 16.7 8.4 31.1 9.8 45.4v.3l-.3.1-31.9 6.9 16.5 14.4 17 14.9.2.2-.1.2c-43.9 128-109 232.5-172 333.6-37.4 60-72.8 116.7-103.2 177l-.5.7zM1339.7 928c2.5 161.3 33.4 319.7 100.4 513.7 30.3-60.1 65.5-116.5 102.8-176.3 62.9-101 128-205.4 171.9-333.2l-16.9-14.8-17-14.9-.5-.5 33-7.2c-1.4-14.1-4.4-28.4-9.7-44.9l-62.7-56c14.9 47.4-33.8 162.4-85.3 284.2-40 94.7-81.5 192.6-98.3 269.5l-.3 1.2-.4-1.2c-16.9-48.3-37.8-136.8-45.8-240.3-6-77.4-6.5-188.2 25.4-276.9l-73 59.7c3.7 2.9 7.4 6 10.9 8.9l5.1 4.2.4.3-.4.3-39.6 24.2z"/></g><g class="I"><path d="M1448.6 750.8c5.7 24.4 0 45.9 0 68.9 20.2 30.2 41.7 50.3 69 67.6 34.5-17.2 107.7-56.1 110.6-107.8-24.4-47.4-2.9-117.8-4.4-176.7l-175.2 148h0z"/><path d="M1517.6 887.7l-.2-.1c-28.6-18-49.9-38.9-69.1-67.7l-.1-.1v-.1c0-7.7.6-15.3 1.3-22.7 1.3-14.7 2.5-29.9-1.3-46.2v-.2l.2-.1 87.2-73.7 88-74.3.6-.5v.7c.5 19.7-1.6 40.9-3.6 61.5-4.1 41.1-8.2 83.5 8 115v.1.1c-3.1 54.2-84.1 94.8-110.8 108.1l-.2.2zm-68.7-68.1c19.1 28.6 40.3 49.4 68.7 67.3 26.7-13.4 107.1-53.7 110.2-107.3-16.3-31.7-12.1-74.2-8-115.4 2-20.3 4.1-41.3 3.7-60.7l-87.4 73.8-87.1 73.5c3.8 16.3 2.5 31.5 1.2 46.2-.6 7.5-1.3 15-1.3 22.6z"/></g><g class="D"><path d="M897.3 1340.2l28.3 4.3c36.9 22.7 8.1 80.5 1.5 120.6-12.1-.7-25.5-4.3-35.4-12.8 9.9-14.3 41.1-71 5.6-112.1h0z"/><path d="M927.5 1465.4h-.3c-14.4-.9-27-5.5-35.6-12.9l-.2-.2.2-.3c6.6-9.4 15.7-27 19.8-45.8 5.7-26.2 1-48.3-14.1-65.8l-.6-.7 29.4 4.5c28.4 17.5 18 56.1 8.9 90.2-2.9 10.9-5.7 21.3-7.3 30.7l-.2.3zm-35.3-13.2c8.4 7.2 20.7 11.6 34.7 12.5 1.6-9.4 4.3-19.7 7.2-30.5 9.1-33.8 19.3-72.2-8.5-89.4l-27.3-4.1c14.7 17.6 19.3 39.7 13.7 65.7-4.2 18.7-13.2 36.3-19.8 45.8z"/></g><g class="I"><path d="M1503.3 1342.9l31.2 9.9-21.3 102c-16.3-2.8-32.6-6.4-48.1-11.2-15.6 4.2-32 6.4-51.1 5.6-20.8-3.7-43.5-10.3-64.8-16.5-10.4-2.8-19.9-7.6-30.3-10.4-7.1-5.7-6.4-12.8-6.4-17.1.9-4.4 3.5-8.4 7.8-9.9-9.4-5.1-20.8-10.8-21.3-21.3-.4-3.9 2.8-8.6 8.4-11.4-5.4-4.3-18-7.9-18.5-17-.6-5-1.3-10.6 4.3-14.2-24.1-4.3-48.1-7.1-72.3-12.8-4.9-3.5-5.6-17 4.3-19.8 37.6-2.8 73.8-2.8 110.6 2.8 25.9.4 51.8 1 73.8-11.4l-25.5-35.4c-5.6-15.6-2.8-52.5 21.3-44 7.1 31.9 29.8 53.9 52.5 72.3 17.1 20 32.7 38.4 45.4 59.8h0z"/><path d="M1513.5 1455.2l-.3-.1c-18.6-3.2-34.3-6.9-48.1-11.2-17 4.5-33.2 6.3-51.1 5.6-21.4-3.8-45.5-10.8-64.9-16.5-5.2-1.4-10.3-3.3-15.2-5.2s-9.9-3.8-15.1-5.2l-.1-.1c-6.6-5.4-6.6-11.9-6.5-16.3v-1.1c.9-4.7 3.6-8.4 7.3-10l-.8-.4c-9.2-5-19.5-10.6-20-20.8-.4-4.1 2.9-8.6 8.1-11.4-1.4-1-3.3-2.1-5.2-3.2-5.9-3.3-12.6-7-12.9-13.7v-.1c-.6-4.8-1.3-10.3 3.7-13.9-7.8-1.4-15.7-2.6-23.3-3.8-15.8-2.5-32.1-5-48.2-8.9l-.1-.1c-2.8-2-4.2-6.9-3.4-11.5.8-4.5 3.6-7.8 7.8-8.9 42.3-3.2 77.5-2.3 110.7 2.8h1.4c24.8.4 50.4.7 71.8-11.1l-12.5-17.4-12.8-17.7v-.1c-3.9-10.9-3.9-32.6 5.2-41.7 4.2-4.2 9.8-5.2 16.6-2.8l.2.1v.2c7 31.7 29.4 53.4 52.4 72.1l.1.2c16.7 19.6 32.5 38.1 45.2 59.5l31.3 10-.1.3-21.2 102.4zm-48.4-12h0c13.8 4.4 29.4 8 47.9 11.2l21.1-101.4-31-9.8-.1-.1c-12.7-21.3-28.5-39.9-45.2-59.5l-.1-.1c-23.1-18.7-45.4-40.5-52.6-72.3-6.4-2.2-11.7-1.3-15.6 2.7-8.8 8.9-8.9 30.1-5 40.9l12.7 17.7 12.8 17.7.2.3-.3.2c-21.7 12.2-47.5 11.8-72.5 11.4h-1.4c-33.2-5.1-68.3-6-110.6-2.8-5.3 1.5-6.8 5.9-7.2 8.4-.8 4.3.6 8.9 3.1 10.7 16.1 3.8 32.3 6.4 48.1 8.8l24.2 4 .9.2-.8.5c-5.4 3.4-4.7 8.6-4.1 13.7v.1c.3 6.4 6.8 10 12.6 13.2 2.2 1.2 4.2 2.4 5.8 3.6l.4.3-.5.2c-5.3 2.6-8.6 7.1-8.2 11 .5 9.8 10.6 15.3 19.6 20.2l2.1 1.2-.8.3c-3.8 1.3-6.7 4.9-7.6 9.6v1c-.1 4.2-.1 10.5 6.2 15.7 5.2 1.4 10.2 3.3 15.1 5.2s9.9 3.8 15.1 5.2c19.4 5.7 43.4 12.7 64.7 16.5 17.7.6 33.9-1.2 51-5.7h0z"/></g><g class="D"><path d="M1524.4 1348.8l27 4.3-2.8 130.5c-15.6-4.3-29.8-9.9-44-17 9.5-38.1 26.9-76.6 19.8-117.8h0z"/><path d="M1549 1484.1l-.4-.1c-15.1-4.1-29.1-9.5-44.1-17l-.3-.1.1-.3c2.2-9.1 5-18.4 7.7-27.4 8.6-29 17.5-59 12.1-90.2l-.1-.5 27.8 4.4v.3l-2.8 130.9zm-43.9-17.6c14.7 7.3 28.4 12.6 43.2 16.7l2.8-129.7-26.2-4.2c5.2 31.3-3.6 61.1-12.2 90.1-2.7 8.8-5.4 18-7.6 27.1z"/></g><g class="C"><path fill="#ffbb9b" d="M1666.3 477.7l-270.1-32.1c-29.6 52.4-33 277.3 13.2 333.6 58.3 70.7 169.9 26.4 201.1-37.4 32.6-59.3 72.1-208.1 55.8-264.1h0z"/><path fill="#060352" d="M1577.3 534.4c-56.2-70.3-141.5 13.2-189.1.1-37.9-27.8-217.8-146.8-182.3-233.8 24.5-52.9 183.1-41.2 241.9-27.4 47.4 9.1 99.9 28.7 139.9 50 42.2 25.6 65.8 65.5 64.8 113.6 27-16.8 97.6 34.4 101.7 59.1 25.2 73.3-83.5 99.9-115.6 177.8-36.8-3.2-48-131.3-61.3-139.4h0z"/><path fill="#ffbb9b" d="M1610.5 642.2c-51.8-13.8-50.3-36.2-20.2-69.8 9.1-16.6 29.9-30.6 44.6-10.9 9.2 18.2-12.1 61.2-24.4 80.7h0z"/><path fill="#feb542" d="M1808.4 1469.4h685.3c15.2 0 27.7 11.7 27.7 25.8V1600c0 14.2-12.6 25.8-27.7 25.8h-685.3c-12.7 0-23.5-8-26.7-18.8 1.5.3 2.9.4 4.4.4h691c12.6 0 22.9-9.5 22.9-21.2V1509c0-11.5-10.4-21.2-22.9-21.2h-691c-1.5 0-2.9.1-4.4.4 3.2-10.8 14-18.8 26.7-18.8h0z"/><path d="M1791.3,1487.8h685.8c12.6,0,22.9,9.6,22.9,21.2v77.3c0,11.7-10.4,21.2-22.9,21.2h-685.8V1487.8z" class="B"/><g class="D"><path d="M1791.3 1578h687.4c2.5 0 4.5 1.2 4.5 2.6h0c0 1.3-2 2.6-4.5 2.6h-687.4v-5.2z"/><use href="#C"/><use href="#C" y="-53.6"/><use href="#C" y="-40.5"/><use href="#C" y="-26.7"/><use href="#C" y="-92.4"/><use href="#C" y="-79.3"/><use href="#C" y="-65.4"/></g><path fill="#6799fe" d="M1942.9 1485.2h47.3v71.2l-8-4.5-15.7-8.5-15.4 8.5-8.2 4.5z"/><path d="M2507.3 1625.9H1677c-18.5 0-33.7 11.7-33.7 25.8v104.7c0 14.2 15.2 25.8 33.7 25.8h830.3c15.3 0 28.3-8 32.4-18.8-1.8.3-3.7.4-5.4.4h-837.2c-15.3 0-27.7-9.6-27.7-21.2v-77.3c0-11.7 12.4-21.2 27.7-21.2h837.2c1.8 0 3.7.1 5.4.4-4.1-10.5-17.1-18.6-32.4-18.6h0z" class="J"/><path d="M2527.9,1644.3h-830.8c-15.3,0-27.7,9.5-27.7,21.2v77.3c0,11.5,12.4,21.2,27.7,21.2h830.8V1644.3z" class="B"/><g class="D"><use href="#D"/><use href="#D" y="13.3"/><use href="#D" y="-40.3"/><use href="#D" y="-27.1"/><use href="#D" y="-13.4"/><use href="#D" y="-79.1"/><use href="#D" y="-66"/><path d="M2527.9 1682.3h-832.7c-3.1 0-5.5 1.2-5.5 2.6h0c0 1.3 2.5 2.6 5.5 2.6h832.7v-5.2z"/></g><path d="M2418.5 1644.9h-47.9v71.3l8.2-4.5 15.8-8.6 15.7 8.6 8.2 4.5z" class="F"/><path fill="#8183f1" d="M1768.4 1781h839.4c18.7 0 34 11.5 34 25.7v104.9c0 14.2-15.3 25.7-34 25.7h-839.4c-15.6 0-28.8-7.9-32.9-18.7 1.8.1 3.7.3 5.4.3h846.6c15.5 0 28-9.5 28-21.2v-77.1c0-11.7-12.6-21.2-28-21.2h-846.6c-1.8 0-3.7.1-5.4.4 4.1-10.7 17.2-18.8 32.9-18.8h0z"/><path d="M1747.3,1799.4h840.1c15.5,0,28,9.5,28,21.2v77.1c0,11.7-12.6,21.2-28,21.2h-840.1V1799.4z" class="B"/><g class="D"><use href="#E"/><use href="#E" y="13.2"/><use href="#F"/><use href="#F" y="13.1"/><use href="#E" y="-13.4"/><use href="#E" y="-79.1"/><use href="#E" y="-66"/><use href="#E" y="-52.2"/></g><path fill="#feb542" d="M1856.9 1799.4h41.9v71.3l-7.2-4.5-13.8-8.6-13.8 8.6-7.1 4.5z"/><path d="M2571.4 1315h-695.3c-15.5 0-28.2 11.5-28.2 25.7v104.9c0 14.2 12.7 25.7 28.2 25.7h695.3c12.9 0 23.8-8 27.2-18.8-1.5.3-2.9.4-4.5.4H1893c-12.7 0-23.2-9.5-23.2-21.2v-77.1c0-11.7 10.5-21.2 23.2-21.2h701c1.6 0 3.1.1 4.5.3-3.3-10.8-14.2-18.7-27.1-18.7h0z" class="F"/><path d="M2588.8 1333.4H1893c-12.7 0-23.2 9.5-23.2 21.2v77.1c0 11.7 10.5 21.2 23.2 21.2h695.8v-119.5z" class="B"/><g class="D"><use href="#G"/><use href="#G" y="13.2"/><use href="#G" y="-40.4"/><use href="#G" y="-27.3"/><use href="#G" y="-13.4"/><path d="M2588.8 1344.4h-697.5c-2.5 0-4.5 1.2-4.5 2.6h0c0 1.3 2 2.6 4.5 2.6h697.5v-5.2z"/><use href="#G" y="-66"/><use href="#G" y="-52.2"/></g><path d="M2435 1330.8h-48v71.3l8.1-4.5 15.8-8.7 15.8 8.7 8.3 4.5z" class="G"/><path fill="#6767fd" d="M396.5 1798.3h90.4c15.3 0 28 12.7 28 28.4h0c0 15.3-12.7 28-28 28h-90.4c-15.7 0-28.4-12.7-28.4-28h0c0-15.7 12.7-28.4 28.4-28.4h0z"/><path d="M442.8 1583.9h0-1.1-.4-.7-.4c-12.3 0-25 0-37.7 1.1h0c-13.8 1.5-27.3 3.7-39.6 9-31.4 21.3-71.3 116.1-65.3 152.7 7.8 21.7 63.9 19.4 104.9 24.6v5.2h70.2v-4.1c41.5-6.7 104.6-2.6 112.8-25.8 6.3-36.6-33.6-131.4-65-152.7-24.3-9.6-51.9-10-77.7-10h0z" class="F"/><path fill="#2db58b" d="M313.2 1928.6l-9.3-26.1c-3.7-3-14.2-4.9-19-5.2-16.8 1.1-48.2.7-48.9 12.3-.7 16.4 39.6 23.9 52.7 22.8l24.5-3.8z"/><path d="M336.7 1922.3l-9.7-28.4-22.8 9.3c-3.4 10.5 1.5 19.8 9 25.4l23.5-6.3z" class="K"/><path fill="#2db58b" d="M333.4 1927.9c-8.2-10.1-14.9-22-15.3-35.8 56.8-19.8 287.2-146.4 324.1-105.7 45.6 61.9-229.3 113.8-308.8 141.5h0z"/><path d="M569.7 1928.6l9.3-26.1c3.7-3 14.6-4.9 19.4-5.2 16.8 1.1 47.8.7 48.5 12.3 1.1 16.4-39.6 23.9-52.3 22.8l-24.9-3.8z" class="J"/><path d="M546.2 1922.3l9.7-28.4 22.8 9.3c3.7 10.5-1.1 19.8-9 25.4l-23.5-6.3z" class="K"/><path d="M550 1927.9c7.8-10.1 14.6-22 14.9-35.8-56.8-19.8-286.8-146.4-323.8-105.7-45.5 61.9 229.3 113.8 308.9 141.5h0z" class="J"/><path fill="#62cbec" d="M349.4 1680.3h184.5c5.6 0 10.5 4.9 10.5 10.5v123.6c0 6-4.9 10.5-10.5 10.5H349.4c-6 0-10.5-4.5-10.5-10.5v-123.6c.1-5.7 4.6-10.5 10.5-10.5h0z"/><path d="M441.7 1734.4h.7c-.4 1.1-.4 2.2-.4 3.4 0 8.2 6.3 14.6 14.6 14.6 1.1 0 1.9 0 3-.4v.7c0 9.7-7.8 17.9-17.9 17.9s-18.3-8.2-18.3-17.9c0-10.1 8.2-18.3 18.3-18.3h0z" class="B"/><path d="M418.9 1552.6l.7 47.8c12.7 18.7 37.3 15.3 48.2 0l-1.9-50.8-47 3z" class="K"/><path fill="#ffaa81" d="M442.4 1480.1l-51.9-.7c8.6 52.3.4 104.6 51.2 108.7h0 .7.4 0c51.2-4.1 42.6-56.4 51.2-108.7l-51.6.7z"/><path fill="#060352" d="M489.5 1518.2c11.9-19.4 17.6-36.6 16.1-50 1.1-1.9 1.9-4.1 1.9-6.3 0-6-4.5-11.2-11.9-13.8-6.3-6-15.7-10.1-28.4-12.3-4.1-4.9-11.9-8.2-20.9-8.2-7.8 0-14.9 2.6-19 6.7-8.2.4-14.9 1.1-20.9 3-1.9-.4-3.4-.4-5.2-.4-13.1 0-23.5 6.7-23.5 15.3 0 1.9.4 3.7 1.1 5.2-1.5 3-2.2 6.3-3 9.7 0 0 1.5 6 2.2 7.1s.4 12.7.4 13.4c.4 1.1-.4 8.2 2.2 10.5 3.7 8.6 9 17.2 14.9 24.6 11.2-12.3 3-40 33.6-37.3 10.8 0 11.6-6 20.2-1.1 7.8-11.2 12.3 4.5 29.5 0 8.8.7.6 17.5 10.7 33.9h0z"/></g><defs ><path id="B" d="M1427.6 1254.1v-.8c.7-16.1 1.8-37.4 3.8-59.4v-.1l.1-.1 130.9-105.1.1.7 2.2 28.6 1.9 24.5v.2l-139 111.5zm4.6-60c-2 21.6-3 42.5-3.7 58.4l137.6-110.5c-.7-6.9-1.3-15-1.9-24.3l-2.2-27.9-129.8 104.3z"/><path id="C" d="M1791.3 1591.2h687.4c2.5 0 4.5 1.2 4.5 2.6h0c0 1.5-2 2.6-4.5 2.6h-687.4v-5.2z"/><path id="D" d="M2527.9 1734.4h-832.7c-3.1 0-5.5 1.2-5.5 2.6h0c0 1.5 2.5 2.6 5.5 2.6h832.7v-5.2z"/><path id="E" d="M1747.3 1889.5h842c3.1 0 5.5 1.2 5.5 2.6h0c0 1.5-2.5 2.6-5.5 2.6h-842v-5.2z"/><path id="F" d="M1747.3 1849.1h842c3.1 0 5.5 1.3 5.5 2.6h0c0 1.5-2.5 2.6-5.5 2.6h-842v-5.2z"/><path id="G" d="M2588.8 1423.5h-697.5c-2.5 0-4.5 1.2-4.5 2.6h0c0 1.5 2 2.6 4.5 2.6h697.5v-5.2z"/></defs></svg>