<svg xmlns="http://www.w3.org/2000/svg" width="6363.908" height="6182.744" viewBox="0 0 1683.784 1635.851" xmlns:v="https://vecta.io/nano"><defs><linearGradient id="A" href="#Z"><stop offset="0" stop-color="#fee42b"/><stop offset="1" stop-color="#f47e2e"/></linearGradient><linearGradient id="B" href="#Z"><stop offset="0" stop-color="#fff12b"/><stop offset="1" stop-color="#f3722e"/></linearGradient><linearGradient id="C" x1="215.388" y1="140.868" x2="272.385" y2="140.868" href="#Z"><stop offset="0" stop-color="#efe832"/><stop offset="1" stop-color="#06964b"/></linearGradient><linearGradient id="D" x1="243.887" y1="222.675" x2="243.887" y2="226.53" href="#Z"><stop offset="0" stop-color="#eae434"/><stop offset="1" stop-color="#04964c"/></linearGradient><linearGradient href="#B" id="E" x1="223.231" y1="271.439" x2="264.542" y2="271.439"/><linearGradient href="#B" id="F" x1="222.505" y1="-20.195" x2="222.505" y2="41.409"/><clipPath ><path d="M36 10.8h541.44v372.96H36z"/></clipPath><linearGradient href="#A" id="H" x1="32.511" y1="575.268" x2="14.787" y2="595.56"/><linearGradient href="#A" id="I" x1="61.623" y1="575.268" x2="79.347" y2="595.56"/><path id="J" d="M10.602 608.535l-1.497.635q-.629-1.396-2.012-1.879-1.205-.421-2.319.044-1.108.468-1.534 1.542-.44 1.111.098 2.178.538 1.067 1.776 1.5.805.282 1.481.156.681-.124 1.289-.684l-2.365-.827.544-1.372 4.109 1.437-.117.327q-.399 1.007-1.312 1.715-.913.708-1.984.874-1.071.166-2.259-.25-1.271-.445-2.066-1.31-.787-.869-.99-2.033-.197-1.162.243-2.273.603-1.523 2.121-2.275 1.803-.896 3.84-.183 1.066.373 1.846 1.067.659.587 1.107 1.61z"/><path id="K" d="M11.487 609.516l1.333.358-.223.733q.348-.375.776-.504.427-.128.854-.014.302.081.587.32l-.867 1.127q-.234-.202-.411-.249-.359-.096-.737.254-.372.352-.743 1.572l-.081.285-.717 2.354-1.544-.415z"/><path id="L" d="M20.835 615.339l-5.057-1.119q-.048.653.331 1.131.386.474 1.124.638.882.195 1.662-.244l1.18.879q-.662.551-1.434.718-.771.161-1.722-.049-1.476-.327-2.186-1.404-.708-1.083-.378-2.399.338-1.349 1.484-2.033 1.153-.688 2.548-.38 1.482.328 2.186 1.427.706 1.094.339 2.556zm-1.288-1.514q-.032-.527-.416-.938-.378-.41-.984-.544-.657-.145-1.24.091-.366.148-.768.636z"/><path id="M" d="M28.436 616.619l-5.117-.846q-.008.654.399 1.111.414.453 1.161.576.893.148 1.644-.333l1.231.814q-.627.586-1.388.793-.76.202-1.722.043-1.494-.247-2.268-1.285-.773-1.043-.523-2.375.256-1.365 1.358-2.109 1.109-.749 2.521-.515 1.499.248 2.269 1.308.771 1.054.494 2.534zm-1.378-1.443q-.064-.525-.472-.914-.402-.389-1.015-.49-.665-.11-1.233.158-.356.167-.728.676z"/><path id="N" d="M30.133 613.338l1.6.18-.078.613q.602-.369 1.064-.486.469-.121.934-.069.953.107 1.538.806.491.593.359 1.632l-.506 3.973-1.588-.179.336-2.636q.137-1.078.077-1.443-.055-.365-.29-.576-.229-.216-.605-.259-.488-.055-.881.215-.386.265-.59.791-.107.274-.226 1.213l-.308 2.415-1.6-.18z"/><path id="O" d="M39.62 612.195l1.916.047-.195 5.296q-.025.684.108.971.14.287.467.468.335.175.812.187.505.012.873-.168.375-.18.522-.466.154-.291.184-1.115l.188-5.101 1.916.047-.179 4.879q-.045 1.235-.233 1.709-.188.474-.689.907-.494.433-1.129.635-.635.196-1.467.176-1.091-.027-1.888-.453-.79-.431-1.115-1.052-.325-.626-.271-2.089z"/><path id="P" d="M47.869 614.485l1.611-.051.022.617q.535-.451.973-.632.444-.187.912-.201.959-.03 1.651.577.582.516.619 1.562l.143 3.999-1.599.05-.095-2.653q-.039-1.085-.158-1.437-.113-.353-.38-.528-.261-.181-.64-.169-.491.015-.836.338-.338.317-.455.866-.061.286-.027 1.231l.087 2.431-1.611.051z"/><path id="Q" d="M55.399 611.652q.425-.031.75.236.331.266.365.677.033.405-.244.715-.278.305-.697.335-.431.031-.762-.235-.325-.272-.36-.688-.033-.4.245-.704.278-.305.703-.336zm-.605 2.545l1.618-.117.497 6.037-1.618.117z"/><path id="R" d="M57.051 614.064l1.636-.178 2.055 3.374 1.176-3.724 1.63-.177-1.985 6.311-1.042.113z"/><path id="S" d="M71.241 615.657l-5.122.819q.226.619.774.921.552.296 1.3.176.894-.143 1.43-.833l1.451.378q-.381.75-1.023 1.185-.643.43-1.607.584-1.495.239-2.595-.494-1.101-.738-1.343-2.072-.248-1.366.524-2.415.776-1.056 2.19-1.282 1.501-.24 2.605.515 1.103.749 1.372 2.231zm-1.814-.924q-.248-.474-.772-.712-.518-.239-1.131-.141-.666.106-1.104.538-.276.27-.444.867z"/><path id="T" d="M80.347 607.442q.41-.111.786.088.381.198.503.594.12.39-.085.747-.207.351-.611.461-.416.113-.797-.085-.377-.205-.5-.606-.118-.385.088-.736.207-.351.616-.462zm-.044 2.607l1.56-.423 1.786 5.818-1.56.423z"/><path id="U" d="M82.629 607.074l1.533-.466.731 2.124.913-.277.428 1.244-.913.277 1.554 4.517-1.533.466-1.554-4.517-.789.24-.428-1.244.789-.24z"/><path id="V" d="M85.663 608.583l1.534-.579 3.065 2.939.206-4.174 1.539-.581-.466 9.089-1.55.585.173-2.938z"/><path id="W" d="M-499.406 225.969v-27.625l-7.943-18.208v29.08z"/><path id="X" d="M-520.687 217.25v-29.071l7.461 6.32v18.429l11.207 14.668z"/><path id="Y" d="M-504.245 231.736l-27.366.063v-31.378h7.336v21.965z"/><linearGradient id="Z" gradientUnits="userSpaceOnUse"/></defs><g transform="matrix(12.292591 0 0 12.292591 263.2985 -6184.4631)"><path d="M22.423 594.954c-.102-1.155-.842-1.743-1.929-1.743-1.193 0-1.558.643-.579 1.192l1.493.837c.764.419 1.029.543 1.014-.285zm-13.2-16.516c1.244-.679 1.26-1.646.038-2.391-1.67-1.018-3.016-.668-2.09 1.262.797 1.663 1.241 1.572 2.053 1.129zm3.98-1.62c-.131.05-.469.547-.661.686-.109.078-.07-.724-.151-.804-.419-.419-1.268.751-1.268 1.794 0 .613.045.816.859 1.008 1.288 1.362 1.978.979 1.985-1.259.005-1.385-.504-1.524-.764-1.424zm3.496 4.007c.178.946.915 2.233 2.611 4.553l1.737 2.441c.652.928 1.576 1.849 2.052 2.046s1.096.748 1.377 1.225c.893 1.511 2.232 2.422 3.563 2.422.84 0 1.521.244 2.262.808 1.085.827 2.366 3.293 2.814 4.336.408.95 1.02 1.529 2.564 2.228 3.331 1.506 10.381 3.528 10.381 3.528s.951.77.744 1.411c-.628 1.102-2.055.811-3.443.363-2.799-.779-7.186-2.428-11.198-4.208-2.997-1.329-3.728-1.538-5.399-1.538-1.879 0-1.986-.043-3.81-1.537-1.867-1.529-1.874-1.54-1.238-2.055l.639-.517c-.443-.318-.775-.654-1.341-.946-.328-.169-1.466-.55-1.466-.55-1.6-.601-2.66-.592-2.397-1.912.203-1.02-1.045-1.976-2.707-2.424-1.025-.276-1.159-.438-1.552-1.884-.326-1.199-.554-1.561-.944-1.494-.283.048-.802-.067-1.155-.255-.562-.301-.618-.518-.452-1.764.159-1.196.09-1.514-.435-2.004-2.362-2.208-2.604-3.36-3.199-5.9-.238-1.016-1.09-1.153-1.38-1.256-.685-.243-.666-.687.067-1.619.554-.704.563-.73.137-1.756-.251-.605-.864-1.539-1.271-2.157-.956-1.452-.949-1.748.158-1.97 1.113-.223 2.019-1.417.388-3.204-2.308-2.527-1.981-3.47-.882-3.819.693-.22.73-.994.119-2.457-.616-1.474-.34-1.605.882-.421.982.952 1.028.965 1.223.349.229-.723-.052-2.296-.555-3.101-.409-.654-1.602-.475-1.494.178.134.806-1.011 1.763-1.096-.029-.009-.466.221-1.135.504-1.614.429-.726.456-1.033.162-1.854-.966-2.702-.599-5.351.802-5.795.357-.113.704-.55.802-1.008.095-.445.29-1.08.432-1.411.246-.572.26-.568.28.085.045 1.509 1.497 1.665 1.853.046.262-1.429-.365-3.027-1.314-1.503-.559-.886-.697-1.531-.741-2.061-.083-.993.741-1.028 1.658-1.093.28-.02.12-.522.191-.755.205.041.661.524.808.524.296 0 .534-.739.643-1.085.282-.888-.238-2.182-.978-2.451-1.043-.379-.14-2.024 1.836-1.382.301.098.54-.839.716-1.17s.692-.969 1.147-1.417c.946-.931 1.134-2.624.362-3.264-.643-.533-.433-1.624.333-1.734.341-.049.985.198 1.431.549.662.521.811.882.811 1.972 0 .734.077 1.334.17 1.334.993 0 2.236-1.786 2.244-3.224.002-.464.141-1.047.307-1.295.262-.391.362-.373.749.133.766 1.003.536 2.09-.749 3.55-.657.746-1.608 1.528-2.113 1.737-.606.251-.97.649-1.07 1.171-.463 2.414-.824 3.582-1.319 4.265-.359.496-.598 1.471-.681 2.786-.072 1.138.082 2.547-.682 3.537-.556.72-1.102 1.21-1.221 2.329h0c-.119 1.118-.431 2.508-.695 3.088-.321.706-.489 2.001-.51 3.916-.017 1.574-.185 3.133-.373 3.464-.276.486-.221.798.286 1.619.448.725.665 1.677.754 3.315.069 1.264.319 2.809.555 3.433s.43 1.845.431 2.711c.001 1.081.237 2.041.753 3.058.414.815.752 1.935.752 2.488 0 .65.222 1.192.626 1.531.52.435 1.166.873 1.536 1.984.165.493-.382 1.628.296 1.937 1.924.877 1.671 1.158 1.912 2.444zm-7.376-40.717c-.755.91-.709 1.296.271 2.477.752.907.753 2.019 1.243.745 1.1-2.862-.156-4.86-1.514-3.223zm-3.474 23.398c-.826-.826-1.717.238-.364 1.848 1.237 1.472 1.294-.918.364-1.848zm28.171 38.164c0-.153-.329-.669-.732-1.148s-1.072-1.639-1.487-2.579c-.736-1.665-1.977-3.226-2.564-3.226s-.689 1.806-.187 3.319c.528 1.588 1.553 2.602 3.476 3.437 1.233.535 1.493.569 1.493.197zm-2.944-2.05c-.398-.142-1.274-1.631-1.274-2.167 0-.601.837.028 1.38 1.036.574 1.065.546 1.363-.106 1.131zm-3.29-.307c0-.587-.758-2.247-1.204-2.542-.692-.458-2.176-.258-2.494.337-.444.829-.401.924.421.924.496 0 1.077.215.944.678-.274.957.645 1.035 1.712 1.036.549.001.62-.123.62-.433zm-1.126-4.52c-.238-1.014-1.845-2.556-2.528-2.424-.275.053-.546.339-.603.635-.137.712.586 2.308.878 1.836.07-.113.198-.435.37-.426.197.01.445.373.65.599.827.914 1.472.8 1.233-.219zm-4.39-3.349c0-1.141-1.087-2.511-1.897-2.392-.667.098-1.21 1.452-.903 2.251.2.52 1.141.957 2.123.985.55.016.678-.144.678-.844zm-3.909-.63c-.337-.629-2.11-1.345-2.461-.994-.367.367.105.881 1.249 1.36 1.238.517 1.623.401 1.212-.366zm.371-3.403c.171-1.762-.017-2.022-1.473-2.029-1.053-.004-1.317.478-1.094 1.997.094.642.373 1.009.936 1.232 1.353.537 1.471.45 1.632-1.2zm-3.748-.018c.112-.948-1.093-2.317-2.039-2.317-.959 0-.797 1.372.289 2.458 1.044 1.044 1.615.998 1.75-.141zm1.261-4.366c0-1.883-.334-2.47-1.405-2.47-.874 0-1.366.926-1.248 2.348.081.975.227 1.163 1.147 1.477.58.198 1.156.367 1.28.377s.226-.769.226-1.73zm-4.105-.002c.314-1.094-.013-1.643-1.411-2.365-1.614-.834-1.777.574-.296 2.55.877 1.17 1.333 1.121 1.707-.184zm-1.027-7.871c.425-.794.394-2.83-.05-3.274-.551-.551-1.356-.433-2.037.298-.797.856-.781 1.986.041 2.861.798.85 1.627.896 2.046.115zm-3.886-2.742c.744-.753.589-1.493-.23-2.256-1.046-.974-1.21-.908-1.21.557 0 .712.07 1.334.304 1.657.443.611.756.333 1.136.042zm1.954-3.143c.24-.575.437-1.595.437-2.267 0-1.048-.115-1.266-.805-1.528-1.249-.475-1.794.308-1.653 2.375.027.4 0 1.006.222.989.216-.017.904-.985 1.054-.911.164.081-.073.891-.148 1.3-.266 1.42.306 1.448.893.043zm-.485-6.014c.197-.237.437-1.199.534-2.138.195-1.891-.037-2.238-1.503-2.246-.622-.002-.911.193-1.13.768-.468 1.23-.355 1.979.324 2.157.378.099.685.497.791 1.026.192.962.451 1.076.984.434zm-.582-7.778c.773-1.267.771-2.765-.003-3.54-.783-.783-1.033-.76-1.63.152-.948 1.446-.951 2.499-.011 3.479.468.488.895.888.949.888s.367-.441.696-.979zm-2.38-3.918c.718-.618.763-.785.515-1.929-.437-2.014-1.839-2.011-2.217.006-.18.961.251 2.604.682 2.601.128-.001.587-.306 1.02-.678zm3.097-2.268c.239-.461.521-1.309.627-1.883.43-2.322-1.676-2.863-2.705-.695-.485 1.021-.488 1.137-.036 1.467a1.34 1.34 0 0 1 .49.953c0 1.264 1.001 1.361 1.623.157zm4.108-13.644c.315-.895.276-1.454-.743-1.695-.461-.109-.788.025-1.055.744-.275.74-.221.376-.287.837-.018.122-.202.378-.166.418.09.099.438-.09.51.031.137.231.234.476.228.639.12.749.205 1.236.367 1.213.313-.046.854-1.356 1.147-2.188z" opacity=".921" fill="url(#H)"/><path d="M71.711 594.954c.102-1.155.842-1.743 1.929-1.743 1.193 0 1.558.643.579 1.192l-1.493.837c-.764.419-1.029.543-1.014-.285zm13.2-16.516c-1.244-.679-1.26-1.646-.038-2.391 1.67-1.018 3.016-.668 2.09 1.262-.797 1.663-1.241 1.572-2.053 1.129zm-3.98-1.62c.131.05.469.547.661.686.109.078.07-.724.151-.804.419-.419 1.268.751 1.268 1.794 0 .613-.045.816-.859 1.008-1.288 1.362-1.978.979-1.985-1.259-.005-1.385.504-1.524.764-1.424zm-3.496 4.007c-.178.946-.915 2.233-2.611 4.553l-1.737 2.441c-.652.928-1.576 1.849-2.052 2.046s-1.096.748-1.377 1.225c-.893 1.511-2.232 2.422-3.563 2.422-.84 0-1.521.244-2.262.808-1.085.827-2.366 3.293-2.814 4.336-.408.95-1.02 1.529-2.564 2.228-3.331 1.506-10.381 3.528-10.381 3.528s-.951.77-.744 1.411c.628 1.102 2.055.811 3.443.363 2.799-.779 7.186-2.428 11.198-4.208 2.997-1.329 3.728-1.538 5.399-1.538 1.879 0 1.986-.043 3.81-1.537 1.867-1.529 1.874-1.54 1.238-2.055l-.639-.517c.443-.318.775-.654 1.341-.946.328-.169 1.466-.55 1.466-.55 1.6-.601 2.66-.592 2.397-1.912-.203-1.02 1.045-1.976 2.707-2.424 1.025-.276 1.159-.438 1.552-1.884.326-1.199.554-1.561.944-1.494.283.048.802-.067 1.155-.255.562-.301.618-.518.452-1.764-.159-1.196-.09-1.514.435-2.004 2.362-2.208 2.604-3.36 3.199-5.9.238-1.016 1.09-1.153 1.38-1.256.685-.243.666-.687-.067-1.619-.554-.704-.563-.73-.137-1.756.251-.605.864-1.539 1.271-2.157.956-1.452.949-1.748-.158-1.97-1.113-.223-2.019-1.417-.388-3.204 2.308-2.527 1.981-3.47.882-3.819-.693-.22-.73-.994-.119-2.457.616-1.474.34-1.605-.882-.421-.982.952-1.028.965-1.223.349-.229-.723.052-2.296.555-3.101.409-.654 1.602-.475 1.494.178-.134.806 1.011 1.763 1.096-.029.009-.466-.221-1.135-.504-1.614-.429-.726-.456-1.033-.162-1.854.966-2.702.599-5.351-.802-5.795-.357-.113-.704-.55-.802-1.008-.095-.445-.29-1.08-.432-1.411-.246-.572-.26-.568-.28.085-.045 1.509-1.497 1.665-1.853.046-.262-1.429.365-3.027 1.314-1.503.559-.886.697-1.531.741-2.061.083-.993-.741-1.028-1.658-1.093-.28-.02-.12-.522-.191-.755-.205.041-.661.524-.808.524-.296 0-.534-.739-.643-1.085-.282-.888.238-2.182.978-2.451 1.043-.379.14-2.024-1.836-1.382-.301.098-.54-.839-.716-1.17s-.692-.969-1.147-1.417c-.946-.931-1.134-2.624-.362-3.264.643-.533.433-1.624-.333-1.734-.341-.049-.985.198-1.431.549-.662.521-.811.882-.811 1.972 0 .734-.077 1.334-.17 1.334-.993 0-2.236-1.786-2.244-3.224-.002-.464-.141-1.047-.307-1.295-.262-.391-.362-.373-.749.133-.766 1.003-.536 2.09.749 3.55.657.746 1.608 1.528 2.113 1.737.606.251.97.649 1.07 1.171.463 2.414.824 3.582 1.319 4.265.359.496.598 1.471.681 2.786.072 1.138-.082 2.547.682 3.537.556.72 1.102 1.21 1.221 2.329h0c.119 1.118.431 2.508.695 3.088.321.706.489 2.001.51 3.916.017 1.574.185 3.133.373 3.464.276.486.221.798-.286 1.619-.448.725-.665 1.677-.754 3.315-.069 1.264-.319 2.809-.555 3.433s-.43 1.845-.431 2.711c-.001 1.081-.237 2.041-.753 3.058-.414.815-.752 1.935-.752 2.488 0 .65-.222 1.192-.626 1.531-.52.435-1.166.873-1.536 1.984-.165.493.382 1.628-.296 1.937-1.924.877-1.671 1.158-1.912 2.444zm7.376-40.717c.755.91.709 1.296-.271 2.477-.752.907-.753 2.019-1.243.745-1.1-2.862.156-4.86 1.514-3.223zm3.474 23.398c.826-.826 1.717.238.364 1.848-1.237 1.472-1.294-.918-.364-1.848zm-28.171 38.164c0-.153.329-.669.732-1.148s1.072-1.639 1.487-2.579c.736-1.665 1.977-3.226 2.564-3.226s.689 1.806.187 3.319c-.528 1.588-1.553 2.602-3.476 3.437-1.233.535-1.493.569-1.493.197zm2.944-2.05c.398-.142 1.274-1.631 1.274-2.167 0-.601-.837.028-1.38 1.036-.574 1.065-.546 1.363.106 1.131zm3.29-.307c0-.587.758-2.247 1.204-2.542.692-.458 2.176-.258 2.494.337.444.829.401.924-.421.924-.496 0-1.077.215-.944.678.274.957-.645 1.035-1.712 1.036-.549.001-.62-.123-.62-.433zm1.126-4.52c.238-1.014 1.845-2.556 2.528-2.424.275.053.546.339.603.635.137.712-.586 2.308-.878 1.836-.07-.113-.198-.435-.37-.426-.197.01-.445.373-.65.599-.827.914-1.472.8-1.233-.219zm4.39-3.349c0-1.141 1.087-2.511 1.897-2.392.667.098 1.21 1.452.903 2.251-.2.52-1.141.957-2.123.985-.55.016-.678-.144-.678-.844zm3.909-.63c.337-.629 2.11-1.345 2.461-.994.367.367-.105.881-1.249 1.36-1.238.517-1.623.401-1.212-.366zm-.371-3.403c-.171-1.762.017-2.022 1.473-2.029 1.053-.004 1.317.478 1.094 1.997-.094.642-.373 1.009-.936 1.232-1.353.537-1.471.45-1.632-1.2zm3.748-.018c-.112-.948 1.093-2.317 2.039-2.317.959 0 .797 1.372-.289 2.458-1.044 1.044-1.615.998-1.75-.141zm-1.261-4.366c0-1.883.334-2.47 1.405-2.47.874 0 1.366.926 1.248 2.348-.081.975-.227 1.163-1.147 1.477-.58.198-1.156.367-1.28.377s-.226-.769-.226-1.73zm4.105-.002c-.314-1.094.013-1.643 1.411-2.365 1.614-.834 1.777.574.296 2.55-.877 1.17-1.333 1.121-1.707-.184zm1.027-7.871c-.425-.794-.394-2.83.05-3.274.551-.551 1.356-.433 2.037.298.797.856.781 1.986-.041 2.861-.798.85-1.627.896-2.046.115zm3.886-2.742c-.744-.753-.589-1.493.23-2.256 1.046-.974 1.21-.908 1.21.557 0 .712-.07 1.334-.304 1.657-.443.611-.756.333-1.136.042zm-1.954-3.143c-.24-.575-.437-1.595-.437-2.267 0-1.048.115-1.266.805-1.528 1.249-.475 1.794.308 1.653 2.375-.027.4 0 1.006-.222.989-.216-.017-.904-.985-1.054-.911-.164.081.073.891.148 1.3.266 1.42-.306 1.448-.893.043zm.485-6.014c-.197-.237-.437-1.199-.534-2.138-.195-1.891.037-2.238 1.503-2.246.622-.002.911.193 1.13.768.468 1.23.355 1.979-.324 2.157-.378.099-.685.497-.791 1.026-.192.962-.451 1.076-.984.434zm.582-7.778c-.773-1.267-.771-2.765.003-3.54.783-.783 1.033-.76 1.63.152.948 1.446.951 2.499.011 3.479-.468.488-.895.888-.949.888s-.367-.441-.696-.979zm2.38-3.918c-.718-.618-.763-.785-.515-1.929.437-2.014 1.839-2.011 2.217.006.18.961-.251 2.604-.682 2.601-.128-.001-.587-.306-1.02-.678zm-3.097-2.268c-.239-.461-.521-1.309-.627-1.883-.43-2.322 1.676-2.863 2.705-.695.485 1.021.488 1.137.036 1.467a1.34 1.34 0 0 0-.49.953c0 1.264-1.001 1.361-1.623.157zm-4.108-13.644c-.315-.895-.276-1.454.743-1.695.461-.109.788.025 1.055.744.275.74.221.376.287.837.018.122.202.378.166.418-.09.099-.438-.09-.51.031-.137.231-.234.476-.228.639-.12.749-.205 1.236-.367 1.213-.313-.046-.854-1.356-1.147-2.188z" opacity=".921" fill="url(#I)"/><path d="M83.678 592.829c-1.63-6.761 7.488-12.516 13.396-16.12-2.583 5.742-.318 9.35 6.794 10.736-3.434 1.65-6.435 3.735-9.454 5.801zm-73.219 0c1.63-6.761-7.488-12.516-13.396-16.12 2.583 5.742.318 9.35-6.794 10.736 3.434 1.65 6.435 3.735 9.454 5.801zm-12.05 2.66c-.481 3.426.355 11.5-6.794 14.485-1.265 4.551 27.855 14.928 55.453 14.85 27.598.078 56.718-10.299 55.453-14.85-7.149-2.985-6.313-11.059-6.794-14.485-4.497 11.925-32.364 13.766-48.523 13.778-.045 0-.09-.003-.136-.003s-.09.003-.136.003c-16.159-.012-44.027-1.853-48.523-13.778z" fill="#71bf44"/><g fill="#22b24c"><use href="#J"/><use href="#K"/><use href="#L"/><use href="#M"/><use href="#N"/><use href="#O"/><use href="#P"/><use href="#Q"/><use href="#R"/><use href="#S"/><path d="M71.369 612.066l1.356-.273.17.746q.12-.485.433-.787.313-.302.747-.389.307-.062.678.023l-.201 1.378q-.308-.075-.487-.039-.365.073-.523.549-.152.475.13 1.715l.072.287.546 2.394-1.57.316zm8.094-.909l-.727 1.141q-.739-.411-1.222-.297-.264.062-.385.206-.122.138-.08.294.032.119.151.2.124.074.543.159l.647.134q1.02.207 1.476.564.456.357.613.945.209.783-.265 1.451-.469.667-1.497.91-1.367.323-2.452-.488l.701-1.216q.357.237.775.339.423.095.71.027.31-.073.462-.258.152-.185.103-.369-.091-.34-.861-.502l-.595-.123q-1.709-.36-1.998-1.439-.186-.696.251-1.322.442-.632 1.332-.843.609-.144 1.211-.016.607.121 1.106.502z"/><use href="#T"/><use href="#U"/><use href="#V"/></g><g fill="#fff"><use href="#J" x="0.492" y="0.491"/><use href="#K" x="0.492" y="0.492"/><use href="#L" x="0.492" y="0.492"/><use href="#M" x="0.491" y="0.491"/><use href="#N" x="0.491" y="0.492"/><use href="#O" x="0.566" y="0.492"/><use href="#P" x="0.492" y="0.492"/><use href="#Q" x="0.492" y="0.492"/><use href="#R" x="0.492" y="0.492"/><use href="#S" x="0.492" y="0.492"/><path d="M71.861 612.558l1.356-.273.17.746q.12-.485.433-.787.313-.302.747-.389.307-.062.678.023l-.201 1.378q-.308-.075-.487-.038-.365.073-.523.549-.152.475.13 1.715l.072.287.546 2.394-1.57.316zm8.094-.909l-.727 1.141q-.739-.411-1.222-.297-.264.062-.385.206-.122.138-.08.294.032.119.151.2.124.074.543.159l.647.134q1.02.207 1.476.564.456.357.613.945.209.783-.265 1.451-.469.667-1.497.91-1.367.323-2.452-.488l.701-1.216q.357.237.775.339.423.095.71.028.31-.073.462-.258.152-.185.103-.369-.091-.34-.861-.502l-.595-.123q-1.709-.36-1.998-1.439-.186-.696.251-1.322.442-.632 1.332-.843.609-.144 1.211-.016.607.121 1.106.502z"/><use href="#T" x="0.492" y="0.491"/><use href="#U" x="0.492" y="0.492"/><use href="#V" x="0.492" y="0.492"/></g><path d="M2.911 591.243c-2.802-.108-5.095.756-4.502 4.246 1.305 3.461 4.582 6.072 8.967 8.036.964-3.629 2.044-7.141 3.082-10.696-1.437-.398-4.747-1.478-7.548-1.586zm88.315 0c2.802-.108 5.095.756 4.502 4.246-1.305 3.461-4.582 6.072-8.967 8.036-.964-3.629-2.044-7.141-3.082-10.696 1.437-.398 4.747-1.478 7.548-1.586z" fill="#22b24c"/><g transform="matrix(.256379 0 0 .256379 -9.975973 519.63851)"><g transform="translate(-21.387 -1.845)"><path d="M243.887 59.057c-16.552 1.047-21.597 2.854-28.498 4.583-25.062 13.625-52.986 19.176-84.037 10.507l.785 142.164c9.396 42.406 54.194 84.534 111.75 112.063 57.556-27.529 102.354-69.657 111.75-112.062l.785-142.164c-31.051 8.669-58.976 3.118-84.037-10.507-6.901-1.729-11.946-3.536-28.498-4.583z" fill="#71bf44"/><path d="M260.061 222.681c.07 19.504 1.061 39.01 4.48 58.514-12.701 11.755-15.93 25.539-20.654 39.004-4.724-13.465-7.956-27.249-20.656-39.004 3.419-19.504 4.41-39.01 4.48-58.514z" fill="url(#E)"/><path d="M243.887 320.198V219.91" fill="none" stroke="#71bf44"/><circle cx="243.887" cy="261.699" r="5.438" fill="#71bf44" fill-rule="evenodd"/><path d="M262.838 222.681l9.547-159.041c-9.499-4.151-18.999-4.586-28.498-4.584h0c-9.499-.003-18.999.433-28.498 4.584l9.547 159.041z" fill="url(#C)"/><path d="M224.313 222.681c-6.003.084-6.288 4.2 3.414 3.799h16.16 16.16c10.015.414 9.387-3.986 2.814-3.795h-18.975-18.975l-.6-.004z" fill="url(#D)"/></g><path d="M207.522 41.323h30.582c20.52-11.333 15.773-26.834.707-38.272-8.578-6.512-8.96-10.973-9.811-16.175C219.079.382 235.143 8.42 238.9 15.072c6.736 11.929-.971 18.436-7.955 22.097 10.793-13.745 5.037-20.747-3.27-31.201-12.22-17.223 4.439-25.107 5.568-26.163-24.103 3.377-24.635 22.49-12.728 35.797 9.696 10.837 6.119 15.878 3.27 21.744 1.044-9.599-2.277-17.501-9.899-23.865-6.144-5.129-4.306-10.879-3.094-16.529-5.061 2.464-16.347 14.713-3.182 27.047 11.907 10.246 10.909 11.889 11.225 14.407-3.687-3.974-7.926-7.051-14.672-12.374-6.57-5.185-4.148-9.866-4.508-14.319-7.572 8.005-9.146 15.918-1.414 23.688 2.527 2.683 5.821 4.406 9.281 5.922z" fill="url(#F)"/><path d="M195.365 45.422h54.27v7.69h-54.27z" fill="#22b24c" fill-rule="evenodd"/><g transform="matrix(.99344 0 0 .99344 787.30731 -44.953726)"><g fill="#fff"><use href="#W"/><use href="#X"/><use href="#Y"/></g><g transform="matrix(-1 0 0 1 -996.018 0)" fill="#fff"><use href="#W"/><use href="#X"/><use href="#Y"/></g></g><g transform="matrix(1.011078 0 0 1.011078 452.15847 -35.619681)"><path d="M-335.125 185.125L-298 176.5l40.125 5.75-40.375 8.25z" fill="#fff"/><g stroke="#fff"><path d="M-328.055 185.742l.088 10.96" fill="#ffefef"/><path d="M-326.302 196.82a1.71 1.71 0 0 1-2.917 1.208 1.71 1.71 0 0 1 1.208-2.917 1.71 1.71 0 0 1 1.709 1.709z" fill="#fff" fill-rule="evenodd" stroke-width=".832"/><path d="M-328.057 191.5l.091 5.194" fill="#ffefef" stroke-width="1.898" stroke-linecap="round"/></g><path d="M-316.607 189.151l18.517 2.784 16.09-3.498 2.516 11.497c-15.281 2.347-28.877 2.257-39.686-.088zm58.981 2.623c-13.289 7.419-23.99 14.464-54.475 24.371-.205 1.245-.224 2.255-.117 3.105l.043.346c.494 2.793 2.544 3.62 4.406 4.68 16.682-10.62 35.328-18.12 56.018-22.377-.104-1.941-.185-3.891-.818-5.607l.053 2.889c.017.94-.815 1.127-1.437.5-1.336-1.344-2.084-3.003-2.453-4.672-.157-.71.11-1.016.688-.75.766.353 1.368 1.101 1.953 2.609.962 2.481.777-.055.855-1.365v-.002c-.793-1.572-2.184-2.891-4.715-3.727zm.019.82c.124.011.266.052.428.121.309.132.682.389 1.025.617-.914-.288-1.684-.381-1.576 1.102l.209 1.859c-.327-1.043-.737-2.036-.686-3.02.025-.489.228-.714.6-.68zm-52.941 25.367c.542-.01.924.225 1.52 1.166.765 1.209.545 2.37.465 2.586 0 0-.211.877-1.006.365-.634-.433-.822-.932-.955-1.232-.37-.838-.547-1.617-.359-1.895.21-.312.638-.295.857-.023.158.196.999 1.352.869 2.102-.04.23-.395.246-.621-.148-.307-.536-.359-1.077-.436-1.59-.046-.307-.408-.273-.406-.008.004.578.196 1.054.457 1.57.215.426.488.74.678.857.319.221.579.082.656-.197.187-.678-.241-1.89-.682-2.426-.146-.178-.586-1.074-1.311-.773a.64.64 0 0 0-.395.438c-.143.477-.017.931.022 1.393-.144-.459-.4-1.054-.242-1.613.129-.405.445-.515.646-.553a2.45 2.45 0 0 1 .242-.018z" fill="#fff"/><path d="M-288.009 204.845c-1.738.272-2.749 1.034-3.195 1.388 0 0-2.721 1.784-1.594 5.513 1.1 3.638 9.702-.504 12.342-3.332 2.64 2.073 11.242 3.757 12.342-.196 1.127-4.051-1.594-5.057-1.594-5.057-.893-.453-4.045-1.894-10.748 3.237-3.352-1.608-5.815-1.826-7.553-1.553z" fill="#71bf44" stroke="#fff" stroke-width="2"/><path d="M-280.456 207.094l-2.289 2.891c-2.427 5.794-5.39 10.837-8.396 15.82 1.149.532 2.298.588 3.447.178 3.081-5.455 5.331-11.409 7.238-17.568 1.907 6.159 4.157 12.114 7.238 17.568a4.39 4.39 0 0 0 3.447-.178c-3.006-4.984-5.969-10.026-8.396-15.82zm-11.509 1.872l7.303-3.049-3.668-.729-3.745 2.486zm15.081.011l8.099-2.729.376 2.066-2.674 1.724-5.889-.563z" fill="#fff"/></g></g></g></svg>