<svg xmlns="http://www.w3.org/2000/svg" viewBox="0 0 449.34 512"><g fill="#e855de" class="color000000 svgShape" data-name="Layer 2"><path d="M224.67,512a9.88,9.88,0,0,1-2.7-.37L46.4,462.43a10,10,0,0,1-7.26-8.75L0,10.88A10,10,0,0,1,10,0H439.34a10,10,0,0,1,10,10.88L410.13,453.71a10,10,0,0,1-7.26,8.75l-175.5,49.17A9.88,9.88,0,0,1,224.67,512ZM58.45,445l166.22,46.58,166.15-46.56L428.42,20H20.92Z" class="color000000 svgShape"/><path d="M224.58,419.76a10.18,10.18,0,0,1-2.68-.36L110.73,388.53a10,10,0,0,1-7.28-8.75l-7.76-87.21a10,10,0,0,1,10-10.89h54.47a10,10,0,0,1,10,9.11l3.42,38.29,51.08,13.83L276,329l6.29-57.46-179.2.49h0a10,10,0,0,1-10-9l-5.4-51.53a10,10,0,0,1,9.83-11.05l191.16-2.26L291.28,163l-199,.56h0a10,10,0,0,1-10-9.32l-3.52-51.32a10,10,0,0,1,10-10.68H360.58a10,10,0,0,1,10,10.89L365.7,157.4,360.77,213,345.86,379.79a10,10,0,0,1-7.29,8.74L227.31,419.38A9.73,9.73,0,0,1,224.58,419.76ZM122.76,371.11l101.82,28.27,102-28.27,14.3-159.87,4.93-55.62h0l3.87-43.38H99.47l2.15,31.29L302,143h0a10,10,0,0,1,10,10.73L308,208.87a10,10,0,0,1-9.85,9.26l-189.37,2.24L112.05,252l181.35-.5h0a10,10,0,0,1,9.94,11.08L295.12,338a10,10,0,0,1-7.34,8.57L227.61,362.8a10,10,0,0,1-5.61.13l-60.45-16.36a10,10,0,0,1-7.34-8.76L151,301.68H116.58ZM335.9,378.9h0Z" class="color000000 svgShape"/></g></svg>