<svg xmlns="http://www.w3.org/2000/svg" viewBox="0 0 48 48"><defs><linearGradient id="a" x1="24.061" x2="40.601" y1="44.223" y2="14.897" gradientUnits="userSpaceOnUse"><stop class="stopColorf0a919 svgShape" offset="0" stop-color="#1948f0"/><stop class="stopColorfde467 svgShape" offset=".958" stop-color="#6787fd"/></linearGradient><linearGradient id="b" x1="7.103" x2="22.844" y1="14.261" y2="42.387" gradientUnits="userSpaceOnUse"><stop class="stopColor00b4ff svgShape" offset=".006" stop-color="#0037ff"/><stop class="stopColor1367ce svgShape" offset="1" stop-color="#2a56f5"/></linearGradient><linearGradient id="c" x1="24" x2="24" y1="3.37" y2="24.777" gradientUnits="userSpaceOnUse"><stop class="stopColor8be2d6 svgShape" offset="0" stop-color="#8b9ee2"/><stop class="stopColor47d2c0 svgShape" offset="1" stop-color="#4765d2"/></linearGradient></defs><path fill="url(#a)" d="m41.86,14.27v19.46c0,.36-.19.69-.5.87l-16.86,9.74c-.15.08-.33.13-.5.13v-21.47l16.23-9.58c.29-.21.68-.24,1.01-.08.34.17.62.55.62.93Z"/><path fill="url(#b)" d="m24,23v21.47c-.17,0-.35-.05-.5-.13l-16.86-9.74c-.31-.18-.5-.51-.5-.87V14.27c0-.3799.22-.73.56-.9.33-.16.78-.16,1.07.05l16.23,9.58Z"/><path fill="url(#c)" d="m41.8,14.2c.01.34-.15.66-.43.86l-16.8,9.98c-.17.12-.37.18-.57.18s-.4-.06-.57-.18L6.63,15.06c-.28-.2-.44-.52-.43-.86.02-.34.2-.65.5-.83L23.5,3.66c.31-.17.69-.17,1,0l16.8,9.71c.3.18.48.49.5.83Z"/></svg>