<svg xmlns="http://www.w3.org/2000/svg" viewBox="0 0 750 750" id="js"><path d="M359.18,413.4a20,20,0,0,0-20,20v4.66a65.76,65.76,0,0,0,65.68,65.68h13.05a65.76,65.76,0,0,0,65.68-65.68V422.79a65.76,65.76,0,0,0-65.68-65.68H404.86a25.71,25.71,0,0,1-25.68-25.67v-15.5a25.71,25.71,0,0,1,25.68-25.68h13.05a25.71,25.71,0,0,1,25.68,25.68,20,20,0,0,0,40,0,65.76,65.76,0,0,0-65.68-65.68H404.86a65.76,65.76,0,0,0-65.68,65.68v15.5a65.75,65.75,0,0,0,65.68,65.67h13.05a25.71,25.71,0,0,1,25.68,25.68v15.27a25.71,25.71,0,0,1-25.68,25.68H404.86a25.71,25.71,0,0,1-25.68-25.68V433.4A20,20,0,0,0,359.18,413.4Z" fill="#5400ee" class="color000000 svgShape"></path><path d="M180.15,524.11a66,66,0,0,0,98.6-57.34V337.44a20,20,0,0,0-40,0V466.77a26,26,0,0,1-38.81,22.57,20.41,20.41,0,0,1-10.3-17.57l-1.2-191.21a20.43,20.43,0,0,1,10.08-17.7l165-96.64a20.41,20.41,0,0,1,20.37-.13l166.18,94.57a20.41,20.41,0,0,1,10.3,17.57l1.2,191.21a20.43,20.43,0,0,1-10.08,17.7l-165,96.64a20.41,20.41,0,0,1-20.37.13L341.7,570a20,20,0,1,0-19.79,34.76l24.43,13.9a60.53,60.53,0,0,0,60.37-.37l165-96.64a60.56,60.56,0,0,0,29.86-52.47L600.36,278a60.55,60.55,0,0,0-30.51-52.09L403.66,131.33a60.54,60.54,0,0,0-60.37.37l-165,96.64a60.56,60.56,0,0,0-29.86,52.47L149.64,472A60.55,60.55,0,0,0,180.15,524.11Z" fill="#5400ee" class="color000000 svgShape"></path></svg>