<svg xmlns="http://www.w3.org/2000/svg" viewBox="0 0 1216 726" fill="none" xmlns:v="https://vecta.io/nano"><style><![CDATA[.B{stroke:rgba(255, 255, 255, 1.0)}.C{stroke:rgba(0, 0, 0, 1.0)}.D{fill:#fff}.E{fill-opacity:.25}]]></style><mask id="A" maskUnits="userSpaceOnUse" width="1216" height="726" x="0" y="0" mask-type="alpha"><path fill="url(#B)" d="M0 0h1216v725.8H0z"/></mask><g mask="url(#A)" class="B"><use href="#C"/><use href="#D"/><use href="#E"/><use href="#E" x="43.3" y="75"/><use href="#C" x="173.199" y="150"/><use href="#F"/><use href="#E" x="-216.499" y="75"/><use href="#C" x="-86.6" y="150"/><use href="#C" x="-43.3" y="75"/><use href="#C" y="150"/><use href="#D" y="150"/><use href="#E" y="150"/><use href="#G"/><use href="#H"/><use href="#H" x="43.3" y="-75"/><use href="#H" x="86.6"/><use href="#H" x="129.9" y="75"/><use href="#H" x="173.2"/><use href="#E" x="43.3" y="225" class="D E"/><use href="#C" x="173.199" y="300"/><use href="#F" y="150"/><use href="#G" y="150"/><use href="#H" y="150"/><use href="#H" x="43.3" y="75"/><use href="#I"/><use href="#H" y="-300"/><use href="#J"/><use href="#H" x="86.6" y="-300"/><use href="#H" x="129.9" y="-225"/><use href="#H" x="173.2" y="-300"/><use href="#E" x="43.3" y="-75"/><use href="#C" x="173.199"/><use href="#F" y="-150"/><use href="#G" y="-150"/><use href="#H" y="-150"/><use href="#H" x="43.3" y="-225"/><use href="#H" x="86.6" y="-150"/><use href="#H" x="129.9" y="-75"/><use href="#H" x="173.2" y="-150"/><use href="#K"/><use href="#K" x="86.644"/><use href="#L"/><use href="#K" x="173.287"/><use href="#K" x="-173.286"/><use href="#L" x="-259.928"/><use href="#K" x="-86.643"/><use href="#L" x="-173.285"/><use href="#M"/><use href="#L" x="-86.641"/><use href="#L" x="86.644"/><use href="#M" x="259.929"/><use href="#L" x="173.289"/><use href="#M" x="346.572"/><use href="#M" x="389.893" y="75"/><use href="#M" x="433.215"/><use href="#M" x="86.644"/><use href="#M" x="129.963" y="75"/><use href="#M" x="173.287"/><use href="#M" x="216.607" y="75"/><use href="#M" x="259.929" y="150"/><use href="#M" x="303.252" y="75" class="D E"/><use href="#N"/><use href="#K" x="519.86"/><use href="#K" x="606.503"/><use href="#L" x="519.862" class="D E"/><use href="#O"/><use href="#K" x="346.572"/><use href="#L" x="259.93"/><use href="#K" x="433.215"/><use href="#L" x="346.575"/><use href="#M" x="519.86"/><use href="#L" x="433.216"/><use href="#E" x="-476.499" y="375"/><use href="#C" x="-346.6" y="450"/><use href="#C" x="-303.3" y="375"/><use href="#C" x="-260" y="450"/><use href="#E" x="-260" y="450"/><use href="#P"/><use href="#Q"/><use href="#E" x="-216.7" y="225"/><use href="#C" x="-86.801" y="300"/><use href="#C" x="-43.501" y="225"/><use href="#D" x="-43.501" y="225"/><use href="#E" x="-43.501" y="375"/><use href="#E" x="-0.201" y="300"/><use href="#C" x="-260" y="300"/><use href="#D" x="-260" y="300"/><use href="#E" x="-260" y="300"/><use href="#E" x="-216.7" y="375"/><use href="#C" x="-86.801" y="450"/><use href="#C" x="-43.501" y="375"/><use href="#C" x="129.698" y="375"/><use href="#C" x="172.998" y="450"/><use href="#R"/><use href="#H" x="-43.5" y="225"/><use href="#S"/><use href="#D" x="-43.501" y="375"/><use href="#E" x="-0.201" y="450"/><use href="#M" x="-303.255" y="225"/><use href="#M" x="-259.937" y="300"/><use href="#M" x="-216.613" y="225"/><use href="#M" x="-173.292" y="300"/><use href="#M" x="-129.97" y="375"/><use href="#M" x="-86.648" y="300"/><use href="#T"/><use href="#M" x="-0.006" y="450"/><use href="#M" x="43.316" y="375" class="D E"/><use href="#M" x="-303.255" y="375"/><use href="#M" x="-259.937" y="450"/><use href="#M" x="-216.613" y="375"/><use href="#M" x="-173.292" y="450"/><use href="#M" x="-129.97" y="525"/><use href="#M" x="-86.648" y="450"/><use href="#M" x="-173.292" class="D E"/><use href="#M" x="-129.97" y="75"/><use href="#M" x="-86.648"/><use href="#T" y="-300"/><use href="#M" x="-0.006" y="150"/><use href="#M" x="43.316" y="75"/><use href="#M" x="-303.255" y="75"/><use href="#M" x="-259.937" y="150"/><use href="#M" x="-216.613" y="75"/><use href="#M" x="-173.292" y="150"/><use href="#M" x="-129.97" y="225"/><use href="#M" x="-86.648" y="150"/><use href="#M" x="86.638" y="150"/><use href="#M" x="129.961" y="225"/><use href="#M" x="173.28" y="150"/><use href="#M" x="216.603" y="225"/><use href="#M" x="259.925" y="300"/><use href="#M" x="303.245" y="225"/><use href="#T" y="-150"/><use href="#M" x="-0.006" y="300"/><use href="#M" x="43.316" y="225"/><use href="#M" x="86.638" y="300"/><use href="#M" x="129.961" y="375"/><use href="#M" x="173.28" y="300"/></g><g mask="url(#A)" class="C"><use href="#C"/><use href="#D"/><use href="#E"/><use href="#E" x="43.3" y="75"/><use href="#C" x="173.199" y="150"/><use href="#F"/><use href="#E" x="-216.499" y="75"/><use href="#C" x="-86.6" y="150"/><use href="#C" x="-43.3" y="75"/><use href="#C" y="150"/><use href="#D" y="150"/><use href="#E" y="150"/><use href="#G"/><use href="#H"/><use href="#H" x="43.3" y="-75"/><use href="#H" x="86.6"/><use href="#H" x="129.9" y="75"/><use href="#H" x="173.2"/><use href="#E" x="43.3" y="225" class="D E"/><use href="#C" x="173.199" y="300"/><use href="#F" y="150"/><use href="#G" y="150"/><use href="#H" y="150"/><use href="#H" x="43.3" y="75"/><use href="#I"/><use href="#H" y="-300"/><use href="#J"/><use href="#H" x="86.6" y="-300"/><use href="#H" x="129.9" y="-225"/><use href="#H" x="173.2" y="-300"/><use href="#E" x="43.3" y="-75"/><use href="#C" x="173.199"/><use href="#F" y="-150"/><use href="#G" y="-150"/><use href="#H" y="-150"/><use href="#H" x="43.3" y="-225"/><use href="#H" x="86.6" y="-150"/><use href="#H" x="129.9" y="-75"/><use href="#H" x="173.2" y="-150"/><use href="#K"/><use href="#K" x="86.644"/><use href="#L"/><use href="#K" x="173.287"/><use href="#K" x="-173.286"/><use href="#L" x="-259.928"/><use href="#K" x="-86.643"/><use href="#L" x="-173.285"/><use href="#M"/><use href="#L" x="-86.641"/><use href="#L" x="86.644"/><use href="#M" x="259.929"/><use href="#L" x="173.289"/><use href="#M" x="346.572"/><use href="#M" x="389.893" y="75"/><use href="#M" x="433.215"/><use href="#M" x="86.644"/><use href="#M" x="129.963" y="75"/><use href="#M" x="173.287"/><use href="#M" x="216.607" y="75"/><use href="#M" x="259.929" y="150"/><use href="#M" x="303.252" y="75" class="D E"/><use href="#N"/><use href="#K" x="519.86"/><use href="#K" x="606.503"/><use href="#L" x="519.862" class="D E"/><use href="#O"/><use href="#K" x="346.572"/><use href="#L" x="259.93"/><use href="#K" x="433.215"/><use href="#L" x="346.575"/><use href="#M" x="519.86"/><use href="#L" x="433.216"/><use href="#E" x="-476.499" y="375"/><use href="#C" x="-346.6" y="450"/><use href="#C" x="-303.3" y="375"/><use href="#C" x="-260" y="450"/><use href="#E" x="-260" y="450"/><use href="#P"/><use href="#Q"/><use href="#E" x="-216.7" y="225"/><use href="#C" x="-86.801" y="300"/><use href="#C" x="-43.501" y="225"/><use href="#D" x="-43.501" y="225"/><use href="#E" x="-43.501" y="375"/><use href="#E" x="-0.201" y="300"/><use href="#C" x="-260" y="300"/><use href="#D" x="-260" y="300"/><use href="#E" x="-260" y="300"/><use href="#E" x="-216.7" y="375"/><use href="#C" x="-86.801" y="450"/><use href="#C" x="-43.501" y="375"/><use href="#C" x="129.698" y="375"/><use href="#C" x="172.998" y="450"/><use href="#R"/><use href="#H" x="-43.5" y="225"/><use href="#S"/><use href="#D" x="-43.501" y="375"/><use href="#E" x="-0.201" y="450"/><use href="#M" x="-303.255" y="225"/><use href="#M" x="-259.937" y="300"/><use href="#M" x="-216.613" y="225"/><use href="#M" x="-173.292" y="300"/><use href="#M" x="-129.97" y="375"/><use href="#M" x="-86.648" y="300"/><use href="#T"/><use href="#M" x="-0.006" y="450"/><use href="#M" x="43.316" y="375" class="D E"/><use href="#M" x="-303.255" y="375"/><use href="#M" x="-259.937" y="450"/><use href="#M" x="-216.613" y="375"/><use href="#M" x="-173.292" y="450"/><use href="#M" x="-129.97" y="525"/><use href="#M" x="-86.648" y="450"/><use href="#M" x="-173.292" class="D E"/><use href="#M" x="-129.97" y="75"/><use href="#M" x="-86.648"/><use href="#T" y="-300"/><use href="#M" x="-0.006" y="150"/><use href="#M" x="43.316" y="75"/><use href="#M" x="-303.255" y="75"/><use href="#M" x="-259.937" y="150"/><use href="#M" x="-216.613" y="75"/><use href="#M" x="-173.292" y="150"/><use href="#M" x="-129.97" y="225"/><use href="#M" x="-86.648" y="150"/><use href="#M" x="86.638" y="150"/><use href="#M" x="129.961" y="225"/><use href="#M" x="173.28" y="150"/><use href="#M" x="216.603" y="225"/><use href="#M" x="259.925" y="300"/><use href="#M" x="303.245" y="225"/><use href="#T" y="-150"/><use href="#M" x="-0.006" y="300"/><use href="#M" x="43.316" y="225"/><use href="#M" x="86.638" y="300"/><use href="#M" x="129.961" y="375"/><use href="#M" x="173.28" y="300"/></g><defs><radialGradient id="B" cx="0" cy="0" r="1" gradientUnits="userSpaceOnUse" gradientTransform="translate(608 362.9) rotate(90) scale(447.374 749.527)"><stop stop-color="#d9d9d9" stop-opacity=".1"/><stop offset=".802" stop-color="#d9d9d9" stop-opacity="0"/></radialGradient><path id="C" d="M717.133 231.367l42.666-24.634 42.666 24.634v49.266l-42.666 24.634-42.666-24.634v-49.266z"/><path id="D" d="M760.432 306.367l42.667-24.634 42.666 24.634v49.266l-42.666 24.634-42.667-24.634v-49.266z"/><path id="E" d="M803.732 231.367l42.666-24.634 42.667 24.634v49.266l-42.667 24.634-42.666-24.634v-49.266z"/><path id="F" d="M933.632 306.367l42.666-24.634 42.662 24.634v49.266l-42.662 24.634-42.666-24.634v-49.266z"/><path id="G" d="M976.931 381.367l42.669-24.634 42.66 24.634v49.266l-42.66 24.634-42.669-24.634v-49.266z"/><path id="H" d="M1020.23 456.367l42.67-24.634 42.66 24.634v49.266l-42.66 24.634-42.67-24.634v-49.266z"/><path id="I" d="M976.931 81.367l42.669-24.633 42.66 24.633v49.266l-42.66 24.634-42.669-24.634V81.367z"/><path id="J" d="M1063.53 81.367l42.67-24.633 42.66 24.633v49.266l-42.66 24.634-42.67-24.634V81.367z"/><path id="K" d="M240.523 6.367l42.688-24.634 42.688 24.634v49.267l-42.688 24.634-42.688-24.634V6.367z"/><path id="L" d="M370.486 81.367l42.688-24.634 42.688 24.634v49.266l-42.688 24.634-42.688-24.634V81.367z"/><path id="M" d="M240.523 156.367l42.688-24.634 42.688 24.634v49.266l-42.688 24.634-42.688-24.634v-49.266z"/><path id="N" d="M500.452 6.367l42.688-24.634 42.688 24.634v49.267L543.14 80.267l-42.688-24.634V6.367z"/><path id="O" d="M933.667 6.367l42.688-24.634 42.685 24.634v49.267l-42.685 24.634-42.688-24.634V6.367z"/><path id="P" d="M197.334 681.367L240 656.733l42.666 24.634v49.266L240 755.267l-42.666-24.634v-49.266z"/><path id="Q" d="M283.933 681.367l42.667-24.634 42.666 24.634v49.266L326.6 755.267l-42.667-24.634v-49.266z"/><path id="R" d="M933.43 606.367l42.667-24.634 42.663 24.634v49.266l-42.663 24.634-42.667-24.634v-49.266z"/><path id="S" d="M1063.33 681.367l42.67-24.634 42.66 24.634v49.266L1106 755.267l-42.67-24.634v-49.266z"/><path id="T" d="M197.195 531.367l42.689-24.634 42.688 24.634v49.266l-42.688 24.634-42.689-24.634v-49.266z"/></defs></svg>