<svg xmlns="http://www.w3.org/2000/svg" enable-background="new 0 0 5500 4000" viewBox="0 0 5500 4000"><path fill="none" stroke="#e855de" stroke-miterlimit="10" stroke-width="20" d="M1346.38,1435.95l-111.84,762.73c-14.73,100.42,48.44,195.5,144.78,217.91l2236.93,520.47   c92.37,21.49,185.9-30.82,218.54-122.22l515.59-1443.69c46.81-131.08-52.49-268.5-188.06-260.26l-2640.67,160.49   C1432.75,1276.79,1359.66,1345.42,1346.38,1435.95z" class="colorStrokec4c4c4 svgStroke"/><path fill="#dd6bd5" d="M4544.86,1639.54l-67.97,236.22l-37.15,129.13l-138.51,481.41c-19.31,67.07-79.05,114.51-148.75,118.09   l-190.43,9.79l-2076.46,106.78l-196.19,10.09c-0.86,0.05-1.72,0.09-2.57,0.11c-3.98,0.14-7.93,0.14-11.86-0.01   c-73.37-2.66-136.8-54.3-153.39-127.03l-227.59-997.32l-4.39-19.25l-52.78-231.28c-5.71-25.04-5.39-49.68-0.15-72.65   c17.43-76.48,89.35-134.38,174.52-126.57l2991.45,274.44C4504.83,1440.85,4573.24,1540.93,4544.86,1639.54z" class="colora6dd6b svgShape"/><path fill="#7a2f75" d="M926.49,2385.47l-101.41,44.25l186.88,428.34c4.42,10.13,17.53,14.18,29.29,9.05l58.84-25.67    c11.76-5.13,17.7-17.5,13.28-27.63l-82.72-189.6c-6.59-15.11,2.28-33.56,19.81-41.21l0,0c17.53-7.65,26.41-26.1,19.81-41.21    l-80.29-184.02L926.49,2385.47z" class="color367a2f svgShape"/><path fill="#c44abc" d="M1059.49,2858.87l-58.84,25.68c-11.76,5.13-24.87,1.07-29.29-9.06l-91.52-209.77l-95.36-218.56l101.41-44.25    l63.49-27.7l38.41,88.03c0,0,0,0,0,0.01l41.88,95.98c0.94,2.15,1.56,4.38,1.9,6.64c1.99,13.52-6.68,28.02-21.71,34.57    c-17.54,7.65-26.41,26.1-19.81,41.21l82.72,189.6C1077.19,2841.37,1071.25,2853.74,1059.49,2858.87z" class="color82c44a svgShape"/><path fill="#a841a1" d="M987.8,2463.23C987.8,2463.23,987.8,2463.23,987.8,2463.23c-0.21,1.4-18.49,119.78-107.96,202.49    l-95.36-218.56l101.41-44.25l63.49-27.7L987.8,2463.23z" class="color4ba841 svgShape"/><path fill="#5e5e5e" d="M695.12,2532.16c6.13-32.76-15.67-90.17-57.79-144.88s-92.05-90.47-125.28-92.92l-5.79-7.52l-17.41,13.41     c-28.25,21.75-7.58,95.98,46.17,165.8c53.75,69.82,120.23,108.78,148.48,87.03l17.41-13.41L695.12,2532.16z" class="color5e5e5e svgShape"/><path fill="#dedede" d="M950.83,2413.47l-188.34,144.99c-14.33,11.04-36.07,10.31-61.45,0.04     c-41.09-16.65-91.71-58.33-135.85-115.68c-19.34-25.12-35.45-50.66-47.92-75.13c-11.11-21.81-19.34-42.77-24.4-61.82     c-2.5-9.47-4.21-18.46-5.12-26.85c-0.99-9.33-0.97-17.9,0.11-25.57c1.92-13.52,7.15-24.16,15.98-30.96l188.32-144.98l4.41,5.73     l16.23,21.08l0.93,1.21l215.07,279.37l17.6,22.85L950.83,2413.47z" class="colordedede svgShape"/><path fill="#fff" d="M713.75,2105.53l-18.57,25.01l-207.42,148.47c-0.99-9.33-0.97-17.9,0.11-25.57     c1.92-13.52,7.15-24.16,15.98-30.96l188.32-144.98l4.41,5.73l16.23,21.08L713.75,2105.53z" class="colorffffff svgShape"/><path fill="#cfcfcf" d="M1543.83,2173.11l-587.89,233c-1.85,0.53-3.76,0.93-5.75,1.23c-1.24,0.18-2.49,0.32-3.78,0.41l4.41,5.73     L762.5,2558.45c-14.33,11.04-36.07,10.31-61.45,0.03l198.67-161.76l0.01,0l29.1-11.84l546.58-222.26l49.64-13.92L1543.83,2173.11     z" class="colorcfcfcf svgShape"/><rect width="424" height="33.24" x="612.92" y="2226.23" fill="#a841a1" class="color4ba841 svgShape" transform="rotate(52.41 824.94 2242.747)"/><ellipse cx="814.68" cy="2250.74" fill="#de62d6" class="colora2de62 svgShape" rx="85.79" ry="212" transform="rotate(-37.59 814.761 2250.852)"/><path fill="#a841a1" d="M1543.83,2173.11l-587.89,233.01c-1.85,0.52-3.77,0.93-5.75,1.22c-1.23,0.18-2.49,0.32-3.77,0.41     c-13.35,0.95-29.28-2.94-46.7-11.01l-0.01,0c-22.16-10.28-46.68-27.32-71.27-49.78c-19.45-17.75-38.92-38.88-57.27-62.72     c-18.35-23.83-33.8-48.06-45.99-71.39c-12.15-23.25-21.06-45.62-26.38-65.81c-1.5-5.68-2.71-11.18-3.62-16.49     c-3.24-18.62-2.88-34.8,1.4-47.31c1.07-3.18,2.41-6.11,4.01-8.8l375.59-508.76l5.8,7.53l286.89,372.65l156.16,202.85     L1543.83,2173.11z" class="color4ba841 svgShape"/><path fill="#c44abc" d="M1368.88,1945.86l-53.66,114.29c0,0-341.48,225.4-616.41,86.88c-8.08-30.64-7.9-56.32,1.78-72.6     l138.68-187.85l8.89-12.05l228.02-308.86l53.64,69.66l35.26,45.8L1368.88,1945.86z" class="color82c44a svgShape"/><path fill="#7a2f75" d="M1543.83,2173.11l-587.89,233c-1.85,0.53-3.76,0.93-5.75,1.23c-1.24,0.18-2.49,0.32-3.78,0.41     c-13.34,0.95-29.29-2.94-46.69-11.01l29.1-11.84l546.58-222.26l49.64-13.92L1543.83,2173.11z" class="color367a2f svgShape"/><path fill="#de62d6" d="M1081.99,1573.21l-17.42,59.69l-369.38,497.64c-3.24-18.62-2.88-34.8,1.4-47.31     c1.07-3.18,2.41-6.11,4.01-8.8l375.59-508.76L1081.99,1573.21z" class="colora2de62 svgShape"/><ellipse cx="1476.57" cy="1741.17" fill="#7a2f75" class="color367a2f svgShape" rx="336.87" ry="531.43" transform="rotate(-37.59 1476.69 1741.248)"/><ellipse cx="1495.81" cy="1726.35" fill="#dedede" class="colordedede svgShape" rx="332.14" ry="531.43" transform="rotate(-37.59 1495.934 1726.433)"/><ellipse cx="1522.85" cy="1705.53" fill="#f2f2f2" class="colorf2f2f2 svgShape" rx="298.01" ry="490.16" transform="rotate(-37.59 1522.98 1705.61)"/><path fill="#dedede" d="M1732.05,1544.47c-160.16-208.03-389.69-299.91-512.66-205.24c-49.29,37.95-73.98,100.11-75.56,174.38      c-1.47,69.22,17.13,148.96,54.62,229.4c22.63,48.57,52.14,97.39,88.26,144.31s75.78,87.94,116.94,122.23      c68.18,56.81,140.51,95.19,207.81,111.47c72.2,17.47,138.61,9.49,187.91-28.46C1922.35,1997.9,1892.21,1752.5,1732.05,1544.47z" class="colordedede svgShape"/><path fill="#cfcfcf" d="M1611.47,2121.03c-107.93-26.1-228.79-109.06-324.75-233.7c-95.96-124.64-145.25-262.7-142.88-373.72      c101,5.91,232.58,89.73,336.47,224.67C1584.2,1873.24,1631.59,2021.88,1611.47,2121.03z" class="colorcfcfcf svgShape"/><path fill="#a841a1" d="M1574.52,1806.58l-170.86,202.98c-10.2-8.49-20.3-17.41-30.29-26.72c-30.31-28.26-59.48-60.21-86.66-95.51       c-22.27-28.93-42.02-58.57-59.19-88.44c-10.7-18.58-20.39-37.25-29.07-55.88l239.93-113.27l47.81,62.1l69.58,90.39       L1574.52,1806.58z" class="color4ba841 svgShape"/><path fill="#c44abc" d="M1486.18,1691.84l-21.24,79.35c0,0-123.97,66.18-237.43,27.7c-10.7-18.58-20.39-37.25-29.07-55.88       l239.93-113.27L1486.18,1691.84z" class="color82c44a svgShape"/><path fill="#7a2f75" d="M1574.52,1806.58l-170.86,202.98c-10.2-8.49-20.3-17.41-30.29-26.72l171.54-190.09l10.86-10.53       L1574.52,1806.58z" class="color367a2f svgShape"/><path fill="#de62d6" d="M1558.71,1677.93c-37.59-48.83-91.47-70.4-120.34-48.18c-28.87,22.22-21.79,79.83,15.8,128.66        c37.59,48.83,91.47,70.4,120.34,48.18C1603.38,1784.36,1596.3,1726.76,1558.71,1677.93z M1480.31,1738.29        c-18.8-24.42-22.34-53.22-7.9-64.33c14.43-11.11,41.37-0.33,60.17,24.09c18.8,24.42,22.33,53.22,7.9,64.33        C1526.04,1773.49,1499.1,1762.71,1480.31,1738.29z" class="colora2de62 svgShape"/><ellipse cx="1506.44" cy="1718.17" fill="#fff" class="colorffffff svgShape" rx="32.98" ry="55.79" transform="rotate(-37.59 1506.557 1718.24)"/><g class="color000000 svgShape"><path fill="#5e5e5e" d="M601.3,2400.12l-2.7-3.5c-2.35-3.05-1.78-7.42,1.27-9.76l87.7-67.52c3.05-2.35,7.42-1.78,9.76,1.27l2.7,3.5     c2.35,3.05,1.78,7.42-1.27,9.76l-87.7,67.52C608.01,2403.74,603.64,2403.17,601.3,2400.12z" class="color5e5e5e svgShape"/><path fill="#5e5e5e" d="M625.38,2431.4l-2.7-3.5c-2.35-3.05-1.78-7.42,1.27-9.76l87.7-67.52c3.05-2.35,7.42-1.78,9.76,1.27l2.7,3.5     c2.35,3.05,1.78,7.42-1.27,9.76l-87.7,67.52C632.09,2435.01,627.72,2434.45,625.38,2431.4z" class="color5e5e5e svgShape"/><path fill="#5e5e5e" d="M649.46,2462.68l-2.7-3.5c-2.35-3.05-1.78-7.42,1.27-9.76l87.7-67.52c3.05-2.35,7.42-1.78,9.76,1.27l2.7,3.5     c2.35,3.05,1.78,7.42-1.27,9.76l-87.7,67.52C656.17,2466.29,651.8,2465.72,649.46,2462.68z" class="color5e5e5e svgShape"/></g><g class="color000000 svgShape"><path fill="#7a2f75" d="M4560.82,2758.05l71.39,31.15l-131.56,301.53c-3.11,7.13-12.34,9.98-20.62,6.37l-41.42-18.07    c-8.27-3.61-12.46-12.32-9.35-19.45l58.23-133.47c4.64-10.64-1.6-23.63-13.95-29.01l0,0c-12.34-5.39-18.59-18.37-13.95-29.01    l56.52-129.54L4560.82,2758.05z" class="color367a2f svgShape"/><path fill="#c44abc" d="M4467.19,3091.31l41.42,18.07c8.28,3.61,17.51,0.75,20.62-6.37l64.43-147.67l67.13-153.86l-71.39-31.15    l-44.7-19.5l-27.04,61.97c0,0,0,0,0,0.01l-29.48,67.57c-0.66,1.52-1.1,3.08-1.33,4.67c-1.4,9.52,4.71,19.72,15.28,24.34    c12.35,5.38,18.59,18.37,13.95,29.01l-58.23,133.47C4454.73,3078.99,4458.91,3087.7,4467.19,3091.31z" class="color82c44a svgShape"/><path fill="#a841a1" d="M4517.66,2812.8C4517.66,2812.8,4517.66,2812.8,4517.66,2812.8c0.15,0.99,13.01,84.32,76,142.54l67.13-153.86    l-71.39-31.15l-44.7-19.5L4517.66,2812.8z" class="color4ba841 svgShape"/><path fill="#5e5e5e" d="M4723.69,2861.32c-4.31-23.06,11.03-63.48,40.68-101.99s64.8-63.69,88.19-65.41l4.07-5.29l12.26,9.44     c19.89,15.31,5.34,67.57-32.5,116.72c-37.84,49.15-84.64,76.58-104.52,61.27l-12.26-9.44L4723.69,2861.32z" class="color5e5e5e svgShape"/><path fill="#dedede" d="M4543.68,2777.76l132.58,102.06c10.09,7.77,25.39,7.26,43.25,0.03c28.92-11.72,64.56-41.06,95.64-81.44     c13.61-17.68,24.96-35.66,33.74-52.89c7.82-15.35,13.62-30.11,17.17-43.52c1.76-6.67,2.97-13,3.6-18.9     c0.7-6.57,0.69-12.6-0.08-18c-1.35-9.52-5.03-17.01-11.25-21.79l-132.57-102.06l-3.11,4.04l-11.43,14.84l-0.66,0.85     l-151.4,196.66l-12.39,16.09L4543.68,2777.76z" class="colordedede svgShape"/><path fill="#fff" d="M4710.57,2560.99l13.07,17.61l146.02,104.51c0.7-6.57,0.69-12.6-0.08-18c-1.35-9.52-5.03-17.01-11.25-21.79     l-132.57-102.06l-3.11,4.04l-11.43,14.84L4710.57,2560.99z" class="colorffffff svgShape"/><path fill="#cfcfcf" d="M4126.23,2608.56l413.85,164.02c1.3,0.37,2.65,0.66,4.05,0.86c0.87,0.13,1.76,0.22,2.66,0.29l-3.1,4.03     l132.58,102.06c10.09,7.77,25.39,7.26,43.26,0.02l-139.85-113.87l-0.01,0l-20.48-8.33l-384.77-156.46l-34.94-9.8L4126.23,2608.56     z" class="colorcfcfcf svgShape"/><rect width="298.48" height="23.4" x="4483.07" y="2645.96" fill="#a841a1" class="color4ba841 svgShape" transform="rotate(127.59 4632.31 2657.768)"/><ellipse cx="4639.53" cy="2663.21" fill="#de62d6" class="colora2de62 svgShape" rx="149.24" ry="60.39" transform="rotate(-52.41 4639.3 2663.203)"/><path fill="#a841a1" d="M4126.23,2608.56l413.85,164.03c1.3,0.37,2.65,0.66,4.04,0.86c0.87,0.13,1.75,0.22,2.66,0.29     c9.4,0.67,20.61-2.07,32.87-7.75l0.01,0c15.6-7.24,32.86-19.23,50.17-35.05c13.69-12.49,27.4-27.37,40.32-44.15     c12.92-16.78,23.79-33.83,32.37-50.25c8.55-16.37,14.82-32.11,18.57-46.33c1.06-4,1.91-7.87,2.55-11.61     c2.28-13.11,2.03-24.5-0.98-33.3c-0.75-2.24-1.7-4.3-2.83-6.19l-264.4-358.14l-4.08,5.3l-201.96,262.33l-109.93,142.8     L4126.23,2608.56z" class="color4ba841 svgShape"/><path fill="#c44abc" d="M4249.4,2448.59l37.77,80.46c0,0,240.39,158.67,433.92,61.16c5.69-21.57,5.56-39.64-1.25-51.1l-97.63-132.24     l-6.26-8.48l-160.52-217.42l-37.76,49.04l-24.82,32.24L4249.4,2448.59z" class="color82c44a svgShape"/><path fill="#7a2f75" d="M4126.23,2608.56l413.85,164.02c1.3,0.37,2.65,0.66,4.05,0.86c0.87,0.13,1.76,0.22,2.66,0.29     c9.39,0.67,20.62-2.07,32.87-7.75l-20.48-8.33l-384.77-156.46l-34.94-9.8L4126.23,2608.56z" class="color367a2f svgShape"/><path fill="#de62d6" d="M4451.35,2186.26l12.27,42.02l260.03,350.32c2.28-13.11,2.03-24.5-0.98-33.3c-0.75-2.24-1.7-4.3-2.83-6.19     l-264.4-358.14L4451.35,2186.26z" class="colora2de62 svgShape"/><ellipse cx="4173.59" cy="2304.49" fill="#7a2f75" class="color367a2f svgShape" rx="374.1" ry="237.14" transform="rotate(-52.41 4173.362 2304.49)"/><ellipse cx="4160.04" cy="2294.07" fill="#dedede" class="colordedede svgShape" rx="374.1" ry="233.82" transform="rotate(-52.41 4159.815 2294.06)"/><ellipse cx="4141" cy="2279.41" fill="#f2f2f2" class="colorf2f2f2 svgShape" rx="345.06" ry="209.79" transform="rotate(-52.41 4140.78 2279.404)"/><path fill="#dedede" d="M3993.73,2166.03c112.75-146.44,274.32-211.13,360.89-144.48c34.7,26.72,52.08,70.48,53.19,122.76      c1.04,48.73-12.06,104.86-38.45,161.49c-15.93,34.19-36.7,68.56-62.13,101.59c-25.43,33.03-53.34,61.91-82.32,86.04      c-48,39.99-98.92,67.01-146.29,78.47c-50.83,12.3-97.58,6.68-132.28-20.04C3859.77,2485.22,3880.99,2312.47,3993.73,2166.03z" class="colordedede svgShape"/><path fill="#cfcfcf" d="M4078.62,2571.9c75.98-18.38,161.06-76.77,228.61-164.52c67.55-87.74,102.25-184.93,100.58-263.08      c-71.1,4.16-163.73,63.16-236.86,158.16C4097.82,2397.46,4064.46,2502.1,4078.62,2571.9z" class="colorcfcfcf svgShape"/><path fill="#a841a1" d="M4104.63,2350.54l120.28,142.89c7.18-5.98,14.29-12.25,21.32-18.81c21.34-19.9,41.87-42.39,61-67.23       c15.68-20.37,29.58-41.23,41.67-62.26c7.53-13.08,14.35-26.22,20.47-39.34l-168.9-79.74l-33.66,43.71l-48.98,63.63       L4104.63,2350.54z" class="color4ba841 svgShape"/><path fill="#c44abc" d="M4166.82,2269.77l14.95,55.86c0,0,87.27,46.59,167.14,19.5c7.53-13.08,14.35-26.22,20.47-39.34       l-168.9-79.74L4166.82,2269.77z" class="color82c44a svgShape"/><path fill="#7a2f75" d="M4104.63,2350.54l120.28,142.89c7.18-5.98,14.29-12.25,21.32-18.81l-120.76-133.81l-7.64-7.41       L4104.63,2350.54z" class="color367a2f svgShape"/><path fill="#de62d6" d="M4104.64,2350.55c20.32,15.64,58.25,0.46,84.71-33.92c26.47-34.38,31.45-74.93,11.12-90.57        c-20.32-15.64-58.25-0.46-84.71,33.92C4089.29,2294.35,4084.31,2334.9,4104.64,2350.55z M4128.6,2319.42        c-10.16-7.82-7.67-28.1,5.56-45.29c13.23-17.19,32.2-24.78,42.36-16.96s7.67,28.1-5.56,45.29        C4157.72,2319.65,4138.76,2327.25,4128.6,2319.42z" class="colora2de62 svgShape"/><ellipse cx="4152.55" cy="2288.3" fill="#fff" class="colorffffff svgShape" rx="39.28" ry="23.22" transform="rotate(-52.41 4152.346 2288.299)"/><g class="color000000 svgShape"><path fill="#5e5e5e" d="M4789.74,2768.37l1.9-2.46c1.65-2.14,1.25-5.22-0.89-6.87L4729,2711.5c-2.14-1.65-5.22-1.25-6.87,0.89     l-1.9,2.46c-1.65,2.14-1.25,5.22,0.89,6.87l61.74,47.53C4785.01,2770.91,4788.09,2770.51,4789.74,2768.37z" class="color5e5e5e svgShape"/><path fill="#5e5e5e" d="M4772.79,2790.39l1.9-2.46c1.65-2.14,1.25-5.22-0.89-6.87l-61.74-47.53c-2.14-1.65-5.22-1.25-6.87,0.89     l-1.9,2.46c-1.65,2.14-1.25,5.22,0.89,6.87l61.74,47.53C4768.06,2792.93,4771.14,2792.53,4772.79,2790.39z" class="color5e5e5e svgShape"/><path fill="#5e5e5e" d="M4755.84,2812.41l1.9-2.46c1.65-2.14,1.25-5.22-0.89-6.87l-61.74-47.53c-2.14-1.65-5.22-1.25-6.87,0.89     l-1.9,2.46c-1.65,2.14-1.25,5.22,0.89,6.87l61.74,47.53C4751.11,2814.95,4754.19,2814.55,4755.84,2812.41z" class="color5e5e5e svgShape"/></g></g><g class="color000000 svgShape"><path fill="#dd6bd5" d="M4031.12,3121.57c0.61-1.91,1.19-3.81,1.73-5.72c0.3-1.05,0.58-2.09,0.86-3.14     c5.59-21.35,6.78-42.9,5.44-63.16c-0.12-1.93-0.27-3.85-0.45-5.75c-4.92-54.81-27.43-98.89-28.85-101.63     c-0.03-0.06-0.05-0.1-0.06-0.12c-0.01-0.01-0.01-0.02-0.01-0.02s-0.01,0-0.02,0.01c-0.42,0.21-6.99,3.53-16.98,9.82     c-0.6,0.38-1.22,0.77-1.84,1.17c-28.99,18.57-83.27,60.28-103.26,122.35c-27.82,86.4,21.35,179.54,21.35,179.54     s0.05-0.02,0.14-0.07c1.33-0.67,12.22-6.28,27.18-16.56c0.59-0.41,1.19-0.82,1.8-1.25c8.07-5.63,17.22-12.56,26.62-20.76     c0.56-0.49,1.12-0.98,1.69-1.48c8.23-7.29,16.63-15.54,24.64-24.72c0.51-0.59,1.03-1.18,1.53-1.77l0,0     c7.87-9.19,15.33-19.28,21.87-30.27c0.44-0.74,0.88-1.48,1.31-2.23C4021.94,3145.19,4027.19,3133.77,4031.12,3121.57z" class="colora6dd6b svgShape"/><path fill="#fff" d="M3938.14,3237.04l-14.14-28.3l-23.6-47.25l-1.94,0.97l24.59,49.24l13.29,26.6       C3936.94,3237.88,3937.54,3237.46,3938.14,3237.04z" class="colorffffff svgShape"/><path fill="#fff" d="M3966.45,3214.8l-26.99-54.04l-21.22-42.49l-1.94,0.97l22.21,44.47l26.26,52.57       C3965.32,3215.79,3965.89,3215.29,3966.45,3214.8z" class="colorffffff svgShape"/><path fill="#fff" d="M3992.63,3188.3L3992.63,3188.3l-37.72-75.52l-18.84-37.72l-1.94,0.97l19.83,39.7l37.14,74.34       C3991.61,3189.49,3992.12,3188.9,3992.63,3188.3z" class="colorffffff svgShape"/><path fill="#fff" d="M4015.81,3155.79l-45.45-91l-16.46-32.95l-1.94,0.97l17.45,34.93l45.09,90.28       C4014.94,3157.28,4015.38,3156.54,4015.81,3155.79z" class="colorffffff svgShape"/><path fill="#fff" d="M4032.85,3115.85c0.3-1.05,0.58-2.09,0.86-3.14l-47.9-95.89l-14.07-28.18l-1.94,0.97l15.06,30.16       L4032.85,3115.85z" class="colorffffff svgShape"/><path fill="#fff" d="M4039.14,3049.55c-0.12-1.93-0.27-3.85-0.45-5.75l-37.44-74.96l-8.48-16.97c-0.6,0.38-1.22,0.77-1.84,1.17       l9.37,18.76L4039.14,3049.55z" class="colorffffff svgShape"/><path fill="#d35ecb" d="M3909.16,3254.85l100.72-312.79l-0.09-0.02l-0.03-0.01c-0.42,0.21-6.99,3.53-16.98,9.82     c-0.6,0.38-1.22,0.77-1.84,1.17c-28.99,18.57-83.27,60.28-103.26,122.35c-27.82,86.4,21.35,179.54,21.35,179.54     S3909.07,3254.9,3909.16,3254.85z" class="color97d35e svgShape"/><path fill="#dd6bd5" d="M4169.44,2986.61c-1.22-0.71-2.45-1.4-3.68-2.07c-0.68-0.36-1.35-0.72-2.03-1.07     c-13.86-7.12-28.54-11.24-42.71-13.43c-1.35-0.21-2.69-0.4-4.03-0.57c-38.54-5-72.38,3.76-74.49,4.33     c-0.05,0.01-0.08,0.02-0.09,0.02c-0.01,0-0.01,0-0.01,0s0,0.01,0,0.02c0.08,0.32,1.36,5.36,4.17,13.21     c0.17,0.47,0.34,0.96,0.52,1.45c8.36,22.83,28.8,66.65,68.54,89.94c55.31,32.42,127.05,12.79,127.05,12.79s-0.01-0.04-0.03-0.1     c-0.26-1.02-2.46-9.39-7.26-21.28c-0.19-0.47-0.38-0.95-0.58-1.43c-2.64-6.43-6.02-13.79-10.24-21.53     c-0.25-0.46-0.5-0.93-0.76-1.39c-3.76-6.79-8.16-13.84-13.27-20.78c-0.33-0.44-0.65-0.89-0.99-1.33l0,0     c-5.13-6.83-10.95-13.52-17.52-19.72c-0.44-0.42-0.89-0.83-1.34-1.24C4184.32,2996.56,4177.26,2991.19,4169.44,2986.61z" class="colora6dd6b svgShape"/><path fill="#fff" d="M4234.81,3068.4l-21.68,5.41l-36.2,9.04l0.37,1.49l37.71-9.41l20.37-5.09       C4235.21,3069.36,4235.01,3068.88,4234.81,3068.4z" class="colorffffff svgShape"/><path fill="#fff" d="M4223.81,3045.48l-41.39,10.33l-32.54,8.12l0.37,1.49l34.06-8.5l40.26-10.05       C4224.33,3046.4,4224.07,3045.94,4223.81,3045.48z" class="colorffffff svgShape"/><path fill="#fff" d="M4209.56,3023.37L4209.56,3023.37l-57.85,14.44l-28.89,7.21l0.37,1.48l30.41-7.59l56.95-14.22       C4210.22,3024.25,4209.89,3023.81,4209.56,3023.37z" class="colorffffff svgShape"/><path fill="#fff" d="M4190.7,3002.41l-69.7,17.4l-25.24,6.3l0.37,1.48l26.75-6.68l69.15-17.26       C4191.59,3003.23,4191.15,3002.82,4190.7,3002.41z" class="colorffffff svgShape"/><path fill="#fff" d="M4165.77,2984.54c-0.68-0.36-1.35-0.72-2.03-1.07l-73.45,18.33l-21.58,5.39l0.37,1.49l23.1-5.77       L4165.77,2984.54z" class="colorffffff svgShape"/><path fill="#fff" d="M4121.02,2970.04c-1.35-0.21-2.69-0.4-4.03-0.57l-57.42,14.33l-13,3.25c0.17,0.47,0.34,0.96,0.52,1.45       l14.37-3.59L4121.02,2970.04z" class="colorffffff svgShape"/><path fill="#d35ecb" d="M4242.65,3091.11l-200.22-117.35l-0.03,0.06l-0.01,0.02c0.08,0.32,1.36,5.36,4.17,13.21     c0.17,0.47,0.34,0.96,0.52,1.45c8.36,22.83,28.8,66.65,68.54,89.94c55.31,32.42,127.05,12.79,127.05,12.79     S4242.67,3091.18,4242.65,3091.11z" class="color97d35e svgShape"/><g class="color000000 svgShape"><path fill="#dd6bd5" d="M1009.35,1044.52c0.8,1.55,1.62,3.08,2.47,4.59c0.46,0.83,0.94,1.65,1.41,2.46     c9.75,16.58,22.33,30.57,35.67,42.2c1.27,1.11,2.54,2.2,3.83,3.26c36.89,30.67,77.96,43.87,80.53,44.67     c0.05,0.02,0.09,0.03,0.11,0.04c0.01,0,0.02,0.01,0.02,0.01s0-0.01,0.01-0.02c0.13-0.39,2.12-6.49,4.37-16.53     c0.14-0.6,0.27-1.22,0.41-1.85c6.36-29.33,13.97-88.51-12.08-139.03c-36.27-70.32-124.04-97.23-124.04-97.23     s-0.01,0.04-0.04,0.13c-0.4,1.23-3.64,11.41-6.48,26.98c-0.11,0.62-0.23,1.24-0.34,1.88c-1.49,8.45-2.83,18.36-3.54,29.21     c-0.04,0.65-0.09,1.3-0.12,1.95c-0.56,9.57-0.63,19.83,0.12,30.43c0.05,0.68,0.1,1.36,0.15,2.04l0,0     c0.84,10.51,2.48,21.33,5.25,32.13c0.19,0.73,0.38,1.45,0.57,2.18C1000.41,1024.32,1004.23,1034.59,1009.35,1044.52z" class="colora6dd6b svgShape"/><path fill="#fff" d="M995.2,916.07l26.18,8.67l43.71,14.48l0.59-1.79l-45.54-15.09l-24.6-8.15       C995.43,914.81,995.31,915.44,995.2,916.07z" class="colorffffff svgShape"/><path fill="#fff" d="M991.54,947.24l49.98,16.56l39.3,13.02l0.59-1.79l-41.13-13.63l-48.62-16.11       C991.61,945.93,991.57,946.59,991.54,947.24z" class="colorffffff svgShape"/><path fill="#fff" d="M991.8,979.71L991.8,979.71l69.85,23.14l34.89,11.56l0.59-1.79l-36.72-12.16l-68.76-22.78       C991.7,978.34,991.75,979.02,991.8,979.71z" class="colorffffff svgShape"/><path fill="#fff" d="M997.63,1014.02l84.17,27.88l30.47,10.09l0.59-1.79l-32.31-10.7l-83.5-27.66       C997.24,1012.56,997.43,1013.29,997.63,1014.02z" class="colorffffff svgShape"/><path fill="#fff" d="M1011.83,1049.11c0.46,0.83,0.94,1.65,1.41,2.46l88.69,29.38l26.06,8.63l0.59-1.79l-27.89-9.24       L1011.83,1049.11z" class="colorffffff svgShape"/><path fill="#fff" d="M1048.91,1093.77c1.27,1.11,2.54,2.2,3.83,3.26l69.33,22.97l15.7,5.2c0.14-0.6,0.27-1.22,0.41-1.85       l-17.35-5.75L1048.91,1093.77z" class="colorffffff svgShape"/><path fill="#d35ecb" d="M1002.02,887.22l131.29,254.58l0.07-0.05l0.02-0.02c0.13-0.39,2.12-6.49,4.37-16.53     c0.14-0.6,0.27-1.22,0.41-1.85c6.36-29.33,13.97-88.51-12.08-139.03c-36.27-70.32-124.04-97.23-124.04-97.23     S1002.05,887.13,1002.02,887.22z" class="color97d35e svgShape"/></g><g class="color000000 svgShape"><path fill="#dd6bd5" d="M1007.66,1212.97c1.19-0.31,2.37-0.65,3.54-1c0.64-0.19,1.28-0.39,1.91-0.6     c12.93-4.18,24.5-10.72,34.56-18.13c0.96-0.7,1.9-1.42,2.83-2.14c26.79-20.73,42.19-47.03,43.14-48.68     c0.02-0.03,0.03-0.06,0.04-0.07c0-0.01,0.01-0.01,0.01-0.01s0,0-0.01-0.01c-0.25-0.15-4.15-2.46-10.72-5.55     c-0.4-0.19-0.8-0.38-1.22-0.57c-19.25-8.88-58.88-23.19-97.71-12.97c-54.04,14.23-86.03,70.63-86.03,70.63s0.03,0.02,0.08,0.05     c0.79,0.46,7.31,4.26,17.61,8.6c0.41,0.17,0.82,0.35,1.24,0.52c5.6,2.32,12.23,4.76,19.6,6.92c0.44,0.13,0.88,0.26,1.33,0.38     c6.51,1.85,13.57,3.47,21,4.58c0.47,0.07,0.95,0.14,1.43,0.21l0,0c7.37,1.03,15.09,1.55,22.95,1.3c0.53-0.02,1.06-0.04,1.59-0.06     C992.37,1216.04,1000.03,1214.98,1007.66,1212.97z" class="colora6dd6b svgShape"/><path fill="#fff" d="M916.93,1203.05l9.99-16.72l16.68-27.92l-1.15-0.68l-17.38,29.09l-9.39,15.71       C916.1,1202.71,916.51,1202.88,916.93,1203.05z" class="colorffffff svgShape"/><path fill="#fff" d="M937.86,1210.36l19.07-31.92l14.99-25.1l-1.15-0.68l-15.69,26.27l-18.55,31.05       C936.97,1210.1,937.41,1210.23,937.86,1210.36z" class="colorffffff svgShape"/><path fill="#fff" d="M960.28,1215.14L960.28,1215.14l26.65-44.61l13.31-22.28l-1.15-0.68l-14.01,23.45l-26.24,43.92       C959.33,1215.01,959.81,1215.08,960.28,1215.14z" class="colorffffff svgShape"/><path fill="#fff" d="M984.83,1216.38l32.12-53.76l11.63-19.46l-1.15-0.68l-12.33,20.63l-31.86,53.33       C983.77,1216.43,984.3,1216.41,984.83,1216.38z" class="colorffffff svgShape"/><path fill="#fff" d="M1011.2,1211.97c0.64-0.19,1.28-0.39,1.91-0.6l33.84-56.65l9.94-16.65l-1.15-0.68l-10.64,17.82       L1011.2,1211.97z" class="colorffffff svgShape"/><path fill="#fff" d="M1047.68,1193.24c0.96-0.7,1.9-1.42,2.83-2.14l26.46-44.28l5.99-10.03c-0.4-0.19-0.8-0.38-1.22-0.57       l-6.62,11.08L1047.68,1193.24z" class="colorffffff svgShape"/><path fill="#d35ecb" d="M898.08,1193.93l195.63-51.52l-0.02-0.05l-0.01-0.02c-0.25-0.15-4.15-2.46-10.72-5.55     c-0.4-0.19-0.8-0.38-1.22-0.57c-19.25-8.88-58.88-23.19-97.71-12.97c-54.04,14.23-86.03,70.63-86.03,70.63     S898.03,1193.9,898.08,1193.93z" class="color97d35e svgShape"/></g><g class="color000000 svgShape"><path fill="#d35ecb" d="M2162.77,3208.62c-24.18,0-43.85-19.67-43.85-43.85c0-24.18,19.67-43.85,43.85-43.85     c24.18,0,43.85,19.67,43.85,43.85C2206.62,3188.95,2186.95,3208.62,2162.77,3208.62z M2162.77,3142.31     c-12.38,0-22.46,10.08-22.46,22.46s10.08,22.46,22.46,22.46c12.38,0,22.46-10.08,22.46-22.46S2175.15,3142.31,2162.77,3142.31z" class="color97d35e svgShape"/></g><g class="color000000 svgShape"><path fill="#d35ecb" d="M4667.28,2005.15c-24.18,0-43.85-19.67-43.85-43.85c0-24.18,19.67-43.85,43.85-43.85     s43.85,19.67,43.85,43.85C4711.13,1985.48,4691.46,2005.15,4667.28,2005.15z M4667.28,1938.84c-12.38,0-22.46,10.08-22.46,22.46     s10.08,22.46,22.46,22.46c12.38,0,22.46-10.08,22.46-22.46S4679.66,1938.84,4667.28,1938.84z" class="color97d35e svgShape"/></g><g class="color000000 svgShape"><path fill="#d35ecb" d="M2666.29,842.62c-24.18,0-43.85-19.67-43.85-43.85c0-24.18,19.67-43.85,43.85-43.85     c24.18,0,43.85,19.67,43.85,43.85C2710.14,822.95,2690.47,842.62,2666.29,842.62z M2666.29,776.31     c-12.38,0-22.46,10.08-22.46,22.46c0,12.38,10.08,22.46,22.46,22.46c12.38,0,22.46-10.08,22.46-22.46     C2688.75,786.39,2678.67,776.31,2666.29,776.31z" class="color97d35e svgShape"/></g><g class="color000000 svgShape"><path fill="#d35ecb" d="M3523.68,2802.71c-5.54,0-10.22-4.27-10.65-9.88l-5.24-68.25c-0.45-5.89,3.95-11.03,9.84-11.48      c5.88-0.46,11.03,3.96,11.48,9.84l5.24,68.25c0.45,5.89-3.95,11.03-9.84,11.48C3524.23,2802.7,3523.95,2802.71,3523.68,2802.71z      " class="color97d35e svgShape"/><path fill="#d35ecb" d="M3486.93,2771.21c-5.54,0-10.22-4.27-10.65-9.88c-0.45-5.89,3.96-11.03,9.84-11.48l68.25-5.24      c5.9-0.45,11.03,3.96,11.48,9.84c0.45,5.89-3.95,11.03-9.84,11.48l-68.25,5.24C3487.48,2771.2,3487.2,2771.21,3486.93,2771.21z" class="color97d35e svgShape"/></g><g class="color000000 svgShape"><path fill="#d35ecb" d="M4132.77,1309.29c-5.54,0-10.22-4.27-10.65-9.88l-5.24-68.25c-0.45-5.89,3.95-11.03,9.84-11.48      c5.88-0.46,11.03,3.96,11.48,9.84l5.24,68.25c0.45,5.89-3.96,11.03-9.84,11.48C4133.32,1309.28,4133.04,1309.29,4132.77,1309.29      z" class="color97d35e svgShape"/><path fill="#d35ecb" d="M4096.02,1277.78c-5.54,0-10.22-4.27-10.65-9.88c-0.45-5.89,3.96-11.03,9.84-11.48l68.25-5.24      c5.9-0.45,11.03,3.96,11.48,9.84c0.45,5.89-3.95,11.03-9.84,11.48l-68.25,5.24C4096.57,1277.77,4096.29,1277.78,4096.02,1277.78      z" class="color97d35e svgShape"/></g><g class="color000000 svgShape"><path fill="#d35ecb" d="M728.4,2848.24c-5.54,0-10.22-4.27-10.65-9.88l-5.24-68.25c-0.45-5.89,3.96-11.03,9.84-11.48      c5.88-0.46,11.03,3.96,11.48,9.84l5.24,68.25c0.45,5.89-3.95,11.03-9.84,11.48C728.95,2848.23,728.67,2848.24,728.4,2848.24z" class="color97d35e svgShape"/><path fill="#d35ecb" d="M691.65,2816.74c-5.54,0-10.22-4.27-10.65-9.88c-0.45-5.89,3.96-11.03,9.84-11.48l68.25-5.24      c5.9-0.45,11.03,3.96,11.48,9.84c0.45,5.89-3.95,11.03-9.84,11.48l-68.25,5.24C692.2,2816.73,691.93,2816.74,691.65,2816.74z" class="color97d35e svgShape"/></g></g><g class="color000000 svgShape"><path fill="#fff" d="M2314.5,1861.74l6.02-4.72c7.62-4.89,13.04-7.4,16.25-7.53c7.11-0.28,15.05,5.85,23.81,18.37   c5.36,7.84,8.14,14.16,8.33,18.98c0.19,4.82-1.2,8.9-4.18,12.23c-2.97,3.34-6.47,6.34-10.51,9.03c-4.03,2.69-7.9,5.25-11.59,7.69   c-3.7,2.44-11.32,5.73-22.88,9.86c-11.56,4.12-22.79,6.41-33.69,6.83c-10.9,0.43-21.97-0.58-33.21-3.01   c-11.24-2.43-22.9-6.8-34.98-13.11c-12.09-6.3-23.02-14.15-32.81-23.54c-9.79-9.38-18.03-21.58-24.7-36.61   c-6.68-15.02-10.37-31.48-11.07-49.38s1.64-34.25,7.04-49.05c5.39-14.8,12.55-27.15,21.48-37.04c8.92-9.88,19.22-18.27,30.9-25.17   c22-13.27,44.36-20.35,67.08-21.24c10.78-0.42,21.8,0.82,33.07,3.7c11.26,2.89,19.82,5.95,25.7,9.16l8.45,4.5   c4.23,2.37,7.52,4.31,9.88,5.82c6.15,4.59,9.35,9.92,9.59,16c0.24,6.08-1.92,12.54-6.48,19.39c-8.46,12.74-16.26,19.25-23.37,19.53   c-4.13,0.16-10.08-2.13-17.85-6.89c-9.94-7.42-22.95-10.82-39.01-10.2c-14.92,0.58-29.4,6.32-43.45,17.21   c-6.69,5.32-12.15,12.66-16.38,22.01c-4.23,9.36-6.12,19.83-5.67,31.42c0.45,11.59,3.15,21.89,8.1,30.88c4.95,9,11.08,16,18.4,21   c14.39,9.55,29.16,14.03,44.3,13.43c7.11-0.28,13.79-1.45,20.03-3.54C2307.36,1865.7,2311.82,1863.69,2314.5,1861.74z" class="colorffffff svgShape"/><path fill="#fff" d="M2501.56,1664.83c33.96-1.33,63.92,9.8,89.9,33.37c25.97,23.58,39.67,53.55,41.09,89.92   c1.42,36.37-9.3,67.82-32.16,94.33c-22.87,26.52-51.74,40.46-86.61,41.83c-34.88,1.36-65.03-10.09-90.46-34.38   c-25.42-24.28-38.82-53.86-40.18-88.74c-0.75-19.04,2-37.02,8.23-53.93c6.23-16.9,14.86-31.2,25.9-42.9   c11.03-11.69,23.88-21.04,38.55-28.05C2470.48,1669.27,2485.73,1665.45,2501.56,1664.83z M2443.99,1797.04   c0.8,20.43,8.04,36.74,21.74,48.96c13.69,12.22,28.68,18.01,44.98,17.37c16.29-0.64,30.73-7.41,43.33-20.31   c12.59-12.9,18.48-29.79,17.67-50.68c-0.82-20.88-8.07-37.37-21.76-49.48c-13.69-12.1-28.68-17.84-44.97-17.2   c-16.29,0.64-30.73,7.58-43.31,20.83S2443.19,1776.62,2443.99,1797.04z" class="colorffffff svgShape"/><path fill="#fff" d="M2918.53,1661.27c1.97,3.37,3.18,6.43,3.63,9.17c0.45,2.74,0.78,6.75,0.99,12.03l7.47,191.03   c0.62,15.83-3.38,25.3-11.99,28.39c-4.31,1.55-9.79,2.45-16.44,2.71c-6.66,0.26-11.96-0.1-15.9-1.1c-3.95-0.99-6.98-2.25-9.11-3.78   c-2.13-1.52-3.83-3.76-5.09-6.7c-1.3-3.85-2.11-9.79-2.42-17.83l-4.51-115.3c-5.46,7.34-13.39,18.97-23.8,34.89   c-10.41,15.92-17.03,25.89-19.86,29.91c-2.83,4.02-4.79,6.8-5.88,8.33c-1.09,1.54-3.82,3.71-8.19,6.53   c-4.37,2.82-9.14,4.32-14.3,4.52c-5.16,0.2-9.92-0.82-14.25-3.06c-4.34-2.24-7.47-4.47-9.4-6.7l-2.9-3.68   c-4.82-5.55-14.36-17.42-28.63-35.59c-14.27-18.17-22.01-27.92-23.21-29.26l4.54,115.99c0.21,5.28,0.19,9.25-0.05,11.89   c-0.24,2.65-1.22,5.62-2.93,8.91c-3.2,6.33-12.03,9.78-26.48,10.34c-14,0.55-22.84-2.21-26.52-8.27c-1.96-3.14-3.17-6.08-3.62-8.82   c-0.45-2.74-0.79-6.86-1-12.37l-7.47-191.03c-0.21-5.28-0.19-9.24,0.05-11.9c0.24-2.65,1.21-5.74,2.91-9.25   c3.21-6.1,12.04-9.43,26.5-10c6.2-0.24,11.56,0.3,16.09,1.61c4.53,1.32,7.52,2.75,8.96,4.3l2.15,1.98l82.14,99.51   c36.99-53.16,61.7-88.25,74.13-105.28c3.66-6.35,12.77-9.81,27.34-10.38C2906.06,1652.45,2915.07,1655.2,2918.53,1661.27z" class="colorffffff svgShape"/><path fill="#fff" d="M2950.66,1680.7c-0.21-5.28-0.19-9.24,0.05-11.9c0.24-2.65,1.21-5.73,2.91-9.25   c2.97-6.32,11.8-9.77,26.48-10.34c16.06-0.63,25.75,3.25,29.07,11.62c1.3,3.86,2.11,9.8,2.42,17.83l7.49,191.37   c0.21,5.51,0.2,9.53-0.04,12.07c-0.25,2.54-1.22,5.56-2.92,9.08c-2.97,6.32-11.8,9.77-26.48,10.34   c-16.06,0.63-25.64-3.36-28.74-11.98c-1.52-3.61-2.44-9.44-2.75-17.47L2950.66,1680.7z" class="colorffffff svgShape"/><path fill="#fff" d="M3201.31,1651.07c2.02-4.1,5.18-6.93,9.49-8.47c4.3-1.55,9.73-2.45,16.27-2.71s11.84,0.11,15.9,1.1   c4.06,0.99,7.1,2.25,9.11,3.78c2.01,1.53,3.54,3.88,4.59,7.06c1.52,3.62,2.44,9.44,2.75,17.47l7.47,191.03   c0.21,5.51,0.2,9.53-0.05,12.07c-0.24,2.54-1.22,5.56-2.92,9.08c-2.97,6.32-11.8,9.77-26.48,10.34c-8.95,0.35-15.17-0.1-18.67-1.34   c-3.5-1.24-6.45-3.31-8.86-6.2c-54.32-66.82-90.04-110.46-107.16-130.94l4.43,113.24c0.21,5.51,0.2,9.53-0.05,12.07   c-0.24,2.54-1.22,5.56-2.92,9.08c-2.97,6.32-11.8,9.77-26.48,10.34c-14.23,0.56-23.07-2.2-26.52-8.27   c-1.97-3.37-3.18-6.42-3.63-9.16c-0.45-2.74-0.78-6.75-0.99-12.03l-7.51-192.06c-0.34-8.72,0.5-15.13,2.52-19.23   c2.02-4.1,5.19-6.92,9.49-8.47c4.3-1.55,9.9-2.46,16.79-2.73c6.88-0.27,12.36,0.15,16.42,1.25c4.06,1.11,6.93,2.43,8.6,3.97   c0.94,0.65,3.7,3.53,8.27,8.64c50.99,63.96,85.05,106.18,102.17,126.65l-4.55-116.34   C3198.45,1661.58,3199.29,1655.17,3201.31,1651.07z" class="colorffffff svgShape"/><path fill="#fff" d="M3421.14,1732.27l60.58-2.37c12.41-0.02,20.11,2.89,23.09,8.75c2.46,4.27,3.87,10.65,4.2,19.14l2.96,75.72   c0.29,7.35-2.66,14.47-8.82,21.37c-18.49,20.72-47.02,31.83-85.57,33.34c-34.19,1.34-64.41-10.41-90.66-35.23   c-26.25-24.83-40.09-55.48-41.52-91.97s10.23-67.45,34.97-92.89c24.74-25.44,54.55-38.85,89.43-40.21   c27.07-1.06,53.01,6.89,77.81,23.84c6.38,4.35,9.67,9.33,9.89,14.95c0.22,5.62-2.17,12.21-7.15,19.76   c-8.47,12.51-16.38,18.91-23.73,19.2c-4.36,0.17-11.48-2.71-21.37-8.64c-9.88-5.93-21.48-8.64-34.79-8.12   c-17.44,0.68-32.69,7.43-45.75,20.23c-13.06,12.81-19.2,29.14-18.42,48.98c0.78,19.85,8.32,36.45,22.63,49.79   c14.31,13.35,30.18,19.67,47.62,18.99c12.62-0.49,23.9-3,33.83-7.53l-1.47-37.52l-27.19,1.06c-7.12,0.28-12.2-0.44-15.25-2.16   c-3.06-1.72-5.12-4.34-6.17-7.86c-1.06-3.52-1.7-8.32-1.94-14.4c-0.24-6.08,0.09-10.97,0.98-14.69c0.89-3.71,2.68-6.31,5.38-7.79   C3408.79,1733.78,3414.26,1732.54,3421.14,1732.27z" class="colorffffff svgShape"/><path fill="#fff" d="M2375.57,2303.7c-6.26-7.11-9.49-13.59-9.72-19.44c-0.23-5.85,4.4-13.79,13.89-23.81   c5.52-5.73,11.49-8.72,17.92-8.97c6.42-0.25,15.6,5.14,27.52,16.16c3.36,3.78,8.1,7.33,14.21,10.65c6.1,3.33,11.68,4.89,16.73,4.69   c21.34-0.83,31.67-9.97,30.99-27.41c-0.21-5.27-3.31-9.58-9.3-12.91c-5.99-3.33-13.38-5.62-22.16-6.89   c-8.79-1.26-18.29-3.47-28.53-6.64c-10.24-3.16-19.81-6.98-28.72-11.46c-8.91-4.48-16.49-11.82-22.75-22.03   c-6.26-10.21-9.68-22.66-10.25-37.35c-0.79-20.19,6.03-38.1,20.48-53.71c14.44-15.62,34.62-23.93,60.56-24.95   c13.77-0.54,26.4,0.75,37.9,3.86c11.5,3.12,19.5,6.42,24,9.92l8.86,6.2c7.37,6.38,11.15,11.86,11.33,16.45   c0.18,4.59-2.33,11.01-7.52,19.25c-7.35,11.78-15.16,17.83-23.42,18.15c-4.82,0.19-10.88-1.87-18.17-6.18   c-0.71-0.43-2.07-1.52-4.09-3.29c-2.02-1.76-3.86-3.18-5.51-4.27c-4.94-2.79-11.14-4.05-18.59-3.75   c-7.46,0.29-13.58,2.32-18.38,6.06c-4.8,3.75-7.07,8.78-6.82,15.09c0.25,6.31,3.37,11.3,9.38,14.97c6,3.67,13.39,6.03,22.17,7.06   c8.77,1.04,18.38,2.79,28.82,5.25c10.44,2.47,20.09,5.59,28.98,9.38c8.88,3.79,16.45,10.68,22.7,20.66   c6.25,9.98,9.67,22.43,10.25,37.35c0.58,14.92-1.89,28.17-7.41,39.76c-5.53,11.59-12.98,20.67-22.38,27.25   c-18.11,12.89-37.72,19.75-58.83,20.57c-10.79,0.42-21.05-0.5-30.79-2.76c-9.74-2.26-17.67-5.22-23.79-8.89   c-12.45-6.87-21.22-13.65-26.31-20.34L2375.57,2303.7z" class="colorffffff svgShape"/><path fill="#fff" d="M2682.24,2071.42c33.96-1.33,63.93,9.79,89.9,33.37c25.97,23.58,39.67,53.55,41.09,89.92   c1.42,36.37-9.3,67.82-32.16,94.33c-22.87,26.52-51.74,40.46-86.61,41.83c-34.88,1.37-65.03-10.09-90.46-34.38   c-25.42-24.28-38.82-53.86-40.18-88.75c-0.75-19.04,2-37.02,8.23-53.93c6.23-16.9,14.86-31.2,25.9-42.9   c11.03-11.69,23.88-21.04,38.55-28.05C2651.16,2075.86,2666.41,2072.04,2682.24,2071.42z M2624.67,2203.64   c0.8,20.43,8.04,36.74,21.74,48.96c13.69,12.22,28.68,18.01,44.98,17.37c16.29-0.64,30.73-7.41,43.33-20.31   c12.59-12.9,18.48-29.79,17.67-50.67c-0.82-20.88-8.07-37.37-21.76-49.48c-13.69-12.1-28.68-17.84-44.97-17.2   c-16.29,0.64-30.73,7.58-43.31,20.83C2629.77,2166.38,2623.87,2183.22,2624.67,2203.64z" class="colorffffff svgShape"/><path fill="#fff" d="M2948.99,2060.99c33.96-1.33,63.92,9.8,89.9,33.37c25.97,23.58,39.67,53.55,41.09,89.92   c1.42,36.37-9.3,67.82-32.16,94.33c-22.87,26.52-51.74,40.46-86.61,41.83c-34.88,1.36-65.03-10.09-90.46-34.38   c-25.42-24.28-38.82-53.86-40.18-88.74c-0.75-19.04,2-37.02,8.23-53.93c6.23-16.9,14.86-31.2,25.9-42.9   c11.03-11.69,23.88-21.04,38.55-28.05C2917.91,2065.43,2933.16,2061.61,2948.99,2060.99z M2891.42,2193.2   c0.8,20.43,8.04,36.74,21.74,48.96c13.69,12.22,28.68,18.01,44.98,17.37c16.29-0.64,30.73-7.41,43.33-20.31   c12.59-12.9,18.48-29.79,17.67-50.67c-0.82-20.88-8.07-37.37-21.76-49.48c-13.69-12.1-28.68-17.84-44.97-17.2   c-16.29,0.64-30.73,7.58-43.31,20.83S2890.62,2172.78,2891.42,2193.2z" class="colorffffff svgShape"/><path fill="#fff" d="M3260.84,2062.4c2.02-4.1,5.19-6.92,9.49-8.47c4.3-1.55,9.73-2.45,16.27-2.7s11.84,0.11,15.9,1.1   c4.06,0.99,7.1,2.25,9.11,3.78c2.01,1.53,3.54,3.89,4.59,7.06c1.52,3.62,2.44,9.44,2.75,17.47l7.47,191.03   c0.21,5.51,0.2,9.53-0.04,12.07c-0.25,2.54-1.22,5.56-2.92,9.08c-2.97,6.32-11.8,9.77-26.48,10.34   c-8.95,0.35-15.17-0.09-18.67-1.34c-3.5-1.24-6.45-3.31-8.86-6.2c-54.32-66.82-90.04-110.46-107.16-130.94l4.43,113.24   c0.21,5.51,0.2,9.53-0.04,12.07c-0.24,2.54-1.22,5.56-2.92,9.08c-2.97,6.32-11.8,9.77-26.48,10.34   c-14.23,0.56-23.07-2.2-26.52-8.27c-1.97-3.37-3.18-6.42-3.63-9.17c-0.45-2.74-0.78-6.75-0.99-12.03l-7.51-192.06   c-0.34-8.72,0.5-15.13,2.52-19.23c2.02-4.1,5.19-6.92,9.49-8.47c4.3-1.55,9.9-2.46,16.79-2.72c6.88-0.27,12.36,0.15,16.42,1.25   c4.06,1.11,6.93,2.43,8.6,3.97c0.94,0.65,3.7,3.53,8.27,8.64c50.99,63.96,85.04,106.18,102.17,126.65l-4.55-116.34   C3257.98,2072.92,3258.81,2066.51,3260.84,2062.4z" class="colorffffff svgShape"/><path fill="#fff" d="M3401.08,2206.35c-4.32,1.32-10.15,2.12-17.49,2.41c-7.35,0.29-13.22-0.05-17.62-1.04   c-4.41-0.97-7.53-2.92-9.36-5.84c-1.84-2.91-2.97-5.51-3.41-7.79c-0.43-2.28-0.75-5.83-0.93-10.65l-4.27-109.11   c-0.19-4.82-0.16-8.44,0.09-10.86c0.25-2.42,1.23-5.16,2.95-8.21c1.72-3.05,4.73-5.3,9.04-6.73c4.31-1.43,10.13-2.29,17.48-2.58   c7.34-0.29,13.22,0.12,17.63,1.21c4.41,1.09,7.53,3.15,9.38,6.18c1.84,3.03,2.98,5.74,3.42,8.14c0.44,2.4,0.75,6,0.94,10.82   l4.27,109.11c0.19,4.82,0.16,8.39-0.1,10.69c-0.25,2.31-1.25,4.93-2.97,7.87C3408.41,2202.91,3405.39,2205.04,3401.08,2206.35z    M3356.53,2248.26c2.12-4.57,5.5-7.74,10.14-9.53c4.64-1.79,11.95-2.88,21.93-3.27c9.98-0.39,17.29,1.51,21.94,5.69   c4.65,4.19,7.15,10.98,7.52,20.39l0.21,5.51c0.22,5.51,0.2,9.59-0.04,12.24c-0.24,2.65-1.21,5.85-2.9,9.59   c-3.41,6.8-12.06,10.47-25.94,11.01c-13.89,0.54-23.15-1.33-27.8-5.63c-4.65-4.3-7.22-12.87-7.73-25.72   C3353.52,2259.58,3354.41,2252.82,3356.53,2248.26z" class="colorffffff svgShape"/></g></svg>