<svg xmlns="http://www.w3.org/2000/svg" viewBox="0 0 5500 4000" xmlns:v="https://vecta.io/nano"><style><![CDATA[.B{fill:#fff}.C{fill:#7a2f75}.D{fill:#a841a1}.E{fill:#c44abc}.F{fill:#dedede}.G{fill:#de62d6}.H{fill:#dd6bd5}.I{fill:#5e5e5e}.J{fill:#cfcfcf}.K{fill:#d35ecb}]]></style><path fill="none" stroke="#e855de" stroke-miterlimit="10" stroke-width="20" d="M1346.38 1435.95l-111.84 762.73c-14.73 100.42 48.44 195.5 144.78 217.91l2236.93 520.47c92.37 21.49 185.9-30.82 218.54-122.22l515.59-1443.69c46.81-131.08-52.49-268.5-188.06-260.26l-2640.67 160.49c-88.9 5.41-161.99 74.04-175.27 164.57z"/><path d="M4544.86 1639.54l-67.97 236.22-37.15 129.13-138.51 481.41c-19.31 67.07-79.05 114.51-148.75 118.09l-190.43 9.79-2076.46 106.78-196.19 10.09a74.66 74.66 0 0 1-2.57.11c-3.98.14-7.93.14-11.86-.01-73.37-2.66-136.8-54.3-153.39-127.03l-227.59-997.32-4.39-19.25-52.78-231.28c-5.71-25.04-5.39-49.68-.15-72.65 17.43-76.48 89.35-134.38 174.52-126.57l2991.45 274.44c102.19 9.36 170.6 109.44 142.22 208.05z" class="H"/><path d="M926.49 2385.47l-101.41 44.25 186.88 428.34c4.42 10.13 17.53 14.18 29.29 9.05l58.84-25.67c11.76-5.13 17.7-17.5 13.28-27.63l-82.72-189.6c-6.59-15.11 2.28-33.56 19.81-41.21h0c17.53-7.65 26.41-26.1 19.81-41.21l-80.29-184.02-63.49 27.7z" class="C"/><path d="M1059.49 2858.87l-58.84 25.68c-11.76 5.13-24.87 1.07-29.29-9.06l-91.52-209.77-95.36-218.56 101.41-44.25 63.49-27.7 38.41 88.03 41.88 95.99c.94 2.15 1.56 4.38 1.9 6.64 1.99 13.52-6.68 28.02-21.71 34.57-17.54 7.65-26.41 26.1-19.81 41.21l82.72 189.6c4.42 10.12-1.52 22.49-13.28 27.62z" class="E"/><path d="M987.8 2463.23c-.21 1.4-18.49 119.78-107.96 202.49l-95.36-218.56 101.41-44.25 63.49-27.7 38.42 88.02z" class="D"/><path d="M695.12 2532.16c6.13-32.76-15.67-90.17-57.79-144.88s-92.05-90.47-125.28-92.92l-5.79-7.52-17.41 13.41c-28.25 21.75-7.58 95.98 46.17 165.8s120.23 108.78 148.48 87.03l17.41-13.41-5.79-7.51z" class="I"/><path d="M950.83 2413.47l-188.34 144.99c-14.33 11.04-36.07 10.31-61.45.04-41.09-16.65-91.71-58.33-135.85-115.68-19.34-25.12-35.45-50.66-47.92-75.13-11.11-21.81-19.34-42.77-24.4-61.82-2.5-9.47-4.21-18.46-5.12-26.85-.99-9.33-.97-17.9.11-25.57 1.92-13.52 7.15-24.16 15.98-30.96l188.32-144.98 4.41 5.73 16.23 21.08.93 1.21L928.8 2384.9l17.6 22.85 4.43 5.72z" class="F"/><path d="M713.75 2105.53l-18.57 25.01-207.42 148.47c-.99-9.33-.97-17.9.11-25.57 1.92-13.52 7.15-24.16 15.98-30.96l188.32-144.98 4.41 5.73 16.23 21.08.94 1.22z" class="B"/><path d="M1543.83 2173.11l-587.89 233c-1.85.53-3.76.93-5.75 1.23l-3.78.41 4.41 5.73-188.32 144.97c-14.33 11.04-36.07 10.31-61.45.03l198.67-161.76h.01l29.1-11.84 546.58-222.26 49.64-13.92 18.78 24.41z" class="J"/><path d="M708.694 2064.668l258.643 335.976-26.339 20.277-258.643-335.976z" class="D"/><ellipse cx="814.68" cy="2250.74" rx="85.79" ry="212" transform="rotate(322.41 814.761 2250.852)" class="G"/><path d="M1543.83 2173.11l-587.89 233.01a45.75 45.75 0 0 1-5.75 1.22l-3.77.41c-13.35.95-29.28-2.94-46.7-11.01h-.01c-22.16-10.28-46.68-27.32-71.27-49.78-19.45-17.75-38.92-38.88-57.27-62.72-18.35-23.83-33.8-48.06-45.99-71.39-12.15-23.25-21.06-45.62-26.38-65.81-1.5-5.68-2.71-11.18-3.62-16.49-3.24-18.62-2.88-34.8 1.4-47.31 1.07-3.18 2.41-6.11 4.01-8.8l375.59-508.76 5.8 7.53 286.89 372.65 156.16 202.85 18.8 24.4z" class="D"/><path d="M1368.88 1945.86l-53.66 114.29s-341.48 225.4-616.41 86.88c-8.08-30.64-7.9-56.32 1.78-72.6l138.68-187.85 8.89-12.05 228.02-308.86 53.64 69.66 35.26 45.8 203.8 264.73z" class="E"/><path d="M1543.83 2173.11l-587.89 233c-1.85.53-3.76.93-5.75 1.23l-3.78.41c-13.34.95-29.29-2.94-46.69-11.01l29.1-11.84 546.58-222.26 49.64-13.92 18.79 24.39z" class="C"/><path d="M1081.99 1573.21l-17.42 59.69-369.38 497.64c-3.24-18.62-2.88-34.8 1.4-47.31 1.07-3.18 2.41-6.11 4.01-8.8l375.59-508.76 5.8 7.54z" class="G"/><ellipse cx="1476.57" cy="1741.17" rx="336.87" ry="531.43" transform="rotate(322.41 1476.69 1741.248)" class="C"/><ellipse cx="1495.81" cy="1726.35" rx="332.14" ry="531.43" transform="rotate(322.41 1495.934 1726.433)" class="F"/><ellipse cx="1522.85" cy="1705.53" fill="#f2f2f2" rx="298.01" ry="490.16" transform="rotate(322.41 1522.98 1705.61)"/><path d="M1732.05 1544.47c-160.16-208.03-389.69-299.91-512.66-205.24-49.29 37.95-73.98 100.11-75.56 174.38-1.47 69.22 17.13 148.96 54.62 229.4 22.63 48.57 52.14 97.39 88.26 144.31s75.78 87.94 116.94 122.23c68.18 56.81 140.51 95.19 207.81 111.47 72.2 17.47 138.61 9.49 187.91-28.46 122.98-94.66 92.84-340.06-67.32-548.09z" class="F"/><path d="M1611.47 2121.03c-107.93-26.1-228.79-109.06-324.75-233.7s-145.25-262.7-142.88-373.72c101 5.91 232.58 89.73 336.47 224.67 103.89 134.96 151.28 283.6 131.16 382.75z" class="J"/><path d="M1574.52 1806.58l-170.86 202.98c-10.2-8.49-20.3-17.41-30.29-26.72-30.31-28.26-59.48-60.21-86.66-95.51-22.27-28.93-42.02-58.57-59.19-88.44-10.7-18.58-20.39-37.25-29.07-55.88l239.93-113.27 47.81 62.1 69.58 90.39 18.75 24.35z" class="D"/><path d="M1486.18 1691.84l-21.24 79.35s-123.97 66.18-237.43 27.7c-10.7-18.58-20.39-37.25-29.07-55.88l239.93-113.27 47.81 62.1z" class="E"/><path d="M1574.52 1806.58l-170.86 202.98c-10.2-8.49-20.3-17.41-30.29-26.72l171.54-190.09 10.86-10.53 18.75 24.36z" class="C"/><path d="M1558.71 1677.93c-37.59-48.83-91.47-70.4-120.34-48.18s-21.79 79.83 15.8 128.66 91.47 70.4 120.34 48.18c28.87-22.23 21.79-79.83-15.8-128.66zm-78.4 60.36c-18.8-24.42-22.34-53.22-7.9-64.33 14.43-11.11 41.37-.33 60.17 24.09s22.33 53.22 7.9 64.33c-14.44 11.11-41.38.33-60.17-24.09z" class="G"/><ellipse cx="1506.44" cy="1718.17" rx="32.98" ry="55.79" transform="rotate(322.41 1506.557 1718.24)" class="B"/><path d="M601.3 2400.12l-2.7-3.5a6.95 6.95 0 0 1 1.27-9.76l87.7-67.52a6.95 6.95 0 0 1 9.76 1.27l2.7 3.5a6.95 6.95 0 0 1-1.27 9.76l-87.7 67.52a6.95 6.95 0 0 1-9.76-1.27zm24.08 31.28l-2.7-3.5a6.95 6.95 0 0 1 1.27-9.76l87.7-67.52a6.95 6.95 0 0 1 9.76 1.27l2.7 3.5a6.95 6.95 0 0 1-1.27 9.76l-87.7 67.52c-3.05 2.34-7.42 1.78-9.76-1.27zm24.08 31.28l-2.7-3.5a6.95 6.95 0 0 1 1.27-9.76l87.7-67.52a6.95 6.95 0 0 1 9.76 1.27l2.7 3.5a6.95 6.95 0 0 1-1.27 9.76l-87.7 67.52a6.97 6.97 0 0 1-9.76-1.27z" class="I"/><path d="M4560.82 2758.05l71.39 31.15-131.56 301.53c-3.11 7.13-12.34 9.98-20.62 6.37l-41.42-18.07c-8.27-3.61-12.46-12.32-9.35-19.45l58.23-133.47c4.64-10.64-1.6-23.63-13.95-29.01h0c-12.34-5.39-18.59-18.37-13.95-29.01l56.52-129.54 44.71 19.5z" class="C"/><path d="M4467.19 3091.31l41.42 18.07c8.28 3.61 17.51.75 20.62-6.37l64.43-147.67 67.13-153.86-71.39-31.15-44.7-19.5-27.04 61.97-29.48 67.58a18.24 18.24 0 0 0-1.33 4.67c-1.4 9.52 4.71 19.72 15.28 24.34 12.35 5.38 18.59 18.37 13.95 29.01l-58.23 133.47c-3.12 7.12 1.06 15.83 9.34 19.44z" class="E"/><path d="M4517.66 2812.8c.15.99 13.01 84.32 76 142.54l67.13-153.86-71.39-31.15-44.7-19.5-27.04 61.97z" class="D"/><path d="M4723.69 2861.32c-4.31-23.06 11.03-63.48 40.68-101.99s64.8-63.69 88.19-65.41l4.07-5.29 12.26 9.44c19.89 15.31 5.34 67.57-32.5 116.72s-84.64 76.58-104.52 61.27l-12.26-9.44 4.08-5.3z" class="I"/><path d="M4543.68 2777.76l132.58 102.06c10.09 7.77 25.39 7.26 43.25.03 28.92-11.72 64.56-41.06 95.64-81.44 13.61-17.68 24.96-35.66 33.74-52.89 7.82-15.35 13.62-30.11 17.17-43.52 1.76-6.67 2.97-13 3.6-18.9.7-6.57.69-12.6-.08-18-1.35-9.52-5.03-17.01-11.25-21.79l-132.57-102.06-3.11 4.04-11.43 14.84-.66.85-151.4 196.66-12.39 16.09-3.09 4.03z" class="F"/><path d="M4710.57 2560.99l13.07 17.61 146.02 104.51c.7-6.57.69-12.6-.08-18-1.35-9.52-5.03-17.01-11.25-21.79l-132.57-102.06-3.11 4.04-11.43 14.84-.65.85z" class="B"/><path d="M4126.23 2608.56l413.85 164.02c1.3.37 2.65.66 4.05.86l2.66.29-3.1 4.03 132.58 102.06c10.09 7.77 25.39 7.26 43.26.02l-139.85-113.87h-.01l-20.48-8.33-384.77-156.46-34.94-9.8-13.25 17.18z" class="J"/><path d="M4732.704 2546.714l-182.075 236.514-18.542-14.274 182.075-236.514z" class="D"/><ellipse cx="4639.53" cy="2663.21" rx="149.24" ry="60.39" transform="rotate(307.59 4639.3 2663.203)" class="G"/><path d="M4126.23 2608.56l413.85 164.03a30.77 30.77 0 0 0 4.04.86l2.66.29c9.4.67 20.61-2.07 32.87-7.75h.01c15.6-7.24 32.86-19.23 50.17-35.05 13.69-12.49 27.4-27.37 40.32-44.15s23.79-33.83 32.37-50.25c8.55-16.37 14.82-32.11 18.57-46.33 1.06-4 1.91-7.87 2.55-11.61 2.28-13.11 2.03-24.5-.98-33.3-.75-2.24-1.7-4.3-2.83-6.19l-264.4-358.14-4.08 5.3-201.96 262.33-109.93 142.8-13.23 17.16z" class="D"/><path d="M4249.4 2448.59l37.77 80.46s240.39 158.67 433.92 61.16c5.69-21.57 5.56-39.64-1.25-51.1l-97.63-132.24-6.26-8.48-160.52-217.42-37.76 49.04-24.82 32.24-143.45 186.34z" class="E"/><path d="M4126.23 2608.56l413.85 164.02c1.3.37 2.65.66 4.05.86l2.66.29c9.39.67 20.62-2.07 32.87-7.75l-20.48-8.33-384.77-156.46-34.94-9.8-13.24 17.17z" class="C"/><path d="M4451.35 2186.26l12.27 42.02 260.03 350.32c2.28-13.11 2.03-24.5-.98-33.3-.75-2.24-1.7-4.3-2.83-6.19l-264.4-358.14-4.09 5.29z" class="G"/><ellipse cx="4173.59" cy="2304.49" rx="374.1" ry="237.14" transform="rotate(307.59 4173.362 2304.49)" class="C"/><ellipse cx="4160.04" cy="2294.07" rx="374.1" ry="233.82" transform="rotate(307.59 4159.815 2294.06)" class="F"/><ellipse cx="4141" cy="2279.41" fill="#f2f2f2" rx="345.06" ry="209.79" transform="rotate(307.59 4140.78 2279.404)"/><path d="M3993.73 2166.03c112.75-146.44 274.32-211.13 360.89-144.48 34.7 26.72 52.08 70.48 53.19 122.76 1.04 48.73-12.06 104.86-38.45 161.49-15.93 34.19-36.7 68.56-62.13 101.59s-53.34 61.91-82.32 86.04c-48 39.99-98.92 67.01-146.29 78.47-50.83 12.3-97.58 6.68-132.28-20.04-86.57-66.64-65.35-239.39 47.39-385.83z" class="F"/><path d="M4078.62 2571.9c75.98-18.38 161.06-76.77 228.61-164.52 67.55-87.74 102.25-184.93 100.58-263.08-71.1 4.16-163.73 63.16-236.86 158.16s-106.49 199.64-92.33 269.44z" class="J"/><path d="M4104.63 2350.54l120.28 142.89c7.18-5.98 14.29-12.25 21.32-18.81 21.34-19.9 41.87-42.39 61-67.23 15.68-20.37 29.58-41.23 41.67-62.26 7.53-13.08 14.35-26.22 20.47-39.34l-168.9-79.74-33.66 43.71-48.98 63.63-13.2 17.15z" class="D"/><path d="M4166.82 2269.77l14.95 55.86s87.27 46.59 167.14 19.5c7.53-13.08 14.35-26.22 20.47-39.34l-168.9-79.74-33.66 43.72z" class="E"/><path d="M4104.63 2350.54l120.28 142.89c7.18-5.98 14.29-12.25 21.32-18.81l-120.76-133.81-7.64-7.41-13.2 17.14z" class="C"/><path d="M4104.64 2350.55c20.32 15.64 58.25.46 84.71-33.92 26.47-34.38 31.45-74.93 11.12-90.57-20.32-15.64-58.25-.46-84.71 33.92-26.47 34.37-31.45 74.92-11.12 90.57zm23.96-31.13c-10.16-7.82-7.67-28.1 5.56-45.29s32.2-24.78 42.36-16.96 7.67 28.1-5.56 45.29c-13.24 17.19-32.2 24.79-42.36 16.96z" class="G"/><ellipse cx="4152.55" cy="2288.3" rx="39.28" ry="23.22" transform="rotate(307.59 4152.346 2288.299)" class="B"/><g class="I"><path d="M4789.74 2768.37l1.9-2.46c1.65-2.14 1.25-5.22-.89-6.87L4729 2711.5c-2.14-1.65-5.22-1.25-6.87.89l-1.9 2.46c-1.65 2.14-1.25 5.22.89 6.87l61.74 47.53c2.15 1.66 5.23 1.26 6.88-.88z"/><use href="#B"/><use href="#B" x="-16.95" y="22.02"/></g><path d="M4031.12 3121.57l1.73-5.72.86-3.14c5.59-21.35 6.78-42.9 5.44-63.16a178.4 178.4 0 0 0-.45-5.75c-4.92-54.81-27.43-98.89-28.85-101.63l-.06-.12c-.01-.01-.01-.02-.01-.02s-.01 0-.02.01c-.42.21-6.99 3.53-16.98 9.82l-1.84 1.17c-28.99 18.57-83.27 60.28-103.26 122.35-27.82 86.4 21.35 179.54 21.35 179.54s.05-.02.14-.07c1.33-.67 12.22-6.28 27.18-16.56l1.8-1.25c8.07-5.63 17.22-12.56 26.62-20.76l1.69-1.48c8.23-7.29 16.63-15.54 24.64-24.72l1.53-1.77h0c7.87-9.19 15.33-19.28 21.87-30.27l1.31-2.23c6.13-10.62 11.38-22.04 15.31-34.24z" class="H"/><path d="M3938.14 3237.04l-14.14-28.3-23.6-47.25-1.94.97 24.59 49.24 13.29 26.6 1.8-1.26zm28.31-22.24l-26.99-54.04-21.22-42.49-1.94.97 22.21 44.47 26.26 52.57 1.68-1.48zm26.18-26.5h0l-37.72-75.52-18.84-37.72-1.94.97 19.83 39.7 37.14 74.34 1.53-1.77zm23.18-32.51l-45.45-91-16.46-32.95-1.94.97 17.45 34.93 45.09 90.28 1.31-2.23zm17.04-39.94l.86-3.14-47.9-95.89-14.07-28.18-1.94.97 15.06 30.16 47.99 96.08zm6.29-66.3l-.45-5.75-37.44-74.96-8.48-16.97-1.84 1.17 9.37 18.76 38.84 77.75z" class="B"/><path d="M3909.16 3254.85l100.72-312.79-.09-.02-.03-.01c-.42.21-6.99 3.53-16.98 9.82l-1.84 1.17c-28.99 18.57-83.27 60.28-103.26 122.35-27.82 86.4 21.35 179.54 21.35 179.54s.04-.01.13-.06z" class="K"/><path d="M4169.44 2986.61l-3.68-2.07-2.03-1.07c-13.86-7.12-28.54-11.24-42.71-13.43l-4.03-.57c-38.54-5-72.38 3.76-74.49 4.33-.05.01-.08.02-.09.02s-.01.01-.01.02c.08.32 1.36 5.36 4.17 13.21l.52 1.45c8.36 22.83 28.8 66.65 68.54 89.94 55.31 32.42 127.05 12.79 127.05 12.79s-.01-.04-.03-.1c-.26-1.02-2.46-9.39-7.26-21.28l-.58-1.43c-2.64-6.43-6.02-13.79-10.24-21.53l-.76-1.39c-3.76-6.79-8.16-13.84-13.27-20.78l-.99-1.33h0c-5.13-6.83-10.95-13.52-17.52-19.72-.44-.42-.89-.83-1.34-1.24-6.37-5.87-13.43-11.24-21.25-15.82z" class="H"/><path d="M4234.81 3068.4l-21.68 5.41-36.2 9.04.37 1.49 37.71-9.41 20.37-5.09-.57-1.44zm-11-22.92l-41.39 10.33-32.54 8.12.37 1.49 34.06-8.5 40.26-10.05-.76-1.39zm-14.25-22.11h0l-57.85 14.44-28.89 7.21.37 1.48 30.41-7.59 56.95-14.22-.99-1.32zm-18.86-20.96l-69.7 17.4-25.24 6.3.37 1.48 26.75-6.68 69.15-17.26-1.33-1.24zm-24.93-17.87l-2.03-1.07-73.45 18.33-21.58 5.39.37 1.49 23.1-5.77 73.59-18.37zm-44.75-14.5l-4.03-.57-57.42 14.33-13 3.25.52 1.45 14.37-3.59 59.56-14.87z" class="B"/><path d="M4242.65 3091.11l-200.22-117.35-.03.06-.01.02c.08.32 1.36 5.36 4.17 13.21l.52 1.45c8.36 22.83 28.8 66.65 68.54 89.94 55.31 32.42 127.05 12.79 127.05 12.79s0-.05-.02-.12z" class="K"/><path d="M1009.35 1044.52l2.47 4.59 1.41 2.46c9.75 16.58 22.33 30.57 35.67 42.2l3.83 3.26c36.89 30.67 77.96 43.87 80.53 44.67.05.02.09.03.11.04.01 0 .02.01.02.01s0-.01.01-.02c.13-.39 2.12-6.49 4.37-16.53l.41-1.85c6.36-29.33 13.97-88.51-12.08-139.03-36.27-70.32-124.04-97.23-124.04-97.23s-.01.04-.04.13c-.4 1.23-3.64 11.41-6.48 26.98l-.34 1.88c-1.49 8.45-2.83 18.36-3.54 29.21l-.12 1.95c-.56 9.57-.63 19.83.12 30.43l.15 2.04h0c.84 10.51 2.48 21.33 5.25 32.13l.57 2.18c2.78 10.3 6.6 20.57 11.72 30.5z" class="H"/><path d="M995.2 916.07l26.18 8.67 43.71 14.48.59-1.79-45.54-15.09-24.6-8.15-.34 1.88zm-3.66 31.17l49.98 16.56 39.3 13.02.59-1.79-41.13-13.63-48.62-16.11-.12 1.95zm.26 32.47h0l69.85 23.14 34.89 11.56.59-1.79-36.72-12.16-68.76-22.78.15 2.03zm5.83 34.31l84.17 27.88 30.47 10.09.59-1.79-32.31-10.7-83.5-27.66.58 2.18zm14.2 35.09l1.41 2.46 88.69 29.38 26.06 8.63.59-1.79-27.89-9.24-88.86-29.44zm37.08 44.66l3.83 3.26 69.33 22.97 15.7 5.2.41-1.85-17.35-5.75-71.92-23.83z" class="B"/><path d="M1002.02 887.22l131.29 254.58.07-.05.02-.02c.13-.39 2.12-6.49 4.37-16.53l.41-1.85c6.36-29.33 13.97-88.51-12.08-139.03-36.27-70.32-124.04-97.23-124.04-97.23s-.01.04-.04.13z" class="K"/><path d="M1007.66 1212.97l3.54-1 1.91-.6c12.93-4.18 24.5-10.72 34.56-18.13.96-.7 1.9-1.42 2.83-2.14 26.79-20.73 42.19-47.03 43.14-48.68.02-.03.03-.06.04-.07-.25-.17-4.15-2.48-10.72-5.57l-1.22-.57c-19.25-8.88-58.88-23.19-97.71-12.97-54.04 14.23-86.03 70.63-86.03 70.63a2.2 2.2 0 0 0 .08.05c.79.46 7.31 4.26 17.61 8.6l1.24.52c5.6 2.32 12.23 4.76 19.6 6.92l1.33.38c6.51 1.85 13.57 3.47 21 4.58l1.43.21h0c7.37 1.03 15.09 1.55 22.95 1.3l1.59-.06c7.54-.33 15.2-1.39 22.83-3.4z" class="H"/><path d="M916.93 1203.05l9.99-16.72 16.68-27.92-1.15-.68-17.38 29.09-9.39 15.71 1.25.52zm20.93 7.31l19.07-31.92 14.99-25.1-1.15-.68-15.69 26.27-18.55 31.05 1.33.38zm22.42 4.78h0l26.65-44.61 13.31-22.28-1.15-.68-14.01 23.45-26.24 43.92 1.44.2zm24.55 1.24l32.12-53.76 11.63-19.46-1.15-.68-12.33 20.63-31.86 53.33 1.59-.06zm26.37-4.41l1.91-.6 33.84-56.65 9.94-16.65-1.15-.68-10.64 17.82-33.9 56.76zm36.48-18.73l2.83-2.14 26.46-44.28 5.99-10.03-1.22-.57-6.62 11.08-27.44 45.94z" class="B"/><g class="K"><path d="M898.08 1193.93l195.63-51.52-.02-.05-.01-.02c-.25-.15-4.15-2.46-10.72-5.55l-1.22-.57c-19.25-8.88-58.88-23.19-97.71-12.97-54.04 14.23-86.03 70.63-86.03 70.63a2.2 2.2 0 0 0 .08.05z"/><use href="#C"/><use href="#C" x="2504.51" y="-1203.47"/><use href="#C" x="503.52" y="-2366"/><path d="M3523.68 2802.71c-5.54 0-10.22-4.27-10.65-9.88l-5.24-68.25a10.69 10.69 0 0 1 9.84-11.48c5.88-.46 11.03 3.96 11.48 9.84l5.24 68.25a10.69 10.69 0 0 1-9.84 11.48 7.81 7.81 0 0 1-.83.04z"/><use href="#D"/><path d="M4132.77 1309.29c-5.54 0-10.22-4.27-10.65-9.88l-5.24-68.25a10.69 10.69 0 0 1 9.84-11.48c5.88-.46 11.03 3.96 11.48 9.84l5.24 68.25a10.7 10.7 0 0 1-9.84 11.48 7.81 7.81 0 0 1-.83.04z"/><use href="#D" x="609.09" y="-1493.43"/><path d="M728.4 2848.24c-5.54 0-10.22-4.27-10.65-9.88l-5.24-68.25a10.7 10.7 0 0 1 9.84-11.48c5.88-.46 11.03 3.96 11.48 9.84l5.24 68.25a10.69 10.69 0 0 1-9.84 11.48 7.81 7.81 0 0 1-.83.04z"/><path d="M691.65 2816.74c-5.54 0-10.22-4.27-10.65-9.88a10.7 10.7 0 0 1 9.84-11.48l68.25-5.24c5.9-.45 11.03 3.96 11.48 9.84a10.69 10.69 0 0 1-9.84 11.48l-68.25 5.24c-.28.03-.55.04-.83.04z"/></g><path d="M2314.5 1861.74l6.02-4.72c7.62-4.89 13.04-7.4 16.25-7.53 7.11-.28 15.05 5.85 23.81 18.37 5.36 7.84 8.14 14.16 8.33 18.98s-1.2 8.9-4.18 12.23c-2.97 3.34-6.47 6.34-10.51 9.03l-11.59 7.69c-3.7 2.44-11.32 5.73-22.88 9.86-11.56 4.12-22.79 6.41-33.69 6.83-10.9.43-21.97-.58-33.21-3.01s-22.9-6.8-34.98-13.11c-12.09-6.3-23.02-14.15-32.81-23.54-9.79-9.38-18.03-21.58-24.7-36.61-6.68-15.02-10.37-31.48-11.07-49.38s1.64-34.25 7.04-49.05c5.39-14.8 12.55-27.15 21.48-37.04 8.92-9.88 19.22-18.27 30.9-25.17 22-13.27 44.36-20.35 67.08-21.24 10.78-.42 21.8.82 33.07 3.7 11.26 2.89 19.82 5.95 25.7 9.16l8.45 4.5c4.23 2.37 7.52 4.31 9.88 5.82 6.15 4.59 9.35 9.92 9.59 16s-1.92 12.54-6.48 19.39c-8.46 12.74-16.26 19.25-23.37 19.53-4.13.16-10.08-2.13-17.85-6.89-9.94-7.42-22.95-10.82-39.01-10.2-14.92.58-29.4 6.32-43.45 17.21-6.69 5.32-12.15 12.66-16.38 22.01-4.23 9.36-6.12 19.83-5.67 31.42s3.15 21.89 8.1 30.88c4.95 9 11.08 16 18.4 21 14.39 9.55 29.16 14.03 44.3 13.43 7.11-.28 13.79-1.45 20.03-3.54 6.26-2.05 10.72-4.06 13.4-6.01zm187.06-196.91c33.96-1.33 63.92 9.8 89.9 33.37 25.97 23.58 39.67 53.55 41.09 89.92s-9.3 67.82-32.16 94.33c-22.87 26.52-51.74 40.46-86.61 41.83-34.88 1.36-65.03-10.09-90.46-34.38-25.42-24.28-38.82-53.86-40.18-88.74-.75-19.04 2-37.02 8.23-53.93 6.23-16.9 14.86-31.2 25.9-42.9 11.03-11.69 23.88-21.04 38.55-28.05 14.66-7.01 29.91-10.83 45.74-11.45zm-57.57 132.21c.8 20.43 8.04 36.74 21.74 48.96 13.69 12.22 28.68 18.01 44.98 17.37 16.29-.64 30.73-7.41 43.33-20.31 12.59-12.9 18.48-29.79 17.67-50.68-.82-20.88-8.07-37.37-21.76-49.48-13.69-12.1-28.68-17.84-44.97-17.2s-30.73 7.58-43.31 20.83-18.48 30.09-17.68 50.51zm474.54-135.77c1.97 3.37 3.18 6.43 3.63 9.17s.78 6.75.99 12.03l7.47 191.03c.62 15.83-3.38 25.3-11.99 28.39-4.31 1.55-9.79 2.45-16.44 2.71-6.66.26-11.96-.1-15.9-1.1-3.95-.99-6.98-2.25-9.11-3.78-2.13-1.52-3.83-3.76-5.09-6.7-1.3-3.85-2.11-9.79-2.42-17.83l-4.51-115.3c-5.46 7.34-13.39 18.97-23.8 34.89l-19.86 29.91-5.88 8.33c-1.09 1.54-3.82 3.71-8.19 6.53a27.91 27.91 0 0 1-14.3 4.52c-5.16.2-9.92-.82-14.25-3.06-4.34-2.24-7.47-4.47-9.4-6.7l-2.9-3.68c-4.82-5.55-14.36-17.42-28.63-35.59l-23.21-29.26 4.54 115.99c.21 5.28.19 9.25-.05 11.89-.24 2.65-1.22 5.62-2.93 8.91-3.2 6.33-12.03 9.78-26.48 10.34-14 .55-22.84-2.21-26.52-8.27-1.96-3.14-3.17-6.08-3.62-8.82s-.79-6.86-1-12.37l-7.47-191.03c-.21-5.28-.19-9.24.05-11.9.24-2.65 1.21-5.74 2.91-9.25 3.21-6.1 12.04-9.43 26.5-10 6.2-.24 11.56.3 16.09 1.61 4.53 1.32 7.52 2.75 8.96 4.3l2.15 1.98 82.14 99.51 74.13-105.28c3.66-6.35 12.77-9.81 27.34-10.38 14.58-.56 23.59 2.19 27.05 8.26zm32.13 19.43c-.21-5.28-.19-9.24.05-11.9.24-2.65 1.21-5.73 2.91-9.25 2.97-6.32 11.8-9.77 26.48-10.34 16.06-.63 25.75 3.25 29.07 11.62 1.3 3.86 2.11 9.8 2.42 17.83l7.49 191.37c.21 5.51.2 9.53-.04 12.07-.25 2.54-1.22 5.56-2.92 9.08-2.97 6.32-11.8 9.77-26.48 10.34-16.06.63-25.64-3.36-28.74-11.98-1.52-3.61-2.44-9.44-2.75-17.47l-7.49-191.37zm250.65-29.63c2.02-4.1 5.18-6.93 9.49-8.47 4.3-1.55 9.73-2.45 16.27-2.71s11.84.11 15.9 1.1 7.1 2.25 9.11 3.78 3.54 3.88 4.59 7.06c1.52 3.62 2.44 9.44 2.75 17.47l7.47 191.03c.21 5.51.2 9.53-.05 12.07-.24 2.54-1.22 5.56-2.92 9.08-2.97 6.32-11.8 9.77-26.48 10.34-8.95.35-15.17-.1-18.67-1.34s-6.45-3.31-8.86-6.2l-107.16-130.94 4.43 113.24c.21 5.51.2 9.53-.05 12.07-.24 2.54-1.22 5.56-2.92 9.08-2.97 6.32-11.8 9.77-26.48 10.34-14.23.56-23.07-2.2-26.52-8.27-1.97-3.37-3.18-6.42-3.63-9.16s-.78-6.75-.99-12.03l-7.51-192.06c-.34-8.72.5-15.13 2.52-19.23s5.19-6.92 9.49-8.47 9.9-2.46 16.79-2.73c6.88-.27 12.36.15 16.42 1.25 4.06 1.11 6.93 2.43 8.6 3.97.94.65 3.7 3.53 8.27 8.64l102.17 126.65-4.55-116.34c-.34-8.71.5-15.12 2.52-19.22zm219.83 81.2l60.58-2.37c12.41-.02 20.11 2.89 23.09 8.75 2.46 4.27 3.87 10.65 4.2 19.14l2.96 75.72c.29 7.35-2.66 14.47-8.82 21.37-18.49 20.72-47.02 31.83-85.57 33.34-34.19 1.34-64.41-10.41-90.66-35.23-26.25-24.83-40.09-55.48-41.52-91.97s10.23-67.45 34.97-92.89 54.55-38.85 89.43-40.21c27.07-1.06 53.01 6.89 77.81 23.84 6.38 4.35 9.67 9.33 9.89 14.95s-2.17 12.21-7.15 19.76c-8.47 12.51-16.38 18.91-23.73 19.2-4.36.17-11.48-2.71-21.37-8.64-9.88-5.93-21.48-8.64-34.79-8.12-17.44.68-32.69 7.43-45.75 20.23-13.06 12.81-19.2 29.14-18.42 48.98.78 19.85 8.32 36.45 22.63 49.79 14.31 13.35 30.18 19.67 47.62 18.99 12.62-.49 23.9-3 33.83-7.53l-1.47-37.52-27.19 1.06c-7.12.28-12.2-.44-15.25-2.16-3.06-1.72-5.12-4.34-6.17-7.86-1.06-3.52-1.7-8.32-1.94-14.4s.09-10.97.98-14.69c.89-3.71 2.68-6.31 5.38-7.79 4.08-2.23 9.55-3.47 16.43-3.74zM2375.57 2303.7c-6.26-7.11-9.49-13.59-9.72-19.44s4.4-13.79 13.89-23.81c5.52-5.73 11.49-8.72 17.92-8.97 6.42-.25 15.6 5.14 27.52 16.16 3.36 3.78 8.1 7.33 14.21 10.65 6.1 3.33 11.68 4.89 16.73 4.69 21.34-.83 31.67-9.97 30.99-27.41-.21-5.27-3.31-9.58-9.3-12.91s-13.38-5.62-22.16-6.89c-8.79-1.26-18.29-3.47-28.53-6.64-10.24-3.16-19.81-6.98-28.72-11.46s-16.49-11.82-22.75-22.03-9.68-22.66-10.25-37.35c-.79-20.19 6.03-38.1 20.48-53.71 14.44-15.62 34.62-23.93 60.56-24.95 13.77-.54 26.4.75 37.9 3.86 11.5 3.12 19.5 6.42 24 9.92l8.86 6.2c7.37 6.38 11.15 11.86 11.33 16.45s-2.33 11.01-7.52 19.25c-7.35 11.78-15.16 17.83-23.42 18.15-4.82.19-10.88-1.87-18.17-6.18-.71-.43-2.07-1.52-4.09-3.29-2.02-1.76-3.86-3.18-5.51-4.27-4.94-2.79-11.14-4.05-18.59-3.75-7.46.29-13.58 2.32-18.38 6.06-4.8 3.75-7.07 8.78-6.82 15.09s3.37 11.3 9.38 14.97c6 3.67 13.39 6.03 22.17 7.06 8.77 1.04 18.38 2.79 28.82 5.25 10.44 2.47 20.09 5.59 28.98 9.38 8.88 3.79 16.45 10.68 22.7 20.66s9.67 22.43 10.25 37.35-1.89 28.17-7.41 39.76c-5.53 11.59-12.98 20.67-22.38 27.25-18.11 12.89-37.72 19.75-58.83 20.57-10.79.42-21.05-.5-30.79-2.76s-17.67-5.22-23.79-8.89c-12.45-6.87-21.22-13.65-26.31-20.34l-3.25-3.68zm306.67-232.28c33.96-1.33 63.93 9.79 89.9 33.37s39.67 53.55 41.09 89.92-9.3 67.82-32.16 94.33c-22.87 26.52-51.74 40.46-86.61 41.83-34.88 1.37-65.03-10.09-90.46-34.38-25.42-24.28-38.82-53.86-40.18-88.75-.75-19.04 2-37.02 8.23-53.93 6.23-16.9 14.86-31.2 25.9-42.9 11.03-11.69 23.88-21.04 38.55-28.05 14.66-7 29.91-10.82 45.74-11.44zm-57.57 132.22c.8 20.43 8.04 36.74 21.74 48.96 13.69 12.22 28.68 18.01 44.98 17.37 16.29-.64 30.73-7.41 43.33-20.31 12.59-12.9 18.48-29.79 17.67-50.67-.82-20.88-8.07-37.37-21.76-49.48-13.69-12.1-28.68-17.84-44.97-17.2s-30.73 7.58-43.31 20.83c-12.58 13.24-18.48 30.08-17.68 50.5zm324.32-142.65c33.96-1.33 63.92 9.8 89.9 33.37 25.97 23.58 39.67 53.55 41.09 89.92s-9.3 67.82-32.16 94.33c-22.87 26.52-51.74 40.46-86.61 41.83-34.88 1.36-65.03-10.09-90.46-34.38-25.42-24.28-38.82-53.86-40.18-88.74-.75-19.04 2-37.02 8.23-53.93 6.23-16.9 14.86-31.2 25.9-42.9 11.03-11.69 23.88-21.04 38.55-28.05 14.66-7.01 29.91-10.83 45.74-11.45zm-57.57 132.21c.8 20.43 8.04 36.74 21.74 48.96 13.69 12.22 28.68 18.01 44.98 17.37 16.29-.64 30.73-7.41 43.33-20.31 12.59-12.9 18.48-29.79 17.67-50.67-.82-20.88-8.07-37.37-21.76-49.48-13.69-12.1-28.68-17.84-44.97-17.2s-30.73 7.58-43.31 20.83-18.48 30.08-17.68 50.5zm369.42-130.8c2.02-4.1 5.19-6.92 9.49-8.47s9.73-2.45 16.27-2.7 11.84.11 15.9 1.1 7.1 2.25 9.11 3.78 3.54 3.89 4.59 7.06c1.52 3.62 2.44 9.44 2.75 17.47l7.47 191.03c.21 5.51.2 9.53-.04 12.07-.25 2.54-1.22 5.56-2.92 9.08-2.97 6.32-11.8 9.77-26.48 10.34-8.95.35-15.17-.09-18.67-1.34-3.5-1.24-6.45-3.31-8.86-6.2l-107.16-130.94 4.43 113.24c.21 5.51.2 9.53-.04 12.07s-1.22 5.56-2.92 9.08c-2.97 6.32-11.8 9.77-26.48 10.34-14.23.56-23.07-2.2-26.52-8.27-1.97-3.37-3.18-6.42-3.63-9.17-.45-2.74-.78-6.75-.99-12.03l-7.51-192.06c-.34-8.72.5-15.13 2.52-19.23s5.19-6.92 9.49-8.47 9.9-2.46 16.79-2.72c6.88-.27 12.36.15 16.42 1.25 4.06 1.11 6.93 2.43 8.6 3.97.94.65 3.7 3.53 8.27 8.64l102.17 126.65-4.55-116.34c-.36-8.71.47-15.12 2.5-19.23zm140.24 143.95c-4.32 1.32-10.15 2.12-17.49 2.41-7.35.29-13.22-.05-17.62-1.04-4.41-.97-7.53-2.92-9.36-5.84-1.84-2.91-2.97-5.51-3.41-7.79-.43-2.28-.75-5.83-.93-10.65l-4.27-109.11c-.19-4.82-.16-8.44.09-10.86s1.23-5.16 2.95-8.21 4.73-5.3 9.04-6.73 10.13-2.29 17.48-2.58c7.34-.29 13.22.12 17.63 1.21s7.53 3.15 9.38 6.18c1.84 3.03 2.98 5.74 3.42 8.14s.75 6 .94 10.82l4.27 109.11c.19 4.82.16 8.39-.1 10.69-.25 2.31-1.25 4.93-2.97 7.87s-4.74 5.07-9.05 6.38zm-44.55 41.91c2.12-4.57 5.5-7.74 10.14-9.53s11.95-2.88 21.93-3.27 17.29 1.51 21.94 5.69c4.65 4.19 7.15 10.98 7.52 20.39l.21 5.51c.22 5.51.2 9.59-.04 12.24s-1.21 5.85-2.9 9.59c-3.41 6.8-12.06 10.47-25.94 11.01-13.89.54-23.15-1.33-27.8-5.63s-7.22-12.87-7.73-25.72c-.34-8.96.55-15.72 2.67-20.28z" class="B"/><defs ><path id="B" d="M4772.79 2790.39l1.9-2.46c1.65-2.14 1.25-5.22-.89-6.87l-61.74-47.53c-2.14-1.65-5.22-1.25-6.87.89l-1.9 2.46c-1.65 2.14-1.25 5.22.89 6.87l61.74 47.53c2.14 1.65 5.22 1.25 6.87-.89z"/><path id="C" d="M2162.77 3208.62c-24.18 0-43.85-19.67-43.85-43.85s19.67-43.85 43.85-43.85 43.85 19.67 43.85 43.85-19.67 43.85-43.85 43.85zm0-66.31c-12.38 0-22.46 10.08-22.46 22.46s10.08 22.46 22.46 22.46 22.46-10.08 22.46-22.46-10.08-22.46-22.46-22.46z"/><path id="D" d="M3486.93 2771.21c-5.54 0-10.22-4.27-10.65-9.88a10.7 10.7 0 0 1 9.84-11.48l68.25-5.24c5.9-.45 11.03 3.96 11.48 9.84a10.69 10.69 0 0 1-9.84 11.48l-68.25 5.24a7.81 7.81 0 0 1-.83.04z"/></defs></svg>