<svg xmlns="http://www.w3.org/2000/svg" enable-background="new 0 0 2000 2000" viewBox="0 0 2000 2000"><path fill="#deedff" fill-rule="evenodd" d="M1531.99,805.65c25.51-49.61,28.33-110.46,2.26-165.12c-38.4-80.53-126.72-121.08-209.38-101.59l-0.19,0.06  c-8.28,1.96-16.51,4.52-24.65,7.72c-159.01,53.24-263.72,151.85-598.08,139.15v0.03c-64.95-4.21-132.36,7.72-195.93,37.9  c-192.64,91.39-277.31,315.45-189.1,500.48c62.66,131.41,195.68,207.76,336.54,208.23v0.03c104.66,2.03,262.27-52.42,426.35-43.14  c142.34,8.06,269.3,107.06,401.34,45.9c3.51-1.48,7.02-3.04,10.52-4.68c110.96-52.65,161.18-178.59,112.21-281.32  c-3.12-6.55-6.58-12.82-10.35-18.88C1522.87,1016.92,1502.35,908.65,1531.99,805.65L1531.99,805.65z M1531.99,805.65" clip-rule="evenodd"/><path fill="#c7dcf5" fill-rule="evenodd" d="M981.7,1173.77c13.89-16.31,30.4-29.7,48.55-39.79l-7.72-25.46c-2.49-8.12,2.15-16.79,10.26-19.25l10.49-3.18  l21.47-6.5l10.49-3.18c8.11-2.48,16.75,2.15,19.24,10.27l7.72,25.49c20.69-1.67,41.83,0.25,62.47,6.14l12.52-23.46  c4.01-7.47,13.41-10.32,20.89-6.32l9.64,5.15l19.8,10.57l9.64,5.16c7.47,4.01,10.32,13.41,6.33,20.88l-12.55,23.45  c16.34,13.89,29.73,30.4,39.82,48.55l25.47-7.72c8.11-2.48,16.78,2.15,19.24,10.29l3.18,10.45l6.49,21.47l3.18,10.49  c2.46,8.12-2.18,16.76-10.29,19.24l-25.46,7.72c1.7,20.69-0.25,41.86-6.13,62.47l23.45,12.55c7.47,3.99,10.32,13.39,6.33,20.86  l-5.15,9.65l-10.6,19.8l-5.15,9.65c-3.99,7.48-13.39,10.32-20.86,6.33l-23.45-12.52c-6.05,7.12-12.61,13.67-19.58,19.63  c-20.45-6.27-41.08-12.57-61.97-17.98c26.13-11.91,46.71-31.9,59.6-56.03c15.42-28.83,19.82-63.58,9.59-97.35  c-10.23-33.77-33.21-60.18-62.04-75.6c-28.83-15.42-63.58-19.83-97.35-9.59c-33.77,10.24-60.18,33.18-75.6,62.04  c-15.42,28.83-19.85,63.56-9.62,97.35c7.83,25.76,23.06,47.27,42.66,62.86c-21.61,0.14-43.03,1.2-64.16,2.93  c-3.85-5.41-7.39-11.02-10.59-16.79l-25.47,7.72c-8.14,2.46-16.78-2.17-19.24-10.29l-3.18-10.46l-6.53-21.47l-3.15-10.48  c-2.48-8.12,2.15-16.76,10.27-19.25l25.49-7.72c-1.7-20.69,0.25-41.86,6.13-62.47l-23.45-12.55c-7.5-3.98-10.35-13.39-6.33-20.85  l5.16-9.65l10.56-19.8l5.16-9.65c4.02-7.47,13.41-10.34,20.89-6.33L981.7,1173.77z M1318.07,989.3l22.95-4.49  c8.28-1.61,16.37,3.85,17.99,12.11l2.84,14.58c10.37,1.51,20.27,4.93,29.2,10.04l11.21-9.76c6.36-5.55,16.09-4.88,21.62,1.48  l15.36,17.65c5.52,6.36,4.85,16.06-1.51,21.62l-11.21,9.76c1.89,4.74,3.37,9.7,4.38,14.86c1.03,5.19,1.51,10.34,1.54,15.42  l14.08,4.85c7.98,2.74,12.24,11.49,9.51,19.46l-7.61,22.12c-2.73,7.97-11.49,12.24-19.44,9.51l-14.08-4.83  c-6.36,8.09-14.22,15.01-23.29,20.28l2.87,14.58c1.62,8.28-3.85,16.37-12.1,17.99l-22.95,4.49c-8.28,1.61-16.37-3.85-17.98-12.11  l-2.85-14.58c-10.37-1.51-20.27-4.93-29.2-10.04l-11.21,9.76c-6.36,5.55-16.09,4.85-21.61-1.48l-15.37-17.65  c-5.55-6.36-4.88-16.06,1.48-21.62l11.22-9.76c-1.87-4.74-3.35-9.7-4.38-14.86c-1-5.19-1.5-10.35-1.53-15.45l-14.06-4.83  c-7.97-2.73-12.24-11.49-9.51-19.46l7.58-22.12c2.73-7.98,11.49-12.24,19.47-9.51l14.08,4.83c6.33-8.09,14.19-15.01,23.25-20.28  l-2.84-14.58C1304.35,999.01,1309.79,990.92,1318.07,989.3L1318.07,989.3z M1339.26,1056.82c19.94-6.05,41.02,5.22,47.04,25.16  c6.05,19.94-5.22,40.99-25.16,47.05c-19.94,6.05-40.99-5.22-47.04-25.16C1308.06,1083.92,1319.33,1062.87,1339.26,1056.82  L1339.26,1056.82z M1362.99,1224.86l21.28-9.73c7.67-3.48,16.81-0.09,20.3,7.59l6.2,13.52c10.43-0.98,20.85,0.09,30.7,2.96  l8.64-12.1c4.88-6.89,14.51-8.48,21.37-3.6l19.04,13.58c6.86,4.88,8.48,14.51,3.6,21.37l-8.65,12.1c2.96,4.15,5.55,8.65,7.75,13.44  c2.18,4.8,3.88,9.7,5.08,14.64l14.81,1.43c8.39,0.81,14.58,8.31,13.77,16.71l-2.23,23.28c-0.79,8.4-8.31,14.58-16.71,13.81  l-14.81-1.42c-4.3,9.34-10.32,17.9-17.9,25.15l6.19,13.53c3.48,7.64,0.09,16.78-7.58,20.27l-21.28,9.74  c-7.67,3.48-16.81,0.08-20.3-7.59l-6.16-13.52c-10.46,0.97-20.89-0.09-30.73-2.96l-8.65,12.13c-4.88,6.86-14.5,8.47-21.36,3.57  l-19.05-13.58c-6.86-4.88-8.47-14.5-3.6-21.36l8.65-12.1c-2.96-4.16-5.55-8.64-7.72-13.44c-2.2-4.8-3.88-9.7-5.1-14.64l-14.81-1.42  c-8.39-0.81-14.58-8.31-13.77-16.71l2.23-23.28c0.78-8.39,8.31-14.58,16.71-13.78l14.81,1.39c4.3-9.31,10.32-17.88,17.9-25.12  l-6.16-13.53C1351.92,1237.49,1355.33,1228.35,1362.99,1224.86L1362.99,1224.86z M1407.48,1282.03  c19.94-6.05,40.99,5.22,47.05,25.13c6.05,19.94-5.22,41.02-25.16,47.07c-19.94,6.02-40.99-5.22-47.05-25.16  C1376.27,1309.13,1387.54,1288.05,1407.48,1282.03L1407.48,1282.03z M1160.15,1206.48c-20.97-11.21-46.21-14.41-70.75-6.97  c-24.56,7.45-43.75,24.12-54.96,45.09c-11.22,20.97-14.42,46.21-6.97,70.75c7.45,24.54,24.12,43.75,45.1,54.96  c20.94,11.21,46.2,14.42,70.75,6.97c24.54-7.45,43.75-24.12,54.96-45.09c11.21-20.97,14.42-46.21,6.97-70.75  C1197.8,1236.88,1181.09,1217.7,1160.15,1206.48L1160.15,1206.48z M1160.15,1206.48" clip-rule="evenodd"/><path fill="#aec8e6" fill-rule="evenodd" d="M1422.23,521.42c167.46,0,303.24,135.75,303.24,303.21c0,167.49-135.78,303.23-303.24,303.23  c-167.49,0-303.23-135.75-303.23-303.23C1118.99,657.18,1254.74,521.42,1422.23,521.42L1422.23,521.42z M1422.23,521.42" clip-rule="evenodd"/><path fill="#fff" fill-rule="evenodd" d="M1321.05,875.72v28.06h-106.33c1.14-10.68,4.6-20.78,10.37-30.31c5.75-9.54,17.12-22.23,34.07-38.01  c13.66-12.78,22.03-21.42,25.13-25.94c4.16-6.28,6.25-12.46,6.25-18.63c0-6.78-1.79-11.96-5.44-15.61c-3.63-3.65-8.62-5.44-15-5.44  c-6.33,0-11.35,1.9-15.12,5.75c-3.71,3.79-5.85,10.12-6.44,18.99l-30.28-3.01c1.81-16.73,7.45-28.72,16.95-36.03  c9.51-7.25,21.36-10.9,35.61-10.9c15.64,0,27.91,4.24,36.87,12.66c8.89,8.45,13.36,18.94,13.36,31.51c0,7.14-1.28,13.92-3.82,20.42  c-2.53,6.44-6.61,13.19-12.16,20.28c-3.65,4.71-10.32,11.43-19.91,20.25c-9.59,8.81-15.67,14.63-18.24,17.54  c-2.56,2.87-4.62,5.71-6.22,8.45H1321.05z M1400.9,903.78v-31.82h-64.53v-26.41l68.44-100.7h25.51v100.59h19.66v26.52h-19.66v31.82  H1400.9z M1400.9,845.44v-54.07l-36.17,54.07H1400.9z M1454.66,906.45l39.35-163.61h22.78l-39.57,163.61H1454.66z M1525.8,775.58  V747.5h103.91v22.12c-8.6,8.42-17.29,20.52-26.16,36.28c-8.85,15.76-15.62,32.55-20.27,50.28c-4.63,17.76-6.92,33.66-6.83,47.6  h-29.2c0.53-21.92,5.02-44.28,13.52-67.07c8.57-22.78,19.91-43.19,34.17-61.12H1525.8z M1525.8,775.58" clip-rule="evenodd"/><path fill="#c7dcf5" fill-rule="evenodd" d="M903.15,1616.22c306.56,0,555.05,32.63,555.05,72.87c0,40.23-248.49,72.87-555.05,72.87  c-306.55,0-555.08-32.63-555.08-72.87C348.07,1648.85,596.59,1616.22,903.15,1616.22L903.15,1616.22z M903.15,1616.22" clip-rule="evenodd"/><path fill="#233862" fill-rule="evenodd" d="M1155.35,1669.01c-55.02-0.89-96.15-1.56-115.17-7.55c-20.5-6.47-16.26-18.99-4.46-38.99  c51.87,23.87,38.04-4.91,62.3-1.26c17.04,13.72,42.28,22.92,75.72,27.61C1187.87,1659.25,1182.12,1668.54,1155.35,1669.01  L1155.35,1669.01z M1155.35,1669.01" clip-rule="evenodd"/><path fill="#6bb7bf" fill-rule="evenodd" d="M1084.66,830.52H744.64c-6.69,0-13.61,5.47-15.36,12.16l-60.52,230.4c-1.76,6.69,2.28,12.16,8.98,12.16h340.05  c6.69,0,13.61-5.47,15.36-12.16l60.49-230.4C1095.43,835.99,1091.38,830.52,1084.66,830.52L1084.66,830.52z M1084.66,830.52" clip-rule="evenodd"/><path fill="#f9ddbf" fill-rule="evenodd" d="M722,837.16l-41.08,156.39c-49.33-24.07-108.73-62.69-171.06-112.24c-1.67-22.28-3.76-40.07-6.22-53.34  c4.99-9.9,10.46-20.49,16.43-31.79c-57.5-0.36-92.59-12.75-105.21-37.09c15.39-45.03,36.89-90.99,64.53-137.9  c19.33-28.58,57.17-45.38,113.52-50.39c6.58,75.57,122.5,71.7,95.23,6.64c42.08,11.29,77.69,32.15,106.89,62.58  c25.12,61.91,40.46,105.1,45.98,129.59c-27.3,19.1-53.12,31.48-77.55,37.12c-1.09,5.35-1.98,11.44-2.62,18.27h-23.49  C730.67,824.97,723.75,830.46,722,837.16L722,837.16z M722,837.16" clip-rule="evenodd"/><path fill="#347e8f" fill-rule="evenodd" d="M680.92,993.54L722,837.16c1.76-6.72,8.67-12.18,15.36-12.18h340.05c6.7,0,18.63,8.64,16.65,15.28  c0.31-5.55-3.51-9.73-9.39-9.73H744.64c-6.69,0-13.61,5.47-15.36,12.16l-60.52,230.4c-1.03,4.01-0.03,7.58,2.43,9.82  c-5.6-3.63-10.93-10.63-9.67-15.37L680.92,993.54z M680.92,993.54" clip-rule="evenodd"/><path fill="#347e8f" fill-rule="evenodd" d="M677.74,1085.23h340.05c1.23,0,2.48-0.17,3.71-0.53c-6.75,17.54-25.15,14.94-32.32,14.89H586.05  c-21.86-0.92-21.27-16.26-21.58-31.01h96.87c-0.34,4.68,4.65,10.93,9.84,14.31C672.81,1084.37,675.07,1085.23,677.74,1085.23  L677.74,1085.23z M677.74,1085.23" clip-rule="evenodd"/><path fill="#347e8f" fill-rule="evenodd" d="M725.34,925.25c36.44,18.43,79.56,24.09,123.9,26.35c-0.5,1.59-0.86,3.23-1.14,4.91  c-2.96,18.68,10.24,34.57,29.26,34.57c17.93,0,34.19-14.19,36.98-31.85c0.31-1.89,0.41-3.79,0.38-5.63  c46.04,1.23,90.52,3.77,127.27,18.15l-25.27,96.32H687.84L725.34,925.25z M725.34,925.25" clip-rule="evenodd"/><path fill="#347e8f" fill-rule="evenodd" d="M884.71,935.82c-12.19,0-23.64,9.87-25.57,22.06c-1.92,12.19,6.39,22.06,18.58,22.06s23.64-9.87,25.57-22.06  C905.21,945.69,896.9,935.82,884.71,935.82L884.71,935.82z M884.71,935.82" clip-rule="evenodd"/><path fill="#f9ddbf" fill-rule="evenodd" d="M493.49,1029.12c6.78-20.69,11.66-42.13,14.61-64.36c45.79,17.73,98.16,34.83,164.37,60.99l-8.95,34.05  C563.49,1063.06,506.8,1052.83,493.49,1029.12L493.49,1029.12z M493.49,1029.12" clip-rule="evenodd"/><path fill="#ffb27d" fill-rule="evenodd" d="M672.47,1025.75c-66.21-26.16-118.58-43.26-164.37-60.99c-40.35-15.65-75.6-31.73-110.71-54.99  c1.46-44.85,8.15-88.21,26.69-138.52c17.03,16.32,49.05,24.6,95.98,24.91c-13.58,25.71-24.65,47.85-33.21,66.45  c70.63,58.56,138.7,103.91,194.06,130.93L672.47,1025.75z M672.47,1025.75" clip-rule="evenodd"/><path fill="#ffb27d" fill-rule="evenodd" d="M832.21,775.56c5.08,17.82,9.82,34.3,14.16,49.42h-85.52c0.64-6.83,1.53-12.91,2.62-18.27  C785.25,801.68,808.14,791.28,832.21,775.56L832.21,775.56z M832.21,775.56" clip-rule="evenodd"/><path fill="#233862" fill-rule="evenodd" d="M1039.82,1604.34c-50.59-183.41-68.68-312.25-54.27-386.54c-28.75,4.1-57.61,5.38-86.62,3.88  c4.4-19.85,8.85-39.74,13.36-59.9c-0.5-27.33-14.5-47.62-64.05-62.18h140.94c4.8,0.02,14.56,1.2,22.56-3.24  c45.4,12.97,67.57,34.39,75.15,60.54c5.53,71.95-9.42,153.9,3.32,448C1074.32,1606.54,1057.53,1606.38,1039.82,1604.34  L1039.82,1604.34z M1039.82,1604.34" clip-rule="evenodd"/><path fill="#2b478b" fill-rule="evenodd" d="M986.97,1099.6h2.21c4.8,0.02,14.56,1.2,22.56-3.24c45.4,12.97,67.57,34.39,75.15,60.54  c5.53,71.95-9.42,153.9,3.32,448c-9.48,0.98-19.27,1.31-29.42,1c-26.13-102.23-88.26-353.01-18.24-461.08  C1026.1,1127.4,1007.58,1112.31,986.97,1099.6L986.97,1099.6z M986.97,1099.6" clip-rule="evenodd"/><path fill="#ffb27d" fill-rule="evenodd" d="M593,571.57c9.01-11.46,16.95-22.12,19.27-29.68c-1.81-5.18-3.73-11.74-5.72-19.63  c-33.74-22.92-38.34-39.87-13.83-50.89c4.93,2.78,11.07,11.31,18.4,25.62c5.85-0.25,10.29-3.23,13.3-8.97  c-6.97-24.15-11.48-43.73-13.61-58.82c16.65-24.71,55.52-28.22,107.03-21.55c2.4,13.69,4.35,28.22,5.88,43.56  c9.1,8.37,7.92,39.49-0.47,75.32c4.21,20.39-8.37,31.51-37.73,33.35c-0.42,7.25,2.43,16.46,2.62,17.54v0.03  c0.03,0.06,0.06,0.11,0.11,0.22C715.03,642.26,600.3,646.22,593,571.57L593,571.57z M593,571.57" clip-rule="evenodd"/><path fill="#2b478b" fill-rule="evenodd" d="M717.84,407.65c-51.48-6.7-90.38-3.15-107.03,21.55c2.12,15.09,6.64,34.7,13.61,58.82  c-3.01,5.74-7.45,8.72-13.3,8.97c-7.33-14.31-13.47-22.84-18.4-25.62c-24.52,11.02-19.91,27.97,13.83,50.89  c1.98,7.9,3.9,14.45,5.72,19.61c-30.37-6.81-55.77-33.94-59.34-45.71c-35.42-69.8,4.07-99.27,25.21-110.04  c9.34-69.13,109.73-8,160.01-41.36C758.14,372.4,733.43,407.04,717.84,407.65L717.84,407.65z M717.84,407.65" clip-rule="evenodd"/><path fill="#f08261" fill-rule="evenodd" d="M647.37,558.99c14.19,1.14,26.91,1.45,38.15,0.89c-0.31,4.99,0.95,10.9,1.84,14.47  C669.15,573.88,655.83,568.75,647.37,558.99L647.37,558.99z M647.37,558.99" clip-rule="evenodd"/><path fill="#b64c41" fill-rule="evenodd" d="M802.92,1208.66H496.14c-10.96,0-19.94,8.98-19.94,19.94c0,10.99,8.98,19.94,19.94,19.94h306.78  c10.96,0,19.94-8.95,19.94-19.94C822.86,1217.64,813.88,1208.66,802.92,1208.66L802.92,1208.66z M802.92,1208.66" clip-rule="evenodd"/><path fill="#b64c41" fill-rule="evenodd" d="M514.44,1586.25c14.67-14.67,34.92-23.79,57.23-23.79h155.74c22.31,0,42.56,9.12,57.23,23.79  c14.66,14.66,23.76,34.91,23.76,57.19v16.34h6.25v20.22h-45.96v-20.22h6.25v-16.34c0-13.05-5.35-24.9-13.97-33.52  c-8.62-8.62-20.5-13.97-33.55-13.97H571.67c-13.06,0-24.94,5.35-33.55,13.97c-8.62,8.62-13.94,20.47-13.94,33.52v16.34h6.22v20.22  h-45.95v-20.22h6.25v-16.34C490.68,1621.16,499.77,1600.91,514.44,1586.25L514.44,1586.25z M514.44,1586.25" clip-rule="evenodd"/><rect width="33.49" height="313.92" x="632.79" y="1248.54" fill="#b64c41" fill-rule="evenodd" clip-rule="evenodd"/><path fill="#2b478b" fill-rule="evenodd" d="M542.24,1207.4c-59.34-21.27-67.4-80.4-41.3-169.66c21.45,17.55,75.63,24.88,162.58,22.06l-2.01,7.72  c-0.12,0.34-0.17,0.7-0.17,1.06h-96.87c0.31,14.75-0.28,30.09,21.58,31.01h262.19c49.55,14.55,63.55,34.85,64.05,62.18  c-31.37,140.22-59.28,268.8-97.32,446.47c-12.8,7.16-30.34,6.63-52.63-1.68c-17.82-172.28-12.94-297.57,14.7-375.88  C703.68,1231,625.4,1220.98,542.24,1207.4L542.24,1207.4z M542.24,1207.4" clip-rule="evenodd"/><path fill="#233862" fill-rule="evenodd" d="M542.24,1207.4c-59.34-21.3-67.4-80.37-41.3-169.66c4.55,3.71,10.6,7,18.13,9.79  c-21.64,91.74,1.87,142.02,71.59,146.85c81.34,12.07,148.78,17.88,202.32,17.4c-23.59,152.96-27.64,286.34-12.14,400.12  c-5.74-1.08-11.91-2.87-18.49-5.33c-17.82-172.28-12.94-297.57,14.7-375.88C703.68,1230.97,625.4,1220.98,542.24,1207.4  L542.24,1207.4z M542.24,1207.4" clip-rule="evenodd"/><path fill="#ffb27d" fill-rule="evenodd" d="M1084.91,1605.37c1.45,5.55,3.85,10.74,7.17,15.62c-15.87,1.48-9.73,21.92-52.62,3.18  c1.84-5.41,2.84-11.94,3.07-19.52C1057.31,1606.18,1071.41,1606.43,1084.91,1605.37L1084.91,1605.37z M1084.91,1605.37" clip-rule="evenodd"/><path fill="#233862" fill-rule="evenodd" d="M814.83,1701.19c-29.2-12.04-33.57-31.68-49.66-39.18c-16.18-7.56-18.01-21-2.21-35.61  c11.69,9.31,26.19,20.8,33.86,14.72c5.13-4.07,22.5-3.79,25.96,2.12c15.14,35.19,36.2,24.04,40.39,40.07  C863.63,1704.64,833.23,1708.78,814.83,1701.19L814.83,1701.19z M814.83,1701.19" clip-rule="evenodd"/><path fill="#ffb27d" fill-rule="evenodd" d="M809.87,1610.62c-0.25,9.34,1.03,18.74,3.82,28.16c-6.25-0.98-13.78-0.11-16.87,2.34  c-7.11,5.63-20.08-3.82-31.23-12.66c1.81-5.05,3.03-11.55,3.65-19.52C785.55,1614.05,799.1,1614.6,809.87,1610.62L809.87,1610.62z   M809.87,1610.62" clip-rule="evenodd"/><path fill="#eac3a2" fill-rule="evenodd" d="M520.07,796.17c7.56-13.66,15.56-32.05,23.98-55.13c-4.54,26.89-4.29,46.26-11.6,68.38  c5.89,31.26,8.34,63.17,7.72,95.32c-10.01-7.5-20.1-15.31-30.31-23.43c-1.67-22.28-3.76-40.07-6.22-53.34  C508.63,818.05,514.1,807.46,520.07,796.17L520.07,796.17z M781.06,801.57c-5.94,2.07-11.8,3.8-17.6,5.13  c2.2-34.25,3.65-62.52,4.32-84.86C774.37,754.84,778.8,781.41,781.06,801.57L781.06,801.57z M493.49,1029.12  c6.78-20.69,11.66-42.13,14.61-64.36c8.48,3.26,17.18,6.53,26.16,9.84c-3.6,24.32-8.72,48.69-15.25,72.92  C506.19,1042.74,497.68,1036.6,493.49,1029.12L493.49,1029.12z M493.49,1029.12" clip-rule="evenodd"/><path fill="#599dad" fill-rule="evenodd" d="M1216.2,238.04c64.78,0,117.31,52.51,117.31,117.29c0,64.78-52.53,117.29-117.31,117.29  c-64.79,0-117.29-52.51-117.29-117.29C1098.91,290.55,1151.42,238.04,1216.2,238.04L1216.2,238.04z M1216.2,238.04" clip-rule="evenodd"/><path fill="#c7dcf5" fill-rule="evenodd" d="M1216.2,251.76c57.22,0,103.59,46.37,103.59,103.57c0,57.19-46.37,103.56-103.59,103.56  c-57.2,0-103.57-46.37-103.57-103.56C1112.63,298.14,1159.01,251.76,1216.2,251.76L1216.2,251.76z M1216.2,251.76" clip-rule="evenodd"/><path fill="#fff" fill-rule="evenodd" d="M1155.55,313.4h121.33c1.89,0,3.46,1.53,3.46,3.46v76.96c0,1.9-1.56,3.46-3.46,3.46h-121.33  c-1.93,0-3.49-1.56-3.49-3.46v-76.96C1152.06,314.92,1153.62,313.4,1155.55,313.4L1155.55,313.4z M1155.55,313.4" clip-rule="evenodd"/><path fill="#c7dcf5" fill-rule="evenodd" d="M1267.4,321.84c1.22-1.08,3.06-0.97,4.16,0.22c1.08,1.2,0.97,3.07-0.23,4.16l-53.15,47.43  c-1.14,1.01-2.84,0.98-3.96-0.03l-53.12-47.4c-1.2-1.09-1.31-2.96-0.22-4.16c1.08-1.19,2.93-1.31,4.15-0.22l51.17,45.68  L1267.4,321.84z M1267.4,321.84" clip-rule="evenodd"/><path fill="#599dad" fill-rule="evenodd" d="M930.9,369.36c-66.23,0-119.94,53.68-119.94,119.94c0,66.23,53.71,119.91,119.94,119.91  c66.23,0,119.94-53.68,119.94-119.91C1050.84,423.04,997.12,369.36,930.9,369.36L930.9,369.36z M930.9,369.36" clip-rule="evenodd"/><path fill="#c7dcf5" fill-rule="evenodd" d="M930.9,383.39c-58.48,0-105.91,47.41-105.91,105.91c0,58.48,47.43,105.88,105.91,105.88  c58.48,0,105.91-47.4,105.91-105.88C1036.81,430.79,989.37,383.39,930.9,383.39L930.9,383.39z M930.9,383.39" clip-rule="evenodd"/><path fill="#fff" fill-rule="evenodd" d="M993.64,545.82c2.59-2.59,4.96-5.72,5.3-11.04c0.31-5.08-1.89-9.45-4.35-12.32  c-5.58-6.45-13.33-7.23-23.65-10.02c-12.63-3.46-16.98,1.93-22.87,7.81c-2.23,2.23-1.34,2.03-5.05,0.86  c-13.42-4.32-25.96-13.24-34.07-24.54c-2.76-3.88-10.4-16.48-10.74-22.98c1.56-1.11,3.79-3.57,5.27-5.08  c7.92-8.03,5.52-14.58,3.07-23.54c-1.45-5.35-2.57-11.57-5.3-15.39c-2.57-3.57-6.78-7.28-13.06-8c-7.3-0.81-11.51,2.87-14.56,6  c-10.29,10.65-12.43,9.17-9.76,30.06c0.64,4.8,3.46,16.98,3.48,17.45c0.89,0.86,1.29,3.21,2.18,5.58c0.31,3.43,6.36,15.2,7.9,18.07  c1.51,2.76,3.34,5.53,4.96,7.92c1.84,2.76,3.43,5.18,5.52,7.5l3.49,4.49c1.48,0.94,3.57,3.62,4.85,4.9  c12.52,12.61,25.41,20.16,42.76,27.02c0.84,0.11,1.61,0.31,2.23,0.53l1.84,0.87l13.05,3.18c7.3,1.36,23.4,3.98,29.11-0.98  C988.04,551.76,990.96,548.5,993.64,545.82L993.64,545.82z M993.64,545.82" clip-rule="evenodd"/><path fill="#c7dcf5" fill-rule="evenodd" d="M1548.27,1584.54c83.44,0,151.09,14.06,151.09,31.43c0,17.34-67.65,31.4-151.09,31.4  c-83.43,0-151.09-14.06-151.09-31.4C1397.18,1598.6,1464.84,1584.54,1548.27,1584.54L1548.27,1584.54z M1548.27,1584.54" clip-rule="evenodd"/><path fill="#82b378" fill-rule="evenodd" d="M1594.98,1285.32c-0.53-2.23,0.86-4.46,3.13-4.99c2.23-0.5,4.46,0.89,4.96,3.15  c6.92,29.78,7.33,60.4-0.25,92.19c-7.56,31.65-23.06,64.39-48.05,98.5c-1.36,1.87-3.95,2.26-5.83,0.89  c-1.84-1.34-2.23-3.96-0.89-5.8c24.31-33.22,39.41-64.95,46.68-95.51C1602.01,1343.29,1601.59,1313.93,1594.98,1285.32  L1594.98,1285.32z M1594.98,1285.32" clip-rule="evenodd"/><path fill="#a8d29f" fill-rule="evenodd" d="M1599.95,1290.09c-37.59-85.52-35.39-166.42,6.6-242.64C1510.74,1126.76,1508.54,1207.63,1599.95,1290.09  L1599.95,1290.09z M1599.95,1290.09" clip-rule="evenodd"/><path fill="#82b378" fill-rule="evenodd" d="M1606.55,1047.45c-41.99,76.22-44.2,157.11-6.6,242.64C1686.42,1223.69,1578.33,1151.63,1606.55,1047.45  L1606.55,1047.45z M1606.55,1047.45" clip-rule="evenodd"/><path fill="#82b378" fill-rule="evenodd" d="M1549.28,1396.22c-0.19-2.28,1.48-4.32,3.76-4.54c2.26-0.2,4.3,1.48,4.52,3.76  c0.95,10.07,1.17,24.65,0.37,41.21c-0.7,14.36-2.21,30.23-4.63,45.99c-0.36,2.28-2.48,3.82-4.74,3.48  c-2.26-0.36-3.82-2.48-3.46-4.74c2.37-15.39,3.82-30.98,4.52-45.12C1550.42,1420.09,1550.2,1405.9,1549.28,1396.22L1549.28,1396.22z   M1549.28,1396.22" clip-rule="evenodd"/><path fill="#a8d29f" fill-rule="evenodd" d="M1554.35,1404.06c39.79-72.37,11.12-140.74-86.03-205.13C1519.67,1273.47,1548.36,1341.84,1554.35,1404.06  L1554.35,1404.06z M1554.35,1404.06" clip-rule="evenodd"/><path fill="#82b378" fill-rule="evenodd" d="M1554.35,1404.06c-6-62.22-34.69-130.59-86.03-205.13C1498.81,1300.46,1432.63,1337.94,1554.35,1404.06  L1554.35,1404.06z M1554.35,1404.06" clip-rule="evenodd"/><path fill="#82b378" fill-rule="evenodd" d="M1552.2,1478.77c0.09,2.28-1.73,4.21-4.01,4.26c-2.29,0.09-4.21-1.73-4.3-4.01  c-0.34-10.68-2.79-21.39-5.97-30.98c-5.08-15.31-12.04-27.86-15.42-33.3c-1.2-1.95-0.61-4.52,1.34-5.75  c1.96-1.2,4.52-0.61,5.72,1.34c3.57,5.72,10.88,18.9,16.26,35.08C1549.22,1455.7,1551.84,1467.2,1552.2,1478.77L1552.2,1478.77z   M1552.2,1478.77" clip-rule="evenodd"/><path fill="#82b378" fill-rule="evenodd" d="M1437.92,1422.8c25.1,57.86,78.86-12.55,98.08-0.86c-5.72-13.05-13.81-22.39-22.87-27.13  C1486.65,1380.94,1464.65,1429.24,1437.92,1422.8L1437.92,1422.8z M1437.92,1422.8" clip-rule="evenodd"/><path fill="#f1a34f" fill-rule="evenodd" d="M1676.52,1462.01v75.35c0,47.52-38.87,86.42-86.42,86.42h-68.35c-47.52,0-86.42-38.9-86.42-86.42v-75.35  H1676.52z M1676.52,1462.01" clip-rule="evenodd"/><path fill="#ffb973" fill-rule="evenodd" d="M1652.09,1597.43c-117.98,37.92-174.65-14.22-163.36-135.42h-53.4v75.35c0,47.52,38.9,86.42,86.42,86.42h68.35  C1614.36,1623.77,1636.34,1613.65,1652.09,1597.43L1652.09,1597.43z M1652.09,1597.43" clip-rule="evenodd"/></svg>