<svg xmlns="http://www.w3.org/2000/svg" viewBox="0 0 128 128"><path fill="#e855de" d="M109 105.2H19c-8.3 0-15-6.7-15-15V37.8c0-8.3 6.7-15 15-15h90c8.3 0 15 6.7 15 15v52.5c0 8.2-6.7 14.9-15 14.9z" class="colorefefef svgShape"/><path fill="#62355f" d="M109 106.5H19c-9 0-16.2-7.3-16.2-16.2V37.8c0-9 7.3-16.2 16.2-16.2h90c9 0 16.2 7.3 16.2 16.2v52.5c0 8.9-7.2 16.2-16.2 16.2zM19 24c-7.6 0-13.8 6.2-13.8 13.8v52.5c0 7.6 6.2 13.8 13.8 13.8h90c7.6 0 13.8-6.2 13.8-13.8V37.8c0-7.6-6.2-13.8-13.8-13.8H19z" class="color62355c svgShape"/><path fill="#e855de" d="M19 105.2h90c8.3 0 15-6.7 15-15l-52.2-32c-4.8-2.9-10.9-2.9-15.7 0L4 90.2c0 8.3 6.7 15 15 15z" class="colorefefef svgShape"/><path fill="#62355f" d="M109 106.5H19c-9 0-16.2-7.3-16.2-16.2 0-.4.2-.8.6-1.1l52.2-32c2.6-1.6 5.5-2.4 8.5-2.4s5.9.8 8.5 2.4l52.2 32c.4.2.6.6.6 1.1-.2 8.9-7.4 16.2-16.4 16.2zM5.3 90.9C5.6 98.2 11.6 104 19 104h90c7.4 0 13.4-5.8 13.7-13.1L71.2 59.4c-4.3-2.6-10-2.6-14.4 0L5.3 90.9z" class="color62355c svgShape"/><path fill="#593056" d="M124 37.8c0-8.3-6.7-15-15-15H19c-8.3 0-15 6.7-15 15v10.9l46.4 31.9c4 2.8 8.7 4.2 13.6 4.2s9.6-1.5 13.6-4.2L124 48.7V37.8z" class="color593055 svgShape" opacity=".2"/><path fill="#fe44f1" d="M109 22.8H19c-8.3 0-15 6.7-15 15l51.5 35.4c5.1 3.5 11.9 3.5 17 0L124 37.8c0-8.3-6.7-15-15-15z" class="colorfee444 svgShape"/><path fill="#62355f" d="M64 77c-3.3 0-6.5-1-9.2-2.9L3.3 38.8c-.3-.2-.5-.6-.5-1 0-9 7.3-16.2 16.2-16.2h90c9 0 16.2 7.3 16.2 16.2 0 .4-.2.8-.5 1L73.2 74.2C70.5 76.1 67.3 77 64 77zM5.3 37.1l50.9 35c2.3 1.6 5 2.4 7.8 2.4s5.5-.8 7.8-2.4l50.9-35c-.3-7.3-6.3-13.1-13.7-13.1H19c-7.4 0-13.4 5.8-13.7 13.1z" class="color62355c svgShape"/></svg>