<svg xmlns="http://www.w3.org/2000/svg" viewBox="0 0 24 24"><path fill="#f420e6" d="M19.556 14.815a10.22 10.22 0 0 1-3.21-.511c-.511-.175-1.256.131-1.427.3-.463.46-1.776 1.772-1.776 1.772a13.413 13.413 0 0 1-5.51-5.527S8.897 9.575 9.35 9.133c.286-.28.523-.946.358-1.474a10.235 10.235 0 0 1-.514-3.215C9.194 3.648 8.546 3 7.75 3H4.444C3.648 3 3 3.648 3 4.444 3 13.574 10.427 21 19.556 21c.796 0 1.444-.648 1.444-1.444v-3.297c0-.796-.648-1.444-1.444-1.444z" class="colorf47920 svgShape"/><path fill="#e855de" d="M9.35 9.133c.286-.28.523-.946.358-1.474a10.235 10.235 0 0 1-.514-3.215C9.194 3.648 8.546 3 7.75 3H4.444C3.648 3 3 3.648 3 4.444c0 3.157.904 6.1 2.443 8.613 0 0 3.455-3.482 3.907-3.924zM19.556 14.815a10.22 10.22 0 0 1-3.21-.511c-.511-.175-1.256.131-1.427.3l-3.976 3.953A16.431 16.431 0 0 0 19.556 21c.796 0 1.444-.648 1.444-1.444v-3.297c0-.796-.648-1.444-1.444-1.444z" class="colorffffff svgShape" opacity=".1"/></svg>